<svg xmlns="http://www.w3.org/2000/svg" viewBox="0 0 210.947 210.947" width="512" height="512"><path d="M105.434 34.254c-39.272 0-71.221 31.949-71.221 71.221 0 39.271 31.949 71.22 71.221 71.22 39.273 0 71.223-31.949 71.223-71.22.001-39.272-31.95-71.221-71.223-71.221zm0 135.691c-35.549 0-64.471-28.921-64.471-64.47s28.921-64.471 64.471-64.471 64.473 28.921 64.473 64.471c0 35.549-28.923 64.47-64.473 64.47z" fill="#fff"/><path d="M105.434 53.638c-28.581 0-51.834 23.253-51.834 51.837 0 28.584 23.252 51.84 51.834 51.84 28.583 0 51.837-23.255 51.837-51.84.002-28.583-23.253-51.837-51.837-51.837zm0 96.927c-24.859 0-45.084-20.227-45.084-45.09 0-24.861 20.224-45.087 45.084-45.087 24.861 0 45.087 20.225 45.087 45.087.002 24.863-20.224 45.09-45.087 45.09zM206.696 107.013c-.004-1.687-.059-18.491-.555-35.09-.306-10.262-.72-18.452-1.228-24.343-.313-3.634-.657-6.358-1.05-8.329-.342-1.716-1.143-5.735-4.625-5.735-.254 0-.508.026-.756.078-2.155.446-3.623 2.133-6.623 10.944-1.863 5.475-3.91 12.644-5.764 20.19-2.205 8.977-7.201 31.14-5.98 43.043.801 7.811 4.332 9.45 7.154 9.45l.164-.002c1.332-.034 2.391-.052 3.235-.052.976 0 1.583.021 2.286.047.094.003.189.007.289.01-.236 5.541-1.171 13.22-2.081 20.689-1.323 10.867-2.692 22.105-2.224 28.756.559 7.945 5.936 10.764 10.371 10.764 3.125 0 6.317-1.332 8.537-3.562 2.014-2.024 3.114-4.656 3.101-7.41-.039-8.149-3.964-55.94-4.251-59.448zm-3.632 62.096c-.967.972-2.404 1.574-3.754 1.574-2.203 0-3.428-1.51-3.637-4.487-.422-6.004.906-16.914 2.191-27.467 1.186-9.734 2.305-18.93 2.178-24.896-.039-1.836-1.539-3.303-3.374-3.303-1.731 0-8.675.664-9.06-.068-1.062-1.741-2.277-10.688 3.021-35.346 2.425-11.285 5.272-21.403 7.481-27.997 1.129 12.633 1.799 37.294 1.836 60.043 0 .092.004.182.011.272.042.509 4.201 51.041 4.242 59.064.005.969-.377 1.849-1.135 2.611zM36.723 70.209c0-2.134-.068-5.211-.154-9.106-.132-5.952-.296-15.609-.296-23.355 0-1.864-1.511-3.375-3.375-3.375s-3.375 1.511-3.375 3.375c0 7.821.165 17.519.298 23.504.023 1.046.046 2.051.065 3.002l-3.472.051V38.878c0-1.864-1.511-3.375-3.375-3.375s-3.375 1.511-3.375 3.375v25.527l-3.153.046V38.878c0-1.864-1.511-3.375-3.375-3.375s-3.375 1.511-3.375 3.375V64.55l-3.011.044V36.973c0-1.864-1.511-3.375-3.375-3.375S0 35.109 0 36.973v32.826c0 8.19 6.004 13.786 15.58 14.887v19.335c-.975.018-1.512.034-1.567.035-1.633.048-2.998 1.258-3.239 2.874-1.598 10.676-5.008 44.079-4.729 57.748.173 8.444 5.758 12.224 11.216 12.224 5.808 0 12.269-4.297 12.581-11.24.357-7.971-1.746-41.747-2.644-53.863-.163-2.206-.285-3.849-.342-4.694-.119-1.771-1.591-3.149-3.367-3.149-.399 0-.784 0-1.159.002V84.633c8.622-1.38 14.393-8.216 14.393-14.424zm-13.624 95.149c-.129 2.867-3.122 4.792-5.837 4.792-2.848 0-4.393-1.94-4.468-5.612-.236-11.584 2.46-41.023 4.249-53.792.904-.013 2.012-.024 3.308-.032.036.487.075 1.017.117 1.581.812 10.967 2.97 45.495 2.631 53.063zm-3.946-87.22c-2.702 0-11.078-.523-12.259-6.795l22.997-.338c-.606 3.154-4.658 7.133-10.738 7.133z" fill="#fff"/></svg>