<svg xmlns="http://www.w3.org/2000/svg" viewBox="0 0 297.81 297.81"><path d="M141.592 76.897v91h58v-16h-42v-75z"/><path d="M297.81 149.866c0-76.252-62.121-138.271-138.372-138.271-68.394 0-125.319 50.302-136.331 115.302H.897l38.302 66 39.424-66H55.664c10.506-48 53.096-83.302 103.848-83.302 58.605 0 106.298 47.673 106.298 106.278 0 50.642-36.218 93.111-83.218 103.721v32.621c65-11.013 115.218-67.957 115.218-136.349zM24.388 271.749l10.175-10.817c6.611-7.195 11.147-12.58 13.609-16.229 2.462-3.65 3.693-7.83 3.693-12.582 0-7.059-2.316-12.608-6.947-16.673-4.631-4.061-11.078-6.091-19.342-6.091-7.783 0-14.032 2.424-18.749 7.26-4.718 4.838-6.991 10.874-6.818 17.829l.104.45h17.044c0-4 .749-6.413 2.247-8.634 1.498-2.223 3.555-3.401 6.173-3.401 2.926 0 5.121.826 6.584 2.549 1.464 1.721 2.195 4.01 2.195 6.904 0 2.031-.723 4.415-2.169 7.169-1.446 2.756-3.531 5.884-6.593 9.398L1.592 274.288v11.609h52v-14H24.543l-.155-.148z"/><path d="M101.592 210.897h-17v-.293L54.24 259.185l.844 10.712h29.508v16h17v-16h8v-13h-8v-46zm-17 46H69.65l12.913-21.485 1.531-2.259.498-.029v23.773zm82 29v-32.373c0-2.406.06-4.613-.206-6.66-.674-5.16-2.073-9.203-4.438-12.088-3.307-4.029-7.799-6.043-13.584-6.043-2.927 0-5.388.697-7.816 2.092s-4.956 3.35-5.956 5.863v-26.791h-18v76h18v-40.895c0-.895 1.669-1.592 2.91-2.092 1.238-.498 2.607-.748 4.294-.748 2.652 0 4.596.809 5.887 2.426 1.292 1.619 1.909 4.563 1.909 8.834v32.475h17z"/></svg>