<svg xmlns="http://www.w3.org/2000/svg" viewBox="0 0 438.146 438.146"><path d="M276.4 275.873c.8 2.4 2 4.4 3.2 6 1.6 1.6 3.2 2.8 5.2 4 2 .8 4 1.2 6.4 1.2 2.4 0 4.4-.4 6.4-1.2 2-.8 3.6-2 5.2-3.6s2.8-3.6 3.2-6c.8-2 .8-4.4.8-7.2v-10c2.4 0 4.4-.4 6-.8 2.4-.4 4-1.2 6-2.4 3.6-2.4 5.6-6.4 5.6-11.6 0-2.8-.4-5.2-1.6-7.2-1.2-2.4-3.2-4.4-5.6-5.2-1.6-.8-3.6-1.2-6-1.6-1.6-.4-2.8-.4-4.8-.4v-58.8c0-6-1.6-11.2-4.4-14.4-3.2-3.6-7.6-5.6-13.6-5.6-2 0-4 .4-5.6 1.2-1.6.8-3.2 1.6-4.8 3.2-1.2.8-2.4 2.4-3.6 4-1.2 1.6-2.8 3.2-4 5.2l-42.8 58.4c-.8 1.2-1.2 1.6-1.6 2 0 .4-.4.8-1.2 1.6-.4.8-.8 1.2-1.6 2-.4.8-.8 1.2-1.2 2l-1.2 2.4c-.8.8-1.2 1.6-1.2 2-.4.8-.4 1.6-.8 2.4 0 .8-.4 1.6-.4 2.4 0 2.8.4 5.2 1.2 7.6.8 2.4 2.4 4.4 4.4 6.4 3.6 3.2 8.8 5.2 15.6 5.2h36v9.6c0 2.4.4 4.8.8 7.2zm-19.2-46.4l18.8-25.6v25.6h-18.8zM170.4 200.673c-.4.8-1.2 2.4-2.4 3.6-.8 1.6-2 2.8-3.6 4.4-1.2 1.6-2.8 2.8-4.4 4.4-1.6 1.6-3.6 2.8-5.6 4.4-1.2.8-3.2 2.4-5.6 4.4-2 2-4.8 4-7.6 6.8s-6 5.6-9.6 9.2c-3.2 3.2-6.8 6.8-10.4 10.8-1.2 1.2-2.4 2.8-3.2 4-.8 1.6-2 3.2-2.8 5.2-.8 2-1.6 3.6-2 5.2-.4 2-.8 3.6-.8 4.8 0 2.4.4 4.4 1.2 6.4s2 4 4 5.6c1.6 1.6 4 3.2 6.4 4 2.4.8 4.8 1.2 7.2 1.2H192c2.4 0 4.8-.4 6.4-1.2 2.4-.8 4-2 5.6-3.6 1.2-1.6 2.4-3.2 3.2-4.8.8-2 1.2-3.6 1.2-5.6 0-2.4-.4-4.4-1.2-6.4s-2.4-3.6-4-5.2c-1.6-1.2-3.6-2.4-6-3.2-2-.4-4.4-.8-7.2-.8h-31.2l2.4-2.4c2.8-2.8 6.4-5.6 10.4-8.8 3.6-3.2 7.2-6 10.4-8.8s5.6-4.8 7.6-6.4c2-1.6 4-4 6-6.4 2-2.4 3.6-5.2 5.6-8 2-3.2 3.6-6.8 4.4-10.4.8-3.6 1.6-7.2 1.6-11.2 0-2.4-.4-4.8-.8-7.6-.4-2.4-1.2-4.8-2-7.2-.8-2.4-2-4.4-3.6-6.8-1.2-2-2.8-4-4.4-6-1.6-1.6-3.6-3.6-5.6-4.8-2-1.6-4-2.8-6.4-3.6-3.2-1.6-7.2-2.4-11.2-3.2-4-.8-8.4-1.2-12.8-1.2-3.6 0-7.2.4-10.8.8-3.6.4-6.8 1.6-9.6 2.8-2.8 1.2-5.6 2.4-8 4-2.4 1.6-4.8 3.2-6.8 5.2s-3.6 4-5.2 6c-1.6 2.4-2.8 4.4-3.6 6.8-.8 2.4-1.6 4.8-2.4 6.8-.4 2.4-.8 4.8-.8 7.2 0 2.4.4 4.4 1.2 6 .8 2 2 3.6 3.2 5.2 1.6 1.6 3.2 2.4 4.8 3.2 2 .8 3.6 1.2 6 1.2s4.4-.4 6.4-1.2 3.6-2 5.2-4c1.2-1.2 2-2.8 2.8-4.8.8-1.6 1.6-3.6 2.4-5.6.8-1.6 1.2-3.2 1.6-4 1.6-2.4 3.2-4 5.2-5.2s4.4-1.6 6.8-1.6c1.2 0 2.4 0 3.6.4 1.2.4 2 .8 3.2 1.2 1.2.4 2 1.2 2.8 2 .8.8 1.6 1.6 2 2.4.4.8.8 2 1.2 3.2.4 1.2.4 2.4.4 3.6 0 1.2 0 2.4-.4 3.6-.4 1.2-.8 2.8-1.2 4z"/><path d="M14.8 233.873c8 0 14.8-6.4 14.8-14.8 0-51.6 20.8-98 54.8-132 33.6-33.6 80.4-54.8 132-54.8 38 0 74 11.6 104 31.6 20 13.6 37.2 30.8 50.8 51.2l-16.8-6.4c-7.6-2.8-16 .8-18.8 8.4-2.8 7.6.8 16 8.4 18.8l52.8 20.8c3.6 1.6 7.6 1.6 11.2 0 4-1.6 6.8-4.8 8.4-8.8l20.8-52.8c2.8-7.6-.8-16-8.4-18.8-7.6-2.8-16 .8-18.8 8.4l-8.8 22.8c-16.4-27.2-38.4-50-64.4-67.2-34.8-23.6-76.4-36.8-120.4-36.8-59.6 0-113.6 24-152.4 63.2-39.6 38.8-64 92.8-64 152.4 0 8 6.8 14.8 14.8 14.8zM422.8 204.273c-8 0-14.8 6.4-14.8 14.8 0 51.6-20.8 98-54.8 132-33.6 33.6-80.4 54.8-132 54.8-38 0-74-11.6-104-31.6-20-13.6-37.2-30.8-50.8-51.2l16.8 6.4c7.6 2.8 16-.8 18.8-8.4 2.8-7.6-.8-16-8.4-18.8l-52.8-20.8c-3.6-1.6-7.6-1.6-11.2 0-4 1.6-6.8 4.8-8.4 8.8l-20 52.8c-2.8 7.6.8 16 8.4 18.8 7.6 2.8 16-.8 18.8-8.4l8.8-22.8c16.4 27.2 38.4 50 64.4 67.2 34.8 23.6 76.4 36.8 120.4 36.8 59.6 0 113.6-24 152.4-63.2 39.2-39.2 63.2-92.8 63.2-152.4 0-8-6.8-14.8-14.8-14.8z"/></svg>