<?xml version="1.0" encoding="iso-8859-1"?>
<!-- Generator: Adobe Illustrator 19.0.0, SVG Export Plug-In . SVG Version: 6.00 Build 0)  -->
<svg version="1.1" id="Layer_1" xmlns="http://www.w3.org/2000/svg" xmlns:xlink="http://www.w3.org/1999/xlink" x="0px" y="0px"
	 viewBox="0 0 512 512" style="enable-background:new 0 0 512 512;" xml:space="preserve">
<path style="fill:#B4F0FF;" d="M256.001,504.5L256.001,504.5c-80.453,0-145.673-65.22-145.673-145.672V153.172
	C110.328,72.72,175.548,7.5,256.001,7.5l0,0c80.453,0,145.672,65.22,145.672,145.672v205.655
	C401.673,439.28,336.454,504.5,256.001,504.5z"/>
<path style="fill:#91E1F5;" d="M268.534,272.499c58.195-5.919,104.342-54.716,107.277-113.138
	c3.47-69.067-51.504-126.154-119.81-126.154c-5.218,0-10.321,0.446-15.363,1.092c14.76-10.427,31.53-18.199,49.639-22.575
	C279.266,9.064,267.829,7.5,256.001,7.5c-80.453,0-145.672,65.22-145.672,145.672v205.656c0,80.453,65.219,145.672,145.672,145.672
	c11.828,0,23.266-1.564,34.276-4.224C226.394,484.84,178.88,427.453,178.88,358.828v-82.44c0-12.758,13.337-20.842,24.81-15.261
	C222.976,270.51,245.147,274.878,268.534,272.499z"/>
<path style="fill:#FFE1B4;" d="M350.259,127.466c-1.215,0-2.378,0.195-3.549,0.358C335.626,88.097,299.262,58.915,256,58.915
	s-79.626,29.183-90.71,68.909c-1.171-0.163-2.333-0.358-3.549-0.358c-14.198,0-25.707,11.509-25.707,25.707
	s11.509,25.707,25.707,25.707c1.215,0,2.378-0.195,3.549-0.358c11.084,39.727,47.448,68.909,90.71,68.909
	s79.626-29.183,90.71-68.909c1.17,0.163,2.333,0.358,3.549,0.358c14.198,0,25.707-11.509,25.707-25.707
	S364.457,127.466,350.259,127.466z"/>
<path style="fill:#FAD098;" d="M213.156,153.172c0-43.144,29.02-79.434,68.58-90.625c-8.185-2.326-16.8-3.633-25.736-3.633
	c-43.262,0-79.626,29.183-90.71,68.909c-1.171-0.163-2.333-0.358-3.549-0.358c-14.198,0-25.707,11.509-25.707,25.707
	s11.509,25.707,25.707,25.707c1.215,0,2.378-0.195,3.549-0.358c11.084,39.727,47.448,68.909,90.71,68.909
	c8.936,0,17.551-1.308,25.736-3.633C242.176,232.606,213.156,196.316,213.156,153.172z"/>
<path d="M256,0c-84.459,0-153.172,68.713-153.172,153.172v205.655C102.828,443.287,171.541,512,256,512
	s153.172-68.713,153.172-153.172V153.172C409.172,68.713,340.459,0,256,0z M256,15c76.188,0,138.172,61.984,138.172,138.172v58.168
	c-13.052,25.164-35.443,45.931-66.591,61.738c-25.924,13.156-57.89,22.923-95.009,29.031c-50.806,8.36-97.566,7.482-114.745,6.76
	V153.172C117.828,76.984,179.812,15,256,15z M256,497c-76.188,0-138.172-61.984-138.172-138.172v-1.513
	c5.671,0.243,14.078,0.495,24.557,0.495c37.067,0,99.963-3.154,158.645-21.031c3.962-1.207,6.196-5.397,4.989-9.36
	c-1.206-3.962-5.397-6.195-9.36-4.989c-72.817,22.183-154.794,20.825-178.831,19.845v-18.372c5.302,0.227,13.005,0.454,22.545,0.454
	c23.28,0,57.487-1.356,94.347-7.399c38.694-6.343,72.176-16.583,99.515-30.435C359.49,273.727,379.554,257.8,394.173,239v119.829
	C394.172,435.016,332.188,497,256,497z"/>
<path d="M346.718,302.061c-5.252,2.819-10.842,5.537-16.615,8.078c-3.791,1.668-5.512,6.095-3.843,9.886
	c1.236,2.809,3.985,4.48,6.868,4.48c1.009,0,2.035-0.205,3.018-0.638c6.128-2.697,12.071-5.587,17.666-8.589
	c3.65-1.959,5.021-6.505,3.062-10.155C354.914,301.473,350.366,300.103,346.718,302.061z"/>
<path d="M159.87,186.327c14.026,40.685,52.719,68.604,96.13,68.604s82.104-27.919,96.13-68.604
	c17.443-0.974,31.335-15.473,31.335-33.155s-13.892-32.181-31.335-33.155C338.104,79.333,299.41,51.413,256,51.413
	c-5.389,0-10.706,0.432-15.911,1.264c0.954-6.754,6.756-11.971,13.769-11.971c4.142,0,7.5-3.358,7.5-7.5c0-4.143-3.358-7.5-7.5-7.5
	c-15.948,0-28.922,12.975-28.922,28.922c0,0.563,0.02,1.121,0.052,1.676c-30.012,9.691-54.558,33.081-65.118,63.712
	c-17.443,0.974-31.335,15.473-31.335,33.155S142.427,185.354,159.87,186.327z M161.741,134.966c0.513,0,1.201,0.099,1.998,0.212
	l0.516,0.073c3.723,0.518,7.25-1.795,8.259-5.413c7.975-28.583,29.965-50.552,57.211-59.294c5.181,7.83,14.062,13.007,24.133,13.007
	c4.142,0,7.5-3.358,7.5-7.5s-3.358-7.5-7.5-7.5c-2.391,0-4.643-0.607-6.611-1.673c2.888-0.295,5.806-0.464,8.753-0.464
	c38.736,0,73.067,26.081,83.486,63.425c1.009,3.617,4.539,5.931,8.259,5.413l0.516-0.073c0.797-0.114,1.485-0.212,1.998-0.212
	c10.039,0,18.207,8.167,18.207,18.207s-8.167,18.207-18.207,18.207c-0.513,0-1.202-0.099-2-0.213l-0.512-0.072
	c-3.725-0.521-7.251,1.794-8.261,5.412c-10.419,37.344-44.75,63.425-83.486,63.425s-73.067-26.082-83.486-63.425
	c-0.915-3.278-3.898-5.485-7.218-5.485c-0.344,0-0.693,0.024-1.042,0.073l-0.512,0.072c-0.798,0.114-1.487,0.213-2,0.213
	c-10.039,0-18.207-8.167-18.207-18.207S151.702,134.966,161.741,134.966z"/>
<path d="M225.531,193.242c8.062,6.626,18.882,10.275,30.469,10.275c11.587,0,22.408-3.649,30.469-10.275
	c3.2-2.63,3.662-7.356,1.032-10.556c-2.63-3.201-7.357-3.662-10.556-1.032c-5.307,4.361-12.94,6.863-20.945,6.863
	s-15.638-2.502-20.945-6.863c-3.2-2.631-7.926-2.168-10.556,1.032S222.331,190.612,225.531,193.242z"/>
<path d="M213.155,160.672c4.142,0,7.5-3.358,7.5-7.5v-8.569c0-4.142-3.358-7.5-7.5-7.5s-7.5,3.358-7.5,7.5v8.569
	C205.655,157.314,209.013,160.672,213.155,160.672z"/>
<path d="M298.845,160.672c4.142,0,7.5-3.358,7.5-7.5v-8.569c0-4.142-3.358-7.5-7.5-7.5s-7.5,3.358-7.5,7.5v8.569
	C291.345,157.314,294.703,160.672,298.845,160.672z"/>
<g>
</g>
<g>
</g>
<g>
</g>
<g>
</g>
<g>
</g>
<g>
</g>
<g>
</g>
<g>
</g>
<g>
</g>
<g>
</g>
<g>
</g>
<g>
</g>
<g>
</g>
<g>
</g>
<g>
</g>
</svg>
