<svg xmlns="http://www.w3.org/2000/svg" viewBox="0 0 512 512"><path d="M256.001 504.5c-80.453 0-145.673-65.22-145.673-145.672V153.172C110.328 72.72 175.548 7.5 256.001 7.5s145.672 65.22 145.672 145.672v205.655c0 80.453-65.219 145.673-145.672 145.673z" fill="#B4F0FF"/><path d="M268.534 272.499c58.195-5.919 104.342-54.716 107.277-113.138 3.47-69.067-51.504-126.154-119.81-126.154-5.218 0-10.321.446-15.363 1.092 14.76-10.427 31.53-18.199 49.639-22.575-11.011-2.66-22.448-4.224-34.276-4.224-80.453 0-145.672 65.22-145.672 145.672v205.656c0 80.453 65.219 145.672 145.672 145.672 11.828 0 23.266-1.564 34.276-4.224-63.883-15.436-111.397-72.823-111.397-141.448v-82.44c0-12.758 13.337-20.842 24.81-15.261 19.286 9.383 41.457 13.751 64.844 11.372z" fill="#91E1F5"/><path d="M350.259 127.466c-1.215 0-2.378.195-3.549.358-11.084-39.727-47.448-68.909-90.71-68.909s-79.626 29.183-90.71 68.909c-1.171-.163-2.333-.358-3.549-.358-14.198 0-25.707 11.509-25.707 25.707s11.509 25.707 25.707 25.707c1.215 0 2.378-.195 3.549-.358 11.084 39.727 47.448 68.909 90.71 68.909s79.626-29.183 90.71-68.909c1.17.163 2.333.358 3.549.358 14.198 0 25.707-11.509 25.707-25.707s-11.509-25.707-25.707-25.707z" fill="#FFE1B4"/><path d="M213.156 153.172c0-43.144 29.02-79.434 68.58-90.625-8.185-2.326-16.8-3.633-25.736-3.633-43.262 0-79.626 29.183-90.71 68.909-1.171-.163-2.333-.358-3.549-.358-14.198 0-25.707 11.509-25.707 25.707s11.509 25.707 25.707 25.707c1.215 0 2.378-.195 3.549-.358 11.084 39.727 47.448 68.909 90.71 68.909 8.936 0 17.551-1.308 25.736-3.633-39.56-11.191-68.58-47.481-68.58-90.625z" fill="#FAD098"/><path d="M256 0c-84.459 0-153.172 68.713-153.172 153.172v205.655C102.828 443.287 171.541 512 256 512s153.172-68.713 153.172-153.172V153.172C409.172 68.713 340.459 0 256 0zm0 15c76.188 0 138.172 61.984 138.172 138.172v58.168c-13.052 25.164-35.443 45.931-66.591 61.738-25.924 13.156-57.89 22.923-95.009 29.031-50.806 8.36-97.566 7.482-114.745 6.76V153.172C117.828 76.984 179.812 15 256 15zm0 482c-76.188 0-138.172-61.984-138.172-138.172v-1.513c5.671.243 14.078.495 24.557.495 37.067 0 99.963-3.154 158.645-21.031a7.5 7.5 0 0 0-4.371-14.349c-72.817 22.183-154.794 20.825-178.831 19.845v-18.372c5.302.227 13.005.454 22.545.454 23.28 0 57.487-1.356 94.347-7.399 38.694-6.343 72.176-16.583 99.515-30.435C359.49 273.727 379.554 257.8 394.173 239v119.829C394.172 435.016 332.188 497 256 497z"/><path d="M346.718 302.061a238.145 238.145 0 0 1-16.615 8.078 7.5 7.5 0 1 0 6.043 13.728 253.562 253.562 0 0 0 17.666-8.589 7.5 7.5 0 0 0 3.062-10.155 7.502 7.502 0 0 0-10.156-3.062zM159.87 186.327c14.026 40.685 52.719 68.604 96.13 68.604s82.104-27.919 96.13-68.604c17.443-.974 31.335-15.473 31.335-33.155s-13.892-32.181-31.335-33.155C338.104 79.333 299.41 51.413 256 51.413c-5.389 0-10.706.432-15.911 1.264.954-6.754 6.756-11.971 13.769-11.971a7.5 7.5 0 0 0 0-15c-15.948 0-28.922 12.975-28.922 28.922 0 .563.02 1.121.052 1.676-30.012 9.691-54.558 33.081-65.118 63.712-17.443.974-31.335 15.473-31.335 33.155s13.892 32.183 31.335 33.156zm1.871-51.361c.513 0 1.201.099 1.998.212l.516.073a7.498 7.498 0 0 0 8.259-5.413c7.975-28.583 29.965-50.552 57.211-59.294 5.181 7.83 14.062 13.007 24.133 13.007a7.5 7.5 0 0 0 0-15 13.84 13.84 0 0 1-6.611-1.673 86.078 86.078 0 0 1 8.753-.464c38.736 0 73.067 26.081 83.486 63.425a7.5 7.5 0 0 0 8.259 5.413l.516-.073c.797-.114 1.485-.212 1.998-.212 10.039 0 18.207 8.167 18.207 18.207s-8.167 18.207-18.207 18.207c-.513 0-1.202-.099-2-.213l-.512-.072a7.496 7.496 0 0 0-8.261 5.412c-10.419 37.344-44.75 63.425-83.486 63.425s-73.067-26.082-83.486-63.425a7.501 7.501 0 0 0-8.26-5.412l-.512.072c-.798.114-1.487.213-2 .213-10.039 0-18.207-8.167-18.207-18.207s8.167-18.208 18.206-18.208z"/><path d="M225.531 193.242c8.062 6.626 18.882 10.275 30.469 10.275s22.408-3.649 30.469-10.275a7.5 7.5 0 1 0-9.524-11.588c-5.307 4.361-12.94 6.863-20.945 6.863s-15.638-2.502-20.945-6.863a7.5 7.5 0 1 0-9.524 11.588zm-12.376-32.57a7.5 7.5 0 0 0 7.5-7.5v-8.569a7.5 7.5 0 0 0-15 0v8.569a7.5 7.5 0 0 0 7.5 7.5zm85.69 0a7.5 7.5 0 0 0 7.5-7.5v-8.569a7.5 7.5 0 0 0-15 0v8.569a7.5 7.5 0 0 0 7.5 7.5z"/></svg>