<svg viewBox="0 0 511.997 511.997" xmlns="http://www.w3.org/2000/svg"><path d="M273.065 349.861H42.669c-18.85 0-34.133-15.283-34.133-34.133V42.666c0-18.85 15.283-34.133 34.133-34.133h426.66c18.85 0 34.133 15.283 34.133 34.133v273.062c0 18.85-15.283 34.133-34.133 34.133" fill="#91cece"/><path d="M17.547 338.665a33.91 33.91 0 0 0 25.122 11.196h426.66c18.85 0 34.133-15.283 34.133-34.133V64.562C415.945 215.89 127.54 308.219 17.547 338.665z" fill="#83b2b7"/><circle cx="255.998" cy="255.996" fill="#ffd33f" r="59.732"/><path d="M293.741 209.72c20.778 25.625 16.853 63.239-8.772 84.018-21.93 17.783-53.315 17.783-75.246 0 20.778 25.625 58.393 29.55 84.018 8.772s29.55-58.393 8.772-84.018a59.24 59.24 0 0 0-8.772-8.772z" fill="#ffac3e"/><g fill="#ffd33f"><path d="M460.795 286.775c16.913-28.322 7.654-64.997-20.667-81.91-28.322-16.913-64.997-7.654-81.91 20.667a61.823 61.823 0 0 0-2.603 4.855"/><circle cx="255.998" cy="102.398" r="59.732"/><circle cx="102.401" cy="102.398" r="59.732"/><circle cx="409.596" cy="102.398" r="59.732"/><circle cx="102.401" cy="255.996" r="59.732"/></g><path d="M293.741 56.123c20.778 25.625 16.853 63.239-8.772 84.018-21.93 17.783-53.315 17.783-75.246 0 20.778 25.625 58.393 29.55 84.018 8.772s29.55-58.393 8.772-84.018a59.192 59.192 0 0 0-8.772-8.772zm-153.598 0c20.778 25.625 16.853 63.239-8.772 84.018-21.93 17.783-53.315 17.783-75.246 0 20.778 25.625 58.393 29.55 84.018 8.772s29.55-58.393 8.772-84.018a59.145 59.145 0 0 0-8.772-8.772zm307.195 0c20.778 25.625 16.853 63.239-8.772 84.018-21.93 17.783-53.315 17.783-75.246 0 20.778 25.625 58.393 29.55 84.018 8.772s29.55-58.393 8.772-84.018a59.145 59.145 0 0 0-8.772-8.772zM140.143 209.72c20.778 25.625 16.853 63.239-8.772 84.018-21.93 17.783-53.315 17.783-75.246 0 20.778 25.625 58.393 29.55 84.018 8.772s29.55-58.393 8.772-84.018a59.192 59.192 0 0 0-8.772-8.772zm307.195 0c16.759 20.505 17.979 49.612 3.012 71.457l10.445 5.598c15.3-25.455 9.566-58.29-13.457-77.055z" fill="#ffac3e"/><path d="M85.335 68.266h17.066v17.066H85.335zm34.132 25.599h17.066v17.066h-17.066zm127.998-25.599h17.066v17.066h-17.066zm-17.066 51.199h17.066v17.066h-17.066zM68.268 238.929h17.066v17.066H68.268zm42.666 25.6H128v17.066h-17.066zm-8.533-42.666h17.066v17.066h-17.066zm162.131 17.066h17.066v17.066h-17.066zm-25.6 25.6h17.066v17.066h-17.066zm136.531-162.131h17.066v17.066h-17.066zm42.666 8.533h17.066v17.066h-17.066zm-17.066-42.665h17.066v17.066h-17.066zM230.399 221.863h17.066v17.066h-17.066zM76.801 110.931h17.066v17.066H76.801zm196.264-8.533h17.066v17.066h-17.066zM58.882 387.808c2.108-4.215.393-9.344-3.823-11.452-4.215-2.108-9.344-.393-11.452 3.823l-4.267 8.533a66.1 66.1 0 0 0 0 58.828 48.904 48.904 0 0 1 0 43.57l-4.267 8.533c-2.108 4.215-.393 9.344 3.823 11.452s9.344.393 11.452-3.823l4.267-8.533a66.1 66.1 0 0 0 0-58.828 48.904 48.904 0 0 1 0-43.57zm102.398 0c2.108-4.215.393-9.344-3.823-11.452-4.215-2.108-9.344-.393-11.452 3.823l-4.267 8.533a66.1 66.1 0 0 0 0 58.828 48.904 48.904 0 0 1 0 43.57l-4.267 8.533c-2.108 4.215-.393 9.344 3.823 11.452 4.215 2.108 9.344.393 11.452-3.823l4.267-8.533a66.1 66.1 0 0 0 0-58.828 48.904 48.904 0 0 1 0-43.57zm-51.199 0c2.108-4.215.393-9.344-3.823-11.452-4.215-2.108-9.344-.393-11.452 3.823l-4.267 8.533a66.1 66.1 0 0 0 0 58.828 48.904 48.904 0 0 1 0 43.57l-4.267 8.533c-2.108 4.215-.393 9.344 3.823 11.452 4.215 2.108 9.344.393 11.452-3.823l4.267-8.533a66.1 66.1 0 0 0 0-58.828 48.904 48.904 0 0 1 0-43.57z"/><path d="M469.328 343.888v-15.36c0-54.194-43.929-98.132-98.132-98.132s-98.132 43.937-98.132 98.132v63.999l-14.993-14.993c-13.952-14.319-36.88-14.617-51.199-.666-14.319 13.952-14.617 36.88-.666 51.199l.666.666 55.466 55.466c44.092-7.492 172.789-37.998 206.99-140.311z" fill="#ea3836"/><path d="M262.364 484.224l2.167 2.167v17.066h204.797V343.888C435.127 446.201 306.43 476.707 262.364 484.224z" fill="#d62121"/><path d="M255.998 34.133c-37.7 0-68.266 30.566-68.266 68.266s30.566 68.266 68.266 68.266 68.266-30.566 68.266-68.266c-.043-37.683-30.574-68.224-68.266-68.266zm0 119.464c-28.279 0-51.199-22.92-51.199-51.199s22.92-51.199 51.199-51.199 51.199 22.92 51.199 51.199c-.025 28.262-22.928 51.174-51.199 51.199zM102.401 34.133c-37.7 0-68.266 30.566-68.266 68.266s30.566 68.266 68.266 68.266 68.266-30.566 68.266-68.266c-.043-37.683-30.575-68.224-68.266-68.266zm0 119.464c-28.279 0-51.199-22.92-51.199-51.199s22.92-51.199 51.199-51.199 51.199 22.92 51.199 51.199c-.025 28.262-22.929 51.174-51.199 51.199zM409.596 34.133c-37.7 0-68.266 30.566-68.266 68.266s30.566 68.266 68.266 68.266 68.266-30.566 68.266-68.266c-.043-37.683-30.575-68.224-68.266-68.266zm0 119.464c-28.279 0-51.199-22.92-51.199-51.199s22.92-51.199 51.199-51.199 51.199 22.92 51.199 51.199c-.026 28.262-22.929 51.174-51.199 51.199zM102.401 187.73c-37.7 0-68.266 30.566-68.266 68.266s30.566 68.266 68.266 68.266 68.266-30.566 68.266-68.266c-.043-37.683-30.575-68.223-68.266-68.266zm0 119.465c-28.279 0-51.199-22.92-51.199-51.199s22.92-51.199 51.199-51.199 51.199 22.92 51.199 51.199c-.025 28.262-22.929 51.173-51.199 51.199z"/><path d="M469.328 0H42.669C19.117.026.037 19.114.003 42.666v273.062c.026 23.552 19.114 42.64 42.666 42.666h221.863v13.534l-.435-.435c-17.467-17.467-45.798-17.467-63.265 0s-17.467 45.798 0 63.265l55.167 55.167v13.534a8.536 8.536 0 0 0 8.533 8.533h204.797a8.536 8.536 0 0 0 8.533-8.533V357.541c19.848-4.079 34.107-21.546 34.133-41.813V42.666C511.969 19.114 492.88.026 469.328 0zM267.006 305.864a50.845 50.845 0 0 1-11.008 1.331c-28.279.119-51.293-22.715-51.404-50.986-.119-28.279 22.715-51.293 50.986-51.404 23.936-.094 44.748 16.401 50.107 39.731-19.652 15.3-33.33 37-38.681 61.328zm193.789 189.061h-187.73v-8.533a8.513 8.513 0 0 0-2.5-6.033l-57.667-57.667c-10.684-10.931-10.487-28.45.444-39.133 10.752-10.513 27.938-10.513 38.689 0l15.001 15.001c3.336 3.328 8.738 3.328 12.066 0a8.526 8.526 0 0 0 2.5-6.033v-63.999c0-49.484 40.115-89.598 89.599-89.598s89.599 40.115 89.599 89.598v166.397zm-1.587-226.548a107.58 107.58 0 0 0-30.344-29.448h6.332v-17.066H418.13v11.025a105.69 105.69 0 0 0-46.668-11.025c18.705-21.12 50.994-23.074 72.114-4.369a51.092 51.092 0 0 1 15.633 50.866v.017zm35.72 47.351a25.597 25.597 0 0 1-17.066 24.029v-11.23c0-13.935-2.748-27.741-8.081-40.618 17.613-33.245 4.941-74.478-28.305-92.09s-74.478-4.941-92.09 28.305A105.754 105.754 0 0 0 320.8 234.56c-11.639-36.078-50.312-55.884-86.39-44.245s-55.884 50.312-44.245 86.39c10.214 31.658 41.659 51.438 74.614 46.933-.077 1.63-.247 3.234-.247 4.89v12.8H42.669c-14.139 0-25.6-11.46-25.6-25.6V42.666c0-14.139 11.46-25.6 25.6-25.6h426.66c14.14 0 25.6 11.46 25.6 25.6v273.062z"/></svg>