<?xml version="1.0" encoding="iso-8859-1"?>
<!-- Generator: Adobe Illustrator 19.0.0, SVG Export Plug-In . SVG Version: 6.00 Build 0)  -->
<svg xmlns="http://www.w3.org/2000/svg" xmlns:xlink="http://www.w3.org/1999/xlink" version="1.1" id="Capa_1" x="0px" y="0px" viewBox="0 0 512 512" style="enable-background:new 0 0 512 512;" xml:space="preserve" width="512" height="512">
<g>
	<g>
		<g>
			<path style="fill:#F2A077;" d="M438.278,319.682v-5.101c0-12.904-10.461-23.364-23.365-23.364H309.376l22.344,150.01h114.129     c14.154,0,25.629-11.474,25.629-25.629v-2.732H504.5v-93.184H438.278z"/>
			<path style="fill:#D6774D;" d="M458.045,393.968c0,14.154-11.474,25.629-25.629,25.629H331.72l-19.122-128.38h-3.222     l22.344,150.01h114.129c14.154,0,25.629-11.474,25.629-25.629v-2.732H504.5v-21.63h-46.455V393.968z"/>
		</g>
		<g>
			<path style="fill:#75DC5E;" d="M362.354,221.739c-4.275-16.2-13.651-47.529-19.783-62.803c5.702-3.908,8.618-11.105,6.727-18.162     l0,0c-2.397-8.947-11.593-14.256-20.54-11.859l-33.459,8.965c-8.947,2.397-14.256,11.593-11.858,20.54l0,0     c1.891,7.057,8.015,11.832,14.907,12.366c2.326,16.293,9.871,48.114,14.269,64.28l0,0c-9.919,17.507-16.66,39.309-11.452,58.745     l46.606,173.937c1.46,5.45,7.062,8.684,12.512,7.224l80.743-21.635c5.45-1.46,8.684-7.062,7.224-12.512l-46.606-173.937     C396.436,247.452,379.697,231.941,362.354,221.739L362.354,221.739z"/>
			<path style="fill:#2AAD52;" d="M448.25,440.824l-46.606-173.937c-5.208-19.436-21.947-34.946-39.29-45.148h0     c-4.275-16.2-13.651-47.529-19.783-62.803c5.701-3.908,8.618-11.105,6.727-18.162c-2.397-8.946-11.593-14.256-20.54-11.859     l-14.374,3.851c7.026-1.882,14.665,3.844,17.062,12.79c1.891,7.057-0.055,13.994-4.405,17.54     c5.723,15.383,14.903,46.765,19.191,62.961l0,0c14.417,10.986,28.637,27.172,33.844,46.607l46.606,173.937     c1.46,5.45-0.826,10.797-5.106,11.945l19.449-5.211C446.476,451.876,449.711,446.274,448.25,440.824z"/>
			<path style="fill:#D2F5FF;" d="M388.415,419.269L388.415,419.269c-27.856,7.464-56.489-9.067-63.953-36.923l-8.3-30.976     c-7.464-27.856,9.067-56.489,36.923-63.953l0,0c27.856-7.464,56.489,9.067,63.953,36.923l8.3,30.976     C432.802,383.172,416.271,411.804,388.415,419.269z"/>
			<path style="fill:#9CC9D3;" d="M384.392,288.771l30.458,113.671c10.591-12.611,15.074-30.01,10.488-47.124l-8.301-30.979     C412.452,307.224,399.87,294.397,384.392,288.771z"/>
		</g>
		<g>
			<path style="fill:#F7AA86;" d="M305.398,291.216H288.01c-10.356,0-18.751,8.395-18.751,18.751l0,0     c0,10.356,8.395,18.751,18.751,18.751h17.388c10.356,0,18.751-8.395,18.751-18.751l0,0     C324.149,299.612,315.754,291.216,305.398,291.216z"/>
			<path style="fill:#E88E6B;" d="M323.298,328.719H305.91c-10.356,0-18.751,8.395-18.751,18.751l0,0     c0,10.356,8.395,18.751,18.751,18.751h17.388c10.356,0,18.751-8.395,18.751-18.751l0,0     C342.049,337.114,333.654,328.719,323.298,328.719z"/>
			<path style="fill:#FFCCAA;" d="M333.021,366.221h-17.388c-10.356,0-18.751,8.395-18.751,18.751l0,0     c0,10.356,8.395,18.751,18.751,18.751h17.388c10.356,0,18.751-8.395,18.751-18.751l0,0     C351.772,374.617,343.377,366.221,333.021,366.221z"/>
			<path style="fill:#E88E6B;" d="M340.414,403.724h-17.388c-10.356,0-18.751,8.395-18.751,18.751l0,0     c0,10.356,8.395,18.751,18.751,18.751h17.388c10.356,0,18.751-8.395,18.751-18.751l0,0     C359.165,412.119,350.77,403.724,340.414,403.724z"/>
		</g>
		<path style="fill:#FFCCAA;" d="M402.38,262.19h-64.702c-1.172,0-2.123,0.95-2.123,2.123v6.446    c0,17.544,14.23,31.766,31.773,31.766c4.62,0,19.529,0,19.529,0v16.888c0,25.852,20.957,46.809,46.809,46.809l15.073,0    c6.467,0,11.71-5.243,11.71-11.71v-20.144V320.26C460.451,288.189,434.452,262.19,402.38,262.19z"/>
	</g>
	<g>
		<path style="fill:#D7875F;" d="M176.444,270.759v-6.446c0-1.172-0.95-2.123-2.123-2.123H109.62    c-32.071,0-58.07,25.999-58.07,58.07v14.107v20.144c0,6.467,5.243,11.71,11.71,11.71h15.073c25.852,0,46.809-20.957,46.809-46.809    v-16.888c0,0,14.909,0,19.529,0C162.214,302.524,176.444,288.302,176.444,270.759z"/>
		<g>
			<path style="fill:#75DC5E;" d="M149.646,221.739c4.275-16.2,13.651-47.529,19.783-62.803c-5.702-3.908-8.618-11.105-6.727-18.162     l0,0c2.397-8.947,11.593-14.256,20.539-11.859l33.459,8.965c8.947,2.397,14.256,11.593,11.858,20.54l0,0     c-1.891,7.057-8.015,11.832-14.907,12.366c-2.326,16.293-9.871,48.114-14.269,64.28l0,0c9.919,17.507,16.66,39.309,11.452,58.745     l-46.606,173.937c-1.46,5.45-7.062,8.684-12.512,7.224l-80.743-21.635c-5.45-1.46-8.684-7.062-7.224-12.512l46.606-173.937     C115.564,247.452,132.303,231.941,149.646,221.739L149.646,221.739z"/>
			<path style="fill:#2AAD52;" d="M216.701,137.88l-15.353-4.114c6.896,1.848,10.542,10.598,8.145,19.545     c-1.891,7.057-6.979,12.109-12.427,13.03c-2.763,16.177-10.518,47.941-14.901,64.111c6.794,16.669,10.844,37.751,5.636,57.186     l-46.606,173.937c-1.46,5.45-6.049,8.955-10.25,7.83l20.772,5.566c5.45,1.461,11.052-1.774,12.512-7.224l46.606-173.937     c5.208-19.436-1.534-41.238-11.452-58.745l0,0c4.398-16.167,11.943-47.987,14.269-64.28c6.892-0.534,13.016-5.309,14.907-12.365     C230.956,149.473,225.647,140.277,216.701,137.88z"/>
			<path style="fill:#D2F5FF;" d="M123.585,419.269L123.585,419.269c27.856,7.464,56.489-9.067,63.953-36.923l8.3-30.976     c7.464-27.856-9.067-56.489-36.923-63.953l0,0c-27.856-7.464-56.489,9.067-63.953,36.923l-8.3,30.976     C79.198,383.172,95.729,411.804,123.585,419.269z"/>
			<path style="fill:#9CC9D3;" d="M183.818,302.5l-31.124,116.156c14.534-4.564,26.789-15.392,32.775-30.18l11.643-43.453     C199.322,329.225,194.123,313.72,183.818,302.5z"/>
		</g>
		<path style="fill:#D7875F;" d="M223.99,328.719c10.356,0,18.751-8.396,18.751-18.751c0-10.356-8.395-18.751-18.751-18.751h-17.388    c-1.39,0-109.515,0-109.515,0c-5.635,0-10.804,1.996-14.84,5.318v-27.493c-18.108,9.698-30.473,28.713-30.687,50.641H7.5v93.184    h33.022v2.732c0,14.154,11.474,25.628,25.629,25.628H180.28h8.694c10.356,0,18.751-8.395,18.751-18.751    s-8.395-18.751-18.751-18.751h7.393c10.356,0,18.751-8.395,18.751-18.751c0-10.356-8.395-18.751-18.751-18.751h9.723    c10.356,0,18.751-8.395,18.751-18.751s-8.395-18.751-18.751-18.751c0.153,0,0.32,0,0.512,0H223.99z"/>
		<path style="fill:#B05A3D;" d="M188.524,421.077h-8.245H84.381c-14.154,0-25.629-11.474-25.629-25.629    c0-1.509-1.223-2.732-2.732-2.732H7.5v20.149h33.022v2.732c0,14.154,11.474,25.629,25.629,25.629H180.28h8.694    c10.356,0,18.751-8.395,18.751-18.751c0-3.739-1.107-7.215-2.993-10.14C201.29,417.611,195.245,421.077,188.524,421.077z"/>
	</g>
	<g>
		<path d="M504.5,397.625h-33.02c-4.143,0-7.5,3.357-7.5,7.5v2.73c0,7.225-4.171,13.467-10.338,16.377l-15.611-58.253h10.709    c4.143,0,7.5-3.357,7.5-7.5s-3.357-7.5-7.5-7.5h-15.072c-1.887,0-3.74-0.142-5.557-0.4c-0.005-0.001-0.01-0.001-0.015-0.002    c-19.045-2.715-33.738-19.124-33.738-38.908v-16.888c0-4.143-3.357-7.5-7.5-7.5h-19.529c-13.385,0-24.273-10.886-24.273-24.266    v-1.068h59.325c9.936,0,19.548,2.877,27.8,8.318c3.456,2.28,8.109,1.327,10.39-2.132c2.28-3.457,1.326-8.109-2.132-10.39    c-9.957-6.567-21.436-10.251-33.352-10.737c-6.705-14.144-19.349-27.38-36.27-37.869c-2.238-8.281-5.334-18.901-8.493-29.115    c-2.449-7.897-5.805-18.336-8.917-26.741c5.204-5.993,7.254-14.3,5.138-22.19c-2.844-10.597-12.476-17.997-23.424-17.997    c-2.104,0-4.222,0.28-6.301,0.835l-33.462,8.961c-6.264,1.68-11.497,5.697-14.739,11.312c-3.242,5.616-4.102,12.156-2.426,18.4    c1.318,4.955,4.117,9.284,8.094,12.519c2.248,1.83,4.766,3.227,7.453,4.151c0.683,4.007,1.585,8.72,2.697,14.084    c0.842,4.058,4.82,6.664,8.866,5.821c4.057-0.841,6.662-4.811,5.821-8.866c-1.571-7.577-2.698-13.741-3.349-18.323    c-0.495-3.479-3.339-6.147-6.842-6.422c-10.317-0.807-11.729-15.499-1.693-18.188l33.453-8.959    c5.05-1.351,10.067,1.729,11.362,6.557c1.013,3.776-0.485,7.809-3.729,10.033c-2.897,1.988-4.026,5.721-2.716,8.98    c2.679,6.668,6.27,17.206,10.384,30.47c3.486,11.274,6.889,23.028,9.101,31.441c0.505,1.916,1.746,3.556,3.454,4.56    c8.016,4.71,21.034,13.728,29.369,26.486h-50.24c-5.307,0-9.623,4.316-9.623,9.622v6.446c0,6.523,1.609,12.675,4.436,18.094    c-2.222,1.549-4.334,3.25-6.327,5.085c-4.49-5.804-11.351-9.681-19.121-10.165c-0.112-1.376-0.184-2.772-0.184-4.197    c0-15.805,6.681-30.918,12.286-40.813c0.975-1.722,1.229-3.759,0.71-5.667c-1.317-4.838-2.872-10.917-4.378-17.119    c-0.978-4.023-5.024-6.496-9.058-5.519c-4.024,0.977-6.496,5.032-5.519,9.058c1.246,5.136,2.529,10.199,3.69,14.579    c-6.126,11.439-12.732,27.861-12.732,45.481c0,1.395,0.057,2.772,0.142,4.14h-3.992c-14.475,0-26.251,11.776-26.251,26.251    c0,12.582,8.9,23.121,20.733,25.663c-1.807,3.56-2.833,7.581-2.833,11.839c0,10.044,5.673,18.785,13.98,23.198    c-2.688,4.119-4.257,9.031-4.257,14.305c0,9.356,4.924,17.58,12.314,22.23c-3.092,4.306-4.92,9.578-4.92,15.272    c0,14.476,11.776,26.252,26.251,26.252h11.882l5.617,20.962c2.118,7.904,9.294,13.13,17.115,13.129    c1.513,0,3.051-0.195,4.58-0.605l80.75-21.631c6.604-1.769,11.325-7.072,12.704-13.329c12.173-3.728,21.157-14.146,22.97-26.885    H504.5c4.143,0,7.5-3.357,7.5-7.5S508.643,397.625,504.5,397.625z M331.648,302.218c2.896-3.629,6.347-6.794,10.2-9.357    c6.865,5.867,15.763,9.422,25.48,9.422h12.029v9.388c0,25.052,17.055,46.186,40.161,52.428    c-1.27,18.796-14.457,35.202-33.052,40.183c-7.198,1.93-14.674,2.032-21.833,0.333c-2.104-5.017-5.724-9.243-10.282-12.111    c3.092-4.306,4.92-9.579,4.92-15.273c0-10.044-5.673-18.785-13.981-23.197c2.688-4.119,4.257-9.031,4.257-14.306    c0-12.582-8.9-23.121-20.733-25.663c1.807-3.56,2.833-7.581,2.833-11.839C331.648,302.223,331.648,302.221,331.648,302.218z     M288.01,313.477c-6.204,0-11.251-5.047-11.251-11.251s5.047-11.251,11.251-11.251h12.498c0.011,0,0.022,0.003,0.034,0.003    c0.018,0,0.037-0.003,0.055-0.003h4.8c6.204,0,11.251,5.047,11.251,11.251s-5.047,11.251-11.251,11.251H288.01z M294.659,339.728    c0-6.204,5.047-11.251,11.251-11.251h17.388c6.204,0,11.251,5.047,11.251,11.251s-5.047,11.252-11.251,11.252h-7.665h-9.723    C299.706,350.98,294.659,345.932,294.659,339.728z M304.382,377.231c0-6.204,5.047-11.251,11.251-11.251    c6.439,0,10.951,0,17.389,0c6.204,0,11.251,5.047,11.251,11.251s-5.047,11.251-11.251,11.251c-10.362,0-15.682,0-17.389,0    C309.429,388.482,304.382,383.435,304.382,377.231z M340.427,425.984c-0.02,0.001-0.041,0-0.061,0.001h-17.34    c-6.204,0-11.251-5.048-11.251-11.252s5.047-11.251,11.251-11.251c10.361,0,15.682,0,17.388,0c6.204,0,11.251,5.047,11.251,11.251    C351.665,420.932,346.625,425.977,340.427,425.984z M439.09,438.351l-80.75,21.631c-1.448,0.385-2.939-0.474-3.326-1.918    l-5.06-18.881c8.135-3.185,14.305-10.312,16.144-19.023c2.903,0.434,5.829,0.66,8.761,0.659c5.191,0,10.396-0.682,15.492-2.049    c16.935-4.536,30.508-16.176,37.969-31.084l12.687,47.34C441.393,436.472,440.533,437.964,439.09,438.351z"/>
		<path d="M452.95,323.747c0,4.143,3.357,7.5,7.5,7.5s7.5-3.357,7.5-7.5v-4.312h36.55c4.143,0,7.5-3.357,7.5-7.5s-3.357-7.5-7.5-7.5    h-37.054c-0.963-7.749-3.297-15.305-6.894-22.202c-1.916-3.675-6.449-5.097-10.118-3.183c-3.673,1.916-5.098,6.446-3.183,10.118    C455.077,304.173,452.416,316.127,452.95,323.747z"/>
		<path d="M223.99,275.975h-3.992c0.084-1.368,0.142-2.745,0.142-4.14c0-17.62-6.606-34.043-12.733-45.481    c4.121-15.54,10.073-40.799,12.853-57.079c2.688-0.925,5.206-2.322,7.455-4.152c3.977-3.234,6.774-7.563,8.089-12.502    c1.681-6.261,0.821-12.801-2.421-18.417c-3.242-5.615-8.476-9.633-14.741-11.313l-33.467-8.961    c-2.072-0.554-4.19-0.834-6.294-0.834c-10.948,0-20.58,7.4-23.424,17.998c-2.116,7.89-0.066,16.196,5.137,22.189    c-1.362,3.678-2.866,7.996-4.492,12.904c-1.303,3.932,0.828,8.175,4.761,9.478c3.928,1.306,8.175-0.828,9.478-4.76    c2.315-6.989,4.352-12.68,6.052-16.916c1.308-3.26,0.179-6.99-2.718-8.978c-3.243-2.225-4.741-6.257-3.729-10.032    c1.087-4.053,4.762-6.884,8.936-6.884c0.799,0,1.615,0.109,2.42,0.325l33.458,8.959c10.016,2.685,8.625,17.382-1.691,18.188    c-3.503,0.274-6.346,2.942-6.841,6.42c-2.236,15.7-9.746,47.435-14.082,63.368c-0.52,1.908-0.265,3.945,0.71,5.666    c5.605,9.896,12.286,25.009,12.286,40.813c0,1.405-0.07,2.782-0.179,4.14l-34.376,0c-3.117-1.449-6.375-2.65-9.729-3.545    c-5.078-1.356-10.288-2.044-15.485-2.044c-8.618,0-17.247,1.943-25.097,5.589l-6.658,0l3.991-14.891    c0.33-1.235,0.715-2.446,1.145-3.634c0.088-0.2,0.165-0.406,0.235-0.615c6.768-17.893,24.191-30.333,34.466-36.373    c1.702-1.001,2.94-2.632,3.447-4.539c1.311-4.932,2.802-10.298,4.81-17.16c1.163-3.976-1.116-8.142-5.092-9.305    c-3.978-1.167-8.141,1.116-9.305,5.092c-1.351,4.616-2.854,9.889-4.124,14.591c-11.296,7.02-27.739,19.699-36.319,37.884    c-32.624,1.333-58.456,26.185-62.315,57.416H7.5c-4.143,0-7.5,3.357-7.5,7.5s3.357,7.5,7.5,7.5h44.06    c4.113,0,7.459-3.313,7.5-7.427c0.186-19.09,10.958-35.655,26.728-44.102c0.1-0.053,0.191-0.116,0.287-0.173    c4.847-2.552,10.102-4.302,15.602-5.161l-3.59,13.397h-0.999c-4.142,0-7.5,3.357-7.5,7.5c0,4.142,3.357,7.5,7.5,7.5    c102.185,0.001,80.919,0.001,114.314,0.001c0.019,0,0.038,0.003,0.057,0.003c0.012,0,0.023-0.003,0.035-0.003h12.497    c6.204,0,11.251,5.047,11.251,11.251s-5.047,11.251-11.251,11.251h-17.9c-4.143,0-7.5,3.357-7.5,7.5s3.357,7.5,7.5,7.5    c6.204,0,11.251,5.047,11.251,11.251s-5.047,11.251-11.251,11.251h-9.724c-4.143,0-7.5,3.357-7.5,7.5s3.357,7.5,7.5,7.5    c6.204,0,11.252,5.048,11.252,11.252s-5.048,11.251-11.252,11.251h-7.393c-4.143,0-7.5,3.357-7.5,7.5s3.357,7.5,7.5,7.5    c6.204,0,11.251,5.047,11.251,11.251s-5.047,11.252-11.251,11.252H66.151c-9.996,0-18.129-8.133-18.129-18.129v-2.731    c0-4.143-3.357-7.5-7.5-7.5H7.5c-4.143,0-7.5,3.357-7.5,7.5s3.357,7.5,7.5,7.5h25.864c1.841,12.715,10.933,23.107,22.931,26.855    c1.342,6.291,6.063,11.568,12.734,13.36c83.47,22.144,81.011,22.236,85.33,22.236c7.82,0,14.997-5.226,17.115-13.128l5.62-20.963    h11.879c14.475,0,26.251-11.776,26.251-26.252c0-5.691-1.82-10.966-4.91-15.271c7.387-4.65,12.304-12.877,12.304-22.231    c0-5.272-1.563-10.188-4.249-14.305c8.305-4.414,13.972-13.156,13.972-23.198c0-4.256-1.018-8.278-2.823-11.837    c11.829-2.545,20.724-13.086,20.724-25.665C250.241,287.751,238.465,275.975,223.99,275.975z M156.986,458.064    c-0.387,1.444-1.878,2.303-3.326,1.918l-70.917-18.997h78.821L156.986,458.064z"/>
		<path d="M263.5,44.178c0-4.143-3.357-7.5-7.5-7.5s-7.5,3.357-7.5,7.5v30.641c0,4.143,3.357,7.5,7.5,7.5s7.5-3.357,7.5-7.5V44.178z    "/>
		<path d="M224.521,87.337c1.482,1.842,3.655,2.799,5.849,2.799c1.649,0,3.312-0.542,4.696-1.656    c3.228-2.597,3.739-7.318,1.143-10.545L214.858,51.4c-2.597-3.227-7.318-3.738-10.545-1.143    c-3.228,2.597-3.739,7.318-1.143,10.545L224.521,87.337z"/>
		<path d="M276.935,88.48c1.386,1.114,3.046,1.656,4.696,1.656c2.193,0,4.366-0.957,5.849-2.799l21.35-26.535    c2.597-3.227,2.085-7.948-1.143-10.545c-3.228-2.596-7.946-2.085-10.545,1.143l-21.35,26.535    C273.195,81.161,273.707,85.883,276.935,88.48z"/>
	</g>
</g>















</svg>
