<svg viewBox="0 0 512.001 512.001" xmlns="http://www.w3.org/2000/svg"><path d="M181.847 463.379L42.95 426.161l-6.312 23.554c-2.978 11.119 4.711 22.929 17.086 26.244l46.947 12.58 46.947 12.579c12.375 3.316 24.939-3.066 27.919-14.186z" fill="#ff9822"/><path d="M42.95 426.161l138.897 37.219 39.549-147.596-138.898-37.218zm115.984-48.018c-3.96 14.779-19.151 23.55-33.931 19.59s-23.551-19.151-19.59-33.932c3.959-14.779 19.15-23.55 33.93-19.59 14.78 3.961 23.551 19.153 19.591 33.932z" fill="#5fb3b7"/><circle cx="132.169" cy="370.976" fill="#ff3855" r="27.705"/><path d="M82.498 278.566l138.897 37.218c6.898-25.744-5.401-56.383-17.533-63.801 3.355-20.641 6.766-44.425 9.159-65.8h-65.165c-6.428 15.357-12.77 31.385-18.273 45.898-14.217.357-40.187 20.742-47.085 46.485z" fill="#ff9822"/><path d="M147.857 186.182h65.165c1.32-11.787 2.332-22.843 2.854-32.236 3.863 1.035 7.871-1.279 8.907-5.143l5.831-21.762c.998-3.727-1.233-7.593-4.961-8.591l-48.175-12.908c-3.728-.999-8.632 1.102-8.592 4.96l-5.831 21.762c-1.999 3.465 1.279 7.872 5.143 8.907-6.228 12.321-13.336 28.267-20.341 45.011zm148.259-32.236c.521 9.394 1.532 20.449 2.853 32.236h65.166c-7.007-16.744-14.114-32.691-20.343-45.012 3.864-1.035 7.142-5.442 5.143-8.907l-5.831-21.762c.039-3.858-4.865-5.959-8.592-4.96l-48.176 12.908c-3.727.999-5.959 4.865-4.96 8.591l5.83 21.762c1.038 3.866 5.047 6.179 8.91 5.144z" fill="#e9ca92"/><path d="M364.136 186.182H298.97c2.394 21.376 5.805 45.161 9.159 65.8-12.132 7.418-24.431 38.058-17.533 63.801l138.897-37.218c-6.897-25.744-32.868-46.129-47.084-46.486-5.504-14.512-11.846-30.539-18.273-45.897z" fill="#ff9822"/><path d="M429.492 278.566l-138.897 37.218 39.549 147.596 138.897-37.219zm-76.434 99.577c-3.96-14.779 4.81-29.972 19.591-33.932 14.779-3.96 29.971 4.811 33.931 19.59 3.96 14.78-4.811 29.972-19.59 33.932-14.78 3.96-29.972-4.811-33.932-19.59z" fill="#5fb3b7"/><circle cx="379.817" cy="370.976" fill="#ff3855" r="27.705"/><path d="M469.041 426.161L330.144 463.38l6.311 23.553c2.979 11.119 15.545 17.502 27.919 14.186l46.947-12.579 46.948-12.58c12.374-3.315 20.065-15.125 17.085-26.244z" fill="#ff9822"/><path d="M228.241 108.792l-48.176-12.909c-5.266-1.411-11.173-.242-15.416 3.05-3.227 2.502-5.236 6.047-5.673 9.917l-5.337 19.919c-1.573 3.644-1.586 7.801.006 11.644a17.075 17.075 0 0 0 2.025 3.573c-5.1 10.618-10.914 23.713-17.017 38.282a2.405 2.405 0 0 1-.021.049c-5.331 12.728-10.879 26.572-16.359 40.867-18.682 5.068-42.505 26.934-49.436 52.794L26.98 447.128c-4.413 16.473 6.424 33.74 24.157 38.491l93.894 25.159s-.001 0 0 0a35.67 35.67 0 0 0 9.229 1.224c5.351 0 10.613-1.23 15.372-3.648 7.852-3.99 13.38-10.678 15.565-18.832l6.308-23.543.003-.01.002-.009 39.546-147.587c6.93-25.861-2.77-56.708-16.414-70.439 3.437-21.645 6.295-42.565 8.314-60.632.006-.052.013-.104.018-.157 1.01-9.053 1.807-17.38 2.362-24.725 4.329-2.121 7.763-6.016 9.107-11.027l5.832-21.763c2.425-9.062-2.973-18.41-12.034-20.838zm-50.468 7.182l42.409 11.363-4.45 16.608c-.079.001-.157.01-.236.013-.074.002-.146.007-.219.012-.243.015-.484.038-.723.07-.083.011-.165.021-.247.034a10.01 10.01 0 0 0-.71.141c-.068.016-.138.028-.206.046-.287.074-.57.159-.848.258-.09.032-.177.071-.267.105-.187.073-.373.148-.555.231a9.348 9.348 0 0 0-.333.164 10.321 10.321 0 0 0-.783.437 9.656 9.656 0 0 0-.466.31c-.088.062-.177.121-.263.186-.203.152-.399.312-.59.479-.03.026-.062.049-.091.076-.225.202-.439.415-.646.636-.043.046-.082.095-.124.142a9.86 9.86 0 0 0-.454.542c-.059.076-.115.155-.172.233a9.527 9.527 0 0 0-.789 1.272c-.058.111-.116.221-.17.334-.075.16-.143.324-.21.488-.05.121-.104.24-.148.363a10.01 10.01 0 0 0-.441 1.655c-.012.065-.03.13-.041.195-.007.042-.008.087-.015.131-.044.302-.079.604-.096.905-.364 6.547-.996 14.238-1.859 22.779h-41.044c5.17-11.881 9.983-22.289 14.13-30.493.131-.26.248-.53.357-.804.019-.049.045-.097.064-.146.02-.054.034-.111.054-.165a10.254 10.254 0 0 0 .453-1.679c.022-.124.034-.248.051-.372.025-.184.05-.367.064-.55.01-.117.014-.234.019-.351.009-.196.014-.391.011-.585-.002-.104-.004-.208-.009-.311a9.773 9.773 0 0 0-.05-.643c-.009-.083-.017-.166-.028-.249a9.71 9.71 0 0 0-.133-.759l-.024-.125c-.069-.302-.151-.6-.247-.893l-.019-.052a9.878 9.878 0 0 0-.294-.768c-.04-.092-.084-.182-.126-.273a9.232 9.232 0 0 0-.712-1.281 10.847 10.847 0 0 0-.211-.316c-.11-.155-.228-.304-.347-.453-.066-.083-.128-.169-.198-.25a9.892 9.892 0 0 0-.594-.635c-.063-.062-.13-.118-.195-.178a10.016 10.016 0 0 0-.501-.439c-.074-.06-.151-.118-.227-.176a9.719 9.719 0 0 0-.559-.398c-.069-.045-.137-.091-.208-.135-.063-.04-.124-.085-.188-.123zm-47.938 126.103a10.001 10.001 0 0 0 9.099-6.451 1489.126 1489.126 0 0 1 15.591-39.444h47.256c-1.648 13.427-3.697 28.106-6.052 43.269l-2.445-.655a9.998 9.998 0 0 0-12.247 7.071c-1.429 5.335 1.736 10.818 7.071 12.247l11.479 3.076c6.516 5.207 14.691 23.797 13.689 42.066l-117.482-31.48c8.67-17.117 26.266-29.503 34.041-29.699zm44.943 209.055L55.197 419.09 89.57 290.813l119.58 32.042zm-14.207 39.391c-3.085 1.567-6.766 1.9-10.365.936L56.313 466.3h-.001c-6.961-1.865-11.547-8.275-10.015-13.997l3.723-13.895L169.6 470.45l-3.723 13.894c-.696 2.599-2.58 4.794-5.306 6.179z"/><path d="M159.409 250.427l.234.063c.863.23 1.73.34 2.583.34 4.419 0 8.463-2.953 9.656-7.426 1.423-5.337-1.749-10.816-7.085-12.239l-.234-.062c-5.335-1.422-10.816 1.749-12.239 7.085-1.424 5.337 1.748 10.816 7.085 12.239zm5.417 101.694c-5.036-8.723-13.167-14.961-22.896-17.568a37.782 37.782 0 0 0-9.775-1.292c-17.024 0-31.993 11.495-36.401 27.953-2.607 9.728-1.27 19.889 3.766 28.611s13.167 14.961 22.895 17.567a37.781 37.781 0 0 0 9.775 1.291c17.023 0 31.993-11.494 36.402-27.953 2.608-9.727 1.27-19.888-3.766-28.609zm-15.551 23.434c-2.071 7.73-9.096 13.128-17.084 13.128-1.541 0-3.088-.205-4.6-.61a17.588 17.588 0 0 1-10.75-8.249 17.583 17.583 0 0 1-1.768-13.435c2.07-7.73 9.095-13.129 17.083-13.129 1.541 0 3.088.205 4.6.61a17.59 17.59 0 0 1 10.751 8.25 17.6 17.6 0 0 1 1.768 13.435zm335.736 71.572l-45.86-171.149c-6.93-25.862-30.753-47.728-49.435-52.794-5.48-14.295-11.028-28.14-16.359-40.867l-.021-.05c-6.103-14.569-11.917-27.664-17.018-38.281a17.109 17.109 0 0 0 2.024-3.572c1.593-3.843 1.579-8.001.007-11.645l-5.338-19.919c-.437-3.869-2.445-7.414-5.672-9.916-4.243-3.293-10.15-4.462-15.417-3.05l-48.178 12.908a16.898 16.898 0 0 0-10.322 7.932c-2.275 3.941-2.882 8.525-1.707 12.907l5.83 21.764c1.344 5.011 4.778 8.906 9.108 11.026.554 7.341 1.35 15.663 2.359 24.711.006.064.015.128.022.192 2.018 18.061 4.875 38.972 8.311 60.61-13.644 13.73-23.343 44.579-16.414 70.439l45.859 171.148c2.186 8.155 7.714 14.843 15.566 18.832 4.759 2.419 10.021 3.648 15.372 3.648 3.072 0 6.175-.405 9.228-1.224l93.895-25.159c8.372-2.243 15.508-7.357 20.093-14.399 4.809-7.382 6.252-15.937 4.067-24.092zM302.842 322.855l119.58-32.042 34.372 128.278-119.58 32.042zm79.316-80.778c7.774.196 25.369 12.582 34.04 29.7l-117.482 31.48c-1.001-18.271 7.175-36.861 13.691-42.067l11.478-3.075c5.335-1.429 8.501-6.913 7.071-12.247s-6.915-8.502-12.247-7.071l-2.445.655c-2.354-15.164-4.403-29.844-6.052-43.269h47.257a1485.694 1485.694 0 0 1 15.591 39.444 9.998 9.998 0 0 0 9.098 6.45zm-47.94-126.102l4.451 16.606c-.064.039-.125.083-.188.123l-.211.137c-.19.126-.375.258-.555.395-.077.06-.155.118-.231.179-.17.139-.334.284-.494.433-.066.062-.136.121-.201.184-.205.202-.403.413-.59.631-.073.085-.139.176-.209.264-.115.144-.229.289-.336.438-.076.106-.146.215-.218.325a9.283 9.283 0 0 0-.706 1.268c-.044.094-.09.187-.13.282a10.46 10.46 0 0 0-.287.751c-.008.023-.018.046-.025.069-.096.292-.177.589-.246.889-.01.046-.017.092-.026.138a9.774 9.774 0 0 0-.132.746c-.011.085-.018.171-.028.256a10.316 10.316 0 0 0-.06.951 14.057 14.057 0 0 0 .03.936c.015.183.04.365.065.548.017.124.029.249.052.372a9.767 9.767 0 0 0 .435 1.624c.026.073.046.15.073.223.012.031.028.061.04.091.116.296.243.585.385.864 4.147 8.203 8.958 18.607 14.127 30.485H307.96c-.863-8.542-1.496-16.233-1.859-22.779a10.174 10.174 0 0 0-.097-.913c-.006-.041-.008-.082-.014-.122-.011-.066-.029-.132-.042-.198a9.74 9.74 0 0 0-.442-1.658c-.041-.114-.091-.224-.137-.337-.071-.175-.144-.35-.224-.519-.05-.105-.105-.208-.159-.312-.09-.173-.183-.344-.281-.511a9.51 9.51 0 0 0-.521-.785c-.056-.076-.109-.153-.167-.227a10.31 10.31 0 0 0-.444-.531c-.048-.053-.092-.108-.14-.16-.201-.215-.41-.422-.628-.618-.075-.068-.156-.129-.233-.195a9.041 9.041 0 0 0-.432-.35c-.124-.095-.254-.182-.383-.271-.105-.071-.209-.142-.316-.209a9.595 9.595 0 0 0-.46-.273c-.086-.048-.173-.093-.26-.139a10.44 10.44 0 0 0-.531-.261l-.165-.069a9.834 9.834 0 0 0-1.895-.59c-.12-.025-.24-.051-.362-.072a11.114 11.114 0 0 0-.969-.111c-.118-.008-.236-.016-.356-.02-.063-.002-.124-.009-.186-.01l-4.449-16.608 42.41-11.36zm129.97 344.332c-1.889 2.9-4.91 5.029-8.508 5.993l-93.895 25.159c-3.599.964-7.278.632-10.364-.936-2.726-1.385-4.61-3.579-5.307-6.179l-3.723-13.894 119.58-32.042 3.723 13.895c.696 2.6.162 5.443-1.506 8.004z"/><path d="M347.419 231.105l-.233.063c-5.335 1.429-8.501 6.912-7.072 12.246 1.196 4.469 5.236 7.416 9.653 7.416.855 0 1.727-.111 2.593-.343l.233-.063c5.335-1.429 8.501-6.912 7.072-12.246s-6.909-8.503-12.246-7.073zm68.818 130.109c-4.409-16.459-19.379-27.954-36.402-27.954-3.288 0-6.577.435-9.775 1.292-9.729 2.606-17.859 8.845-22.896 17.568-5.035 8.722-6.373 18.883-3.767 28.612 4.41 16.456 19.38 27.951 36.402 27.952h.002c3.287 0 6.576-.435 9.774-1.291 9.728-2.606 17.859-8.845 22.895-17.567 5.036-8.723 6.374-18.884 3.767-28.612zm-21.086 18.611a17.59 17.59 0 0 1-10.75 8.249c-1.511.405-3.059.61-4.599.61h-.001c-7.987 0-15.014-5.399-17.085-13.128a17.592 17.592 0 0 1 1.768-13.435 17.594 17.594 0 0 1 10.751-8.25 17.779 17.779 0 0 1 4.6-.61c7.987 0 15.013 5.399 17.084 13.13a17.59 17.59 0 0 1-1.768 13.434zM255.996 0c-5.523 0-10 4.477-10 10v26.764c0 5.523 4.477 10 10 10 5.522 0 10-4.477 10-10V10c0-5.523-4.477-10-10-10zM205.3 60.311a9.996 9.996 0 0 0 13.685 3.566c4.764-2.794 6.36-8.921 3.566-13.685l-13.596-23.178c-2.794-4.764-8.922-6.361-13.685-3.566-4.764 2.794-6.36 8.921-3.566 13.685zm87.706 3.566a9.998 9.998 0 0 0 13.686-3.566l13.596-23.178c2.794-4.764 1.197-10.891-3.566-13.685-4.765-2.795-10.892-1.197-13.686 3.566L289.44 50.193c-2.794 4.763-1.198 10.89 3.566 13.684z"/></svg>