<svg viewBox="0 0 512 512" xmlns="http://www.w3.org/2000/svg"><circle cx="256" cy="256" fill="#d9d9d9" r="247.467"/><circle cx="256" cy="256" fill="#f7e4ba" r="170.667"/><path d="M76.245 196.139a33.926 33.926 0 0 0 1.553 13.295c-25.557 7.117-40.516 33.604-33.399 59.17a48.027 48.027 0 0 0 25.506 30.43 33.762 33.762 0 0 0-3.857 12.8c-1.178 20.292 14.302 37.709 34.594 38.929a39.413 39.413 0 0 0 16.87-2.287l28.083-74.342-.529-60.8-11.708-44.245a39.417 39.417 0 0 0-16.213-5.222c-20.198-2.374-38.502 12.073-40.9 32.272z" fill="#6b9777"/><path d="M418.133 128c.06-18.79-15.121-34.074-33.911-34.133a34.013 34.013 0 0 0-30.003 17.775c-42.163-21.427-93.722-4.608-115.14 37.555s-4.608 93.722 37.555 115.14c42.163 21.419 93.722 4.608 115.14-37.555a85.65 85.65 0 0 0 4.506-67.021A34.068 34.068 0 0 0 418.133 128z" fill="#ebebeb"/><circle cx="307.2" cy="187.733" fill="#fbb540" r="38.4"/><circle cx="179.2" cy="349.867" fill="#f7ba61" r="85.333"/><circle cx="136.533" cy="238.925" fill="#dc4d41" r="34.133"/><circle cx="141.739" cy="167.927" fill="#dc4d41" r="34.133"/><path d="M433.553 291.482a8.542 8.542 0 0 1-8.542-8.525c0-.324.017-.649.06-.981l5.06-44.015c.529-4.685 4.762-8.047 9.446-7.509a8.513 8.513 0 0 1 4.207 1.69l39.253 29.867a8.52 8.52 0 0 1 1.621 11.955 8.558 8.558 0 0 1-4.181 2.961l-44.322 14.165c-.844.272-1.723.4-2.602.392zM287.249 480.503a8.532 8.532 0 0 1-7.117-3.831l-24.465-36.941c-2.603-3.925-1.527-9.225 2.406-11.827a8.582 8.582 0 0 1 4.292-1.408l49.263-2.423c4.71-.23 8.713 3.405 8.934 8.107a8.598 8.598 0 0 1-1.306 4.975l-24.747 39.364a8.537 8.537 0 0 1-7.117 3.985z" fill="#8f563b"/><path d="M196.267 307.2h17.067v17.067h-17.067zm25.6 25.6h17.067v17.067h-17.067zm-25.6 34.133h17.067V384h-17.067zm-68.267 0h17.067V384H128zm17.067-59.733h17.067v17.067h-17.067zm17.066 85.333H179.2V409.6h-17.067zm0-51.2H179.2V358.4h-17.067z" fill="#f26b32"/><path d="M328.081 446.097a30.228 30.228 0 0 1-23.296-10.897l-.06-.068c-10.897-13.005-9.182-32.384 3.823-43.273a32.343 32.343 0 0 1 2.441-1.852l19.43-15.863a194.966 194.966 0 0 0 51.721-64.853l8.772-17.681c7.006-16.068 25.711-23.407 41.779-16.41s23.407 25.711 16.41 41.779l-11.708 24.687a214.004 214.004 0 0 1-66.432 80.495l-26.035 19.089a32.214 32.214 0 0 1-16.845 4.847z" fill="#8f563b"/><path d="M256 0C114.611 0 0 114.611 0 256s114.611 256 256 256 256-114.611 256-256C511.838 114.679 397.321.162 256 0zm0 494.933C124.041 494.933 17.067 387.96 17.067 256S124.041 17.067 256 17.067 494.933 124.041 494.933 256C494.78 387.9 387.9 494.78 256 494.933z"/><path d="M307.2 140.8c-25.924 0-46.933 21.009-46.933 46.933s21.009 46.933 46.933 46.933 46.933-21.009 46.933-46.933c-.034-25.907-21.026-46.899-46.933-46.933zm0 76.8c-16.495 0-29.867-13.372-29.867-29.867s13.372-29.867 29.867-29.867 29.867 13.372 29.867 29.867S323.695 217.6 307.2 217.6z"/><path d="M426.667 128c.068-23.492-18.918-42.598-42.411-42.667a42.527 42.527 0 0 0-33.015 15.556 92.808 92.808 0 0 0-13.867-4.386 7.917 7.917 0 0 0-.734-.572c-67.115-33.766-148.156-22.118-203.042 29.175-.299.35-.563.734-.802 1.126a42.662 42.662 0 0 0-32.102 30.78c-17.954 4.608-31.104 19.951-32.913 38.4a40.98 40.98 0 0 0 .171 8.738c-28.476 12.39-41.515 45.517-29.124 73.993a56.143 56.143 0 0 0 20.446 24.397 42.12 42.12 0 0 0-1.707 8.533c-1.434 19.405 9.95 37.487 28.075 44.578 3.132 51.678 47.556 91.034 99.234 87.902a93.704 93.704 0 0 0 39.185-11.255 181.543 181.543 0 0 0 30.234 2.825c0 1.638.478 3.234 1.374 4.608l24.465 36.941a8.532 8.532 0 0 0 7.117 3.831h.102a8.537 8.537 0 0 0 7.117-3.985l20.915-33.212a30.058 30.058 0 0 0 12.698 2.79 32.16 32.16 0 0 0 16.836-4.847l26.035-19.132a214.004 214.004 0 0 0 66.432-80.495l11.708-24.687a30.822 30.822 0 0 0-2.415-29.227l33.792-10.803c4.489-1.442 6.955-6.246 5.521-10.735a8.558 8.558 0 0 0-2.961-4.181l-39.253-29.867a8.522 8.522 0 0 0-8.533-1.058 8.83 8.83 0 0 0-1.707 1.015 178.095 178.095 0 0 0-24.747-69.538A42.214 42.214 0 0 0 426.667 128zM141.73 142.327c14.14 0 25.6 11.46 25.6 25.6s-11.46 25.6-25.6 25.6-25.6-11.46-25.6-25.6c0-14.139 11.46-25.6 25.6-25.6zm8.056 118.452c-2.398.794-4.787 1.613-7.125 2.56-.503.213-.973.469-1.468.683-13.901 2.594-27.273-6.571-29.858-20.471-2.594-13.901 6.571-27.273 20.471-29.858s27.264 6.571 29.858 20.471a25.58 25.58 0 0 1-11.878 26.573zm-75.239 51.806a25.81 25.81 0 0 1 2.901-9.6l3.985-7.569-7.578-3.959c-19.738-9.318-28.186-32.879-18.867-52.617a39.507 39.507 0 0 1 25.387-21.274l8.158-2.56-2.611-8.158a25.141 25.141 0 0 1-1.169-9.941 26.6 26.6 0 0 1 15.078-21.333 42.54 42.54 0 0 0 16.077 26.138c-.222.119-.478.188-.7.316-20.395 11.733-27.418 37.777-15.684 58.18a42.614 42.614 0 0 0 19.499 17.63 93.639 93.639 0 0 0-32.751 58.957 26.846 26.846 0 0 1-11.725-24.21zm27.853 37.282c0-42.419 34.381-76.8 76.8-76.8s76.8 34.381 76.8 76.8-34.381 76.8-76.8 76.8c-42.351.068-76.732-34.21-76.8-76.561zm184.67 106.376l-8.883-13.431 17.92-.853zm146.423-146.304L421.93 334.31a196.905 196.905 0 0 1-61.116 74.052l-25.412 18.722c-5.811 3.541-13.338 2.27-17.655-2.987-4.821-5.794-4.036-14.404 1.758-19.226a14.27 14.27 0 0 1 1.229-.913l20.48-16.64a211.893 211.893 0 0 0 56.209-70.485l8.96-18.091c3.209-7.441 11.844-10.88 19.285-7.671a14.675 14.675 0 0 1 7.757 7.868 14.365 14.365 0 0 1 .068 11zm11.845-55.142l14.276 10.854-16.111 5.12zm-28.16 18.193a31.074 31.074 0 0 0-26.308 18.577l-8.73 17.681a194.953 194.953 0 0 1-51.721 64.853l-19.43 15.872a30.712 30.712 0 0 0-13.107 20.941c-.085.58 0 1.161-.068 1.707a164.027 164.027 0 0 1-53.871 5.018c37.495-35.703 38.946-95.044 3.243-132.54A93.753 93.753 0 0 0 179.2 256c-1.271 0-2.56.137-3.789.188 8.107-18.005 2.731-39.228-12.979-51.2 20.506-11.273 27.989-37.035 16.717-57.54a42.334 42.334 0 0 0-22.69-19.422A161.436 161.436 0 0 1 256 93.867a163.38 163.38 0 0 1 34.133 3.635c-49.86 14.097-78.857 65.954-64.751 115.814s65.954 78.857 115.814 64.751c35.669-10.086 62.063-40.235 67.337-76.928a160.75 160.75 0 0 1 8.687 71.851zm-24.022-121.173l-7.68 2.978 2.697 7.782c13.978 40.132-7.219 83.994-47.351 97.971-40.132 13.978-83.994-7.219-97.971-47.351s7.219-83.994 47.351-97.971a76.972 76.972 0 0 1 60.109 4.036l7.347 3.729 3.985-7.228c6.75-12.373 22.246-16.93 34.62-10.18s16.93 22.246 10.18 34.62a25.561 25.561 0 0 1-13.287 11.614z"/><path d="M196.267 307.2h17.067v17.067h-17.067zm25.6 25.6h17.067v17.067h-17.067zm-25.6 34.133h17.067V384h-17.067zm-68.267 0h17.067V384H128zm17.067-59.733h17.067v17.067h-17.067zm17.066 85.333H179.2V409.6h-17.067zm0-51.2H179.2V358.4h-17.067z"/></svg>