<svg viewBox="-33 0 512 512" xmlns="http://www.w3.org/2000/svg"><path d="m107.480469 504.5c-47.613281 0-92.601563-48.648438-96.796875-109.050781-4.269532-94.359375-4.269532-184.539063 0-278.898438 4.195312-60.402343 49.183594-109.050781 96.796875-109.050781 47.617187 0 92.605469 48.648438 96.800781 109.050781 4.265625 94.359375 4.265625 184.539063 0 278.898438-4.195312 60.402343-49.183594 109.050781-96.800781 109.050781zm0 0" fill="#ffaa16"/><path d="m204.28125 116.550781c-4.195312-60.402343-49.183594-109.050781-96.800781-109.050781-5.042969 0-10.058594.550781-15 1.601562 41.691406 8.84375 78.046875 53.445313 81.800781 107.449219 4.265625 94.359375 4.265625 184.539063 0 278.898438-3.75 54.003906-40.109375 98.605469-81.800781 107.449219 4.941406 1.046874 9.957031 1.601562 15 1.601562 47.617187 0 92.605469-48.648438 96.800781-109.050781 4.265625-94.359375 4.265625-184.539063 0-278.898438zm0 0" fill="#ff914d"/><path d="m35.191406 163.28125c-2.546875-8.101562 8.839844-20.089844 25.742188-26.1875 26.523437-9.140625 52.09375-17.175781 79.078125-24.859375 17.351562-4.671875 33.550781-1.351563 36.097656 6.746094 2.546875 8.101562-8.84375 20.089843-25.742187 26.1875-26.527344 9.136719-52.097657 17.175781-79.082032 24.859375-17.347656 4.671875-33.546875 1.355468-36.09375-6.746094zm0 0" fill="#fff"/><path d="m176.09375 118.980469c-2.546875-8.101563-18.746094-11.417969-36.097656-6.746094-5.550782 1.578125-11.03125 3.179687-16.480469 4.796875 11.882813-.089844 21.492187 4.148438 23.65625 11.039062 2.167969 6.894532-3.289063 15.875-13.09375 22.597657 5.398437-1.796875 10.8125-3.617188 16.273437-5.5 16.902344-6.097657 28.289063-18.085938 25.742188-26.1875zm0 0" fill="#ffc943"/><path d="m35.191406 273.65625c-2.546875-8.097656 8.839844-20.089844 25.742188-26.1875 26.523437-9.136719 52.09375-17.171875 79.078125-24.859375 17.351562-4.667969 33.550781-1.351563 36.097656 6.75s-8.84375 20.089844-25.742187 26.1875c-26.527344 9.136719-52.097657 17.175781-79.082032 24.859375-17.347656 4.667969-33.546875 1.351562-36.09375-6.75zm0 0" fill="#fff"/><path d="m176.09375 229.359375c-2.546875-8.101563-18.746094-11.417969-36.097656-6.75-5.550782 1.582031-11.03125 3.183594-16.480469 4.800781 11.882813-.09375 21.492187 4.148438 23.65625 11.039063 2.167969 6.894531-3.289063 15.871093-13.09375 22.597656 5.398437-1.796875 10.8125-3.621094 16.273437-5.5 16.902344-6.097656 28.289063-18.085937 25.742188-26.1875zm0 0" fill="#ffc943"/><path d="m35.191406 384.035156c-2.546875-8.097656 8.839844-20.089844 25.742188-26.1875 26.523437-9.136718 52.09375-17.171875 79.078125-24.859375 17.351562-4.667969 33.550781-1.351562 36.097656 6.75 2.546875 8.101563-8.84375 20.089844-25.742187 26.1875-26.527344 9.136719-52.097657 17.175781-79.082032 24.859375-17.347656 4.667969-33.546875 1.351563-36.09375-6.75zm0 0" fill="#fff"/><path d="m176.09375 339.738281c-2.546875-8.101562-18.746094-11.417969-36.097656-6.75-5.550782 1.582031-11.03125 3.183594-16.480469 4.800781 11.882813-.09375 21.492187 4.144532 23.65625 11.039063 2.167969 6.894531-3.289063 15.871094-13.09375 22.59375 5.398437-1.792969 10.8125-3.617187 16.273437-5.496094 16.902344-6.097656 28.289063-18.085937 25.742188-26.1875zm0 0" fill="#ffc943"/><path d="m339.480469 504.5c-47.613281 0-92.601563-48.648438-96.796875-109.050781-4.269532-94.359375-4.269532-184.539063 0-278.898438 4.195312-60.402343 49.183594-109.050781 96.796875-109.050781 47.617187 0 92.605469 48.648438 96.800781 109.050781 4.265625 94.359375 4.265625 184.539063 0 278.898438-4.195312 60.402343-49.183594 109.050781-96.800781 109.050781zm0 0" fill="#ffaa16"/><path d="m436.28125 116.550781c-4.195312-60.402343-49.183594-109.050781-96.800781-109.050781-5.042969 0-10.058594.550781-15 1.601562 41.691406 8.84375 78.046875 53.445313 81.800781 107.449219 4.265625 94.359375 4.265625 184.539063 0 278.898438-3.75 54.003906-40.109375 98.605469-81.800781 107.449219 4.941406 1.046874 9.957031 1.601562 15 1.601562 47.617187 0 92.605469-48.648438 96.800781-109.050781 4.265625-94.359375 4.265625-184.539063 0-278.898438zm0 0" fill="#ff914d"/><path d="m267.191406 163.28125c-2.546875-8.101562 8.839844-20.089844 25.742188-26.1875 26.523437-9.140625 52.09375-17.175781 79.078125-24.859375 17.351562-4.671875 33.550781-1.351563 36.097656 6.746094 2.542969 8.101562-8.84375 20.089843-25.742187 26.1875-26.527344 9.136719-52.097657 17.175781-79.082032 24.859375-17.347656 4.671875-33.546875 1.355468-36.09375-6.746094zm0 0" fill="#fff"/><path d="m408.109375 118.980469c-2.546875-8.101563-18.746094-11.417969-36.097656-6.746094-5.550781 1.578125-11.03125 3.179687-16.484375 4.796875 11.882812-.089844 21.492187 4.148438 23.660156 11.039062 2.167969 6.894532-3.292969 15.875-13.09375 22.597657 5.398438-1.796875 10.8125-3.617188 16.273438-5.5 16.898437-6.097657 28.285156-18.085938 25.742187-26.1875zm0 0" fill="#ffc943"/><path d="m267.191406 273.65625c-2.546875-8.097656 8.839844-20.089844 25.742188-26.1875 26.523437-9.136719 52.09375-17.171875 79.078125-24.859375 17.351562-4.667969 33.550781-1.351563 36.097656 6.75 2.542969 8.101563-8.84375 20.089844-25.742187 26.1875-26.527344 9.136719-52.097657 17.175781-79.082032 24.859375-17.347656 4.667969-33.546875 1.351562-36.09375-6.75zm0 0" fill="#fff"/><path d="m408.09375 229.359375c-2.546875-8.101563-18.746094-11.417969-36.097656-6.75-5.550782 1.582031-11.03125 3.183594-16.480469 4.800781 11.882813-.09375 21.492187 4.148438 23.65625 11.039063 2.167969 6.894531-3.289063 15.871093-13.09375 22.597656 5.398437-1.796875 10.8125-3.621094 16.273437-5.5 16.902344-6.097656 28.289063-18.085937 25.742188-26.1875zm0 0" fill="#ffc943"/><path d="m267.191406 384.035156c-2.546875-8.097656 8.839844-20.089844 25.742188-26.1875 26.523437-9.136718 52.09375-17.171875 79.078125-24.859375 17.351562-4.667969 33.550781-1.351562 36.097656 6.75 2.542969 8.101563-8.84375 20.089844-25.742187 26.1875-26.527344 9.136719-52.097657 17.175781-79.082032 24.859375-17.347656 4.667969-33.546875 1.351563-36.09375-6.75zm0 0" fill="#fff"/><path d="m408.09375 339.792969c-2.546875-8.101563-18.746094-11.417969-36.097656-6.75-5.550782 1.582031-11.03125 3.183593-16.480469 4.800781 11.882813-.09375 21.492187 4.144531 23.65625 11.039062 2.167969 6.894532-3.289063 15.871094-13.09375 22.59375 5.398437-1.792968 10.8125-3.617187 16.273437-5.496093 16.902344-6.097657 28.289063-18.089844 25.742188-26.1875zm0 0" fill="#ffc943"/><g fill="#434c54"><path d="m107.480469 512c-25.015625 0-50.625-12.523438-70.257813-34.359375-19.8125-22.035156-31.894531-51.039063-34.023437-81.667969-.003907-.0625-.007813-.121094-.007813-.183594-4.253906-94.0625-4.253906-185.515624 0-279.578124 0-.058594.003906-.121094.007813-.179688 1.332031-19.140625 6.710937-38.167969 15.5625-55.023438 1.929687-3.667968 6.464843-5.082031 10.128906-3.15625 3.667969 1.925782 5.078125 6.460938 3.152344 10.128907-7.878907 15.003906-12.675781 31.945312-13.871094 49-4.230469 93.546875-4.230469 184.492187 0 278.042969 3.882813 55.285156 44.765625 101.976562 89.308594 101.976562 44.546875 0 85.429687-46.695312 89.3125-101.980469 1.292969-28.636719 2.203125-57.285156 2.703125-85.152343.074218-4.140626 3.519531-7.421876 7.632812-7.363282 4.144532.070313 7.441406 3.488282 7.367188 7.632813-.503906 28.03125-1.417969 56.851562-2.722656 85.652343-.003907.0625-.003907.121094-.007813.183594-2.132813 30.628906-14.214844 59.632813-34.023437 81.667969-19.632813 21.835937-45.242188 34.359375-70.261719 34.359375zm0 0"/><path d="m207.402344 285.5c-.019532 0-.039063 0-.054688 0-4.144531-.03125-7.476562-3.414062-7.445312-7.554688.390625-53.359374-.625-106.011718-3.109375-160.964843-3.882813-55.289063-44.765625-101.980469-89.3125-101.980469-20.269531 0-40.648438 9.769531-57.375 27.511719-2.84375 3.015625-7.589844 3.152343-10.605469.3125-3.011719-2.84375-3.152344-7.589844-.308594-10.601563 19.589844-20.78125 43.84375-32.222656 68.289063-32.222656 25.019531 0 50.628906 12.523438 70.261719 34.359375 19.8125 22.035156 31.894531 51.039063 34.023437 81.667969.003906.0625.003906.121094.007813.183594 2.5 55.25 3.519531 108.191406 3.128906 161.84375-.03125 4.125-3.382813 7.445312-7.5 7.445312zm0 0"/><path d="m339.480469 512c-25.015625 0-50.625-12.523438-70.257813-34.359375-19.8125-22.035156-31.894531-51.039063-34.023437-81.667969-.003907-.0625-.007813-.121094-.007813-.183594-4.253906-94.0625-4.253906-185.515624 0-279.578124 0-.0625.003906-.121094.007813-.179688 2.128906-30.632812 14.210937-59.636719 34.023437-81.671875 19.632813-21.835937 45.242188-34.359375 70.257813-34.359375 25.019531 0 50.628906 12.523438 70.261719 34.359375 19.8125 22.035156 31.894531 51.039063 34.023437 81.667969.003906.0625.003906.121094.007813.183594 4.253906 94.0625 4.253906 185.515624 0 279.578124-.003907.0625-.003907.121094-.007813.179688-1.335937 19.175781-6.734375 38.234375-15.613281 55.117188-1.925782 3.664062-6.464844 5.070312-10.128906 3.144531-3.664063-1.929688-5.074219-6.464844-3.144532-10.128907 7.902344-15.027343 12.714844-32 13.914063-49.085937 4.226562-93.542969 4.230469-184.488281 0-278.035156-3.882813-55.285157-44.765625-101.980469-89.3125-101.980469-44.542969 0-85.425781 46.695312-89.3125 101.980469-4.226563 93.550781-4.226563 184.488281 0 278.035156 3.886719 55.289063 44.769531 101.984375 89.3125 101.984375 20.632812 0 41.285156-10.066406 58.15625-28.347656 2.808593-3.042969 7.554687-3.230469 10.597656-.421875 3.042969 2.808593 3.234375 7.554687.425781 10.597656-19.746094 21.390625-44.3125 33.171875-69.179687 33.171875zm0 0"/></g></svg>