<svg xmlns="http://www.w3.org/2000/svg" viewBox="0 0 511.999 511.999"><path d="M256.682 242.387c-13.123.656-26.412.534-38.598-.788-20.033-2.173-40.67-.486-60.896-.51-36.041-.041-72.183-.587-108.149.788-14.077.538-41.755-3.291-42.399 16.519-.244 7.536 2.244 16.06 2.982 23.675 1.034 10.654 3.697 9.676 14.535 10.772 13.701 1.386 14.541 2.268 15.191 16.844.417 9.345-.858 18.634-.701 27.951.344 20.323-1.675 41.634.954 61.865 2.385 18.35 7.042 20.386 25.646 21.916 27.76 2.283 57.004 1.769 84.838 1.744 61.617-.054 123.174 6.256 184.724 9.025 34.308 1.543 68.724 1.177 103.124 1.177 15.898 0 33.771 4.351 38.563-14.454 5.013-19.667 2.643-42.948 1.68-63.09-.605-12.637-2.406-25.068-2.396-37.872.006-7.078-3.013-14.329 3.198-19.382 6.311-5.135 15.199-2.886 21.15-9.784 6.625-7.681 4.771-20.849 2.966-29.835-2.972-14.793-11.751-14.482-25.253-16.84-38.023-6.638-75.19-5.734-113.691-5.729-25.467.003-51.403-.324-76.694 3.12-9.706 1.323-20.186 2.359-30.774 2.888z" fill="#EA8D4E"/><path d="M10.626 250.822c-3.339 8.988-9.015 31.058 1.171 37.806 6.859 4.53 18.873-1.056 24.438 3.5 3.759 3.077 3.254 12.264 3.475 16.467.741 14.113-1.575 28.094-1.541 42.162.046 18.816-1.718 38.5 0 57.249 1.583 17.285 17.368 17.852 32.214 17.567 26.783-.514 53.875-1.896 81.016-1.896 61.334 0 122.592 3.833 183.595 6.645 22.51 1.038 44.907-.195 67.429.953 16.799.857 41.219 5.222 57.391-.192 18.412-6.165 22.864-30.293 3.513-38.836-20.945-9.246-50.445-7.899-72.886-10.411-31.828-3.563-64.023-4.468-95.961-6.808-43.903-3.216-88.254-13.545-120.764-45.367-10.121-9.907-20.626-29.598-2.109-36.588 10.202-3.852 24.836-1.457 35.457-1.491 14.927-.048 29.852.079 44.777.079 65.529 0 131.45 1.182 196.807 2.848 7.324.187 60.453 3.399 48.437-11.393-5.567-6.854-22.735-5.772-30.354-6.648-18.421-2.117-36.969-3.905-55.499-4.749-43.088-1.963-86.168-1.903-129.314-1.903-47.893 0-95.988 1.28-143.865.049-26.162-.672-54.995-3.155-79.789-12.343-12.834-4.754-37.434-25.091-47.638-6.7z" fill="#CC6D3E"/><path d="M238.562 304.335c-11.715-.025-23.441.58-35.174 1.26-10.82.627-21.848.438-32.594.95-20.854.994-41.84-.854-62.701.001-6.729.275-36.166.082-32.311 12.666 3.97 12.952 41.271 6.741 50.365 6.3 56.392-2.736 113.27.124 169.535 2.707 30.533 1.402 61.213.35 91.828 1.773 10.988.511 21.973 1.126 32.914 1.252 5.725.065 22.354 2.425 25.201-4.806 7.467-19.172-71.969-15.459-79.04-15.461-24.384-.004-48.68-2.674-72.929-3.806-10.898-.509-21.514-.848-32.301-1.841-7.589-.696-15.189-.978-22.793-.995zm-1.267 36.1c-11.714-.025-23.44.579-35.173 1.26-10.82.627-21.849.438-32.593.95-20.854.994-41.842-.854-62.702.001-6.729.276-36.166.082-32.31 12.666 3.969 12.952 41.271 6.742 50.365 6.301 56.391-2.736 113.269.123 169.535 2.707 30.532 1.402 61.213.35 91.826 1.774 10.99.511 21.973 1.126 32.916 1.252 5.724.065 22.354 2.425 25.201-4.805 7.465-19.172-71.971-15.459-79.041-15.461-24.384-.004-48.68-2.674-72.929-3.806-10.899-.509-21.513-.848-32.3-1.841-7.591-.701-15.19-.982-22.795-.998zm0 36.731c-11.714-.025-23.44.58-35.173 1.26-10.82.628-21.849.438-32.593.95-20.854.994-41.842-.854-62.702.001-6.729.276-36.166.082-32.31 12.667 3.969 12.952 41.271 6.741 50.365 6.3 56.391-2.736 113.269.123 169.535 2.707 30.532 1.402 61.213.351 91.826 1.774 10.99.511 21.973 1.126 32.916 1.252 5.724.065 22.354 2.425 25.201-4.805 7.465-19.172-71.971-15.46-79.041-15.461-24.384-.004-48.68-2.674-72.929-3.806-10.899-.509-21.513-.848-32.3-1.841-7.591-.699-15.19-.981-22.795-.998zM34.483 240.546c1.733-18.517 6.11-36.793 11.61-54.636 4.15-13.467 5.537-27.737 10.498-40.932 4.638-12.333 15.541-14.3 27.588-16.324 20.619-3.464 41.68-4.139 62.67-4.578 33.68-.705 67.477 1.16 101.096-.032 50.578-1.793 101.392-4.014 152.046-1.392 8.978.464 18.024.727 27.013.919 5.703.123 13.782-.992 18.74 2.545 7.361 5.252 9.035 18.011 12.496 25.868 4.335 9.845 7.803 20.238 10.598 30.616 2.612 9.698 6.721 19.162 8.428 29.069.905 5.255 1.586 10.833 2.071 16.104.192 2.087 1.338 7.016.567 8.944-1.779 4.454-10.644 6.268-14.82 3.315-4.225-2.986-3.145-9.246-4.15-13.946-1.123-5.26-2.689-10.441-3.979-15.668-3.709-15.036-4.049-31.095-10.594-45.334-4.55-9.901-9.049-18.549-19.938-21.23-13.07-3.218-25.934-2.925-39.467-2.925-26.762 0-53.929 1.079-80.609-.113-12.291-.55-24.703-1.117-36.984-.511-13.675.675-27.004.113-40.664.113-14.764 0-29.334-.393-44.023-1.048-27.289-1.218-56.408.605-83.413 4.624-11.218 1.669-17.537 1.291-22.847 11.739-5.555 10.93-8.4 23.017-12.646 34.488-5.035 13.604-9.202 26.998-11.334 41.214-.506 3.372-1.088 7.566-3.568 10.13-3.164 3.27-10.755 2.843-16.385-1.019z" fill="#AA4130"/><path d="M103.449 240.035c-3.98-.565-8.947-8.539-10.456-11.73-2.419-5.115-2.401-11.517-.931-16.911 2.316-8.49 7.672-5.743 15.07-6.1 9.891-.478 19.338.064 29.168.04 9.85-.024 19.807-1.182 29.619-1.569 4.967-.196 16.425-1.839 20.27 2.258 4.439 4.73-1.611 15.081-2.919 20.247-1.38 5.454-1.536 9.827-7.145 11.721-4.375 1.479-10.195.454-14.798.882-6.883.64-13.104.698-19.964.627-12.799-.132-25.252 2.332-37.914.535zm197.695-17.537c-14.141-.02-28.653.675-42.777-.512-8.47-.712-21.475-4.798-29.454-.432-6.392 3.496-4.47 16.697.933 18.761 2.953 1.128 8.189.002 11.313.002h22.247c11.133 0 22.412-.533 33.533-.013 3.852.181 10.674 2.243 13.788-1.175 6.816-7.478-4.288-14.583-9.583-16.631zm112.311-21.059c-9.82-2.879-24.334.174-34.422 1.064-8.139.718-16.389.803-24.419.003-4.234-.422-8.73-1.272-12.461 1.634-4.995 3.89-1.741 8.423.027 13.711 3.755 11.223 4.571 25.145 18.632 25.164 16.06.022 32.059-1.706 48.056-2.654 5.842-.346 13.366 1.174 17.006-3.288 3.58-4.387 4.9-14.049 5.953-19.438 2.362-12.088-5.793-14.514-18.372-16.196zm1.08-98.812c-18.072.026-36.156 1.46-54.129 2.158-7.707.3-16.014-2.536-19.186 5.941-5.405 14.453 8.229 10.799 18.984 10.799h40.529c5.16 0 14.317 1.79 19.198.537 11.885-3.051 4.075-17.704-5.396-19.435zm-148.488 1.08c-14.057 0-29.215-1.056-42.629 2.835-3.902 1.132-7.424 1.634-8.672 5.529-.586 1.831.703 9.166 2.274 10.425 1.688 1.354 7.774.627 9.716.649 7.146.082 14.248.056 21.368.524 16.905 1.114 33.519.558 50.419.556 7.791-.001 26.813 2.098 19.521-10.812-9.842-17.427-42.364-4.835-51.997-9.706zm-130.67 1.62c-10.143 0-20.078.65-30.157 1.08-3.304.141-11.606.372-12.417 4.859-.558 3.082 6.037 8.877 8.151 10.666 4.962 4.198 8.952 4.262 15.604 4.574 20.467.958 41.073-.66 61.605-.66 11.484 0 18.359-.604 14.434-14.052-2.191-7.511-7.752-7.261-15.589-7.56-13.035-.496-27.85-.336-41.631 1.093z" fill="#D2D2CC"/><path d="M132.206 203.558c2.651 4.656-.302 13.423 2.934 19.711 2.866 5.572 6.987 9.522 11.924 12.724-5.777 6.549-41.18 6.984-47.903.035-1.57-1.623-9.005-19.016-9.011-21.443-.033-13.481 30.27-8.037 42.056-11.027zm126.134 19.178c17.355 12.295-18.109 16.229-25.26 16.228-8.58-.002-11.492-.441-6.434-9.428 6.425-11.418 16.54-5.217 31.694-6.8zm116.545-22.129c-.557 9.421-1.15 14.596 5.441 21.831 4.373 4.8 10.243 7.276 14.545 11.363-7.787 9.144-28.518 6.424-38.393 2.382-5.943-2.432-9.355-7.293-11.662-13.059-.737-1.843-5.732-16.266-5.424-16.621 6.467-7.473 23.532-8.534 35.493-5.896zm-255.956-95.154c-4.28-.254-22.369.809-24.283 4.051-4.544 7.697 6.457 13.902 11.913 14.428 12.994 1.254 26.598 1.431 39.646 1.438 9.692.005 13.313-4.788 5.521-12.846-10.848-11.214-26.609-3.971-32.797-7.071zm121.708 0c-7.32 0-20.205-2.607-23.618 5.166-6.222 14.171 10.236 12.536 18.657 12.537 8.634.001 38.087 6.097 38.189-7.376.121-15.744-19.781-11.086-33.228-10.327zm125.396-2.213c-3.209-1.27-22.484-1.87-25.135 1.461-3.709 4.664 1.697 16.292 7.219 17.745 8.029 2.114 39.257 1.967 43.831-5.49 7.593-12.377-14.035-14.887-25.915-13.716z" fill="#A8A6A2"/><path d="M135.156 174.053c-5.475-1.997-8.629.319-13.274 2.929-3.623 2.035-8.727 2.292-11.821 4.228-3.826 2.392-5.494 8.71-6.806 12.756-1.921 5.93-3.263 6.39 2.669 8.69 9.609 3.726 25.645-.84 35.619-1.349 5.937-.303 12.003.016 17.955.038 5.459.021 8.988.811 10.383-5.29 1.271-5.565-3.387-11.24-7.451-14.07-5.782-4.025-23.116-14.205-27.274-7.932z" fill="#F27183"/><path d="M131.982 173.326c-3.371 2.226-6.965 4.604-10.821 6.056-3.707 1.396-8.259.457-11.625 1.801-3.632 1.45-8.778 15.84-6.849 19.535 1.332 2.55 6.562 2.158 8.931 2.255 3.644.149 7.312-.059 10.959.086 2.565.103 6.582 1.476 9.066.847 7.581-1.919 7.68-13.192 5.95-18.862-.726-2.383-4.05-15.204-5.611-11.718z" fill="#C43F55"/><path d="M250.952 186.258c-4.145-.244-10.89 4.267-13.37 7.34-3.064 3.799-2.377 8.815-2.138 13.339.2 3.773-1.896 9.34 1.274 11.659 4.463 3.265 15.051 1.164 20.227 1.813 9.321 1.17 18.588 1.982 27.908 2.932 5.409.551 9.725 2.804 14.712.084 12.585-6.864-4.279-15.419-11.495-16.021-6.798-.567-13.455-1.093-14.711-8.936-.57-3.555.5-5.714-3-7.919-3.996-2.519-8.675-.723-19.407-4.291z" fill="#B5DA9B"/><path d="M255.693 189.706c-4.621 4.06-4.414 11.806-1.419 16.819 1.952 3.267 11.261 8.662 7.066 13.385-3.267 3.679-11.337.664-15.118-.046-3.625-.68-8.171-.462-11.681.392-2.046-5.584 2.097-12.217 2.578-17.854.244-2.854-.624-3.965 1.185-6.555 2.772-3.97 8.718-5.079 17.389-6.141z" fill="#6AC17B"/><path d="M391.045 175.051c-5.375 0-9.637.904-14.666 1.723-4.041.657-7.92-1.233-11.942-1.41-5.399-.237-9.192 2.249-11.218 7.025-1.313 3.095-4.001 10.779-3.121 13.784 2.068 7.065 20.867 3.448 26.368 3.448 11.167.001 22.479 1.367 33.622.861 9.925-.451 23.219-2.339 16.84-15.743-3.307-6.949-9.963-10.374-17.346-11.529-5.888-.921-10.201 3.011-18.537 1.841z" fill="#857FAD"/><g><path d="M364.75 175.913c-4.276 5.161-2.016 12.675-.945 18.231.75 3.899-1.24 5.991-5.988 5.875-5.492-.134-9.25-3.581-9.001-8.577.37-7.455 5.53-11.564 15.934-15.529zm18.536-2.156c-5.29-.604-8.78 3.582-7.51 8.585.716 2.815 2.944 4.697 3.218 7.785.271 3.071-1.426 5.927.428 8.757 8.405 12.835 23.129-22.254 3.864-25.127zm27.155 1.294c-3.393-1.501-8.63-1.256-10.374 2.684-1.222 2.758.515 4.259 1.236 6.78.956 3.335.449 6.585.985 9.9.959 5.919 6.561 7.926 10.995 2.834 3.029-3.479 5.352-18.187-2.842-22.198z" fill="#6A658C"/></g><path d="M382.424 81.081c-3.525-3.941-8.896-.256-12.289 1.508-1.553.807-1.49 1.491-2.896 1.614-1.82.159-4.211-1.619-6.032-1.945-5.397-.967-8.704.758-10.259 5.949-.674 2.249-3.246 9.572-1.949 11.178 2.605 3.225 20.867 1.77 24.57 1.969 10.499.564 21.048 1.286 31.529 1.734 7.486.32 21.229-.44 14.163-12.108-3.459-5.712-10.062-9.648-16.448-9.035-5.323.511-10.639 2.913-20.389-.864z" fill="#FFE355"/><path d="M358.715 84.96c-4.92 1.563-13.359 9.228-8.1 14.223 5.117 4.862 20.51 2.232 26.989 2.157 5.647-.066 16.524-1.883 12.155-9.699-2.257-4.037-8.299-8.741-13.145-9.051-3.884-.247-13.788 5.013-17.899 2.37z" fill="#FDB827"/><path d="M263.022 81.512c-4.976 0-8.733-.735-13.341-1.638-6.1-1.196-9.949 1.675-14.688 5.099-3.358 2.426-8.091 6.851-10.556 10.154-2.196 2.943-1.812 6.587 1.062 9.137 6.248 5.546 21.939.921 29.283.623 13.391-.543 26.882.559 40.111.67 5.289.044 11.57.176 10.729-6.79-.668-5.517-7.492-9.845-12.225-11.898-4.45-1.931-10.369-3.439-15.184-4.396-5.383-1.072-7.741-2.619-15.191-.961z" fill="#72C057"/><path d="M252.246 81.081c-10.38 13.886 21.358 8.601 23.22 15.949 1.958 7.73-23.85 4.331-26.518 4.311-5.552-.04-11.349-.458-16.876-.011-3.158.256-7.084 2.42-8.729-.854-5.148-10.253 21.577-18.52 28.903-19.395z" fill="#59A03F"/><path d="M137.586 86.685c-4.839-4.377-8.289-.56-12.166 2.49-4.459 3.509-5.33 1.638-10.143.853-6.26-1.021-9.482 3.255-11.658 8.653-2.857 7.091-1.039 6.954 6.184 7.076 15.15.255 30.452-.109 45.636.333 5.786.169 11.702-.528 17.479-.861 2.957-.17 7.057.148 9.829-.894 3.698-1.39 5.763-9.124 2.22-12.66-4.353-4.345-12.669-.477-17.637-1.102-5.146-.647-7.929-5.541-13.269-5.622-3.742-.057-14.286 7.303-16.475 1.734z" fill="#8082A6"/><path d="M152.241 88.409c-3.796 3.52-1.75 10.196-5.165 13.802-3.768 3.978-12.564 2.096-17.465 2.147-8.863.094-18.506 1.53-26.866-1.8-.281-5.119 4.562-9.838 9.38-10.94 5.428-1.243 8.738 3.761 14.818 1.541 4.539-1.658 7.191-4.071 12.238-4.319 5.819-.286 8.522 3.187 13.06-.431z" fill="#6A658C"/><path d="M503.08 241.772c-4.391-3.269-9.942-4.782-15.815-5.487-3.304-22.269-8.487-44.161-15.159-65.659-3.361-10.83-6.891-21.713-11.085-32.253-2.514-6.317-5.667-12.495-11.402-16.459-6.284-4.345-13.976-4.637-21.372-4.934.065-.157.133-.313.18-.485 1.589-5.794-.063-11.749-4.918-14.439 1.398-5.375-2.535-13.454-5.246-17.563-3.958-6.001-10.256-9.557-17.535-8.658-1.811.224-3.37.685-5.01 1.476-1.301.627-3.562 2.67-4.908 2.477-1.205-.172-3.166-2.586-4.327-3.219-1.589-.867-3.243-1.284-5.025-1.499-5.354-.646-10.489.948-13.685 4.812-5.751-2.301-12.191-3.075-17.021 1.771-4.355 4.37-5.365 11.188-4.686 17.291-1.963.344-3.852.857-5.529 1.689-6.396 3.168-6.225 11.414-3.649 17.467-4.903.096-9.809.186-14.714.257.201-.702.254-1.439.121-2.122-.82-4.257-2.074-9.999-5.288-13.097-2.375-2.29-5.167-2.98-8.12-3.154.891-9.852-10.252-19.065-19.443-19.862-2.23-.193-5.424 1.458-7.334 1.061-1.002-.209-2.383-2.187-3.18-2.809-1.248-.971-2.537-1.749-4.011-2.348-6.008-2.437-9.539.77-15.302 1.459-3.248.389-5.973-1.552-9.053-2.185-2.934-.602-5.796-.219-8.535.928-4.992 2.091-9.467 6.407-13.825 9.599-4.218 3.088-10.521 11.276-7.606 15.979-.941.24-1.855.535-2.721.918-6.999 3.094-6.699 10.766-3.734 16.659-4.606.502-11.738 1.546-14.09.104-6.26-3.84 1.959-13.154-5.146-17.41-1.126-.675-2.353-1.073-3.632-1.296-1.813-5.59-1.292-10.81-7.064-14.557-5.182-3.364-11.247-2.592-16.739-.285a52.19 52.19 0 0 0-.569.29 7.655 7.655 0 0 0-1.02-.462l-.906-.99c-2.33-1.991-4.063-3.455-7.298-3.749-2.724-.247-5.202.571-7.575 1.858-2.305 1.249-3.932 3.191-6.674 2.206-1.896-.682-3.296-2.461-5.262-3.159-2.226-.79-4.566-.79-6.842-.163-1.502.414-2.828 1.084-4.07 2-.854.629-1.969 2.602-2.895 2.873-1.453.425-4.85-1.313-7.063-1.276-9.774.16-17.042 7.506-16.291 16.506-3.74.503-7.356 1.771-9.945 4.667-5.732 6.411-.749 11.856 4.672 16.249-10.796.149-21.84.881-31.327 5.936-7.706 4.105-11.446 11.238-13.42 19.493-2.703 11.309-5.503 22.591-8.212 33.906-2.51 10.479-5.138 20.917-7.696 31.384-1.911 7.816-3.93 16.036-2.575 24.013a281.27 281.27 0 0 0-7.764.6c-5.692.523-11.797 1.331-16.262 5.248-4.248 3.726-5.825 9.118-6.575 14.54C.901 265.15-.606 272.77.256 280.078c1.761 14.929 15.582 17.973 28.42 18.44 2.044.074 4.092.123 6.141.151 1.66 9.181 1.041 18.818.695 28.056-.463 12.349-.127 24.702.039 37.056.141 10.5.263 20.972-.291 31.459-.408 7.743-.839 16.489 2.705 23.641 4.096 8.264 12.74 9.937 21.252 10.498 12.024.792 24.319-.032 36.369-.036 26.74-.008 53.424 1.498 80.132 2.637 54.876 2.341 109.78 4.33 164.712 4.613 27.039.139 54.08.096 81.119.139 10.129.016 20.283.421 30.408.322 8.206-.081 17.387-.797 24.372-5.563 9.491-6.476 10.809-18.101 9.633-28.651-1.532-13.746-1.597-27.361-2.026-41.179-.438-14.151-2.861-28.309-2.596-42.471.114-6.039 1.534-12.956-.039-18.927 12.183.123 24.416-1.131 28.143-15.232 3.267-12.374 5.347-34.54-6.364-43.259zM354.928 88.734c3.105-4.778 8.16-2.602 12.385-.377 2.417 1.272 4.912.084 5.826-2.37.902-2.423 4.918-2.927 7.109-2.537 2.562.456 3.856 2.426 5.94 3.727 5.604 3.496 8.933-.431 14.094-2.171 5.206-1.755 9.163 1.898 11.296 6.291 1.198 2.465 1.459 5.674 2.204 8.52-11.288-1.35-23.194-.577-34.376-1.136-7.143-.356-14.297-.68-21.449-.485-1.961.053-4.1.063-6.268.164.688-3.386 1.446-6.865 3.239-9.626zm-12.194 23.552c.1-4.192 1.014-4.917 5.33-5.477 10.336-1.338 20.979-.589 31.342-.013 10.259.571 20.549.629 30.798 1.324 2.38.161 8.095-.319 10.083 1.439-.912-.806-.384.957-.382 1.897.003 1.802.021 3.281.505 5.039.018.068.049.125.07.191-9.762-.334-19.53-.424-29.293-.083-16.295.57-32.59 1.038-48.889 1.385.448-1.816.389-3.743.436-5.702zM238.842 88.247c4.672-3.128 7.078-5.727 12.877-3.773 4.016 1.354 7.399 1.934 11.601.847 4.969-1.285 6.927-2.89 11.483.867 2.701 2.228 4.855 3.996 8.557 3.521 4.033-.518 6.195-1.46 10.049.904 3.59 2.203 5.721 5.31 5.951 9.419-13.426.149-26.857-.087-40.282.142-7.489.128-14.978.374-22.461.679-3.302.135-7.05-.061-10.68.17-1.268-6.532 8.104-9.561 12.905-12.776zm-18.635 23.959c1.467-3.48 7.443-2.42 10.807-2.58 11.96-.568 23.925-.941 35.898-.934 11.454.007 22.907.12 34.36.091 2.079-.006 4.749-.483 6.796-.11 3.322.604 3.47 2.152 3.939 5.126.307 1.932.686 3.448 1.462 4.667-25.153.29-50.308.295-75.462.48-6.1.045-12.201.107-18.302.181.059-2.373-.26-5.117.502-6.921zm-108.074-17.3c2.479-1.398 5.031-1.538 7.687-.677 1.719.558 3.166 1.509 5.071 1.334 4.285-.393 6.732-6.888 10.875-5.41 3.494 1.246 5.247 3.983 9.429 3.94 4.206-.043 6.775-3.881 10.503-4.299 2.586-.291 3.456 2.18 5.235 3.539 1.504 1.149 3.603 2.217 5.517 2.395 3.76.35 7.051-3.373 11.061-2.488 3.774.833 3.499 4.332 4.135 7.205.043.198.111.369.162.558-.576.051-1.143.094-1.694.121-17.079.822-34.235-.078-51.327.646-7.371.313-14.568-.091-21.912-.184 1.225-2.716 2.857-5.325 5.258-6.68zm-15.141 17.565c.674-1.939 5.531-2.301 6.969-2.377 4.785-.256 9.572.487 14.359.458 6.635-.042 13.257-.546 19.893-.582 12.951-.069 25.906.214 38.857.239 2.828.006 10.158-1.876 12.457-.389 1.397.905.69 3.533.801 5.267.105 1.627.432 3.1 1.063 4.524-5.188.125-10.373.26-15.559.431-22.969.757-45.936 2.198-68.912 2.641a282.23 282.23 0 0 1-3.346.042c-1.315-1.901-2.759-3.723-4.102-5.594-.602-.841-2.93-3.367-2.48-4.66zm-47.3 81.773c2.477-10.462 5.472-20.757 8.175-31.155 1.865-7.178 1.96-16.945 7.363-22.573 8.793-9.158 26.737-7.569 38.256-7.648 20.398-.14 40.815-1.484 61.199-2.229 44.619-1.63 89.279-1.302 133.92-1.678 22.328-.188 44.656-.492 66.977-1.105 22.139-.608 44.129-1.476 66.268-.245 8.278.46 13.75 2.635 17.595 10.251 4.947 9.802 7.901 21.048 11.099 31.517 6.631 21.708 11.932 43.882 15.453 66.313-2.992-.018-5.92.02-8.709.007.413-7.307-1.915-14.562-4.277-21.388-2.619-7.567-4.945-14.958-6.678-22.786-3.521-15.913-6.563-35.083-17.618-47.85-5.224-6.033-12.043-6.424-19.56-6.422-9.698.003-19.434-1.429-29.125-1.95-20.973-1.129-41.907-.721-62.889-.084-42.568 1.292-84.986-1.672-127.551 1.042a1892.23 1892.23 0 0 1-63.091 2.947c-8.177.249-16.327.736-24.509.538-6.824-.165-13.739-.339-20.461 1.064-17.807 3.717-22.483 22.102-26.254 37.643-2.427 10.004-4.949 19.89-8.088 29.702-3.037 9.496-5.792 18.718-6.849 28.557-3.881.135-7.767.278-11.652.468 3.138-14.424 7.607-28.571 11.006-42.936zm384.786 11.957c-1.042-2.651-2.523-4.635-4.309-6.111a3.839 3.839 0 0 0 1.111-2.535c.438-9.271-.928-17.66-8.988-23.323-7.424-5.214-17.42-6.441-25.018-1.405-7.133-4.381-18.118-3.829-24.262 1.629-1.726-.897-3.705-1.459-5.889-1.666-6.946-.655-14.408 1.569-18.418 7.61-2.848 4.289-3.753 10.292-1.797 15.133-9.264.66-14.287 7.588-12.736 17.037 1.234 7.517 5.335 17.068 11.453 22.901-5.186.087-10.369.172-15.553.244-4.121.057-8.24.057-12.359.037-.205-3.104-1.688-6.754-2.521-9.307-1.019-3.12-2.831-5.654-5.696-7.058-.324-10.903-10.521-17.109-20.684-17.298-2.339-.043-4.756.218-7.1.518a10.752 10.752 0 0 1-.459-.961c-.621-1.464-1.552-2.903-2.314-4.295-2.732-4.991-6.131-9.117-11.68-10.978-8.818-2.957-22.154-2.546-30.096 2.68-9.207 6.057-8.916 18.541-5.063 27.749-1.43.314-2.828.722-4.182 1.258-7.031 2.789-9.434 12.031-5.852 18.089-11.542-.134-23.074-.19-34.576-.176l-2.008-.002c5.186-10.565 8.516-25.25-.085-33.66-2.901-2.837-6.78-4.231-11.023-4.832-.403-4.395-2.194-10.097-4.212-13.668-2.646-4.684-6.995-8.589-12.146-10.267-3.218-1.047-6.65-.786-9.602-2.648-2.021-1.275-3.604-2.99-5.85-3.931-4.473-1.872-9.238-.813-13.067 1.946-2.159 1.557-4.073 3.901-6.741 4.614-2.224.595-4.662-.126-6.947.065-4.549.381-8.589 2.737-11.529 6.176-4.377 5.121-7.721 13.64-5.133 20.156-8.077 1.475-13.223 6.889-11.692 16.678.909 5.822 2.738 12.183 6.102 17.085.46.67 1.024 1.394 1.664 2.108-13.044.094-26.079.295-39.095.723 5.193-15.635 11.809-30.784 15.785-46.82 1.902-7.674 3.573-15.434 6.246-22.89 2.33-6.504 5.086-13.363 11.973-15.917 5.972-2.214 12.771-1.957 19.035-1.828 6.928.142 13.771.004 20.699-.236 19.521-.678 39.047-.885 58.534-2.331 19.423-1.44 38.886-2.322 58.364-2.358 19.777-.037 39.508 1.38 59.285 1.139 19.256-.235 38.5-1.299 57.762-1.169 9.834.067 19.669.407 29.484 1.002 8.606.522 17.236 1.78 25.857 1.785 4.032.002 8.56-.544 11.683 2.438 2.926 2.792 4.83 7.126 6.491 10.746 3.99 8.687 6.086 18.148 8.057 27.456 1.822 8.612 3.559 17.069 6.392 25.413 2.446 7.203 5.454 14.747 5.056 22.459-8.389-.272-16.781-.414-25.174-.49 5.177-8.177 5.788-21.163 2.823-28.714zm-76.571-1.013c4.8.375 9.606.684 14.417.897 9.186.407 18.618.944 27.801.325 5.973-.402 11.941-1.809 17.953-1.438 7.47.459 9.59 5.275 9.091 12.386-.269 3.809-1.396 7.582-3.098 10.987-1.146 2.291-2.739 4.267-3.908 6.501-7.876-.023-15.753-.008-23.627 0-14.722.016-29.44.261-44.158.512-2.197-8.015-7.528-15.048-9.114-23.306-.663-3.454-.787-6.647 3.173-7.445 3.631-.732 7.865.299 11.47.581zm-5.013-9.575c.512-3.792.658-7.916 3.041-10.987 2.684-3.457 10.707-5.526 14.229-2.27 2.377 2.2 1.943 7.077 2.274 10.005.187 1.647.418 3.318.875 4.88-6.808-.442-13.627-1.293-20.419-1.628zm25.158-16.374c7.003-.765 14.585-2.834 17.933 5.094 1.261 2.987 1.941 6.212 2.588 9.375.251 1.227.395 2.589.714 3.875-5.505.335-11.064.212-16.586.039-.69-2.298-1.694-4.339-2.046-6.82-.37-2.617-.41-5.304-1.085-7.872a14.707 14.707 0 0 0-1.518-3.691zm44.171 17.411c-4.265-.767-9.004-.478-13.455-.011-.18-2.753-1.57-5.908-2.287-8.157-1.26-3.946-2.482-8.415-4.973-11.807 5.644.115 11.084.6 16.01 4.048 2.661 1.862 5.138 4.676 5.263 8.103.104 2.844-.913 5.056-.558 7.824zm-179.405 29.057c10.299.268 20.442 2.428 30.744 2.803 5.646.206 11.297.098 16.938-.202 2.828-.15 5.65-.374 8.475-.58 1.318-.096 5.229-.894 6.508.155 1.204.987 1.283 3.916 1.653 5.332.224.854.446 1.671.7 2.442-14.691-.207-29.378-.63-44.066-.544-8.029.047-16.006.646-23.988 1.302-3.314-.065-6.628-.115-9.941-.165-.418-2.851-1.126-6.502.334-8.398 2.286-2.966 9.302-2.232 12.643-2.145zm-5.481-9.623c.751-3.185.956-6.254 1.202-9.755.307-4.367 1.328-8.688 5.66-10.568 6.615-2.872 20.496-4.539 25.039 2.459 4.026 6.2 3.958 14.883 13.265 14.294 3.899-.247 8.237-1.375 12.075-.121 2.842.929 4.234 3.144 5.354 5.617-3.568.185-7.196.796-10.488.966-8.032.414-16.102.435-24.116-.304-8.627-.792-18.723-3.198-27.991-2.588zm-130.522-6.899c6.506.102 12.937.27 19.45-.02 14.03-.624 28.138-2.248 42.188-2.161 6.461.039 11.409.748 12.215 8.146.825 7.576-3.062 14.27-6.271 20.807-22.624-.057-45.285-.284-67.934-.229-2.196-3.546-4.825-6.348-6.316-10.535-1.018-2.855-4.186-10.701-2.672-13.707 1.431-2.835 6.654-2.343 9.34-2.301zm-.719-9.678c.346-5.973 2.22-12.755 7.522-15.876 3.084-1.816 6.724-.623 10.065-1.498 3.626-.949 6.191-3.35 8.834-5.821 4.359-4.076 7.133-2.971 11.398.417 3.791 3.012 8.098 3.364 12.176 5.659 4.174 2.351 6.08 6.57 6.988 11.043.26 1.27.485 2.571.827 3.798-4.448.259-8.782.806-12.394.998-15.209.81-30.209 1.422-45.416 1.28zm364.742 221.829c-5.51 4.813-14.973 4.425-21.801 4.371-9.918-.079-19.824-.228-29.746-.206-25.535.057-51.073.168-76.609.083-50.412-.168-100.807-1.79-151.174-3.815-25.04-1.007-50.096-2.543-75.15-3.052-12.392-.251-24.785-.132-37.178-.108-5.066.009-10.134.205-15.198.166-4.319-.033-10.985.358-14.687-2.319-5.563-4.026-3.928-16.067-3.691-21.863.465-11.352.076-22.714-.167-34.069-.267-12.463-.458-24.899-.302-37.363.104-8.247.013-16.573-2.119-24.48 11.461-.087 22.967-.574 34.377-.565 88.273.068 176.547.217 264.82.177 22.105-.01 44.224-.263 66.326-.007 11.024.129 22.044.5 33.063.883 5.676.197 11.352.397 17.029.568 3.24.098 7.318-.91 10.291.805 3.102 1.79 1.475 7.367 1.303 10.443-.23 4.162-.561 8.231-.445 12.407.33 12.041 1.985 23.999 2.423 36.037.425 11.678-.131 23.541 1.172 35.166.893 7.981 4.586 20.516-2.537 26.741zm27.048-137.097c-2.341 5.562-9.126 4.752-14.192 4.75-19.902-.008-39.789-1.023-59.681-1.56-20.5-.554-41.011-.309-61.517-.275-81.506.13-163.014.083-244.52.068-20.294-.003-40.587-.005-60.881-.001-12.274.002-25.656 2.198-37.701-.654-6.346-1.501-8.42-4.39-8.31-11.04.103-6.151.869-13.245 2.458-19.204 1.207-4.523 3.715-5.853 8.177-6.616 8.72-1.49 17.938-1.272 26.759-1.675 40.289-1.838 80.713-1.426 121.037-1.878 20.43-.229 40.876-.597 61.305-.154 19.539.423 39.123 1.505 58.654.372.77.02 1.537.054 2.305.068 20.656.38 41.317-.022 61.97-.365 39.929-.663 79.841-.683 119.745.945 5.826.238 11.793.12 17.473 1.611 6.825 1.793 8.304 5.798 8.979 12.598.707 7.118.767 16.29-2.06 23.01z"/><path d="M431.232 309.234c-8.092-1.474-16.311-1.484-24.53-1.504-15.159-1.212-30.524-.757-45.925-1.118-30.215-.71-60.38-3.176-90.604-3.916-30.855-.756-61.726-.135-92.583.128-15.589.133-31.189-.055-46.77.487-6.836.237-13.669.563-20.504.829-7.029.272-14.161-.2-21.143.787-7.922 1.12-18.91 5.772-16.414 15.746 2.309 9.223 11.851 11.198 20.113 11.149 28.316-.168 56.586-2.593 84.88-3.515 30.386-.991 60.747 1.252 91.142 1.233 30.297-.019 60.492.278 90.761 1.694 16.979.794 33.952 1.709 50.927 2.565 11.135.561 29.069 5.369 36.742-5.898 7.57-11.12-7.67-17.133-16.092-18.667zm-2.082 17.896c-12.424-.242-24.953-1.516-37.385-2.099-13.285-.622-26.572-1.239-39.862-1.766-26.95-1.068-53.829-1.058-80.794-.8-26.662.255-53.294-1.449-79.935-1.069-26.854.382-53.628 2.79-80.472 3.438-5.031.122-10.055.213-15.084.39-4.116.145-9.18.522-12.904-1.577-7.193-4.054-2.17-9.749 3.473-11.44 6.074-1.82 12.687-1.216 18.938-1.33 26.428-.479 52.816-1.312 79.258-1.568 27.471-.266 54.952-.761 82.422-.167 30.033.65 60.002 2.795 90.021 3.665 11.002.319 22.02-.694 33.012.097 10.025.721 20.116 1.212 30.17 2.157 5.889.553 12.649 1.391 17.934 4.299 8.486 4.67-4.562 7.852-8.792 7.77zm.288 18.334c-8.092-1.474-16.31-1.483-24.53-1.505-15.16-1.211-30.523-.756-45.926-1.118-30.213-.71-60.378-3.176-90.604-3.916-30.854-.756-61.726-.135-92.584.128-15.588.133-31.188-.055-46.77.487-6.834.238-13.668.564-20.502.829-7.03.273-14.162-.2-21.143.787-7.923 1.12-18.911 5.772-16.415 15.745 2.31 9.223 11.851 11.198 20.112 11.149 28.318-.168 56.586-2.593 84.881-3.516 30.385-.99 60.748 1.252 91.142 1.234 30.297-.018 60.491.278 90.761 1.694 16.979.794 33.951 1.709 50.927 2.565 11.136.561 29.069 5.37 36.742-5.898 7.573-11.118-7.668-17.131-16.091-18.665zm-2.081 17.895c-12.424-.242-24.954-1.516-37.385-2.098-13.286-.622-26.573-1.24-39.863-1.767-26.951-1.068-53.828-1.058-80.795-.799-26.661.255-53.293-1.449-79.934-1.07-26.854.382-53.627 2.79-80.471 3.438-5.033.121-10.056.212-15.084.39-4.117.145-9.18.522-12.905-1.577-7.192-4.054-2.17-9.749 3.473-11.44 6.073-1.82 12.687-1.216 18.938-1.329 26.429-.48 52.816-1.312 79.259-1.568 27.471-.266 54.951-.761 82.42-.167 30.035.651 60.002 2.795 90.021 3.665 10.84.314 21.684.224 32.525.17 10.155-.05 20.494 1.129 30.657 2.083 5.888.553 12.649 1.392 17.933 4.3 8.487 4.671-4.56 7.852-8.789 7.769zm.287 18.335c-8.092-1.474-16.311-1.484-24.531-1.505-15.158-1.211-30.522-.756-45.924-1.118-30.215-.71-60.379-3.176-90.604-3.916-30.855-.756-61.727-.135-92.584.128-15.589.133-31.188-.055-46.77.486-6.836.238-13.669.564-20.504.83-7.029.273-14.162-.2-21.142.787-7.923 1.12-18.911 5.772-16.415 15.745 2.309 9.223 11.85 11.198 20.113 11.149 28.317-.168 56.586-2.593 84.881-3.516 30.385-.99 60.746 1.252 91.141 1.233 30.297-.018 60.492.278 90.762 1.694 16.979.794 33.951 1.709 50.926 2.564 11.135.562 29.069 5.37 36.742-5.897 7.573-11.117-7.669-17.13-16.091-18.664zm-2.082 17.896c-12.424-.242-24.953-1.516-37.385-2.098-13.285-.622-26.572-1.24-39.863-1.767-26.949-1.068-53.828-1.058-80.793-.799-26.662.255-53.295-1.449-79.935-1.07-26.854.382-53.626 2.79-80.472 3.438-5.031.121-10.055.212-15.084.39-4.115.145-9.18.522-12.904-1.577-7.193-4.054-2.17-9.75 3.473-11.44 6.074-1.82 12.687-1.216 18.938-1.329 26.428-.48 52.816-1.312 79.258-1.568 27.471-.267 54.952-.761 82.422-.167 30.033.651 60.001 2.795 90.021 3.665 10.742.312 21.488-.363 32.231-.037 10.278.313 20.71 1.329 30.95 2.29 5.889.553 12.649 1.392 17.934 4.3 8.487 4.67-4.561 7.851-8.791 7.769z"/></svg>