<svg viewBox="-34 0 511 511.999" xmlns="http://www.w3.org/2000/svg"><path d="m294.007812 147.253906h-239.566406l37.40625 322.921875c.59375 5.113281 4.78125 8.960938 9.75 8.960938h145.25c4.972656 0 9.160156-3.847657 9.75-8.960938zm0 0" fill="#f3e8d7"/><path d="m102.351562 151.566406h-47.414062l36.910156 318.609375c.59375 5.113281 4.78125 8.960938 9.75 8.960938h22.867188zm0 0" fill="#fc4e51"/><path d="m157.636719 479.136719h33.171875l7.371094-327.570313h-47.914063zm0 0" fill="#fc4e51"/><path d="m293.507812 151.566406h-47.414062l-22.113281 327.570313h22.867187c4.972656 0 9.160156-3.847657 9.75-8.960938zm0 0" fill="#ea3942"/><path d="m269.179688 101.847656h-189.910157c-2.703125 0-5.035156 1.964844-5.582031 4.710938l-8.722656 43.792968h218.515625l-8.722657-43.792968c-.542968-2.746094-2.875-4.710938-5.578124-4.710938zm0 0" fill="#f3e8d7"/><path d="m212.304688 117.902344h-140.875l-6.460938 32.449218h214.246094l3.546875-3.617187-8.003907-40.175781c-.542968-2.746094-2.875-4.710938-5.578124-4.710938h-52.519532l1.765625 8.59375c.769531 3.863282-2.183593 7.460938-6.121093 7.460938zm0 0" fill="#ddd1c3"/><path d="m301.039062 171.546875h-253.628906c-4.714844 0-8.539062-3.824219-8.539062-8.539063v-23.347656c0-4.714844 3.824218-8.535156 8.539062-8.535156h253.628906c4.714844 0 8.535157 3.820312 8.535157 8.535156v23.347656c0 4.714844-3.820313 8.539063-8.535157 8.539063zm0 0" fill="#f3e8d7"/><path d="m301.039062 131.121094h-50.023437v19.472656c0 5.824219-4.71875 10.542969-10.542969 10.542969h-193.0625c-4.714844 0-8.539062-3.824219-8.539062-8.539063v10.410156c0 4.714844 3.824218 8.539063 8.539062 8.539063h253.628906c4.714844 0 8.535157-3.824219 8.535157-8.539063v-23.347656c0-4.714844-3.820313-8.539062-8.535157-8.539062zm0 0" fill="#ddd1c3"/><path d="m392.335938 383.324219h-195.976563c-6.734375 0-12.191406 5.457031-12.191406 12.191406v22.863281h220.359375v-22.863281c0-6.734375-5.457032-12.191406-12.191406-12.191406zm0 0" fill="#912c2c"/><path d="m392.335938 383.324219h-58.558594c6.730468 0 12.191406 5.457031 12.191406 12.191406v22.863281h58.558594v-22.863281c0-6.734375-5.457032-12.191406-12.191406-12.191406zm0 0" fill="#7c1e1e"/><path d="m407.238281 417.269531h-225.871093c-5.511719 0-9.980469 4.46875-9.980469 9.980469 0 28.65625 23.230469 51.886719 51.886719 51.886719h142.0625c28.65625 0 51.882812-23.230469 51.882812-51.886719 0-5.511719-4.46875-9.980469-9.980469-9.980469zm0 0" fill="#efa335"/><path d="m407.238281 417.269531h-48.578125v19.960938c0 23.144531-18.761718 41.90625-41.90625 41.90625h48.582032c28.652343 0 51.882812-23.230469 51.882812-51.882813 0-5.515625-4.46875-9.984375-9.980469-9.984375zm0 0" fill="#fd8f31"/><path d="m179.609375 360.199219c-5.488281 8.71875-.46875 28.4375 6.410156 28.4375h137.453125c2.234375 0 4.394532.800781 6.089844 2.253906l19.507812 16.714844c5.695313 4.882812 14.203126 4.515625 19.460938-.835938l15.0625-15.332031c1.757812-1.789062 4.164062-2.800781 6.675781-2.800781h12.019531c4.660157 0 9.03125-5.957031 9.03125-12.921875 0-5.957032-.644531-13.566406-1.757812-15.515625zm0 0" fill="#fccf3f"/><path d="m425.859375 476.429688h-407.234375c-5.847656 0-10.589844 4.738281-10.589844 10.585937v6.859375c0 5.847656 4.742188 10.589844 10.589844 10.589844h407.234375c5.847656 0 10.589844-4.742188 10.589844-10.589844v-6.859375c0-5.847656-4.742188-10.585937-10.589844-10.585937zm0 0" fill="#a0796d"/><path d="m400.535156 338.035156c6.347656 0 11.699219 10.523438 11.703125 17.140625.003907 9.453125-10.769531 14.453125-23.285156 12.621094-11.6875-1.710937-11.835937-7.089844-23.671875-7.089844-11.839844 0-11.839844 7.089844-23.675781 7.089844-11.839844 0-11.839844-7.089844-23.675781-7.089844-11.835938 0-11.835938 7.089844-23.675782 7.089844-11.835937 0-11.835937-7.089844-23.671875-7.089844-11.839843 0-11.839843 7.089844-23.675781 7.089844-11.839844 0-11.839844-7.089844-23.675781-7.089844-11.835938 0-11.984375 5.378907-23.675781 7.089844-12.515626 1.832031-23.289063-3.167969-23.28125-12.621094.003906-6.617187 5.355468-17.140625 11.703124-17.140625zm0 0" fill="#a0e557"/><path d="m294.304688 247.644531c-114.445313.042969-122.917969 75.539063-122.917969 86.230469 0 5.511719 4.46875 9.980469 9.980469 9.980469h225.871093c5.511719 0 9.980469-4.46875 9.980469-9.980469 0-10.691406-8.472656-86.1875-122.914062-86.230469zm0 0" fill="#efa335"/><path d="m294.304688 247.644531c-10.652344.003907-20.386719.664063-29.28125 1.863281 86.664062 11.675782 93.636718 74.667969 93.636718 84.367188 0 5.511719-4.46875 9.980469-9.980468 9.980469h58.5625c5.511718 0 9.976562-4.46875 9.976562-9.980469 0-10.691406-8.472656-86.1875-122.914062-86.230469zm0 0" fill="#fd8f31"/><path d="m407.238281 343.855469h-54.480469v20.804687c3.207032-1.898437 6.148438-3.953125 12.523438-3.953125 11.835938 0 11.984375 5.378907 23.671875 7.089844 10.359375 1.515625 19.519531-1.652344 22.367187-8.144531v-9.875c-.644531-2.074219-1.605468-4.175782-2.792968-6.015625-.421875.054687-.851563.09375-1.289063.09375zm0 0" fill="#93cc4a"/><path d="m388.957031 367.796875c-11.691406-1.710937-11.839843-7.089844-23.675781-7.089844-6.371094 0-9.316406 2.054688-12.519531 3.953125v45.230469c5.265625 2.246094 11.558593 1.167969 15.773437-3.121094l15.058594-15.332031c1.761719-1.789062 4.164062-2.800781 6.675781-2.800781h12.019531c4.660157 0 9.03125-5.957031 9.03125-12.921875 0-4.898438-.4375-10.90625-1.210937-13.976563-3.742187 5.066407-11.976563 7.402344-21.152344 6.058594zm0 0" fill="#efc03c"/><path d="m425.859375 468.890625h-18.117187c10.664062-10.859375 17.015624-25.679687 17.015624-41.636719 0-7.988281-5.375-14.726562-12.695312-16.828125v-14.910156c0-1.078125-.09375-2.140625-.261719-3.1875 4.230469-3.75 7.054688-9.855469 7.054688-16.609375 0-3.621094-.226563-8.609375-.824219-12.632812 1.140625-2.4375 1.746094-5.113282 1.742188-7.910157 0-2.445312-.476563-5.160156-1.332032-7.847656 3.855469-3.21875 6.316406-8.050781 6.316406-13.453125 0-9.359375-3.84375-30.28125-18.242187-49.324219-2.507813-3.320312-7.234375-3.976562-10.554687-1.464843-3.320313 2.511718-3.976563 7.238281-1.46875 10.558593 15.015624 19.855469 15.191406 40.027344 15.191406 40.230469 0 1.347656-1.097656 2.441406-2.445313 2.441406h-225.871093c-1.347657 0-2.441407-1.09375-2.441407-2.441406 0-.214844.191407-21.847656 16.851563-42.355469 10.796875-13.289062 25.730468-22.960937 44.625-28.96875.636718-.113281 1.246094-.304687 1.820312-.566406 11.855469-3.578125 25.222656-5.75 40.082032-6.5h.046874c.246094 0 .492188-.011719.734376-.035156 3.652343-.171875 7.382812-.265625 11.214843-.269531 31.019531.011718 56.527344 5.753906 75.816407 17.066406 3.589843 2.105468 8.207031.902344 10.3125-2.6875 2.105468-3.589844.902343-8.207032-2.6875-10.3125-21.628907-12.6875-49.703126-19.125-83.441407-19.140625-1.164062 0-2.316406.015625-3.464843.03125l7.070312-61.054688h3.132812c8.859376 0 16.070313-7.214843 16.070313-16.078125v-23.34375c0-8.863281-7.210937-16.074218-16.070313-16.074218h-15.207031l-3.683593-18.5c-1.242188-6.242188-6.695313-10.777344-12.972657-10.777344h-86.949219v-61.933594c0-.765625.421876-1.457031 1.019532-1.679688l43.355468-16.089843c3.902344-1.449219 5.890626-5.785157 4.441407-9.6875-1.445313-3.902344-5.789063-5.894531-9.6875-4.445313l-43.367188 16.097656c-6.480469 2.417969-10.835937 8.769532-10.835937 15.804688v61.933594h-87.882813c-6.273437 0-11.730469 4.535156-12.972656 10.777344l-3.683594 18.5h-15.203125c-8.863281 0-16.074218 7.210937-16.074218 16.074218v23.347656c0 8.863282 7.210937 16.074219 16.074218 16.074219h3.128906l33.574219 289.808594h-65.488281c-9.996094 0-18.125 8.132813-18.125 18.125v6.859375c0 9.992188 8.128906 18.125 18.125 18.125h407.234375c9.996094 0 18.125-8.132812 18.125-18.125v-6.859375c0-9.992187-8.128906-18.125-18.125-18.125zm-241.257813-117.5h219.308594c.515625 1.464844.789063 2.839844.789063 3.792969.003906 1.164062-.402344 2.015625-1.359375 2.839844-1.945313 1.683593-6.59375 3.296874-13.292969 2.316406-4.070313-.59375-6.066406-1.652344-8.597656-2.992188-3.511719-1.859375-7.882813-4.175781-16.171875-4.175781-8 0-12.453125 2.667969-15.707032 4.617187-2.578124 1.542969-4.132812 2.472657-7.964843 2.472657-3.835938 0-5.390625-.929688-7.96875-2.472657-3.25-1.949218-7.703125-4.617187-15.707031-4.617187-8.003907 0-12.457032 2.667969-15.710938 4.617187-2.574219 1.542969-4.128906 2.472657-7.964844 2.472657-3.835937 0-5.390625-.929688-7.964844-2.472657-3.253906-1.949218-7.707031-4.617187-15.710937-4.617187s-12.457031 2.667969-15.710937 4.617187c-2.574219 1.542969-4.128907 2.472657-7.964844 2.472657-3.835938 0-5.386719-.929688-7.964844-2.472657-3.253906-1.949218-7.707031-4.617187-15.710938-4.617187-8.285156 0-12.65625 2.316406-16.167968 4.175781-2.53125 1.339844-4.53125 2.398438-8.597656 2.992188-6.703126.980468-11.347657-.632813-13.292969-2.316406-.238281-.207032-.441407-.414063-.613281-.628907-.003907 0-.003907 0-.003907-.003906-.515625-.640625-.746093-1.335937-.746093-2.210937.007812-.949219.28125-2.324219.796874-3.789063zm205.667969 29.710937c-4.503906 0-8.898437 1.84375-12.050781 5.054688l-15.0625 15.332031c-2.472656 2.515625-6.503906 2.6875-9.183594.394531l-19.507812-16.71875c-3.058594-2.617187-6.964844-4.0625-10.992188-4.0625h-135.949218c-.671876-1.019531-1.6875-3.203124-2.28125-6.4375-.011719-.046874-.015626-.09375-.023438-.140624 4.621094 1.261718 9.890625 1.539062 15.429688.730468 6.640624-.972656 10.425781-2.976562 13.464843-4.585937 2.855469-1.511719 4.574219-2.421875 9.117188-2.421875 3.835937 0 5.390625.929687 7.964843 2.472656 3.253907 1.949219 7.707032 4.617188 15.710938 4.617188s12.457031-2.667969 15.710938-4.617188c2.574218-1.542969 4.128906-2.472656 7.964843-2.472656 3.832031 0 5.386719.929687 7.964844 2.472656 3.253906 1.949219 7.707031 4.617188 15.710937 4.617188 8 0 12.457032-2.667969 15.707032-4.617188 2.578125-1.542969 4.132812-2.472656 7.96875-2.472656 3.832031 0 5.386718.929687 7.964844 2.472656 3.25 1.949219 7.707031 4.617188 15.707031 4.617188 8.003906 0 12.457031-2.667969 15.710937-4.617188 2.574219-1.542969 4.128906-2.472656 7.964844-2.472656 4.542969 0 6.265625.910156 9.117188 2.421875 3.039062 1.609375 6.824218 3.613281 13.46875 4.585937 2.105468.308594 4.175781.460938 6.183593.460938 3.457031 0 6.726563-.472656 9.722657-1.34375.007812.445312.011718.894531.011718 1.34375 0 2.851562-1.273437 4.824218-1.964844 5.386718zm6.722657 15.074219v13.558594h-20.804688l12.785156-13.015625c.335938-.347656.8125-.542969 1.296875-.542969zm-57.019532 13.558594h-148.269531v-13.558594h131.769531c.4375 0 .859375.15625 1.1875.4375zm-158.605468 15.070313h225.875c1.34375 0 2.441406 1.097656 2.441406 2.445312 0 18.675781-11.65625 35.261719-29.117188 41.640625h-172.523437c-17.464844-6.378906-29.117188-22.960937-29.117188-41.640625 0-1.347656 1.09375-2.445312 2.441407-2.445312zm-.5 44.085937h-15.921876l-.808593-35.917969c1.320312 13.753906 7.351562 26.367188 16.730469 35.917969zm6.9375-191.175781c-1.277344 1.398437-2.527344 2.824218-3.722657 4.296875-15.96875 19.65625-20.230469 41.847656-20.230469 51.863281 0 5.363281 2.429688 10.167969 6.242188 13.386719-.867188 2.710937-1.355469 5.449219-1.355469 7.910156-.003906 2.792969.597657 5.46875 1.738281 7.90625-2.078124 9.179687.4375 20.316406 4.546876 26.453125.628906.9375 1.28125 1.734375 1.941406 2.433594-.214844 1.164062-.335938 2.347656-.335938 3.550781v14.886719c-6.761718 1.90625-11.875 7.761718-12.664062 14.914062l-5.542969-246.234375h31.597656zm44.128906-28.246094c-10.726563 3.761719-20.3125 8.652344-28.746094 14.664062l1.910156-85.050781h31.585938zm43.648437-8.660156c-10.035156.769531-19.453125 2.175781-28.242187 4.214844l4.449218-65.941407h30.945313zm-228.171875-76.800782c-.554687 0-1.003906-.449218-1.003906-1v-23.347656c0-.550781.449219-1 1.003906-1h47.039063c4.164062 0 7.535156-3.375 7.535156-7.535156 0-4.164062-3.371094-7.539062-7.535156-7.539062h-16.46875l2.828125-14.203126h186.828125l2.828125 14.203126h-140.949219c-4.164063 0-7.535156 3.375-7.535156 7.539062 0 4.160156 3.371093 7.535156 7.535156 7.535156h171.523437c.550782 0 1 .449219 1 1v23.347656c0 .550782-.449218 1-1 1zm102.457032 304.882813h-18.539063l-19.5625-289.808594h31.582031zm-84.152344-289.808594h30.941406l19.5625 289.808594h-16.933594zm363.195312 314.792969c0 1.683594-1.367187 3.050781-3.050781 3.050781h-407.234375c-1.683594 0-3.050781-1.367187-3.050781-3.050781v-6.859375c0-1.679687 1.367187-3.050781 3.050781-3.050781h407.234375c1.683594 0 3.054687 1.371094 3.054687 3.050781v6.859375zm0 0"/></svg>