<svg viewBox="-34 0 511 511.999" xmlns="http://www.w3.org/2000/svg"><path d="M294.008 147.254H54.44l37.407 322.922c.593 5.113 4.78 8.96 9.75 8.96h145.25c4.972 0 9.16-3.847 9.75-8.96zm0 0" fill="#f3e8d7"/><path d="M102.352 151.566H54.937l36.91 318.61c.594 5.113 4.782 8.96 9.75 8.96h22.868zm55.285 327.57h33.172l7.37-327.57h-47.913zm0 0" fill="#fc4e51"/><path d="M293.508 151.566h-47.414l-22.114 327.57h22.868c4.972 0 9.16-3.847 9.75-8.96zm0 0" fill="#ea3942"/><path d="M269.18 101.848H79.27c-2.704 0-5.036 1.965-5.582 4.71l-8.723 43.794H283.48l-8.722-43.793c-.543-2.746-2.875-4.711-5.578-4.711zm0 0" fill="#f3e8d7"/><path d="M212.305 117.902H71.43l-6.461 32.45h214.246l3.547-3.618-8.004-40.175c-.543-2.746-2.875-4.711-5.578-4.711h-52.52l1.766 8.593c.77 3.864-2.184 7.461-6.121 7.461zm0 0" fill="#ddd1c3"/><path d="M301.04 171.547H47.41a8.54 8.54 0 0 1-8.539-8.54V139.66c0-4.715 3.824-8.535 8.54-8.535h253.628a8.534 8.534 0 0 1 8.535 8.535v23.348c0 4.715-3.82 8.539-8.535 8.539zm0 0" fill="#f3e8d7"/><path d="M301.04 131.121h-50.024v19.473c0 5.824-4.72 10.543-10.543 10.543H47.41a8.54 8.54 0 0 1-8.539-8.54v10.41a8.54 8.54 0 0 0 8.54 8.54h253.628c4.715 0 8.535-3.824 8.535-8.54V139.66c0-4.715-3.82-8.539-8.535-8.539zm0 0" fill="#ddd1c3"/><path d="M392.336 383.324H196.359c-6.734 0-12.191 5.457-12.191 12.192v22.863h220.36v-22.863c0-6.735-5.458-12.192-12.192-12.192zm0 0" fill="#912c2c"/><path d="M392.336 383.324h-58.559c6.73 0 12.192 5.457 12.192 12.192v22.863h58.558v-22.863c0-6.735-5.457-12.192-12.191-12.192zm0 0" fill="#7c1e1e"/><path d="M407.238 417.27h-225.87c-5.513 0-9.981 4.468-9.981 9.98 0 28.656 23.23 51.887 51.886 51.887h142.063c28.656 0 51.883-23.23 51.883-51.887 0-5.512-4.469-9.98-9.98-9.98zm0 0" fill="#efa335"/><path d="M407.238 417.27H358.66v19.96c0 23.145-18.762 41.907-41.906 41.907h48.582c28.652 0 51.883-23.23 51.883-51.883 0-5.516-4.469-9.984-9.98-9.984zm0 0" fill="#fd8f31"/><path d="M179.61 360.2c-5.489 8.718-.47 28.437 6.41 28.437h137.453c2.234 0 4.394.8 6.09 2.254l19.507 16.714c5.696 4.883 14.203 4.516 19.461-.835l15.063-15.333a9.363 9.363 0 0 1 6.676-2.8h12.02c4.66 0 9.03-5.957 9.03-12.922 0-5.957-.644-13.567-1.757-15.516zm0 0" fill="#fccf3f"/><path d="M425.86 476.43H18.624c-5.848 0-10.59 4.738-10.59 10.586v6.859c0 5.848 4.742 10.59 10.59 10.59h407.234c5.848 0 10.59-4.742 10.59-10.59v-6.86c0-5.847-4.742-10.585-10.59-10.585zm0 0" fill="#a0796d"/><path d="M400.535 338.035c6.348 0 11.7 10.524 11.703 17.14.004 9.454-10.77 14.454-23.285 12.622-11.687-1.711-11.836-7.09-23.672-7.09-11.84 0-11.84 7.09-23.676 7.09-11.84 0-11.84-7.09-23.675-7.09-11.836 0-11.836 7.09-23.676 7.09-11.836 0-11.836-7.09-23.672-7.09-11.84 0-11.84 7.09-23.676 7.09-11.84 0-11.84-7.09-23.676-7.09-11.835 0-11.984 5.379-23.675 7.09-12.516 1.832-23.29-3.168-23.282-12.621.004-6.617 5.356-17.14 11.704-17.14zm0 0" fill="#a0e557"/><path d="M294.305 247.645c-114.446.042-122.918 75.539-122.918 86.23 0 5.512 4.468 9.98 9.98 9.98h225.871c5.512 0 9.98-4.468 9.98-9.98 0-10.691-8.472-86.188-122.913-86.23zm0 0" fill="#efa335"/><path d="M294.305 247.645c-10.653.003-20.387.664-29.282 1.863 86.664 11.676 93.637 74.668 93.637 84.367 0 5.512-4.469 9.98-9.98 9.98h58.562c5.512 0 9.977-4.468 9.977-9.98 0-10.691-8.473-86.188-122.914-86.23zm0 0" fill="#fd8f31"/><path d="M407.238 343.855h-54.48v20.805c3.207-1.898 6.148-3.953 12.523-3.953 11.836 0 11.985 5.379 23.672 7.09 10.36 1.516 19.52-1.652 22.367-8.145v-9.875a24.914 24.914 0 0 0-2.793-6.015c-.422.054-.851.093-1.289.093zm0 0" fill="#93cc4a"/><path d="M388.957 367.797c-11.691-1.711-11.84-7.09-23.676-7.09-6.37 0-9.316 2.055-12.52 3.953v45.23c5.266 2.247 11.56 1.169 15.774-3.12l15.059-15.333a9.37 9.37 0 0 1 6.676-2.8h12.02c4.66 0 9.03-5.957 9.03-12.922 0-4.899-.437-10.906-1.21-13.977-3.743 5.067-11.977 7.403-21.153 6.059zm0 0" fill="#efc03c"/><path d="M425.86 468.89h-18.118a59.357 59.357 0 0 0 17.016-41.636c0-7.988-5.375-14.727-12.695-16.828v-14.91c0-1.079-.094-2.141-.262-3.188 4.23-3.75 7.054-9.855 7.054-16.61 0-3.62-.226-8.609-.824-12.632a18.522 18.522 0 0 0 1.742-7.91c0-2.446-.476-5.16-1.332-7.848 3.856-3.219 6.317-8.05 6.317-13.453 0-9.36-3.844-30.281-18.242-49.324a7.532 7.532 0 0 0-10.555-1.465 7.541 7.541 0 0 0-1.469 10.559c15.016 19.855 15.192 40.027 15.192 40.23a2.446 2.446 0 0 1-2.446 2.441h-225.87a2.442 2.442 0 0 1-2.442-2.441c0-.215.191-21.848 16.851-42.355 10.797-13.29 25.73-22.961 44.625-28.97a7.587 7.587 0 0 0 1.82-.566c11.856-3.578 25.223-5.75 40.083-6.5h.047c.246 0 .492-.011.734-.035 3.652-.172 7.383-.265 11.215-.27 31.02.012 56.527 5.755 75.816 17.067a7.536 7.536 0 0 0 7.625-13c-21.629-12.687-49.703-19.125-83.441-19.14-1.164 0-2.317.015-3.465.03l7.07-61.054h3.133c8.86 0 16.07-7.215 16.07-16.078V139.66c0-8.863-7.21-16.074-16.07-16.074h-15.207l-3.684-18.5c-1.242-6.242-6.695-10.777-12.972-10.777h-86.95V32.375c0-.766.422-1.457 1.02-1.68l43.356-16.09a7.535 7.535 0 0 0 4.441-9.687 7.537 7.537 0 0 0-9.688-4.445L177.988 16.57c-6.48 2.418-10.836 8.77-10.836 15.805v61.934H79.27c-6.274 0-11.73 4.535-12.973 10.777l-3.684 18.5H47.41c-8.863 0-16.074 7.21-16.074 16.074v23.348c0 8.863 7.21 16.074 16.074 16.074h3.13l33.573 289.809H18.625C8.629 468.89.5 477.023.5 487.016v6.859C.5 503.867 8.629 512 18.625 512h407.234c9.996 0 18.125-8.133 18.125-18.125v-6.86c0-9.992-8.129-18.124-18.125-18.124zm-241.258-117.5H403.91c.516 1.465.79 2.84.79 3.794.003 1.164-.403 2.015-1.36 2.84-1.945 1.683-6.594 3.296-13.293 2.316-4.07-.594-6.067-1.652-8.598-2.992-3.512-1.86-7.883-4.176-16.172-4.176-8 0-12.453 2.668-15.707 4.617-2.578 1.543-4.133 2.473-7.965 2.473-3.835 0-5.39-.93-7.968-2.473-3.25-1.95-7.703-4.617-15.707-4.617-8.004 0-12.457 2.668-15.711 4.617-2.574 1.543-4.13 2.473-7.965 2.473-3.836 0-5.39-.93-7.965-2.473-3.254-1.95-7.707-4.617-15.71-4.617s-12.458 2.668-15.712 4.617c-2.574 1.543-4.129 2.473-7.965 2.473-3.836 0-5.386-.93-7.965-2.473-3.253-1.95-7.707-4.617-15.71-4.617-8.286 0-12.657 2.316-16.168 4.176-2.532 1.34-4.532 2.398-8.598 2.992-6.703.98-11.348-.633-13.293-2.317a4.857 4.857 0 0 1-.613-.628c-.004 0-.004 0-.004-.004-.516-.641-.746-1.336-.746-2.211.007-.95.28-2.325.797-3.79zm205.668 29.712a16.993 16.993 0 0 0-12.051 5.054l-15.063 15.332c-2.472 2.516-6.504 2.688-9.183.395l-19.508-16.719a16.927 16.927 0 0 0-10.992-4.062h-135.95c-.671-1.02-1.687-3.204-2.28-6.438-.013-.047-.016-.094-.024-.14 4.62 1.261 9.89 1.538 15.43.73 6.64-.973 10.425-2.977 13.464-4.586 2.856-1.512 4.575-2.422 9.117-2.422 3.836 0 5.391.93 7.965 2.473 3.254 1.949 7.707 4.617 15.711 4.617s12.457-2.668 15.711-4.617c2.574-1.543 4.13-2.473 7.965-2.473 3.832 0 5.387.93 7.965 2.473 3.254 1.949 7.707 4.617 15.71 4.617 8 0 12.458-2.668 15.708-4.617 2.578-1.543 4.133-2.473 7.969-2.473 3.832 0 5.386.93 7.964 2.473 3.25 1.949 7.707 4.617 15.707 4.617 8.004 0 12.458-2.668 15.711-4.617 2.575-1.543 4.13-2.473 7.965-2.473 4.543 0 6.266.91 9.117 2.422 3.04 1.61 6.825 3.613 13.47 4.586a42.7 42.7 0 0 0 6.183.46c3.457 0 6.726-.472 9.722-1.343.008.445.012.895.012 1.344 0 2.851-1.273 4.824-1.965 5.387zm6.722 15.074v13.558h-20.804l12.785-13.015a1.814 1.814 0 0 1 1.297-.543zm-57.02 13.558H191.704v-13.558h131.77c.437 0 .859.156 1.187.437zm-158.605 15.07h225.875a2.448 2.448 0 0 1 2.442 2.446 44.3 44.3 0 0 1-29.118 41.64H208.043a44.291 44.291 0 0 1-29.117-41.64 2.446 2.446 0 0 1 2.441-2.445zm-.5 44.087h-15.922l-.808-35.918a59.337 59.337 0 0 0 16.73 35.918zm6.938-191.176a97.434 97.434 0 0 0-3.723 4.297c-15.969 19.656-20.23 41.847-20.23 51.863 0 5.363 2.43 10.168 6.242 13.387-.867 2.71-1.356 5.449-1.356 7.91a18.514 18.514 0 0 0 1.739 7.906c-2.079 9.18.437 20.317 4.546 26.453a18.673 18.673 0 0 0 1.942 2.434 19.53 19.53 0 0 0-.336 3.55v14.887c-6.762 1.907-11.875 7.762-12.664 14.914l-5.543-246.234h31.598zm44.129-28.246c-10.727 3.761-20.313 8.652-28.746 14.664l1.91-85.051h31.586zm43.648-8.66c-10.035.77-19.453 2.175-28.242 4.214l4.45-65.941h30.944zM47.41 164.008c-.555 0-1.004-.45-1.004-1V139.66c0-.55.45-1 1.004-1h47.04a7.534 7.534 0 0 0 7.534-7.535 7.535 7.535 0 0 0-7.535-7.54H77.98l2.829-14.202h186.828l2.828 14.203h-140.95a7.535 7.535 0 0 0-7.535 7.539 7.534 7.534 0 0 0 7.536 7.535h171.523c.55 0 1 .45 1 1v23.348c0 .55-.45 1-1 1zM149.867 468.89h-18.539l-19.562-289.809h31.582zM65.715 179.082h30.941l19.563 289.809H99.285zM428.91 493.875a3.052 3.052 0 0 1-3.05 3.05H18.624a3.052 3.052 0 0 1-3.05-3.05v-6.86c0-1.68 1.366-3.05 3.05-3.05h407.234a3.058 3.058 0 0 1 3.055 3.05v6.86zm0 0"/></svg>