<svg viewBox="0 0 512 512" xmlns="http://www.w3.org/2000/svg"><path d="M255.999 148.097a8.657 8.657 0 0 1-6.146-2.57l-59.979-60.481c-8.482-8.536-13.155-19.896-13.155-31.975 0-12.083 4.673-23.441 13.155-31.987 8.476-8.541 19.753-13.246 31.745-13.246 11.991 0 23.268 4.705 31.748 13.247L256 23.742l2.637-2.657c8.478-8.542 19.752-13.247 31.747-13.247 11.983 0 23.264 4.705 31.744 13.247 8.475 8.547 13.151 19.904 13.151 31.987 0 12.079-4.676 23.439-13.151 31.981l-59.98 60.473a8.653 8.653 0 0 1-6.149 2.571z" fill="#ff8163"/><path d="M222.398 74.075c-8.482-8.536-13.155-19.896-13.155-31.975 0-12.083 4.673-23.441 13.155-31.987a45.508 45.508 0 0 1 2.312-2.157 45.288 45.288 0 0 0-3.091-.118c-11.992 0-23.269 4.705-31.745 13.247-8.482 8.547-13.155 19.904-13.155 31.987 0 12.079 4.673 23.439 13.155 31.975l59.979 60.481a8.653 8.653 0 0 0 6.146 2.57 8.664 8.664 0 0 0 6.149-2.57l15.555-15.684z" opacity=".1"/><path d="M300.804 205.973c.342-1.179.536-2.418.536-3.706v-13.409c0-7.405-6.058-13.409-13.534-13.409h-63.612c-7.473 0-13.534 6.004-13.534 13.409v13.409c0 1.287.194 2.528.536 3.706z" fill="#c9f0f4"/><path d="M243.997 205.973a13.265 13.265 0 0 1-.536-3.706v-13.409c0-7.405 6.06-13.409 13.533-13.409h-32.801c-7.473 0-13.534 6.004-13.534 13.409v13.409c0 1.287.194 2.528.536 3.706z" opacity=".1"/><path d="M402.326 333.71V219.382c0-7.375-6.09-13.408-13.534-13.408H123.207c-7.444 0-13.534 6.034-13.534 13.408V333.71z" fill="#ffecd9"/><path d="M388.792 205.973H123.207c-7.444 0-13.534 6.034-13.534 13.408v63.761c.252.004.502.019.754.019a41.375 41.375 0 0 0 36.394-21.531 41.37 41.37 0 0 0 36.392 21.531 41.37 41.37 0 0 0 36.393-21.531c6.982 12.82 20.66 21.531 36.394 21.531s29.411-8.712 36.394-21.531a41.369 41.369 0 0 0 36.393 21.531 41.37 41.37 0 0 0 36.392-21.531 41.371 41.371 0 0 0 36.394 21.531c.252 0 .502-.015.754-.019v-63.761c-.001-7.373-6.091-13.408-13.535-13.408z" fill="#fa9"/><path d="M148.375 239.804h-7.314a7.836 7.836 0 0 1-7.837-7.837 7.836 7.836 0 0 1 7.837-7.837h7.314a7.836 7.836 0 0 1 7.837 7.837 7.836 7.836 0 0 1-7.837 7.837zm37.616 22.988h-7.314c-4.329 0-7.837-3.508-7.837-7.837s3.508-7.837 7.837-7.837h7.314c4.329 0 7.837 3.508 7.837 7.837s-3.508 7.837-7.837 7.837zm33.437-22.988h-7.314a7.836 7.836 0 0 1-7.837-7.837 7.836 7.836 0 0 1 7.837-7.837h7.314a7.836 7.836 0 0 1 7.837 7.837 7.836 7.836 0 0 1-7.837 7.837zm40.748 22.988h-7.314c-4.329 0-7.837-3.508-7.837-7.837s3.508-7.837 7.837-7.837h7.314c4.329 0 7.837 3.508 7.837 7.837s-3.508 7.837-7.837 7.837zm33.437-22.988h-7.314a7.836 7.836 0 0 1-7.837-7.837 7.836 7.836 0 0 1 7.837-7.837h7.314a7.837 7.837 0 0 1 7.837 7.837 7.837 7.837 0 0 1-7.837 7.837zm39.709 22.988h-7.314c-4.329 0-7.837-3.508-7.837-7.837s3.508-7.837 7.837-7.837h7.314c4.329 0 7.837 3.508 7.837 7.837s-3.508 7.837-7.837 7.837zm33.437-22.988h-7.314a7.836 7.836 0 0 1-7.837-7.837 7.836 7.836 0 0 1 7.837-7.837h7.314a7.836 7.836 0 0 1 7.837 7.837 7.837 7.837 0 0 1-7.837 7.837z" fill="#fff"/><path d="M431.702 459.962V347.119c0-7.375-6.09-13.409-13.534-13.409H93.83c-7.444 0-13.535 6.034-13.535 13.409v112.843z" fill="#ffecd9"/><path d="M495.679 497.459c0 3.687-3.045 6.704-6.768 6.704H23.088c-3.723 0-6.768-3.017-6.768-6.704v-30.793c0-3.686 3.045-6.704 6.768-6.704h465.825c3.723 0 6.768 3.018 6.768 6.704v30.793z" fill="#c9f0f4"/><path d="M418.169 333.71H93.83c-7.444 0-13.535 6.034-13.535 13.409v58.03c2.645.452 5.36.701 8.135.701 18.111 0 33.857-10.029 41.893-24.786 8.035 14.757 23.781 24.786 41.891 24.786 18.112 0 33.857-10.029 41.893-24.786 8.036 14.757 23.782 24.786 41.893 24.786s33.854-10.029 41.893-24.786c8.035 14.757 23.781 24.786 41.892 24.786a47.623 47.623 0 0 0 41.892-24.786c8.035 14.757 23.781 24.786 41.893 24.786 2.774 0 5.49-.249 8.133-.701v-58.03c-.001-7.374-6.09-13.409-13.534-13.409z" fill="#fa9"/><path d="M123.783 459.962V347.119c0-7.375 6.091-13.409 13.535-13.409H93.83c-7.444 0-13.535 6.034-13.535 13.409v112.843z" opacity=".1"/><path d="M495.679 497.459c0 3.687-3.045 6.704-6.768 6.704H23.088c-3.723 0-6.768-3.017-6.768-6.704v-30.793c0-3.686 3.045-6.704 6.768-6.704h465.825c3.723 0 6.768 3.018 6.768 6.704v30.793z" fill="#c9f0f4"/><path d="M71.053 497.459v-30.793c0-3.686 3.045-6.704 6.768-6.704H23.088c-3.723 0-6.768 3.018-6.768 6.704v30.793c0 3.687 3.045 6.704 6.768 6.704H77.82c-3.723 0-6.767-3.016-6.767-6.704z" opacity=".1"/><path d="M488.911 452.125h-49.372V347.119c0-11.715-9.587-21.246-21.37-21.246h-8.006V219.382c0-11.714-9.587-21.245-21.37-21.245h-17.855a7.836 7.836 0 0 0-7.837 7.837 7.836 7.836 0 0 0 7.837 7.837h17.855c3.142 0 5.697 2.499 5.697 5.571v55.188c-9.471-2.022-17.714-8.032-22.429-16.689a7.838 7.838 0 0 0-13.766 0c-5.858 10.759-17.167 17.443-29.509 17.443-12.344 0-23.652-6.683-29.51-17.442a7.837 7.837 0 0 0-6.882-4.089h-.001a7.836 7.836 0 0 0-6.882 4.088c-5.862 10.76-17.171 17.444-29.512 17.444-12.344 0-23.652-6.683-29.511-17.442a7.838 7.838 0 0 0-13.766 0c-5.858 10.759-17.167 17.442-29.51 17.442s-23.651-6.683-29.509-17.442a7.836 7.836 0 0 0-13.766 0c-4.715 8.657-12.96 14.668-22.429 16.69v-55.189c0-3.072 2.555-5.571 5.697-5.571h211.16a7.836 7.836 0 0 0 7.837-7.837 7.836 7.836 0 0 0-7.837-7.837h-25.19v-9.279c0-11.715-9.587-21.246-21.37-21.246h-23.97v-13.675a16.526 16.526 0 0 0 3.877-2.892l33.448-33.722a7.837 7.837 0 0 0-11.128-11.037l-33.449 33.723a.815.815 0 0 1-1.165-.001l-59.986-60.487c-7.013-7.057-10.876-16.451-10.876-26.449s3.864-19.397 10.881-26.467c6.993-7.049 16.293-10.931 26.182-10.931 9.888 0 19.187 3.883 26.181 10.925l2.633 2.657a7.835 7.835 0 0 0 5.563 2.322h.003c2.09 0 4.092-.834 5.562-2.315l2.638-2.658c6.997-7.049 16.295-10.931 26.185-10.931 9.886 0 19.183 3.883 26.18 10.929 7.015 7.075 10.878 16.475 10.878 26.469 0 9.993-3.863 19.392-10.878 26.463l-5.805 5.854a7.837 7.837 0 0 0 11.128 11.036l5.804-5.852c9.947-10.026 15.425-23.344 15.425-37.501 0-14.156-5.477-27.477-15.427-37.509C317.727 5.526 304.479 0 290.385 0c-12.758 0-24.824 4.528-34.383 12.825C246.44 4.526 234.376 0 221.619 0c-14.099 0-27.348 5.528-37.307 15.563-9.95 10.026-15.43 23.346-15.43 37.508 0 14.168 5.48 27.484 15.428 37.493l59.978 60.48a16.605 16.605 0 0 0 3.874 2.91v13.658h-23.969c-11.783 0-21.37 9.531-21.37 21.246v9.279h-79.616c-11.783 0-21.37 9.531-21.37 21.245v106.492h-8.006c-11.784 0-21.371 9.531-21.371 21.246v105.006H23.089c-8.053 0-14.605 6.522-14.605 14.541v30.793c0 8.018 6.552 14.541 14.605 14.541h106.478a7.836 7.836 0 0 0 7.837-7.837 7.836 7.836 0 0 0-7.837-7.837H24.156v-28.528h463.686v28.529H166.137c-4.329 0-7.837 3.508-7.837 7.837s3.508 7.837 7.837 7.837h322.774c8.053 0 14.605-6.523 14.605-14.541v-30.793c0-8.021-6.552-14.543-14.605-14.543zM218.496 188.858c0-3.072 2.556-5.572 5.697-5.572h63.612c3.141 0 5.697 2.5 5.697 5.572v9.279h-75.006zM117.51 290.477c11.328-1.631 21.677-7.117 29.311-15.456 9.2 10.052 22.342 15.977 36.392 15.977s27.192-5.925 36.393-15.977c9.201 10.052 22.344 15.977 36.394 15.977 14.049 0 27.19-5.924 36.393-15.977 9.2 10.052 22.344 15.977 36.394 15.977s27.191-5.925 36.392-15.977c7.634 8.339 17.984 13.825 29.311 15.456v35.396H117.51zm-29.378 56.642c0-3.021 2.609-5.572 5.698-5.572h324.338c3.141 0 5.697 2.5 5.697 5.572v50.889c-.099 0-.199.006-.297.006-14.644 0-28.06-7.931-35.01-20.697a7.839 7.839 0 0 0-13.766 0c-6.951 12.767-20.366 20.697-35.009 20.697s-28.059-7.931-35.009-20.697a7.836 7.836 0 0 0-6.882-4.089h-.001a7.837 7.837 0 0 0-6.882 4.088c-6.955 12.768-20.37 20.698-35.011 20.698-14.644 0-28.06-7.931-35.01-20.697a7.838 7.838 0 0 0-13.766 0c-6.951 12.767-20.366 20.697-35.01 20.697-14.642 0-28.058-7.931-35.008-20.697a7.838 7.838 0 0 0-13.766 0c-6.951 12.767-20.366 20.697-35.01 20.697-.099 0-.199-.006-.298-.006v-50.889zm0 66.562c.099 0 .199.006.298.006 16.287 0 31.492-7.062 41.893-18.984 10.401 11.921 25.605 18.984 41.891 18.984 16.287 0 31.492-7.062 41.893-18.984 10.401 11.921 25.606 18.984 41.893 18.984 16.286 0 31.489-7.061 41.892-18.984 10.402 11.922 25.605 18.984 41.893 18.984 16.287 0 31.491-7.062 41.892-18.984 10.401 11.921 25.606 18.984 41.893 18.984.098 0 .197-.006.297-.006v38.444H88.132z"/><path d="M153.161 333.71V219.382c0-7.375 6.09-13.408 13.534-13.408h-43.488c-7.444 0-13.534 6.034-13.534 13.408V333.71z" opacity=".1"/></svg>