<svg xmlns="http://www.w3.org/2000/svg" viewBox="0 0 512 512"><path d="M78.5 338.8c7.2 7.2 9.5 17.6 6.8 26.7h341.5c-2.7-9.2-.5-19.5 6.8-26.7 7.5-7.5 18.4-9.7 27.9-6.4V189c-9.4 3.3-20.3 1.1-27.9-6.4-7.2-7.2-9.5-17.6-6.8-26.7H85.2c2.7 9.2.5 19.5-6.8 26.7-7.3 7.3-17.6 9.5-26.8 6.7V332c9.2-2.7 19.6-.5 26.9 6.8zm-6-132.8c14.6-3.1 25-14.6 29.2-29.2h308.6c3.1 14.6 14.6 25 29.2 29.2v110.5c-14.6 3.1-25 14.6-29.2 29.2H101.7c-4.2-14.6-15.6-26.1-29.2-29.2V206z"/><path d="M11 104.8v302.3h490V104.8H11zm470.2 281.5H31.9V125.7h449.3v260.6z"/><path d="M239.3 276.9l-14.6 17.7c10.4 9.4 22.9 15.6 35.4 17.7v9.4h16.7v-10.4c10.4-1 17.7-5.2 24-10.4 5.2-6.3 8.3-13.6 8.3-21.9 0-9.4-3.1-15.6-8.3-20.9-5.2-5.2-12.5-8.3-24-11.5v-21.9c5.2 2.1 11.5 5.2 17.7 9.4l12.5-17.7c-9.4-7.3-19.8-11.5-30.2-12.5v-7.3h-15.6v7.3c-9.4 1-17.7 5.2-22.9 10.4-5.2 6.3-8.3 13.6-8.3 21.9 0 8.3 2.1 15.6 7.3 19.8 5.2 5.2 13.6 8.3 24 11.5v22.9c-6.3-2.1-13.6-6.3-22-13.5zm37.6-3.2c3.1 1 5.2 3.1 6.3 4.2 1 1 2.1 3.1 2.1 5.2 0 4.2-3.1 7.3-8.3 9.4v-18.8zm-16.8-29.2c-4.2-2.1-6.3-5.2-6.3-9.4s2.1-7.3 6.3-8.3v17.7zM384.2 249.7h20.9v28.1h-20.9zM108 249.7h20.9v28.1H108z"/></svg>