<svg viewBox="0 0 512 512" xmlns="http://www.w3.org/2000/svg"><path d="M473.825 322l-1.734 33.064 26.588 19.449-31.775 8.604-10.197 31.49-17.905-27.745-32.892.012 20.71-25.751-10.13-31.482 30.703 11.83zM241.365 29.117L230.16 53.709l14.377 22.723-26.705-2.969-17.164 20.867-5.299-26.427-24.984-9.827 23.429-13.364 1.722-26.939 19.78 18.167z" fill="#f1e075"/><path d="M433.69 109.088l-31.06-31.06 57.627-57.625 16.27 45.849z" fill="#ff9f4d"/><path d="M460.257 20.403l-8.099 8.099 7.36 20.741-42.837 42.836 17.009 17.009 42.837-42.836z" fill="#fb900d"/><path d="M491.317 20.403c-16.746-16.745-43.894-16.745-60.64 0l60.64 60.64c16.744-16.746 16.744-43.896 0-60.64z" fill="#ff9f4d"/><path d="M491.317 20.403a42.872 42.872 0 0 0-9.722-7.286c8.926 16.281 6.505 37.125-7.286 50.918l17.008 17.008c16.744-16.746 16.744-43.896 0-60.64z" fill="#fb900d"/><path d="M305.705 295.235l-7.845-7.845 92.646-121.811-43.067-43.067-121.811 92.646-8.584-8.584c-8.395-8.395-22.006-8.395-30.401 0L14.421 378.799c-8.395 8.395-8.395 22.006 0 30.401l88.659 88.659c8.395 8.395 22.006 8.395 30.401 0l172.224-172.223c8.395-8.394 8.395-22.006 0-30.401z" fill="#33ccb1"/><path d="M332.995 241.197l28.759-37.813-52.118-52.118-37.803 28.753z" fill="#f8cd45"/><path d="M344.745 186.375l28.753-37.803-57.509 75.614 17.006 17.011 28.759-37.813z" fill="#f8b53c"/><path d="M361.754 203.384l28.752-37.803-17.008-17.009-28.753 37.803zm-45.765 20.802l-35.136 46.197s-13.36 15.104-2.468 27.482c8.134 9.244 5.546 17.008-5.217 26.293L116.473 480.851c-8.395 8.395-22.006 8.395-30.401 0l17.008 17.008c8.395 8.395 22.006 8.395 30.401 0l172.224-172.223c8.395-8.395 8.395-22.006 0-30.401l-7.845-7.845 35.134-46.195z" fill="#00bf9e"/><path d="M64.3 328.925l88.739-88.741 119.06 119.057-88.738 88.741z" fill="#f8cd45"/><path d="M166.341 430.975l88.738-88.741 17.01 17.008-88.739 88.742z" fill="#f8b53c"/><circle cx="168.931" cy="343.342" fill="#ecedef" r="39.608"/><g fill="#18191b"><path d="M503.31 368.182l-23.165-16.944 1.512-28.826a7.844 7.844 0 0 0-12.462-6.742l-23.176 16.944-26.709-10.293a7.843 7.843 0 0 0-10.287 9.722l8.835 27.458-18.061 22.458a7.843 7.843 0 0 0-.961 8.306c1.305 2.723 4.068 4.441 7.076 4.453l28.617-.012 15.586 24.153a7.843 7.843 0 0 0 14.053-1.836l8.888-27.447 27.673-7.493a7.841 7.841 0 1 0 2.581-13.901zm-38.455 7.364a7.845 7.845 0 0 0-5.412 5.154l-5.107 15.768-8.943-13.859a7.842 7.842 0 0 0-6.591-3.591h-.003l-16.51.006 10.444-12.986a7.84 7.84 0 0 0 1.354-7.318l-5.104-15.861 15.389 5.93a7.838 7.838 0 0 0 7.449-.987l13.305-9.727-.87 16.577a7.844 7.844 0 0 0 3.202 6.741l13.416 9.813zM167.513 65.375l21.006 8.262 4.459 22.234a7.842 7.842 0 0 0 13.748 3.441l14.463-17.583 22.482 2.498a7.845 7.845 0 0 0 7.494-11.99L239.055 53.1l9.446-20.731a7.843 7.843 0 0 0-9.125-10.84l-21.908 5.738-16.629-15.272a7.845 7.845 0 0 0-13.134 5.277l-1.452 22.72-19.759 11.27a7.844 7.844 0 0 0-3.938 7.376 7.856 7.856 0 0 0 4.957 6.737zm30.187-13.85a7.845 7.845 0 0 0 3.942-6.313l.675-10.562 7.694 7.067a7.843 7.843 0 0 0 7.294 1.81l10.079-2.64-4.36 9.569a7.84 7.84 0 0 0 .509 7.446l5.651 8.93-10.483-1.165a7.845 7.845 0 0 0-6.924 2.813l-6.664 8.102-2.05-10.222a7.845 7.845 0 0 0-4.819-5.757l-9.74-3.831zm230.444 63.109c1.531 1.532 3.539 2.298 5.546 2.298s4.015-.766 5.546-2.298l37.29-37.29 9.244 9.244c1.531 1.532 3.539 2.298 5.546 2.298s4.015-.766 5.546-2.298c9.581-9.581 14.857-22.318 14.857-35.866s-5.276-26.286-14.857-35.866C487.283 5.276 474.545 0 460.996 0s-26.286 5.276-35.865 14.856a7.843 7.843 0 0 0 0 11.092l9.244 9.244-37.291 37.29a7.842 7.842 0 0 0 0 11.092zm32.852-98.947c9.358 0 18.156 3.645 24.773 10.262s10.262 15.415 10.262 24.773c0 6.686-1.859 13.084-5.335 18.607l-48.307-48.307c5.523-3.474 11.923-5.335 18.607-5.335zm-15.529 30.598l19.967 19.967-31.744 31.743-19.967-19.967zm-106.229 199.66l28.759-37.813v-.001l28.752-37.802a7.844 7.844 0 0 0-.698-10.295l-43.067-43.067a7.844 7.844 0 0 0-10.295-.697l-48.985 37.257-26.621 20.247-.002.001-40.748 30.995-3.741-3.741c-9.382-9.381-23.948-11.3-35.423-4.665a7.844 7.844 0 0 0 7.852 13.581c5.337-3.084 12.112-2.189 16.478 2.177l8.584 8.584a7.842 7.842 0 0 0 10.295.697l40.751-30.995 51.476 51.491-30.99 40.744a7.844 7.844 0 0 0 .698 10.295l7.845 7.845c2.579 2.579 3.999 6.007 3.999 9.654s-1.42 7.075-3.999 9.654l-28.06 28.06L164.13 240.184l9.569-9.569a7.843 7.843 0 1 0-11.092-11.092L8.875 373.253C3.333 378.795.282 386.163.282 394s3.052 15.205 8.593 20.747l88.659 88.659c5.541 5.542 12.91 8.594 20.746 8.594s15.205-3.052 20.746-8.594l10.698-10.698a7.843 7.843 0 1 0-11.092-11.092l-10.698 10.698c-2.579 2.579-6.007 3.998-9.654 3.998s-7.075-1.42-9.654-3.998l-88.659-88.66A13.562 13.562 0 0 1 15.968 394c0-3.647 1.42-7.075 3.999-9.654l44.33-44.33 107.968 107.967-9.614 9.614a7.843 7.843 0 0 0 0 11.092 7.817 7.817 0 0 0 5.546 2.298 7.817 7.817 0 0 0 5.546-2.298l15.158-15.158.002-.002 30.197-30.198 92.15-92.15c5.542-5.542 8.593-12.91 8.593-20.747s-3.052-15.205-8.593-20.747l-3.001-3.001 30.987-40.741zm-186.2 5.331l107.967 107.968-77.648 77.648L75.389 328.923zm193.698-118.372l33.38 33.38-19.169 25.202-39.415-39.415zm-14.546 96.394l-48.46-48.473 21.879-16.64 3.325-2.529 42.432 42.432-7.187 9.449z"/><path d="M202.49 309.791c-8.963-8.963-20.878-13.899-33.553-13.899s-24.591 4.936-33.553 13.899c-18.502 18.502-18.501 48.605 0 67.107 8.963 8.963 20.879 13.898 33.553 13.898s24.59-4.936 33.553-13.899c18.502-18.5 18.502-48.604 0-67.106zm-11.093 56.014c-6 6-13.976 9.304-22.461 9.304s-16.461-3.304-22.461-9.304c-12.385-12.385-12.385-32.536 0-44.921 6-6 13.976-9.304 22.461-9.304s16.461 3.304 22.461 9.304c12.385 12.384 12.385 32.535 0 44.921zm41.011-206.034c.75.225 1.507.332 2.253.332a7.846 7.846 0 0 0 7.511-5.596c4.78-15.972 3.025-32.762-4.947-47.279a7.844 7.844 0 1 0-13.751 7.551c5.933 10.804 7.236 23.315 3.67 35.23a7.84 7.84 0 0 0 5.264 9.762zm202.785 137.126a7.843 7.843 0 0 0 0-11.092c-11.711-11.711-27.391-18.095-44.012-17.963-16.626.127-32.301 6.714-44.137 18.55a7.843 7.843 0 0 0 0 11.092c1.531 1.532 3.539 2.298 5.546 2.298s4.015-.766 5.546-2.298c18.348-18.348 47.939-18.611 65.964-.588a7.843 7.843 0 0 0 11.093.001zm5.593-122.638c-9.569.073-18.588 3.862-25.397 10.669a7.844 7.844 0 0 0 11.092 11.093c3.877-3.877 8.998-6.034 14.424-6.075 5.38-.042 10.414 2.009 14.178 5.773a7.843 7.843 0 1 0 11.092-11.093c-6.692-6.693-15.599-10.368-25.109-10.368zm-125.615-69.043c1.531 1.532 3.539 2.298 5.546 2.298s4.015-.766 5.546-2.298c14.085-14.085 14.221-36.868.303-50.787a7.843 7.843 0 1 0-11.092 11.093c7.802 7.802 7.666 20.633-.303 28.601a7.844 7.844 0 0 0 0 11.093z"/></g></svg>