<?xml version="1.0" encoding="iso-8859-1"?>
<!-- Generator: Adobe Illustrator 21.0.0, SVG Export Plug-In . SVG Version: 6.00 Build 0)  -->
<svg version="1.1" id="Capa_1" xmlns="http://www.w3.org/2000/svg" xmlns:xlink="http://www.w3.org/1999/xlink" x="0px" y="0px"
	 viewBox="0 0 512 512" style="enable-background:new 0 0 512 512;" xml:space="preserve">
<g>
	<polygon style="fill:#F1E075;" points="473.825,322 472.091,355.064 498.679,374.513 466.904,383.117 456.707,414.607 
		438.802,386.862 405.91,386.874 426.62,361.123 416.49,329.641 447.193,341.471 	"/>
	<polygon style="fill:#F1E075;" points="241.365,29.117 230.16,53.709 244.537,76.432 217.832,73.463 200.668,94.33 195.369,67.903 
		170.385,58.076 193.814,44.712 195.536,17.773 215.316,35.94 	"/>
</g>
<polygon style="fill:#FF9F4D;" points="433.69,109.088 402.63,78.028 460.257,20.403 476.527,66.252 "/>
<polygon style="fill:#FB900D;" points="460.257,20.403 452.158,28.502 459.518,49.243 416.681,92.079 433.69,109.088 
	476.527,66.252 "/>
<path style="fill:#FF9F4D;" d="M491.317,20.403c-16.746-16.745-43.894-16.745-60.64,0l60.64,60.64
	C508.061,64.297,508.061,37.147,491.317,20.403z"/>
<path style="fill:#FB900D;" d="M491.317,20.403c-2.953-2.953-6.235-5.374-9.722-7.286c8.926,16.281,6.505,37.125-7.286,50.918
	l17.008,17.008C508.061,64.297,508.061,37.147,491.317,20.403z"/>
<path style="fill:#33CCB1;" d="M305.705,295.235l-7.845-7.845l92.646-121.811l-43.067-43.067l-121.811,92.646l-8.584-8.584
	c-8.395-8.395-22.006-8.395-30.401,0L14.421,378.799c-8.395,8.395-8.395,22.006,0,30.401l88.659,88.659
	c8.395,8.395,22.006,8.395,30.401,0l172.224-172.223C314.1,317.242,314.1,303.63,305.705,295.235z"/>
<polygon style="fill:#F8CD45;" points="332.995,241.197 361.754,203.384 309.636,151.266 271.833,180.019 "/>
<polygon style="fill:#F8B53C;" points="344.745,186.375 373.498,148.572 315.989,224.186 332.995,241.197 361.754,203.384 "/>
<g>
	<polygon style="fill:#00BF9E;" points="361.754,203.384 361.754,203.384 390.506,165.581 373.498,148.572 344.745,186.375 	"/>
	<path style="fill:#00BF9E;" d="M315.989,224.186l-35.136,46.197c0,0-13.36,15.104-2.468,27.482
		c8.134,9.244,5.546,17.008-5.217,26.293L116.473,480.851c-8.395,8.395-22.006,8.395-30.401,0l17.008,17.008
		c8.395,8.395,22.006,8.395,30.401,0l172.224-172.223c8.395-8.395,8.395-22.006,0-30.401l-7.845-7.845l35.134-46.195l0,0
		L315.989,224.186L315.989,224.186z"/>
</g>
<rect x="105.455" y="259.897" transform="matrix(0.7071 -0.7071 0.7071 0.7071 -194.0389 219.7177)" style="fill:#F8CD45;" width="125.497" height="168.375"/>
<rect x="156.47" y="383.083" transform="matrix(0.7071 -0.7071 0.7071 0.7071 -215.1773 270.7361)" style="fill:#F8B53C;" width="125.497" height="24.054"/>
<circle style="fill:#ECEDEF;" cx="168.931" cy="343.342" r="39.608"/>
<g>
	<path style="fill:#18191B;" d="M503.31,368.182l-23.165-16.944l1.512-28.826c0.158-3.023-1.438-5.869-4.101-7.309
		c-2.664-1.441-5.918-1.219-8.361,0.567l-23.176,16.944l-26.709-10.293c-2.82-1.086-6.012-0.457-8.208,1.619
		c-2.196,2.075-3.005,5.227-2.079,8.103l8.835,27.458l-18.061,22.458c-1.893,2.353-2.266,5.583-0.961,8.306
		c1.305,2.723,4.068,4.441,7.076,4.453l28.617-0.012l15.586,24.153c1.456,2.257,3.949,3.591,6.589,3.591
		c0.338,0,0.677-0.022,1.018-0.066c3.004-0.392,5.513-2.48,6.446-5.361l8.888-27.447l27.673-7.493
		c2.91-0.788,5.111-3.175,5.662-6.139C506.942,372.98,505.744,369.962,503.31,368.182z M464.855,375.546
		c-2.559,0.693-4.595,2.632-5.412,5.154l-5.107,15.768l-8.943-13.859c-1.444-2.239-3.926-3.591-6.591-3.591
		c-0.001,0-0.002,0-0.003,0l-16.51,0.006l10.444-12.986c1.654-2.056,2.163-4.807,1.354-7.318l-5.104-15.861l15.389,5.93
		c2.492,0.96,5.296,0.588,7.449-0.987l13.305-9.727l-0.87,16.577c-0.138,2.644,1.066,5.179,3.202,6.741l13.416,9.813
		L464.855,375.546z"/>
	<path style="fill:#18191B;" d="M167.513,65.375l21.006,8.262l4.459,22.234c0.595,2.97,2.848,5.332,5.787,6.067
		c0.632,0.158,1.271,0.235,1.904,0.235c2.312,0,4.547-1.025,6.057-2.861l14.463-17.583l22.482,2.498
		c2.99,0.335,5.919-1.081,7.517-3.638c1.598-2.557,1.59-5.803-0.023-8.352l-12.11-19.137l9.446-20.731
		c1.256-2.756,0.813-5.987-1.137-8.304c-1.95-2.316-5.06-3.304-7.988-2.536l-21.908,5.738l-16.629-15.272
		c-2.225-2.044-5.426-2.628-8.23-1.501c-2.804,1.126-4.71,3.763-4.904,6.778l-1.452,22.72l-19.759,11.27
		c-2.623,1.496-4.154,4.364-3.938,7.376C162.777,61.65,164.704,64.271,167.513,65.375z M197.7,51.525
		c2.292-1.307,3.773-3.679,3.942-6.313l0.675-10.562l7.694,7.067c1.965,1.804,4.711,2.487,7.294,1.81l10.079-2.64l-4.36,9.569
		c-1.098,2.409-0.907,5.209,0.509,7.446l5.651,8.93l-10.483-1.165c-2.637-0.292-5.24,0.766-6.924,2.813l-6.664,8.102l-2.05-10.222
		c-0.524-2.613-2.339-4.781-4.819-5.757l-9.74-3.831L197.7,51.525z"/>
	<path style="fill:#18191B;" d="M428.144,114.634c1.531,1.532,3.539,2.298,5.546,2.298s4.015-0.766,5.546-2.298l37.29-37.29
		l9.244,9.244c1.531,1.532,3.539,2.298,5.546,2.298s4.015-0.766,5.546-2.298c9.581-9.581,14.857-22.318,14.857-35.866
		s-5.276-26.286-14.857-35.866C487.283,5.276,474.545,0,460.996,0c-13.549,0-26.286,5.276-35.865,14.856
		c-3.063,3.063-3.063,8.029,0,11.092l9.244,9.244l-37.291,37.29c-1.471,1.47-2.298,3.466-2.298,5.546
		c0,2.08,0.826,4.076,2.298,5.546L428.144,114.634z M460.996,15.687c9.358,0,18.156,3.645,24.773,10.262l0,0
		c6.617,6.617,10.262,15.415,10.262,24.773c0,6.686-1.859,13.084-5.335,18.607l-48.307-48.307
		C447.912,17.548,454.312,15.687,460.996,15.687z M445.467,46.285l19.967,19.967L433.69,97.995l-19.967-19.967L445.467,46.285z"/>
	<path style="fill:#18191B;" d="M339.238,245.945l28.759-37.813v-0.001l28.752-37.802c2.375-3.123,2.077-7.52-0.698-10.295
		l-43.067-43.067c-2.774-2.775-7.172-3.072-10.295-0.697l-48.985,37.257l-26.621,20.247c-0.001,0-0.001,0.001-0.002,0.001
		l-40.748,30.995l-3.741-3.741c-9.382-9.381-23.948-11.3-35.423-4.665c-3.75,2.168-5.032,6.966-2.864,10.716
		c2.168,3.75,6.967,5.032,10.716,2.865c5.337-3.084,12.112-2.189,16.478,2.177l8.584,8.584c2.775,2.775,7.172,3.073,10.295,0.697
		l40.751-30.995l51.476,51.491l-30.99,40.744c-2.375,3.123-2.077,7.52,0.698,10.295l7.845,7.845
		c2.579,2.579,3.999,6.007,3.999,9.654s-1.42,7.075-3.999,9.654l-28.06,28.06L164.13,240.184l9.569-9.569
		c3.063-3.063,3.063-8.029,0-11.092s-8.03-3.063-11.092,0L8.875,373.253c-5.542,5.542-8.593,12.91-8.593,20.747
		c0,7.837,3.052,15.205,8.593,20.747l88.659,88.659c5.541,5.542,12.91,8.594,20.746,8.594s15.205-3.052,20.746-8.594l10.698-10.698
		c3.063-3.063,3.063-8.029,0-11.092c-3.063-3.063-8.03-3.063-11.092,0l-10.698,10.698c-2.579,2.579-6.007,3.998-9.654,3.998
		s-7.075-1.42-9.654-3.998l-88.659-88.66c-2.579-2.579-3.999-6.007-3.999-9.654c0-3.647,1.42-7.075,3.999-9.654l44.33-44.33
		l107.968,107.967l-9.614,9.614c-3.063,3.063-3.063,8.029,0,11.092c1.531,1.532,3.539,2.298,5.546,2.298
		c2.007,0,4.015-0.766,5.546-2.298l15.158-15.158c0.001-0.001,0.001-0.001,0.002-0.002l30.197-30.198l92.15-92.15
		c5.542-5.542,8.593-12.91,8.593-20.747c0-7.837-3.052-15.205-8.593-20.747l-3.001-3.001l30.987-40.741
		C339.236,245.946,339.237,245.946,339.238,245.945z M153.038,251.276l107.967,107.968l-77.648,77.648L75.389,328.923
		L153.038,251.276z M346.736,132.904l33.38,33.38l-19.169,25.202l-39.415-39.415L346.736,132.904z M332.19,229.298l-48.46-48.473
		l21.879-16.64l3.325-2.529l42.432,42.432l-7.187,9.449L332.19,229.298z"/>
	<path style="fill:#18191B;" d="M202.49,309.791c-8.963-8.963-20.878-13.899-33.553-13.899s-24.591,4.936-33.553,13.899
		c-18.502,18.502-18.501,48.605,0,67.107c8.963,8.963,20.879,13.898,33.553,13.898s24.59-4.936,33.553-13.899
		C220.992,358.397,220.992,328.293,202.49,309.791z M191.397,365.805c-6,6-13.976,9.304-22.461,9.304
		c-8.485,0-16.461-3.304-22.461-9.304c-12.385-12.385-12.385-32.536,0-44.921c6-6,13.976-9.304,22.461-9.304
		c8.485,0,16.461,3.304,22.461,9.304C203.782,333.268,203.782,353.419,191.397,365.805z"/>
	<path style="fill:#18191B;" d="M232.408,159.771c0.75,0.225,1.507,0.332,2.253,0.332c3.376,0,6.493-2.196,7.511-5.596
		c4.78-15.972,3.025-32.762-4.947-47.279c-2.085-3.797-6.852-5.185-10.651-3.1c-3.797,2.085-5.185,6.853-3.1,10.651
		c5.933,10.804,7.236,23.315,3.67,35.23C225.9,154.158,228.257,158.528,232.408,159.771z"/>
	<path style="fill:#18191B;" d="M435.193,296.897c3.063-3.063,3.063-8.029,0-11.092c-11.711-11.711-27.391-18.095-44.012-17.963
		c-16.626,0.127-32.301,6.714-44.137,18.55c-3.063,3.063-3.063,8.029,0,11.092c1.531,1.532,3.539,2.298,5.546,2.298
		s4.015-0.766,5.546-2.298c18.348-18.348,47.939-18.611,65.964-0.588C427.164,299.96,432.131,299.96,435.193,296.897z"/>
	<path style="fill:#18191B;" d="M440.786,174.259c-9.569,0.073-18.588,3.862-25.397,10.669c-3.063,3.063-3.063,8.03,0,11.093
		c1.531,1.532,3.539,2.298,5.546,2.298s4.015-0.766,5.546-2.298c3.877-3.877,8.998-6.034,14.424-6.075
		c5.38-0.042,10.414,2.009,14.178,5.773c3.062,3.063,8.029,3.063,11.092,0c3.063-3.063,3.063-8.03,0-11.093
		c-6.692-6.693-15.599-10.368-25.109-10.368C440.974,174.258,440.879,174.259,440.786,174.259z"/>
	<path style="fill:#18191B;" d="M315.171,105.216c1.531,1.532,3.539,2.298,5.546,2.298s4.015-0.766,5.546-2.298
		c14.085-14.085,14.221-36.868,0.303-50.787c-3.062-3.063-8.029-3.063-11.092,0c-3.063,3.063-3.063,8.03,0,11.093
		c7.802,7.802,7.666,20.633-0.303,28.601C312.108,97.186,312.108,102.152,315.171,105.216z"/>
</g>
<g>
</g>
<g>
</g>
<g>
</g>
<g>
</g>
<g>
</g>
<g>
</g>
<g>
</g>
<g>
</g>
<g>
</g>
<g>
</g>
<g>
</g>
<g>
</g>
<g>
</g>
<g>
</g>
<g>
</g>
</svg>
