<?xml version="1.0" encoding="iso-8859-1"?>
<!-- Generator: Adobe Illustrator 19.0.0, SVG Export Plug-In . SVG Version: 6.00 Build 0)  -->
<svg version="1.1" id="Layer_1" xmlns="http://www.w3.org/2000/svg" xmlns:xlink="http://www.w3.org/1999/xlink" x="0px" y="0px"
	 viewBox="0 0 512 512" style="enable-background:new 0 0 512 512;" xml:space="preserve">
<path style="fill:#E15050;" d="M344.934,246.813c-0.384-2.783-0.65-5.603-0.65-8.492c0-0.747,0.085-1.471,0.111-2.212
	c-16.061-11.161-26.597-29.718-26.597-50.759c0-34.13,27.668-61.798,61.798-61.798s61.798,27.668,61.798,61.798
	c0,0.747-0.085,1.471-0.111,2.212c16.061,11.16,26.597,29.718,26.597,50.759c0,32.359-24.883,58.866-56.553,61.534
	c-6.754,15.725-22.36,26.75-40.559,26.75c-24.378,0-44.142-19.763-44.142-44.142C326.627,267.765,333.886,254.836,344.934,246.813z"
	/>
<g>
	<path style="fill:#D24146;" d="M414.799,214.048c0.026-0.74,0.111-1.466,0.111-2.212c0-34.13-27.668-61.798-61.798-61.798
		c-10.239,0-19.873,2.529-28.375,6.938c-4.408,8.504-6.938,18.137-6.938,28.375c0,21.04,10.536,39.597,26.597,50.759
		c-0.026,0.74-0.111,1.466-0.111,2.212c0,2.889,0.267,5.709,0.65,8.492c-11.048,8.023-18.307,20.952-18.307,35.65
		c0,24.378,19.763,44.142,44.142,44.142c18.199,0,33.806-11.024,40.559-26.75c8.317-0.701,16.145-3.081,23.199-6.745
		c4.383-8.479,6.87-18.096,6.87-28.304C441.395,243.766,430.86,225.209,414.799,214.048z"/>
	<path style="fill:#D24146;" d="M167.067,246.813c0.384-2.783,0.65-5.603,0.65-8.492c0-0.747-0.085-1.471-0.111-2.212
		c16.061-11.161,26.596-29.718,26.596-50.759c0-34.13-27.668-61.798-61.798-61.798s-61.798,27.668-61.798,61.798
		c0,0.747,0.085,1.471,0.111,2.212c-16.061,11.16-26.596,29.718-26.596,50.759c0,32.359,24.883,58.866,56.553,61.534
		c6.754,15.725,22.36,26.75,40.559,26.75c24.378,0,44.142-19.763,44.142-44.142C185.373,267.765,178.114,254.836,167.067,246.813z"
		/>
</g>
<path style="fill:#FFC855;" d="M179.209,335.433v52.97l-65.822,36.568c-7.702,4.278-17.397,1.928-22.284-5.403l0,0
	c-5.032-7.548-3.212-17.722,4.124-23.057L179.209,335.433z"/>
<path style="fill:#FFB44B;" d="M113.387,424.971l65.822-36.568v-30.34l-72.488,52.72c-5.035,3.662-7.397,9.6-6.803,15.405
	C104.254,427.611,109.117,427.344,113.387,424.971z"/>
<path style="fill:#FFC855;" d="M332.791,335.433v52.97l65.822,36.568c7.702,4.278,17.397,1.928,22.284-5.403l0,0
	c5.032-7.548,3.212-17.722-4.124-23.057L332.791,335.433z"/>
<path style="fill:#FFB44B;" d="M398.613,424.971l-65.822-36.568v-30.34l72.49,52.72c5.035,3.662,7.397,9.6,6.803,15.405
	C407.746,427.611,402.883,427.344,398.613,424.971z"/>
<path style="fill:#E15050;" d="M316.706,512H195.294c-35.639,0-61.109-34.486-50.627-68.548l49.535-160.989h123.597l49.535,160.989
	C377.815,477.515,352.345,512,316.706,512z"/>
<g>
	<path style="fill:#D24146;" d="M205.04,443.453l41.843-160.989h-52.681l-49.535,160.989C134.185,477.516,159.656,512,195.294,512
		h52.511C217.701,512,196.186,477.515,205.04,443.453z"/>
	<path style="fill:#D24146;" d="M334.883,337.987l-5.181-16.839c-21.783,9.056-46.893,14.285-73.701,14.285
		s-51.918-5.231-73.701-14.285l-5.181,16.839c23.533,9.614,50.376,15.103,78.882,15.103
		C284.507,353.09,311.351,347.601,334.883,337.987z"/>
</g>
<rect x="247.172" y="326.605" style="fill:#FFC855;" width="17.657" height="185.395"/>
<path style="fill:#FFB44B;" d="M247.172,335.005v17.873c2.928,0.117,5.863,0.212,8.828,0.212c2.965,0,5.901-0.095,8.828-0.212
	v-17.873c-2.949,0.129-5.834,0.428-8.828,0.428C253.006,335.433,250.12,335.134,247.172,335.005z"/>
<path style="fill:#E15050;" d="M244.935,5.773c-15.061,21.453-42.13,65.598-59.562,126.608h141.254
	c-17.432-61.011-44.5-105.156-59.562-126.608C261.662-1.924,250.338-1.924,244.935,5.773z"/>
<path style="fill:#D24146;" d="M266.09,4.691c-5.682-6.505-16.04-6.204-21.155,1.08c-15.06,21.453-42.13,65.598-59.562,126.608
	h35.313c13.074-61.01,33.376-105.157,44.67-126.608C265.574,5.36,265.848,5.059,266.09,4.691z"/>
<g>
	<path style="fill:#FFC855;" d="M201.187,86.805c-2.725,6.661-5.381,13.622-7.932,20.888c18.9-6.79,40.2-10.625,62.745-10.625
		c22.545,0,43.844,3.835,62.745,10.625c-2.551-7.266-5.206-14.228-7.932-20.888c-17.092-4.749-35.533-7.394-54.813-7.394
		S218.278,82.055,201.187,86.805z"/>
	<path style="fill:#FFC855;" d="M219.643,47.322c-3.294,6.213-6.64,12.932-9.969,20.071c14.514-3.643,30.095-5.639,46.327-5.639
		s31.813,1.997,46.327,5.639c-3.329-7.139-6.675-13.858-9.969-20.071c-11.684-2.069-23.835-3.225-36.357-3.225
		S231.327,45.253,219.643,47.322z"/>
	<path style="fill:#FFC855;" d="M242.502,9.298c-3.564,5.219-7.651,11.533-12.037,18.849c8.288-1.096,16.81-1.705,25.537-1.705
		c8.727,0,17.248,0.609,25.537,1.705c-4.387-7.315-8.473-13.63-12.037-18.849c-4.461-0.284-8.943-0.513-13.499-0.513
		C251.447,8.784,246.962,9.014,242.502,9.298z"/>
</g>
<g>
	<path style="fill:#FFB44B;" d="M255.254,26.467c3.058-6.726,5.893-12.52,8.394-17.392c-2.544-0.115-5.066-0.29-7.648-0.29
		c-4.557,0-9.038,0.23-13.499,0.513L242.5,9.299c-1.75,2.562-3.632,5.402-5.607,8.481c-0.057,0.089-0.115,0.178-0.172,0.267
		c-1.994,3.114-4.086,6.477-6.254,10.093c-0.001,0.001-0.002,0.004-0.003,0.007C238.512,27.082,246.791,26.501,255.254,26.467z"/>
	<path style="fill:#FFB44B;" d="M247.535,44.481c-9.521,0.398-18.883,1.247-27.892,2.843c-1.613,3.044-3.24,6.215-4.871,9.492
		c-0.081,0.161-0.161,0.326-0.241,0.487c-1.618,3.262-3.24,6.622-4.858,10.093c9.867-2.476,20.259-4.121,30.982-4.966
		C242.964,56.035,245.268,50.077,247.535,44.481z"/>
	<path style="fill:#FFB44B;" d="M234.46,80.642c-11.513,1.197-22.677,3.219-33.273,6.163c-0.001,0.003-0.002,0.006-0.004,0.009
		c-2.724,6.659-5.379,13.617-7.928,20.879c11.113-3.993,23.127-6.813,35.664-8.583C230.719,92.702,232.573,86.538,234.46,80.642z"/>
</g>
<ellipse style="fill:#FFC855;" cx="256" cy="225.079" rx="150.082" ry="110.354"/>
<path style="fill:#FFB44B;" d="M158.888,225.079c0-54.29,53.363-99.323,123.597-108.535c-8.612-1.129-17.432-1.82-26.485-1.82
	c-82.888,0-150.082,49.407-150.082,110.354S173.112,335.433,256,335.433c9.053,0,17.873-0.69,26.485-1.82
	C212.251,324.402,158.888,279.369,158.888,225.079z"/>
<path style="fill:#FFE6A1;" d="M256,335.433c44.467,0,84.295-14.302,111.777-36.896c-11.681-29.42-57.24-51.388-111.777-51.388
	s-100.096,21.968-111.777,51.388C171.705,321.131,211.533,335.433,256,335.433z"/>
<path style="fill:#FFD680;" d="M279.584,333.909c0.904-0.106,1.808-0.21,2.706-0.328c-50.026-6.612-91.348-31.443-111-64.798
	c-13.066,8.278-22.581,18.457-27.067,29.754c3.382,2.781,6.961,5.431,10.703,7.949c0.12,0.081,0.241,0.161,0.361,0.241
	c3.58,2.394,7.33,4.65,11.211,6.786c0.337,0.184,0.67,0.372,1.01,0.555c3.654,1.975,7.452,3.811,11.346,5.541
	c0.611,0.27,1.211,0.552,1.827,0.817c3.645,1.568,7.415,2.992,11.246,4.334c0.91,0.317,1.799,0.66,2.719,0.963
	c3.589,1.192,7.288,2.23,11.02,3.216c1.208,0.317,2.387,0.676,3.61,0.971c3.551,0.86,7.198,1.556,10.862,2.221
	c1.44,0.26,2.844,0.584,4.299,0.812c3.701,0.586,7.491,0.988,11.289,1.368c1.443,0.143,2.849,0.37,4.305,0.483
	c5.247,0.411,10.57,0.64,15.968,0.64c4.807,0,9.532-0.243,14.221-0.569C273.377,334.627,276.484,334.278,279.584,333.909z"/>
<circle style="fill:#E15050;" cx="256" cy="229.493" r="35.313"/>
<circle style="fill:#ED9696;" cx="267.775" cy="217.718" r="11.772"/>
<path style="fill:#D24146;" d="M238.343,229.493c0-16.436,11.28-30.127,26.485-34.065c-2.837-0.735-5.762-1.248-8.828-1.248
	c-19.503,0-35.313,15.81-35.313,35.313s15.81,35.313,35.313,35.313c3.067,0,5.991-0.513,8.828-1.248
	C249.624,259.62,238.343,245.929,238.343,229.493z"/>
<path style="fill:#E69B4B;" d="M255.664,300.12c-15.027,0-29.106-3.612-39.641-10.165c-4.138-2.569-5.405-8.018-2.828-12.157
	c2.578-4.147,8.026-5.405,12.157-2.828c7.656,4.76,18.708,7.492,30.313,7.492s22.657-2.733,30.313-7.492
	c4.121-2.578,9.579-1.319,12.157,2.828c2.578,4.138,1.311,9.588-2.828,12.157C284.769,296.508,270.69,300.12,255.664,300.12z"/>
<g>
	<path style="fill:#6E4141;" d="M189.788,220.665L189.788,220.665c-7.313,0-13.243-5.929-13.243-13.243v-8.828
		c0-7.313,5.929-13.243,13.243-13.243l0,0c7.313,0,13.243,5.929,13.243,13.243v8.828
		C203.03,214.735,197.101,220.665,189.788,220.665z"/>
	<path style="fill:#6E4141;" d="M322.213,220.665L322.213,220.665c-7.313,0-13.243-5.929-13.243-13.243v-8.828
		c0-7.313,5.929-13.243,13.243-13.243l0,0c7.313,0,13.243,5.929,13.243,13.243v8.828
		C335.455,214.735,329.526,220.665,322.213,220.665z"/>
</g>
<circle style="fill:#FFE6A1;" cx="216.273" cy="392.818" r="13.243"/>
<path style="fill:#FFD680;" d="M211.858,392.818c0-5.757,3.697-10.608,8.828-12.432c-1.387-0.493-2.858-0.81-4.414-0.81
	c-7.313,0-13.243,5.929-13.243,13.243s5.929,13.243,13.243,13.243c1.556,0,3.027-0.318,4.414-0.81
	C215.555,403.426,211.858,398.575,211.858,392.818z"/>
<circle style="fill:#FFE6A1;" cx="295.728" cy="392.818" r="13.243"/>
<path style="fill:#FFD680;" d="M291.314,392.818c0-5.757,3.697-10.608,8.828-12.432c-1.387-0.493-2.858-0.81-4.414-0.81
	c-7.313,0-13.243,5.929-13.243,13.243s5.929,13.243,13.243,13.243c1.556,0,3.027-0.318,4.414-0.81
	C295.01,403.426,291.314,398.575,291.314,392.818z"/>
<circle style="fill:#FFE6A1;" cx="216.273" cy="445.788" r="13.243"/>
<path style="fill:#FFD680;" d="M211.858,445.788c0-5.757,3.697-10.608,8.828-12.433c-1.387-0.493-2.858-0.81-4.414-0.81
	c-7.313,0-13.243,5.929-13.243,13.243s5.929,13.243,13.243,13.243c1.556,0,3.027-0.318,4.414-0.81
	C215.555,456.396,211.858,451.545,211.858,445.788z"/>
<circle style="fill:#FFE6A1;" cx="295.728" cy="445.788" r="13.243"/>
<path style="fill:#FFD680;" d="M291.314,445.788c0-5.757,3.697-10.608,8.828-12.433c-1.387-0.493-2.858-0.81-4.414-0.81
	c-7.313,0-13.243,5.929-13.243,13.243s5.929,13.243,13.243,13.243c1.556,0,3.027-0.318,4.414-0.81
	C295.01,456.396,291.314,451.545,291.314,445.788z"/>
<g>
</g>
<g>
</g>
<g>
</g>
<g>
</g>
<g>
</g>
<g>
</g>
<g>
</g>
<g>
</g>
<g>
</g>
<g>
</g>
<g>
</g>
<g>
</g>
<g>
</g>
<g>
</g>
<g>
</g>
</svg>
