<svg viewBox="-47 1 511 511.99897" xmlns="http://www.w3.org/2000/svg"><path d="m386.035156 71.828125h-354.960937l58.972656 414.351563c1.496094 10.507812 10.492187 18.316406 21.101563 18.316406h194.8125c10.613281 0 19.609374-7.808594 21.105468-18.316406zm0 0" fill="#f3e8d7"/><path d="m327.734375 71.828125-61.578125 432.667969h39.804688c10.613281 0 19.609374-7.808594 21.101562-18.316406l58.972656-414.351563zm0 0" fill="#e5d8c6"/><path d="m349.246094 7.503906h-281.382813c-4.007812 0-7.460937 2.816406-8.269531 6.738282l-12.921875 62.644531h323.765625l-12.921875-62.644531c-.808594-3.921876-4.261719-6.738282-8.269531-6.738282zm0 0" fill="#464c50"/><path d="m361.0625 31.421875-3.542969-17.179687c-.8125-3.921876-4.265625-6.738282-8.269531-6.738282h-50.421875l2.75 13.332032c2.246094 10.894531-6.074219 16.101562-17.199219 16.101562h-229.46875l-8.238281 39.949219h323.769531zm0 0" fill="#31363b"/><path d="m396.675781 111.574219h-376.242187c-6.863282 0-12.429688-5.566407-12.429688-12.429688v-32.957031c0-6.863281 5.566406-12.429688 12.429688-12.429688h376.242187c6.863281 0 12.429688 5.566407 12.429688 12.429688v32.957031c0 6.867188-5.566407 12.429688-12.429688 12.429688zm0 0" fill="#464c50"/><path d="m396.675781 53.757812h-45.289062v10.351563c0 19.671875-9.722657 30.613281-29.394531 30.613281h-295.332032c-6.863281 0-12.429687-5.5625-12.429687-12.429687l-6.222657 16.851562c0 6.863281 5.5625 12.429688 12.429688 12.429688h376.238281c6.863281 0 12.429688-5.566407 12.429688-12.429688v-32.957031c0-6.863281-5.566407-12.429688-12.429688-12.429688zm0 0" fill="#31363b"/><path d="m71.566406 434.625-37.003906-259.988281c-.855469-6.039063 3.828125-11.433594 9.925781-11.433594h328.136719c6.097656 0 10.78125 5.398437 9.921875 11.433594l-37.003906 259.988281c-.703125 4.9375-4.933594 8.609375-9.921875 8.609375h-254.132813c-4.988281 0-9.21875-3.671875-9.921875-8.609375zm0 0" fill="#d38231"/><path d="m372.625 163.203125h-46.503906l-39.855469 280.03125h49.355469c4.988281 0 9.21875-3.671875 9.921875-8.609375l37.003906-259.988281c.859375-6.035157-3.824219-11.433594-9.921875-11.433594zm0 0" fill="#c1752f"/><path d="m259.746094 246.765625c-22.019532-22.019531-62.789063-16.949219-91.0625 11.320313-28.273438 28.273437-33.34375 69.046874-11.324219 91.0625 22.019531 22.019531 62.789063 16.949218 91.0625-11.320313 28.273437-28.273437 33.34375-69.046875 11.324219-91.0625zm0 0" fill="#a0e557"/><path d="m396.675781 46.253906h-24.890625l-6.914062-33.527344c-1.523438-7.375-8.09375-12.726562-15.621094-12.726562h-281.386719c-7.53125 0-14.101562 5.351562-15.621093 12.726562l-6.917969 33.527344h-24.890625c-10.992188 0-19.933594 8.941406-19.933594 19.933594v32.957031c0 10.992188 8.941406 19.9375 19.933594 19.9375h9.78125l5.542968 38.949219c-1.679687.96875-3.210937 2.207031-4.511718 3.703125-3.328125 3.839844-4.828125 8.925781-4.113282 13.960937l37.003907 259.988282c1.019531 7.171875 6.40625 12.859375 13.210937 14.539062l5.265625 37.015625c2.011719 14.117188 14.277344 24.761719 28.535157 24.761719h194.816406c14.257812 0 26.523437-10.644531 28.535156-24.761719l5.265625-37.015625c6.804687-1.679687 12.191406-7.367187 13.210937-14.539062l37.003907-259.988282c.714843-5.035156-.785157-10.121093-4.113281-13.960937-1.300782-1.496094-2.832032-2.734375-4.515626-3.703125l5.546876-38.949219h9.78125c10.992187 0 19.933593-8.945312 19.933593-19.9375v-32.957031c-.003906-10.992188-8.945312-19.933594-19.9375-19.933594zm-21.5625 127.324219-37.003906 259.988281c-.175781 1.234375-1.246094 2.160156-2.488281 2.160156h-71.847656c-4.144532 0-7.503907 3.359376-7.503907 7.507813s3.359375 7.507813 7.503907 7.507813h60.753906l-4.894532 34.382812c-.964843 6.761719-6.839843 11.863281-13.671874 11.863281h-194.8125c-6.832032 0-12.707032-5.101562-13.671876-11.863281l-4.890624-34.382812h136.253906c4.148437 0 7.507812-3.359376 7.507812-7.507813s-3.359375-7.507813-7.507812-7.507813h-147.351563c-1.242187 0-2.3125-.925781-2.488281-2.160156l-37.003906-259.988281c-.140625-.988281.308594-1.679687.589844-2.003906.269531-.308594.855468-.800781 1.769531-.847657.101562-.003906.199219-.011718.304687-.019531h327.789063c.101562.007813.203125.015625.304687.019531.914063.046876 1.5.539063 1.769532.847657.28125.324219.730468 1.015625.589843 2.003906zm-329.730469-54.496094h326.347657l-5.210938 36.613281h-315.925781zm356.214844-19.9375c0 2.714844-2.207031 4.921875-4.921875 4.921875h-376.242187c-2.710938 0-4.921875-2.207031-4.921875-4.921875v-32.957031c0-2.714844 2.210937-4.921875 4.921875-4.921875h67.175781c4.144531 0 7.503906-3.359375 7.503906-7.507813 0-4.144531-3.359375-7.503906-7.503906-7.503906h-26.953125l6.289062-30.492187c.089844-.433594.476563-.75.917969-.75h281.386719c.441406 0 .828125.316406.917969.75l6.289062 30.492187h-233.914062c-4.148438 0-7.507813 3.359375-7.507813 7.503906 0 4.148438 3.359375 7.507813 7.507813 7.507813h274.132812c2.714844 0 4.921875 2.207031 4.921875 4.921875zm0 0"/><path d="m265.023438 241.421875c-.050782-.050781-.105469-.097656-.160157-.148437-24.953125-24.695313-70.410156-19.570313-101.484375 11.507812-14.851562 14.847656-24.320312 33.40625-26.664062 52.257812-2.433594 19.546876 3.015625 37.097657 15.339844 49.421876 0 .003906.003906.003906.007812.007812.019531.019531.039062.039062.058594.054688 10.398437 10.363281 24.496094 15.84375 40.375 15.84375 2.933594 0 5.933594-.191407 8.976562-.566407 18.851563-2.34375 37.410156-11.816406 52.261719-26.664062 31.152344-31.15625 36.234375-76.769531 11.324219-101.679688-.011719-.015625-.023438-.023437-.035156-.035156zm-113.410157 65.46875c1.933594-15.550781 9.882813-30.996094 22.378907-43.496094 14.972656-14.972656 33.71875-22.863281 50.480468-22.863281 7.703125 0 14.980469 1.675781 21.285156 5.089844-12.605468 7.488281-32.179687 22.21875-38.132812 44.050781-5.179688 18.980469-33.28125 40.007813-48.703125 49.757813-6.28125-8.628907-8.875-19.957032-7.308594-32.539063zm91.503907 25.628906c-12.5 12.5-27.945313 20.445313-43.496094 22.378907-10.984375 1.367187-21.015625-.433594-29.128906-5.089844 15.480468-10.21875 45.132812-32.414063 51.617187-56.1875 5.292969-19.417969 26.214844-32.492188 35.769531-37.574219 14.859375 19.78125 8.875 52.832031-14.761718 76.472656zm0 0"/></svg>