<?xml version="1.0" encoding="iso-8859-1"?>
<!-- Generator: Adobe Illustrator 19.0.0, SVG Export Plug-In . SVG Version: 6.00 Build 0)  -->
<svg version="1.1" id="Capa_1" xmlns="http://www.w3.org/2000/svg" xmlns:xlink="http://www.w3.org/1999/xlink" x="0px" y="0px"
	 viewBox="0 0 512 512" style="enable-background:new 0 0 512 512;" xml:space="preserve">
<path style="fill:#FFC350;" d="M488.468,111.71H23.532c-8.854,0-16.032,7.178-16.032,16.032v70.567
	c0,4.041,1.987,7.882,5.424,10.007C28.9,218.198,39.565,235.833,39.565,256c0,20.166-10.665,37.802-26.641,47.684
	C9.487,305.809,7.5,309.65,7.5,313.691v70.567c0,8.854,7.178,16.032,16.032,16.032h464.935c8.854,0,16.032-7.178,16.032-16.032
	V127.742C504.5,118.887,497.322,111.71,488.468,111.71z"/>
<path style="fill:#FFD164;" d="M472.435,376.242H151.79c-4.427,0-8.016-3.589-8.016-8.016V143.775c0-4.427,3.589-8.016,8.016-8.016
	h320.645c4.427,0,8.016,3.589,8.016,8.016v224.452C480.452,372.654,476.863,376.242,472.435,376.242z"/>
<path style="fill:#FFFFFF;" d="M305.48,311.396l-41.55,26.085c-9.157,5.749-20.648-2.6-18.01-13.085l11.969-47.577l-37.648-31.455
	c-8.297-6.932-3.908-20.441,6.879-21.172l48.947-3.319l18.282-45.526c4.029-10.033,18.233-10.033,22.262,0l18.282,45.526
	l48.947,3.319c10.787,0.731,15.177,14.24,6.879,21.172l-37.648,31.455l11.969,47.577c2.638,10.485-8.853,18.834-18.01,13.085
	L305.48,311.396z"/>
<path style="fill:#FFF6D8;" d="M359.826,303.673c-51.943-3.175-95.982-35.329-116.106-80.606l-16.6,1.125
	c-10.787,0.731-15.177,14.24-6.879,21.172l37.648,31.455l-11.969,47.577c-2.638,10.485,8.853,18.834,18.01,13.085l41.55-26.085
	l41.549,26.085c9.157,5.749,20.648-2.599,18.01-13.085L359.826,303.673z"/>
<path d="M488.468,104.209H23.532C10.557,104.209,0,114.766,0,127.742v70.567c0,6.681,3.44,12.96,8.979,16.386
	c14.456,8.941,23.086,24.382,23.086,41.305s-8.63,32.364-23.087,41.305C3.44,300.731,0,307.01,0,313.691v70.567
	c0,12.976,10.557,23.532,23.532,23.532h464.936c12.976,0,23.532-10.557,23.532-23.532V127.742
	C512,114.766,501.443,104.209,488.468,104.209z M497,384.258c0,4.705-3.827,8.532-8.532,8.532H119.21v-0.516
	c0-4.142-3.357-7.5-7.5-7.5s-7.5,3.358-7.5,7.5v0.516H23.532c-4.705,0-8.532-3.828-8.532-8.532v-70.567
	c0-1.525,0.717-2.916,1.869-3.629C35.776,298.368,47.064,278.158,47.064,256s-11.288-42.368-30.195-54.062
	c-1.152-0.714-1.869-2.104-1.869-3.63v-70.567c0-4.705,3.827-8.532,8.532-8.532h80.678v0.516c0,4.142,3.357,7.5,7.5,7.5
	s7.5-3.358,7.5-7.5v-0.516h369.258c4.705,0,8.532,3.828,8.532,8.532V384.258z"/>
<path d="M111.71,240.484c-4.143,0-7.5,3.358-7.5,7.5v16.032c0,4.142,3.357,7.5,7.5,7.5s7.5-3.358,7.5-7.5v-16.032
	C119.21,243.842,115.853,240.484,111.71,240.484z"/>
<path d="M111.71,144.292c-4.143,0-7.5,3.358-7.5,7.5v16.032c0,4.142,3.357,7.5,7.5,7.5s7.5-3.358,7.5-7.5v-16.032
	C119.21,147.648,115.853,144.292,111.71,144.292z"/>
<path d="M111.71,192.387c-4.143,0-7.5,3.358-7.5,7.5v16.032c0,4.142,3.357,7.5,7.5,7.5s7.5-3.358,7.5-7.5v-16.032
	C119.21,195.745,115.853,192.387,111.71,192.387z"/>
<path d="M111.71,288.581c-4.143,0-7.5,3.358-7.5,7.5v16.032c0,4.142,3.357,7.5,7.5,7.5s7.5-3.358,7.5-7.5v-16.032
	C119.21,291.938,115.853,288.581,111.71,288.581z"/>
<path d="M111.71,336.677c-4.143,0-7.5,3.358-7.5,7.5v16.032c0,4.142,3.357,7.5,7.5,7.5s7.5-3.358,7.5-7.5v-16.032
	C119.21,340.035,115.853,336.677,111.71,336.677z"/>
<path d="M384.348,216.71l-44.25-3l-16.526-41.156c-2.984-7.43-10.085-12.23-18.092-12.23s-15.107,4.801-18.09,12.23l-16.527,41.156
	l-44.25,3c-7.987,0.542-14.747,5.812-17.221,13.426c-2.475,7.615-0.104,15.852,6.041,20.985l34.035,28.437l-10.821,43.011
	c-1.953,7.764,0.97,15.822,7.447,20.527c6.477,4.705,15.043,4.996,21.824,0.739l37.563-23.582l37.562,23.581
	c3.196,2.007,6.788,3.003,10.372,3.003c4.019,0,8.027-1.253,11.452-3.741c6.478-4.706,9.4-12.764,7.447-20.528l-10.82-43.011
	l34.034-28.436c6.145-5.133,8.516-13.37,6.042-20.984C399.096,222.521,392.335,217.25,384.348,216.71z M385.91,239.609
	l-37.647,31.456c-2.209,1.846-3.167,4.793-2.465,7.585l11.969,47.577c0.669,2.66-0.978,4.196-1.717,4.733
	c-0.74,0.537-2.711,1.627-5.032,0.17l-41.55-26.085c-2.438-1.53-5.537-1.53-7.975,0l-41.551,26.085
	c-2.324,1.459-4.294,0.367-5.032-0.17c-0.739-0.537-2.386-2.073-1.717-4.732l11.97-47.577c0.702-2.792-0.255-5.74-2.465-7.585
	l-37.648-31.456c-2.104-1.759-1.675-3.97-1.393-4.839c0.282-0.869,1.234-2.91,3.971-3.095l48.947-3.319
	c2.872-0.195,5.379-2.017,6.452-4.688l18.282-45.526c1.021-2.544,3.257-2.819,4.17-2.819c0.914,0,3.15,0.275,4.172,2.82
	l18.281,45.525c1.073,2.671,3.58,4.493,6.452,4.688l48.947,3.319c2.736,0.186,3.688,2.227,3.972,3.096
	C387.586,235.641,388.015,237.85,385.91,239.609z"/>
<g>
</g>
<g>
</g>
<g>
</g>
<g>
</g>
<g>
</g>
<g>
</g>
<g>
</g>
<g>
</g>
<g>
</g>
<g>
</g>
<g>
</g>
<g>
</g>
<g>
</g>
<g>
</g>
<g>
</g>
</svg>
