<svg viewBox="0 0 512 512" xmlns="http://www.w3.org/2000/svg"><path d="M488.468 111.71H23.532c-8.854 0-16.032 7.178-16.032 16.032v70.567c0 4.041 1.987 7.882 5.424 10.007C28.9 218.198 39.565 235.833 39.565 256c0 20.166-10.665 37.802-26.641 47.684-3.437 2.125-5.424 5.966-5.424 10.007v70.567c0 8.854 7.178 16.032 16.032 16.032h464.935c8.854 0 16.032-7.178 16.032-16.032V127.742c.001-8.855-7.177-16.032-16.031-16.032z" fill="#ffc350"/><path d="M472.435 376.242H151.79a8.016 8.016 0 0 1-8.016-8.016V143.775a8.016 8.016 0 0 1 8.016-8.016h320.645a8.016 8.016 0 0 1 8.016 8.016v224.452a8.014 8.014 0 0 1-8.016 8.015z" fill="#ffd164"/><path d="M305.48 311.396l-41.55 26.085c-9.157 5.749-20.648-2.6-18.01-13.085l11.969-47.577-37.648-31.455c-8.297-6.932-3.908-20.441 6.879-21.172l48.947-3.319 18.282-45.526c4.029-10.033 18.233-10.033 22.262 0l18.282 45.526 48.947 3.319c10.787.731 15.177 14.24 6.879 21.172l-37.648 31.455 11.969 47.577c2.638 10.485-8.853 18.834-18.01 13.085z" fill="#fff"/><path d="M359.826 303.673c-51.943-3.175-95.982-35.329-116.106-80.606l-16.6 1.125c-10.787.731-15.177 14.24-6.879 21.172l37.648 31.455-11.969 47.577c-2.638 10.485 8.853 18.834 18.01 13.085l41.55-26.085 41.549 26.085c9.157 5.749 20.648-2.599 18.01-13.085z" fill="#fff6d8"/><path d="M488.468 104.209H23.532C10.557 104.209 0 114.766 0 127.742v70.567c0 6.681 3.44 12.96 8.979 16.386 14.456 8.941 23.086 24.382 23.086 41.305s-8.63 32.364-23.087 41.305C3.44 300.731 0 307.01 0 313.691v70.567c0 12.976 10.557 23.532 23.532 23.532h464.936c12.976 0 23.532-10.557 23.532-23.532V127.742c0-12.976-10.557-23.533-23.532-23.533zM497 384.258c0 4.705-3.827 8.532-8.532 8.532H119.21v-.516c0-4.142-3.357-7.5-7.5-7.5s-7.5 3.358-7.5 7.5v.516H23.532c-4.705 0-8.532-3.828-8.532-8.532v-70.567c0-1.525.717-2.916 1.869-3.629C35.776 298.368 47.064 278.158 47.064 256s-11.288-42.368-30.195-54.062c-1.152-.714-1.869-2.104-1.869-3.63v-70.567c0-4.705 3.827-8.532 8.532-8.532h80.678v.516c0 4.142 3.357 7.5 7.5 7.5s7.5-3.358 7.5-7.5v-.516h369.258c4.705 0 8.532 3.828 8.532 8.532z"/><path d="M111.71 240.484a7.5 7.5 0 0 0-7.5 7.5v16.032c0 4.142 3.357 7.5 7.5 7.5s7.5-3.358 7.5-7.5v-16.032a7.5 7.5 0 0 0-7.5-7.5zm0-96.192a7.5 7.5 0 0 0-7.5 7.5v16.032c0 4.142 3.357 7.5 7.5 7.5s7.5-3.358 7.5-7.5v-16.032c0-4.144-3.357-7.5-7.5-7.5zm0 48.095a7.5 7.5 0 0 0-7.5 7.5v16.032c0 4.142 3.357 7.5 7.5 7.5s7.5-3.358 7.5-7.5v-16.032a7.5 7.5 0 0 0-7.5-7.5zm0 96.194a7.5 7.5 0 0 0-7.5 7.5v16.032c0 4.142 3.357 7.5 7.5 7.5s7.5-3.358 7.5-7.5v-16.032c0-4.143-3.357-7.5-7.5-7.5zm0 48.096a7.5 7.5 0 0 0-7.5 7.5v16.032c0 4.142 3.357 7.5 7.5 7.5s7.5-3.358 7.5-7.5v-16.032a7.5 7.5 0 0 0-7.5-7.5zM384.348 216.71l-44.25-3-16.526-41.156c-2.984-7.43-10.085-12.23-18.092-12.23s-15.107 4.801-18.09 12.23l-16.527 41.156-44.25 3c-7.987.542-14.747 5.812-17.221 13.426-2.475 7.615-.104 15.852 6.041 20.985l34.035 28.437-10.821 43.011c-1.953 7.764.97 15.822 7.447 20.527s15.043 4.996 21.824.739l37.563-23.582 37.562 23.581a19.47 19.47 0 0 0 10.372 3.003c4.019 0 8.027-1.253 11.452-3.741 6.478-4.706 9.4-12.764 7.447-20.528l-10.82-43.011 34.034-28.436c6.145-5.133 8.516-13.37 6.042-20.984-2.474-7.616-9.235-12.887-17.222-13.427zm1.562 22.899l-37.647 31.456a7.501 7.501 0 0 0-2.465 7.585l11.969 47.577c.669 2.66-.978 4.196-1.717 4.733-.74.537-2.711 1.627-5.032.17l-41.55-26.085a7.502 7.502 0 0 0-7.975 0l-41.551 26.085c-2.324 1.459-4.294.367-5.032-.17-.739-.537-2.386-2.073-1.717-4.732l11.97-47.577a7.498 7.498 0 0 0-2.465-7.585L225.05 239.61c-2.104-1.759-1.675-3.97-1.393-4.839s1.234-2.91 3.971-3.095l48.947-3.319a7.501 7.501 0 0 0 6.452-4.688l18.282-45.526c1.021-2.544 3.257-2.819 4.17-2.819.914 0 3.15.275 4.172 2.82l18.281 45.525a7.501 7.501 0 0 0 6.452 4.688l48.947 3.319c2.736.186 3.688 2.227 3.972 3.096.283.869.712 3.078-1.393 4.837z"/></svg>