<svg xmlns="http://www.w3.org/2000/svg" viewBox="0 0 364.31 364.31"><path d="M296.24 112.704v19.02c-11.57 0-22.04-4.69-29.62-12.27s-12.27-18.05-12.27-29.62v-30.33c24.57 5.93 41.89 27.92 41.89 53.2zm-186.28-53.2v30.33c0 11.57-4.69 22.04-12.27 29.62s-18.05 12.27-29.62 12.27v-19.02c0-25.28 17.32-47.27 41.89-53.2z" fill="#E54728"/><path d="M313.37 128.074a41.853 41.853 0 0 1-17.13 3.65v-19.02c0-25.28-17.32-47.27-41.89-53.2v-52h1.44c45.48 0 82.34 36.86 82.34 82.33 0 11.57-4.69 22.04-12.27 29.62a42.002 42.002 0 0 1-12.49 8.62zm-262.42 0a41.92 41.92 0 0 1-12.5-8.62c-7.58-7.58-12.27-18.05-12.27-29.62 0-45.47 36.87-82.33 82.34-82.33h1.44v52c-24.57 5.93-41.89 27.92-41.89 53.2v19.02c-6.1 0-11.89-1.3-17.12-3.65zm154.01 33.12c35.35 5.69 66.34 24.44 87.86 51.13 12.71 15.76 22.12 34.28 27.18 54.53h-53.33c-16.7 29.4-48.28 49.25-84.51 49.25-24.4 0-46.69-9-63.75-23.86a97.538 97.538 0 0 1-20.77-25.39H44.31c5.07-20.25 14.48-38.77 27.18-54.53 21.52-26.69 52.51-45.44 87.86-51.13a141.75 141.75 0 0 1 22.81-1.83c7.76 0 15.38.62 22.8 1.83z" fill="#F95428"/><path d="M177.41 292.244a97.799 97.799 0 0 1-13.976-15.024c-4.923-6.558-12.686-10.366-20.885-10.366-20.638 0-33.096-22.665-22.218-40.203 3.095-4.99 6.49-9.774 10.159-14.327 20.15-24.991 48.604-43.02 81.165-49.885a140.551 140.551 0 0 0-6.695-1.245c-7.42-1.21-15.04-1.83-22.8-1.83-7.77 0-15.38.62-22.81 1.83-35.35 5.69-66.34 24.44-87.86 51.13-12.7 15.76-22.11 34.28-27.18 54.53h53.33a97.538 97.538 0 0 0 20.77 25.39c17.06 14.86 39.35 23.86 63.75 23.86a96.99 96.99 0 0 0 29.521-4.576 96.993 96.993 0 0 1-34.271-19.284z" fill="#E54728"/><path d="M244.588 207.458a7.462 7.462 0 0 1-3.918-1.11c-17.561-10.785-37.795-16.485-58.515-16.485-4.143 0-7.5-3.358-7.5-7.5s3.357-7.5 7.5-7.5c23.493 0 46.441 6.468 66.364 18.704a7.5 7.5 0 0 1-3.931 13.891zm70.54-110.125a7.5 7.5 0 0 1-7.5-7.5c0-13.904-5.455-26.97-15.36-36.791a7.5 7.5 0 0 1 10.56-10.651c12.769 12.659 19.8 29.508 19.8 47.443a7.5 7.5 0 0 1-7.5 7.499zM86.961 51.924a7.5 7.5 0 0 1-7.5-7.5v-9.872c0-4.142 3.357-7.5 7.5-7.5s7.5 3.358 7.5 7.5v9.872a7.5 7.5 0 0 1-7.5 7.5z" fill="#FFFFFF"/><circle cx="277.35" cy="34.552" r="7.5" fill="#FFFFFF"/><path d="M85.172 231.166a7.501 7.501 0 0 0 8.207 12.556c24.566-16.056 56.095-24.898 88.776-24.898 32.676 0 64.2 8.842 88.767 24.898a7.494 7.494 0 0 0 10.382-2.175 7.5 7.5 0 0 0-2.175-10.381c-26.979-17.632-61.418-27.342-96.974-27.342-35.562 0-70.005 9.71-96.983 27.342z" fill="#333333"/><path d="M354.301 280.599l-27.771-18.417a149.213 149.213 0 0 0-21.412-46.08c9.827-3.417 15.506-5.75 15.81-5.875a7.5 7.5 0 0 0 4.589-6.075c.136-1.185 3.126-28.48-3.865-71.986 14.354-8.649 23.977-24.386 23.977-42.332C345.628 40.299 305.329 0 255.795 0h-1.444a7.5 7.5 0 0 0-7.5 7.5v82.334c0 27.233 22.155 49.389 49.389 49.389 3.829 0 7.552-.452 11.133-1.281 4.499 29.791 4.063 51.286 3.571 60.087a424.41 424.41 0 0 1-15.542 5.542 149.369 149.369 0 0 0-79.114-47.797l2.414-3.832a7.5 7.5 0 0 0-12.692-7.996l-5.68 9.017c-5.97-.723-12.035-1.1-18.174-1.1-6.139 0-12.204.377-18.173 1.1l-5.68-9.017a7.5 7.5 0 0 0-12.692 7.996l2.414 3.832a149.377 149.377 0 0 0-79.116 47.799 423.45 423.45 0 0 1-15.548-5.547c-.499-8.776-.943-30.189 3.578-60.085a49.295 49.295 0 0 0 11.134 1.281c27.233 0 49.389-22.156 49.389-49.389V7.5a7.5 7.5 0 0 0-7.5-7.5h-1.444C58.982 0 18.683 40.299 18.683 89.834c0 17.945 9.622 33.681 23.975 42.331-6.99 43.506-4.001 70.802-3.865 71.986a7.498 7.498 0 0 0 4.589 6.075c.304.125 5.985 2.459 15.809 5.876a149.226 149.226 0 0 0-21.41 46.079L10.01 280.599a7.5 7.5 0 0 0-3.354 6.25v26c0 4.142 3.357 7.5 7.5 7.5s7.5-3.358 7.5-7.5v-21.974l24.919-16.526h32.962L37.596 316.29a7.5 7.5 0 0 0-1.944 7.233l7.256 27.256a7.505 7.505 0 0 0 7.243 5.573 7.5 7.5 0 0 0 7.253-9.431l-6.145-23.08 45.067-45.066a104.574 104.574 0 0 0 12.578 14.849l-23.212 39.421a7.499 7.499 0 0 0 .035 7.67l12 19.96a7.498 7.498 0 0 0 10.292 2.564 7.499 7.499 0 0 0 2.563-10.292l-9.7-16.135 19.635-33.346c17.64 12.856 39.156 20.137 61.638 20.137 22.483 0 44-7.28 61.639-20.135l19.634 33.345-9.7 16.135a7.5 7.5 0 1 0 12.855 7.728l12-19.96a7.499 7.499 0 0 0 .035-7.67l-23.21-39.419a104.59 104.59 0 0 0 12.579-14.85l45.066 45.066-6.145 23.079a7.498 7.498 0 0 0 7.252 9.431 7.503 7.503 0 0 0 7.242-5.572l7.257-27.256a7.502 7.502 0 0 0-1.943-7.233l-41.941-41.941h32.962l24.918 16.525v21.975c0 4.142 3.357 7.5 7.5 7.5s7.5-3.358 7.5-7.5v-26a7.502 7.502 0 0 0-3.354-6.252zM330.628 89.834c0 16.386-11.523 30.122-26.889 33.555v-10.686c0-26.835-16.952-50.224-41.889-58.807V15.243c38.444 3.091 68.778 35.365 68.778 74.591zm-68.778 0V70.067c16.21 7.695 26.889 24.081 26.889 42.636v10.686c-15.366-3.433-26.889-17.17-26.889-33.555zM75.572 123.389v-10.686c0-18.555 10.678-34.941 26.889-42.636v19.767c0 16.385-11.523 30.122-26.889 33.555zm26.889-108.146v38.653c-24.937 8.584-41.889 31.972-41.889 58.807v10.686c-15.366-3.433-26.889-17.17-26.889-33.555 0-39.226 30.334-71.5 68.778-74.591zm164.208 244.106a7.497 7.497 0 0 0-6.521 3.797c-15.92 28.037-45.805 45.454-77.992 45.454-32.185 0-62.068-17.417-77.99-45.454a7.498 7.498 0 0 0-6.521-3.796H54.276c17.984-54.918 69.255-92.486 127.879-92.486s109.896 37.568 127.88 92.486h-43.366z" fill="#333333"/></svg>