<?xml version="1.0" encoding="iso-8859-1"?>
<!-- Generator: Adobe Illustrator 19.0.0, SVG Export Plug-In . SVG Version: 6.00 Build 0)  -->
<svg xmlns="http://www.w3.org/2000/svg" xmlns:xlink="http://www.w3.org/1999/xlink" version="1.1" id="Layer_1" x="0px" y="0px" viewBox="0 0 364.31 364.31" style="enable-background:new 0 0 364.31 364.31;" xml:space="preserve" width="512" height="512">
<g>
	<path style="fill:#E54728;" d="M296.24,112.704v19.02c-11.57,0-22.04-4.69-29.62-12.27s-12.27-18.05-12.27-29.62v-30.33   C278.92,65.434,296.24,87.424,296.24,112.704z"/>
	<path style="fill:#E54728;" d="M109.96,59.504v30.33c0,11.57-4.69,22.04-12.27,29.62s-18.05,12.27-29.62,12.27v-19.02   C68.07,87.424,85.39,65.434,109.96,59.504z"/>
	<path style="fill:#F95428;" d="M313.37,128.074c-5.23,2.34-11.03,3.65-17.13,3.65v-19.02c0-25.28-17.32-47.27-41.89-53.2v-52h1.44   c45.48,0,82.34,36.86,82.34,82.33c0,11.57-4.69,22.04-12.27,29.62C322.28,123.034,318.05,125.974,313.37,128.074z"/>
	<path style="fill:#F95428;" d="M50.95,128.074c-4.69-2.1-8.92-5.04-12.5-8.62c-7.58-7.58-12.27-18.05-12.27-29.62   c0-45.47,36.87-82.33,82.34-82.33h1.44v52c-24.57,5.93-41.89,27.92-41.89,53.2v19.02C61.97,131.724,56.18,130.424,50.95,128.074z"/>
	<path style="fill:#F95428;" d="M204.96,161.194c35.35,5.69,66.34,24.44,87.86,51.13c12.71,15.76,22.12,34.28,27.18,54.53h-47.97   h-5.36c-16.7,29.4-48.28,49.25-84.51,49.25c-24.4,0-46.69-9-63.75-23.86c-8.28-7.21-15.32-15.79-20.77-25.39H44.31   c5.07-20.25,14.48-38.77,27.18-54.53c21.52-26.69,52.51-45.44,87.86-51.13c7.43-1.21,15.04-1.83,22.81-1.83   C189.92,159.364,197.54,159.984,204.96,161.194z"/>
	<path style="fill:#E54728;" d="M177.41,292.244c-5.17-4.502-9.857-9.539-13.976-15.024c-4.923-6.558-12.686-10.366-20.885-10.366h0   c-20.638,0-33.096-22.665-22.218-40.203c3.095-4.99,6.49-9.774,10.159-14.327c20.15-24.991,48.604-43.02,81.165-49.885   c-2.213-0.467-4.445-0.883-6.695-1.245c-7.42-1.21-15.04-1.83-22.8-1.83c-7.77,0-15.38,0.62-22.81,1.83   c-35.35,5.69-66.34,24.44-87.86,51.13c-12.7,15.76-22.11,34.28-27.18,54.53h53.33c5.45,9.6,12.49,18.18,20.77,25.39   c17.06,14.86,39.35,23.86,63.75,23.86c10.295,0,20.212-1.607,29.521-4.576C198.912,307.461,187.281,300.842,177.41,292.244z"/>
	<path style="fill:#FFFFFF;" d="M244.588,207.458c-1.339,0-2.694-0.358-3.918-1.11c-17.561-10.785-37.795-16.485-58.515-16.485   c-4.143,0-7.5-3.358-7.5-7.5s3.357-7.5,7.5-7.5c23.493,0,46.441,6.468,66.364,18.704c3.53,2.168,4.634,6.786,2.466,10.316   C249.57,206.188,247.108,207.458,244.588,207.458z"/>
	<path style="fill:#FFFFFF;" d="M315.128,97.333c-4.143,0-7.5-3.358-7.5-7.5c0-13.904-5.455-26.97-15.36-36.791   c-2.941-2.916-2.962-7.665-0.046-10.606c2.918-2.942,7.667-2.961,10.606-0.045c12.769,12.659,19.8,29.508,19.8,47.443   C322.628,93.976,319.27,97.333,315.128,97.333z"/>
	<path style="fill:#FFFFFF;" d="M86.961,51.924c-4.143,0-7.5-3.358-7.5-7.5v-9.872c0-4.142,3.357-7.5,7.5-7.5s7.5,3.358,7.5,7.5   v9.872C94.461,48.566,91.103,51.924,86.961,51.924z"/>
	<circle style="fill:#FFFFFF;" cx="277.35" cy="34.552" r="7.5"/>
	<g>
		<path style="fill:#333333;" d="M85.172,231.166c-3.467,2.266-4.44,6.914-2.175,10.381c2.268,3.468,6.911,4.44,10.382,2.175    c24.566-16.056,56.095-24.898,88.776-24.898c32.676,0,64.2,8.842,88.767,24.898c1.267,0.827,2.689,1.223,4.097,1.223    c2.447,0,4.847-1.197,6.285-3.398c2.266-3.467,1.292-8.115-2.175-10.381c-26.979-17.632-61.418-27.342-96.974-27.342    C146.593,203.824,112.15,213.534,85.172,231.166z"/>
		<path style="fill:#333333;" d="M354.301,280.599l-27.771-18.417c-4.56-16.837-11.886-32.342-21.412-46.08    c9.827-3.417,15.506-5.75,15.81-5.875c2.521-1.041,4.277-3.366,4.589-6.075c0.136-1.185,3.126-28.48-3.865-71.986    c14.354-8.649,23.977-24.386,23.977-42.332C345.628,40.299,305.329,0,255.795,0h-1.444c-4.143,0-7.5,3.358-7.5,7.5v82.334    c0,27.233,22.155,49.389,49.389,49.389c3.829,0,7.552-0.452,11.133-1.281c4.499,29.791,4.063,51.286,3.571,60.087    c-3.39,1.29-8.697,3.241-15.542,5.542c-20.453-23.663-48.069-40.57-79.114-47.797l2.414-3.832    c2.208-3.505,1.156-8.136-2.349-10.344c-3.504-2.208-8.135-1.157-10.343,2.348l-5.68,9.017c-5.97-0.723-12.035-1.1-18.174-1.1    c-6.139,0-12.204,0.377-18.173,1.1l-5.68-9.017c-2.208-3.505-6.838-4.556-10.343-2.348c-3.505,2.208-4.557,6.839-2.349,10.344    l2.414,3.832c-31.045,7.227-58.663,24.136-79.116,47.799c-6.848-2.303-12.158-4.256-15.548-5.547    c-0.499-8.776-0.943-30.189,3.578-60.085c3.581,0.829,7.304,1.281,11.134,1.281c27.233,0,49.389-22.156,49.389-49.389V7.5    c0-4.142-3.357-7.5-7.5-7.5h-1.444C58.982,0,18.683,40.299,18.683,89.834c0,17.945,9.622,33.681,23.975,42.331    c-6.99,43.506-4.001,70.802-3.865,71.986c0.312,2.709,2.068,5.035,4.589,6.075c0.304,0.125,5.985,2.459,15.809,5.876    c-9.525,13.738-16.85,29.242-21.41,46.079L10.01,280.599c-2.095,1.39-3.354,3.736-3.354,6.25v26c0,4.142,3.357,7.5,7.5,7.5    s7.5-3.358,7.5-7.5v-21.974l24.919-16.526h32.962L37.596,316.29c-1.892,1.892-2.632,4.647-1.944,7.233l7.256,27.256    c0.894,3.356,3.927,5.573,7.243,5.573c0.639,0,1.288-0.082,1.935-0.254c4.002-1.065,6.384-5.174,5.318-9.177l-6.145-23.08    l45.067-45.066c3.75,5.37,7.966,10.333,12.578,14.849l-23.212,39.421c-1.396,2.37-1.382,5.313,0.035,7.67l12,19.96    c1.407,2.34,3.89,3.637,6.435,3.637c1.315,0,2.648-0.346,3.857-1.073c3.55-2.134,4.698-6.742,2.563-10.292l-9.7-16.135    l19.635-33.346c17.64,12.856,39.156,20.137,61.638,20.137c22.483,0,44-7.28,61.639-20.135l19.634,33.345l-9.7,16.135    c-2.135,3.55-0.986,8.158,2.563,10.292c1.21,0.727,2.541,1.073,3.857,1.073c2.545,0,5.027-1.297,6.435-3.637l12-19.96    c1.417-2.357,1.431-5.3,0.035-7.67l-23.21-39.419c4.612-4.516,8.829-9.48,12.579-14.85l45.066,45.066l-6.145,23.079    c-1.066,4.003,1.314,8.112,5.317,9.177c0.646,0.172,1.296,0.254,1.935,0.254c3.315,0,6.349-2.216,7.242-5.572l7.257-27.256    c0.688-2.585-0.052-5.341-1.943-7.233l-41.941-41.941h32.962l24.918,16.525v21.975c0,4.142,3.357,7.5,7.5,7.5s7.5-3.358,7.5-7.5    v-26C357.655,284.335,356.395,281.988,354.301,280.599z M330.628,89.834c0,16.386-11.523,30.122-26.889,33.555v-10.686    c0-26.835-16.952-50.224-41.889-58.807V15.243C300.294,18.334,330.628,50.608,330.628,89.834z M261.85,89.834V70.067    c16.21,7.695,26.889,24.081,26.889,42.636v10.686C273.373,119.956,261.85,106.219,261.85,89.834z M75.572,123.389v-10.686    c0-18.555,10.678-34.941,26.889-42.636v19.767C102.461,106.219,90.938,119.956,75.572,123.389z M102.461,15.243v38.653    c-24.937,8.584-41.889,31.972-41.889,58.807v10.686c-15.366-3.433-26.889-17.17-26.889-33.555    C33.683,50.608,64.017,18.334,102.461,15.243z M266.669,259.349c-2.699,0-5.189,1.45-6.521,3.797    c-15.92,28.037-45.805,45.454-77.992,45.454c-32.185,0-62.068-17.417-77.99-45.454c-1.332-2.347-3.823-3.796-6.521-3.796H54.276    c17.984-54.918,69.255-92.486,127.879-92.486s109.896,37.568,127.88,92.486H266.669z"/>
	</g>
</g>















</svg>
