<svg viewBox="0 -112 512 512" xmlns="http://www.w3.org/2000/svg"><path d="M422.89 94.926s68.77 43.57 72.915 83.207c4.144 39.64-58.907 73.449-135.844 48.484-22.469-7.293 41.633-89.894 62.93-131.691zm0 0" fill="#ffc943"/><path d="M495.809 178.133c-4.145-39.637-72.914-83.207-72.914-83.207-2.387 4.683-5.317 9.883-8.594 15.426 20.562 16.21 48.89 42.777 51.508 67.78 2.843 27.212-25.977 51.673-69.215 56.263 59.242 5.886 102.676-23.149 99.215-56.262zm0 0" fill="#ffaa16"/><path d="M89.113 94.926s-68.77 43.57-72.914 83.207c-4.144 39.64 57.371 73.449 134.309 48.484 22.469-7.293-40.098-89.894-61.395-131.691zm0 0" fill="#ffc943"/><path d="M89.113 94.926s-24.261 15.37-44.832 36.16c23.617 41.031 36.809 65.5 74.606 102.75 10.136-1.328 20.722-3.684 31.62-7.219 22.47-7.293-40.097-89.894-61.394-131.691zm0 0" fill="#ffaa16"/><path d="M171.156 36.668S103.344 50.051 65.738 93.801c0 0 38.88 101.406 84.77 137.937 0 0 28.297 16.758 55.59-6.886 4.39-3.805-16.91-82.094-34.942-188.184zm0 0" fill="#ffc943"/><path d="M171.156 36.668s-21.16 4.18-46.39 15.488c11.554 86.106 28.695 123.848 61.894 183.531 6.266-1.808 12.88-5.156 19.438-10.835 4.39-3.805-16.91-82.094-34.942-188.184zm0 0" fill="#ffaa16"/><path d="M340.848 36.668s67.816 13.383 105.418 57.133c0 0-38.88 101.406-84.766 137.937 0 0-28.3 16.758-55.594-6.886-4.39-3.805 16.91-82.094 34.942-188.184zm0 0" fill="#ffc943"/><path d="M340.848 36.668a1862.07 1862.07 0 0 1-1.653 9.598c20.309 7.613 46.446 20.351 66.586 40.265 4.242 4.196 5.535 10.535 3.242 16.043-10.578 25.41-43.535 99.164-81.218 129.164 0 0-2.262 1.34-6.118 2.727 21.426 8.156 39.81-2.727 39.81-2.727 45.89-36.531 84.769-137.937 84.769-137.937-37.606-43.75-105.418-57.133-105.418-57.133zm0 0" fill="#ffaa16"/><path d="M256.004 7.5c-66.258.133-99.3 20.96-99.3 20.96s16.32 172.95 37.698 190.388c21.38 17.441 101.82 17.441 123.2 0C338.98 201.41 355.3 28.46 355.3 28.46S322.26 7.633 256.004 7.5zm0 0" fill="#ffc943"/><path d="M283.379 8.809c10.59 2.28 19.23 4.949 25.922 7.41 10.261 3.777 16.648 14.027 15.476 24.902-4.754 44.066-18.707 159.27-35.949 173.336-12.723 10.379-46.379 14.582-76.043 12.602 32.137 8.562 87.61 5.828 104.817-8.211C338.98 201.406 355.3 28.457 355.3 28.457s-23.95-15.074-71.922-19.648zm0 0" fill="#ffaa16"/><path d="M478.5 254.5h-445c-14.36 0-26-11.64-26-26a4 4 0 0 1 4-4h489a4 4 0 0 1 4 4c0 14.36-11.64 26-26 26zm0 0" fill="#fff"/><path d="M500.5 224.5h-30a4 4 0 0 1 4 4c0 14.36-11.64 26-26 26h30c14.36 0 26-11.64 26-26a4 4 0 0 0-4-4zm0 0" fill="#e2ebf9"/><path d="M396 280.5H116c-11.047 0-20-8.953-20-20v-6h320v6c0 11.047-8.953 20-20 20zm0 0" fill="#c1c8d2"/><path d="M500.5 217h-13.23c11.726-11.254 17.52-25.137 16-39.652-2.778-26.496-29.637-53.32-53.493-72.23 2.215-5.325 3.418-8.462 3.485-8.63a7.506 7.506 0 0 0-1.313-7.578c-26.023-30.277-65.23-46.539-89.722-54.258.347-3.441.53-5.379.543-5.496a7.503 7.503 0 0 0-3.47-7.039C357.876 21.22 323.657.133 255.985 0 188.344.133 154.125 21.219 152.7 22.117a7.5 7.5 0 0 0-3.465 7.04c.008.116.192 2.058.54 5.495-24.5 7.727-63.715 24-89.72 54.258a7.499 7.499 0 0 0-1.316 7.578c.067.168 1.274 3.305 3.489 8.63-23.86 18.913-50.72 45.737-53.485 72.234-1.52 14.52 4.145 28.406 15.649 39.648H11.5C5.16 217 0 222.16 0 228.5 0 246.973 15.027 262 33.5 262h55.04c.78 14.469 12.8 26 27.46 26h280c14.66 0 26.68-11.531 27.46-26h55.04c18.473 0 33.5-15.027 33.5-33.5 0-6.34-5.16-11.5-11.5-11.5zM437.574 95.34a540.984 540.984 0 0 1-3.906 9.367c-6.176 14.457-18.86 42.496-34.844 68.898a7.502 7.502 0 0 0 12.832 7.77c13.625-22.512 24.89-46.098 31.957-61.96 18.367 14.991 42.532 38.444 44.735 59.5 1.523 14.565-8.582 28.714-27.11 38.089h-74.511a225.611 225.611 0 0 0 6.718-8.492c2.496-3.305 1.836-8.008-1.472-10.504a7.501 7.501 0 0 0-10.504 1.476c-5.04 6.68-10.04 12.559-14.899 17.52h-38.175c5.543-9.89 12.261-30.531 20.085-77.188 5.516-32.894 9.708-67.757 12.133-89.921 21.922 7.183 54.328 21.128 76.961 45.445zM151.387 49.89c1.105 10.102 2.61 23.09 4.453 37.4a7.5 7.5 0 0 0 8.398 6.48c4.11-.528 7.008-4.29 6.48-8.399a2003.134 2003.134 0 0 1-5.374-45.988 4.783 4.783 0 0 0-.028-.235c-.265-2.53-.488-4.699-.664-6.445 10.371-5.086 40.993-17.601 91.332-17.703 50.383.102 81.012 12.625 91.364 17.703a1572.399 1572.399 0 0 1-.692 6.684c-2.16 20.597-6.707 60.597-12.969 97.945-10.582 63.117-18.617 73.902-20.835 75.711-1.692 1.383-4.063 2.71-7.067 3.957h-99.574c-3-1.246-5.375-2.574-7.07-3.96-2.59-2.11-11.97-15.27-24.04-96.017a7.5 7.5 0 0 0-14.832 2.219c9.418 63.028 17.645 87.477 23.282 97.758h-38.125c-30.512-31.113-56.93-88.488-67.094-112.29a514.592 514.592 0 0 1-3.91-9.371c22.621-24.3 55.039-38.25 76.965-45.448zM396 273H116c-6.387 0-11.668-4.813-12.41-11h304.82c-.742 6.188-6.023 11-12.41 11zm82.5-26h-445c-9.004 0-16.527-6.465-18.168-15H84a7.5 7.5 0 1 0 0-15H50.098c-18.114-9.336-27.97-23.48-26.438-38.09 2.195-21.05 26.352-44.5 44.719-59.488 12.328 27.762 32.691 68.574 56.875 97.582H116a7.5 7.5 0 1 0 0 15h380.668C495.028 240.535 487.504 247 478.5 247zm0 0" fill="#434c54"/><g fill="#ff914d"><path d="M231.332 59.406c-1.918 0-3.84-.73-5.3-2.195l-6-6a7.497 7.497 0 0 1 0-10.606 7.497 7.497 0 0 1 10.605 0l6 6a7.497 7.497 0 0 1-5.305 12.801zm77.465.004a7.506 7.506 0 0 1-2.137-.312c-3.973-1.176-6.234-5.352-5.058-9.325l2.414-8.132c1.18-3.973 5.355-6.239 9.324-5.055a7.498 7.498 0 0 1 5.058 9.32l-2.414 8.137a7.506 7.506 0 0 1-7.187 5.367zm-46.402 22.778a7.461 7.461 0 0 1-3.145-.7 7.5 7.5 0 0 1-3.652-9.957l3.562-7.699a7.502 7.502 0 0 1 13.613 6.305l-3.566 7.699a7.507 7.507 0 0 1-6.812 4.352zM53.43 176.401a7.502 7.502 0 0 1-6.8-10.656l3.565-7.695a7.496 7.496 0 0 1 9.957-3.653 7.498 7.498 0 0 1 3.653 9.957l-3.567 7.7a7.502 7.502 0 0 1-6.808 4.347zm351.078-50.164a7.47 7.47 0 0 1-3.914-1.11l-7.235-4.437a7.503 7.503 0 0 1-2.468-10.316 7.503 7.503 0 0 1 10.316-2.469l7.23 4.438a7.5 7.5 0 0 1 2.47 10.316 7.494 7.494 0 0 1-6.4 3.578zM127.445 96.18a7.478 7.478 0 0 1-3.148-.7 7.498 7.498 0 0 1-3.652-9.957l3.566-7.699a7.5 7.5 0 0 1 9.957-3.652 7.502 7.502 0 0 1 3.652 9.96l-3.566 7.696a7.505 7.505 0 0 1-6.809 4.352zm246.563 0a7.465 7.465 0 0 1-3.149-.7 7.498 7.498 0 0 1-3.652-9.957l3.566-7.699a7.5 7.5 0 0 1 9.957-3.652 7.502 7.502 0 0 1 3.653 9.96l-3.567 7.696a7.505 7.505 0 0 1-6.808 4.352zm77.605 68.824a7.478 7.478 0 0 1-3.148-.7 7.498 7.498 0 0 1-3.653-9.956l3.567-7.7a7.5 7.5 0 0 1 9.957-3.652 7.5 7.5 0 0 1 3.652 9.957l-3.562 7.7a7.507 7.507 0 0 1-6.813 4.35zm-252.66-96.922a7.549 7.549 0 0 1-1.914-.246l-8.203-2.16a7.5 7.5 0 1 1 3.816-14.508l8.207 2.16a7.5 7.5 0 0 1-1.906 14.754zm57.418-20.52a7.495 7.495 0 0 1-7.488-7.25c-.14-4.14 3.105-7.605 7.246-7.746l8.48-.277c4.13-.129 7.61 3.11 7.746 7.246a7.503 7.503 0 0 1-7.25 7.746l-8.48.282h-.254zm-142.348 71.833a7.49 7.49 0 0 1-4.132-1.247l-7.079-4.683a7.503 7.503 0 0 1-2.117-10.395 7.503 7.503 0 0 1 10.395-2.117l7.078 4.684a7.503 7.503 0 0 1-4.145 13.758zm0 0"/></g></svg>