<svg viewBox="0 0 511.999 511.999" xmlns="http://www.w3.org/2000/svg"><path d="M463.113 306.452c-31.559 56.745-91.812 93.098-158.367 93.098h-97.491c-66.555 0-126.808-36.353-158.367-93.098z" fill="#554431"/><path d="M463.113 306.452c-31.559 56.745-91.812 93.098-158.367 93.098h-53.268c-66.555 0-126.808-36.353-158.367-93.098z" fill="#6a563d"/><path d="M504.44 237.405c0 8.875-1.839 17.528-5.337 25.88-23.699 56.595-123.542 99.089-243.123 99.089-118.014 0-216.801-41.378-242.158-96.867-4.121-9.025-6.302-18.433-6.302-28.101 0-69.017 111.24-124.959 248.46-124.959s248.46 55.941 248.46 124.958z" fill="#a78966"/><path d="M492.552 236.4c0 4.674-.603 9.287-1.779 13.82a61.347 61.347 0 0 1-3.307 9.387c-22.564 50.745-117.622 88.857-231.485 88.857-112.365 0-206.429-37.107-230.57-86.867a62.105 62.105 0 0 1-4.141-11.076 54.917 54.917 0 0 1-1.859-14.121c0-61.901 105.913-112.064 236.57-112.064S492.552 174.498 492.552 236.4z" fill="#806749"/><path d="M490.773 250.22a61.347 61.347 0 0 1-3.307 9.387c-22.564 50.745-117.622 88.857-231.485 88.857-112.365 0-206.429-37.107-230.57-86.867a62.105 62.105 0 0 1-4.141-11.076c38.383-45.097 129.009-76.786 234.701-76.786 106.948-.001 197.353 30.724 234.802 76.485z" fill="#cc7400"/><path d="M479.787 272.793c-31.9 44.021-120.044 75.671-223.806 75.671-112.365 0-206.429-37.107-230.57-86.867a62.105 62.105 0 0 1-4.141-11.076c6.272-7.377 13.95-14.382 22.855-20.955a62.99 62.99 0 0 0 3.729 9.588c24.141 49.76 118.205 86.867 230.57 86.867 85.098-.001 159.694-21.287 201.363-53.228z" fill="#aa6100"/><path d="M295.288 244.636c0 38.715-51.633 70.1-115.324 70.1s-115.325-31.385-115.325-70.1 51.633-95.727 115.324-95.727 115.325 57.013 115.325 95.727z" fill="#ebe5dd"/><path d="M375.181 223.535c0 12.071-13.83 21.85-30.895 21.85-17.076 0-30.905-9.779-30.905-21.85 0-3.357 1.065-6.543 2.985-9.377 4.955-7.387 15.588-12.483 27.92-12.483 12.322 0 22.956 5.096 27.91 12.483 1.92 2.834 2.985 6.019 2.985 9.377zm88.948 40.574c0 12.141-16.875 21.981-37.69 21.981s-37.69-9.84-37.69-21.981c0-3.357 1.286-6.533 3.598-9.377 6.03-7.447 19.026-12.603 34.092-12.603s28.061 5.156 34.091 12.603c2.312 2.845 3.599 6.021 3.599 9.377zm-96.486 37.057c0 10.965-15.227 19.85-34.021 19.85-18.795 0-34.031-8.885-34.031-19.85 0-3.387 1.457-6.583 4.04-9.377 5.729-6.231 17.016-10.473 29.991-10.473s24.252 4.241 29.991 10.473c2.573 2.794 4.03 5.99 4.03 9.377z" fill="#cd2a00"/><path d="M372.196 214.158c-4.965 7.377-15.598 12.473-27.91 12.473-12.322 0-22.955-5.096-27.92-12.473 4.955-7.387 15.588-12.483 27.92-12.483 12.322 0 22.955 5.096 27.91 12.483zm88.334 40.574c-6.04 7.447-19.036 12.603-34.091 12.603-15.056 0-28.051-5.156-34.091-12.603 6.03-7.447 19.026-12.603 34.091-12.603s28.061 5.156 34.091 12.603zm-96.917 37.056c-5.739 6.231-17.016 10.463-29.991 10.463s-24.252-4.231-29.991-10.463c5.729-6.231 17.016-10.473 29.991-10.473 12.975.001 24.252 4.241 29.991 10.473z" fill="#ff3501"/><path d="M153.186 194.375c.826 1.449 2.776 1.832 3.949.77 12.767-11.56 7.799-23.492 4.756-28.466-.832-1.36-2.673-1.72-3.835-.752-12.777 10.637-7.911 23.111-4.87 28.448zm-32.867 39.512c.826 1.449 2.776 1.832 3.949.77 12.767-11.56 7.799-23.492 4.756-28.466-.832-1.36-2.673-1.72-3.835-.752-12.777 10.638-7.911 23.112-4.87 28.448zm-33.097 26.367c.826 1.449 2.776 1.832 3.949.77 12.767-11.56 7.799-23.492 4.756-28.466-.832-1.36-2.673-1.72-3.835-.752-12.776 10.637-7.91 23.111-4.87 28.448zm105.095-26.709c1.167 1.192 3.151 1.066 4.015-.259 9.411-14.424 1.576-24.703-2.631-28.741-1.15-1.104-3.022-.984-3.901.247-9.655 13.535-1.781 24.364 2.517 28.753zm42.212 37.187c1.167 1.192 3.151 1.066 4.015-.259 9.411-14.424 1.576-24.703-2.631-28.741-1.15-1.104-3.022-.984-3.901.247-9.655 13.535-1.78 24.364 2.517 28.753zm-2.01-63.319c1.167 1.192 3.151 1.066 4.015-.259 9.411-14.424 1.576-24.703-2.631-28.741-1.15-1.104-3.022-.984-3.901.247-9.655 13.536-1.78 24.364 2.517 28.753zm-74.415 84.709c1.092 1.26 3.08 1.254 4.023-.016 10.264-13.831 3.061-24.564-.895-28.847-1.081-1.171-2.958-1.165-3.909.011-10.452 12.929-3.243 24.213.781 28.852z" fill="#d9ccbc"/><path d="M504.472 205.022a7.537 7.537 0 0 0-10.041-3.578 7.529 7.529 0 0 0-3.578 10.041c4.984 10.49 7.184 21.917 5.528 33.689-18.282-22.212-48.142-41.087-87.189-54.977-47.787-17-105.673-24.664-155.452-23.991-22.262-16.111-47.951-24.835-73.781-24.835-18.734 0-37.227 4.523-54.967 13.438a7.539 7.539 0 0 0-3.347 10.121c1.869 3.719 6.402 5.226 10.121 3.347 79.407-39.908 155.985 31.638 155.985 76.364 0 15.99-10.714 31.297-30.152 43.117-20.624 12.533-48.192 19.438-77.641 19.438-29.438 0-57.007-6.905-77.631-19.438-32.288-19.634-36.76-43.88-21.92-71.078 6.807-12.457 16.83-23.859 27.629-32.815 3.206-2.663 3.638-7.417.985-10.623a7.55 7.55 0 0 0-10.623-.975c-11.96 9.94-21.79 21.327-28.855 33.046-22.453 11.407-40.866 24.956-53.861 40.162-6.02-40.182 31.526-71.341 68.022-89.701 121.605-61.149 321.896-40.056 391.238 33.117 2.864 3.025 7.638 3.156 10.654.291 3.025-2.864 3.156-7.638.291-10.654-20.775-21.93-53.007-40.403-93.209-53.429-96.404-31.216-228.268-26.8-315.749 17.207-94.217 47.394-97.451 120.326-33.86 169.171 33.448 59.017 96.224 95.611 164.186 95.611h97.491c30.142 0 60.203-7.327 86.927-21.197 3.689-1.92 5.136-6.473 3.216-10.171a7.55 7.55 0 0 0-10.161-3.216c-24.584 12.764-52.243 19.508-79.982 19.508h-97.491c-50.987 0-98.787-22.373-131.391-60.072 5.458 2.783 28.029 13.418 32.212 13.418 8.35 0 10.505-11.676 2.643-14.593-45.499-16.985-77.068-41.207-89.601-67.701 8.946-11.637 17.538-21.682 38.323-34.775-22.397 81.244 124.409 121.952 205.986 72.354 24.111-14.654 37.398-34.554 37.398-56.002 0-19.82-11.829-43.539-31.237-63.148 101.943 2.975 188.81 34.875 219.032 81.249.101.161.211.312.332.462-6.091 12.975-16.754 25.368-31.589 36.705-.01.01-.01.01-.02.01a7.346 7.346 0 0 0-1.427 1.075c-52.932 39.498-135.48 53.841-201.916 53.841-41.016 0-81.55-5.196-117.22-15.036-4.02-1.095-8.171 1.256-9.277 5.267a7.546 7.546 0 0 0 5.267 9.277c36.966 10.181 78.887 15.568 121.23 15.568 75.574 0 138.472-16.53 180.136-37.951-8.01 9.267-17.026 17.679-26.986 25.167-5.778 4.346-2.657 13.568 4.543 13.568a7.489 7.489 0 0 0 4.523-1.518c20.805-15.649 37.85-35.026 50.655-57.6 28.071-21.589 43.127-47.157 43.127-74.173.001-10.974-2.531-21.869-7.526-32.382z"/><path d="M350.348 209.722a7.538 7.538 0 1 0 2.564-14.856c-23.158-3.993-47.072 8.614-47.072 28.665 0 16.484 16.886 29.397 38.441 29.397 21.556 0 38.442-12.913 38.442-29.397a23.33 23.33 0 0 0-.829-6.158 7.538 7.538 0 0 0-14.543 3.973c.196.719.296 1.453.296 2.185 0 7.629-10.919 14.321-23.367 14.321s-23.366-6.692-23.366-14.321c.002-7.998 13.324-16.589 29.434-13.809zm85.24 68.089a7.538 7.538 0 0 0 2.484 14.87c20.094-3.355 33.595-14.838 33.595-28.573 0-16.555-19.866-29.523-45.226-29.523-48.216 0-61.547 41.592-21.872 55.495a7.538 7.538 0 1 0 4.986-14.228c-7.934-2.78-13.264-7.5-13.264-11.745 0-6.819 12.894-14.447 30.15-14.447s30.15 7.627 30.15 14.447c0 5.014-7.857 11.509-21.003 13.704zm-143.531 23.357c0 4.749 1.76 9.387 5.089 13.414a7.536 7.536 0 0 0 10.612 1.007 7.537 7.537 0 0 0 1.007-10.612c-1.082-1.311-1.632-2.592-1.632-3.809 0-5.019 10.319-12.311 26.488-12.311s26.488 7.292 26.488 12.311c0 5.802-12.654 13.216-29.513 12.223-4.167-.261-7.723 2.929-7.966 7.085a7.539 7.539 0 0 0 7.085 7.966c20.293 1.187 45.471-8.206 45.471-27.273 0-15.357-18.257-27.387-41.564-27.387-23.308-.001-41.565 12.029-41.565 27.386z"/></svg>