<svg viewBox="0 0 512 512" xmlns="http://www.w3.org/2000/svg"><path d="M343.843 278.587a43.024 43.024 0 0 1-4.939 20.078c-7.228 13.734-21.634 23.09-38.229 23.09h-64.251v91.357h-32.125l-1.646-20.078-6.726-81.87c-1.436-17.539 12.419-32.577 30.017-32.577z" fill="#616161"/><path d="M343.843 278.587a43.024 43.024 0 0 1-4.939 20.078h-67.343c-11.089 0-20.078-8.989-20.078-20.078z" fill="#424242"/><path d="M343.843 168.156v110.431h-72.282V117.959h22.086c7.56 0 14.728 1.677 21.153 4.668 17.157 7.982 29.043 25.37 29.043 45.529z" fill="#f4511e"/><path d="M7.529 443.23c0-38.257 31.013-69.271 69.271-69.271s69.271 31.013 69.271 69.271z" fill="#b0bec5"/><path d="M27.843 443.23a50.124 50.124 0 0 0-1.239 11.043c0 27.678 22.518 50.196 50.196 50.196s50.196-22.518 50.196-50.196c0-3.795-.437-7.487-1.239-11.043z" fill="#616161"/><path d="M60.049 443.23a19.957 19.957 0 0 0-3.327 11.043c0 11.071 9.007 20.078 20.078 20.078s20.078-9.007 20.078-20.078c0-4.079-1.23-7.872-3.327-11.043z" fill="#d8d7da"/><path d="M330.023 443.23a50.124 50.124 0 0 0-1.239 11.043c0 27.678 22.518 50.196 50.196 50.196s50.196-22.518 50.196-50.196c0-3.795-.437-7.487-1.239-11.043z" fill="#616161"/><path d="M362.229 443.23a19.957 19.957 0 0 0-3.327 11.043c0 11.071 9.007 20.078 20.078 20.078s20.078-9.007 20.078-20.078c0-4.079-1.23-7.872-3.327-11.043z" fill="#d8d7da"/><path d="M183.075 195.131l-52.535 176.77-6.224 20.942c-11.284-10.642-26.132-17.528-42.576-18.693l5.913-19.607L130.6 212.037c4.377-16.043 20.932-25.51 36.974-21.133z" fill="#f4511e"/><path d="M88.847 202.289c17.742 0 32.125 14.383 32.125 32.125s-14.383 32.126-32.125 32.126z" fill="#fdd844"/><path d="M236.424 393.034v20.078h-32.126l-1.646-20.078z" fill="#424242"/><path d="M294.651 413.112v30.118H181.208l-41.392-32.065-2.811-2.179a69.48 69.48 0 0 0-12.69-16.143l7.821-26.323 17.127 12.85 44.996 33.742z" fill="#b0bec5"/><path d="M458.29 381.991v61.239H294.651V321.756h103.404c16.525 0 31.503 6.656 42.376 17.428a60.274 60.274 0 0 1 14.426 22.729 59.931 59.931 0 0 1 3.433 20.078z" fill="#f4511e"/><path d="M440.481 342.968c-.713 22.247-17.96 39.022-40.117 39.022h-65.556c-15.41 0-29.495-5.823-40.157-15.39v-44.845h103.404c16.525 0 31.503 6.656 42.376 17.428.08 1.245.09 2.51.05 3.785z" fill="#d84315"/><path d="M400.362 361.912h-65.554c-22.178 0-40.157-17.979-40.157-40.157h103.404c1.311 0 2.613.042 3.904.124 25.633 1.639 24.088 40.033-1.597 40.033z" fill="#b0bec5"/><path d="M373.961 231.404h130.51v90.353h-130.51z" fill="#f4511e"/><path d="M299.155 132.768a60.689 60.689 0 0 0 15.645-10.141 49.98 49.98 0 0 0-21.153-4.668h-22.086v151.582c22.889-4.658 40.157-24.947 40.157-49.182v-60.235c0-10.924-4.879-20.724-12.563-27.356z" fill="#d84315"/><path d="M303.365 105.782c-6.024 6.204-14.035 10.471-23.01 11.766a40.634 40.634 0 0 1-5.783.412c-20.48 0-37.376-15.33-39.846-35.137a41.419 41.419 0 0 1-.311-5.02 39.932 39.932 0 0 1 2.931-15.059h41.241v13.402c.001 14.808 10.693 27.116 24.778 29.636z" fill="#fdd8a8"/><path d="M303.365 105.782c-6.024 6.204-14.035 10.471-23.01 11.766-11.445-7.861-19.486-20.339-21.404-34.726h-24.225a41.419 41.419 0 0 1-.311-5.02 39.932 39.932 0 0 1 2.931-15.059h41.241v13.402c.001 14.809 10.693 27.117 24.778 29.637z" fill="#ffc477"/><path d="M338.824 106.261c4.244-9.541 6.421-20.196 5.963-31.394-1.478-36.109-30.634-65.501-66.73-67.255-35.103-1.705-57.571 22.512-64.724 55.131h65.255v13.399c0 16.634 13.484 30.118 30.118 30.118h30.118zM204.298 250.477h57.224c16.634 0 30.118-13.484 30.118-30.118v-60.235c0-8.872-7.191-16.063-16.063-16.063s-16.063 7.191-16.063 16.063v58.227h-55.216z" fill="#f4511e"/><path d="M204.298 218.352H174.18c-8.872 0-16.063 7.191-16.063 16.063s7.191 16.063 16.063 16.063h30.118z" fill="#fdd8a8"/><path d="M373.961 231.404h130.51v20.078h-130.51z" fill="#d84315"/><path d="M504.471 206.305c0-8.316-6.742-15.059-15.059-15.059H389.02c-8.316 0-15.059 6.742-15.059 15.059v25.098h130.51z" fill="#f4511e"/><path d="M130.54 371.901l-6.224 20.942c-11.284-10.642-26.132-17.528-42.576-18.693l5.913-19.607c15.972 1.938 30.649 8.112 42.887 17.358z" fill="#d84315"/><path d="M149.263 379.371l-9.447 31.794-2.811-2.179a69.48 69.48 0 0 0-12.69-16.143l7.821-26.323z" fill="#90a4ae"/><path d="M489.412 183.716H389.02c-12.456 0-22.588 10.134-22.588 22.588v107.922H336.69c7.398-7.475 12.493-17.232 14.12-28.11h.562v-117.96c0-25.029-16.016-46.379-38.334-54.364h30.676l1.988-4.469c4.879-10.97 7.102-22.666 6.607-34.762-1.63-39.825-34.085-72.534-73.888-74.468-36.035-1.739-63.804 21.64-72.444 61.039l-2.005 9.142h23.518a47.654 47.654 0 0 0-.605 7.529c0 22.672 15.908 41.685 37.145 46.498v15.262c-7.183 4.049-12.047 11.746-12.047 20.562v50.698h-65.721l6.22-20.931-22.929-6.251c-9.701-2.645-19.853-1.355-28.584 3.635-8.7 4.972-14.952 13.026-17.613 22.683l-.996 3.304c-7.034-11.107-19.425-18.503-33.518-18.503h-7.526v79.31h7.529a39.395 39.395 0 0 0 16.246-3.496L76.2 366.445C34.13 366.768 0 401.081 0 443.23v7.529h19.192a57.33 57.33 0 0 0-.117 3.514c0 31.83 25.895 57.725 57.725 57.725s57.725-25.895 57.725-57.725c0-1.17-.045-2.342-.117-3.514H153.6v-7.529c0-4.324-.377-8.558-1.067-12.69l26.1 20.219h142.74a57.33 57.33 0 0 0-.117 3.514c0 31.83 25.895 57.725 57.725 57.725s57.725-25.895 57.725-57.725c0-1.17-.045-2.342-.117-3.514h29.231V381.99c0-7.758-1.301-15.36-3.863-22.585-4.272-12.098-11.784-22.411-21.345-30.121H512v-122.98c0-12.454-10.133-22.588-22.588-22.588zM96.376 210.997c9.892 3.187 17.067 12.481 17.067 23.417s-7.175 20.23-17.067 23.417zm292.644-12.222h100.392c4.152 0 7.529 3.377 7.529 7.529v17.569h-30.118v-12.549h-15.059v12.549h-20.078v-12.549h-15.059v12.549H381.49v-17.569c0-4.152 3.377-7.529 7.53-7.529zm12.033 130.605c.217.013.435.023.651.039 8.519.66 11.356 7.21 11.183 12.669-.181 5.671-3.57 12.295-12.524 12.295h-65.554c-15.4 0-28.343-10.725-31.75-25.098l96.998.04c.994-.001-.001-.001.996.055zm-113.931 76.203h-43.169v-76.298h43.169zm13.553-91.357h-71.78v91.357h-17.659l-7.801-95.03c-.523-6.365 1.572-12.457 5.899-17.153 4.327-4.697 10.227-7.283 16.613-7.283h109.567c-3.466 16.047-17.771 28.109-34.839 28.109zM174.18 258.007h87.341c.844 0 1.68-.038 2.51-.093v13.144h-38.086a37.75 37.75 0 0 0-27.688 12.138 37.747 37.747 0 0 0-9.833 28.589l7.658 93.284-55.236-41.427 31.419-105.72c.633.051 1.271.085 1.915.085zm162.134-89.851v102.902H279.09v-17.416c11.93-6.323 20.078-18.866 20.078-33.282v-60.235c0-11.815-8.73-21.627-20.078-23.329V125.49h14.557c23.527-.001 42.667 19.139 42.667 42.666zM277.692 15.133c32.09 1.559 58.258 27.932 59.572 60.043.333 8.134-.854 16.037-3.533 23.557h-25.025c-1.163 0-2.306-.088-3.421-.259l-.59-.105a22.937 22.937 0 0 1-1.944-.438l-.101-.029a22.67 22.67 0 0 1-1.77-.568c-.093-.034-.184-.073-.277-.109a22.35 22.35 0 0 1-2.041-.906 22.161 22.161 0 0 1-2.383-1.388c-.033-.022-.067-.042-.099-.064a22.846 22.846 0 0 1-4.085-3.54l-.001-.001a22.658 22.658 0 0 1-1.356-1.641l-.034-.044a22.724 22.724 0 0 1-3.183-5.938 22.737 22.737 0 0 1-.424-1.326c-.042-.148-.086-.294-.125-.443a21.902 21.902 0 0 1-.355-1.58c-.024-.126-.046-.255-.068-.382a22.52 22.52 0 0 1-.227-1.696c-.009-.091-.013-.183-.021-.274a22.82 22.82 0 0 1-.082-1.856v-20.93h-62.924c8.84-26.514 28.698-41.326 54.497-40.083zm-35.747 62.67c0-2.556.294-5.075.877-7.529h28.236v5.871c0 .742.027 1.477.07 2.209.014.238.036.473.054.709a36.099 36.099 0 0 0 .461 3.649c.048.276.093.553.149.827a38.498 38.498 0 0 0 .729 2.97c.089.312.175.626.272.935.133.422.278.837.425 1.253.072.203.144.406.219.606.174.467.356.929.547 1.386l.111.258a37.626 37.626 0 0 0 13.863 16.628 32.482 32.482 0 0 1-13.386 2.855c-17.99 0-32.627-14.636-32.627-32.627zm25.098 148.078v-65.757c0-4.705 3.828-8.533 8.533-8.533s8.533 3.828 8.533 8.533v60.235c0 12.455-10.133 22.588-22.588 22.588H174.18c-4.705 0-8.533-3.828-8.533-8.533s3.828-8.533 8.533-8.533zm-129.237-11.669l.055-.192a22.435 22.435 0 0 1 10.584-13.669 22.435 22.435 0 0 1 17.15-2.182l8.067 2.199-3.194 10.749c-11.251 1.786-19.88 11.551-19.88 23.297 0 6.922 2.997 13.156 7.76 17.476L128 354.006l-1.29 4.341-6.422 21.608c-.11-.076-.226-.144-.336-.219a74.013 74.013 0 0 0-2.153-1.398c-.306-.193-.604-.398-.913-.585a76.292 76.292 0 0 0-25.381-9.894zm-18.339 240.061c0 23.527-19.14 42.667-42.667 42.667s-42.667-19.141-42.667-42.667c0-1.169.049-2.341.148-3.514H49.43a27.58 27.58 0 0 0-.238 3.514c0 15.222 12.384 27.608 27.608 27.608s27.608-12.385 27.608-27.608a27.58 27.58 0 0 0-.238-3.514h15.149c.098 1.173.148 2.346.148 3.514zm-30.118 0c0 6.92-5.629 12.549-12.549 12.549s-12.549-5.629-12.549-12.549c0-1.198.172-2.379.505-3.514h24.087c.334 1.135.506 2.315.506 3.514zm48.735-18.572H15.516c3.724-30.507 29.787-54.212 61.284-54.212.962 0 1.917.023 2.869.067l1.545.109c9.678.684 19.045 3.676 27.308 8.624l.119.07c.55.33 1.089.679 1.629 1.027.257.167.516.328.771.498.374.25.742.511 1.111.769.408.286.816.569 1.217.864.245.181.485.367.728.551.509.387 1.015.776 1.512 1.179.156.125.308.255.463.383.563.465 1.12.937 1.667 1.422l.326.294a62.09 62.09 0 0 1 1.781 1.66l.041.04a62.77 62.77 0 0 1 1.896 1.931l.005.005a62.03 62.03 0 0 1 6.677 8.479l.234.361c.391.605.77 1.218 1.139 1.837.1.168.202.335.3.505a61.292 61.292 0 0 1 7.946 23.537zm149.038 0H183.783l-41.008-31.768c-.08-.135-.17-.262-.251-.396-.174-.287-.36-.565-.538-.849a76.874 76.874 0 0 0-5.902-8.227l-.051-.063a77.323 77.323 0 0 0-2.093-2.415c-.147-.164-.289-.329-.437-.491-.237-.259-.459-.53-.699-.786l3.469-11.671 55.477 41.608h95.373v15.058zm134.525 18.572c0 23.527-19.14 42.667-42.667 42.667s-42.667-19.14-42.667-42.667c0-1.169.049-2.341.148-3.514h15.149a27.58 27.58 0 0 0-.238 3.514c0 15.222 12.384 27.608 27.608 27.608 15.223 0 27.608-12.385 27.608-27.608a27.58 27.58 0 0 0-.238-3.514h15.15a42.22 42.22 0 0 1 .147 3.514zm-30.118 0c0 6.92-5.629 12.549-12.549 12.549s-12.549-5.629-12.549-12.549c0-1.198.172-2.379.505-3.514h24.087c.335 1.135.506 2.315.506 3.514zm59.232-18.572H302.18v-79.215c8.537 8.025 20.014 12.957 32.627 12.957h65.554c17.541 0 27.149-13.52 27.575-26.874a29.191 29.191 0 0 0-.163-4.082c9.048 6.178 16.174 15.146 19.986 25.942a52.398 52.398 0 0 1 3.001 17.562zM381.49 314.226v-75.294h35.137v12.549h15.059v-12.549h20.078v12.549h15.059v-12.549h30.118v75.294z"/><path d="M482.384 360.408h29.114v15.059h-29.114zm0 37.647h29.114v15.059h-29.114zm0 37.647h29.114v15.059h-29.114z"/><path d="M56.622 418.902l-9.627-11.58a46.721 46.721 0 0 1 29.804-10.774v15.059a31.634 31.634 0 0 0-20.177 7.295zm326.374 1.74h-15.059v-15.059h15.059zm-30.118 0h-35.639v-37.647h15.059v22.588h20.58zm67.765-38.65h15.059v23.09h-15.059zM310.212 229.396h15.059v29.114h-15.059zm171.67 69.771h-32.627v-15.059h17.569V266.54h15.058zM307.179 76.568l-.008-.162c-.226-5.514-1.905-10.936-4.858-15.679l12.785-7.957c4.31 6.926 6.769 14.856 7.115 22.937l.007.187-7.701.257zm-52.685-46.452h34.133v15.059h-34.133z" fill="#fff"/></svg>