<?xml version="1.0" encoding="iso-8859-1"?>
<!-- Generator: Adobe Illustrator 19.0.0, SVG Export Plug-In . SVG Version: 6.00 Build 0)  -->
<svg version="1.1" id="Capa_1" xmlns="http://www.w3.org/2000/svg" xmlns:xlink="http://www.w3.org/1999/xlink" x="0px" y="0px"
	 viewBox="0 0 512 512" style="enable-background:new 0 0 512 512;" xml:space="preserve">
<circle style="fill:#FAEBC8;" cx="256" cy="256" r="248.5"/>
<circle style="fill:#EBC9A0;" cx="256" cy="256" r="214.22"/>
<path style="fill:#D7AF8C;" d="M256,41.776c-65.216,0-123.584,29.179-162.875,75.151c37.429-31.99,85.976-51.349,139.073-51.349
	c118.313,0,214.224,95.911,214.224,214.224c0,53.096-19.359,101.644-51.349,139.073c45.972-39.291,75.151-97.659,75.151-162.875
	C470.224,137.687,374.313,41.776,256,41.776z"/>
<circle style="fill:#FAEBC8;" cx="256" cy="127.47" r="85.69"/>
<path style="fill:#F5DCB4;" d="M294.56,174.595c-47.325,0-85.69-38.365-85.69-85.69c0-13.708,3.3-26.617,9.023-38.107
	c-28.178,14.035-47.584,43.049-47.584,76.667c0,47.325,38.365,85.69,85.69,85.69c33.617,0,62.632-19.405,76.667-47.583
	C321.177,171.295,308.268,174.595,294.56,174.595z"/>
<path style="fill:#FFFFFF;" d="M256,85.086l7.204-5.274c13.483-9.87,32.269,0.977,30.463,17.588l-0.965,8.875l8.169,3.602
	c15.289,6.741,15.289,28.434,0,35.176l-8.169,3.602l0.965,8.875c1.806,16.611-16.981,27.458-30.463,17.588L256,169.845l-7.204,5.274
	c-13.483,9.87-32.269-0.977-30.463-17.588l0.965-8.875l-8.169-3.602c-15.289-6.741-15.289-28.434,0-35.176l8.169-3.602l-0.965-8.875
	c-1.806-16.611,16.98-27.458,30.463-17.588L256,85.086z"/>
<circle style="fill:#FFC850;" cx="256" cy="127.47" r="17.14"/>
<circle style="fill:#FAEBC8;" cx="127.47" cy="256" r="85.69"/>
<path style="fill:#F5DCB4;" d="M166.026,303.129c-47.325,0-85.69-38.365-85.69-85.69c0-13.708,3.3-26.617,9.023-38.107
	C61.182,193.368,41.776,222.382,41.776,256c0,47.325,38.365,85.69,85.69,85.69c33.617,0,62.632-19.405,76.667-47.583
	C192.643,299.829,179.733,303.129,166.026,303.129z"/>
<path style="fill:#FFFFFF;" d="M127.466,213.62l7.204-5.274c13.483-9.87,32.269,0.977,30.463,17.588l-0.965,8.875l8.169,3.602
	c15.289,6.741,15.289,28.434,0,35.176l-8.169,3.602l0.965,8.875c1.806,16.611-16.98,27.458-30.463,17.588l-7.204-5.274l-7.204,5.274
	c-13.483,9.87-32.269-0.977-30.463-17.588l0.965-8.875l-8.169-3.602c-15.289-6.741-15.289-28.435,0-35.176l8.169-3.602l-0.965-8.875
	c-1.806-16.611,16.981-27.458,30.463-17.588L127.466,213.62z"/>
<circle style="fill:#FFC850;" cx="127.47" cy="256" r="17.14"/>
<circle style="fill:#FAEBC8;" cx="384.53" cy="256" r="85.69"/>
<path style="fill:#F5DCB4;" d="M423.095,303.129c-47.325,0-85.69-38.365-85.69-85.69c0-13.708,3.3-26.617,9.023-38.107
	c-28.178,14.035-47.584,43.049-47.584,76.667c0,47.325,38.365,85.69,85.69,85.69c33.617,0,62.632-19.405,76.667-47.583
	C449.712,299.829,436.802,303.129,423.095,303.129z"/>
<path style="fill:#FFFFFF;" d="M384.534,213.62l7.204-5.274c13.483-9.87,32.269,0.977,30.463,17.588l-0.965,8.875l8.169,3.602
	c15.289,6.741,15.289,28.434,0,35.176l-8.169,3.602l0.965,8.875c1.806,16.611-16.98,27.458-30.463,17.588l-7.204-5.274l-7.204,5.274
	c-13.483,9.87-32.27-0.977-30.463-17.588l0.965-8.875l-8.169-3.602c-15.289-6.741-15.289-28.435,0-35.176l8.169-3.602l-0.965-8.875
	c-1.806-16.611,16.981-27.458,30.463-17.588L384.534,213.62z"/>
<circle style="fill:#FFC850;" cx="384.53" cy="256" r="17.14"/>
<circle style="fill:#FAEBC8;" cx="256" cy="384.53" r="85.69"/>
<path style="fill:#F5DCB4;" d="M294.56,431.664c-47.325,0-85.69-38.365-85.69-85.69c0-13.708,3.3-26.617,9.023-38.107
	c-28.178,14.035-47.584,43.049-47.584,76.667c0,47.325,38.365,85.69,85.69,85.69c33.617,0,62.632-19.405,76.667-47.583
	C321.177,428.364,308.268,431.664,294.56,431.664z"/>
<path style="fill:#FFFFFF;" d="M256,342.155l7.204-5.274c13.483-9.87,32.269,0.977,30.463,17.588l-0.965,8.875l8.169,3.602
	c15.289,6.741,15.289,28.435,0,35.176l-8.169,3.602l0.965,8.875c1.806,16.611-16.981,27.458-30.463,17.588L256,426.914l-7.204,5.274
	c-13.483,9.87-32.269-0.977-30.463-17.588l0.965-8.875l-8.169-3.602c-15.289-6.741-15.289-28.434,0-35.176l8.169-3.602l-0.965-8.875
	c-1.806-16.611,16.98-27.458,30.463-17.588L256,342.155z"/>
<circle style="fill:#FFC850;" cx="256" cy="384.53" r="17.14"/>
<path d="M274.184,122.41c-4.106-0.575-7.895,2.279-8.473,6.381c-0.479,3.403-2.752,6.317-5.933,7.604
	c-2.386,0.966-5.005,0.945-7.376-0.06c-2.37-1.005-4.208-2.872-5.173-5.259c-0.965-2.387-0.944-5.006,0.061-7.376
	c1.005-2.371,2.872-4.208,5.258-5.173c3.84-1.554,5.693-5.926,4.139-9.766c-1.554-3.84-5.926-5.692-9.765-4.139
	c-6.101,2.469-10.875,7.165-13.443,13.225c-2.568,6.059-2.623,12.756-0.155,18.856c2.469,6.101,7.166,10.875,13.225,13.443
	c3.093,1.311,6.351,1.967,9.612,1.967c3.128,0,6.258-0.604,9.245-1.813c8.127-3.289,13.937-10.729,15.16-19.417
	C281.142,126.781,278.285,122.987,274.184,122.41z"/>
<path d="M300.751,101.628l0.372-3.417c1.162-10.683-3.898-20.657-13.204-26.03s-20.475-4.768-29.146,1.58L256,75.791l-2.773-2.03
	c-8.671-6.348-19.84-6.953-29.146-1.58s-14.366,15.347-13.204,26.03l0.372,3.417l-3.145,1.387
	c-9.833,4.335-15.941,13.704-15.941,24.45s6.108,20.115,15.941,24.451l3.145,1.387l-0.372,3.417
	c-1.162,10.684,3.898,20.658,13.205,26.031c9.306,5.373,20.474,4.768,29.145-1.58l2.773-2.03l2.773,2.03
	c4.74,3.47,10.224,5.224,15.744,5.223c4.578,0,9.182-1.207,13.401-3.643c9.307-5.373,14.366-15.347,13.205-26.031l-0.372-3.417
	l3.145-1.387c9.833-4.336,15.941-13.705,15.941-24.451s-6.108-20.115-15.941-24.45L300.751,101.628z M297.845,138.191l-8.169,3.602
	c-2.991,1.318-4.784,4.423-4.43,7.673l0.965,8.875c0.517,4.757-1.648,9.025-5.792,11.418s-8.924,2.133-12.785-0.693l-7.204-5.273
	c-1.319-0.965-2.875-1.448-4.43-1.448s-3.111,0.483-4.43,1.448l-7.204,5.273c-3.861,2.827-8.641,3.086-12.785,0.693
	c-4.145-2.393-6.31-6.661-5.792-11.418l0.965-8.875c0.354-3.25-1.439-6.355-4.43-7.673l-8.169-3.602
	c-4.378-1.931-6.993-5.94-6.993-10.726c0-4.785,2.614-8.794,6.993-10.725l8.169-3.602c2.991-1.319,4.784-4.423,4.43-7.673
	l-0.965-8.875c-0.517-4.757,1.648-9.026,5.792-11.418c4.145-2.393,8.923-2.134,12.785,0.693l7.204,5.274
	c2.638,1.931,6.223,1.931,8.86,0l7.204-5.273c3.86-2.827,8.64-3.086,12.785-0.693c4.144,2.393,6.309,6.661,5.792,11.418
	l-0.965,8.876c-0.354,3.25,1.439,6.354,4.43,7.673l8.169,3.602c4.378,1.931,6.993,5.94,6.993,10.725
	C304.837,132.251,302.223,136.26,297.845,138.191z"/>
<path d="M246.548,407.214c3.093,1.311,6.351,1.967,9.612,1.967c3.128,0,6.258-0.604,9.245-1.812
	c8.127-3.289,13.936-10.729,15.16-19.418c0.578-4.102-2.279-7.895-6.381-8.473c-4.106-0.574-7.895,2.28-8.473,6.381
	c-0.479,3.404-2.752,6.318-5.933,7.604c-2.386,0.966-5.005,0.945-7.376-0.061c-2.37-1.004-4.208-2.872-5.173-5.258
	c-1.994-4.927,0.393-10.557,5.319-12.55c3.839-1.554,5.693-5.926,4.139-9.766c-1.554-3.84-5.927-5.693-9.766-4.139
	c-12.593,5.096-18.693,19.488-13.597,32.081C235.792,399.872,240.489,404.646,246.548,407.214z"/>
<path d="M211.249,410.372l-0.372,3.417c-1.162,10.683,3.898,20.657,13.204,26.03s20.474,4.768,29.146-1.58l2.773-2.03l2.773,2.03
	c4.739,3.47,10.225,5.224,15.744,5.224c4.579,0,9.182-1.207,13.401-3.644c9.306-5.373,14.366-15.347,13.204-26.03l-0.372-3.417
	l3.145-1.387c9.833-4.335,15.941-13.704,15.941-24.45s-6.108-20.115-15.941-24.451l-3.145-1.387l0.372-3.417
	c1.162-10.684-3.898-20.658-13.205-26.031c-9.306-5.373-20.474-4.768-29.145,1.58L256,332.86l-2.773-2.03
	c-8.67-6.347-19.838-6.953-29.145-1.58s-14.366,15.347-13.205,26.031l0.372,3.417l-3.145,1.387
	c-9.833,4.336-15.941,13.705-15.941,24.451s6.108,20.115,15.941,24.45L211.249,410.372z M214.155,373.809l8.169-3.602
	c2.991-1.318,4.784-4.423,4.43-7.673l-0.965-8.875c-0.517-4.757,1.648-9.025,5.792-11.418s8.923-2.134,12.785,0.693l7.204,5.273
	c2.638,1.931,6.223,1.931,8.86,0l7.204-5.273c3.861-2.827,8.641-3.086,12.785-0.693c4.145,2.393,6.31,6.661,5.792,11.418
	l-0.965,8.875c-0.354,3.25,1.439,6.355,4.43,7.673l8.169,3.602c4.378,1.931,6.993,5.94,6.993,10.726
	c0,4.785-2.614,8.794-6.993,10.725l-8.169,3.602c-2.991,1.319-4.784,4.423-4.43,7.673l0.965,8.875
	c0.517,4.757-1.648,9.026-5.792,11.418c-4.145,2.393-8.924,2.134-12.785-0.693l-7.204-5.274c-1.319-0.966-2.875-1.448-4.43-1.448
	s-3.111,0.482-4.43,1.448l-7.204,5.273c-3.86,2.827-8.64,3.086-12.785,0.693c-4.144-2.393-6.309-6.661-5.792-11.418l0.965-8.876
	c0.354-3.25-1.439-6.354-4.43-7.673l-8.169-3.602c-4.378-1.931-6.993-5.94-6.993-10.725
	C207.163,379.749,209.777,375.74,214.155,373.809z"/>
<path d="M375.083,278.215c3.093,1.311,6.351,1.967,9.612,1.967c3.127,0,6.258-0.604,9.244-1.813
	c8.127-3.288,13.936-10.729,15.161-19.417c0.578-4.102-2.279-7.895-6.38-8.473c-4.108-0.577-7.896,2.279-8.473,6.38
	c-0.479,3.404-2.753,6.318-5.934,7.605c-2.386,0.966-5.006,0.944-7.376-0.06c-2.37-1.005-4.208-2.872-5.173-5.259
	c-0.966-2.387-0.944-5.006,0.06-7.376c1.005-2.37,2.872-4.208,5.258-5.173c3.84-1.554,5.693-5.926,4.139-9.766
	c-1.553-3.84-5.926-5.693-9.765-4.139c-12.594,5.096-18.693,19.487-13.598,32.081C364.327,270.873,369.023,275.646,375.083,278.215z
	"/>
<path d="M320.697,255.535c0,10.746,6.108,20.115,15.941,24.451l3.146,1.387l-0.372,3.417c-1.162,10.684,3.897,20.657,13.204,26.031
	c4.22,2.437,8.822,3.644,13.401,3.643c5.519,0,11.005-1.754,15.744-5.223l2.774-2.031l2.773,2.031
	c8.671,6.347,19.838,6.954,29.145,1.58c9.307-5.373,14.366-15.347,13.205-26.031l-0.372-3.417l3.145-1.387
	c9.833-4.336,15.941-13.705,15.941-24.451s-6.108-20.115-15.941-24.45l-3.145-1.387l0.372-3.417
	c1.162-10.683-3.898-20.657-13.204-26.03s-20.475-4.768-29.146,1.58l-2.773,2.03l-2.774-2.03c-8.671-6.349-19.839-6.953-29.145-1.58
	c-9.307,5.373-14.366,15.348-13.204,26.03l0.372,3.417l-3.146,1.387C326.805,235.42,320.697,244.789,320.697,255.535z
	 M342.689,244.81l8.169-3.602c2.991-1.319,4.784-4.423,4.43-7.673l-0.965-8.875c-0.518-4.757,1.648-9.026,5.792-11.418
	c1.883-1.087,3.897-1.627,5.897-1.627c2.4,0,4.781,0.778,6.887,2.32l7.204,5.273c2.638,1.931,6.223,1.931,8.86,0l7.204-5.273
	c3.86-2.827,8.64-3.086,12.785-0.693c4.144,2.393,6.309,6.661,5.792,11.418l-0.965,8.876c-0.354,3.25,1.439,6.354,4.43,7.673
	l8.169,3.602c4.378,1.931,6.993,5.94,6.993,10.725c0,4.786-2.614,8.795-6.993,10.726l-8.169,3.602
	c-2.991,1.318-4.784,4.423-4.43,7.673l0.965,8.875c0.517,4.757-1.648,9.025-5.792,11.418s-8.923,2.134-12.785-0.693l-7.204-5.273
	c-2.638-1.931-6.223-1.931-8.86,0l-7.204,5.273c-3.861,2.827-8.64,3.085-12.785,0.693c-4.144-2.393-6.31-6.661-5.792-11.418
	l0.965-8.875c0.354-3.25-1.439-6.354-4.43-7.673l-8.169-3.602c-4.378-1.931-6.993-5.94-6.993-10.726
	C335.697,250.75,338.311,246.74,342.689,244.81z"/>
<path d="M145.65,250.479c-4.105-0.577-7.896,2.279-8.473,6.38c-0.479,3.404-2.753,6.318-5.934,7.605
	c-2.386,0.966-5.006,0.944-7.376-0.06c-2.37-1.005-4.208-2.872-5.173-5.259s-0.944-5.006,0.061-7.376
	c1.004-2.371,2.872-4.208,5.258-5.173c3.84-1.554,5.693-5.926,4.139-9.766c-1.554-3.84-5.926-5.693-9.765-4.139
	c-6.101,2.469-10.875,7.165-13.443,13.224s-2.624,12.756-0.155,18.856c2.469,6.101,7.165,10.875,13.225,13.443
	c3.093,1.311,6.351,1.967,9.612,1.967c3.127,0,6.258-0.604,9.244-1.813c8.127-3.288,13.936-10.729,15.161-19.417
	C152.608,254.851,149.751,251.058,145.65,250.479z"/>
<path d="M191.303,255.535c0-10.746-6.108-20.115-15.941-24.45l-3.146-1.387l0.372-3.417c1.162-10.683-3.897-20.657-13.204-26.03
	c-9.306-5.373-20.474-4.768-29.145,1.58l-2.774,2.03l-2.773-2.03c-8.671-6.349-19.84-6.953-29.146-1.58s-14.366,15.347-13.204,26.03
	l0.372,3.417l-3.145,1.387c-9.833,4.335-15.941,13.704-15.941,24.45s6.108,20.115,15.941,24.451l3.145,1.387l-0.372,3.417
	c-1.162,10.684,3.898,20.658,13.205,26.031c9.306,5.373,20.474,4.768,29.145-1.58l2.773-2.031l2.774,2.031
	c4.74,3.47,10.224,5.224,15.744,5.223c4.578,0,9.182-1.207,13.401-3.643c9.307-5.374,14.366-15.347,13.204-26.03l-0.372-3.417
	l3.146-1.387C185.195,275.649,191.303,266.281,191.303,255.535z M169.311,266.26l-8.169,3.602c-2.991,1.318-4.784,4.423-4.43,7.673
	l0.965,8.876c0.518,4.757-1.648,9.025-5.792,11.418s-8.923,2.134-12.785-0.693l-7.204-5.273c-2.638-1.931-6.223-1.931-8.86,0
	l-7.204,5.273c-3.86,2.827-8.641,3.086-12.785,0.693c-4.145-2.393-6.31-6.661-5.792-11.418l0.965-8.875
	c0.354-3.25-1.439-6.355-4.43-7.673l-8.169-3.602c-4.378-1.931-6.993-5.94-6.993-10.726c0-4.785,2.614-8.794,6.993-10.725
	l8.169-3.602c2.991-1.319,4.784-4.423,4.43-7.673l-0.965-8.875c-0.517-4.757,1.648-9.026,5.792-11.418
	c1.884-1.087,3.898-1.627,5.898-1.627c2.4,0,4.781,0.778,6.887,2.32l7.204,5.274c2.638,1.931,6.223,1.931,8.86,0l7.204-5.273
	c3.861-2.827,8.642-3.085,12.785-0.693c4.144,2.393,6.31,6.661,5.792,11.419l-0.965,8.875c-0.354,3.25,1.439,6.354,4.43,7.673
	l8.169,3.602c4.378,1.931,6.993,5.94,6.993,10.725C176.303,260.32,173.689,264.33,169.311,266.26z"/>
<path d="M424.827,112.251c-2.689-3.151-7.422-3.526-10.573-0.837s-3.526,7.422-0.837,10.574
	c17.706,20.75,30.917,44.53,39.187,69.979c-17.019-18.214-41.234-29.621-68.069-29.621c-18.103,0-35.012,5.194-49.328,14.162
	c8.858-14.254,13.982-31.06,13.982-49.041c0-26.967-11.527-51.28-29.898-68.311c25.729,8.251,49.77,21.55,70.721,39.428
	c3.15,2.688,7.885,2.314,10.573-0.837c2.689-3.151,2.314-7.885-0.837-10.573c-42.293-36.087-96.292-54.815-152.047-52.743
	c-56.06,2.087-108.793,25.096-148.484,64.788c-39.692,39.691-62.7,92.425-64.787,148.485
	c-2.075,55.757,16.656,109.756,52.745,152.048c1.483,1.739,3.589,2.632,5.708,2.632c1.722,0,3.453-0.59,4.865-1.795
	c3.151-2.689,3.526-7.422,0.837-10.574c-18.041-21.142-31.414-45.429-39.648-71.422c17.04,18.508,41.447,30.132,68.529,30.132
	c18.516,0,35.787-5.429,50.307-14.777c-9.46,14.578-14.962,31.951-14.962,50.587c0,26.973,11.527,51.295,29.906,68.323
	c-25.734-8.254-49.777-21.562-70.732-39.442c-3.151-2.688-7.884-2.314-10.573,0.837s-2.314,7.885,0.837,10.574
	c40.175,34.282,90.909,52.901,143.685,52.9c2.781,0,5.573-0.052,8.363-0.156c56.061-2.087,108.793-25.095,148.485-64.788
	c39.691-39.691,62.7-92.424,64.787-148.484C479.646,208.542,460.915,154.543,424.827,112.251z M462.724,255.535
	c0,43.113-35.076,78.189-78.189,78.189c-43.114,0-78.19-35.076-78.19-78.189c0-43.114,35.076-78.19,78.19-78.19
	C427.648,177.345,462.724,212.421,462.724,255.535z M306.307,306.122c-14.52-9.348-31.791-14.777-50.307-14.777
	s-35.787,5.429-50.307,14.777c9.46-14.578,14.962-31.951,14.962-50.587c0-17.982-5.125-34.787-13.983-49.042
	c14.316,8.968,31.225,14.162,49.327,14.162s35.012-5.194,49.327-14.162c-8.858,14.254-13.983,31.06-13.983,49.042
	C291.345,274.171,296.847,291.544,306.307,306.122z M334.189,127.466c0,43.114-35.076,78.189-78.189,78.189
	s-78.189-35.076-78.189-78.189c0-43.114,35.076-78.19,78.189-78.19S334.189,84.352,334.189,127.466z M109.824,109.824
	c23.494-23.494,51.893-40.705,82.87-50.646c-18.363,17.025-29.883,41.329-29.883,68.288c0,17.981,5.125,34.787,13.982,49.041
	c-14.315-8.968-31.225-14.162-49.328-14.162c-26.831,0-51.036,11.409-68.054,29.618C69.387,161.269,86.514,133.133,109.824,109.824z
	 M49.276,255.535c0-43.114,35.076-78.19,78.189-78.19c43.114,0,78.19,35.076,78.19,78.19c0,43.113-35.076,78.189-78.19,78.189
	C84.352,333.725,49.276,298.648,49.276,255.535z M177.811,384.534c0-43.114,35.076-78.189,78.189-78.189
	s78.189,35.076,78.189,78.189c0,43.114-35.076,78.19-78.189,78.19S177.811,427.648,177.811,384.534z M402.176,402.176
	c-23.49,23.49-51.883,40.7-82.854,50.641c18.354-17.027,29.868-41.33,29.868-68.283c0-18.636-5.502-36.009-14.962-50.587
	c14.52,9.348,31.792,14.777,50.307,14.777c27.063,0,51.463-11.601,68.502-30.086C443.13,349.876,425.839,378.513,402.176,402.176z"
	/>
<path d="M437.02,74.98C388.667,26.629,324.38,0,256,0S123.333,26.629,74.98,74.98C26.629,123.333,0,187.62,0,256
	s26.629,132.667,74.98,181.02C123.333,485.371,187.62,512,256,512s132.667-26.629,181.02-74.98C485.371,388.667,512,324.38,512,256
	S485.371,123.333,437.02,74.98z M426.413,426.413C380.894,471.932,320.374,497,256,497s-124.894-25.068-170.413-70.587
	S15,320.374,15,256S40.068,131.106,85.587,85.587S191.626,15,256,15s124.894,25.068,170.413,70.587S497,191.626,497,256
	S471.932,380.894,426.413,426.413z"/>
<g>
</g>
<g>
</g>
<g>
</g>
<g>
</g>
<g>
</g>
<g>
</g>
<g>
</g>
<g>
</g>
<g>
</g>
<g>
</g>
<g>
</g>
<g>
</g>
<g>
</g>
<g>
</g>
<g>
</g>
</svg>
