<svg xmlns="http://www.w3.org/2000/svg" viewBox="0 0 512 512"><circle cx="256" cy="256" r="248.5" fill="#FAEBC8"/><circle cx="256" cy="256" r="214.22" fill="#EBC9A0"/><path d="M256 41.776c-65.216 0-123.584 29.179-162.875 75.151 37.429-31.99 85.976-51.349 139.073-51.349 118.313 0 214.224 95.911 214.224 214.224 0 53.096-19.359 101.644-51.349 139.073 45.972-39.291 75.151-97.659 75.151-162.875 0-118.313-95.911-214.224-214.224-214.224z" fill="#D7AF8C"/><circle cx="256" cy="127.47" r="85.69" fill="#FAEBC8"/><path d="M294.56 174.595c-47.325 0-85.69-38.365-85.69-85.69 0-13.708 3.3-26.617 9.023-38.107-28.178 14.035-47.584 43.049-47.584 76.667 0 47.325 38.365 85.69 85.69 85.69 33.617 0 62.632-19.405 76.667-47.583-11.489 5.723-24.398 9.023-38.106 9.023z" fill="#F5DCB4"/><path d="M256 85.086l7.204-5.274c13.483-9.87 32.269.977 30.463 17.588l-.965 8.875 8.169 3.602c15.289 6.741 15.289 28.434 0 35.176l-8.169 3.602.965 8.875c1.806 16.611-16.981 27.458-30.463 17.588L256 169.845l-7.204 5.274c-13.483 9.87-32.269-.977-30.463-17.588l.965-8.875-8.169-3.602c-15.289-6.741-15.289-28.434 0-35.176l8.169-3.602-.965-8.875c-1.806-16.611 16.98-27.458 30.463-17.588L256 85.086z" fill="#FFFFFF"/><circle cx="256" cy="127.47" r="17.14" fill="#FFC850"/><circle cx="127.47" cy="256" r="85.69" fill="#FAEBC8"/><path d="M166.026 303.129c-47.325 0-85.69-38.365-85.69-85.69 0-13.708 3.3-26.617 9.023-38.107-28.177 14.036-47.583 43.05-47.583 76.668 0 47.325 38.365 85.69 85.69 85.69 33.617 0 62.632-19.405 76.667-47.583-11.49 5.722-24.4 9.022-38.107 9.022z" fill="#F5DCB4"/><path d="M127.466 213.62l7.204-5.274c13.483-9.87 32.269.977 30.463 17.588l-.965 8.875 8.169 3.602c15.289 6.741 15.289 28.434 0 35.176l-8.169 3.602.965 8.875c1.806 16.611-16.98 27.458-30.463 17.588l-7.204-5.274-7.204 5.274c-13.483 9.87-32.269-.977-30.463-17.588l.965-8.875-8.169-3.602c-15.289-6.741-15.289-28.435 0-35.176l8.169-3.602-.965-8.875c-1.806-16.611 16.981-27.458 30.463-17.588l7.204 5.274z" fill="#FFFFFF"/><circle cx="127.47" cy="256" r="17.14" fill="#FFC850"/><circle cx="384.53" cy="256" r="85.69" fill="#FAEBC8"/><path d="M423.095 303.129c-47.325 0-85.69-38.365-85.69-85.69 0-13.708 3.3-26.617 9.023-38.107-28.178 14.035-47.584 43.049-47.584 76.667 0 47.325 38.365 85.69 85.69 85.69 33.617 0 62.632-19.405 76.667-47.583-11.489 5.723-24.399 9.023-38.106 9.023z" fill="#F5DCB4"/><path d="M384.534 213.62l7.204-5.274c13.483-9.87 32.269.977 30.463 17.588l-.965 8.875 8.169 3.602c15.289 6.741 15.289 28.434 0 35.176l-8.169 3.602.965 8.875c1.806 16.611-16.98 27.458-30.463 17.588l-7.204-5.274-7.204 5.274c-13.483 9.87-32.27-.977-30.463-17.588l.965-8.875-8.169-3.602c-15.289-6.741-15.289-28.435 0-35.176l8.169-3.602-.965-8.875c-1.806-16.611 16.981-27.458 30.463-17.588l7.204 5.274z" fill="#FFFFFF"/><circle cx="384.53" cy="256" r="17.14" fill="#FFC850"/><circle cx="256" cy="384.53" r="85.69" fill="#FAEBC8"/><path d="M294.56 431.664c-47.325 0-85.69-38.365-85.69-85.69 0-13.708 3.3-26.617 9.023-38.107-28.178 14.035-47.584 43.049-47.584 76.667 0 47.325 38.365 85.69 85.69 85.69 33.617 0 62.632-19.405 76.667-47.583-11.489 5.723-24.398 9.023-38.106 9.023z" fill="#F5DCB4"/><path d="M256 342.155l7.204-5.274c13.483-9.87 32.269.977 30.463 17.588l-.965 8.875 8.169 3.602c15.289 6.741 15.289 28.435 0 35.176l-8.169 3.602.965 8.875c1.806 16.611-16.981 27.458-30.463 17.588L256 426.914l-7.204 5.274c-13.483 9.87-32.269-.977-30.463-17.588l.965-8.875-8.169-3.602c-15.289-6.741-15.289-28.434 0-35.176l8.169-3.602-.965-8.875c-1.806-16.611 16.98-27.458 30.463-17.588l7.204 5.273z" fill="#FFFFFF"/><circle cx="256" cy="384.53" r="17.14" fill="#FFC850"/><path d="M274.184 122.41a7.5 7.5 0 0 0-8.473 6.381 9.678 9.678 0 0 1-5.933 7.604 9.57 9.57 0 0 1-7.376-.06 9.574 9.574 0 0 1-5.173-5.259 9.575 9.575 0 0 1 .061-7.376 9.572 9.572 0 0 1 5.258-5.173 7.5 7.5 0 0 0-5.626-13.905c-6.101 2.469-10.875 7.165-13.443 13.225a24.479 24.479 0 0 0-.155 18.856 24.478 24.478 0 0 0 13.225 13.443 24.59 24.59 0 0 0 9.612 1.967c3.128 0 6.258-.604 9.245-1.813 8.127-3.289 13.937-10.729 15.16-19.417a7.502 7.502 0 0 0-6.382-8.473z"/><path d="M300.751 101.628l.372-3.417c1.162-10.683-3.898-20.657-13.204-26.03s-20.475-4.768-29.146 1.58L256 75.791l-2.773-2.03c-8.671-6.348-19.84-6.953-29.146-1.58s-14.366 15.347-13.204 26.03l.372 3.417-3.145 1.387c-9.833 4.335-15.941 13.704-15.941 24.45s6.108 20.115 15.941 24.451l3.145 1.387-.372 3.417c-1.162 10.684 3.898 20.658 13.205 26.031 9.306 5.373 20.474 4.768 29.145-1.58l2.773-2.03 2.773 2.03c4.74 3.47 10.224 5.224 15.744 5.223 4.578 0 9.182-1.207 13.401-3.643 9.307-5.373 14.366-15.347 13.205-26.031l-.372-3.417 3.145-1.387c9.833-4.336 15.941-13.705 15.941-24.451s-6.108-20.115-15.941-24.45l-3.145-1.387zm-2.906 36.563l-8.169 3.602a7.498 7.498 0 0 0-4.43 7.673l.965 8.875c.517 4.757-1.648 9.025-5.792 11.418s-8.924 2.133-12.785-.693l-7.204-5.273a7.494 7.494 0 0 0-8.86 0l-7.204 5.273c-3.861 2.827-8.641 3.086-12.785.693-4.145-2.393-6.31-6.661-5.792-11.418l.965-8.875a7.498 7.498 0 0 0-4.43-7.673l-8.169-3.602c-4.378-1.931-6.993-5.94-6.993-10.726 0-4.785 2.614-8.794 6.993-10.725l8.169-3.602a7.499 7.499 0 0 0 4.43-7.673l-.965-8.875c-.517-4.757 1.648-9.026 5.792-11.418 4.145-2.393 8.923-2.134 12.785.693l7.204 5.274a7.5 7.5 0 0 0 8.86 0l7.204-5.273c3.86-2.827 8.64-3.086 12.785-.693 4.144 2.393 6.309 6.661 5.792 11.418l-.965 8.876a7.499 7.499 0 0 0 4.43 7.673l8.169 3.602c4.378 1.931 6.993 5.94 6.993 10.725-.001 4.784-2.615 8.793-6.993 10.724zm-51.297 269.023a24.59 24.59 0 0 0 9.612 1.967c3.128 0 6.258-.604 9.245-1.812 8.127-3.289 13.936-10.729 15.16-19.418a7.5 7.5 0 1 0-14.854-2.092 9.675 9.675 0 0 1-5.933 7.604 9.566 9.566 0 0 1-7.376-.061 9.572 9.572 0 0 1-5.173-5.258c-1.994-4.927.393-10.557 5.319-12.55a7.5 7.5 0 0 0-5.627-13.905c-12.593 5.096-18.693 19.488-13.597 32.081 2.468 6.102 7.165 10.876 13.224 13.444z"/><path d="M211.249 410.372l-.372 3.417c-1.162 10.683 3.898 20.657 13.204 26.03s20.474 4.768 29.146-1.58l2.773-2.03 2.773 2.03c4.739 3.47 10.225 5.224 15.744 5.224 4.579 0 9.182-1.207 13.401-3.644 9.306-5.373 14.366-15.347 13.204-26.03l-.372-3.417 3.145-1.387c9.833-4.335 15.941-13.704 15.941-24.45s-6.108-20.115-15.941-24.451l-3.145-1.387.372-3.417c1.162-10.684-3.898-20.658-13.205-26.031-9.306-5.373-20.474-4.768-29.145 1.58L256 332.86l-2.773-2.03c-8.67-6.347-19.838-6.953-29.145-1.58s-14.366 15.347-13.205 26.031l.372 3.417-3.145 1.387c-9.833 4.336-15.941 13.705-15.941 24.451s6.108 20.115 15.941 24.45l3.145 1.386zm2.906-36.563l8.169-3.602a7.498 7.498 0 0 0 4.43-7.673l-.965-8.875c-.517-4.757 1.648-9.025 5.792-11.418s8.923-2.134 12.785.693l7.204 5.273a7.5 7.5 0 0 0 8.86 0l7.204-5.273c3.861-2.827 8.641-3.086 12.785-.693 4.145 2.393 6.31 6.661 5.792 11.418l-.965 8.875a7.498 7.498 0 0 0 4.43 7.673l8.169 3.602c4.378 1.931 6.993 5.94 6.993 10.726 0 4.785-2.614 8.794-6.993 10.725l-8.169 3.602a7.499 7.499 0 0 0-4.43 7.673l.965 8.875c.517 4.757-1.648 9.026-5.792 11.418-4.145 2.393-8.924 2.134-12.785-.693l-7.204-5.274c-1.319-.966-2.875-1.448-4.43-1.448s-3.111.482-4.43 1.448l-7.204 5.273c-3.86 2.827-8.64 3.086-12.785.693-4.144-2.393-6.309-6.661-5.792-11.418l.965-8.876a7.499 7.499 0 0 0-4.43-7.673l-8.169-3.602c-4.378-1.931-6.993-5.94-6.993-10.725.001-4.784 2.615-8.793 6.993-10.724zm160.928-95.594a24.59 24.59 0 0 0 9.612 1.967 24.6 24.6 0 0 0 9.244-1.813c8.127-3.288 13.936-10.729 15.161-19.417a7.5 7.5 0 0 0-6.38-8.473 7.497 7.497 0 0 0-8.473 6.38 9.68 9.68 0 0 1-5.934 7.605 9.575 9.575 0 0 1-7.376-.06 9.574 9.574 0 0 1-5.173-5.259 9.575 9.575 0 0 1 .06-7.376 9.575 9.575 0 0 1 5.258-5.173 7.5 7.5 0 0 0 4.139-9.766 7.499 7.499 0 0 0-9.765-4.139c-12.594 5.096-18.693 19.487-13.598 32.081 2.469 6.101 7.165 10.874 13.225 13.443z"/><path d="M320.697 255.535c0 10.746 6.108 20.115 15.941 24.451l3.146 1.387-.372 3.417c-1.162 10.684 3.897 20.657 13.204 26.031 4.22 2.437 8.822 3.644 13.401 3.643 5.519 0 11.005-1.754 15.744-5.223l2.774-2.031 2.773 2.031c8.671 6.347 19.838 6.954 29.145 1.58 9.307-5.373 14.366-15.347 13.205-26.031l-.372-3.417 3.145-1.387c9.833-4.336 15.941-13.705 15.941-24.451s-6.108-20.115-15.941-24.45l-3.145-1.387.372-3.417c1.162-10.683-3.898-20.657-13.204-26.03s-20.475-4.768-29.146 1.58l-2.773 2.03-2.774-2.03c-8.671-6.349-19.839-6.953-29.145-1.58-9.307 5.373-14.366 15.348-13.204 26.03l.372 3.417-3.146 1.387c-9.833 4.335-15.941 13.704-15.941 24.45zm21.992-10.725l8.169-3.602a7.499 7.499 0 0 0 4.43-7.673l-.965-8.875c-.518-4.757 1.648-9.026 5.792-11.418 1.883-1.087 3.897-1.627 5.897-1.627 2.4 0 4.781.778 6.887 2.32l7.204 5.273a7.5 7.5 0 0 0 8.86 0l7.204-5.273c3.86-2.827 8.64-3.086 12.785-.693 4.144 2.393 6.309 6.661 5.792 11.418l-.965 8.876a7.499 7.499 0 0 0 4.43 7.673l8.169 3.602c4.378 1.931 6.993 5.94 6.993 10.725 0 4.786-2.614 8.795-6.993 10.726l-8.169 3.602a7.498 7.498 0 0 0-4.43 7.673l.965 8.875c.517 4.757-1.648 9.025-5.792 11.418s-8.923 2.134-12.785-.693l-7.204-5.273a7.5 7.5 0 0 0-8.86 0l-7.204 5.273c-3.861 2.827-8.64 3.085-12.785.693-4.144-2.393-6.31-6.661-5.792-11.418l.965-8.875a7.499 7.499 0 0 0-4.43-7.673l-8.169-3.602c-4.378-1.931-6.993-5.94-6.993-10.726.002-4.786 2.616-8.796 6.994-10.726zm-197.039 5.669a7.499 7.499 0 0 0-8.473 6.38 9.68 9.68 0 0 1-5.934 7.605 9.575 9.575 0 0 1-7.376-.06c-2.37-1.005-4.208-2.872-5.173-5.259s-.944-5.006.061-7.376a9.569 9.569 0 0 1 5.258-5.173 7.5 7.5 0 0 0 4.139-9.766 7.5 7.5 0 0 0-9.765-4.139c-6.101 2.469-10.875 7.165-13.443 13.224s-2.624 12.756-.155 18.856c2.469 6.101 7.165 10.875 13.225 13.443a24.59 24.59 0 0 0 9.612 1.967 24.6 24.6 0 0 0 9.244-1.813c8.127-3.288 13.936-10.729 15.161-19.417a7.502 7.502 0 0 0-6.381-8.472z"/><path d="M191.303 255.535c0-10.746-6.108-20.115-15.941-24.45l-3.146-1.387.372-3.417c1.162-10.683-3.897-20.657-13.204-26.03-9.306-5.373-20.474-4.768-29.145 1.58l-2.774 2.03-2.773-2.03c-8.671-6.349-19.84-6.953-29.146-1.58s-14.366 15.347-13.204 26.03l.372 3.417-3.145 1.387c-9.833 4.335-15.941 13.704-15.941 24.45s6.108 20.115 15.941 24.451l3.145 1.387-.372 3.417c-1.162 10.684 3.898 20.658 13.205 26.031 9.306 5.373 20.474 4.768 29.145-1.58l2.773-2.031 2.774 2.031c4.74 3.47 10.224 5.224 15.744 5.223 4.578 0 9.182-1.207 13.401-3.643 9.307-5.374 14.366-15.347 13.204-26.03l-.372-3.417 3.146-1.387c9.833-4.338 15.941-13.706 15.941-24.452zm-21.992 10.725l-8.169 3.602a7.498 7.498 0 0 0-4.43 7.673l.965 8.876c.518 4.757-1.648 9.025-5.792 11.418s-8.923 2.134-12.785-.693l-7.204-5.273a7.5 7.5 0 0 0-8.86 0l-7.204 5.273c-3.86 2.827-8.641 3.086-12.785.693-4.145-2.393-6.31-6.661-5.792-11.418l.965-8.875a7.498 7.498 0 0 0-4.43-7.673l-8.169-3.602c-4.378-1.931-6.993-5.94-6.993-10.726 0-4.785 2.614-8.794 6.993-10.725l8.169-3.602a7.499 7.499 0 0 0 4.43-7.673l-.965-8.875c-.517-4.757 1.648-9.026 5.792-11.418 1.884-1.087 3.898-1.627 5.898-1.627 2.4 0 4.781.778 6.887 2.32l7.204 5.274a7.5 7.5 0 0 0 8.86 0l7.204-5.273c3.861-2.827 8.642-3.085 12.785-.693 4.144 2.393 6.31 6.661 5.792 11.419l-.965 8.875a7.499 7.499 0 0 0 4.43 7.673l8.169 3.602c4.378 1.931 6.993 5.94 6.993 10.725-.001 4.783-2.615 8.793-6.993 10.723z"/><path d="M424.827 112.251a7.5 7.5 0 0 0-11.41 9.737 205.62 205.62 0 0 1 39.187 69.979c-17.019-18.214-41.234-29.621-68.069-29.621a92.625 92.625 0 0 0-49.328 14.162c8.858-14.254 13.982-31.06 13.982-49.041 0-26.967-11.527-51.28-29.898-68.311a205.577 205.577 0 0 1 70.721 39.428 7.5 7.5 0 0 0 9.736-11.41c-42.293-36.087-96.292-54.815-152.047-52.743-56.06 2.087-108.793 25.096-148.484 64.788-39.692 39.691-62.7 92.425-64.787 148.485-2.075 55.757 16.656 109.756 52.745 152.048a7.48 7.48 0 0 0 5.708 2.632 7.5 7.5 0 0 0 5.702-12.369 205.575 205.575 0 0 1-39.648-71.422c17.04 18.508 41.447 30.132 68.529 30.132 18.516 0 35.787-5.429 50.307-14.777a92.636 92.636 0 0 0-14.962 50.587c0 26.973 11.527 51.295 29.906 68.323-25.734-8.254-49.777-21.562-70.732-39.442a7.5 7.5 0 1 0-9.736 11.411c40.175 34.282 90.909 52.901 143.685 52.9 2.781 0 5.573-.052 8.363-.156 56.061-2.087 108.793-25.095 148.485-64.788 39.691-39.691 62.7-92.424 64.787-148.484 2.077-55.757-16.654-109.756-52.742-152.048zm37.897 143.284c0 43.113-35.076 78.189-78.189 78.189-43.114 0-78.19-35.076-78.19-78.189 0-43.114 35.076-78.19 78.19-78.19 43.113 0 78.189 35.076 78.189 78.19zm-156.417 50.587c-14.52-9.348-31.791-14.777-50.307-14.777s-35.787 5.429-50.307 14.777a92.636 92.636 0 0 0 14.962-50.587 92.627 92.627 0 0 0-13.983-49.042c14.316 8.968 31.225 14.162 49.327 14.162s35.012-5.194 49.327-14.162c-8.858 14.254-13.983 31.06-13.983 49.042.002 18.636 5.504 36.009 14.964 50.587zm27.882-178.656c0 43.114-35.076 78.189-78.189 78.189s-78.189-35.076-78.189-78.189c0-43.114 35.076-78.19 78.189-78.19s78.189 35.076 78.189 78.19zm-224.365-17.642c23.494-23.494 51.893-40.705 82.87-50.646-18.363 17.025-29.883 41.329-29.883 68.288a92.632 92.632 0 0 0 13.982 49.041 92.623 92.623 0 0 0-49.328-14.162c-26.831 0-51.036 11.409-68.054 29.618 9.976-30.694 27.103-58.83 50.413-82.139zM49.276 255.535c0-43.114 35.076-78.19 78.189-78.19 43.114 0 78.19 35.076 78.19 78.19 0 43.113-35.076 78.189-78.19 78.189-43.113.001-78.189-35.076-78.189-78.189zm128.535 128.999c0-43.114 35.076-78.189 78.189-78.189s78.189 35.076 78.189 78.189c0 43.114-35.076 78.19-78.189 78.19s-78.189-35.076-78.189-78.19zm224.365 17.642c-23.49 23.49-51.883 40.7-82.854 50.641 18.354-17.027 29.868-41.33 29.868-68.283a92.636 92.636 0 0 0-14.962-50.587c14.52 9.348 31.792 14.777 50.307 14.777 27.063 0 51.463-11.601 68.502-30.086-9.907 31.238-27.198 59.875-50.861 83.538z"/><path d="M437.02 74.98C388.667 26.629 324.38 0 256 0S123.333 26.629 74.98 74.98C26.629 123.333 0 187.62 0 256s26.629 132.667 74.98 181.02C123.333 485.371 187.62 512 256 512s132.667-26.629 181.02-74.98C485.371 388.667 512 324.38 512 256s-26.629-132.667-74.98-181.02zm-10.607 351.433C380.894 471.932 320.374 497 256 497s-124.894-25.068-170.413-70.587S15 320.374 15 256 40.068 131.106 85.587 85.587 191.626 15 256 15s124.894 25.068 170.413 70.587S497 191.626 497 256s-25.068 124.894-70.587 170.413z"/></svg>