<svg viewBox="0 0 512 512" xmlns="http://www.w3.org/2000/svg"><path d="M136.5 376h-114c-8.285 0-15-6.719-15-15V237c0-8.285 6.715-15 15-15s15 6.715 15 15v109h99c8.285 0 15 6.715 15 15 0 8.281-6.715 15-15 15zm0 0" fill="#ebe4e2"/><path d="M136.5 346h-29.996c8.281 0 15 6.715 15 15 0 8.281-6.719 15-15 15H136.5c8.285 0 15-6.719 15-15 0-8.285-6.715-15-15-15zm0 0" fill="#d1c4c4"/><path d="M375.5 376h114c8.285 0 15-6.719 15-15V237c0-8.285-6.715-15-15-15s-15 6.715-15 15v109h-99c-8.285 0-15 6.715-15 15 0 8.281 6.715 15 15 15zm0 0" fill="#ebe4e2"/><path d="M489.5 222c-8.285 0-15 6.715-15 15v109h-.09v15c0 8.281-6.715 15-15 15h30.09c8.285 0 15-6.719 15-15V237c0-8.285-6.715-15-15-15zm0 0" fill="#d1c4c4"/><path d="M241 300.5h30v174h-30zM29.5 376h98v98.5h-98zm0 0" fill="#685c79"/><path d="M97.5 376h30v98.5h-30zm0 0" fill="#594f69"/><path d="M384.5 376h98v98.5h-98zm0 0" fill="#685c79"/><path d="M452.5 376h30v98.5h-30zm0 0" fill="#594f69"/><path d="M313 275H190c0-29.273 23.73-53 53-53h17c29.27 0 53 23.727 53 53zm0 0" fill="#ffd659"/><path d="M260 222h-17c-2.203 0-4.367.148-6.496.41 26.2 3.207 46.5 25.52 46.5 52.59H313c0-29.273-23.73-53-53-53zm4.5-13c0 7.18-5.82 13-13 13s-13-5.82-13-13 5.82-13 13-13 13 5.82 13 13zm0 0" fill="#ffbd54"/><path d="M124.766 10.883l12.351 19.027a7.41 7.41 0 0 0 6.024 3.38l22.629.597c6.14.16 9.433 7.312 5.574 12.101l-14.227 17.649a7.451 7.451 0 0 0-1.34 6.781l6.442 21.766c1.75 5.906-4.016 11.25-9.754 9.046l-21.145-8.125a7.397 7.397 0 0 0-6.847.813l-18.649 12.855c-5.062 3.489-11.918-.359-11.605-6.507l1.16-22.668a7.439 7.439 0 0 0-2.895-6.282L74.52 57.496c-4.875-3.75-3.348-11.476 2.582-13.07l21.859-5.887a7.42 7.42 0 0 0 5.062-4.695l7.543-21.395c2.051-5.804 9.848-6.73 13.2-1.566zm0 0" fill="#ffd659"/><path d="M171.344 45.988c3.86-4.789.566-11.941-5.574-12.101l-22.633-.598a7.409 7.409 0 0 1-6.02-3.379l-12.351-19.027c-3.352-5.164-11.153-4.238-13.2 1.566l-.394 1.125c9.879 37.887 31.754 44.016 35.363 85.38l5.93 2.276c5.734 2.204 11.5-3.144 9.754-9.046l-6.442-21.766a7.429 7.429 0 0 1 1.34-6.781zm0 0" fill="#ffbd54"/><path d="M404.055 136.387l4.007 17.172a5.816 5.816 0 0 0 3.536 4.078l16.511 6.511c4.48 1.766 4.996 7.86.871 10.309l-15.207 9.023a5.741 5.741 0 0 0-2.8 4.579l-1.078 17.578c-.293 4.765-5.97 7.11-9.61 3.965l-13.402-11.59c-1.445-1.25-3.414-1.719-5.266-1.25l-17.18 4.351c-4.66 1.18-8.683-3.465-6.804-7.855l6.922-16.192a5.738 5.738 0 0 0-.453-5.351l-9.54-14.887c-2.585-4.039.602-9.254 5.403-8.82l17.68 1.586a5.81 5.81 0 0 0 4.984-2.059l11.285-13.55c3.059-3.676 9.055-2.258 10.14 2.402zm0 0" fill="#ffd659"/><path d="M413.77 183.48a5.74 5.74 0 0 0-2.801 4.579l-1.078 17.574c-.29 4.773-5.973 7.117-9.606 3.972l-1.933-1.68c5.996-30.14-5.36-44.616-6.043-72.01l1.605-1.93c3.063-3.676 9.055-2.255 10.14 2.402l4.009 17.175a5.806 5.806 0 0 0 3.539 4.075l16.511 6.511c4.473 1.77 4.992 7.864.867 10.309zm0 0" fill="#ffbd54"/><path d="M489.5 504.5h-467c-8.285 0-15-6.719-15-15 0-8.285 6.715-15 15-15h467c8.285 0 15 6.715 15 15s-6.715 15-15 15zm0 0" fill="#ebe4e2"/><path d="M489.5 474.5h-29.996c8.281 0 15 6.715 15 15 0 8.281-6.719 15-15 15H489.5c8.285 0 15-6.719 15-15 0-8.285-6.715-15-15-15zm0 0" fill="#d1c4c4"/><path d="M124.32 195.375c0 11.043-8.953 20-20 20s-20-8.957-20-20c0-11.047 8.953-20 20-20s20 8.953 20 20zM369.363 66.09c0 11.047-8.953 20-20 20-11.043 0-20-8.953-20-20 0-11.043 8.957-20 20-20 11.047 0 20 8.957 20 20zm0 0" fill="#51c4f5"/><path d="M419.086 346h-320v-50.973c0-11.062 8.965-20.027 20.023-20.027h279.95c11.058 0 20.027 8.965 20.027 20.027zm0 0" fill="#ff2c5c"/><path d="M399.059 275h-29.996c11.058 0 20.023 8.965 20.023 20.023V346h30v-50.977c0-11.058-8.969-20.023-20.027-20.023zm0 0" fill="#e62753"/><path d="M69.945 63.445l17.942 13.77-1.157 22.668c-.293 5.726 2.63 11.015 7.633 13.808a14.901 14.901 0 0 0 7.274 1.907c2.949 0 5.89-.891 8.441-2.645l18.555-12.844 21.14 8.121c5.336 2.051 11.254.915 15.454-2.964 4.207-3.887 5.808-9.715 4.183-15.211l-6.453-21.711 14.227-17.649c3.59-4.457 4.328-10.453 1.925-15.648-2.398-5.188-7.433-8.508-13.144-8.656l-22.559-.563-12.351-19.027v-.004c-3.118-4.8-8.586-7.363-14.266-6.692-5.68.676-10.39 4.45-12.297 9.852l-7.48 21.344-21.86 5.883c-5.515 1.484-9.632 5.89-10.75 11.5-1.117 5.613 1.008 11.27 5.543 14.761zm30.97-17.664a14.895 14.895 0 0 0 10.179-9.441l7.484-21.215 12.25 18.871a14.907 14.907 0 0 0 12.113 6.79l22.485.597-14.149 17.547a14.938 14.938 0 0 0-2.691 13.617l6.394 21.617-20.968-8.059a14.89 14.89 0 0 0-13.797 1.641l-18.496 12.746 1.148-22.512a14.954 14.954 0 0 0-5.808-12.609L79.195 51.63zm247.151 101.09c-2.636 4.352-2.57 9.715.18 14.004l9.04 14.105-6.552 15.329c-1.992 4.66-1.175 9.949 2.125 13.808 3.32 3.883 8.461 5.516 13.418 4.266l16.348-4.14 12.758 11.03a13.268 13.268 0 0 0 13.906 2.211c4.68-1.968 7.781-6.336 8.09-11.39l1.023-16.637 14.403-8.555c4.383-2.597 6.851-7.363 6.445-12.433-.41-5.09-3.625-9.422-8.39-11.301l-15.696-6.191-3.805-16.297c-1.156-4.946-4.953-8.746-9.906-9.918-4.957-1.176-10.055.52-13.305 4.422l-10.71 12.859-16.805-1.508c-5.117-.46-9.918 1.973-12.567 6.336zm28.907 10.191a13.297 13.297 0 0 0 11.418-4.73l9.129-10.957 3.242 13.887a13.294 13.294 0 0 0 8.082 9.351l13.23 5.219-12.129 7.203a13.219 13.219 0 0 0-6.46 10.567l-.864 14.105-10.832-9.371a13.362 13.362 0 0 0-12.012-2.844l-13.882 3.516 5.55-12.992a13.22 13.22 0 0 0-1.03-12.348l-7.61-11.875zm0 0"/><path d="M512 361V237c0-12.406-10.094-22.5-22.5-22.5S467 224.594 467 237v19c0 4.14 3.355 7.5 7.5 7.5s7.5-3.36 7.5-7.5v-19c0-4.137 3.363-7.5 7.5-7.5s7.5 3.363 7.5 7.5v124c0 4.137-3.363 7.5-7.5 7.5h-114c-4.137 0-7.5-3.363-7.5-7.5s3.363-7.5 7.5-7.5h99a7.5 7.5 0 0 0 7.5-7.5v-58.168c0-4.144-3.355-7.5-7.5-7.5s-7.5 3.356-7.5 7.5V338.5h-40.414v-43.477c0-15.175-12.352-27.523-27.527-27.523h-79.04c-3.257-26.223-23.347-47.277-49.093-51.992A20.407 20.407 0 0 0 272 209c0-11.305-9.195-20.5-20.5-20.5S231 197.695 231 209c0 2.273.387 4.457 1.074 6.508-25.746 4.715-45.836 25.77-49.094 51.992h-63.87c-15.176 0-27.528 12.348-27.528 27.523V338.5H45V237c0-12.406-10.094-22.5-22.5-22.5S0 224.594 0 237v124c0 12.238 9.824 22.219 22 22.484v8.079c0 4.14 3.36 7.5 7.5 7.5s7.5-3.36 7.5-7.5V383.5h83V467H37v-43.063a7.5 7.5 0 1 0-15 0v43.075c-12.176.27-22 10.25-22 22.488C0 501.906 10.094 512 22.5 512h467c12.406 0 22.5-10.094 22.5-22.5 0-12.238-9.824-22.219-22-22.488v-83.524c12.176-.27 22-10.25 22-22.488zm-37 22.5V467h-83v-83.5zm-99.5 0h1.5V467h-98.5V353.5h75.79A22.407 22.407 0 0 0 353 361c0 12.406 10.094 22.5 22.5 22.5zm-127-30h15V467h-15zm3-150c3.031 0 5.5 2.465 5.5 5.5 0 3.031-2.469 5.5-5.5 5.5s-5.5-2.469-5.5-5.5c0-3.035 2.469-5.5 5.5-5.5zm-8.5 26h17c22.535 0 41.297 16.469 44.883 38H198.117c3.586-21.531 22.348-38 44.883-38zm-220.5 139c-4.137 0-7.5-3.363-7.5-7.5V237c0-4.137 3.363-7.5 7.5-7.5s7.5 3.363 7.5 7.5v109c0 4.14 3.36 7.5 7.5 7.5h99c4.137 0 7.5 3.363 7.5 7.5s-3.363 7.5-7.5 7.5zm112.5 15h1.5c12.406 0 22.5-10.094 22.5-22.5 0-2.629-.457-5.152-1.29-7.5H192a7.5 7.5 0 1 0 0-15h-85.414v-43.477c0-6.906 5.617-12.523 12.523-12.523h279.95c6.906 0 12.527 5.617 12.527 12.523V338.5H224a7.5 7.5 0 1 0 0 15h9.5V467H135zm362 106c0 4.137-3.363 7.5-7.5 7.5h-467c-4.137 0-7.5-3.363-7.5-7.5s3.363-7.5 7.5-7.5h467c4.137 0 7.5 3.363 7.5 7.5zm0 0"/><path d="M104.32 167.875c-15.164 0-27.5 12.336-27.5 27.5 0 15.16 12.336 27.5 27.5 27.5s27.5-12.34 27.5-27.5c0-15.164-12.336-27.5-27.5-27.5zm0 40c-6.894 0-12.5-5.61-12.5-12.5 0-6.895 5.606-12.5 12.5-12.5 6.895 0 12.5 5.605 12.5 12.5 0 6.89-5.605 12.5-12.5 12.5zM349.363 93.59c15.164 0 27.5-12.336 27.5-27.5 0-15.16-12.336-27.5-27.5-27.5-15.16 0-27.5 12.34-27.5 27.5 0 15.164 12.34 27.5 27.5 27.5zm0-40c6.895 0 12.5 5.61 12.5 12.5 0 6.894-5.605 12.5-12.5 12.5-6.89 0-12.5-5.606-12.5-12.5 0-6.89 5.61-12.5 12.5-12.5zm0 0"/></svg>