<svg viewBox="0 0 512 512" xmlns="http://www.w3.org/2000/svg"><path d="M296.873 76.408v1.057c-.566 22.092-18.639 39.816-40.873 39.816-22.572 0-40.873-18.29-40.873-40.873S233.428 35.524 256 35.524c.001 22.593 18.28 40.873 40.873 40.884z" fill="#efc7b6"/><path d="M205.574 149.885l9.968 66.179h-27.594zm100.853 0l17.626 66.179H296.46z" fill="#f1e189"/><path d="M363.128 177.915c-.011 21.068-17.092 38.149-38.171 38.149h-.904l-17.626-66.179h-9.554v-72.42c.011-.349.011-.708.011-1.057C274.28 76.397 256 58.118 256 35.524c-22.572 0-40.873 18.301-40.873 40.884v73.477h-9.554l-17.626 66.179h-.915c-21.068 0-38.16-17.081-38.16-38.149 0-17.19 11.373-31.711 26.994-36.494a29.209 29.209 0 0 1-6.874-18.868c0-12.495 7.8-23.16 18.781-27.408V76.408c0-37.627 30.611-68.238 68.227-68.238 37.627 0 68.238 30.611 68.238 68.238v18.737c10.981 4.259 18.77 14.924 18.77 27.408 0 7.179-2.582 13.77-6.874 18.868 15.621 4.782 26.994 19.303 26.994 36.494z" fill="#ecd591"/><path d="M296.873 77.465v72.421h-81.746V76.408c0 22.582 18.301 40.873 40.873 40.873 22.234 0 40.307-17.724 40.873-39.816z" fill="#efaf5f"/><path d="M205.574 149.885l15.12 100.363h70.613l15.12-100.363z" fill="#b23451"/><path d="M382.933 471.149l8.704 32.681H120.364l8.704-32.681z" fill="#ecd591"/><path d="M291.307 250.248c23.977 12.735 42.104 35.034 49.25 61.832l42.376 159.069H129.068l42.376-159.069c7.146-26.798 25.273-49.098 49.25-61.832z" fill="#ee5f80"/><g fill="#700019"><path d="M410.719 273.793l-63.023-36.508c-5.9-3.418-12.872-12.531-14.628-19.119l-18.717-70.264-.023-.086a8.433 8.433 0 0 0-.44-1.235c-.017-.038-.031-.078-.049-.115a8.283 8.283 0 0 0-.706-1.224 8.112 8.112 0 0 0-.716-.897c-.04-.044-.084-.084-.125-.126a8.178 8.178 0 0 0-.862-.78 7.939 7.939 0 0 0-1.211-.774 7.988 7.988 0 0 0-1.086-.476c-.051-.019-.105-.032-.156-.049a8.06 8.06 0 0 0-1.065-.271c-.06-.011-.119-.026-.179-.036-.031-.005-.06-.014-.09-.019a8.347 8.347 0 0 0-1.108-.082c-.037 0-.073-.009-.11-.009H205.574c-.041 0-.08.01-.121.01a8.17 8.17 0 0 0-1.097.081c-.031.004-.06.013-.09.019-.061.01-.119.025-.179.036-.366.068-.72.159-1.065.271-.052.017-.105.031-.156.049a8.114 8.114 0 0 0-1.086.476c-.056.029-.109.059-.164.089a8.102 8.102 0 0 0-1.009.654 8.73 8.73 0 0 0-.9.812c-.041.042-.085.083-.125.126-.26.281-.497.582-.716.897-.046.065-.089.132-.133.199a8.032 8.032 0 0 0-.573 1.025l-.049.115c-.17.381-.313.775-.423 1.181a2.167 2.167 0 0 0-.039.139l-18.719 70.265c-1.756 6.588-8.728 15.702-14.627 19.119l-63.023 36.508a8.17 8.17 0 0 0-2.974 11.165 8.172 8.172 0 0 0 11.165 2.974l63.024-36.508c9.765-5.657 19.32-18.148 22.225-29.052l8.631-32.399 8.429 55.944c-23.676 14.282-41.108 37.335-48.229 64.063L122.794 462.98h-2.427a8.17 8.17 0 0 0-8.17 8.17c0 3.869 2.693 7.103 6.304 7.948l-6.029 22.63a8.168 8.168 0 0 0 7.894 10.273h271.267a8.17 8.17 0 0 0 7.894-10.273l-6.029-22.63c3.611-.845 6.304-4.079 6.304-7.948a8.17 8.17 0 0 0-8.17-8.17h-2.427l-40.758-153c-7.121-26.729-24.553-49.782-48.229-64.063l8.429-55.944 8.631 32.399c2.905 10.905 12.46 23.395 22.226 29.052l63.023 36.508a8.17 8.17 0 0 0 11.165-2.974 8.168 8.168 0 0 0-2.973-11.165zm-126.447-31.715h-56.543l-12.661-84.019h81.863zm48.387 72.108l39.638 148.793H194.434a8.17 8.17 0 0 0 0 16.34h182.214l4.353 16.34H130.999l4.353-16.34h26.402a8.17 8.17 0 0 0 0-16.34h-22.049l39.638-148.793c6.287-23.593 22.063-43.813 43.436-55.768h66.445c21.372 11.955 37.149 32.175 43.435 55.768zm-35.787-188.735a8.17 8.17 0 0 0 8.17-8.17V76.997c.002-.196.015-.39.015-.587a8.17 8.17 0 0 0-8.17-8.17c-18.04 0-32.716-14.677-32.716-32.717a8.17 8.17 0 0 0-8.17-8.17c-27.041 0-49.041 22.007-49.041 49.057v40.871a8.17 8.17 0 0 0 16.34 0v-4.363c8.683 7.787 20.147 12.533 32.7 12.533s24.015-4.743 32.7-12.524v4.354a8.173 8.173 0 0 0 8.172 8.17zm-40.871-16.341c-18.031 0-32.7-14.669-32.7-32.7 0-15.516 10.85-28.542 25.358-31.886 3.696 19.847 19.381 35.532 39.227 39.228-3.343 14.508-16.37 25.358-31.885 25.358z"/><path d="M163.007 208.653a8.17 8.17 0 0 0 1.02-11.509 30.005 30.005 0 0 1-6.98-19.233c0-13.274 8.521-24.797 21.204-28.673a8.172 8.172 0 0 0 3.872-13.065 21.235 21.235 0 0 1-4.957-13.625c0-8.83 5.324-16.599 13.561-19.79a8.17 8.17 0 0 0 5.219-7.619V76.413c0-33.124 26.939-60.073 60.052-60.073 33.124 0 60.073 26.949 60.073 60.073v18.734a8.17 8.17 0 0 0 5.215 7.617c8.231 3.195 13.551 10.961 13.551 19.786 0 4.976-1.76 9.814-4.957 13.625a8.172 8.172 0 0 0 3.872 13.065c12.683 3.877 21.204 15.399 21.204 28.673a29.999 29.999 0 0 1-6.982 19.234 8.17 8.17 0 0 0 1.019 11.509 8.135 8.135 0 0 0 5.242 1.906 8.153 8.153 0 0 0 6.268-2.925 46.37 46.37 0 0 0 10.794-29.725c0-16.997-9.048-32.137-23.306-40.232a37.589 37.589 0 0 0 3.186-15.13c0-13.666-7.206-25.898-18.765-32.532V76.413C332.412 34.279 298.133 0 255.998 0c-42.123 0-76.393 34.279-76.393 76.413v13.595c-11.568 6.63-18.781 18.866-18.781 32.541 0 5.24 1.102 10.394 3.186 15.13-14.256 8.095-23.306 23.236-23.306 40.232a46.374 46.374 0 0 0 10.791 29.722c2.9 3.46 8.052 3.918 11.512 1.02z"/></g></svg>