<?xml version="1.0" encoding="iso-8859-1"?>
<!-- Generator: Adobe Illustrator 19.0.0, SVG Export Plug-In . SVG Version: 6.00 Build 0)  -->
<svg version="1.1" id="Layer_1" xmlns="http://www.w3.org/2000/svg" xmlns:xlink="http://www.w3.org/1999/xlink" x="0px" y="0px"
	 viewBox="0 0 512 512" style="enable-background:new 0 0 512 512;" xml:space="preserve">
<path style="fill:#EFC7B6;" d="M296.873,76.408v1.057c-0.566,22.092-18.639,39.816-40.873,39.816
	c-22.572,0-40.873-18.29-40.873-40.873s18.301-40.884,40.873-40.884C256.001,58.117,274.28,76.397,296.873,76.408z"/>
<g>
	<polygon style="fill:#F1E189;" points="205.574,149.885 215.542,216.064 187.948,216.064 	"/>
	<polygon style="fill:#F1E189;" points="306.427,149.885 324.053,216.064 296.46,216.064 	"/>
</g>
<path style="fill:#ECD591;" d="M363.128,177.915c-0.011,21.068-17.092,38.149-38.171,38.149h-0.904l-17.626-66.179h-9.554V77.465
	c0.011-0.349,0.011-0.708,0.011-1.057c-22.604-0.011-40.884-18.29-40.884-40.884c-22.572,0-40.873,18.301-40.873,40.884v73.477
	h-9.554l-17.626,66.179h-0.915c-21.068,0-38.16-17.081-38.16-38.149c0-17.19,11.373-31.711,26.994-36.494
	c-4.292-5.098-6.874-11.689-6.874-18.868c0-12.495,7.8-23.16,18.781-27.408V76.408c0-37.627,30.611-68.238,68.227-68.238
	c37.627,0,68.238,30.611,68.238,68.238v18.737c10.981,4.259,18.77,14.924,18.77,27.408c0,7.179-2.582,13.77-6.874,18.868
	C351.755,146.203,363.128,160.724,363.128,177.915z"/>
<path style="fill:#EFAF5F;" d="M296.873,77.465v72.421h-81.746V76.408c0,22.582,18.301,40.873,40.873,40.873
	C278.234,117.281,296.307,99.557,296.873,77.465z"/>
<polygon style="fill:#B23451;" points="205.574,149.885 220.694,250.248 291.307,250.248 306.427,149.885 "/>
<polygon style="fill:#ECD591;" points="382.933,471.149 391.637,503.83 120.364,503.83 129.068,471.149 "/>
<path style="fill:#EE5F80;" d="M291.307,250.248c23.977,12.735,42.104,35.034,49.25,61.832l42.376,159.069H129.068l42.376-159.069
	c7.146-26.798,25.273-49.098,49.25-61.832L291.307,250.248L291.307,250.248z"/>
<g>
	<path style="fill:#700019;" d="M410.719,273.793l-63.023-36.508c-5.9-3.418-12.872-12.531-14.628-19.119l-18.717-70.264
		c-0.008-0.029-0.015-0.058-0.023-0.086c-0.126-0.46-0.27-0.854-0.44-1.235c-0.017-0.038-0.031-0.078-0.049-0.115
		c-0.166-0.356-0.359-0.697-0.573-1.025c-0.044-0.068-0.087-0.134-0.133-0.199c-0.218-0.315-0.455-0.615-0.716-0.897
		c-0.04-0.044-0.084-0.084-0.125-0.126c-0.269-0.279-0.555-0.541-0.862-0.78c-0.355-0.275-0.695-0.49-1.048-0.685
		c-0.054-0.031-0.109-0.061-0.163-0.089c-0.348-0.183-0.708-0.344-1.086-0.476c-0.051-0.019-0.105-0.032-0.156-0.049
		c-0.344-0.113-0.699-0.204-1.065-0.271c-0.06-0.011-0.119-0.026-0.179-0.036c-0.031-0.005-0.06-0.014-0.09-0.019
		c-0.373-0.056-0.742-0.076-1.108-0.082c-0.037,0-0.073-0.009-0.11-0.009H205.574c-0.041,0-0.08,0.01-0.121,0.01
		c-0.363,0.005-0.728,0.026-1.097,0.081c-0.031,0.004-0.06,0.013-0.09,0.019c-0.061,0.01-0.119,0.025-0.179,0.036
		c-0.366,0.068-0.72,0.159-1.065,0.271c-0.052,0.017-0.105,0.031-0.156,0.049c-0.377,0.132-0.739,0.294-1.086,0.476
		c-0.056,0.029-0.109,0.059-0.164,0.089c-0.353,0.196-0.693,0.411-1.009,0.654c-0.345,0.271-0.631,0.534-0.9,0.812
		c-0.041,0.042-0.085,0.083-0.125,0.126c-0.26,0.281-0.497,0.582-0.716,0.897c-0.046,0.065-0.089,0.132-0.133,0.199
		c-0.214,0.328-0.409,0.669-0.573,1.025c-0.017,0.038-0.032,0.077-0.049,0.115c-0.17,0.381-0.313,0.775-0.423,1.181
		c-0.025,0.084-0.033,0.112-0.039,0.139l-18.719,70.265c-1.756,6.588-8.728,15.702-14.627,19.119l-63.023,36.508
		c-3.904,2.262-5.237,7.261-2.974,11.165c2.262,3.904,7.262,5.235,11.165,2.974l63.024-36.508
		c9.765-5.657,19.32-18.148,22.225-29.052l8.631-32.399l8.429,55.944c-23.676,14.282-41.108,37.335-48.229,64.063l-40.757,152.999
		h-2.427c-4.512,0-8.17,3.658-8.17,8.17c0,3.869,2.693,7.103,6.304,7.948l-6.029,22.63c-0.654,2.452-0.13,5.069,1.416,7.081
		c1.546,2.013,3.94,3.192,6.478,3.192h271.267c2.538,0,4.932-1.18,6.478-3.192c1.546-2.012,2.07-4.629,1.416-7.081l-6.029-22.63
		c3.611-0.845,6.304-4.079,6.304-7.948c0-4.512-3.658-8.17-8.17-8.17h-2.427l-40.758-153c-7.121-26.729-24.553-49.782-48.229-64.063
		l8.429-55.944l8.631,32.399c2.905,10.905,12.46,23.395,22.226,29.052l63.023,36.508c1.29,0.747,2.698,1.102,4.087,1.102
		c2.819,0,5.562-1.461,7.078-4.076C415.955,281.053,414.624,276.054,410.719,273.793z M284.272,242.078h-56.543l-12.661-84.019
		h81.863L284.272,242.078z M332.659,314.186l39.638,148.793H194.434c-4.512,0-8.17,3.658-8.17,8.17c0,4.512,3.658,8.17,8.17,8.17
		h182.214l4.353,16.34H130.999l4.353-16.34h26.402c4.512,0,8.17-3.658,8.17-8.17c0-4.512-3.658-8.17-8.17-8.17h-22.049
		l39.638-148.793c6.287-23.593,22.063-43.813,43.436-55.768h66.445C310.596,270.373,326.373,290.593,332.659,314.186z"/>
	<path style="fill:#700019;" d="M296.872,125.451c4.512,0,8.17-3.658,8.17-8.17V76.997c0.002-0.196,0.015-0.39,0.015-0.587
		c0-4.512-3.658-8.17-8.17-8.17c-18.04,0-32.716-14.677-32.716-32.717c0-4.512-3.658-8.17-8.17-8.17
		c-27.041,0-49.041,22.007-49.041,49.057v40.871c0,4.512,3.658,8.17,8.17,8.17c4.512,0,8.17-3.658,8.17-8.17v-4.363
		c8.683,7.787,20.147,12.533,32.7,12.533c12.553,0,24.015-4.743,32.7-12.524v4.354C288.702,121.793,292.359,125.451,296.872,125.451
		z M256.001,109.11c-18.031,0-32.7-14.669-32.7-32.7c0-15.516,10.85-28.542,25.358-31.886c3.696,19.847,19.381,35.532,39.227,39.228
		C284.543,98.26,271.516,109.11,256.001,109.11z"/>
	<path style="fill:#700019;" d="M163.007,208.653c3.46-2.897,3.916-8.049,1.02-11.509c-4.501-5.376-6.98-12.206-6.98-19.233
		c0-13.274,8.521-24.797,21.204-28.673c2.621-0.801,4.667-2.864,5.446-5.493c0.779-2.629,0.187-5.472-1.574-7.572
		c-3.196-3.811-4.957-8.648-4.957-13.625c0-8.83,5.324-16.599,13.561-19.79c3.146-1.219,5.219-4.245,5.219-7.619V76.413
		c0-33.124,26.939-60.073,60.052-60.073c33.124,0,60.073,26.949,60.073,60.073v18.734c0,3.372,2.071,6.397,5.215,7.617
		c8.231,3.195,13.551,10.961,13.551,19.786c0,4.976-1.76,9.814-4.957,13.625c-1.763,2.1-2.353,4.944-1.574,7.572
		c0.779,2.629,2.824,4.691,5.446,5.493c12.683,3.877,21.204,15.399,21.204,28.673c0,7.027-2.479,13.858-6.982,19.234
		c-2.897,3.459-2.441,8.613,1.019,11.509c1.529,1.281,3.39,1.906,5.242,1.906c2.335,0,4.653-0.996,6.268-2.925
		c6.961-8.312,10.794-18.869,10.794-29.725c0-16.997-9.048-32.137-23.306-40.232c2.084-4.737,3.186-9.89,3.186-15.13
		c0-13.666-7.206-25.898-18.765-32.532V76.413C332.412,34.279,298.133,0,255.998,0c-42.123,0-76.393,34.279-76.393,76.413v13.595
		c-11.568,6.63-18.781,18.866-18.781,32.541c0,5.24,1.102,10.394,3.186,15.13c-14.256,8.095-23.306,23.236-23.306,40.232
		c0,10.854,3.832,21.41,10.791,29.722C154.395,211.093,159.547,211.551,163.007,208.653z"/>
</g>
<g>
</g>
<g>
</g>
<g>
</g>
<g>
</g>
<g>
</g>
<g>
</g>
<g>
</g>
<g>
</g>
<g>
</g>
<g>
</g>
<g>
</g>
<g>
</g>
<g>
</g>
<g>
</g>
<g>
</g>
</svg>
