<svg viewBox="0 -90 512.002 512" xmlns="http://www.w3.org/2000/svg"><path d="m464.105469 158.769531-44.59375-78.335937c-1.886719-2.480469-4.824219-3.933594-7.941407-3.933594h-404.082031v192.410156c0 7.816406 6.335938 14.15625 14.15625 14.15625h470.167969c7.011719 0 12.699219-5.6875 12.699219-12.703125v-74.957031c0-2.242188-1.007813-4.367188-2.742188-5.789062zm0 0" fill="#efefef"/><path d="m501.769531 189.617188-37.664062-30.847657-44.59375-78.335937c-1.890625-2.480469-4.824219-3.933594-7.941407-3.933594h-57.921874l52.871093 93.835938 37.664063 30.84375c1.734375 1.421874 2.742187 3.546874 2.742187 5.789062v74.960938c0 .382812-.027343.761718-.058593 1.136718h44.945312c7.011719 0 12.699219-5.6875 12.699219-12.703125v-74.957031c0-2.246094-1.007813-4.371094-2.742188-5.789062zm0 0" fill="#e2e2e2"/><path d="m455.898438 259.128906c-15.050782-15.050781-39.453126-15.050781-54.503907 0-15.050781 15.046875-15.050781 39.449219 0 54.5 15.050781 15.050782 39.453125 15.050782 54.503907 0 15.050781-15.050781 15.050781-39.453125 0-54.5zm0 0" fill="#31363b"/><path d="m428.652344 303.027344c-4.449219 0-8.628906-1.730469-11.773438-4.875-6.492187-6.492188-6.492187-17.054688 0-23.546875 3.144532-3.144531 7.324219-4.878907 11.773438-4.878907 4.445312 0 8.628906 1.734376 11.773437 4.878907s4.875 7.324219 4.875 11.773437c0 4.445313-1.730469 8.628906-4.875 11.773438-3.144531 3.144531-7.328125 4.875-11.773437 4.875zm0 0" fill="#e2e2e2"/><path d="m504.511719 209.707031h-27.535157c-5.003906 0-8.707031 4.660157-7.578124 9.535157l3.625 15.652343c.816406 3.527344 3.957031 6.027344 7.578124 6.027344h23.910157zm0 0" fill="#efa335"/><path d="m377.160156 76.5c2.878906 0 4.945313-2.773438 4.128906-5.53125l-17.011718-57.335938c-1.074219-3.640624-4.417969-6.140624-8.214844-6.140624h-334.421875c-7.816406 0-14.152344 6.335937-14.152344 14.152343v247.265625c0 7.816406 6.335938 14.15625 14.152344 14.15625h288.992187v-199.488281c0-3.910156 3.171876-7.082031 7.082032-7.082031h59.445312zm0 0" fill="#fc4e51"/><path d="m253.214844 79.273438v203.789062h57.417968v-199.484375c0-3.910156 3.171876-7.082031 7.078126-7.082031h-61.726563c-1.53125.003906-2.769531 1.242187-2.769531 2.777344zm0 0" fill="#ea3942"/><path d="m381.289062 70.96875-17.011718-57.335938c-1.074219-3.640624-4.417969-6.140624-8.214844-6.140624h-57.421875c3.796875 0 7.140625 2.5 8.214844 6.140624l18.652343 62.867188h51.652344c2.878906 0 4.945313-2.773438 4.128906-5.53125zm0 0" fill="#ea3942"/><path d="m335.703125 107.523438v58.046874c0 1.144532.929687 2.074219 2.074219 2.074219h84.039062c6.386719 0 10.394532-6.898437 7.234375-12.449219l-27.71875-48.699218c-.371093-.644532-1.058593-1.046875-1.804687-1.046875h-61.75c-1.144532 0-2.074219.929687-2.074219 2.074219zm0 0" fill="#33d8dd"/><path d="m110.597656 259.125c-15.050781-15.050781-39.453125-15.050781-54.503906 0s-15.050781 39.453125 0 54.503906c15.050781 15.046875 39.453125 15.046875 54.503906 0 15.046875-15.050781 15.046875-39.453125 0-54.503906zm0 0" fill="#31363b"/><path d="m83.347656 303.027344c-4.445312 0-8.628906-1.730469-11.773437-4.875-6.492188-6.492188-6.492188-17.054688 0-23.546875 3.144531-3.144531 7.328125-4.878907 11.773437-4.878907 4.449219 0 8.628906 1.734376 11.773438 4.878907 3.148437 3.144531 4.878906 7.324219 4.878906 11.773437 0 4.445313-1.730469 8.628906-4.878906 11.773438-3.144532 3.144531-7.324219 4.875-11.773438 4.875zm0 0" fill="#e2e2e2"/><path d="m38.507812 79.085938h240.902344v124.164062h-240.902344zm0 0" fill="#f3e8d7"/><path d="m221.824219 79.085938h57.585937v124.164062h-57.585937zm0 0" fill="#e5d8c6"/><path d="m54.152344 125.789062c-14.203125 0-25.710938-11.511718-25.710938-25.710937v-13.492187h51.421875v13.492187c0 14.199219-11.511719 25.710937-25.710937 25.710937zm0 0" fill="#efa335"/><path d="m105.574219 125.789062c-14.203125 0-25.710938-11.511718-25.710938-25.710937v-13.492187h51.421875v13.492187c0 14.199219-11.511718 25.710937-25.710937 25.710937zm0 0" fill="#ffc064"/><path d="m156.996094 125.789062c-14.199219 0-25.710938-11.511718-25.710938-25.710937v-13.492187h51.421875v13.492187c0 14.199219-11.511719 25.710937-25.710937 25.710937zm0 0" fill="#efa335"/><path d="m208.417969 125.789062c-14.199219 0-25.710938-11.511718-25.710938-25.710937v-13.492187h51.421875v13.492187c0 14.199219-11.511718 25.710937-25.710937 25.710937zm0 0" fill="#ffc064"/><path d="m259.839844 125.789062c-14.199219 0-25.710938-11.511718-25.710938-25.710937v-13.492187h51.421875v13.492187c0 14.199219-11.511719 25.710937-25.710937 25.710937zm0 0" fill="#efa335"/><path d="m271.335938 50.925781c-.988282-2.480469-3.390626-4.109375-6.058594-4.109375h-216.5625c-2.671875 0-5.070313 1.628906-6.0625 4.109375l-14.210938 35.660157h257.109375zm0 0" fill="#fd8f31"/><path d="m32.460938 196.46875h252.789062c2.265625 0 4.101562 1.835938 4.101562 4.101562v18.347657c0 2.265625-1.835937 4.101562-4.101562 4.101562h-252.789062c-2.265626 0-4.101563-1.835937-4.101563-4.101562v-18.347657c0-2.265624 1.835937-4.101562 4.101563-4.101562zm0 0" fill="#dfede7"/><path d="m285.25 196.46875h-53.484375v26.550781h53.484375c2.265625 0 4.101562-1.835937 4.101562-4.101562v-18.347657c0-2.265624-1.835937-4.101562-4.101562-4.101562zm0 0" fill="#ceddd6"/><path d="m20.867188 200.570312v18.347657c0 6.390625 5.203124 11.589843 11.59375 11.589843h252.789062c6.390625 0 11.589844-5.199218 11.589844-11.589843v-18.347657c0-5.828124-4.328125-10.65625-9.941406-11.460937v-69.832031c3.863281-5.425782 6.140624-12.050782 6.140624-19.199219v-13.492187c0-.019532-.003906-.035157-.003906-.050782 0-.074218-.007812-.148437-.011718-.226562-.007813-.210938-.019532-.421875-.042969-.628906-.011719-.085938-.027344-.171876-.039063-.253907-.035156-.207031-.074218-.410156-.121094-.609375-.019531-.078125-.039062-.152344-.058593-.230468-.0625-.226563-.136719-.449219-.21875-.667969-.015625-.035157-.023438-.070313-.035157-.105469l-.046874-.121094c-.007813-.011718-.011719-.019531-.015626-.03125l-14.152343-35.507812c-2.136719-5.359375-7.242188-8.824219-13.015625-8.824219h-147.851563c-4.140625 0-7.492187 3.351563-7.492187 7.488281 0 4.136719 3.351562 7.492188 7.492187 7.492188h147.195313l9.882812 24.789062h-235.015625l9.878907-24.789062h33.207031c4.136719 0 7.492187-3.355469 7.492187-7.492188 0-4.136718-3.355468-7.488281-7.492187-7.488281h-33.859375c-5.769532 0-10.878906 3.460937-13.019532 8.824219l-14.144531 35.5c-.011719.019531-.019531.042968-.027343.066406l-.039063.09375c-.011719.027344-.015625.054688-.027344.082031-.089843.226563-.164062.464844-.230469.703125-.019531.066406-.035156.132813-.050781.199219-.054687.214844-.09375.429687-.128906.648437-.011719.074219-.023437.144532-.035156.21875-.027344.226563-.042969.457032-.050781.691407 0 .054687-.007813.109375-.007813.167969 0 .019531-.003906.039062-.003906.0625v13.488281c0 9.320312 3.867187 17.75 10.070312 23.785156v65.21875c-5.710937.714844-10.152343 5.589844-10.152343 11.492187zm220.75-106.496093h36.441406v6.003906c0 10.046875-8.171875 18.222656-18.21875 18.222656-10.050782 0-18.222656-8.175781-18.222656-18.222656zm-51.421876 0h36.441407v6.003906c0 10.046875-8.171875 18.222656-18.21875 18.222656-10.050781 0-18.222657-8.175781-18.222657-18.222656zm-51.421874 0h36.441406v6.003906c0 10.046875-8.171875 18.222656-18.222656 18.222656-10.046876 0-18.21875-8.175781-18.21875-18.222656zm-51.421876 0h36.441407v6.003906c0 10.046875-8.171875 18.222656-18.222657 18.222656-10.046874 0-18.21875-8.175781-18.21875-18.222656zm-7.488281 26.980469c6.089844 7.453124 15.351563 12.222656 25.710938 12.222656 10.355469 0 19.617187-4.769532 25.710937-12.222656 6.09375 7.453124 15.351563 12.222656 25.710938 12.222656 10.355468 0 19.617187-4.769532 25.710937-12.222656 6.09375 7.453124 15.355469 12.222656 25.710938 12.222656s19.617187-4.769532 25.710937-12.222656c6.09375 7.453124 15.355469 12.222656 25.710938 12.222656 4.261718 0 8.335937-.816406 12.082031-2.285156v57.988281h-225.925781v-56.71875c2.613281.664062 5.34375 1.015625 8.15625 1.015625 10.355468 0 19.617187-4.765625 25.710937-12.222656zm-43.933593-26.980469h36.441406v6.003906c0 10.046875-8.171875 18.222656-18.21875 18.222656-10.050782 0-18.222656-8.175781-18.222656-18.222656zm-.082032 109.882812h246.015625v11.570313h-246.015625zm0 0"/><path d="m506.511719 183.820312-36.585938-29.964843-43.90625-77.128907c-.164062-.289062-.347656-.566406-.550781-.832031-3.285156-4.3125-8.480469-6.886719-13.898438-6.886719h-93.859374c-8.03125 0-14.570313 6.539063-14.570313 14.570313v191.996094h-175.066406c-1.910157-7.972657-5.96875-15.535157-12.179688-21.742188-17.945312-17.949219-47.144531-17.949219-65.09375 0-6.210937 6.210938-10.265625 13.769531-12.179687 21.742188h-16.980469c-3.671875 0-6.660156-2.988281-6.660156-6.664063v-247.265625c0-3.675781 2.988281-6.664062 6.660156-6.664062h334.421875c.472656 0 .894531.316406 1.035156.785156l8.648438 29.148437c1.175781 3.964844 5.34375 6.230469 9.308594 5.050782 3.964843-1.179688 6.226562-5.347656 5.050781-9.3125l-8.644531-29.136719c-1.996094-6.78125-8.332032-11.515625-15.398438-11.515625h-334.421875c-11.933594 0-21.640625 9.710938-21.640625 21.644531v247.265625c0 11.933594 9.707031 21.644532 21.640625 21.644532h15.894531c.933594 10.355468 5.355469 20.457031 13.265625 28.371093 8.972657 8.972657 20.757813 13.457031 32.546875 13.457031 11.789063 0 23.574219-4.484374 32.546875-13.457031 7.914063-7.914062 12.332031-18.015625 13.265625-28.371093h253.679688c.933594 10.355468 5.351562 20.457031 13.265625 28.371093 8.972656 8.972657 20.757812 13.457031 32.546875 13.457031 11.789062 0 23.574218-4.484374 32.546875-13.457031 7.914062-7.914062 12.332031-18.015625 13.269531-28.371093h17.34375c11.132812 0 20.191406-9.058594 20.191406-20.191407v-74.957031c-.003906-4.507812-2.003906-8.730469-5.492187-11.585938zm-401.207031 124.511719c-12.105469 12.105469-31.804688 12.105469-43.910157 0s-12.105469-31.804687 0-43.910156c5.863281-5.863281 13.660157-9.09375 21.953125-9.09375 8.292969 0 16.089844 3.230469 21.957032 9.09375 5.863281 5.863281 9.09375 13.664063 9.09375 21.957031 0 8.292969-3.230469 16.089844-9.09375 21.953125zm345.300781 0c-12.105469 12.105469-31.800781 12.105469-43.910157 0-12.105468-12.105469-12.105468-31.804687 0-43.910156 6.054688-6.050781 14.003907-9.078125 21.957032-9.078125 7.949218 0 15.902344 3.027344 21.953125 9.078125 12.109375 12.105469 12.109375 31.804687 0 43.910156zm46.414062-74.902343h-16.417969c-.136718 0-.253906-.089844-.285156-.226563l-3.621094-15.648437c-.015624-.058594-.03125-.140626.054688-.246094.089844-.113282.171875-.113282.226562-.113282h20.042969zm0-31.210938h-20.039062c-4.683594 0-9.042969 2.101562-11.957031 5.765625-2.914063 3.667969-3.976563 8.382813-2.921876 12.945313l3.625 15.652343c1.609376 6.964844 7.726563 11.828125 14.875 11.828125h16.421876v21.953125c0 2.875-2.339844 5.210938-5.210938 5.210938h-18.433594c-1.910156-7.972657-5.96875-15.535157-12.179687-21.742188-17.945313-17.949219-47.144531-17.949219-65.09375 0-6.210938 6.210938-10.269531 13.769531-12.179688 21.742188h-65.800781v-191.585938h93.445312c.664063 0 1.300782.269531 1.765626.730469l44.261718 77.757812c.453125.796876 1.050782 1.503907 1.761719 2.085938l37.660156 30.84375zm0 0"/><path d="m428.652344 262.238281c-6.449219 0-12.511719 2.511719-17.070313 7.070313-4.554687 4.554687-7.0625 10.617187-7.0625 17.070312s2.507813 12.515625 7.0625 17.066406c4.558594 4.5625 10.621094 7.074219 17.070313 7.074219 6.449218 0 12.511718-2.511719 17.070312-7.070312 4.558594-4.558594 7.070313-10.621094 7.070313-17.070313 0-6.449218-2.511719-12.507812-7.070313-17.070312-4.5625-4.5625-10.625-7.070313-17.070312-7.070313zm6.476562 30.617188c-1.730468 1.730469-4.03125 2.683593-6.476562 2.683593-2.449219 0-4.746094-.953124-6.476563-2.683593-1.726562-1.726563-2.675781-4.027344-2.675781-6.476563 0-2.453125.949219-4.753906 2.675781-6.480468 1.730469-1.726563 4.03125-2.679688 6.476563-2.679688 2.445312 0 4.746094.953125 6.476562 2.679688 1.730469 1.730468 2.683594 4.03125 2.683594 6.480468 0 2.445313-.953125 4.746094-2.683594 6.476563zm0 0"/><path d="m83.347656 262.238281c-6.445312 0-12.507812 2.511719-17.070312 7.070313-4.554688 4.554687-7.0625 10.617187-7.0625 17.070312s2.507812 12.515625 7.0625 17.070313c4.5625 4.558593 10.621094 7.070312 17.070312 7.070312 6.449219 0 12.511719-2.511719 17.066406-7.070312 4.5625-4.558594 7.074219-10.621094 7.074219-17.070313 0-6.449218-2.511719-12.511718-7.070312-17.070312-4.558594-4.5625-10.621094-7.070313-17.070313-7.070313zm6.476563 30.617188c-1.730469 1.730469-4.027344 2.683593-6.476563 2.683593-2.445312 0-4.746094-.953124-6.476562-2.683593-1.726563-1.726563-2.675782-4.027344-2.675782-6.476563 0-2.453125.949219-4.753906 2.675782-6.476562 1.730468-1.730469 4.03125-2.683594 6.476562-2.683594 2.449219 0 4.746094.953125 6.476563 2.679688 1.730469 1.730468 2.683593 4.03125 2.683593 6.480468 0 2.445313-.953124 4.746094-2.683593 6.476563zm0 0"/><path d="m407.839844 102.792969c-1.699219-2.980469-4.882813-4.832031-8.3125-4.832031h-61.75c-5.273438 0-9.5625 4.289062-9.5625 9.5625v58.046874c0 5.273438 4.289062 9.5625 9.5625 9.5625h84.035156c5.699219 0 10.808594-2.941406 13.675781-7.867187 2.863281-4.925781 2.890625-10.820313.070313-15.773437zm14.699218 56.945312c-.242187.414063-.59375.414063-.726562.414063h-78.621094v-47.214844h53.1875l26.164063 45.964844c.066406.113281.238281.417968-.003907.835937zm0 0"/></svg>