<svg viewBox="0 -90 512.002 512" xmlns="http://www.w3.org/2000/svg"><path d="M464.105 158.77l-44.593-78.336a9.974 9.974 0 0 0-7.942-3.934H7.488v192.41c0 7.817 6.336 14.156 14.157 14.156h470.168c7.011 0 12.699-5.687 12.699-12.703v-74.957a7.489 7.489 0 0 0-2.742-5.789zm0 0" fill="#efefef"/><path d="M501.77 189.617l-37.665-30.847-44.593-78.336a9.98 9.98 0 0 0-7.942-3.934h-57.922l52.872 93.836 37.664 30.844a7.489 7.489 0 0 1 2.742 5.789v74.96c0 .384-.028.762-.059 1.137h44.945c7.012 0 12.7-5.687 12.7-12.703v-74.957a7.477 7.477 0 0 0-2.742-5.789zm0 0" fill="#e2e2e2"/><path d="M455.898 259.129c-15.05-15.05-39.453-15.05-54.503 0-15.051 15.047-15.051 39.45 0 54.5 15.05 15.05 39.453 15.05 54.503 0 15.051-15.05 15.051-39.453 0-54.5zm0 0" fill="#31363b"/><path d="M428.652 303.027c-4.449 0-8.629-1.73-11.773-4.875-6.492-6.492-6.492-17.054 0-23.547a16.54 16.54 0 0 1 11.773-4.878c4.446 0 8.63 1.734 11.774 4.878s4.875 7.325 4.875 11.774c0 4.445-1.73 8.629-4.875 11.773a16.544 16.544 0 0 1-11.774 4.875zm0 0" fill="#e2e2e2"/><path d="M504.512 209.707h-27.535c-5.004 0-8.707 4.66-7.579 9.535l3.625 15.653a7.78 7.78 0 0 0 7.579 6.027h23.91zm0 0" fill="#efa335"/><path d="M377.16 76.5c2.88 0 4.945-2.773 4.13-5.531l-17.013-57.336a8.565 8.565 0 0 0-8.215-6.14H21.642c-7.817 0-14.153 6.335-14.153 14.152V268.91c0 7.817 6.336 14.156 14.153 14.156h288.992V83.578a7.083 7.083 0 0 1 7.082-7.082h59.445zm0 0" fill="#fc4e51"/><path d="M253.215 79.273v203.79h57.418V83.577a7.083 7.083 0 0 1 7.078-7.082h-61.727a2.774 2.774 0 0 0-2.77 2.777zm128.074-8.304l-17.012-57.336a8.565 8.565 0 0 0-8.214-6.14H298.64c3.796 0 7.14 2.5 8.214 6.14L325.508 76.5h51.652c2.88 0 4.945-2.773 4.13-5.531zm0 0" fill="#ea3942"/><path d="M335.703 107.523v58.047c0 1.145.93 2.075 2.074 2.075h84.04c6.386 0 10.394-6.899 7.234-12.45l-27.719-48.699a2.086 2.086 0 0 0-1.805-1.047h-61.75c-1.144 0-2.074.93-2.074 2.074zm0 0" fill="#33d8dd"/><path d="M110.598 259.125c-15.051-15.05-39.453-15.05-54.504 0s-15.051 39.453 0 54.504c15.05 15.047 39.453 15.047 54.504 0 15.047-15.05 15.047-39.453 0-54.504zm0 0" fill="#31363b"/><path d="M83.348 303.027c-4.446 0-8.63-1.73-11.774-4.875-6.492-6.492-6.492-17.054 0-23.547a16.548 16.548 0 0 1 11.774-4.878 16.54 16.54 0 0 1 11.773 4.878A16.525 16.525 0 0 1 100 286.38c0 4.445-1.73 8.629-4.879 11.773a16.537 16.537 0 0 1-11.773 4.875zm0 0" fill="#e2e2e2"/><path d="M38.508 79.086H279.41V203.25H38.508zm0 0" fill="#f3e8d7"/><path d="M221.824 79.086h57.586V203.25h-57.586zm0 0" fill="#e5d8c6"/><path d="M54.152 125.79c-14.203 0-25.71-11.513-25.71-25.712V86.586h51.421v13.492c0 14.2-11.511 25.711-25.71 25.711zm0 0" fill="#efa335"/><path d="M105.574 125.79c-14.203 0-25.71-11.513-25.71-25.712V86.586h51.421v13.492c0 14.2-11.512 25.711-25.71 25.711zm0 0" fill="#ffc064"/><path d="M156.996 125.79c-14.2 0-25.71-11.513-25.71-25.712V86.586h51.421v13.492c0 14.2-11.512 25.711-25.71 25.711zm0 0" fill="#efa335"/><path d="M208.418 125.79c-14.2 0-25.711-11.513-25.711-25.712V86.586h51.422v13.492c0 14.2-11.512 25.711-25.711 25.711zm0 0" fill="#ffc064"/><path d="M259.84 125.79c-14.2 0-25.711-11.513-25.711-25.712V86.586h51.422v13.492c0 14.2-11.512 25.711-25.711 25.711zm0 0" fill="#efa335"/><path d="M271.336 50.926a6.525 6.525 0 0 0-6.059-4.11H48.715a6.53 6.53 0 0 0-6.063 4.11l-14.21 35.66H285.55zm0 0" fill="#fd8f31"/><path d="M32.46 196.469h252.79a4.101 4.101 0 0 1 4.102 4.101v18.348a4.101 4.101 0 0 1-4.102 4.102H32.46a4.101 4.101 0 0 1-4.1-4.102V200.57a4.101 4.101 0 0 1 4.1-4.101zm0 0" fill="#dfede7"/><path d="M285.25 196.469h-53.484v26.55h53.484a4.101 4.101 0 0 0 4.102-4.101V200.57a4.101 4.101 0 0 0-4.102-4.101zm0 0" fill="#ceddd6"/><path d="M20.867 200.57v18.348c0 6.39 5.203 11.59 11.594 11.59H285.25c6.39 0 11.59-5.2 11.59-11.59V200.57c0-5.828-4.328-10.656-9.942-11.46v-69.833a32.993 32.993 0 0 0 6.141-19.199V86.586c0-.02-.004-.035-.004-.05 0-.075-.008-.15-.012-.227a8.358 8.358 0 0 0-.043-.63c-.011-.085-.027-.171-.039-.253a9.886 9.886 0 0 0-.12-.61l-.06-.23a7.848 7.848 0 0 0-.218-.668c-.016-.035-.023-.07-.035-.106l-.047-.12a.117.117 0 0 1-.016-.032l-14.152-35.508a13.94 13.94 0 0 0-13.016-8.824H117.426a7.491 7.491 0 0 0 0 14.98H264.62l9.883 24.79H39.488l9.88-24.79h33.206a7.49 7.49 0 0 0 0-14.98h-33.86c-5.769 0-10.878 3.461-13.019 8.824l-14.144 35.5a.338.338 0 0 0-.028.067l-.039.094c-.011.027-.015.054-.027.082-.09.226-.164.464-.23.703a7.319 7.319 0 0 0-.18.848l-.035.218a7.993 7.993 0 0 0-.051.691c0 .055-.008.11-.008.168 0 .02-.004.04-.004.063v13.488c0 9.32 3.867 17.75 10.07 23.785v65.22c-5.71.714-10.152 5.589-10.152 11.491zm220.75-106.496h36.442v6.004c0 10.047-8.172 18.223-18.22 18.223-10.05 0-18.222-8.176-18.222-18.223zm-51.422 0h36.442v6.004c0 10.047-8.172 18.223-18.219 18.223-10.05 0-18.223-8.176-18.223-18.223zm-51.422 0h36.442v6.004c0 10.047-8.172 18.223-18.223 18.223-10.047 0-18.219-8.176-18.219-18.223zm-51.421 0h36.441v6.004c0 10.047-8.172 18.223-18.223 18.223-10.047 0-18.218-8.176-18.218-18.223zm-7.489 26.98c6.09 7.454 15.352 12.223 25.711 12.223 10.356 0 19.617-4.77 25.711-12.222 6.094 7.453 15.352 12.222 25.711 12.222 10.356 0 19.617-4.77 25.711-12.222 6.094 7.453 15.356 12.222 25.711 12.222s19.617-4.77 25.71-12.222c6.095 7.453 15.356 12.222 25.712 12.222a33.03 33.03 0 0 0 12.082-2.285v57.988H45.996v-56.718a33.066 33.066 0 0 0 8.156 1.015c10.356 0 19.618-4.765 25.711-12.222zM35.93 94.075H72.37v6.004c0 10.047-8.172 18.223-18.219 18.223-10.05 0-18.222-8.176-18.222-18.223zm-.082 109.883h246.015v11.57H35.848zm0 0"/><path d="M506.512 183.82l-36.586-29.965-43.906-77.128a7.301 7.301 0 0 0-.551-.832c-3.285-4.313-8.48-6.887-13.899-6.887h-93.86c-8.03 0-14.57 6.539-14.57 14.57v191.996H128.075a45.711 45.711 0 0 0-12.18-21.742c-17.945-17.95-47.144-17.95-65.093 0a45.762 45.762 0 0 0-12.18 21.742h-16.98c-3.672 0-6.66-2.988-6.66-6.664V21.645c0-3.676 2.988-6.665 6.66-6.665h334.422c.472 0 .894.317 1.035.786l8.648 29.148c1.176 3.965 5.344 6.23 9.309 5.05a7.495 7.495 0 0 0 5.05-9.312l-8.644-29.136C369.465 4.734 363.129 0 356.063 0H21.64C9.707 0 0 9.71 0 21.645V268.91c0 11.934 9.707 21.645 21.64 21.645h15.895c.934 10.355 5.356 20.457 13.266 28.37 8.972 8.973 20.758 13.458 32.547 13.458 11.789 0 23.574-4.485 32.547-13.457 7.914-7.914 12.332-18.016 13.265-28.371h253.68c.933 10.355 5.351 20.457 13.265 28.37 8.973 8.973 20.758 13.458 32.547 13.458 11.79 0 23.575-4.485 32.547-13.457 7.914-7.914 12.332-18.016 13.27-28.371h17.344c11.132 0 20.19-9.059 20.19-20.192v-74.957a14.933 14.933 0 0 0-5.491-11.586zM105.305 308.332c-12.106 12.106-31.805 12.106-43.91 0s-12.106-31.805 0-43.91c5.863-5.863 13.66-9.094 21.953-9.094s16.09 3.23 21.957 9.094c5.863 5.863 9.093 13.664 9.093 21.957 0 8.293-3.23 16.09-9.093 21.953zm345.3 0c-12.105 12.106-31.8 12.106-43.91 0-12.105-12.105-12.105-31.805 0-43.91 6.055-6.05 14.004-9.078 21.957-9.078 7.95 0 15.903 3.027 21.953 9.078 12.11 12.105 12.11 31.805 0 43.91zm46.415-74.902h-16.418a.288.288 0 0 1-.286-.227l-3.62-15.648a.246.246 0 0 1 .054-.246c.09-.114.172-.114.227-.114h20.043zm0-31.211h-20.04a15.198 15.198 0 0 0-11.957 5.765 15.193 15.193 0 0 0-2.921 12.946l3.625 15.652a15.197 15.197 0 0 0 14.875 11.828h16.421v21.953c0 2.875-2.34 5.211-5.21 5.211h-18.434a45.711 45.711 0 0 0-12.18-21.742c-17.945-17.95-47.144-17.95-65.094 0a45.729 45.729 0 0 0-12.18 21.742h-65.8V83.988h93.445c.664 0 1.301.27 1.766.73l44.262 77.759a7.468 7.468 0 0 0 1.761 2.086l37.66 30.843zm0 0"/><path d="M428.652 262.238a23.984 23.984 0 0 0-17.07 7.07c-4.555 4.555-7.062 10.618-7.062 17.07s2.507 12.517 7.062 17.067c4.559 4.563 10.621 7.075 17.07 7.075 6.45 0 12.512-2.512 17.07-7.07a23.984 23.984 0 0 0 7.071-17.071c0-6.45-2.512-12.508-7.07-17.07a23.98 23.98 0 0 0-17.07-7.07zm6.477 30.617a9.101 9.101 0 0 1-6.477 2.684 9.094 9.094 0 0 1-6.476-2.684 9.096 9.096 0 0 1-2.676-6.476c0-2.453.95-4.754 2.676-6.48a9.113 9.113 0 0 1 6.476-2.68c2.446 0 4.746.953 6.477 2.68a9.103 9.103 0 0 1 2.684 6.48 9.101 9.101 0 0 1-2.684 6.476zM83.348 262.238c-6.446 0-12.508 2.512-17.07 7.07-4.555 4.555-7.063 10.618-7.063 17.07s2.508 12.517 7.062 17.071c4.563 4.559 10.621 7.07 17.07 7.07 6.45 0 12.512-2.511 17.067-7.07 4.563-4.558 7.074-10.62 7.074-17.07 0-6.45-2.511-12.512-7.07-17.07-4.559-4.563-10.621-7.07-17.07-7.07zm6.476 30.617a9.094 9.094 0 0 1-6.476 2.684 9.101 9.101 0 0 1-6.477-2.684 9.096 9.096 0 0 1-2.676-6.476c0-2.453.95-4.754 2.676-6.477a9.101 9.101 0 0 1 6.477-2.683c2.449 0 4.746.953 6.476 2.68a9.103 9.103 0 0 1 2.684 6.48 9.101 9.101 0 0 1-2.684 6.476zM407.84 102.793a9.588 9.588 0 0 0-8.313-4.832h-61.75c-5.273 0-9.562 4.289-9.562 9.562v58.047c0 5.274 4.289 9.563 9.562 9.563h84.036c5.699 0 10.808-2.942 13.675-7.867 2.864-4.926 2.89-10.82.07-15.774zm14.7 56.945c-.243.414-.595.414-.728.414h-78.62v-47.214h53.187l26.164 45.964c.066.114.238.418-.004.836zm0 0"/></svg>