<svg xmlns="http://www.w3.org/2000/svg" viewBox="0 0 512 512"><path d="M81.364 323.747c-15.302-12.601-37.892-14.176-55.185-1.732-17.988 12.944-23.893 37.576-13.716 57.263 6.29 12.169 17.144 20.155 29.227 23.174 4.349 1.087 7.1 5.542 6.122 9.917-2.718 12.154-.444 25.436 7.614 36.514 13.037 17.921 37.701 23.686 57.336 13.408 18.875-9.88 27.594-30.779 23.188-50.106-.814-3.568.696-7.258 3.81-9.18l57.792-35.671-48.481-78.548-57.792 35.671c-3.115 1.922-7.089 1.617-9.915-.71z" fill="#F9E8D4"/><path d="M197.556 367.329l-23.259-37.684-55.918 34.499c-3.108 1.918-4.61 5.617-3.796 9.183 4.401 19.324-4.323 40.223-23.195 50.113-14.37 7.528-31.439 6.455-44.675-1.709-.095 9.358 2.686 18.863 8.706 27.144 13.045 17.923 37.704 23.687 57.347 13.426 18.872-9.89 27.598-30.789 23.178-50.117-.815-3.566.705-7.26 3.813-9.179l57.799-35.676z" fill="#E8D0BA"/><path d="M504.494 256.009c0-11.113-5.841-20.859-14.618-26.345a2.052 2.052 0 0 1-.611-2.912 30.883 30.883 0 0 0 5.429-17.532 30.896 30.896 0 0 0-3.783-14.856 2.041 2.041 0 0 1 .432-2.507c7.901-6.908 12.897-17.056 12.897-28.376 0-20.817-16.875-37.691-37.691-37.691-1.588 0-3.151.102-4.687.295a1.996 1.996 0 0 1-2.051-1.109c-5.512-11.256-16.467-19.355-29.44-20.872a2.034 2.034 0 0 1-1.781-1.77c-2.185-18.737-18.101-33.282-37.424-33.282a37.526 37.526 0 0 0-14.494 2.898 2.074 2.074 0 0 1-2.858-1.573c-2.521-14.618-15.252-25.739-30.591-25.739-14.325 0-26.382 9.7-29.965 22.89-.388 1.428-2.101 1.981-3.262 1.064a30.908 30.908 0 0 0-19.231-6.676c-11.946 0-22.31 6.749-27.503 16.638a2.018 2.018 0 0 1-2.204 1.023 31.092 31.092 0 0 0-6.473-.681c-17.15 0-31.052 13.902-31.052 31.053v.012a2.087 2.087 0 0 1-.961 1.761c-8.538 5.533-14.19 15.141-14.19 26.073 0 6.845 2.22 13.17 5.973 18.302.784 1.071.328 2.622-.912 3.094-8.933 3.408-15.886 10.817-18.667 20.04-.269.894-1.125 1.474-2.057 1.431a33.893 33.893 0 0 0-1.566-.037c-20.817 0-37.691 16.875-37.691 37.691 0 9.815 3.757 18.748 9.905 25.454.914.997.688 2.591-.508 3.222-9.86 5.203-16.583 15.555-16.583 27.479 0 1.557.117 3.087.34 4.582.127.853-.285 1.709-1.046 2.113-9.827 5.213-16.522 15.546-16.522 27.444 0 4.682 1.043 9.118 2.899 13.098a2.082 2.082 0 0 1 0 1.769 30.906 30.906 0 0 0-2.899 13.098c0 14.645 10.139 26.916 23.779 30.191a2.117 2.117 0 0 1 1.569 1.553c3.385 13.484 15.585 23.47 30.118 23.47a30.913 30.913 0 0 0 20.153-7.438 2.036 2.036 0 0 1 2.736.085c5.581 5.368 13.163 8.669 21.518 8.669 13.639 0 25.221-8.795 29.392-21.021.508-1.489 2.485-1.854 3.494-.646 4.549 5.443 10.926 9.302 18.191 10.635a2.05 2.05 0 0 1 1.639 1.635c2.652 14.458 15.309 25.417 30.534 25.417 12.688 0 23.592-7.614 28.409-18.519a2.02 2.02 0 0 1 1.91-1.186c.243.007.487.011.733.011 8.841 0 16.818-3.695 22.473-9.623a2.062 2.062 0 0 1 2.997 0c5.655 5.928 13.632 9.623 22.473 9.623 14.353 0 26.429-9.739 29.986-22.968a2.03 2.03 0 0 1 2.129-1.501c.879.077 1.768.117 2.668.117 12.507 0 23.281-7.399 28.2-18.055a2.038 2.038 0 0 1 2.17-1.146c6.509 1.013 13.888-.62 21.254-6.79.151-.126.288-.277.401-.438 8.219-11.79 6.216-24.095-.793-31.74a2.063 2.063 0 0 1 0-2.803 23.333 23.333 0 0 0 6.118-17.078c-.05-.885.451-1.718 1.279-2.037 11.647-4.474 19.916-15.759 19.916-28.983z" fill="#FF9017"/><path d="M504.492 256.012c0 13.22-8.266 24.508-19.915 28.982-.831.32-1.331 1.151-1.281 2.042.03.41.04.831.04 1.251a23.308 23.308 0 0 1-6.155 15.822 2.064 2.064 0 0 0 0 2.802c7.005 7.646 9.017 19.955.791 31.744-.11.16-.25.31-.4.44-7.365 6.165-14.741 7.796-21.256 6.785a2.022 2.022 0 0 0-2.162 1.151c-4.924 10.658-15.702 18.053-28.201 18.053-.901 0-1.791-.04-2.672-.12a2.038 2.038 0 0 0-2.132 1.501c-3.553 13.23-15.632 22.967-29.982 22.967-8.837 0-16.823-3.693-22.477-9.617a2.056 2.056 0 0 0-2.992 0c-5.654 5.924-13.63 9.617-22.477 9.617-.24 0-.49 0-.731-.01a2.02 2.02 0 0 0-1.911 1.191c-4.814 10.898-15.722 18.514-28.411 18.514-13.46 0-24.929-8.576-29.222-20.565 11.919-.671 22.026-8.066 26.61-18.454a2.021 2.021 0 0 1 1.911-1.191c.24.01.49.01.731.01 8.847 0 16.823-3.693 22.477-9.617a2.056 2.056 0 0 1 2.992 0c5.654 5.924 13.64 9.617 22.477 9.617 14.351 0 26.43-9.737 29.982-22.967a2.047 2.047 0 0 1 2.132-1.501c.881.08 1.771.12 2.672.12 12.499 0 23.277-7.396 28.201-18.053a2.021 2.021 0 0 1 2.162-1.151c6.515 1.021 13.89-.62 21.256-6.785.15-.13.29-.28.4-.44 8.226-11.789 6.215-24.098-.791-31.734a2.077 2.077 0 0 1 0-2.812 23.308 23.308 0 0 0 6.155-15.822c0-.42-.01-.841-.04-1.251-.05-.891.45-1.721 1.281-2.042 11.649-4.473 19.915-15.762 19.915-28.982 0-11.118-5.834-20.856-14.611-26.35a2.056 2.056 0 0 1-.62-2.912 30.849 30.849 0 0 0 5.434-17.523 30.893 30.893 0 0 0-3.783-14.861 2.047 2.047 0 0 1 .43-2.512c7.906-6.905 12.9-17.053 12.9-28.371a37.452 37.452 0 0 0-4.093-17.093c19.625 1.321 35.116 17.653 35.116 37.598 0 11.318-4.994 21.466-12.9 28.371a2.044 2.044 0 0 0-.43 2.512 30.854 30.854 0 0 1 3.783 14.851 30.864 30.864 0 0 1-5.434 17.533 2.06 2.06 0 0 0 .62 2.912c8.776 5.484 14.611 15.232 14.611 26.35z" fill="#EF7D0A"/><path d="M512 256.009c0-11.592-5.092-22.318-13.842-29.597a38.357 38.357 0 0 0 4.041-17.191c0-5.02-.988-10.004-2.88-14.626a45.096 45.096 0 0 0 12.003-24.918 7.505 7.505 0 1 0-14.871-2.043c-.985 7.173-4.554 13.77-10.049 18.575-3.332 2.915-4.206 7.859-2.079 11.754a23.562 23.562 0 0 1 2.865 11.259c0 4.771-1.422 9.364-4.113 13.287a9.603 9.603 0 0 0-1.477 7.359 9.616 9.616 0 0 0 4.3 6.162c6.944 4.341 11.091 11.81 11.091 19.98 0 9.674-6.07 18.509-15.106 21.981-3.869 1.489-6.312 5.292-6.077 9.464a15.865 15.865 0 0 1-4.157 11.583 9.527 9.527 0 0 0-.001 12.948c4.24 4.625 6.551 12.736.56 21.798-4.843 3.877-9.798 5.451-14.732 4.682-4.2-.655-8.367 1.572-10.142 5.415-3.841 8.319-12.236 13.695-21.386 13.695-.661 0-1.339-.03-2.013-.089a9.524 9.524 0 0 0-10.031 7.029c-2.756 10.252-12.107 17.412-22.738 17.412-6.501 0-12.553-2.592-17.044-7.299a9.624 9.624 0 0 0-6.928-2.968h-.003a9.618 9.618 0 0 0-6.926 2.97c-4.489 4.707-10.542 7.297-17.042 7.297-.175 0-.349-.003-.518-.008a9.51 9.51 0 0 0-8.991 5.656c-3.77 8.532-12.226 14.046-21.544 14.046-11.367 0-21.104-8.102-23.151-19.263-.71-3.877-3.792-6.957-7.666-7.667-5.366-.985-10.263-3.85-13.785-8.065a9.556 9.556 0 0 0-16.358 3.036 23.543 23.543 0 0 1-22.288 15.939 23.429 23.429 0 0 1-16.315-6.574 9.508 9.508 0 0 0-12.815-.381 23.533 23.533 0 0 1-15.277 5.638c-10.819 0-20.21-7.316-22.839-17.789a9.606 9.606 0 0 0-7.097-7.026c-10.613-2.547-18.025-11.961-18.025-22.892 0-3.463.739-6.802 2.196-9.926a9.577 9.577 0 0 0 0-8.113 23.306 23.306 0 0 1-2.196-9.925 23.52 23.52 0 0 1 12.532-20.814c3.56-1.887 5.55-5.846 4.954-9.85a23.7 23.7 0 0 1-.258-3.477 23.515 23.515 0 0 1 12.582-20.842 9.45 9.45 0 0 0 4.93-6.79 9.557 9.557 0 0 0-2.395-8.142 30.085 30.085 0 0 1-7.932-20.381c0-16.644 13.541-30.186 30.186-30.186.409 0 .816.011 1.22.029 4.387.2 8.328-2.58 9.589-6.763 2.089-6.929 7.381-12.609 14.157-15.193a9.455 9.455 0 0 0 5.735-6.206 9.46 9.46 0 0 0-1.441-8.332 23.352 23.352 0 0 1-4.525-13.871c0-8.014 4.024-15.407 10.767-19.776a9.572 9.572 0 0 0 4.383-8.071c0-12.984 10.564-23.547 23.548-23.547 1.649 0 3.302.173 4.909.515 4.157.888 8.44-1.118 10.412-4.875 4.089-7.786 12.081-12.622 20.859-12.622 5.348 0 10.39 1.749 14.577 5.058a9.547 9.547 0 0 0 8.929 1.586 9.535 9.535 0 0 0 6.231-6.57c2.776-10.217 12.12-17.352 22.723-17.352 11.49 0 21.245 8.205 23.193 19.509a9.549 9.549 0 0 0 4.834 6.787 9.535 9.535 0 0 0 8.314.437 29.958 29.958 0 0 1 11.603-2.318c15.314 0 28.198 11.455 29.967 26.641a9.493 9.493 0 0 0 8.364 8.36c10.218 1.194 19.029 7.444 23.57 16.715a9.507 9.507 0 0 0 9.726 5.258c6.047-.761 11.906.275 17.195 2.911a7.507 7.507 0 0 0 6.696-13.436c-6.826-3.402-14.203-5.001-21.952-4.687-6.468-10.83-17.063-18.402-29.365-20.997-4.368-20.665-22.684-35.777-44.202-35.777a45.01 45.01 0 0 0-11.514 1.485c-5.282-15.319-19.739-25.899-36.429-25.899-14.897 0-28.277 8.607-34.647 21.623-5.455-2.858-11.504-4.345-17.812-4.345a38.453 38.453 0 0 0-32.099 17.197 38.623 38.623 0 0 0-4.08-.216c-20.29 0-36.971 15.753-38.452 35.686-9.604 7.276-15.257 18.56-15.257 30.72 0 6.05 1.385 11.898 4.046 17.208-7.068 4.19-12.695 10.591-15.92 18.167-23.927 1.127-43.045 20.946-43.045 45.147a45.037 45.037 0 0 0 7.917 25.546 38.465 38.465 0 0 0-15.102 30.609c0 .659.017 1.322.051 1.983a38.475 38.475 0 0 0-14.987 19.086L87.341 318.07c-.366.226-.839.182-1.201-.116a52.576 52.576 0 0 0-11.542-7.217 7.506 7.506 0 0 0-6.244 13.65 37.498 37.498 0 0 1 8.245 5.155c5.314 4.375 12.799 4.899 18.627 1.302l26.749-16.51a37.961 37.961 0 0 0 2.196 8.262 38.202 38.202 0 0 0-2.623 13.982c0 16.831 10.737 31.465 26.474 36.622a38.416 38.416 0 0 0 6.544 11.849l-18.742 11.569c-5.827 3.597-8.715 10.523-7.186 17.235 3.796 16.653-4.162 33.838-19.35 41.789-16.375 8.571-36.918 3.768-47.786-11.173-6.402-8.801-8.72-19.903-6.359-30.461 1.86-8.319-3.356-16.771-11.628-18.838-10.496-2.623-19.381-9.671-24.378-19.338-8.484-16.412-3.569-36.93 11.435-47.725a38.73 38.73 0 0 1 1.951-1.317 7.506 7.506 0 0 0-8.015-12.693 54.504 54.504 0 0 0-2.706 1.826c-20.998 15.106-27.876 43.825-16.001 66.8 6.976 13.497 19.396 23.342 34.073 27.009.401.1.708.594.617.999-3.301 14.765-.069 30.281 8.87 42.568 10.134 13.931 26.275 21.566 42.699 21.566 8.231 0 16.535-1.918 24.187-5.924 21.221-11.108 32.334-35.132 27.025-58.424-.104-.457.066-.899.434-1.126l23.214-14.329a38.534 38.534 0 0 0 17.599 4.234 38.564 38.564 0 0 0 21.264-6.401c6.647 5.004 14.71 7.717 23.143 7.717a38.557 38.557 0 0 0 33.033-18.656 38.614 38.614 0 0 0 13.127 6.668c4.647 16.43 19.703 28.008 37.089 28.008 14.056 0 26.914-7.658 33.675-19.781 7.867-.52 15.239-3.383 21.349-8.259 6.783 5.414 15.123 8.345 23.972 8.345 15.931 0 30.107-9.826 35.859-24.367 13.249-.373 25.404-7.608 32.11-18.918 6.318.157 14.639-1.591 23.257-8.81a9.782 9.782 0 0 0 1.737-1.898c9.504-13.631 7.78-27.869 1.46-37.416a30.796 30.796 0 0 0 5.176-15.078c12.835-6.486 21.23-19.882 21.23-34.441z"/><path d="M219.867 289.793a7.506 7.506 0 0 0-1.812-14.902c-11.565 1.407-19.829 11.96-18.423 23.524a20.99 20.99 0 0 0 7.946 14.083c3.755 2.941 8.288 4.497 12.985 4.497.86 0 1.725-.052 2.592-.157a7.506 7.506 0 0 0-1.812-14.902 6.063 6.063 0 0 1-4.509-1.256 6.073 6.073 0 0 1-2.3-4.077 6.121 6.121 0 0 1 5.333-6.81zm131.842-115.66a7.507 7.507 0 0 0 7.97-7.01c.467-7.281-1.93-14.31-6.749-19.788-4.82-5.479-11.485-8.753-18.765-9.219-8.246-.522-15.867 2.677-21.236 8.144a23.029 23.029 0 0 0-14.467-6.311c-6.193-.396-12.155 1.64-16.81 5.734-4.654 4.094-7.437 9.755-7.832 15.941a7.504 7.504 0 0 0 7.01 7.97c4.136.254 7.705-2.875 7.97-7.01a8.137 8.137 0 0 1 2.766-5.629 8.139 8.139 0 0 1 5.936-2.025 8.142 8.142 0 0 1 5.63 2.765 8.145 8.145 0 0 1 2.025 5.936 7.501 7.501 0 0 0 3.498 6.837c.145.091.298.172.45.254.062.033.121.072.184.103a7.497 7.497 0 0 0 3.365.792c.057 0 .113-.007.169-.008.093-.002.185-.008.277-.013.163-.01.324-.023.484-.043.078-.01.155-.022.232-.034a7.537 7.537 0 0 0 1.206-.294 7.504 7.504 0 0 0 1.307-.582c.06-.034.121-.068.18-.104.142-.086.28-.176.416-.271.061-.042.122-.084.181-.128.128-.095.252-.195.374-.299.06-.051.121-.101.18-.154.114-.103.224-.211.332-.321.059-.06.12-.119.177-.181.1-.109.194-.222.287-.337.057-.07.116-.139.171-.211a7.9 7.9 0 0 0 .246-.352c.053-.079.108-.156.158-.236.074-.12.141-.245.208-.369.047-.086.096-.17.14-.258.062-.127.116-.258.171-.388.039-.091.081-.18.116-.274.051-.137.093-.278.137-.419.029-.092.062-.181.087-.275.042-.158.073-.32.106-.482.016-.08.038-.158.051-.24.04-.245.07-.495.086-.749.434-6.773 6.319-11.931 13.068-11.494a12.216 12.216 0 0 1 8.452 4.152 12.22 12.22 0 0 1 3.041 8.914 7.512 7.512 0 0 0 7.015 7.966zm68.063 103.337a7.503 7.503 0 0 0-8.042 6.928 7.505 7.505 0 0 0 6.928 8.042c.838.062 1.668.093 2.495.093 17.254-.001 31.896-13.362 33.197-30.842.66-8.874-2.176-17.473-7.984-24.215-5.808-6.742-13.893-10.817-22.766-11.478a7.506 7.506 0 0 0-1.114 14.97 18.18 18.18 0 0 1 12.508 6.305 18.183 18.183 0 0 1 4.385 13.303c-.748 10.065-9.547 17.643-19.607 16.894z"/></svg>