<?xml version="1.0" encoding="iso-8859-1"?>
<!-- Generator: Adobe Illustrator 19.0.0, SVG Export Plug-In . SVG Version: 6.00 Build 0)  -->
<svg version="1.1" id="Layer_1" xmlns="http://www.w3.org/2000/svg" xmlns:xlink="http://www.w3.org/1999/xlink" x="0px" y="0px"
	 viewBox="0 0 511.998 511.998" style="enable-background:new 0 0 511.998 511.998;" xml:space="preserve">
<path style="fill:#E6E6E6;" d="M503.504,219.373c0,136.696-110.814,247.51-247.51,247.51S8.487,356.068,8.487,219.373"/>
<path style="fill:#CCCCCC;" d="M93.534,219.373H8.487c0,136.696,110.814,247.508,247.508,247.508c14.501,0,28.707-1.26,42.523-3.652
	C182.088,443.067,93.534,341.567,93.534,219.373z"/>
<path style="fill:#4CA1E0;" d="M441.269,153.899l-7.312,10.549c-1.607-5.772-3.894-11.273-6.768-16.389
	C432.079,149.926,436.776,151.884,441.269,153.899z"/>
<g>
	<path style="fill:#B3B3B3;" d="M503.509,219.375c0,0.362,0,0.713-0.011,1.075c-0.306,11.137-5.218,21.833-14.035,31.793
		l-20.068-82.919C491.07,183.994,503.509,201.108,503.509,219.375z"/>
	<path style="fill:#B3B3B3;" d="M60.19,238.368c-9.564,6.293-15.88,17.125-15.88,29.439c0,0.951,0.034,1.901,0.113,2.83
		c-22.807-14.94-35.936-32.484-35.936-51.261c0-19.185,13.718-37.09,37.453-52.246c-2.275,7.176-3.509,14.816-3.509,22.75
		C42.432,208.363,49.109,225.295,60.19,238.368z"/>
</g>
<path style="fill:#F94848;" d="M469.395,169.326l20.068,82.919c-3.011,3.407-6.485,6.723-10.379,9.949l-60.135-76.116l15.008-21.629
	l7.312-10.549h0.011l18.075-26.055L469.395,169.326z"/>
<path style="fill:#F97D7D;" d="M418.949,186.077l60.135,76.116c-23.09,19.117-61.176,34.804-108.17,44.651l26.293-148.282
	L418.949,186.077z"/>
<path style="fill:#FFD41D;" d="M433.957,164.447l-15.008,21.629l-21.743-27.515l-56.252,91.17c-0.973-1.596-2.15-3.09-3.531-4.471
	c-9.213-9.202-23.95-9.485-33.502-0.86l-0.611-0.872c1.347-0.905,2.615-1.935,3.803-3.124c9.507-9.496,9.507-24.912,0-34.408
	c-9.507-9.507-24.912-9.507-34.419,0c4.109-4.109,6.44-9.326,6.995-14.68c24.844-14.374,39.082-40.803,38.822-68.159
	c12.201-8.568,27.062-13.593,43.089-13.593c28.183,0,52.744,15.529,65.59,38.494C430.064,153.174,432.35,158.675,433.957,164.447z"
	/>
<path style="fill:#E2BA14;" d="M324.77,184.683c0-34.87,23.762-64.182,55.974-72.648c-6.113-1.607-12.527-2.471-19.145-2.471
	c-41.488,0-75.119,33.631-75.119,75.119s33.632,75.119,75.119,75.119c6.618,0,13.032-0.864,19.145-2.471
	C348.532,248.864,324.77,219.553,324.77,184.683z"/>
<path style="fill:#F94848;" d="M397.207,158.562l-26.293,148.282c-15.325,3.214-31.612,5.795-48.624,7.674
	c2.931-8.511,0.985-18.324-5.806-25.116c-2.083-2.071-4.437-3.701-6.961-4.867l0.079-0.158c9.066,4.403,20.294,2.83,27.821-4.697
	c8.127-8.127,9.304-20.566,3.531-29.948L397.207,158.562z"/>
<g>
	<path style="fill:#4CA1E0;" d="M340.954,249.731c5.772,9.383,4.595,21.822-3.531,29.948c-7.527,7.527-18.755,9.1-27.821,4.697
		c-2.388-1.154-4.618-2.716-6.587-4.697c-9.507-9.507-9.507-24.912,0-34.419c0.294-0.294,0.6-0.589,0.905-0.86
		c9.553-8.625,24.289-8.342,33.502,0.86C338.804,246.641,339.981,248.136,340.954,249.731z"/>
	<path style="fill:#4CA1E0;" d="M316.484,289.402c6.791,6.791,8.738,16.604,5.806,25.116c-14.408,1.596-29.337,2.682-44.662,3.214
		c-4.708-9.157-3.226-20.656,4.437-28.33c0.781-0.781,1.596-1.483,2.445-2.139c7.266-5.557,16.955-6.463,25.014-2.728
		C312.047,285.701,314.401,287.331,316.484,289.402z"/>
</g>
<path style="fill:#A3E261;" d="M318.51,123.158c0.26,27.357-13.978,53.785-38.822,68.159c0.736-7.04-1.596-14.34-6.995-19.739
	c-1.166-1.166-2.422-2.184-3.735-3.067c1.222-4.686,1.868-9.609,1.868-14.669c0-19.241-9.349-36.309-23.757-46.892
	c6.191-9.7,14.601-18.109,24.934-24.414c2.162-1.324,4.403-2.558,6.734-3.678l21.562-10.424l10.424,21.55
	C315.895,100.691,318.419,111.998,318.51,123.158z"/>
<path style="fill:#368CC1;" d="M309.602,284.377l-0.079,0.158c-8.059-3.735-17.747-2.83-25.014,2.728l-0.192-0.249
	c0.634-0.521,1.256-1.087,1.845-1.675c9.507-9.507,9.507-24.912,0-34.419c-2.083-2.071-4.437-3.701-6.961-4.867l0.396-0.804
	c7.583,3.543,16.604,2.965,23.712-1.72l0.611,0.872c-0.306,0.272-0.611,0.566-0.905,0.86c-9.507,9.507-9.507,24.912,0,34.419
	C304.984,281.661,307.214,283.223,309.602,284.377z"/>
<g>
	<path style="fill:#4CA1E0;" d="M307.112,205.997c9.507,9.496,9.507,24.912,0,34.408c-1.188,1.188-2.456,2.218-3.803,3.124
		c-7.108,4.686-16.129,5.263-23.712,1.72c-2.501-1.166-4.844-2.784-6.904-4.844c-9.496-9.496-9.496-24.912,0-34.408
		C282.2,196.49,297.605,196.49,307.112,205.997z"/>
	<path style="fill:#4CA1E0;" d="M286.162,250.92c9.507,9.507,9.507,24.912,0,34.419c-0.589,0.589-1.211,1.154-1.845,1.675
		c-9.553,7.798-23.644,7.244-32.563-1.675c-9.507-9.507-9.507-24.912,0-34.419c7.425-7.414,18.449-9.043,27.447-4.867
		C281.725,247.219,284.079,248.849,286.162,250.92z"/>
</g>
<path style="fill:#368CC1;" d="M284.317,287.014l0.192,0.249c-0.849,0.656-1.664,1.358-2.445,2.139
	c-7.663,7.674-9.145,19.173-4.437,28.33c-7.131,0.249-14.34,0.374-21.629,0.374c-4.584,0-9.134-0.045-13.65-0.147V256.76
	c3.441-1.154,6.667-3.101,9.406-5.84c-9.507,9.507-9.507,24.912,0,34.419C260.673,294.258,274.764,294.813,284.317,287.014z"/>
<path style="fill:#4CA1E0;" d="M272.693,171.578c5.399,5.399,7.73,12.699,6.995,19.739c-0.555,5.354-2.886,10.571-6.995,14.68
	c-7.436,7.436-18.494,9.055-27.515,4.833c-2.49-1.154-4.833-2.773-6.893-4.833c-9.507-9.507-9.507-24.912,0-34.419
	c8.342-8.342,21.222-9.36,30.673-3.067C270.271,169.393,271.527,170.412,272.693,171.578z"/>
<g>
	<path style="fill:#368CC1;" d="M298.454,289.402c-7.459,7.459-9.066,18.54-4.822,27.56c-5.286,0.328-10.617,0.577-16.004,0.77
		h-0.011c-4.708-9.157-3.226-20.656,4.448-28.33c6.87-6.87,16.808-8.76,25.387-5.704
		C304.169,284.875,301.079,286.777,298.454,289.402z"/>
	<path style="fill:#368CC1;" d="M327.198,283.653c-2.49-1.154-4.833-2.773-6.893-4.833c-9.507-9.507-9.507-24.912,0-34.419
		c2.632-2.632,5.716-4.531,9-5.704c-8.575-3.055-18.517-1.164-25.386,5.704c-9.507,9.507-9.507,24.912,0,34.419
		c2.06,2.06,4.403,3.678,6.893,4.833c5.829,2.728,12.503,3.002,18.507,0.859C328.604,284.256,327.893,283.977,327.198,283.653z"/>
	<path style="fill:#368CC1;" d="M275.031,290.172c-2.49-1.154-4.833-2.773-6.893-4.833c-9.507-9.507-9.507-24.912,0-34.419
		c2.632-2.632,5.716-4.531,9-5.704c-8.575-3.055-18.517-1.164-25.386,5.704c-9.507,9.507-9.507,24.912,0,34.419
		c2.06,2.06,4.403,3.678,6.893,4.833c5.829,2.728,12.503,3.002,18.507,0.859C276.437,290.775,275.726,290.497,275.031,290.172z"/>
	<path style="fill:#368CC1;" d="M295.97,245.249c-2.49-1.154-4.833-2.773-6.893-4.833c-9.507-9.507-9.507-24.912,0-34.419
		c2.632-2.632,5.716-4.531,9-5.704c-8.575-3.055-18.517-1.164-25.386,5.704c-9.507,9.507-9.507,24.912,0,34.419
		c2.06,2.06,4.403,3.678,6.893,4.833c5.829,2.728,12.503,3.002,18.507,0.859C297.376,245.853,296.665,245.574,295.97,245.249z"/>
	<path style="fill:#368CC1;" d="M261.562,210.83c-2.49-1.154-4.833-2.773-6.893-4.833c-9.507-9.507-9.507-24.912,0-34.419
		c2.632-2.632,5.716-4.531,9-5.704c-8.575-3.055-18.517-1.164-25.386,5.704c-9.507,9.507-9.507,24.912,0,34.419
		c2.06,2.06,4.403,3.678,6.893,4.833c5.829,2.728,12.503,3.002,18.507,0.859C262.968,211.433,262.257,211.155,261.562,210.83z"/>
	<path style="fill:#368CC1;" d="M279.597,245.249l-0.396,0.804c-8.998-4.176-20.022-2.547-27.447,4.867
		c9.496-9.496,9.496-24.9,0-34.408c-2.083-2.083-4.437-3.701-6.961-4.878l0.385-0.804c9.021,4.222,20.079,2.603,27.515-4.833
		c-9.496,9.496-9.496,24.912,0,34.408C274.753,242.465,277.096,244.084,279.597,245.249z"/>
</g>
<path style="fill:#FFD41D;" d="M270.825,153.842c0,5.059-0.645,9.983-1.868,14.669c-9.451-6.293-22.331-5.274-30.673,3.067
	c-9.507,9.507-9.507,24.912,0,34.419c2.06,2.06,4.403,3.678,6.893,4.833l-0.385,0.804c-9.009-4.176-20.034-2.547-27.458,4.878
	c9.507-9.507,9.507-24.912,0-34.419c-6.983-6.983-17.17-8.828-25.84-5.535c-3.577-19.954-15.031-37.181-31.024-48.33
	c8.036-16.378,23.565-28.42,42.116-31.669c3.282-0.577,6.655-0.872,10.096-0.872c12.858,0,24.753,4.176,34.385,11.262
	C261.476,117.533,270.825,134.601,270.825,153.842z"/>
<path style="fill:#93CC52;" d="M272.003,82.536c-10.334,6.304-18.743,14.714-24.934,24.414
	c-9.632-7.085-21.528-11.262-34.385-11.262c-3.441,0-6.814,0.294-10.096,0.872c1.075-10.492,4.324-20.928,9.904-30.673
	l11.918-20.769l20.769,11.907C256.428,63.476,265.46,72.316,272.003,82.536z"/>
<path style="fill:#368CC1;" d="M251.754,216.512c9.496,9.507,9.496,24.912,0,34.408c-2.739,2.739-5.965,4.686-9.406,5.84v-13.831
	c0-9.394-12.031-17.453-29.156-20.882c1.075-1.981,2.456-3.848,4.143-5.535c7.425-7.425,18.449-9.055,27.458-4.878
	C247.317,212.811,249.671,214.429,251.754,216.512z"/>
<g>
	<path style="fill:#FCE275;" d="M242.348,242.929v75.03c-22.15-0.475-43.531-2.117-63.757-4.788
		c-10.786-1.403-21.245-3.113-31.318-5.082v-65.16c0,9.79,13.05,18.132,31.318,21.29c5.059,0.872,10.526,1.347,16.219,1.347
		C221.07,265.566,242.348,255.436,242.348,242.929z"/>
	<path style="fill:#FCE275;" d="M213.192,222.047c17.125,3.429,29.156,11.488,29.156,20.882c0,12.507-21.279,22.637-47.537,22.637
		c-26.247,0-47.537-10.13-47.537-22.637c0-11.081,16.729-20.305,38.811-22.252c0.69-0.068,1.392-0.124,2.105-0.158h0.011
		c2.162-0.147,4.369-0.226,6.61-0.226c5.354,0,10.503,0.419,15.314,1.211h0.011C211.177,221.662,212.196,221.843,213.192,222.047z"
		/>
</g>
<path style="fill:#4CA1E0;" d="M217.335,182.093c9.507,9.507,9.507,24.912,0,34.419c-2.15,2.15-4.584,3.814-7.199,4.991h-0.011
	c-4.81-0.792-9.96-1.211-15.314-1.211c-2.241,0-4.448,0.079-6.61,0.226h-0.011c-0.555-0.306-1.075-0.634-1.607-0.996
	c-1.29-0.86-2.513-1.868-3.656-3.011c-5.603-5.603-7.9-13.243-6.904-20.532c0.69-5.071,2.999-9.983,6.904-13.888
	c2.513-2.513,5.444-4.369,8.568-5.535C200.165,173.264,210.351,175.109,217.335,182.093z"/>
<path style="fill:#FFA91F;" d="M176.023,195.98c-0.996,7.289,1.302,14.929,6.904,20.532c1.143,1.143,2.366,2.15,3.656,3.011
	c-0.158,0.385-0.328,0.77-0.498,1.154c-22.082,1.947-38.811,11.171-38.811,22.252v15.936c-9.111,3.939-19.162,6.123-29.722,6.123
	c-0.973,0-1.947-0.023-2.909-0.068c-1.471-18.109-16.627-32.337-35.11-32.337c-7.142,0-13.786,2.128-19.343,5.784
	c-11.081-13.073-17.759-30.005-17.759-48.488c0-7.934,1.234-15.574,3.509-22.75c9.632-30.367,38.052-52.37,71.611-52.37
	c15.948,0,30.752,4.98,42.919,13.469c15.993,11.149,27.447,28.375,31.024,48.33c-3.124,1.166-6.055,3.022-8.568,5.535
	C179.022,185.998,176.713,190.91,176.023,195.98z"/>
<g>
	<path style="fill:#368CC1;" d="M206.204,221.345c-2.49-1.154-4.833-2.773-6.893-4.833c-9.507-9.507-9.507-24.912,0-34.419
		c2.632-2.632,5.716-4.531,9-5.704c-8.575-3.055-18.517-1.164-25.386,5.704c-9.507,9.507-9.507,24.912,0,34.419
		c2.06,2.06,4.403,3.678,6.893,4.833c5.829,2.728,12.503,3.002,18.507,0.859C207.61,221.948,206.899,221.67,206.204,221.345z"/>
	<path style="fill:#368CC1;" d="M147.274,258.865v49.224c-16.774-3.271-32.472-7.278-46.847-11.918
		c8.693-6.418,14.329-16.729,14.329-28.364c0-0.973-0.034-1.935-0.113-2.886c0.962,0.045,1.935,0.068,2.909,0.068
		C128.112,264.989,138.162,262.804,147.274,258.865z"/>
</g>
<path style="fill:#E2901A;" d="M80.723,189.879c0-34.87,23.762-64.182,55.974-72.648c-6.113-1.607-12.527-2.471-19.145-2.471
	c-41.488,0-75.119,33.631-75.119,75.119s33.631,75.119,75.119,75.119c6.618,0,13.032-0.864,19.145-2.471
	C104.485,254.06,80.723,224.748,80.723,189.879z"/>
<path style="fill:#F94848;" d="M114.643,264.921c0.079,0.951,0.113,1.913,0.113,2.886c0,11.635-5.637,21.946-14.329,28.364
	c-22.139-7.142-41.131-15.789-56.003-25.534c-0.079-0.928-0.113-1.879-0.113-2.83c0-12.314,6.316-23.146,15.88-29.439
	c5.557-3.656,12.201-5.784,19.343-5.784C98.016,232.584,113.171,246.811,114.643,264.921z"/>
<path style="fill:#DD2C2C;" d="M62.895,264.921c-0.079,0.951-0.113,1.913-0.113,2.886c0,5.32,1.188,10.368,3.294,14.884
	c-7.946-3.78-15.189-7.81-21.652-12.054c-0.079-0.928-0.113-1.879-0.113-2.83c0-12.314,6.316-23.146,15.88-29.439
	c5.557-3.656,12.201-5.784,19.343-5.784c3.192,0,6.293,0.43,9.236,1.234C74.689,237.621,64.118,249.946,62.895,264.921z"/>
<path style="fill:#DDC55E;" d="M178.592,264.219v48.952c-10.786-1.403-21.245-3.113-31.318-5.082v-65.16
	C147.274,252.719,160.324,261.061,178.592,264.219z"/>
<path style="fill:#E2BA14;" d="M191.495,176.558c-3.577-19.954-15.031-37.181-31.024-48.33c8.036-16.378,23.565-28.42,42.116-31.669
	c3.282-0.577,6.655-0.872,10.096-0.872C212.683,95.688,188.178,132.824,191.495,176.558z"/>
<path d="M511.998,219.375c0-19.814-12.128-38.84-35.111-55.178l-9.281-38.35c-0.787-3.25-3.407-5.734-6.694-6.347
	c-3.283-0.615-6.626,0.758-8.532,3.506l-14.119,20.352c-1.744-0.73-3.494-1.424-5.248-2.115
	c-14.914-24.41-41.824-40.167-71.415-40.167c-12.57,0-24.768,2.782-35.914,8.104c-1.328-7.781-3.737-15.485-7.32-22.893
	l-10.424-21.55c-2.041-4.221-7.118-5.987-11.336-3.946l-21.565,10.425c-0.165,0.08-0.327,0.168-0.491,0.248
	c-6.858-8.78-15.434-16.235-25.147-21.805l-20.769-11.907c-4.068-2.332-9.252-0.927-11.584,3.139l-11.923,20.776
	c-5.013,8.756-8.381,18.113-10.099,27.879c-15.252,4.138-28.535,13.579-37.502,26.873c-11.935-6.488-25.574-10.15-39.971-10.15
	c-9.072,0-17.997,1.446-26.529,4.3c-4.446,1.486-6.845,6.296-5.358,10.742c1.486,4.447,6.299,6.843,10.742,5.358
	c6.793-2.272,13.908-3.423,21.146-3.423c30.253,0,56.358,20.203,64.233,48.839c-1.726,1.166-3.354,2.497-4.861,4.003
	c-2.748,2.748-4.902,5.867-6.47,9.197c-10.319-2.274-27.486-2.723-42.765,12.557c-3.315,3.315-3.315,8.69,0,12.004
	c1.657,1.657,3.83,2.487,6.002,2.487s4.345-0.828,6.002-2.487c10.045-10.045,21.422-9.354,27.749-7.849
	c0.354,4.332,1.555,8.607,3.618,12.546c-19.396,4.785-32.272,15.415-32.276,28.383l0,0v10.09c-5.51,1.86-11.221,2.981-17.072,3.339
	c-5.092-18.611-22.293-32.263-42.18-32.263c-5.869,0-11.602,1.192-16.935,3.437c-7.562-11.022-11.678-24.158-11.678-37.653
	c0-19.96,8.841-38.702,24.253-51.421c3.616-2.984,4.128-8.334,1.144-11.95c-2.984-3.616-8.334-4.129-11.95-1.144
	c-19.335,15.956-30.425,39.471-30.425,64.515c0,16.884,5.139,33.324,14.58,47.137c-5.054,5.081-8.756,11.295-10.816,18.112
	c-11.014-9.27-20.73-21.488-20.73-35.751c0-8.072,3.137-16.191,9.326-24.13c2.882-3.698,2.221-9.032-1.477-11.914
	c-3.699-2.881-9.031-2.221-11.914,1.477c-8.558,10.979-12.901,22.594-12.912,34.522c0,0.015-0.002,0.028-0.002,0.042
	c0,68.38,26.629,132.666,74.98,181.018c48.352,48.351,112.638,74.98,181.018,74.98c69.726,0,134.904-27.533,183.528-77.526
	c3.269-3.36,3.194-8.734-0.166-12.003c-3.36-3.268-8.734-3.194-12.003,0.166c-45.4,46.678-106.256,72.386-171.357,72.386
	c-116.955,0-214.549-84.44-235.048-195.555c5.306,5.177,11.589,10.159,18.822,14.9c15.531,10.176,35.062,19.098,58.049,26.512
	c14.767,4.767,30.86,8.862,47.824,12.171c30.24,5.92,62.715,9.294,96.514,10.026c4.396,0.098,9.052,0.149,13.841,0.149
	c7.311,0,14.657-0.127,21.84-0.377c0.031,0,0.062-0.001,0.093-0.002c5.786-0.206,11.093-0.462,16.212-0.78
	c9.634-0.582,19.417-1.416,29.078-2.48c17.142-1.894,33.773-4.518,49.433-7.803c48.851-10.235,87.525-26.288,111.845-46.422
	c2.366-1.96,4.573-3.958,6.637-5.972c-7.039,38.79-23.577,74.987-48.851,106.383c-2.939,3.652-2.362,8.996,1.289,11.935
	c1.569,1.263,3.45,1.877,5.317,1.877c2.481,0,4.94-1.083,6.618-3.166c36.359-45.166,56.409-102.015,56.479-160.108
	C511.991,219.578,511.998,219.477,511.998,219.375z M495.02,219.375c0,3.769-0.692,7.54-2.044,11.297l-9.111-37.647
	C490.335,200.598,495.02,209.492,495.02,219.375z M448.255,158.737l7.298-10.519l24.576,101.546
	c-0.009,0.008-0.017,0.017-0.026,0.025l-20.526-25.982c-2.908-3.678-8.247-4.306-11.924-1.398
	c-3.678,2.905-4.304,8.244-1.398,11.923l20.828,26.364c-20.097,14.282-49.853,26.474-85.583,35.067l20.765-117.109l29.326,37.116
	c2.905,3.678,8.244,4.306,11.923,1.398c3.678-2.905,4.304-8.244,1.398-11.923l-15.405-19.497l18.513-26.691
	C448.101,158.954,448.179,158.846,448.255,158.737z M332.005,304.791c-0.216-3.721-1.058-7.386-2.49-10.831
	c5.202-1.528,9.97-4.338,13.91-8.279c6.2-6.199,9.614-14.442,9.614-23.209c0-4.286-0.822-8.446-2.38-12.304l30.427-49.314
	l-17.522,98.819C353.399,301.67,342.832,303.378,332.005,304.791z M266.694,177.581c2.994,2.994,4.642,6.972,4.642,11.204
	c0,4.233-1.649,8.212-4.642,11.205c-6.178,6.178-16.231,6.179-22.409,0c-6.178-6.179-6.178-16.232,0-22.409
	c3.089-3.089,7.146-4.634,11.205-4.634C259.548,172.947,263.605,174.492,266.694,177.581z M336.061,262.473
	c0,4.232-1.648,8.212-4.642,11.204s-6.972,4.642-11.204,4.642c-4.232,0-8.211-1.648-11.204-4.642
	c-2.993-2.994-4.642-6.972-4.642-11.204c0-4.233,1.649-8.211,4.642-11.205c3.089-3.089,7.146-4.634,11.204-4.634
	c4.058,0,8.115,1.545,11.204,4.634C334.412,254.261,336.061,258.239,336.061,262.473z M245.748,222.511
	c3.991,3.995,5.386,9.605,4.219,14.741c-2.355-7.695-9.452-14.249-19.71-18.776C235.593,216.985,241.561,218.324,245.748,222.511z
	 M257.754,256.927c3.089-3.089,7.146-4.634,11.204-4.634s8.115,1.545,11.204,4.634c2.993,2.994,4.642,6.972,4.642,11.205
	c0,4.232-1.648,8.211-4.642,11.204s-6.972,4.642-11.204,4.642c-4.232,0-8.212-1.648-11.204-4.642
	c-2.993-2.994-4.642-6.972-4.642-11.204C253.112,263.899,254.761,259.92,257.754,256.927z M424.612,163.019l-6.107,8.806
	L403.867,153.3c-2.072-2.622-5.492-3.785-8.732-2.969c-2.182,0.549-3.994,1.939-5.134,3.785l-0.017-0.011l-50.478,81.811
	c-5.202-3.783-11.272-5.845-17.422-6.192c0.695-3.459,0.843-7.055,0.383-10.677c-0.59-4.651-4.84-7.95-9.49-7.351
	c-4.651,0.591-7.942,4.84-7.351,9.49c0.624,4.909-1.021,9.727-4.514,13.22c-6.179,6.178-16.232,6.178-22.409,0
	c-2.994-2.994-4.642-6.972-4.642-11.204s1.648-8.212,4.642-11.204c4.514-4.515,11.253-5.881,17.172-3.482
	c4.345,1.762,9.295-0.333,11.057-4.677c1.762-4.345-0.332-9.295-4.677-11.057c-2.285-0.926-4.629-1.58-6.991-1.973
	c19.19-15.708,30.363-38.848,31.535-62.933c10.455-6.432,22.401-9.823,34.803-9.823C390.079,118.053,415.445,136.36,424.612,163.019
	z M296.352,79.77l6.728,13.909c13.834,28.605,6.128,62.694-17.145,82.81c-1.63-4.035-4.066-7.742-7.236-10.912
	c-0.119-0.119-0.243-0.229-0.363-0.346c0.645-3.742,0.978-7.554,0.978-11.389c0-18.999-8.003-36.152-20.799-48.304
	c6.416-8.004,14.572-14.516,23.917-19.038L296.352,79.77z M219.853,70.111l7.695-13.409l13.408,7.686
	c7.394,4.24,13.782,9.634,19.075,16.085c-5.672,4.352-10.78,9.393-15.207,15.014c-9.484-5.246-20.371-8.251-31.946-8.284
	C214.413,81.27,216.74,75.547,219.853,70.111z M171.548,125.998c9.159-13.607,24.372-21.821,41.133-21.821
	c27.379,0,49.654,22.28,49.654,49.665c0,0.951-0.036,1.897-0.089,2.841c-10.486-2.19-21.843,0.769-29.967,8.893
	c-3.491,3.489-6.021,7.58-7.608,11.939c-0.43-0.483-0.872-0.961-1.336-1.425c-6.814-6.814-16.177-10.17-25.486-9.527
	C193.183,150.389,183.879,136.411,171.548,125.998z M188.929,210.509c-6.179-6.18-6.179-16.234,0-22.414
	c1.608-1.608,3.47-2.814,5.581-3.602c5.821-2.213,12.423-0.798,16.823,3.602c6.179,6.18,6.179,16.234,0,22.413
	c-0.839,0.838-1.759,1.557-2.736,2.18c-4.384-0.572-8.995-0.879-13.787-0.879c-1.443,0-2.864,0.036-4.272,0.091
	C189.985,211.476,189.443,211.024,188.929,210.509z M194.811,228.786c24.224,0,39.048,9.16,39.048,14.148
	c0,1.985-2.636,4.775-6.716,7.108c-4.07,2.327-5.483,7.513-3.156,11.583c2.011,3.517,6.155,5.043,9.871,3.894v43.68
	c-27.188-0.971-53.381-3.717-78.097-8.182v-35.368c9.942,5.261,23.567,8.411,39.048,8.411c5.209,0,10.357-0.37,15.304-1.098
	c4.638-0.684,7.844-4.997,7.161-9.635c-0.684-4.638-4.991-7.843-9.635-7.161c-4.129,0.609-8.446,0.917-12.829,0.917
	c-24.224,0-39.048-9.16-39.048-14.148C155.761,237.946,170.587,228.786,194.811,228.786z M138.785,297.655
	c-7.871-1.724-15.503-3.624-22.85-5.688c3.695-5.582,6.095-11.979,6.952-18.676c5.401-0.338,10.713-1.177,15.899-2.54v26.904
	H138.785z M106.184,265.624c0.057,0.677,0.084,1.391,0.084,2.183c0,7.169-2.779,13.822-7.725,18.798
	C80.781,280.59,65.46,273.652,52.87,265.93c0.578-8.298,4.963-15.85,11.985-20.472c4.362-2.869,9.438-4.386,14.679-4.386
	C93.359,241.073,105.064,251.85,106.184,265.624z M250.837,309.594v-14.086c4.779,3.177,10.302,5.03,16.112,5.379
	c-0.504,2.841-0.637,5.743-0.376,8.638c-3.518,0.06-7.05,0.092-10.575,0.092C254.254,309.617,252.537,309.608,250.837,309.594z
	 M293.106,308.49c-3.072,0.19-6.229,0.355-9.504,0.503c-0.749-4.882,0.819-9.938,4.463-13.584c6.181-6.174,16.24-6.174,22.417-0.003
	c3.08,3.08,4.691,7.151,4.647,11.323C307.787,307.455,300.407,308.048,293.106,308.49z"/>
<path d="M354.145,133.674c1.019,3.638,4.397,6.219,8.181,6.219c4.246,0,7.887-3.251,8.42-7.449
	c0.887-6.981-7.042-11.933-12.963-8.202C354.665,126.207,353.15,130.12,354.145,133.674z"/>
<g>
</g>
<g>
</g>
<g>
</g>
<g>
</g>
<g>
</g>
<g>
</g>
<g>
</g>
<g>
</g>
<g>
</g>
<g>
</g>
<g>
</g>
<g>
</g>
<g>
</g>
<g>
</g>
<g>
</g>
</svg>
