<svg viewBox="0 0 512.007 512.007" xmlns="http://www.w3.org/2000/svg"><path d="M504.003 164.008v32l-40-16.8-208-87.2-208 87.2-40 16.8v-32l248-104z" fill="#ed5565"/><path d="M144.003 420.008h40v32h-40zm184 0h40v32h-40z" fill="#656d78"/><path d="M332.003 364.008c6.64 0 12 5.36 12 12 0 6.56-5.36 12-12 12h-28c0-16 21.36-24 28-24zm-124 24h-28c-6.64 0-12-5.44-12-12 0-6.64 5.36-12 12-12s28 8 28 24z" fill="#ffce54"/><path d="M168.003 376.008c0 6.56 5.36 12 12 12h28c0-16-21.36-24-28-24s-12 5.36-12 12zm176 0c0-6.64-5.36-12-12-12s-28 8-28 24h28c6.64 0 12-5.44 12-12zm24-20v64h-224v-64l16-24h192z" fill="#e6e9ed"/><g fill="#434a54"><path d="M184.003 420.008h144v32h-144zm160-152l4 32 4 32 16 24v96h48v-184zm-248 184h48v-96l16-24 4-32 4-32h-72z"/></g><path d="M348.003 300.008l4 32h-192l4-32 4-32h176z" fill="#5d9cec"/><path d="M416.003 236.008v32h-320v-32z" fill="#f6bb42"/><path d="M96.003 204.008h320v32h-320z" fill="#ffce54"/><path d="M464.003 179.208v272.8h-48v-248h-320v248h-48v-272.8l208-87.2z" fill="#e6e9ed"/><path d="M432.003 165.792v286.216h32v-272.8z" fill="#ccd1d9"/><path d="M472.003 182.568l32 13.44v-32l-32-13.416z" fill="#da4453"/><path d="M257.507 332.008h-40l32-64h40z" fill="#87bcf4"/><path d="M8.003 172.008a7.992 7.992 0 0 1-7.376-4.912 7.994 7.994 0 0 1 4.28-10.472l248-104c4.056-1.704 8.768.208 10.472 4.288a7.994 7.994 0 0 1-4.28 10.472l-248 104a7.986 7.986 0 0 1-3.096.624z"/><path d="M504.003 172.008c-1.032 0-2.088-.2-3.096-.624l-248-104a7.994 7.994 0 0 1-4.28-10.472c1.704-4.072 6.4-6 10.472-4.288l248 104a7.994 7.994 0 0 1 4.28 10.472 7.98 7.98 0 0 1-7.376 4.912zm-496 32a7.992 7.992 0 0 1-7.376-4.912 7.994 7.994 0 0 1 4.28-10.472l248-104c4.056-1.696 8.768.216 10.472 4.288a7.994 7.994 0 0 1-4.28 10.472l-248 104a7.986 7.986 0 0 1-3.096.624z"/><path d="M504.003 204.008c-1.032 0-2.088-.2-3.096-.624l-248-104a7.994 7.994 0 0 1-4.28-10.472c1.704-4.072 6.4-5.992 10.472-4.288l248 104a7.994 7.994 0 0 1 4.28 10.472 7.98 7.98 0 0 1-7.376 4.912zm-496 0c-4.424 0-8-3.584-8-8v-32c0-4.416 3.576-8 8-8s8 3.584 8 8v32c0 4.416-3.576 8-8 8z"/><path d="M504.003 204.008c-4.424 0-8-3.584-8-8v-32c0-4.416 3.576-8 8-8s8 3.584 8 8v32c0 4.416-3.576 8-8 8zm-456 256c-4.424 0-8-3.576-8-8V179.232c0-4.416 3.576-8 8-8s8 3.584 8 8v272.776c0 4.424-3.576 8-8 8zm416 0c-4.424 0-8-3.576-8-8V179.232c0-4.416 3.576-8 8-8s8 3.584 8 8v272.776c0 4.424-3.576 8-8 8z"/><path d="M504.003 460.008h-496c-4.424 0-8-3.576-8-8s3.576-8 8-8h496c4.424 0 8 3.576 8 8s-3.576 8-8 8z"/><path d="M416.003 460.008c-4.424 0-8-3.576-8-8v-240h-304v240c0 4.424-3.576 8-8 8s-8-3.576-8-8v-248c0-4.416 3.576-8 8-8h320c4.424 0 8 3.584 8 8v248c0 4.424-3.576 8-8 8z"/><path d="M416.003 244.008h-320c-4.424 0-8-3.584-8-8s3.576-8 8-8h320c4.424 0 8 3.584 8 8s-3.576 8-8 8zm0 32h-320c-4.424 0-8-3.576-8-8 0-4.416 3.576-8 8-8h320c4.424 0 8 3.584 8 8 0 4.424-3.576 8-8 8zm-272 184c-4.424 0-8-3.576-8-8v-32c0-4.424 3.576-8 8-8s8 3.576 8 8v32c0 4.424-3.576 8-8 8zm40 0c-4.424 0-8-3.576-8-8v-32c0-4.424 3.576-8 8-8s8 3.576 8 8v32c0 4.424-3.576 8-8 8zm144 0c-4.424 0-8-3.576-8-8v-32c0-4.424 3.576-8 8-8s8 3.576 8 8v32c0 4.424-3.576 8-8 8zm40 0c-4.424 0-8-3.576-8-8v-32c0-4.424 3.576-8 8-8s8 3.576 8 8v32c0 4.424-3.576 8-8 8z"/><path d="M368.003 428.008h-224c-4.424 0-8-3.576-8-8s3.576-8 8-8h224c4.424 0 8 3.576 8 8s-3.576 8-8 8z"/><path d="M144.003 428.008c-4.424 0-8-3.576-8-8v-64c0-4.424 3.576-8 8-8s8 3.576 8 8v64c0 4.424-3.576 8-8 8zm224 0c-4.424 0-8-3.576-8-8v-63.992c0-4.424 3.576-8 8-8s8 3.576 8 8v63.992c0 4.424-3.576 8-8 8zm-136-32c-4.424 0-8-3.576-8-8v-8c0-4.424 3.576-8 8-8s8 3.576 8 8v8c0 4.424-3.576 8-8 8zm24 0c-4.424 0-8-3.576-8-8v-8c0-4.424 3.576-8 8-8s8 3.576 8 8v8c0 4.424-3.576 8-8 8zm24 0c-4.424 0-8-3.576-8-8v-8c0-4.424 3.576-8 8-8s8 3.576 8 8v8c0 4.424-3.576 8-8 8zm-119.992-56a8.5 8.5 0 0 1-1-.064 7.991 7.991 0 0 1-6.944-8.928l8-64c.544-4.384 4.528-7.512 8.928-6.944a7.991 7.991 0 0 1 6.944 8.928l-8 64c-.504 4.048-3.952 7.008-7.928 7.008zm191.984 0c-3.976 0-7.424-2.96-7.928-7.008l-8-64c-.544-4.384 2.56-8.384 6.944-8.928 4.432-.568 8.384 2.56 8.928 6.944l8 64c.544 4.384-2.56 8.384-6.944 8.928a8.5 8.5 0 0 1-1 .064zm-143.832 56h-28.16c-11.032 0-20-8.968-20-20s8.968-20 20-20c10.44 0 34.472 10.224 35.928 30.088.152.616.224 1.256.224 1.912.008 4.424-3.576 8-7.992 8zm-28.16-24c-2.2 0-4 1.8-4 4s1.8 4 4 4h16.216c-4.984-5.048-13.448-8-16.216-8zm152 24h-28c-4.424 0-8-3.576-8-8 0-21.112 25.232-32 36-32 11.032 0 20 8.968 20 20s-8.968 20-20 20zm-16.216-16h16.216c2.2 0 4-1.8 4-4s-1.8-4-4-4c-2.768 0-11.232 2.952-16.216 8z"/><path d="M143.995 364.008c-1.52 0-3.064-.44-4.432-1.344a7.994 7.994 0 0 1-2.216-11.096l16-24c2.44-3.68 7.408-4.664 11.096-2.216a7.994 7.994 0 0 1 2.216 11.096l-16 24a7.985 7.985 0 0 1-6.664 3.56zm224.016.008a7.985 7.985 0 0 1-6.664-3.56l-16-24.008c-2.456-3.68-1.456-8.64 2.216-11.096 3.68-2.448 8.648-1.464 11.096 2.216l16 24.008c2.456 3.68 1.456 8.64-2.216 11.096a8.031 8.031 0 0 1-4.432 1.344z"/><path d="M352.003 340.008h-192c-4.424 0-8-3.576-8-8s3.576-8 8-8h192c4.424 0 8 3.576 8 8s-3.576 8-8 8zm16-32h-20c-4.424 0-8-3.576-8-8s3.576-8 8-8h20c4.424 0 8 3.576 8 8s-3.576 8-8 8zm-204 0h-20c-4.424 0-8-3.576-8-8s3.576-8 8-8h20c4.424 0 8 3.576 8 8s-3.576 8-8 8z"/></svg>