<svg xmlns="http://www.w3.org/2000/svg" viewBox="0 0 60 60"><path d="M47.007 5.305l.049-.032-1.323-.816c-.078-.048-.16-.088-.238-.136a30.705 30.705 0 0 0-1.323-.754c-.227-.122-.457-.237-.687-.353a29.078 29.078 0 0 0-1.022-.492c-.203-.093-.405-.188-.609-.276a29.737 29.737 0 0 0-1.626-.648c-.113-.041-.228-.076-.342-.116A30.211 30.211 0 0 0 36.305.674c-.053-.011-.104-.025-.157-.036a29.393 29.393 0 0 0-1.865-.325c-.138-.02-.278-.035-.416-.053a30.133 30.133 0 0 0-1.483-.154c-.168-.013-.335-.028-.503-.038A27.927 27.927 0 0 0 30 0a30.32 30.32 0 0 0-2.557.116c-.631.053-1.258.121-1.878.214l-.186.026a29.606 29.606 0 0 0-2.454.494c-.562.136-1.118.285-1.667.452-.174.053-.346.111-.518.167-.492.16-.979.333-1.459.518a29.434 29.434 0 0 0-2.291.984c-.176.085-.349.18-.524.269-.418.212-.83.433-1.236.664-.203.115-.405.229-.606.349-.508.305-1.007.623-1.495.956-.067.046-.138.084-.204.131l-.545.378.005.022C4.887 11.197 0 20.036 0 30c0 16.542 13.458 30 30 30s30-13.458 30-30c0-10.231-5.152-19.278-12.993-24.695zM30 58C14.561 58 2 45.439 2 30c0-9.077 4.345-17.156 11.061-22.275.177.397.358.807.546 1.235 1.967 4.485 4.415 10.066 8.508 11.636 1.077.413 2.082.56 3.053.7 1.026.149 1.995.29 2.937.752.076.037.233.159.273.209.357.524.454 1.248.547 1.948.129.966.275 2.061 1.253 2.578.318.169.596.509.453.86-1.553 3.812-.242 8.191 3.341 11.157.918.76 1.356 2.842-1.772 8.442a2.484 2.484 0 0 0 .023 2.49A2.551 2.551 0 0 0 34.41 51c.29 0 .58-.051.86-.15 2.165-.77 4.006-1.888 6.157-3.739 1.485-1.276 2.392-2.575 3.27-3.832.886-1.269 1.724-2.468 3.097-3.479.2-.146.348-.345.427-.575.108-.316.25-.688.406-1.098 1.028-2.696 2.582-6.771-.174-8.204-.991-.515-1.688-1.702-2.497-3.077-.63-1.073-1.345-2.289-2.316-3.311-.376-.395-.906-.646-1.53-.727-.86-.11-1.547-.443-2.213-.765-.721-.349-1.402-.678-2.199-.678-.636 0-1.226.211-1.802.644-.692.522-1.402.223-1.658-.661-.194-.671-.599-1.495-2.012-1.931a.238.238 0 0 1-.143-.131.404.404 0 0 1-.003-.325c.175-.478.124-.951-.144-1.336-.459-.658-1.333-.751-1.974-.756a1.047 1.047 0 0 0-.102-.258l-.295-.527-.917.02-.235.139c-.255.148-.566.043-.818-.221a1.104 1.104 0 0 1-.317-.79c.01-.229.025-.359.038-.434.245-.072.83-.138 1.398-.201l.607-.069.147-.068c1.618-.751 1.854-.419 1.991-.277.132.136.434.603.395 2.01l-.025.888.878.13c.257.038.493.056.708.056 1.057 0 1.613-.445 1.894-.82.474-.632.541-1.5.204-2.653a.637.637 0 0 1 .115-.547c2.766-3.599 5.087-5.255 9.507-6.783C52.866 11.449 58 20.134 58 30c0 15.439-12.561 28-28 28z"/></svg>