<svg enable-background="new 0 0 512 512" viewBox="0 0 512 512" xmlns="http://www.w3.org/2000/svg"><g fill="#e65f58"><path d="m221.392 260.098c1.897-8.049.598-15.441-3.662-20.824-4.279-5.402-11.216-8.372-19.539-8.372h-65.088c-18.926 0-38.774 15.441-43.343 33.726l-6.731 26.931 129.946 4.333z"/><path d="m63.824 169.118c3.573 5.951 9.858 9.774 18.681 11.363 16.446 2.98 37.745-2.804 51.774-14.039 13.951-11.167 34.657-8.598 56.583-5.882 28.858 3.559 48.348 4.755 56.157-10.843 3.843-7.686 4.515-14.029 2.044-19.402-7.887-17.157-46.985-26.922-65.774-31.628-15.02-3.755-26.848-10.108-37.284-15.716-13.26-7.127-24.564-13.206-40.122-13.206-6.627 0-14.029 1.108-22.686 3.706-12.549 3.765-21.02 11.696-25.877 24.255-9.178 23.696-1.982 57.254 6.504 71.392zm26.529-68.726c16.608 0 30.118 13.51 30.118 30.118s-13.51 30.118-30.118 30.118-30.118-13.51-30.118-30.118 13.51-30.118 30.118-30.118z"/><circle cx="90.353" cy="130.51" r="10.039"/></g><path d="m432.309 90.353c-3.343-5.794-8.75-9.951-15.225-11.696-2.171-.588-4.377-.873-6.564-.873-4.324 0-8.588 1.127-12.422 3.343l-78.392 45.265c-5.784 3.333-9.917 8.735-11.637 15.196-1.725 6.471-.828 13.235 2.525 19.039 3.343 5.794 8.75 9.951 15.225 11.696 6.461 1.745 13.216.863 18.985-2.471l66.804-38.573v-.77h1.333l10.256-5.922c5.784-3.333 9.917-8.735 11.637-15.196 1.725-6.469.828-13.234-2.525-19.038z" fill="#c59981"/><path d="m467.044 209.784c1.725-6.471.828-13.225-2.525-19.039-3.348-5.804-8.755-9.951-15.225-11.696-6.466-1.755-13.211-.863-18.985 2.471l-78.397 45.265c-5.784 3.333-9.917 8.735-11.637 15.196-1.725 6.471-.828 13.225 2.525 19.039 6.917 11.98 22.27 16.127 34.211 9.226l78.397-45.265c5.783-3.334 9.915-8.736 11.636-15.197z" fill="#c59981"/><path d="m240.941 476.833c0 8.324 6.755 15.088 15.059 15.088s15.059-6.765 15.059-15.088v-105.382h-30.118z" fill="#e9e7d1"/><path d="m461.706 0h-411.412c-27.73 0-50.294 22.51-50.294 50.177v271.098c0 27.667 22.564 50.177 50.294 50.177h9.941 20.078 50.196 20.078 50.196 20.078v105.382c.002 19.391 15.766 35.166 35.139 35.166s35.137-15.775 35.137-35.167v-105.382h50.196 20.078 50.196 20.078 30.02c27.731 0 50.294-22.51 50.294-50.177v-271.097c.001-27.667-22.563-50.177-50.293-50.177zm-38.51 124.588-10.256 5.922h-1.333v.77l-66.804 38.573c-5.77 3.333-12.524 4.216-18.985 2.471-6.476-1.745-11.882-5.902-15.225-11.696-3.353-5.804-4.25-12.569-2.525-19.039 1.72-6.461 5.853-11.863 11.637-15.196l78.392-45.265c3.833-2.216 8.098-3.343 12.422-3.343 2.186 0 4.392.284 6.564.873 6.476 1.745 11.882 5.902 15.225 11.696 3.353 5.804 4.25 12.569 2.525 19.039-1.72 6.46-5.853 11.862-11.637 15.195zm-46.186 145.657c-11.941 6.902-27.294 2.755-34.211-9.226-3.353-5.814-4.25-12.569-2.525-19.039 1.72-6.461 5.853-11.863 11.637-15.196l78.397-45.265c5.775-3.333 12.52-4.226 18.985-2.471 6.471 1.745 11.877 5.892 15.225 11.696 3.353 5.814 4.25 12.569 2.525 19.039-1.72 6.461-5.853 11.863-11.637 15.196zm34.598-101.116-60.235 34.778v-14.949c1.166-.547 2.342-1.062 3.471-1.713l56.765-32.777v14.661zm-190.745 182.244v-35.137h.005c4.642 0 8.696-3.196 9.77-7.735l10.304-43.794c3.329-14.157.676-27.608-7.471-37.892-3.439-4.344-7.793-7.661-12.608-10.282v-33.68c18.069-.514 34.912-5.757 44.118-24.156 6.647-13.304 7.431-25.667 2.324-36.774-7.305-15.888-25.512-25.916-46.441-33.251v-68.594h50.196v331.294h-40.157-10.04zm-137.834-59.814 6.73-26.931c4.569-18.284 24.417-33.726 43.343-33.726h65.088c8.324 0 15.26 2.971 19.539 8.372 4.26 5.382 5.559 12.774 3.662 20.824l-8.417 35.794zm105.133-212.343c-12.593-3.157-22.789-8.627-32.652-13.931-1.627-.874-3.278-1.737-4.921-2.604v-42.603h50.196v62.419c-4.221-1.149-8.447-2.238-12.623-3.281zm-57.652-25.452c-13.443-4.481-29.227-5.966-50.196-.221v-33.465h50.196zm-47.314 19.706c8.657-2.598 16.059-3.706 22.686-3.706 15.559 0 26.863 6.078 40.122 13.206 10.436 5.608 22.265 11.961 37.284 15.716 18.789 4.706 57.887 14.471 65.774 31.628 2.471 5.372 1.799 11.716-2.044 19.402-7.809 15.598-27.299 14.402-56.157 10.843-21.926-2.716-42.632-5.284-56.583 5.882-14.029 11.235-35.328 17.019-51.774 14.039-8.823-1.588-15.108-5.412-18.681-11.363-8.485-14.137-15.681-47.696-6.505-71.392 4.858-12.558 13.329-20.49 25.878-24.255zm114.995 137.354h-47.603v-30.708c8.58-3.225 23.384-1.407 37.804.375 4.013.495 8.175.996 12.392 1.421v29.171c-.883-.044-1.694-.259-2.593-.259zm-117.877-10.463c3.61.568 7.309.952 11.122.952 13.013 0 26.801-3.306 39.074-9.153v18.903c-19.664.907-38.564 11.861-50.196 27.846zm210.823-180.283h40.157v76.434l-21.627 12.488c-8.37 4.83-14.699 12.12-18.529 20.808v-109.73zm120.471 37.777c-8.181-.205-16.29 1.691-23.549 5.88l-36.686 21.183v-64.84h60.235zm-361.314 293.518c-16.662 0-30.216-13.5-30.216-30.098v-271.098c0-16.598 13.554-30.098 30.216-30.098h9.941v42.405c-9.656 6.673-17.034 16.093-21.642 27.987-12.142 31.353-2.397 71.627 8.015 88.98 3.377 5.629 7.997 10.224 13.627 13.757v158.164h-9.941zm30.02 0v-39.821l50.196 1.673v38.148zm70.274 0v-37.479l50.196 1.673v35.805h-50.196zm120.471 125.46c0 8.324-6.755 15.088-15.059 15.088s-15.059-6.765-15.059-15.088v-105.382h30.118zm20.078-125.46v-185.249c.67 1.522 1.221 3.083 2.064 4.543 6.025 10.431 15.75 17.902 27.392 21.039 3.541.958 7.129 1.416 10.701 1.504v24.925c-4.835 5.279-8.522 11.545-10.421 18.669-3.103 11.647-1.495 23.814 4.534 34.255 3.981 6.893 9.54 12.29 15.926 16.108v64.205h-50.196zm70.275 0v-57.923c1.065.076 2.125.207 3.196.207 7.637 0 15.373-1.941 22.441-6.02l24.559-14.18v77.915h-50.196zm130.51-30.099c0 16.598-13.554 30.098-30.216 30.098h-30.02v-89.508l33.76-19.492c10.436-6.02 17.892-15.755 21-27.412 3.103-11.647 1.49-23.814-4.539-34.255-6.025-10.431-15.75-17.902-27.387-21.039-7.612-2.057-15.406-1.889-22.833.015v-16.806l1.549-.894c10.431-6.02 17.892-15.755 21-27.412 3.103-11.647 1.495-23.814-4.534-34.255-4.31-7.462-10.571-13.323-18.015-17.252v-42.984h30.02c16.661 0 30.215 13.5 30.215 30.098z" fill="#090909"/><path d="m90.353 160.627c16.608 0 30.118-13.51 30.118-30.118s-13.51-30.118-30.118-30.118-30.118 13.51-30.118 30.118 13.51 30.118 30.118 30.118zm0-40.156c5.534 0 10.039 4.5 10.039 10.039s-4.505 10.039-10.039 10.039-10.039-4.5-10.039-10.039 4.505-10.039 10.039-10.039z" fill="#090909"/></svg>