<?xml version="1.0"?>
<svg xmlns="http://www.w3.org/2000/svg" xmlns:xlink="http://www.w3.org/1999/xlink" version="1.1" id="Layer_1" x="0px" y="0px" viewBox="0 0 512 512" style="enable-background:new 0 0 512 512;" xml:space="preserve" width="512px" height="512px" class=""><g><g>
	<path style="fill:#E65F58;" d="M221.392,260.098c1.897-8.049,0.598-15.441-3.662-20.824c-4.279-5.402-11.216-8.372-19.539-8.372   h-65.088c-18.926,0-38.774,15.441-43.343,33.726l-6.731,26.931l129.946,4.333L221.392,260.098z" data-original="#E65F58"/>
	<path style="fill:#E65F58;" d="M63.824,169.118c3.573,5.951,9.858,9.774,18.681,11.363c16.446,2.98,37.745-2.804,51.774-14.039   c13.951-11.167,34.657-8.598,56.583-5.882c28.858,3.559,48.348,4.755,56.157-10.843c3.843-7.686,4.515-14.029,2.044-19.402   c-7.887-17.157-46.985-26.922-65.774-31.628c-15.02-3.755-26.848-10.108-37.284-15.716c-13.26-7.127-24.564-13.206-40.122-13.206   c-6.627,0-14.029,1.108-22.686,3.706c-12.549,3.765-21.02,11.696-25.877,24.255C48.142,121.422,55.338,154.98,63.824,169.118z    M90.353,100.392c16.608,0,30.118,13.51,30.118,30.118s-13.51,30.118-30.118,30.118s-30.118-13.51-30.118-30.118   S73.745,100.392,90.353,100.392z" data-original="#E65F58"/>
	<circle style="fill:#E65F58;" cx="90.353" cy="130.51" r="10.039" data-original="#E65F58"/>
</g><g>
	<path style="fill:#C59981;" d="M432.309,90.353c-3.343-5.794-8.75-9.951-15.225-11.696c-2.171-0.588-4.377-0.873-6.564-0.873   c-4.324,0-8.588,1.127-12.422,3.343l-78.392,45.265c-5.784,3.333-9.917,8.735-11.637,15.196   c-1.725,6.471-0.828,13.235,2.525,19.039c3.343,5.794,8.75,9.951,15.225,11.696c6.461,1.745,13.216,0.863,18.985-2.471   l66.804-38.573v-0.77h1.333l10.256-5.922c5.784-3.333,9.917-8.735,11.637-15.196C436.559,102.922,435.662,96.157,432.309,90.353z" data-original="#C59981"/>
	<path style="fill:#C59981;" d="M467.044,209.784c1.725-6.471,0.828-13.225-2.525-19.039c-3.348-5.804-8.755-9.951-15.225-11.696   c-6.466-1.755-13.211-0.863-18.985,2.471l-78.397,45.265c-5.784,3.333-9.917,8.735-11.637,15.196   c-1.725,6.471-0.828,13.225,2.525,19.039c6.917,11.98,22.27,16.127,34.211,9.226l78.397-45.265   C461.191,221.647,465.323,216.245,467.044,209.784z" data-original="#C59981"/>
</g><path style="fill:#E9E7D1;" d="M240.941,476.833c0,8.324,6.755,15.088,15.059,15.088c8.304,0,15.059-6.765,15.059-15.088V371.451  h-30.118V476.833z" data-original="#E9E7D1"/><g>
	<path style="fill:#090909" d="M461.706,0H50.294C22.564,0,0,22.51,0,50.177v271.098c0,27.667,22.564,50.177,50.294,50.177h9.941   h20.078h50.196h20.078h50.196h20.078v105.382C220.863,496.225,236.627,512,256,512s35.137-15.775,35.137-35.167V371.451h50.196   h20.078h50.196h20.078h30.02c27.731,0,50.294-22.51,50.294-50.177V50.177C512,22.51,489.436,0,461.706,0z M423.196,124.588   l-10.256,5.922h-1.333v0.77l-66.804,38.573c-5.77,3.333-12.524,4.216-18.985,2.471c-6.476-1.745-11.882-5.902-15.225-11.696   c-3.353-5.804-4.25-12.569-2.525-19.039c1.72-6.461,5.853-11.863,11.637-15.196l78.392-45.265   c3.833-2.216,8.098-3.343,12.422-3.343c2.186,0,4.392,0.284,6.564,0.873c6.476,1.745,11.882,5.902,15.225,11.696   c3.353,5.804,4.25,12.569,2.525,19.039C433.113,115.853,428.98,121.255,423.196,124.588z M377.01,270.245   c-11.941,6.902-27.294,2.755-34.211-9.226c-3.353-5.814-4.25-12.569-2.525-19.039c1.72-6.461,5.853-11.863,11.637-15.196   l78.397-45.265c5.775-3.333,12.52-4.226,18.985-2.471c6.471,1.745,11.877,5.892,15.225,11.696   c3.353,5.814,4.25,12.569,2.525,19.039c-1.72,6.461-5.853,11.863-11.637,15.196L377.01,270.245z M411.608,169.129l-60.235,34.778   v-14.949c1.166-0.547,2.342-1.062,3.471-1.713l56.765-32.777V169.129z M220.863,351.373v-35.137h0.005   c4.642,0,8.696-3.196,9.77-7.735l10.304-43.794c3.329-14.157,0.676-27.608-7.471-37.892c-3.439-4.344-7.793-7.661-12.608-10.282   v-33.68c18.069-0.514,34.912-5.757,44.118-24.156c6.647-13.304,7.431-25.667,2.324-36.774   c-7.305-15.888-25.512-25.916-46.441-33.251V20.078h50.196v331.294h-40.157H220.863z M83.029,291.559l6.73-26.931   c4.569-18.284,24.417-33.726,43.343-33.726h65.088c8.324,0,15.26,2.971,19.539,8.372c4.26,5.382,5.559,12.774,3.662,20.824   l-8.417,35.794L83.029,291.559z M188.162,79.216c-12.593-3.157-22.789-8.627-32.652-13.931c-1.627-0.874-3.278-1.737-4.921-2.604   V20.078h50.196v62.419C196.564,81.348,192.338,80.259,188.162,79.216z M130.51,53.764c-13.443-4.481-29.227-5.966-50.196-0.221   V20.078h50.196V53.764z M83.196,73.47c8.657-2.598,16.059-3.706,22.686-3.706c15.559,0,26.863,6.078,40.122,13.206   c10.436,5.608,22.265,11.961,37.284,15.716c18.789,4.706,57.887,14.471,65.774,31.628c2.471,5.372,1.799,11.716-2.044,19.402   c-7.809,15.598-27.299,14.402-56.157,10.843c-21.926-2.716-42.632-5.284-56.583,5.882c-14.029,11.235-35.328,17.019-51.774,14.039   c-8.823-1.588-15.108-5.412-18.681-11.363c-8.485-14.137-15.681-47.696-6.505-71.392C62.176,85.167,70.647,77.235,83.196,73.47z    M198.191,210.824h-47.603v-30.708c8.58-3.225,23.384-1.407,37.804,0.375c4.013,0.495,8.175,0.996,12.392,1.421v29.171   C199.901,211.039,199.09,210.824,198.191,210.824z M80.314,200.361c3.61,0.568,7.309,0.952,11.122,0.952   c13.013,0,26.801-3.306,39.074-9.153v18.903c-19.664,0.907-38.564,11.861-50.196,27.846V200.361z M291.137,20.078h40.157v76.434   L309.667,109c-8.37,4.83-14.699,12.12-18.529,20.808V20.078z M411.608,57.855c-8.181-0.205-16.29,1.691-23.549,5.88l-36.686,21.183   v-64.84h60.235V57.855z M50.294,351.373c-16.662,0-30.216-13.5-30.216-30.098V50.177c0-16.598,13.554-30.098,30.216-30.098h9.941   v42.405c-9.656,6.673-17.034,16.093-21.642,27.987c-12.142,31.353-2.397,71.627,8.015,88.98   c3.377,5.629,7.997,10.224,13.627,13.757v158.164H50.294z M80.314,351.373v-39.821l50.196,1.673v38.148H80.314z M150.588,351.373   v-37.479l50.196,1.673v35.805H150.588z M271.059,476.833c0,8.324-6.755,15.088-15.059,15.088c-8.304,0-15.059-6.765-15.059-15.088   V371.451h30.118V476.833z M291.137,351.373V166.124c0.67,1.522,1.221,3.083,2.064,4.543c6.025,10.431,15.75,17.902,27.392,21.039   c3.541,0.958,7.129,1.416,10.701,1.504v24.925c-4.835,5.279-8.522,11.545-10.421,18.669c-3.103,11.647-1.495,23.814,4.534,34.255   c3.981,6.893,9.54,12.29,15.926,16.108v64.205H291.137z M361.412,351.373V293.45c1.065,0.076,2.125,0.207,3.196,0.207   c7.637,0,15.373-1.941,22.441-6.02l24.559-14.18v77.915H361.412z M491.922,321.274c0,16.598-13.554,30.098-30.216,30.098h-30.02   v-89.508l33.76-19.492c10.436-6.02,17.892-15.755,21-27.412c3.103-11.647,1.49-23.814-4.539-34.255   c-6.025-10.431-15.75-17.902-27.387-21.039c-7.612-2.057-15.406-1.889-22.833,0.015v-16.806l1.549-0.894   c10.431-6.02,17.892-15.755,21-27.412c3.103-11.647,1.495-23.814-4.534-34.255c-4.31-7.462-10.571-13.323-18.015-17.252V20.078   h30.02c16.661,0,30.215,13.5,30.215,30.098V321.274z" data-original="#314E55" class="active-path" data-old_color="#909090"/>
	<path style="fill:#090909" d="M90.353,160.627c16.608,0,30.118-13.51,30.118-30.118s-13.51-30.118-30.118-30.118   s-30.118,13.51-30.118,30.118S73.745,160.627,90.353,160.627z M90.353,120.471c5.534,0,10.039,4.5,10.039,10.039   s-4.505,10.039-10.039,10.039s-10.039-4.5-10.039-10.039S84.819,120.471,90.353,120.471z" data-original="#314E55" class="active-path" data-old_color="#909090"/>
</g></g> </svg>
