<svg viewBox="0 0 398.924 398.924" xmlns="http://www.w3.org/2000/svg"><path d="M259.139 140.688a27.844 27.844 0 0 0-14.108-3.828c-15.07 0-27.394 11.96-27.992 26.886-.113-.077-.242-.147-.357-.224 2.106 1.39 3.925 2.894 5.589 4.29 4.151 3.482 6.893 5.782 13.148 5.782 6.253 0 8.996-2.3 13.147-5.782 3.529-2.96 7.687-6.428 14.044-8.173.27-1.572.415-3.17.415-4.785-.001-5.171-1.434-10.003-3.886-14.166zm-49.138 19.498c.274.095.526.204.791.305-.265-.1-.517-.21-.791-.305zm2.417.968c.284.128.554.265.828.401-.274-.135-.544-.272-.828-.401zm-73.524-.66c.256.097.497.205.746.308-.249-.103-.489-.211-.746-.308zm49.162-19.806a27.844 27.844 0 0 0-14.108-3.828c-15.263 0-27.705 12.269-28.006 27.461l-.019-.013c1.628 1.16 3.079 2.369 4.433 3.505 4.15 3.482 6.893 5.782 13.146 5.782 6.251 0 8.993-2.3 13.143-5.782 3.692-3.097 8.06-6.76 14.929-8.413.243-1.494.367-3.013.367-4.547 0-5.17-1.433-10.002-3.885-14.165zm-44.539 22.059c.188.112.381.221.564.336-.184-.114-.376-.223-.564-.336z" fill="#ef8829"/><g fill="#84bd93"><path d="M167.492 194.838c-11.727 0-17.874-5.156-22.813-9.301-4.15-3.481-6.892-5.782-13.144-5.782-2.013 0-3.715 1.29-4.366 3.081a4.662 4.662 0 0 1-2.4-.9 4.62 4.62 0 0 0 2.775.938c11.725 0 17.872 5.156 22.811 9.299 4.15 3.481 6.892 5.782 13.146 5.782 4.924 0 7.676-1.441 10.648-3.749a34.222 34.222 0 0 1-6.657.632zm-44.405-15.34c-.036-.123-.084-.242-.11-.37.025.128.074.246.11.37zm.396.956c-.088-.159-.18-.315-.25-.484.07.17.162.325.25.484zm152.262-.66c-.126-.011-.247-.038-.375-.038-4.936 0-7.686 1.437-10.666 3.754-.177.035-.333.087-.507.125a33.637 33.637 0 0 1 7.183-.759c2.287 0 4.185-1.658 4.577-3.834a5.337 5.337 0 0 1-.212.752zm-36.336 15.044c-11.728 0-17.874-5.156-22.815-9.3-3.825-3.209-6.461-5.41-11.743-5.736-.099-.004-2.671-.009-2.74-.004-4.115.241-6.627 1.615-9.327 3.712-.176.035-.33.087-.503.124 2.147-.464 4.5-.759 7.177-.759 11.727 0 17.873 5.156 22.813 9.299 4.152 3.481 6.894 5.782 13.149 5.782 4.927 0 7.679-1.442 10.653-3.75a34.382 34.382 0 0 1-6.664.632zm-31.457 170.718c-3.301-8-4.61-15.811-4.795-23.304-.246-.017-.49-.344-.734-.366.242-.021.488-.187.729-.214-1.212.133-2.443.133-3.691.133.75 0 1.492.536 2.229.485-.186 7.494-1.494 15.266-4.795 23.266zm24.652 13h-57.668c-1.242 0-2.252 1.259-2.252 2.501 0 1.241 1.01 2.499 2.252 2.499h57.668c1.242 0 2.252-1.258 2.252-2.499s-1.01-2.501-2.252-2.501zm9.356-165.75a33.446 33.446 0 0 1-1.422-.178 34.112 34.112 0 0 1-5.12.369c-11.727 0-17.875-5.156-22.814-9.299-2.818-2.363-5.009-4.159-8.067-5.084-3.029.93-5.194 2.735-7.994 5.084-4.939 4.143-11.085 9.299-22.811 9.299-1.843 0-3.54-.135-5.12-.369.465-.068.882-.176 1.327-.261a33.75 33.75 0 0 1-6.438.63c1.301 0 2.523-.073 3.693-.192 21.371 38.22 24.041 92.275 24.17 95.232.002.052.283 14.918 13.214 18.06 13.369-3.082 13.21-18.008 13.212-18.06.13-2.968 2.818-57.456 24.43-95.701-.088.155-.172.314-.26.47zm-38.349 113.49c-.388.071-.766.15-1.176.201.411-.049.786-.131 1.176-.201z"/><path d="M178.383 209.378c.379-.206.757-.412 1.118-.628-.359.215-.739.421-1.118.628zm-6.775 2.661c.566-.141 1.083-.32 1.617-.487-.533.167-1.051.346-1.617.487zm4.244-1.447c.404-.172.819-.336 1.204-.521-.384.186-.8.349-1.204.521z"/></g><path d="M203.567 43.507c.047.019.096.033.142.053-.047-.02-.096-.033-.142-.053zm-14.496 12.848c-.066-.24-.163-.468-.213-.715.05.247.147.473.213.715zm.82 2.088c-.142-.273-.306-.533-.424-.819.118.287.282.546.424.819zm17.342-12.433c-.112-.116-.231-.223-.348-.334.117.111.236.218.348.334zm-11.128 17.729a10.878 10.878 0 0 1-1.145-.425c.368.17.755.296 1.145.425zm-5.049-3.506c-.215-.268-.444-.523-.633-.811.189.289.417.543.633.811zm17.727-12.884c-.232-.016-.463-.793-.699-.793h-.02c-5.96 0-10.805 5.617-10.805 11.577 0 1.95.529 4.154 1.436 5.736.258.018.504.267.767.267 5.966 0 10.82-5.138 10.82-11.103 0-1.975-.571-4.088-1.499-5.684zM194.217 62.91c-.344-.192-.689-.38-1.009-.607.32.228.664.414 1.009.607zm-2.533-1.917c.258.268.548.498.833.739-.285-.24-.576-.471-.833-.739z" fill="#ce593f"/><path d="M235.641 102.556h-16.899c-4.154 0-7.521-3.095-7.521-7.248 0-2.575 1.297-5.126 3.27-6.482-.007.005-.016-.269-.023-.269h-12.989c-.008 0-.016.411-.024.406 1.973 1.355 3.27 3.834 3.27 6.409 0 .948-.195 1.686-.515 2.521.023-.06.056 1.664.078-.336h2.944c4.154 0 7.521 3.346 7.521 7.5s-3.367 7.5-7.521 7.5h-32.647c9.95 2 18.509 8.866 24.333 16.987.238.17.467.878.702 1.053 7.783-11.206 20.735-18.04 35.383-18.04h.637c2.396 0 4.345-2.604 4.345-5 .001-2.397-1.948-5.001-4.344-5.001z" fill="#fdd44b"/><path d="M277.799 159.608a43.73 43.73 0 0 0 .266-4.755c0-17.279-10.234-32.205-24.956-39.058a19.23 19.23 0 0 0 1.917-8.35c0-10.024-7.647-18.295-17.413-19.287.336-1.429.514-2.916.514-4.446 0-9.317-6.606-17.114-15.379-18.966a25.69 25.69 0 0 0 2.574-11.24c0-11.781-7.921-21.74-18.715-24.849.194-4.359 1.429-10.763 6.311-16.02a7.52 7.52 0 0 0-.394-10.628 7.52 7.52 0 0 0-10.629.393c-8.289 8.925-10.157 19.47-10.329 26.479-10.408 3.346-17.964 13.119-17.964 24.626 0 4.026.925 7.84 2.574 11.24-8.773 1.853-15.38 9.65-15.38 18.966 0 1.53.178 3.017.514 4.446-9.766.992-17.413 9.263-17.413 19.287 0 2.993.701 5.818 1.918 8.35-14.721 6.853-24.956 21.779-24.956 39.058 0 1.595.094 3.182.266 4.755-7.716 2.67-13.282 9.992-13.282 18.607 0 9.98 7.466 18.231 17.103 19.509 36.956 26.099 41.122 110.115 41.159 110.973l.002.023c.118 11.23 5.811 21.145 14.439 27.107.34 7.535.04 24.792-9.323 28.51h-4.903c-9.536 0-17.294 7.758-17.294 17.294 0 9.535 7.758 17.292 17.294 17.292h66.285c9.536 0 17.294-7.757 17.294-17.292 0-9.536-7.758-17.294-17.294-17.294h-4.923c-8.76-3.532-9.811-19.567-9.353-28.476 8.656-5.958 14.37-15.89 14.488-27.141l.002-.023c.037-.858 4.202-84.874 41.159-110.973 9.637-1.278 17.103-9.529 17.103-19.509 0-8.615-5.565-15.937-13.282-18.608zm-6.42 23.267c-11.727 0-17.874 5.156-22.813 9.299-4.151 3.481-6.894 5.782-13.148 5.782s-8.996-2.3-13.148-5.782c-4.939-4.143-11.086-9.299-22.813-9.299-11.725 0-17.872 5.156-22.812 9.299-4.15 3.481-6.892 5.782-13.144 5.782-6.254 0-8.995-2.3-13.146-5.782-4.939-4.143-11.086-9.299-22.811-9.299-2.57 0-4.66-2.09-4.66-4.66a4.666 4.666 0 0 1 4.66-4.661c6.252 0 8.994 2.3 13.144 5.782 4.939 4.144 11.086 9.301 22.813 9.301 11.726 0 17.872-5.157 22.811-9.3 3.841-3.223 6.481-5.429 11.808-5.74.07-.004 2.641 0 2.74.005 5.282.326 7.918 2.527 11.743 5.735 4.94 4.143 11.087 9.3 22.815 9.3 11.727 0 17.875-5.157 22.814-9.3 4.151-3.482 6.893-5.783 13.147-5.783 2.57 0 4.66 2.091 4.66 4.661s-2.091 4.66-4.66 4.66zm-36.523 198.757a2.254 2.254 0 0 1-2.252 2.25H166.32a2.254 2.254 0 0 1-2.252-2.25 2.254 2.254 0 0 1 2.252-2.252h66.285a2.254 2.254 0 0 1 2.251 2.252zm-43.884-17.294c3.319-6.989 4.626-15.292 4.8-22.818 1.212.134 2.441.209 3.689.209s2.479-.075 3.691-.209c.174 7.525 1.481 15.829 4.8 22.818zm8.489-37.651c-17.993 0-18.325-18.593-18.328-18.651-.13-2.968-2.818-57.455-24.43-95.7 2.043.412 4.286.66 6.798.66 11.726 0 17.872-5.156 22.811-9.299 4.15-3.481 6.892-5.782 13.145-5.782 6.254 0 8.997 2.3 13.148 5.782 4.939 4.143 11.087 9.299 22.814 9.299 2.514 0 4.758-.248 6.802-.661-21.611 38.244-24.299 92.732-24.43 95.701-.003.058.251 18.651-18.33 18.651zm-36.178-223.586h33.922a7.52 7.52 0 0 0 7.521-7.521 7.52 7.52 0 0 0-7.521-7.521h-17.023a4.35 4.35 0 0 1-4.345-4.346 4.35 4.35 0 0 1 4.345-4.346h38.56a4.35 4.35 0 0 1 4.345 4.346 4.35 4.35 0 0 1-4.345 4.346 7.52 7.52 0 0 0-7.521 7.521 7.52 7.52 0 0 0 7.521 7.521h16.899a4.35 4.35 0 0 1 4.345 4.345 4.35 4.35 0 0 1-4.345 4.345h-.637c-14.744 0-27.776 7.452-35.541 18.783-7.766-11.331-20.798-18.783-35.541-18.783h-.638a4.35 4.35 0 0 1-4.345-4.345 4.348 4.348 0 0 1 4.344-4.345zm36.165-60.413h.02c5.963.002 10.814 4.855 10.814 10.819 0 5.966-4.854 10.819-10.82 10.819s-10.819-4.853-10.819-10.819c0-5.961 4.845-10.811 10.805-10.819zm63.161 116.952c-6.356 1.745-10.514 5.212-14.044 8.173-4.151 3.482-6.893 5.783-13.147 5.783s-8.996-2.3-13.147-5.783c-3.691-3.096-8.058-6.755-14.92-8.409a28.232 28.232 0 0 1-.368-4.55c0-15.451 12.57-28.021 28.021-28.021s28.021 12.571 28.021 28.021a28.354 28.354 0 0 1-.416 4.786zm-98.688-32.808c15.451 0 28.021 12.571 28.021 28.021 0 1.534-.124 3.052-.367 4.547-6.868 1.653-11.237 5.315-14.929 8.413-4.15 3.481-6.892 5.782-13.144 5.782-6.253 0-8.995-2.3-13.146-5.783-3.528-2.959-7.686-6.428-14.041-8.172a28.271 28.271 0 0 1-.415-4.787c0-15.45 12.57-28.021 28.021-28.021z" fill="#3f2d20"/></svg>