<?xml version="1.0" encoding="iso-8859-1"?>
<!-- Generator: Adobe Illustrator 19.0.0, SVG Export Plug-In . SVG Version: 6.00 Build 0)  -->
<svg version="1.1" id="Capa_1" xmlns="http://www.w3.org/2000/svg" xmlns:xlink="http://www.w3.org/1999/xlink" x="0px" y="0px"
	 viewBox="0 0 512 512" style="enable-background:new 0 0 512 512;" xml:space="preserve">
<path style="fill:#F0B4A3;" d="M81.488,8.166L56.378,22.663c-2.394,1.382-3.215,4.444-1.832,6.838l125.571,217.495
	c1.382,2.394,4.444,3.215,6.838,1.832l25.109-14.497c2.394-1.382,3.215-4.444,1.832-6.838L88.326,9.998
	C86.944,7.604,83.882,6.784,81.488,8.166z"/>
<circle style="fill:#FDEAAF;" cx="256" cy="132.182" r="101.791"/>
<path style="fill:#F8CC7C;" d="M255.997,30.393c-2.267,0-4.515,0.082-6.746,0.228c46.964,3.473,84.106,47.613,84.106,101.563
	s-37.142,98.09-84.106,101.563c2.231,0.146,4.479,0.228,6.746,0.228c56.218,0,101.791-45.574,101.791-101.791
	S312.215,30.393,255.997,30.393z"/>
<path style="fill:#B78358;" d="M276.923,252.749c0,18.823-5.106,36.457-14.029,51.589c-2.09,3.554-4.393,6.971-6.896,10.237
	c-2.503-3.266-4.806-6.683-6.896-10.237H87.378c-8.923-15.131-14.03-32.765-14.03-51.589c0-56.219,45.569-101.787,101.787-101.787
	c32.965,0,62.264,15.669,80.861,39.962C269.125,208.068,276.923,229.496,276.923,252.749z"/>
<path style="fill:#935D38;" d="M255.997,190.923c-18.598-24.292-47.897-39.962-80.861-39.962c-3.04,0-6.046,0.141-9.018,0.402
	c24.45,2.589,45.928,17.526,60.039,39.56c10.984,17.146,17.507,38.573,17.507,61.826c0,18.823-4.272,36.457-11.737,51.589h17.175
	c2.09,3.554,4.393,6.971,6.896,10.237c2.503-3.266,4.806-6.683,6.896-10.237c8.923-15.131,14.029-32.765,14.029-51.589
	C276.923,229.496,269.125,208.068,255.997,190.923z"/>
<path style="fill:#E6EFF5;" d="M53.874,304.337L53.874,304.337c0,10.138,8.218,18.356,18.356,18.356h367.534
	c10.137,0,18.356-8.218,18.356-18.356l0,0c0-10.137-8.218-18.356-18.356-18.356H72.23C62.093,285.981,53.874,294.199,53.874,304.337
	z"/>
<path style="fill:#CDD6DE;" d="M439.764,285.981h-25.078c10.137,0,18.356,8.218,18.356,18.356l0,0
	c0,10.137-8.218,18.356-18.356,18.356h25.078c10.138,0,18.356-8.218,18.356-18.356l0,0
	C458.12,294.199,449.902,285.981,439.764,285.981z"/>
<path style="fill:#80B9F9;" d="M373.427,504.5H138.568c-9.941,0-18.515-6.984-20.525-16.72L83.949,322.693h344.097l-34.093,165.088
	C391.941,497.517,383.368,504.5,373.427,504.5z"/>
<path style="fill:#3185DB;" d="M402.711,322.693l-34.093,165.088c-2.011,9.736-10.584,16.72-20.525,16.72h25.333
	c9.941,0,18.515-6.984,20.525-16.72l34.093-165.088H402.711z"/>
<polygon style="fill:#E6EFF5;" points="403.225,442.878 416.417,378.999 95.577,378.999 108.768,442.878 "/>
<polygon style="fill:#CDD6DE;" points="377.892,442.878 403.225,442.878 416.417,378.999 391.083,378.999 "/>
<path style="fill:#EE81A7;" d="M438.65,252.747c0-56.221-45.571-101.781-101.791-101.781c-32.96,0-62.261,15.66-80.861,39.961
	c-13.13,17.14-20.93,38.571-20.93,61.821c0,11.63,1.95,22.81,5.55,33.23h49.381v61.271c0,8.146,6.604,14.75,14.75,14.75
	c8.146,0,14.75-6.604,14.75-14.75v-9.806c0-8.146,6.604-14.75,14.75-14.75s14.75,6.604,14.75,14.75v40.807
	c0,8.146,6.604,14.75,14.75,14.75s14.75-6.604,14.75-14.75v-92.271H433.1C436.7,275.557,438.65,264.377,438.65,252.747z"/>
<path style="fill:#EA6C9D;" d="M336.858,150.965c-2.233,0-4.447,0.078-6.644,0.22c46.637,3.408,83.535,47.564,83.535,101.561
	c0,11.63-1.712,22.81-4.871,33.23H433.1c3.6-10.42,5.55-21.6,5.55-33.23C438.65,196.526,393.079,150.965,336.858,150.965z"/>
<path d="M213.758,72.812c-4.142,0-7.5,3.358-7.5,7.5v6.883c0,4.142,3.358,7.5,7.5,7.5c4.142,0,7.5-3.358,7.5-7.5v-6.883
	C221.258,76.17,217.9,72.812,213.758,72.812z"/>
<path d="M255.997,72.812c-4.142,0-7.5,3.358-7.5,7.5v6.883c0,4.142,3.358,7.5,7.5,7.5c4.142,0,7.5-3.358,7.5-7.5v-6.883
	C263.497,76.17,260.139,72.812,255.997,72.812z"/>
<path d="M298.236,72.812c-4.142,0-7.5,3.358-7.5,7.5v6.883c0,4.142,3.358,7.5,7.5,7.5s7.5-3.358,7.5-7.5v-6.883
	C305.736,76.17,302.379,72.812,298.236,72.812z"/>
<path d="M234.878,109.732c-4.142,0-7.5,3.358-7.5,7.5v6.884c0,4.142,3.358,7.5,7.5,7.5c4.142,0,7.5-3.358,7.5-7.5v-6.884
	C242.378,113.09,239.02,109.732,234.878,109.732z"/>
<path d="M277.117,109.732c-4.142,0-7.5,3.358-7.5,7.5v6.884c0,4.142,3.358,7.5,7.5,7.5s7.5-3.358,7.5-7.5v-6.884
	C284.617,113.09,281.259,109.732,277.117,109.732z"/>
<path d="M443.032,278.695c2.06-8.452,3.118-17.14,3.118-25.947c0-50.788-34.829-93.593-81.858-105.794
	c0.658-4.875,0.997-9.816,0.997-14.767c0-60.264-49.028-109.292-109.292-109.292c-50.155,0-92.521,33.961-105.325,80.094
	L94.82,6.244c-3.441-5.96-11.101-8.017-17.085-4.575l-25.11,14.5c-5.96,3.442-8.016,11.101-4.575,17.085l72.18,125.014
	c-9.323,5.421-17.778,12.148-25.178,20.113c-2.819,3.035-2.645,7.78,0.39,10.6c3.035,2.82,7.781,2.645,10.6-0.39
	c7.97-8.578,17.334-15.524,27.835-20.646c7.54-3.68,15.54-6.327,23.771-7.866c3.138-0.583,6.293-1.01,9.417-1.274
	c1.04-0.088,2.076-0.158,3.107-0.209c0.001,0,0.002,0,0.003,0s0.002,0,0.003,0c1.699-0.086,3.368-0.13,4.96-0.13
	c27.749,0,53.482,11.862,71.428,32.734c-12.437,18.165-18.997,39.314-18.997,61.547c0,1.562,0.033,3.137,0.099,4.683
	c0.176,4.139,3.667,7.364,7.812,7.175c4.139-0.176,7.351-3.673,7.175-7.812c-0.057-1.335-0.085-2.696-0.085-4.046
	c0-20.905,6.703-40.706,19.386-57.262c18.007-23.526,45.31-37.02,74.905-37.02c51.993,0,94.291,42.295,94.291,94.281
	c0,8.769-1.193,17.401-3.552,25.73h-41.599v-16.48c0-4.142-3.358-7.5-7.5-7.5s-7.5,3.358-7.5,7.5v23.98v92.271
	c0,3.998-3.252,7.25-7.25,7.25s-7.25-3.252-7.25-7.25v-40.807c0-12.269-9.981-22.25-22.25-22.25c-12.269,0-22.25,9.981-22.25,22.25
	v9.806c0,3.998-3.252,7.25-7.25,7.25c-3.998,0-7.25-3.252-7.25-7.25v-61.271c0-4.142-3.358-7.5-7.5-7.5l-205.58,0.003
	c-2.36-8.331-3.573-16.961-3.573-25.733c0-14.372,3.153-28.174,9.371-41.024c1.804-3.729,0.245-8.214-3.484-10.018
	c-3.729-1.804-8.213-0.245-10.018,3.484c-7.212,14.903-10.869,30.904-10.869,47.558c0,8.807,1.057,17.495,3.118,25.947
	c-12.719,1.612-22.588,12.492-22.588,25.642c0,14.257,11.599,25.855,25.855,25.855h5.609l10.386,50.293
	c0.004,0.018,0.007,0.035,0.011,0.053l22.46,108.759C113.415,502.452,125.137,512,138.57,512h234.859
	c13.433,0,25.154-9.548,27.87-22.703l9.268-44.877c0.004-0.021,0.009-0.042,0.013-0.063l13.18-63.821
	c0.004-0.018,0.007-0.035,0.011-0.053l10.386-50.293h5.609c14.257,0,25.856-11.599,25.856-25.855
	C465.62,291.187,455.75,280.307,443.032,278.695z M144.608,147.788c-0.134,0.039-0.269,0.074-0.403,0.114
	c-1.044,0.308-2.082,0.634-3.117,0.973c-0.305,0.1-0.609,0.205-0.913,0.308c-0.755,0.255-1.507,0.518-2.257,0.789
	c-0.333,0.12-0.665,0.241-0.996,0.365c-0.838,0.313-1.673,0.637-2.504,0.971c-0.19,0.077-0.382,0.149-0.572,0.226
	c-0.049,0.02-0.1,0.039-0.149,0.059l-1.117-1.935l13.858-24.003l0.422,0.732c-0.101,1.921-0.154,3.853-0.154,5.799
	c0,4.944,0.339,9.88,0.996,14.75c-0.106,0.027-0.211,0.06-0.317,0.087C146.455,147.266,145.53,147.521,144.608,147.788z
	 M109.424,109.557l13.86-24.005l14.492,25.103l-13.859,24.004L109.424,109.557z M86.271,69.455l13.861-24.008l14.492,25.103
	l-13.86,24.006L86.271,69.455z M83.077,15.906l8.395,14.541L77.611,54.455L62.285,27.912L83.077,15.906z M255.997,179.226
	c-20.691-22.833-49.676-35.759-80.861-35.759c-1.844,0-3.769,0.05-5.715,0.149c-2.302,0.115-4.626,0.313-6.957,0.582
	c-0.504-3.968-0.758-7.986-0.758-12.012c0-51.993,42.299-94.291,94.291-94.291s94.291,42.299,94.291,94.291
	c0,4.029-0.255,8.05-0.758,12.019c-4.159-0.482-8.386-0.739-12.672-0.739C305.672,143.465,276.688,156.393,255.997,179.226z
	 M61.375,304.337c0-5.986,4.87-10.855,10.855-10.855l210.268-0.003v21.714H83.962c-0.011,0-0.023,0-0.034,0H72.23
	C66.244,315.193,61.375,310.323,61.375,304.337z M386.607,486.264c-1.284,6.221-6.827,10.736-13.18,10.736h-234.86
	c-6.353,0-11.896-4.515-13.18-10.737l-20.603-99.764h213.43c4.142,0,7.5-3.358,7.5-7.5s-3.358-7.5-7.5-7.5H101.686l-8.53-41.307
	h189.342v17.056c0,12.269,9.981,22.25,22.25,22.25c12.269,0,22.25-9.981,22.25-22.25v-9.806c0-3.998,3.252-7.25,7.25-7.25
	s7.25,3.252,7.25,7.25v40.807c0,12.269,9.981,22.25,22.25,22.25c9.354,0,17.373-5.805,20.658-14h22.803l-10.094,48.878H139.873
	c-4.142,0-7.5,3.358-7.5,7.5s3.358,7.5,7.5,7.5h254.145L386.607,486.264z M410.307,371.499h-24.308v-41.307h32.839L410.307,371.499z
	 M439.764,315.193h-11.693c-0.014,0-0.028,0-0.042,0h-42.031v-21.711h53.765c5.986,0,10.856,4.87,10.856,10.855
	S445.75,315.193,439.764,315.193z"/>
<g>
</g>
<g>
</g>
<g>
</g>
<g>
</g>
<g>
</g>
<g>
</g>
<g>
</g>
<g>
</g>
<g>
</g>
<g>
</g>
<g>
</g>
<g>
</g>
<g>
</g>
<g>
</g>
<g>
</g>
</svg>
