<?xml version="1.0" encoding="iso-8859-1"?>
<!-- Generator: Adobe Illustrator 18.0.0, SVG Export Plug-In . SVG Version: 6.00 Build 0)  -->
<!DOCTYPE svg PUBLIC "-//W3C//DTD SVG 1.1//EN" "http://www.w3.org/Graphics/SVG/1.1/DTD/svg11.dtd">
<svg version="1.1" id="Capa_1" xmlns="http://www.w3.org/2000/svg" xmlns:xlink="http://www.w3.org/1999/xlink" x="0px" y="0px"
	 viewBox="0 0 398.924 398.924" style="enable-background:new 0 0 398.924 398.924;" xml:space="preserve">
<g>
	<g>
		<path style="fill:#EF8829;" d="M249.564,130.958c0.729,0.447,1.436,0.924,2.119,1.433
			C250.999,131.882,250.293,131.404,249.564,130.958z"/>
		<path style="fill:#EF8829;" d="M242.78,127.953c2.136,0.619,4.167,1.483,6.061,2.566
			C246.946,129.437,244.916,128.572,242.78,127.953z"/>
		<path style="fill:#EF8829;" d="M259.139,140.688c-4.147-2.427-8.965-3.828-14.108-3.828c-15.07,0-27.394,11.96-27.992,26.886
			c-0.113-0.077-0.242-0.147-0.357-0.224c2.106,1.39,3.925,2.894,5.589,4.29c4.151,3.482,6.893,5.782,13.148,5.782
			c6.253,0,8.996-2.3,13.147-5.782c3.529-2.96,7.687-6.428,14.044-8.173c0.27-1.572,0.415-3.17,0.415-4.785
			C263.024,149.683,261.591,144.851,259.139,140.688z"/>
		<path style="fill:#EF8829;" d="M257.415,138.105c0.536,0.716,1.039,1.459,1.506,2.226
			C258.454,139.563,257.952,138.822,257.415,138.105z"/>
		<path style="fill:#EF8829;" d="M256.983,137.529c-1.365-1.728-2.925-3.288-4.653-4.654
			C254.057,134.24,255.619,135.801,256.983,137.529z"/>
		<path style="fill:#EF8829;" d="M235.003,126.832c1.161,0,2.299,0.093,3.423,0.231
			C237.302,126.925,236.164,126.832,235.003,126.832z"/>
		<path style="fill:#EF8829;" d="M210.001,160.186c0.274,0.095,0.526,0.204,0.791,0.305
			C210.527,160.391,210.275,160.281,210.001,160.186z"/>
		<path style="fill:#EF8829;" d="M212.418,161.154c0.284,0.128,0.554,0.265,0.828,0.401
			C212.972,161.42,212.702,161.283,212.418,161.154z"/>
		<path style="fill:#EF8829;" d="M214.634,162.276c0.257,0.143,0.508,0.29,0.756,0.438
			C215.141,162.565,214.891,162.42,214.634,162.276z"/>
		<path style="fill:#EF8829;" d="M239.411,127.214c0.827,0.132,1.642,0.298,2.443,0.501
			C241.051,127.512,240.238,127.345,239.411,127.214z"/>
	</g>
	<g>
		<path style="fill:#EF8829;" d="M163.921,126.832c1.161,0,2.299,0.093,3.423,0.231
			C166.219,126.925,165.081,126.832,163.921,126.832z"/>
		<path style="fill:#EF8829;" d="M178.482,130.959c0.728,0.446,1.435,0.923,2.117,1.431
			C179.916,131.881,179.211,131.405,178.482,130.959z"/>
		<path style="fill:#EF8829;" d="M185.901,137.53c-1.365-1.729-2.926-3.29-4.654-4.655
			C182.975,134.241,184.537,135.802,185.901,137.53z"/>
		<path style="fill:#EF8829;" d="M171.697,127.953c2.136,0.619,4.166,1.483,6.06,2.565
			C175.862,129.436,173.834,128.572,171.697,127.953z"/>
		<path style="fill:#EF8829;" d="M186.331,138.104c0.537,0.717,1.04,1.461,1.508,2.228
			C187.371,139.564,186.869,138.822,186.331,138.104z"/>
		<path style="fill:#EF8829;" d="M138.894,160.494c0.256,0.097,0.497,0.205,0.746,0.308
			C139.391,160.699,139.151,160.591,138.894,160.494z"/>
		<path style="fill:#EF8829;" d="M188.056,140.688c-4.147-2.427-8.965-3.828-14.108-3.828c-15.263,0-27.705,12.269-28.006,27.461
			c-0.006-0.005-0.013-0.008-0.019-0.013c1.628,1.16,3.079,2.369,4.433,3.505c4.15,3.482,6.893,5.782,13.146,5.782
			c6.251,0,8.993-2.3,13.143-5.782c3.692-3.097,8.06-6.76,14.929-8.413c0.243-1.494,0.367-3.013,0.367-4.547
			C191.941,149.683,190.508,144.851,188.056,140.688z"/>
		<path style="fill:#EF8829;" d="M141.272,161.53c0.249,0.122,0.495,0.246,0.736,0.372
			C141.766,161.775,141.521,161.652,141.272,161.53z"/>
		<path style="fill:#EF8829;" d="M168.328,127.214c0.827,0.132,1.641,0.298,2.442,0.5
			C169.968,127.512,169.155,127.345,168.328,127.214z"/>
		<path style="fill:#EF8829;" d="M143.517,162.747c0.188,0.112,0.381,0.221,0.564,0.336
			C143.897,162.969,143.705,162.86,143.517,162.747z"/>
	</g>
	<g>
		<path style="fill:#84BD93;" d="M176.645,192.174c0.529-0.444,1.08-0.902,1.642-1.361
			C177.724,191.273,177.175,191.729,176.645,192.174z"/>
		<path style="fill:#84BD93;" d="M178.982,190.26c0.378-0.301,0.767-0.602,1.165-0.902
			C179.748,189.659,179.361,189.958,178.982,190.26z"/>
		<path style="fill:#84BD93;" d="M176.645,192.174c-0.782,0.656-1.503,1.25-2.217,1.814
			C175.141,193.424,175.865,192.828,176.645,192.174z"/>
		<path style="fill:#84BD93;" d="M181.041,188.703c0.374-0.268,0.767-0.529,1.162-0.79
			C181.807,188.174,181.417,188.434,181.041,188.703z"/>
		<path style="fill:#84BD93;" d="M183.202,187.264c0.53-0.324,1.093-0.631,1.663-0.934
			C184.294,186.633,183.732,186.941,183.202,187.264z"/>
		<path style="fill:#84BD93;" d="M167.492,194.838c-11.727,0-17.874-5.156-22.813-9.301c-4.15-3.481-6.892-5.782-13.144-5.782
			c-2.013,0-3.715,1.29-4.366,3.081c-0.894-0.072-1.718-0.396-2.4-0.9c0.778,0.581,1.732,0.938,2.775,0.938
			c11.725,0,17.872,5.156,22.811,9.299c4.15,3.481,6.892,5.782,13.146,5.782c4.924,0,7.676-1.441,10.648-3.749
			C172.144,194.601,169.946,194.838,167.492,194.838z"/>
		<path style="fill:#84BD93;" d="M123.087,179.498c-0.036-0.123-0.084-0.242-0.11-0.37
			C123.002,179.256,123.051,179.374,123.087,179.498z"/>
		<path style="fill:#84BD93;" d="M123.483,180.454c-0.088-0.159-0.18-0.315-0.25-0.484
			C123.303,180.14,123.395,180.295,123.483,180.454z"/>
		<path style="fill:#84BD93;" d="M124.048,181.262c-0.149-0.169-0.292-0.345-0.416-0.535
			C123.755,180.918,123.899,181.092,124.048,181.262z"/>
		<path style="fill:#84BD93;" d="M124.15,181.386c0.181,0.193,0.38,0.366,0.591,0.526
			C124.529,181.753,124.331,181.577,124.15,181.386z"/>
		<path style="fill:#84BD93;" d="M190.795,184c-0.531,0.144-1.045,0.299-1.546,0.466C189.749,184.299,190.265,184.144,190.795,184z"
			/>
		<path style="fill:#84BD93;" d="M275.745,179.794c-0.126-0.011-0.247-0.038-0.375-0.038c-4.936,0-7.686,1.437-10.666,3.754
			c-0.177,0.035-0.333,0.087-0.507,0.125c2.148-0.464,4.504-0.759,7.183-0.759c2.287,0,4.185-1.658,4.577-3.834
			C275.905,179.299,275.833,179.55,275.745,179.794z"/>
		<path style="fill:#84BD93;" d="M239.409,194.838c-11.728,0-17.874-5.156-22.815-9.3c-3.825-3.209-6.461-5.41-11.743-5.736
			c-0.099-0.004-2.671-0.009-2.74-0.004c-4.115,0.241-6.627,1.615-9.327,3.712c-0.176,0.035-0.33,0.087-0.503,0.124
			c2.147-0.464,4.5-0.759,7.177-0.759c11.727,0,17.873,5.156,22.813,9.299c4.152,3.481,6.894,5.782,13.149,5.782
			c4.927,0,7.679-1.442,10.653-3.75C244.064,194.6,241.866,194.838,239.409,194.838z"/>
		<path style="fill:#84BD93;" d="M259.825,184.934c-0.52,0.202-1.01,0.424-1.499,0.648
			C258.815,185.358,259.306,185.136,259.825,184.934z"/>
		<path style="fill:#84BD93;" d="M262.72,183.999c-0.534,0.145-1.05,0.3-1.554,0.468
			C261.669,184.299,262.187,184.143,262.72,183.999z"/>
		<path style="fill:#84BD93;" d="M252.96,188.705c0.376-0.269,0.771-0.532,1.167-0.794
			C253.729,188.173,253.336,188.435,252.96,188.705z"/>
		<path style="fill:#84BD93;" d="M250.896,190.265c0.381-0.304,0.774-0.607,1.175-0.91
			C251.669,189.658,251.279,189.96,250.896,190.265z"/>
		<path style="fill:#84BD93;" d="M187.904,184.934c-0.518,0.201-1.007,0.423-1.494,0.646
			C186.896,185.357,187.386,185.136,187.904,184.934z"/>
		<path style="fill:#84BD93;" d="M255.122,187.265c0.534-0.327,1.101-0.636,1.676-0.941
			C256.222,186.628,255.657,186.938,255.122,187.265z"/>
		<path style="fill:#84BD93;" d="M248.566,192.174c-0.781,0.655-1.502,1.248-2.215,1.812
			C247.063,193.422,247.787,192.827,248.566,192.174z"/>
		<path style="fill:#84BD93;" d="M248.566,192.174c0.53-0.445,1.083-0.904,1.646-1.364
			C249.647,191.27,249.097,191.728,248.566,192.174z"/>
	</g>
	<path style="fill:#84BD93;" d="M207.952,365.556c-3.301-8-4.61-15.811-4.795-23.304c-0.246-0.017-0.49-0.344-0.734-0.366
		c0.242-0.021,0.488-0.187,0.729-0.214c-1.212,0.133-2.443,0.133-3.691,0.133c0.75,0,1.492,0.536,2.229,0.485
		c-0.186,7.494-1.494,15.266-4.795,23.266H207.952z"/>
	<path style="fill:#84BD93;" d="M232.604,378.556h-57.668c-1.242,0-2.252,1.259-2.252,2.501c0,1.241,1.01,2.499,2.252,2.499h57.668
		c1.242,0,2.252-1.258,2.252-2.499C234.856,379.816,233.846,378.556,232.604,378.556z"/>
	<g>
		<path style="fill:#84BD93;" d="M241.96,212.806c-0.486-0.049-0.957-0.111-1.422-0.178c0.575-0.086,1.138-0.181,1.682-0.292
			c-2.044,0.413-4.288,0.661-6.802,0.661c-11.727,0-17.875-5.156-22.814-9.299c-2.818-2.363-5.009-4.159-8.067-5.084
			c-3.029,0.93-5.194,2.735-7.994,5.084c-4.939,4.143-11.085,9.299-22.811,9.299c-1.843,0-3.54-0.135-5.12-0.369
			c0.465-0.068,0.882-0.176,1.327-0.261c-1.958,0.374-4.057,0.63-6.438,0.63c1.301,0,2.523-0.073,3.693-0.192
			c21.371,38.22,24.041,92.275,24.17,95.232c0.002,0.052,0.283,14.918,13.214,18.06c13.369-3.082,13.21-18.008,13.212-18.06
			c0.13-2.968,2.818-57.456,24.43-95.701C242.132,212.491,242.048,212.65,241.96,212.806z"/>
		<path style="fill:#84BD93;" d="M203.611,326.296c-0.388,0.071-0.766,0.15-1.176,0.201
			C202.846,326.448,203.221,326.366,203.611,326.296z"/>
		<path style="fill:#84BD93;" d="M199.457,197.916c0.924,0,1.754,0.064,2.54,0.162C201.21,197.981,200.381,197.916,199.457,197.916z
			"/>
		<path style="fill:#84BD93;" d="M202.63,198.179c0.567,0.093,1.109,0.207,1.619,0.35
			C203.739,198.387,203.196,198.272,202.63,198.179z"/>
		<path style="fill:#84BD93;" d="M184.61,205.109c0.586-0.477,1.153-0.95,1.703-1.411
			C185.764,204.158,185.194,204.632,184.61,205.109z"/>
		<path style="fill:#84BD93;" d="M182.723,206.582c0.399-0.299,0.78-0.597,1.16-0.898
			C183.504,205.984,183.12,206.283,182.723,206.582z"/>
		<path style="fill:#84BD93;" d="M178.383,209.378c0.379-0.206,0.757-0.412,1.118-0.628
			C179.142,208.965,178.762,209.171,178.383,209.378z"/>
		<path style="fill:#84BD93;" d="M180.659,208.023c0.37-0.243,0.73-0.487,1.083-0.737
			C181.391,207.536,181.029,207.78,180.659,208.023z"/>
		<path style="fill:#84BD93;" d="M171.608,212.039c0.566-0.141,1.083-0.32,1.617-0.487
			C172.692,211.719,172.174,211.898,171.608,212.039z"/>
		<path style="fill:#84BD93;" d="M175.852,210.592c0.404-0.172,0.819-0.336,1.204-0.521
			C176.672,210.257,176.256,210.42,175.852,210.592z"/>
	</g>
	<g>
		<path style="fill:#CE593F;" d="M203.567,43.507c0.047,0.019,0.096,0.033,0.142,0.053C203.662,43.54,203.613,43.527,203.567,43.507
			z"/>
		<path style="fill:#CE593F;" d="M201.403,42.884c0.163,0.03,0.324,0.063,0.484,0.1C201.727,42.947,201.567,42.914,201.403,42.884z"
			/>
		<path style="fill:#CE593F;" d="M189.071,56.355c-0.066-0.24-0.163-0.468-0.213-0.715
			C188.908,55.887,189.005,56.113,189.071,56.355z"/>
		<path style="fill:#CE593F;" d="M208.233,47.221c0.128,0.179,0.249,0.362,0.366,0.548
			C208.481,47.582,208.361,47.401,208.233,47.221z"/>
		<path style="fill:#CE593F;" d="M189.891,58.443c-0.142-0.273-0.306-0.533-0.424-0.819
			C189.585,57.911,189.749,58.17,189.891,58.443z"/>
		<path style="fill:#CE593F;" d="M207.233,46.01c-0.112-0.116-0.231-0.223-0.348-0.334C207.002,45.787,207.121,45.894,207.233,46.01
			z"/>
		<path style="fill:#CE593F;" d="M205.268,44.408c0.162,0.104,0.32,0.213,0.476,0.325C205.588,44.621,205.431,44.513,205.268,44.408
			z"/>
		<path style="fill:#CE593F;" d="M196.105,63.739c-0.389-0.128-0.777-0.256-1.145-0.425
			C195.328,63.484,195.715,63.61,196.105,63.739z"/>
		<path style="fill:#CE593F;" d="M191.056,60.233c-0.215-0.268-0.444-0.523-0.633-0.811
			C190.612,59.711,190.84,59.965,191.056,60.233z"/>
		<path style="fill:#CE593F;" d="M208.783,47.349c-0.232-0.016-0.463-0.793-0.699-0.793c-0.005,0-0.009,0-0.014,0
			c0,0-0.004,0-0.006,0c-5.96,0-10.805,5.617-10.805,11.577c0,1.95,0.529,4.154,1.436,5.736c0.258,0.018,0.504,0.267,0.767,0.267
			c5.966,0,10.82-5.138,10.82-11.103C210.282,51.058,209.711,48.945,208.783,47.349z"/>
		<path style="fill:#CE593F;" d="M198.138,64.192c-0.418-0.052-0.834-0.107-1.235-0.205
			C197.305,64.085,197.719,64.14,198.138,64.192z"/>
		<path style="fill:#CE593F;" d="M194.217,62.91c-0.344-0.192-0.689-0.38-1.009-0.607C193.528,62.531,193.872,62.717,194.217,62.91z
			"/>
		<path style="fill:#CE593F;" d="M191.684,60.993c0.258,0.268,0.548,0.498,0.833,0.739
			C192.232,61.492,191.941,61.261,191.684,60.993z"/>
	</g>
	<g>
		<path style="fill:#FDD44B;" d="M201.12,101.974c-0.253,0.155-0.511,0.3-0.783,0.425
			C200.608,102.273,200.867,102.129,201.12,101.974z"/>
		<path style="fill:#FDD44B;" d="M199.891,102.584c-0.287,0.111-0.584,0.201-0.887,0.275
			C199.307,102.785,199.603,102.695,199.891,102.584z"/>
		<path style="fill:#FDD44B;" d="M201.502,101.74c0.342-0.239,0.666-0.502,0.963-0.794
			C202.168,101.237,201.844,101.501,201.502,101.74z"/>
		<path style="fill:#FDD44B;" d="M235.641,102.556h-16.899c-4.154,0-7.521-3.095-7.521-7.248c0-2.575,1.297-5.126,3.27-6.482
			c-0.007,0.005-0.016-0.269-0.023-0.269h-12.989c-0.008,0-0.016,0.411-0.024,0.406c1.973,1.355,3.27,3.834,3.27,6.409
			c0,0.948-0.195,1.686-0.515,2.521c0.023-0.06,0.056,1.664,0.078-0.336h2.944c4.154,0,7.521,3.346,7.521,7.5
			c0,4.154-3.367,7.5-7.521,7.5h-32.647c9.95,2,18.509,8.866,24.333,16.987c0.238,0.17,0.467,0.878,0.702,1.053
			c7.783-11.206,20.735-18.04,35.383-18.04c0.142,0,0.565,0,0.637,0c2.396,0,4.345-2.604,4.345-5
			C239.986,105.16,238.037,102.556,235.641,102.556z"/>
		<path style="fill:#FDD44B;" d="M197.205,103.101c0.474,0,0.933-0.055,1.382-0.14C198.137,103.045,197.678,103.101,197.205,103.101
			z"/>
		<path style="fill:#FDD44B;" d="M203.297,99.96c-0.161,0.224-0.341,0.433-0.526,0.637
			C202.955,100.392,203.136,100.185,203.297,99.96z"/>
		<path style="fill:#FDD44B;" d="M166.66,111.877c-0.906-0.057-1.819-0.086-2.739-0.086
			C164.841,111.791,165.754,111.82,166.66,111.877z"/>
		<path style="fill:#FDD44B;" d="M214.771,89.216c0.279-0.175,0.568-0.335,0.87-0.472C215.338,88.882,215.05,89.042,214.771,89.216z
			"/>
		<path style="fill:#FDD44B;" d="M217.374,88.197c0.445-0.082,0.9-0.138,1.368-0.138C218.273,88.059,217.819,88.115,217.374,88.197z
			"/>
		<path style="fill:#FDD44B;" d="M201.177,89.217c-0.28-0.175-0.569-0.335-0.871-0.473
			C200.609,88.882,200.898,89.042,201.177,89.217z"/>
		<path style="fill:#FDD44B;" d="M203.957,98.834c-0.103,0.212-0.215,0.418-0.336,0.619
			C203.743,99.252,203.854,99.047,203.957,98.834z"/>
		<path style="fill:#FDD44B;" d="M216.073,88.57c0.286-0.109,0.581-0.2,0.883-0.274C216.654,88.37,216.36,88.46,216.073,88.57z"/>
		<path style="fill:#FDD44B;" d="M199.873,88.57c-0.286-0.11-0.58-0.2-0.883-0.274C199.292,88.37,199.587,88.46,199.873,88.57z"/>
		<path style="fill:#FDD44B;" d="M198.573,88.197c-0.445-0.082-0.899-0.138-1.368-0.138
			C197.673,88.059,198.128,88.115,198.573,88.197z"/>
	</g>
	<path style="fill:#3F2D20;" d="M277.799,159.608c0.172-1.573,0.266-3.159,0.266-4.755c0-17.279-10.234-32.205-24.956-39.058
		c1.216-2.532,1.917-5.358,1.917-8.35c0-10.024-7.647-18.295-17.413-19.287c0.336-1.429,0.514-2.916,0.514-4.446
		c0-9.317-6.606-17.114-15.379-18.966c1.649-3.4,2.574-7.214,2.574-11.24c0-11.781-7.921-21.74-18.715-24.849
		c0.194-4.359,1.429-10.763,6.311-16.02c2.826-3.043,2.65-7.802-0.394-10.628c-3.044-2.828-7.803-2.65-10.629,0.393
		c-8.289,8.925-10.157,19.47-10.329,26.479C181.158,32.227,173.602,42,173.602,53.507c0,4.026,0.925,7.84,2.574,11.24
		c-8.773,1.853-15.38,9.65-15.38,18.966c0,1.53,0.178,3.017,0.514,4.446c-9.766,0.992-17.413,9.263-17.413,19.287
		c0,2.993,0.701,5.818,1.918,8.35c-14.721,6.853-24.956,21.779-24.956,39.058c0,1.595,0.094,3.182,0.266,4.755
		c-7.716,2.67-13.282,9.992-13.282,18.607c0,9.98,7.466,18.231,17.103,19.509c36.956,26.099,41.122,110.115,41.159,110.973
		c0,0.008,0.002,0.016,0.002,0.023c0.118,11.23,5.811,21.145,14.439,27.107c0.34,7.535,0.04,24.792-9.323,28.51h-4.903
		c-9.536,0-17.294,7.758-17.294,17.294c0,9.535,7.758,17.292,17.294,17.292h66.285c9.536,0,17.294-7.757,17.294-17.292
		c0-9.536-7.758-17.294-17.294-17.294h-4.923c-8.76-3.532-9.811-19.567-9.353-28.476c8.656-5.958,14.37-15.89,14.488-27.141
		c0-0.008,0.002-0.016,0.002-0.023c0.037-0.858,4.202-84.874,41.159-110.973c9.637-1.278,17.103-9.529,17.103-19.509
		C291.081,169.601,285.516,162.279,277.799,159.608z M271.379,182.875c-11.727,0-17.874,5.156-22.813,9.299
		c-4.151,3.481-6.894,5.782-13.148,5.782c-6.254,0-8.996-2.3-13.148-5.782c-4.939-4.143-11.086-9.299-22.813-9.299
		c-11.725,0-17.872,5.156-22.812,9.299c-4.15,3.481-6.892,5.782-13.144,5.782c-6.254,0-8.995-2.3-13.146-5.782
		c-4.939-4.143-11.086-9.299-22.811-9.299c-2.57,0-4.66-2.09-4.66-4.66c0-2.571,2.091-4.661,4.66-4.661
		c6.252,0,8.994,2.3,13.144,5.782c4.939,4.144,11.086,9.301,22.813,9.301c11.726,0,17.872-5.157,22.811-9.3
		c3.841-3.223,6.481-5.429,11.808-5.74c0.07-0.004,2.641,0,2.74,0.005c5.282,0.326,7.918,2.527,11.743,5.735
		c4.94,4.143,11.087,9.3,22.815,9.3c11.727,0,17.875-5.157,22.814-9.3c4.151-3.482,6.893-5.783,13.147-5.783
		c2.57,0,4.66,2.091,4.66,4.661C276.039,180.785,273.948,182.875,271.379,182.875z M234.856,381.632c0,1.241-1.011,2.25-2.252,2.25
		H166.32c-1.242,0-2.252-1.01-2.252-2.25c0-1.242,1.01-2.252,2.252-2.252h66.285C233.846,379.38,234.856,380.39,234.856,381.632z
		 M190.972,364.338c3.319-6.989,4.626-15.292,4.8-22.818c1.212,0.134,2.441,0.209,3.689,0.209s2.479-0.075,3.691-0.209
		c0.174,7.525,1.481,15.829,4.8,22.818H190.972z M199.461,326.687c-17.993,0-18.325-18.593-18.328-18.651
		c-0.13-2.968-2.818-57.455-24.43-95.7c2.043,0.412,4.286,0.66,6.798,0.66c11.726,0,17.872-5.156,22.811-9.299
		c4.15-3.481,6.892-5.782,13.145-5.782c6.254,0,8.997,2.3,13.148,5.782c4.939,4.143,11.087,9.299,22.814,9.299
		c2.514,0,4.758-0.248,6.802-0.661c-21.611,38.244-24.299,92.732-24.43,95.701C217.788,308.094,218.042,326.687,199.461,326.687z
		 M163.283,103.101h33.922c4.154,0,7.521-3.367,7.521-7.521c0-4.154-3.367-7.521-7.521-7.521h-17.023
		c-2.396,0-4.345-1.95-4.345-4.346c0-2.396,1.949-4.346,4.345-4.346h38.56c2.396,0,4.345,1.95,4.345,4.346
		c0,2.396-1.949,4.346-4.345,4.346c-4.154,0-7.521,3.367-7.521,7.521c0,4.154,3.367,7.521,7.521,7.521h16.899
		c2.396,0,4.345,1.949,4.345,4.345c0,2.396-1.949,4.345-4.345,4.345c-0.073,0-0.496,0-0.637,0c-14.744,0-27.776,7.452-35.541,18.783
		c-7.766-11.331-20.798-18.783-35.541-18.783c-0.142,0-0.565,0-0.638,0c-2.396,0-4.345-1.949-4.345-4.345
		C158.938,105.049,160.887,103.101,163.283,103.101z M199.448,42.688c0.002,0,0.004,0,0.006,0c0.005,0,0.009,0,0.014,0
		c5.963,0.002,10.814,4.855,10.814,10.819c0,5.966-4.854,10.819-10.82,10.819c-5.966,0-10.819-4.853-10.819-10.819
		C188.643,47.546,193.488,42.696,199.448,42.688z M262.609,159.64c-6.356,1.745-10.514,5.212-14.044,8.173
		c-4.151,3.482-6.893,5.783-13.147,5.783c-6.254,0-8.996-2.3-13.147-5.783c-3.691-3.096-8.058-6.755-14.92-8.409
		c-0.244-1.495-0.368-3.015-0.368-4.55c0-15.451,12.57-28.021,28.021-28.021c15.451,0,28.021,12.571,28.021,28.021
		C263.024,156.47,262.879,158.068,262.609,159.64z M163.921,126.832c15.451,0,28.021,12.571,28.021,28.021
		c0,1.534-0.124,3.052-0.367,4.547c-6.868,1.653-11.237,5.315-14.929,8.413c-4.15,3.481-6.892,5.782-13.144,5.782
		c-6.253,0-8.995-2.3-13.146-5.783c-3.528-2.959-7.686-6.428-14.041-8.172c-0.27-1.573-0.415-3.171-0.415-4.787
		C135.9,139.403,148.47,126.832,163.921,126.832z"/>
</g>
<g>
</g>
<g>
</g>
<g>
</g>
<g>
</g>
<g>
</g>
<g>
</g>
<g>
</g>
<g>
</g>
<g>
</g>
<g>
</g>
<g>
</g>
<g>
</g>
<g>
</g>
<g>
</g>
<g>
</g>
</svg>
