<svg xmlns="http://www.w3.org/2000/svg" viewBox="0 -56 512.00029 512"><path d="M256.007812 400.710938c-13.722656 0-26.625-5.34375-36.324218-15.046876-9.703125-9.703124-15.046875-22.601562-15.046875-36.324218s5.34375-26.621094 15.046875-36.324219c9.699218-9.703125 22.601562-15.046875 36.324218-15.046875 13.71875 0 26.621094 5.34375 36.324219 15.046875 20.027344 20.03125 20.027344 52.621094 0 72.648437-9.703125 9.703126-22.605469 15.046876-36.324219 15.046876zm0-82.742188c-8.382812 0-16.257812 3.261719-22.183593 9.1875-5.925781 5.925781-9.1875 13.804688-9.1875 22.183594 0 8.378906 3.261719 16.257812 9.1875 22.179687 5.925781 5.929688 13.800781 9.191407 22.183593 9.191407 8.378907 0 16.257813-3.265626 22.183594-9.191407 12.230469-12.230469 12.230469-32.132812 0-44.363281-5.925781-5.925781-13.804687-9.1875-22.183594-9.1875zm0 0M346.742188 289.292969c-8.199219 0-15.902344-3.191407-21.699219-8.988281-18.441407-18.441407-42.957031-28.597657-69.035157-28.597657-26.082031 0-50.597656 10.15625-69.035156 28.597657-11.96875 11.960937-31.433594 11.964843-43.398437 0-5.796875-5.796876-8.988281-13.5-8.988281-21.699219 0-8.195313 3.191406-15.902344 8.988281-21.695313 30.03125-30.035156 69.960937-46.574218 112.433593-46.574218 42.472657 0 82.402344 16.539062 112.433594 46.574218 5.792969 5.792969 8.984375 13.5 8.984375 21.695313 0 8.199219-3.191406 15.902343-8.988281 21.699219-5.792969 5.792968-13.5 8.988281-21.695312 8.988281zm-90.734376-57.585938c31.421876 0 60.960938 12.234375 83.175782 34.453125 2.019531 2.019532 4.703125 3.128906 7.558594 3.128906 2.855468 0 5.535156-1.109374 7.554687-3.128906 4.167969-4.164062 4.167969-10.941406 0-15.109375-26.253906-26.253906-61.160156-40.714843-98.289063-40.714843-37.128906 0-72.035156 14.460937-98.289062 40.714843-4.167969 4.167969-4.167969 10.945313 0 15.109375 4.164062 4.167969 10.945312 4.164063 15.109375 0 22.214844-22.21875 51.757813-34.453125 83.179687-34.453125zm0 0"/><path d="M97.953125 221.972656c-8.195313 0-15.902344-3.191406-21.699219-8.988281-11.960937-11.964844-11.960937-31.433594 0-43.394531 48.015625-48.015625 111.851563-74.457032 179.753906-74.457032 67.898438 0 131.738282 26.441407 179.75 74.453126 11.964844 11.964843 11.964844 31.433593 0 43.398437-5.796874 5.796875-13.5 8.988281-21.699218 8.988281-8.195313 0-15.902344-3.191406-21.695313-8.988281-36.421875-36.421875-84.847656-56.480469-136.355469-56.480469-51.511718 0-99.933593 20.058594-136.355468 56.480469-5.796875 5.792969-13.503906 8.988281-21.699219 8.988281zM256.007812 136.5c56.851563 0 110.296876 22.140625 150.496094 62.339844 2.019532 2.019531 4.703125 3.128906 7.554688 3.128906 2.855468 0 5.539062-1.109375 7.558594-3.128906 4.164062-4.164063 4.164062-10.941406 0-15.109375-44.238282-44.234375-103.050782-68.597657-165.609376-68.597657-62.558593 0-121.375 24.359376-165.609374 68.597657-4.167969 4.164062-4.167969 10.945312 0 15.113281 4.167968 4.164062 10.945312 4.164062 15.109374-.003906C145.707031 158.640625 199.15625 136.5 256.007812 136.5zm0 0"/><path d="M30.6875 154.703125c-8.199219 0-15.902344-3.191406-21.699219-8.988281C3.191406 139.921875 0 132.214844 0 124.015625c0-8.195313 3.191406-15.902344 8.988281-21.695313C74.96875 36.335938 162.695312 0 256.007812 0s181.039063 36.335938 247.019532 102.316406c11.964844 11.96875 11.964844 31.433594 0 43.398438-5.792969 5.796875-13.5 8.988281-21.699219 8.988281-8.195313 0-15.902344-3.191406-21.699219-8.988281-42.683594-42.6875-96.425781-70.472656-155.40625-80.351563-5.445312-.914062-9.121094-6.070312-8.210937-11.515625.914062-5.445312 6.070312-9.128906 11.515625-8.210937 63.113281 10.570312 120.597656 40.289062 166.246094 85.9375 2.019531 2.015625 4.703124 3.128906 7.558593 3.128906 2.851563 0 5.535157-1.113281 7.554688-3.128906 4.164062-4.167969 4.164062-10.945313 0-15.113281C426.679688 54.257812 343.976562 20 256.007812 20S85.335938 54.257812 23.128906 116.460938c-4.164062 4.167968-4.164062 10.945312 0 15.113281 2.019532 2.015625 4.703125 3.128906 7.558594 3.128906 2.855469 0 5.539062-1.113281 7.554688-3.128906 44.988281-44.988281 101.589843-74.554688 163.679687-85.496094 5.4375-.957031 10.625 2.671875 11.585937 8.113281.957032 5.4375-2.675781 10.625-8.113281 11.582032C147.367188 76 94.457031 103.644531 52.386719 145.714844c-5.796875 5.796875-13.503907 8.988281-21.699219 8.988281zm0 0"/><path d="M256.007812 61.371094c-2.632812 0-5.210937-1.070313-7.070312-2.929688-1.859375-1.863281-2.929688-4.441406-2.929688-7.070312 0-2.628906 1.066407-5.210938 2.929688-7.070313 1.859375-1.859375 4.4375-2.929687 7.070312-2.929687 2.628907 0 5.210938 1.070312 7.070313 2.929687s2.929687 4.441407 2.929687 7.070313c0 2.628906-1.070312 5.210937-2.929687 7.070312s-4.441406 2.929688-7.070313 2.929688zm0 0"/></svg>