<svg xmlns="http://www.w3.org/2000/svg" viewBox="0 0 512 512"><g fill="#f9e8d4"><path d="M453.877 75.971H58.122c-2.767 0-5.01-2.243-5.01-5.01V41.905h405.773v29.057c.001 2.766-2.242 5.009-5.008 5.009zM458.886 41.581H53.112V12.524c0-2.767 2.243-5.01 5.01-5.01h395.754c2.767 0 5.01 2.243 5.01 5.01v29.057z"/></g><g fill="#e8d0ba"><path d="M53.109 24.548h405.77v17.03H53.109zM453.877 75.971H58.122c-2.767 0-5.01-2.243-5.01-5.01V58.938h405.773v12.023c.001 2.767-2.242 5.01-5.008 5.01z"/></g><path fill="#fcc927" d="M402.539 266.131c2.183 0 4.006-1.39 4.258-3.222 1.499-10.888 10.507-11.957 10.507-24.805 0-14.014-10.717-14.014-10.717-28.028s10.717-14.014 10.717-28.028c0-14.013-10.717-14.013-10.717-28.027s10.717-14.014 10.717-28.028-10.717-14.014-10.717-28.029 10.717-14.015 10.717-28.03c0-12.849-9.009-13.918-10.507-24.808-.252-1.833-2.075-3.222-4.258-3.222h-90.837c-2.649 0-4.65 2.01-4.23 4.221 1.893 9.97 10.344 11.364 10.344 23.809 0 14.015-10.717 14.015-10.717 28.03 0 14.014 10.717 14.014 10.717 28.029 0 14.014-10.717 14.014-10.717 28.028 0 14.013 10.717 14.013 10.717 28.027s-10.717 14.014-10.717 28.028 10.717 14.014 10.717 28.028c0 12.444-8.451 13.838-10.344 23.806-.42 2.211 1.581 4.221 4.23 4.221h90.837z"/><g fill="#efad0a"><path d="M350.531 122.579c0 15.72-12.025 15.72-12.025 31.444 0 15.72 12.025 15.72 12.025 31.444 0 15.72-12.025 15.72-12.025 31.444s12.025 15.724 12.025 31.444c0 9.216-4.132 13.03-7.55 17.776h-17.325c3.419-4.746 7.55-8.56 7.55-17.776 0-15.72-12.025-15.72-12.025-31.444s12.025-15.724 12.025-31.444c0-15.724-12.025-15.724-12.025-31.444 0-15.724 12.025-15.724 12.025-31.444 0-15.724-12.025-15.724-12.025-31.448s12.025-15.724 12.025-31.444c0-9.216-4.132-13.034-7.55-17.78h17.325c3.419 4.746 7.55 8.564 7.55 17.78 0 15.72-12.025 15.72-12.025 31.444-.001 15.723 12.025 15.723 12.025 31.448zM417.305 125.993c0 14.012-10.717 14.012-10.717 28.029 0 14.012 10.717 14.012 10.717 28.025 0 14.017-10.717 14.017-10.717 28.029s10.717 14.012 10.717 28.029c0 12.848-9.008 13.917-10.508 24.805-.252 1.83-2.074 3.22-4.26 3.22h-17.325c2.186 0 4.008-1.39 4.26-3.22 1.5-10.887 10.508-11.956 10.508-24.805 0-14.017-10.717-14.017-10.717-28.029s10.717-14.012 10.717-28.029c0-14.012-10.717-14.012-10.717-28.025 0-14.017 10.717-14.017 10.717-28.029s-10.717-14.012-10.717-28.029c0-14.012 10.717-14.012 10.717-28.029 0-12.848-9.008-13.917-10.508-24.809-.252-1.83-2.074-3.22-4.26-3.22h17.325c2.186 0 4.008 1.39 4.26 3.22 1.5 10.892 10.508 11.961 10.508 24.809 0 14.017-10.717 14.017-10.717 28.029.001 14.017 10.717 14.017 10.717 28.029z"/><path d="M385.539 122.579c0 15.72-12.025 15.72-12.025 31.444 0 15.72 12.025 15.72 12.025 31.444 0 15.72-12.025 15.72-12.025 31.444s12.025 15.724 12.025 31.444c0 9.216-4.132 13.03-7.55 17.776h-17.325c3.419-4.746 7.55-8.56 7.55-17.776 0-15.72-12.025-15.72-12.025-31.444s12.025-15.724 12.025-31.444c0-15.724-12.025-15.724-12.025-31.444 0-15.724 12.025-15.724 12.025-31.444 0-15.724-12.025-15.724-12.025-31.448s12.025-15.724 12.025-31.444c0-9.216-4.132-13.034-7.55-17.78h17.325c3.419 4.746 7.55 8.564 7.55 17.78 0 15.72-12.025 15.72-12.025 31.444.001 15.723 12.025 15.723 12.025 31.448z"/></g><path fill="#ef2929" d="M301.872 261.479h-141.42l12.181 225.889c.518 9.599 8.452 17.117 18.065 17.117h221.808c9.613 0 17.547-7.518 18.065-17.117l12.181-225.889h-140.88z"/><path fill="#d31a1a" d="M442.755 261.481l-12.182 225.888c-.518 9.599-8.452 17.117-18.065 17.117H399.59l13.106-243.005h30.059z"/><path fill="#ef2929" d="M453.877 261.479h-304.55c-2.767 0-5.01-2.243-5.01-5.01v-48.56c0-2.767 2.243-5.01 5.01-5.01h304.55c2.767 0 5.01 2.243 5.01 5.01v48.56c-.001 2.767-2.244 5.01-5.01 5.01z"/><path fill="#d31a1a" d="M453.877 261.479h-27.771V202.9h27.771c2.767 0 5.01 2.243 5.01 5.01v48.56c-.001 2.766-2.244 5.009-5.01 5.009z"/><path fill="#f9e8d4" d="M438.878 333.329l-5.042 93.464H169.367l-5.043-93.464z"/><path fill="#e8d0ba" d="M438.877 333.331l-5.041 93.463h-30.057l5.039-93.463z"/><path d="M466.401 12.524C466.401 5.618 460.782 0 453.877 0H401.26c-4.15 0-7.515 3.364-7.515 7.515s3.365 7.515 7.515 7.515h50.112v19.037H60.627V15.029H356.19c4.15 0 7.515-3.364 7.515-7.515S360.341 0 356.19 0H58.122c-6.906 0-12.524 5.618-12.524 12.524v29.057c0 .055.007.108.008.162-.001.054-.008.107-.008.162v29.057c0 6.906 5.618 12.524 12.524 12.524H303.58c-2.119 3.418-3.995 7.929-3.995 14.479 0 9.551 3.99 14.769 6.904 18.579 2.378 3.11 3.813 4.986 3.813 9.45 0 4.463-1.435 6.339-3.813 9.449-2.914 3.809-6.904 9.027-6.904 18.578s3.991 14.769 6.904 18.579c2.378 3.109 3.813 4.985 3.813 9.447 0 4.464-1.435 6.341-3.813 9.45-.873 1.142-1.842 2.413-2.772 3.887h-73.434c-4.15 0-7.515 3.364-7.515 7.515s3.364 7.515 7.515 7.515h221.089v43.55H151.832v-43.55h32.027c4.15 0 7.515-3.364 7.515-7.515s-3.365-7.515-7.515-7.515h-34.532c-6.906 0-12.524 5.618-12.524 12.524v48.56c0 6.906 5.618 12.524 12.524 12.524h4.004l3.49 64.724v.016l2.204 40.854 6.104 113.186c.732 13.586 11.963 24.228 25.568 24.228h221.809c13.605 0 24.836-10.642 25.568-24.226l6.031-111.831 2.277-42.209v-.016l3.49-64.723h4.004c6.906 0 12.524-5.618 12.524-12.524v-48.56c0-6.906-5.618-12.524-12.524-12.524h-32.383c1.829-3.271 3.327-7.489 3.327-13.338 0-9.551-3.99-14.768-6.904-18.577-2.378-3.11-3.813-4.986-3.813-9.449s1.435-6.339 3.813-9.449c2.914-3.809 6.904-9.027 6.904-18.578s-3.99-14.769-6.904-18.579c-2.378-3.109-3.813-4.986-3.813-9.45s1.435-6.341 3.813-9.45c1.091-1.427 2.334-3.052 3.461-5.028h32.5c6.906 0 12.524-5.618 12.524-12.524v-29.06c0-.055-.007-.108-.008-.162.001-.054.008-.107.008-.162V12.524zM428.87 379.351l-2.154 39.927H176.488l-2.227-41.285-2.003-37.15h258.69l-2.078 38.508zm-16.365 117.62H190.697c-5.619 0-10.258-4.395-10.561-10.007l-2.84-52.657h248.609l-2.84 52.657c-.3 5.611-4.94 10.007-10.56 10.007zm19.251-171.157h-260.31l-3.064-56.82h266.439l-3.065 56.82zm-80.91-223.524c-2.69-3.518-4.467-5.841-4.467-11.159s1.777-7.642 4.467-11.159c3.367-4.402 7.558-9.881 7.558-20.285 0-4.112-.654-7.454-1.653-10.265h17.49c2.303 3.051 3.783 5.412 3.783 10.265 0 5.315-1.777 7.638-4.466 11.155C370.191 75.244 366 80.723 366 91.13c0 10.406 4.191 15.885 7.558 20.289 2.69 3.518 4.467 5.842 4.467 11.16 0 5.315-1.777 7.638-4.466 11.155-3.367 4.403-7.559 9.883-7.559 20.29 0 10.403 4.19 15.882 7.557 20.284 2.69 3.518 4.468 5.841 4.468 11.161 0 4.67-1.372 7.03-3.529 9.919h-17.633c.933-2.74 1.542-5.97 1.542-9.919 0-10.408-4.191-15.888-7.559-20.291-2.689-3.517-4.466-5.839-4.466-11.154 0-5.318 1.777-7.642 4.467-11.158 3.367-4.403 7.558-9.882 7.558-20.286-.001-10.408-4.191-15.887-7.559-20.29zM60.627 68.457V49.42h239.906c1.346 5.015 3.874 8.343 5.955 11.065 2.097 2.742 3.459 4.528 3.752 7.973l-249.613-.001zm257.8 95.014c-2.378-3.11-3.813-4.986-3.813-9.449s1.435-6.339 3.813-9.449c2.914-3.809 6.904-9.027 6.904-18.578s-3.99-14.769-6.904-18.579c-2.378-3.109-3.813-4.986-3.813-9.45s1.435-6.341 3.813-9.45c2.914-3.81 6.904-9.028 6.904-18.58s-3.99-14.769-6.904-18.579c-.534-.7-1.016-1.33-1.444-1.936h22.607c2.303 3.05 3.785 5.414 3.785 10.266 0 5.315-1.777 7.638-4.466 11.155-3.367 4.403-7.559 9.883-7.559 20.29 0 10.406 4.191 15.885 7.558 20.289 2.69 3.518 4.467 5.842 4.467 11.16 0 5.315-1.777 7.638-4.466 11.155-3.367 4.403-7.559 9.883-7.559 20.29 0 10.403 4.19 15.882 7.557 20.284 2.69 3.518 4.468 5.841 4.468 11.161 0 4.67-1.372 7.03-3.529 9.919h-17.841c1.829-3.271 3.326-7.489 3.326-13.338 0-9.555-3.99-14.772-6.904-18.581zm73.084 31.914c.933-2.74 1.542-5.97 1.542-9.919 0-10.408-4.191-15.888-7.559-20.291-2.689-3.517-4.466-5.839-4.466-11.154 0-5.318 1.777-7.642 4.467-11.158 3.367-4.403 7.558-9.882 7.558-20.286 0-10.406-4.191-15.885-7.558-20.289-2.69-3.518-4.467-5.841-4.467-11.159s1.777-7.642 4.467-11.159c3.367-4.402 7.558-9.881 7.558-20.285 0-4.116-.661-7.453-1.662-10.266h8.616c1.34 5.011 3.868 8.317 5.969 11.065 2.378 3.11 3.813 4.986 3.813 9.45s-1.435 6.341-3.814 9.451c-2.913 3.81-6.904 9.028-6.904 18.579s3.99 14.769 6.904 18.579c2.378 3.11 3.813 4.986 3.813 9.45 0 4.463-1.435 6.339-3.813 9.449-2.914 3.809-6.904 9.027-6.904 18.578s3.991 14.769 6.905 18.579c2.378 3.109 3.813 4.985 3.813 9.447 0 4.464-1.435 6.341-3.813 9.45-.872 1.14-1.838 2.414-2.766 3.887h-11.699v.002zm59.861-126.928h-26.591c-.387-8.618-4.106-13.495-6.865-17.103-.532-.695-1.01-1.324-1.439-1.935h34.895v19.038z"/></svg>