<?xml version="1.0" encoding="iso-8859-1"?>
<!-- Generator: Adobe Illustrator 18.0.0, SVG Export Plug-In . SVG Version: 6.00 Build 0)  -->
<!DOCTYPE svg PUBLIC "-//W3C//DTD SVG 1.1//EN" "http://www.w3.org/Graphics/SVG/1.1/DTD/svg11.dtd">
<svg version="1.1" id="Capa_1" xmlns="http://www.w3.org/2000/svg" xmlns:xlink="http://www.w3.org/1999/xlink" x="0px" y="0px"
	 viewBox="0 0 58.622 58.622" style="enable-background:new 0 0 58.622 58.622;" xml:space="preserve">
<g>
	<path style="fill:#D2D5D7;" d="M6.86,40.713c-0.256,0-0.512-0.098-0.707-0.293c-0.391-0.391-0.391-1.023,0-1.414l4.654-4.654
		c0.391-0.391,1.023-0.391,1.414,0s0.391,1.023,0,1.414L7.567,40.42C7.372,40.615,7.116,40.713,6.86,40.713z"/>
	<path style="fill:#D2D5D7;" d="M43.57,4.004c-0.256,0-0.512-0.098-0.707-0.293c-0.391-0.391-0.391-1.023,0-1.414l2.004-2.004
		c0.391-0.391,1.023-0.391,1.414,0s0.391,1.023,0,1.414l-2.004,2.004C44.082,3.906,43.826,4.004,43.57,4.004z"/>
	<path style="fill:#D2D5D7;" d="M52.763,17.438c-0.256,0-0.512-0.098-0.707-0.293c-0.391-0.391-0.391-1.023,0-1.414l4.125-4.125
		c0.391-0.391,1.023-0.391,1.414,0s0.391,1.023,0,1.414l-4.125,4.125C53.274,17.341,53.018,17.438,52.763,17.438z"/>
	<g>
		<path style="fill:#6A3311;" d="M14.461,37.77l-5.657-5.657c-0.389-0.389-0.389-1.025,0-1.414l2.121-2.121
			c0.389-0.389,1.025-0.389,1.414,0l5.657,5.657c0.389,0.389,0.389,1.025,0,1.414l-2.121,2.121
			C15.486,38.158,14.85,38.158,14.461,37.77z"/>
		<path style="fill:#6A3311;" d="M15.168,39.062c-0.512,0-1.024-0.195-1.414-0.585l-5.656-5.657
			c-0.377-0.376-0.585-0.879-0.585-1.414s0.208-1.038,0.586-1.415l2.12-2.12c0.754-0.754,2.074-0.754,2.828,0l5.657,5.657
			c0.377,0.377,0.584,0.879,0.584,1.414s-0.207,1.037-0.584,1.414l-2.122,2.121C16.192,38.866,15.68,39.062,15.168,39.062z
			 M15.168,37.063l-0.707,0.707L15.168,37.063L15.168,37.063L15.168,37.063z M11.633,29.284l-2.121,2.121l5.654,5.655l2.124-2.119
			L11.633,29.284z"/>
	</g>
	<circle style="fill:#ED3F32;" cx="18.704" cy="27.87" r="5"/>
	<g>
		<path style="fill:#6A3311;" d="M25.068,27.163l-5.657-5.657c-0.389-0.389-0.389-1.025,0-1.414l2.121-2.121
			c0.389-0.389,1.025-0.389,1.414,0l5.657,5.657c0.389,0.389,0.389,1.025,0,1.414l-2.121,2.121
			C26.093,27.552,25.457,27.552,25.068,27.163z"/>
		<path style="fill:#6A3311;" d="M25.774,28.454c-0.512,0-1.023-0.194-1.413-0.583l-5.657-5.658c-0.78-0.779-0.78-2.049,0-2.828
			l2.121-2.121c0.779-0.779,2.049-0.779,2.828,0l5.657,5.656c0.778,0.78,0.778,2.049,0.001,2.828l-2.122,2.122
			C26.799,28.26,26.287,28.454,25.774,28.454z M25.773,26.455L25.773,26.455L25.773,26.455z M22.239,18.678l-2.121,2.121
			l5.654,5.655l2.124-2.119L22.239,18.678z"/>
	</g>
	<circle style="fill:#ED3F32;" cx="29.31" cy="17.263" r="5"/>
	<g>
		<path style="fill:#6A3311;" d="M35.674,16.556l-5.657-5.657c-0.389-0.389-0.389-1.025,0-1.414l2.121-2.121
			c0.389-0.389,1.025-0.389,1.414,0l5.657,5.657c0.389,0.389,0.389,1.025,0,1.414l-2.121,2.121
			C36.7,16.945,36.063,16.945,35.674,16.556z"/>
		<path style="fill:#6A3311;" d="M36.381,17.848c-0.512,0-1.023-0.194-1.413-0.584l-5.657-5.657
			c-0.377-0.377-0.584-0.879-0.584-1.414s0.207-1.037,0.584-1.414l2.121-2.121c0.752-0.754,2.075-0.755,2.829,0.001l5.656,5.655
			c0.779,0.781,0.779,2.05,0,2.828l-2.121,2.122C37.405,17.653,36.893,17.848,36.381,17.848z M36.382,15.85l-0.707,0.707
			L36.382,15.85L36.382,15.85L36.382,15.85z M32.846,8.071l-2.121,2.121l5.655,5.655l2.123-2.12L32.846,8.071z"/>
	</g>
	<circle style="fill:#ED3F32;" cx="39.917" cy="6.657" r="5"/>
	<path style="fill:#D2D5D7;" d="M14.579,55.622c-0.256,0-0.512-0.098-0.707-0.293c-0.391-0.391-0.391-1.023,0-1.414l3.727-3.727
		c0.391-0.391,1.023-0.391,1.414,0s0.391,1.023,0,1.414l-3.727,3.727C15.091,55.524,14.835,55.622,14.579,55.622z"/>
	<path style="fill:#F9DA49;" d="M21.775,46.426v-6c0-0.55,0.45-1,1-1h6c0.55,0,1,0.45,1,1v6c0,0.55-0.45,1-1,1h-6
		C22.225,47.426,21.775,46.976,21.775,46.426z"/>
	<g>
		<path style="fill:#436B1C;" d="M20.074,52.663l-3.536-3.536c-0.972-0.972-0.972-2.563,0-3.536h0c0.972-0.972,2.563-0.972,3.536,0
			l3.536,3.536c0.972,0.972,0.972,2.563,0,3.536h0C22.637,53.635,21.046,53.635,20.074,52.663z"/>
		<path style="fill:#436B1C;" d="M21.841,54.394c-0.896,0-1.792-0.342-2.474-1.023l-3.536-3.536c-1.364-1.364-1.364-3.584,0-4.949
			c1.365-1.363,3.585-1.363,4.95,0l3.535,3.535c1.365,1.364,1.365,3.586,0,4.95C23.634,54.052,22.737,54.394,21.841,54.394z
			 M18.307,45.86c-0.385,0-0.77,0.146-1.062,0.438c-0.584,0.585-0.584,1.536,0,2.121l3.536,3.536c0.583,0.583,1.536,0.584,2.121,0
			c0.281-0.281,0.437-0.658,0.437-1.061c0-0.403-0.155-0.78-0.437-1.062l-3.535-3.535C19.075,46.007,18.69,45.86,18.307,45.86z"/>
	</g>
	<g>
		<path style="fill:#659C35;" d="M31.785,40.952l-3.536-3.536c-0.972-0.972-0.972-2.563,0-3.536l0,0
			c0.972-0.972,2.563-0.972,3.536,0l3.536,3.536c0.972,0.972,0.972,2.563,0,3.536l0,0C34.348,41.924,32.757,41.924,31.785,40.952z"
			/>
		<path style="fill:#659C35;" d="M33.553,42.682c-0.896,0-1.792-0.341-2.475-1.023l-3.535-3.535
			c-0.659-0.659-1.022-1.538-1.022-2.475c0-0.938,0.363-1.816,1.022-2.475c1.316-1.318,3.633-1.318,4.949,0l3.536,3.535
			c1.364,1.365,1.364,3.585,0,4.949C35.346,42.341,34.449,42.682,33.553,42.682z M30.017,34.151c-0.402,0-0.779,0.155-1.061,0.437
			s-0.437,0.658-0.437,1.061s0.155,0.779,0.437,1.061l3.535,3.535c0.562,0.563,1.559,0.563,2.122,0c0.584-0.585,0.584-1.536,0-2.121
			l-3.536-3.535C30.797,34.307,30.42,34.151,30.017,34.151z"/>
	</g>
	<path style="fill:#F9DA49;" d="M40.867,27.335v-6c0-0.55,0.45-1,1-1h6c0.55,0,1,0.45,1,1v6c0,0.55-0.45,1-1,1h-6
		C41.317,28.335,40.867,27.885,40.867,27.335z"/>
	<path style="fill:#D2D5D7;" d="M4.732,45.832c-1.024,0-2.048-0.39-2.828-1.169c-1.56-1.56-1.56-4.098,0-5.657
		c0.391-0.391,1.023-0.391,1.414,0s0.391,1.023,0,1.414c-0.78,0.78-0.78,2.049,0,2.829s2.051,0.778,2.829,0
		c0.779-0.78,0.779-2.049,0-2.829c-0.391-0.391-0.391-1.024,0-1.414c0.391-0.391,1.023-0.391,1.414,0
		c1.559,1.56,1.559,4.098,0,5.657C6.782,45.442,5.757,45.832,4.732,45.832z"/>
	<circle style="fill:#ED3F32;" cx="37.796" cy="31.406" r="5"/>
	<path style="fill:#D2D5D7;" d="M11.579,58.622c-2.206,0-4-1.794-4-4s1.794-4,4-4c0.553,0,1,0.447,1,1s-0.447,1-1,1
		c-1.103,0-2,0.897-2,2s0.897,2,2,2s2-0.897,2-2c0-0.553,0.447-1,1-1s1,0.447,1,1C15.579,56.828,13.785,58.622,11.579,58.622z"/>
	<g>
		<path style="fill:#A4E869;" d="M50.877,21.86l-3.536-3.536c-0.972-0.972-0.972-2.563,0-3.536l0,0c0.972-0.972,2.563-0.972,3.536,0
			l3.536,3.536c0.972,0.972,0.972,2.563,0,3.536l0,0C53.44,22.832,51.849,22.832,50.877,21.86z"/>
		<path style="fill:#A4E869;" d="M52.644,23.59c-0.896,0-1.792-0.341-2.475-1.023l-3.535-3.535
			c-0.659-0.659-1.022-1.538-1.022-2.475c0-0.938,0.363-1.816,1.022-2.475c1.316-1.318,3.633-1.318,4.949,0l3.536,3.535
			c1.364,1.365,1.364,3.585,0,4.949C54.437,23.249,53.541,23.59,52.644,23.59z M49.109,15.06c-0.402,0-0.779,0.155-1.061,0.437
			s-0.437,0.658-0.437,1.061s0.155,0.779,0.437,1.061l3.535,3.535c0.563,0.562,1.56,0.563,2.122,0c0.584-0.585,0.584-1.536,0-2.121
			l-3.536-3.535C49.889,15.215,49.512,15.06,49.109,15.06z"/>
	</g>
</g>
<g>
</g>
<g>
</g>
<g>
</g>
<g>
</g>
<g>
</g>
<g>
</g>
<g>
</g>
<g>
</g>
<g>
</g>
<g>
</g>
<g>
</g>
<g>
</g>
<g>
</g>
<g>
</g>
<g>
</g>
</svg>
