<?xml version="1.0" encoding="iso-8859-1"?>
<!-- Generator: Adobe Illustrator 18.0.0, SVG Export Plug-In . SVG Version: 6.00 Build 0)  -->
<!DOCTYPE svg PUBLIC "-//W3C//DTD SVG 1.1//EN" "http://www.w3.org/Graphics/SVG/1.1/DTD/svg11.dtd">
<svg version="1.1" id="Capa_1" xmlns="http://www.w3.org/2000/svg" xmlns:xlink="http://www.w3.org/1999/xlink" x="0px" y="0px"
	 viewBox="0 0 53 53" style="enable-background:new 0 0 53 53;" xml:space="preserve">
<g>
	<path style="fill:#FBD490;" d="M12.5,44.124V53h34l0-35.541c0-9.477-7.754-17.584-17.23-17.457C20.025,0.126,12.5,7.727,12.5,17
		v5.527c0,0.386-0.466,0.579-0.739,0.306l0,0c-2.333-2.333-6.087-2.756-8.706-0.75c-3.171,2.429-3.39,7.038-0.659,9.769
		c0,0,5.355,5.267,8.279,8.027C11.842,40.982,12.5,42.519,12.5,44.124z"/>
	<rect x="12.5" y="47" style="fill:#F75B57;" width="34" height="6"/>
	<rect x="46.5" y="40" style="fill:#F75B57;" width="6" height="4"/>
	
		<rect x="23" y="29.964" transform="matrix(0.7071 0.7071 -0.7071 0.7071 30.7175 -7.1586)" style="fill:#FAF5E5;" width="2" height="7.071"/>
	
		<rect x="20.464" y="32.5" transform="matrix(0.7071 0.7071 -0.7071 0.7071 30.7175 -7.1586)" style="fill:#FAF5E5;" width="7.071" height="2"/>
	
		<rect x="34" y="29.964" transform="matrix(0.7071 0.7071 -0.7071 0.7071 33.9393 -14.9368)" style="fill:#FAF5E5;" width="2" height="7.071"/>
	
		<rect x="31.464" y="32.5" transform="matrix(0.7071 0.7071 -0.7071 0.7071 33.9393 -14.9368)" style="fill:#FAF5E5;" width="7.071" height="2"/>
	
		<rect x="19" y="37.964" transform="matrix(0.7071 0.7071 -0.7071 0.7071 35.2027 -1.9871)" style="fill:#FAF5E5;" width="2" height="7.071"/>
	
		<rect x="16.464" y="40.5" transform="matrix(0.7071 0.7071 -0.7071 0.7071 35.2027 -1.9871)" style="fill:#FAF5E5;" width="7.071" height="2"/>
	
		<rect x="29" y="37.964" transform="matrix(0.7071 0.7071 -0.7071 0.7071 38.1317 -9.0581)" style="fill:#FAF5E5;" width="2" height="7.071"/>
	
		<rect x="26.464" y="40.5" transform="matrix(0.7071 0.7071 -0.7071 0.7071 38.1317 -9.0581)" style="fill:#FAF5E5;" width="7.071" height="2"/>
	
		<rect x="39" y="37.964" transform="matrix(0.7071 0.7071 -0.7071 0.7071 41.0606 -16.1292)" style="fill:#FAF5E5;" width="2" height="7.071"/>
	
		<rect x="36.464" y="40.5" transform="matrix(0.7071 0.7071 -0.7071 0.7071 41.0606 -16.1292)" style="fill:#FAF5E5;" width="7.071" height="2"/>
	<path style="fill:#FAF5E5;" d="M15.726,27.28c-0.24,0-0.48-0.086-0.672-0.259l-3.665-3.323c-0.409-0.371-0.439-1.004-0.069-1.413
		c0.372-0.41,1.004-0.438,1.413-0.069l3.665,3.323c0.409,0.371,0.439,1.004,0.069,1.413C16.269,27.17,15.998,27.28,15.726,27.28z"/>
</g>
<g>
</g>
<g>
</g>
<g>
</g>
<g>
</g>
<g>
</g>
<g>
</g>
<g>
</g>
<g>
</g>
<g>
</g>
<g>
</g>
<g>
</g>
<g>
</g>
<g>
</g>
<g>
</g>
<g>
</g>
</svg>
