<svg xmlns="http://www.w3.org/2000/svg" viewBox="0 0 512 512"><path d="M170 194.525v-11.982c0-4.143-3.357-7.5-7.5-7.5s-7.5 3.357-7.5 7.5v11.982c0 4.143 3.357 7.5 7.5 7.5s7.5-3.357 7.5-7.5zm-30.518 39.435c-10.569 2.807-30.512 12.824-38.253 18.54a7.5 7.5 0 0 0 4.46 13.535 7.466 7.466 0 0 0 4.448-1.467c6.376-4.707 24.62-13.834 33.195-16.11a7.5 7.5 0 0 0-3.85-14.498zm224.424 27.693c-20.11 0-36.471 16.361-36.471 36.471 0 20.11 16.361 36.471 36.471 36.471 20.11 0 36.471-16.361 36.471-36.471.001-20.109-16.36-36.471-36.471-36.471zm0 57.943c-11.84 0-21.472-9.632-21.472-21.472s9.632-21.472 21.472-21.472 21.472 9.632 21.472 21.472c0 11.84-9.632 21.472-21.472 21.472zm-49.542-125.071v-11.982c0-4.143-3.357-7.5-7.5-7.5s-7.5 3.357-7.5 7.5v11.982c0 4.143 3.357 7.5 7.5 7.5s7.5-3.357 7.5-7.5z"/><path d="M485.563 207.918h-69.407c-1.004-15.909-4.738-31.383-11.002-46.049 20.62-30.81 26.296-68.662 15.512-104.563a29.705 29.705 0 0 0-24.985-20.964c-35.765-4.216-70.975 6.969-97.376 30.744-23.946-8.553-49.944-13.055-76.748-13.055-26.817 0-52.813 4.5-76.753 13.051-26.4-23.772-61.602-34.953-97.372-30.74a29.703 29.703 0 0 0-24.984 20.965c-10.781 35.89-5.111 73.731 15.496 104.537-7.416 17.354-11.283 35.837-11.283 54.83 0 37.316 14.757 67.671 43.858 90.219a7.46 7.46 0 0 0 4.589 1.571 7.5 7.5 0 0 0 4.599-13.428c-25.246-19.56-38.047-45.924-38.047-78.361 0-81.41 80.701-147.643 179.897-147.643 26.363 0 51.856 4.64 75.119 13.432.451.224.918.399 1.397.526 14.77 5.71 28.618 13.107 41.19 22.07.057.041.113.085.171.124a175.586 175.586 0 0 1 9.364 7.171c18.062 14.844 31.809 32.307 40.72 51.333.124.338.279.665.451.984 6.3 13.744 10.09 28.289 11.154 43.246H248.99a32.782 32.782 0 0 0 10.378-7.934 7.5 7.5 0 0 0-11.309-9.855c-3.377 3.875-8.253 6.098-13.377 6.098s-9.999-2.223-13.376-6.098a7.501 7.501 0 0 0-11.309 9.855 32.745 32.745 0 0 0 20.094 10.907c-8.474 4.409-14.278 13.269-14.278 23.464v80.114c-11.695-6.794-25.013-10.424-39.229-10.578-18.089-.18-36.411 5.479-50.748 14.809-6.006-2.003-11.787-4.219-17.196-6.634a7.5 7.5 0 0 0-9.905 3.792 7.5 7.5 0 0 0 3.792 9.905 194.505 194.505 0 0 0 9.845 4.056c-3.229 3.421-5.995 7.089-8.172 10.959-4.107 7.303-5.126 15.768-2.867 23.835a31.614 31.614 0 0 0 2.787 6.79 103.55 103.55 0 0 0 1.623 14.175 20.332 20.332 0 0 0-1.733 8.21v17.009c0 4.056 1.201 7.83 3.245 11.013-8.551 4.317-13.383 2.324-17.587-.212-8.253-4.983-11.021-13.564-15.368-31.955-3.969-16.789-9.149-38.656-27.075-55.089-.084-.08-.171-.156-.259-.233-3.894-3.535-8.373-6.819-13.576-9.737a22.262 22.262 0 0 0-17.041-2.028A22.268 22.268 0 0 0 2.873 333.17a22.27 22.27 0 0 0-2.026 17.036 22.263 22.263 0 0 0 10.613 13.479c2.558 1.435 4.69 3.024 6.522 4.868.225.269.463.522.717.752 5.655 6.179 8.317 15.194 11.972 30.653 4.718 19.951 10.588 44.779 35.825 60.017 10.061 6.073 20.729 9.152 31.708 9.152 13.407 0 26.905-4.648 40.119-13.814a111.482 111.482 0 0 0 6.801-5.143c21.048 16.821 48.033 26.364 76.434 26.364h160.696c17.295 0 31.365-14.07 31.365-31.364 0-4.952-1.152-9.683-3.242-13.918h81.168c11.279 0 20.456-9.177 20.456-20.456V234.355c-.002-14.578-11.861-26.437-26.438-26.437zM84.265 101.193c-16.015 13.259-28.919 28.427-38.427 44.893-15.745-27.959-14.96-55.284-11.84-72.601 15.685 3.463 35.46 10.57 53.528 25.073a193.31 193.31 0 0 0-3.261 2.635zm15.79-11.732C79.24 71.671 56.135 63.099 37.899 58.99a14.71 14.71 0 0 1 11.287-7.752c28.934-3.403 57.437 4.627 79.869 22.187-10.162 4.579-19.863 9.938-29 16.036zM24.054 354.028a46.7 46.7 0 0 0-5.258-3.428 7.366 7.366 0 0 1-3.51-4.458 7.366 7.366 0 0 1 .671-5.638 7.37 7.37 0 0 1 4.457-3.512 7.365 7.365 0 0 1 5.638.673 60.887 60.887 0 0 1 6.947 4.541c-2.63 5.287-5.972 9.146-8.945 11.822zM343.055 89.463c-9.137-6.097-18.842-11.452-29.006-16.033 22.434-17.564 50.941-25.597 79.876-22.192a14.71 14.71 0 0 1 11.289 7.752c-18.237 4.109-41.343 12.681-62.159 30.473zm54.217 56.631c-9.614-16.656-22.704-31.977-38.95-45.328a181.99 181.99 0 0 0-2.743-2.2c18.072-14.508 37.849-21.616 53.537-25.08 3.121 17.318 3.905 44.647-11.844 72.608zm-279.998 202.04c9.427-16.76 34.438-29.247 58.416-29.247.244 0 .49.001.733.004 14.764.159 28.309 4.884 39.391 13.686v40.754h-8.376a16.274 16.274 0 0 1-2.549-3.511c-6.184-11.563-15.063-17.499-27.139-18.148-14.398-.771-27.818 6.582-31.607 11.972a7.197 7.197 0 0 0-.384.606 16.384 16.384 0 0 1-17.14 8.018 16.295 16.295 0 0 1-5.108-1.849 16.277 16.277 0 0 1-5.728-5.381c-.033-.05-.062-.104-.096-.153a16.396 16.396 0 0 1-1.911-4.315 16.258 16.258 0 0 1 1.498-12.436zm72.173 25.197h-31.694c.219-.334.45-.658.657-1.002 1.689-1.539 9.532-6.173 18.531-5.679 5.456.294 9.287 2.288 12.506 6.681zm-59.673 69.655c-10.656 7.392-21.278 11.14-31.571 11.14-8.208 0-16.268-2.353-23.955-6.994-19.843-11.98-24.488-31.628-28.98-50.629-2.782-11.769-5.338-22.551-11.035-31.464a54.722 54.722 0 0 0 9.785-11.806c9.111 12.098 12.543 26.573 15.683 39.858 4.133 17.483 7.702 32.583 22.213 41.344 7.81 4.713 20.357 9.463 39.184-3.487 1.098.183 2.217.301 3.366.301h1.947a112.21 112.21 0 0 0 7.504 8.671 93.162 93.162 0 0 1-4.141 3.066zm-5.31-26.735a5.461 5.461 0 0 1-5.456-5.456v-17.007c0-1.079.319-2.083.862-2.931.026-.039.048-.08.073-.12a5.454 5.454 0 0 1 4.521-2.406h91.349v27.92h-91.349zm178.635 45.281h-81.542c-26.927 0-52.36-9.71-71.3-26.647a6.947 6.947 0 0 0-.201-.184 99.083 99.083 0 0 1-3.65-3.451h165.287a16.257 16.257 0 0 1 7.771 13.918c0 9.023-7.342 16.364-16.365 16.364zm79.154 0h-52.409a31.168 31.168 0 0 0 4.62-16.364c0-4.952-1.152-9.683-3.242-13.918h59.626a16.257 16.257 0 0 1 7.771 13.918c-.001 9.023-7.342 16.364-16.366 16.364zM497 373.331h-19.668a7.499 7.499 0 0 0-7.5 7.5c0 4.143 3.357 7.5 7.5 7.5h19.667v22.464a5.461 5.461 0 0 1-5.456 5.456H230.814v-27.92h211.638c4.143 0 7.5-3.357 7.5-7.5s-3.357-7.5-7.5-7.5H230.814V234.355c0-6.307 5.131-11.438 11.438-11.438h243.311c6.307 0 11.438 5.131 11.438 11.438v138.976z"/><path d="M135.499 208.488c-10.839-1.433-33.094.231-42.432 2.565a7.5 7.5 0 0 0 3.639 14.553c7.689-1.923 28.032-3.409 36.828-2.247 4.093.541 7.875-2.345 8.418-6.453a7.5 7.5 0 0 0-6.453-8.418z"/></svg>