<svg viewBox="0 0 512 512" xmlns="http://www.w3.org/2000/svg"><path d="M386.063 475.457H302.06c-13.578 0-24.585-11.007-24.585-24.585s11.007-24.585 24.585-24.585h84.003c13.578 0 24.585 11.007 24.585 24.585s-11.007 24.585-24.585 24.585z" fill="#eda751"/><path d="M386.063 475.457H302.06c-13.578 0-24.585-11.007-24.585-24.585s11.007-24.585 24.585-24.585h84.003c13.578 0 24.585 11.007 24.585 24.585s-11.007 24.585-24.585 24.585z" fill="#a35f00" opacity=".2"/><path d="M93.435 467.827c-11.528 0-21.25-3.837-28.672-8.317-23.22-14.02-28.618-36.851-33.38-56.995-4.923-20.823-8.692-34.007-23.531-42.328-7.402-4.15-10.037-13.516-5.886-20.918 4.149-7.401 13.511-10.041 20.918-5.886 27.362 15.343 33.485 41.248 38.406 62.062 4.457 18.853 7.778 30.764 19.357 37.755 7.187 4.338 16.632 7.317 32.2-3.48 13.101-9.087 25.373-24.226 36.201-37.584 1.269-1.565 2.51-3.096 3.723-4.581 5.372-6.573 15.052-7.545 21.621-2.179 6.572 5.37 7.547 15.05 2.179 21.621-1.19 1.456-2.406 2.957-3.649 4.491-11.521 14.212-25.859 31.9-42.559 43.483-13.633 9.459-26.08 12.856-36.928 12.856z" fill="#eda751"/><path d="M174.393 385.377c-6.569-5.366-16.249-4.394-21.621 2.179a1866.845 1866.845 0 0 0-3.723 4.581c-10.828 13.358-23.1 28.497-36.201 37.584-2.52 1.748-4.878 3.13-7.093 4.208 5.56 8.794 12.229 16.898 19.828 24.14a90.743 90.743 0 0 0 4.781-3.096c16.7-11.583 31.038-29.271 42.559-43.483 1.244-1.534 2.46-3.035 3.649-4.491 5.368-6.572 4.393-16.252-2.179-21.622z" fill="#c18f00" opacity=".2"/><path d="M22.885 333.383c-7.407-4.155-16.769-1.515-20.918 5.886-4.151 7.402-1.516 16.768 5.886 20.918 3.524 1.976 6.418 4.231 8.857 6.793 6.889-4.505 14.685-12.49 18.9-24.455-3.645-3.323-7.841-6.403-12.725-9.142z" fill="#fcd79d"/><ellipse cx="220.51" cy="370.089" fill="#fcd690" rx="113.4" ry="105.37"/><path d="M203.955 474.335c-51.818-34.021-35.759-103.749-26.963-134.242v-67.33c-41.026 15.86-69.874 53.459-69.874 97.324 0 52.967 42.06 96.8 96.837 104.248z" fill="#c18f00" opacity=".1"/><path d="M151.505 187.376c22.189-18.619 37.004-49.875 5.706-96.079-31.545-46.569-78.51-58.243-115.177-53.923-9.04 1.065-16.624 7.429-19.243 16.147-10.621 35.359-7.281 83.638 33.103 122.79 40.069 38.846 73.422 29.684 95.611 11.065z" fill="#eda751"/><path d="M21.316 58.931c-8.707 34.766-3.784 80.187 34.579 117.38 34.729 33.67 64.408 31.264 86.151 17.904C127.093 92.702 61.77 65.782 21.316 58.931z" fill="#ff91ab"/><path d="M289.522 187.376c-22.189-18.619-37.004-49.875-5.706-96.079 31.545-46.569 78.511-58.243 115.177-53.923 9.04 1.065 16.624 7.429 19.243 16.147 10.621 35.359 7.28 83.638-33.103 122.79-40.068 38.846-73.422 29.684-95.611 11.065z" fill="#eda751"/><path d="M419.711 58.931c8.707 34.766 3.784 80.187-34.579 117.38-34.729 33.67-64.408 31.264-86.151 17.904 14.954-101.513 80.277-128.433 120.73-135.284z" fill="#ff91ab"/><path d="M413.569 215.478c0 88.27-86.434 126.931-193.055 126.931S27.46 303.748 27.46 215.478 113.894 55.651 220.514 55.651c106.621 0 193.055 71.557 193.055 159.827z" fill="#fcd690"/><path d="M117.432 80.327c-54.067 28.324-89.973 78.263-89.973 135.15 0 75.88 63.872 115.1 149.533 124.615-122.964-73.449-106.927-172.246-59.56-259.765z" fill="#c18f00" opacity=".1"/><ellipse cx="139.3" cy="220.429" fill="#ff91ab" rx="34.955" ry="27.836"/><ellipse cx="328.77" cy="220.429" fill="#ff91ab" rx="34.955" ry="27.836"/><path d="M159.674 200.161a7.499 7.499 0 0 1-7.5-7.5v-12.344c0-4.143 3.357-7.5 7.5-7.5s7.5 3.357 7.5 7.5v12.344a7.5 7.5 0 0 1-7.5 7.5zm148.724 0a7.499 7.499 0 0 1-7.5-7.5v-12.344c0-4.143 3.357-7.5 7.5-7.5a7.5 7.5 0 0 1 7.5 7.5v12.344a7.5 7.5 0 0 1-7.5 7.5zm-74.362 9.479a33.496 33.496 0 0 1-25.26-11.505 7.498 7.498 0 0 1 .727-10.581 7.498 7.498 0 0 1 10.581.728c3.521 4.041 8.606 6.358 13.951 6.358s10.429-2.317 13.95-6.358a7.498 7.498 0 0 1 10.581-.728 7.5 7.5 0 0 1 .728 10.581 33.494 33.494 0 0 1-25.258 11.505zM90.014 224.686a7.5 7.5 0 0 1-1.813-14.779c9.603-2.399 32.485-4.109 43.628-2.638a7.5 7.5 0 0 1-1.965 14.871c-9.078-1.198-30.085.335-38.026 2.319a7.493 7.493 0 0 1-1.824.227zm11.133 41.418a7.5 7.5 0 0 1-4.46-13.535c7.962-5.878 28.466-16.178 39.332-19.063a7.5 7.5 0 0 1 3.85 14.498c-8.854 2.351-27.689 11.772-34.273 16.633a7.476 7.476 0 0 1-4.449 1.467zm276.912-41.418a7.486 7.486 0 0 1-1.824-.226c-7.94-1.984-28.945-3.517-38.026-2.319-4.099.538-7.875-2.346-8.418-6.453a7.5 7.5 0 0 1 6.453-8.418c11.143-1.473 34.027.239 43.628 2.638a7.5 7.5 0 0 1-1.813 14.778zm-11.134 41.418a7.466 7.466 0 0 1-4.448-1.467c-6.584-4.86-25.42-14.282-34.273-16.633a7.5 7.5 0 0 1 3.85-14.498c10.866 2.885 31.37 13.185 39.332 19.063a7.5 7.5 0 0 1-4.461 13.535z" fill="#495059"/><path d="M304.518 475.457h-84.004c-13.578 0-24.585-11.007-24.585-24.585s11.007-24.585 24.585-24.585h84.004c13.578 0 24.585 11.007 24.585 24.585s-11.007 24.585-24.585 24.585zm-181.125-92.084a24.529 24.529 0 0 1-7.672-2.772c-11.835-6.656-16.031-21.646-9.374-33.481 11.271-20.038 39.766-34.364 67.754-34.065 28.159.305 52.134 15.118 65.789 40.653 6.403 11.974 1.886 26.87-10.087 33.273-11.972 6.403-26.87 1.887-33.273-10.087-5.055-9.453-11.908-14.106-21.564-14.625-12.429-.676-23.677 6.012-25.821 9.062-5.295 9.309-15.764 13.851-25.752 12.042zm25.809-12.146l-.004.007z" fill="#eda751"/><path d="M123.393 383.373a24.529 24.529 0 0 1-7.672-2.772c-11.835-6.656-16.031-21.646-9.374-33.481 11.271-20.038 39.766-34.364 67.754-34.065 28.159.305 52.134 15.118 65.789 40.653 6.403 11.974 1.886 26.87-10.087 33.273-11.972 6.403-26.87 1.887-33.273-10.087-5.055-9.453-11.908-14.106-21.564-14.625-12.429-.676-23.677 6.012-25.821 9.062-5.295 9.309-15.764 13.851-25.752 12.042zm25.809-12.146l-.004.007z" fill="#c18f00" opacity=".15"/><path d="M512 384.593H222.324v-150.9c0-10.775 8.735-19.509 19.509-19.509h250.658c10.775 0 19.509 8.734 19.509 19.509z" fill="#dee2e5"/><path d="M512 384.593H222.324v44.215h276.328c7.372 0 13.347-5.976 13.347-13.347zm-391.51 0h101.834v44.215H120.49c-7.371 0-13.347-5.976-13.347-13.347V397.94c0-7.371 5.976-13.347 13.347-13.347z" fill="#7694e4"/><path d="M120.49 384.593h101.834v44.215H120.49c-7.371 0-13.347-5.976-13.347-13.347V397.94c0-7.371 5.976-13.347 13.347-13.347z" opacity=".1"/><circle cx="367.16" cy="299.389" fill="#fff" r="29.846"/></svg>