<svg xmlns="http://www.w3.org/2000/svg" viewBox="0 0 511.999 511.999"><path d="M234.953 251.473c23.551-39.129 59.505-69.775 102.222-86.708-18.995-36.644-56.603-62.32-100.799-63.973-53.146-1.988-99.425 31.348-116.202 79.009 83.195 26.065 114.759 71.641 114.779 71.672z" fill="#B0E046"/><path d="M30.281 163.355c35.598 2.572 65.789 8.806 91.126 16.849-.419-.132-.813-.274-1.232-.404 16.777-47.66 63.056-80.997 116.202-79.009-106.982-66.363-169.42 2.01-193.953 40.344" fill="#6AB742"/><path d="M179.729 76.329l.002.014c17.279 3.979 36.142 11.729 56.646 24.449 29.562 1.104 56.176 12.959 76.244 31.653a119.152 119.152 0 0 1 24.554 32.319c26.138-10.364 54.799-15.598 84.703-14.48 14.144.53 27.881 2.507 41.132 5.7 12.04-95.628-50.557-88.594-121.398-109.779-50.445-15.085-98.283-1.474-128.691 11.977" fill="#70C449"/><path d="M424.64 415.688c46.402-40.409 76.64-99.158 79.122-165.496a230.064 230.064 0 0 0-13.013-85.479 208.39 208.39 0 0 0-68.87-14.427c-115.299-4.311-212.267 85.666-216.582 200.962-1.62 43.318 10.072 84.049 31.415 118.252 9.073 1.436 18.309 2.41 27.719 2.761 52.655 1.97 101.849-13.856 141.789-42.096" fill="#43A838"/><path d="M262.365 469.499c-21.343-34.202-33.034-74.932-31.415-118.252 4.054-108.315 89.881-194.277 195.857-200.717-1.637-.1-3.28-.184-4.929-.246-115.299-4.311-212.267 85.666-216.582 200.962-1.62 43.318 10.072 84.049 31.415 118.252 9.073 1.436 18.309 2.41 27.719 2.761 7.328.274 14.584.192 21.762-.209a236.416 236.416 0 0 1-23.827-2.551z" fill="#231F20" opacity="0.15"/><path d="M236.711 469.499c-21.343-34.202-33.034-74.932-31.415-118.252 1.368-36.534 12.047-70.519 29.657-99.774 0 0-57.674-83.332-222.73-89.095a264.784 264.784 0 0 0-3.984 36.881c-.135 3.59-.174 7.161-.166 10.723 2.986 34.896 11.476 83.846 34.408 129.305 40.862 71.65 114.509 122.564 201.316 131.595.827-.032 1.66-.034 2.48-.082-3.207-.378-6.401-.8-9.566-1.301z" fill="#43A838"/><path d="M233.808 464.686c-71.16-17.494-130.552-63.775-165.695-125.398-22.932-45.459-31.421-94.409-34.408-129.305-.009-3.562.031-7.133.166-10.723a264.836 264.836 0 0 1 3.718-35.32 479.62 479.62 0 0 0-25.366-1.561 264.784 264.784 0 0 0-3.984 36.881c-.135 3.59-.174 7.161-.166 10.723 2.986 34.896 11.476 83.846 34.408 129.305 40.862 71.65 114.509 122.564 201.317 131.595.827-.032 1.66-.034 2.48-.082a244.79 244.79 0 0 1-9.567-1.302 205.359 205.359 0 0 1-2.903-4.813z" fill="#231F20" opacity="0.15"/><path d="M498.361 162.022a8.08 8.08 0 0 0-4.647-4.82 216.854 216.854 0 0 0-21.913-7.327c3.257-35.1-3.715-58.991-21.724-74.833-17.115-15.055-41.443-20.706-69.613-27.249-11.82-2.746-24.044-5.584-36.539-9.322-52.467-15.69-101.976-1.955-134.269 12.328-.152.068-.3.14-.448.215l-6.095 3.158a8.075 8.075 0 0 0 7.43 14.336l5.87-3.042c29.81-13.149 75.25-25.768 122.887-11.526 12.977 3.88 25.45 6.778 37.511 9.58 52.013 12.083 84.294 19.585 79.117 82.621a216.585 216.585 0 0 0-25.272-3.436c-.126-.01-.252-.016-.379-.026a208.843 208.843 0 0 0-13.648-.598l-.308-.001c-25.916-.288-51.245 3.959-75.474 12.667-.121-.205-.252-.403-.374-.606-.352-.587-.715-1.165-1.075-1.744-.428-.689-.856-1.379-1.297-2.058-.282-.435-.574-.86-.861-1.291-.539-.808-1.078-1.618-1.635-2.413-.109-.156-.223-.307-.333-.462a127.23 127.23 0 0 0-17.036-19.529c3.03-1.67 6.92-3.56 11.7-5.406.252-.077.493-.177.736-.278 13.359-5.052 33.379-9.648 60.506-8.197 4.439.238 8.256-3.176 8.494-7.63a8.074 8.074 0 0 0-7.63-8.494c-21.277-1.142-38.756 1.151-52.576 4.678l5.474-19.143a8.073 8.073 0 0 0-15.522-4.439l-8.508 29.759c-7.123 2.989-12.43 6.019-15.978 8.325a126.406 126.406 0 0 0-31.021-15.993l-.481-.169a129.31 129.31 0 0 0-3.595-1.195c-.197-.062-.395-.118-.592-.18a126.368 126.368 0 0 0-6.127-1.721c-.546-.14-1.089-.286-1.637-.419-.828-.199-1.66-.38-2.492-.562a127.09 127.09 0 0 0-4.673-.939c-1.07-.193-2.146-.366-3.224-.532-.52-.08-1.038-.17-1.559-.243a127.484 127.484 0 0 0-4.8-.579c-.466-.047-.934-.082-1.402-.124-1.223-.111-2.45-.207-3.68-.281-.272-.017-.543-.047-.815-.062-.584-.356-1.167-.698-1.751-1.047-.475-.284-.949-.572-1.423-.85a270.964 270.964 0 0 0-2.7-1.564 243.746 243.746 0 0 0-4.807-2.688l-.21-.115a236.838 236.838 0 0 0-3.525-1.868l-.102-.054c-42.192-21.931-81.671-25.637-117.555-10.959-33.724 13.795-56.711 41.029-70.056 61.446a8.074 8.074 0 0 0 13.516 8.834c23.717-36.287 74.408-87.485 157.965-49.233l.179.084c-17.23 3.236-33.599 10.058-48.315 20.232-.341.236-.672.487-1.01.726-.251.177-.498.358-.748.537-.947.679-1.886 1.368-2.814 2.073-.495.376-.984.759-1.474 1.141-.625.491-1.248.983-1.863 1.484a127.052 127.052 0 0 0-3.12 2.623 126.252 126.252 0 0 0-31.656 41.823c-.127.269-.252.538-.377.807-.449.976-.888 1.958-1.313 2.948-.105.245-.222.485-.326.732-20.079-5.807-41.516-10.05-64.014-12.689l-.549-.064a447.755 447.755 0 0 0-5.941-.649c-.603-.062-1.205-.125-1.811-.185a461.134 461.134 0 0 0-9.646-.847c-.842-.066-1.681-.137-2.525-.197-.037-.003-.073 0-.11-.002a483.584 483.584 0 0 0-18.246-.989 8.054 8.054 0 0 0-8.228 6.644 273.906 273.906 0 0 0-4.108 38.001A276.77 276.77 0 0 0 0 210c.001.224.011.447.029.67 2.933 34.276 11.428 85.043 35.243 132.253.062.123.127.244.196.364C78.76 419.199 156.328 469.9 242.963 478.913a8.339 8.339 0 0 0 1.154.037c.292-.012.586-.019.878-.025.321-.009.638-.024.958-.036 6.176.718 12.266 1.217 18.174 1.438 3.08.114 6.15.172 9.214.172 49.561-.001 96.937-15.036 137.537-43.745a8.073 8.073 0 0 0 1.931-11.253 8.07 8.07 0 0 0-11.253-1.931c-40.192 28.421-87.501 42.461-136.826 40.621a214.426 214.426 0 0 1-16.978-1.321c-.174-.032-.349-.067-.527-.088a265.411 265.411 0 0 1-5.594-.716 200.209 200.209 0 0 1-13.022-25.788l-.018-.043a190.641 190.641 0 0 1-1.31-3.223l-.047-.116c-.273-.69-.535-1.383-.801-2.076-.165-.429-.335-.858-.496-1.288-.213-.568-.415-1.139-.623-1.709-.203-.556-.411-1.112-.609-1.671-.137-.385-.265-.773-.399-1.159a199.312 199.312 0 0 1-8.508-33.655c-.06-.377-.114-.755-.172-1.131-.126-.809-.254-1.62-.37-2.432-.1-.7-.189-1.4-.282-2.101-.066-.493-.137-.985-.198-1.479-.09-.728-.17-1.457-.253-2.186-.053-.468-.112-.934-.163-1.403a188.02 188.02 0 0 1-.336-3.441c-.004-.053-.011-.105-.015-.159-.194-2.187-.347-4.38-.468-6.578-.012-.219-.029-.437-.04-.656a203.462 203.462 0 0 1-.241-14.244c.024-1.326.058-2.653.108-3.982.074-1.975.183-3.947.315-5.916.032-.477.073-.952.108-1.428a198.979 198.979 0 0 1 1.162-11.389l.041-.322a201.774 201.774 0 0 1 8.458-36.739l.068-.202c.565-1.7 1.16-3.389 1.771-5.071.182-.502.365-1.002.551-1.502.439-1.182.898-2.357 1.358-3.531.297-.754.588-1.51.893-2.259.167-.409.346-.814.515-1.222 31.336-75.169 106.931-126.855 192.969-123.617 1.564.058 3.13.139 4.696.236.266.016.53.037.795.054 1.441.095 2.883.2 4.325.326l.181.016a202.572 202.572 0 0 1 29.545 4.848c.235.057.471.097.709.132a200.24 200.24 0 0 1 22.513 6.933c8.545 25.5 12.363 52.053 11.353 78.992-2.308 61.686-29.107 118.127-75.462 158.928a8.074 8.074 0 0 0 10.667 12.121c24.096-21.208 43.378-46.548 57.311-75.317 14.425-29.785 22.372-61.792 23.62-95.127 1.132-30.209-3.399-59.975-13.469-88.468zm-367.537 12.769c16.913-38.55 54.612-64.348 96.911-65.933.177-.006.355-.005.532-.011 1.187-.039 2.377-.067 3.57-.067 1.408.001 2.821.025 4.239.079 1.464.055 2.921.15 4.377.262.417.032.833.069 1.249.105 1.169.103 2.336.227 3.498.367.321.039.643.07.963.112 1.348.175 2.69.381 4.027.606.548.093 1.093.194 1.637.294.848.155 1.693.323 2.536.498.616.128 1.233.251 1.845.39 1.151.259 2.296.539 3.436.835.826.215 1.646.448 2.466.681a110.895 110.895 0 0 1 46.488 26.781l.23.224a110.72 110.72 0 0 1 6.193 6.524 109.152 109.152 0 0 1 2.509 2.96c.45.552.889 1.112 1.328 1.672.601.766 1.192 1.54 1.774 2.323.534.72 1.065 1.442 1.58 2.175.33.468.653.942.977 1.417.527.774 1.044 1.553 1.551 2.341.243.377.492.751.731 1.132.063.101.123.207.186.308-36.916 16.525-68.883 43.405-91.558 76.951-13.337-14.534-45.244-43.21-103.275-63.026zM49.597 335.468c-22.506-44.702-30.615-93.031-33.451-125.839-.005-3.736.047-7.032.161-10.068a257.64 257.64 0 0 1 2.715-28.816c3.964.197 7.843.453 11.673.74 1.452.108 2.902.222 4.345.342.933.079 1.858.164 2.783.248 1.116.101 2.235.2 3.346.309 52.477 5.175 91.674 18.574 119.276 32.137 37.291 18.459 57.501 39.2 64.745 47.657-3.631 6.409-6.904 13.01-9.855 19.75-.065.146-.128.295-.192.442a213.981 213.981 0 0 0-1.815 4.276c-.313.759-.61 1.526-.915 2.29-.368.929-.747 1.854-1.102 2.787a212.504 212.504 0 0 0-2.099 5.746l-.004.014a216.85 216.85 0 0 0-2.047 6.165 215.578 215.578 0 0 0-8.963 43.497c-.045.445-.093.889-.135 1.335a221.235 221.235 0 0 0-.402 4.857c-.036.481-.078.962-.11 1.443-.135 2.047-.247 4.1-.324 6.162-.052 1.395-.09 2.789-.115 4.182a255.104 255.104 0 0 1-18.553-9.425l-13.057-62.676c-.908-4.366-5.184-7.162-9.55-6.257a8.072 8.072 0 0 0-6.257 9.55l9.933 47.679c-33.37-22.669-50.592-45.711-50.959-46.209a8.072 8.072 0 0 0-11.278-1.767 8.074 8.074 0 0 0-1.771 11.28c1.433 1.966 35.111 47.427 101.893 75.642a217.206 217.206 0 0 0 .481 6.313c.195 2.116.429 4.227.687 6.333.04.33.078.66.119.99.255 2.015.54 4.024.853 6.028.059.382.121.763.181 1.144.324 2.012.671 4.019 1.051 6.019.055.287.114.575.17.862.393 2.021.809 4.038 1.259 6.046.023.101.043.203.066.305a215.53 215.53 0 0 0 1.478 6.097c.087.339.171.679.26 1.018a212.901 212.901 0 0 0 1.946 6.948 215.886 215.886 0 0 0 1.816 5.813c.089.27.182.538.272.808a214.24 214.24 0 0 0 2.001 5.742c.052.141.1.282.152.423a215.967 215.967 0 0 0 2.239 5.808c.137.342.272.685.411 1.027a210.878 210.878 0 0 0 2.352 5.555c.158.361.319.719.479 1.079a215.346 215.346 0 0 0 2.574 5.568c.115.239.235.477.351.716a214.197 214.197 0 0 0 2.733 5.44c.061.117.117.238.179.355-71.986-14.277-135.166-59.401-172.026-123.91z" fill="#231F20"/><path d="M248.276 449.269a8.066 8.066 0 0 0 10.933 3.287c25.029-13.456 46.642-28.486 65.205-43.853.116-.077.24-.137.353-.221.38-.283.721-.598 1.036-.931 24.248-20.261 43.195-41.049 57.588-59.557.149-.018.298-.032.448-.058l42.684-7.507a8.073 8.073 0 0 0 6.553-9.35 8.071 8.071 0 0 0-9.35-6.553l-26.65 4.687c25.895-38.023 35.343-66.939 35.734-68.158a8.073 8.073 0 0 0-5.218-10.155 8.068 8.068 0 0 0-10.155 5.218c-.284.885-23.381 70.419-95.635 133.628-7.862-14.049-22.372-46.847-15.691-88.592a8.071 8.071 0 0 0-6.695-9.247 8.07 8.07 0 0 0-9.247 6.695c-7.928 49.525 10.297 87.117 19.027 101.695-16.775 13.418-35.893 26.347-57.634 38.036a8.077 8.077 0 0 0-3.286 10.936zm-6.66-303.429c-.374-4.443-4.287-7.73-8.722-7.368-31.877 2.681-51.149 18.662-61.702 31.595a8.072 8.072 0 1 0 12.508 10.208c12.478-15.29 29.484-23.942 50.547-25.714a8.07 8.07 0 0 0 7.369-8.721z" fill="#231F20"/></svg>