<?xml version="1.0" encoding="iso-8859-1"?>
<!-- Generator: Adobe Illustrator 19.0.0, SVG Export Plug-In . SVG Version: 6.00 Build 0)  -->
<svg version="1.1" id="Layer_1" xmlns="http://www.w3.org/2000/svg" xmlns:xlink="http://www.w3.org/1999/xlink" x="0px" y="0px"
	 viewBox="0 0 511.999 511.999" style="enable-background:new 0 0 511.999 511.999;" xml:space="preserve">
<path style="fill:#B0E046;" d="M234.953,251.473c23.551-39.129,59.505-69.775,102.222-86.708
	c-18.995-36.644-56.603-62.32-100.799-63.973c-53.146-1.988-99.425,31.348-116.202,79.009
	C203.369,205.866,234.933,251.442,234.953,251.473z"/>
<path style="fill:#6AB742;" d="M30.281,163.355c35.598,2.572,65.789,8.806,91.126,16.849c-0.419-0.132-0.813-0.274-1.232-0.404
	c16.777-47.66,63.056-80.997,116.202-79.009c-106.982-66.363-169.42,2.01-193.953,40.344"/>
<path style="fill:#70C449;" d="M179.729,76.329l0.002,0.014c17.279,3.979,36.142,11.729,56.646,24.449
	c29.562,1.104,56.176,12.959,76.244,31.653c9.933,9.255,18.265,20.186,24.554,32.319c26.138-10.364,54.799-15.598,84.703-14.48
	c14.144,0.53,27.881,2.507,41.132,5.7c12.04-95.628-50.557-88.594-121.398-109.779c-50.445-15.085-98.283-1.474-128.691,11.977"/>
<path style="fill:#43A838;" d="M424.64,415.688c46.402-40.409,76.64-99.158,79.122-165.496c1.124-29.981-3.589-58.813-13.013-85.479
	c-21.408-8.45-44.566-13.519-68.87-14.427c-115.299-4.311-212.267,85.666-216.582,200.962
	c-1.62,43.318,10.072,84.049,31.415,118.252c9.073,1.436,18.309,2.41,27.719,2.761c52.655,1.97,101.849-13.856,141.789-42.096"/>
<g style="opacity:0.15;">
	<path style="fill:#231F20;" d="M262.365,469.499c-21.343-34.202-33.034-74.932-31.415-118.252
		c4.054-108.315,89.881-194.277,195.857-200.717c-1.637-0.1-3.28-0.184-4.929-0.246c-115.299-4.311-212.267,85.666-216.582,200.962
		c-1.62,43.318,10.072,84.049,31.415,118.252c9.073,1.436,18.309,2.41,27.719,2.761c7.328,0.274,14.584,0.192,21.762-0.209
		C278.126,471.602,270.181,470.735,262.365,469.499z"/>
</g>
<path style="fill:#43A838;" d="M236.711,469.499c-21.343-34.202-33.034-74.932-31.415-118.252
	c1.368-36.534,12.047-70.519,29.657-99.774c0,0-57.674-83.332-222.73-89.095c-2.155,12.02-3.516,24.329-3.984,36.881
	c-0.135,3.59-0.174,7.161-0.166,10.723c2.986,34.896,11.476,83.846,34.408,129.305c40.862,71.65,114.509,122.564,201.316,131.595
	c0.827-0.032,1.66-0.034,2.48-0.082C243.07,470.422,239.876,470,236.711,469.499z"/>
<g style="opacity:0.15;">
	<path style="fill:#231F20;" d="M233.808,464.686c-71.16-17.494-130.552-63.775-165.695-125.398
		c-22.932-45.459-31.421-94.409-34.408-129.305c-0.009-3.562,0.031-7.133,0.166-10.723c0.449-12.011,1.722-23.794,3.718-35.32
		c-8.165-0.719-16.605-1.255-25.366-1.561c-2.155,12.02-3.516,24.329-3.984,36.881c-0.135,3.59-0.174,7.161-0.166,10.723
		c2.986,34.896,11.476,83.846,34.408,129.305c40.862,71.65,114.509,122.564,201.317,131.595c0.827-0.032,1.66-0.034,2.48-0.082
		c-3.209-0.379-6.403-0.801-9.567-1.302C235.72,467.91,234.756,466.303,233.808,464.686z"/>
</g>
<g>
	<path style="fill:#231F20;" d="M498.361,162.022c-0.779-2.203-2.474-3.961-4.647-4.82c-7.192-2.839-14.503-5.281-21.913-7.327
		c3.257-35.1-3.715-58.991-21.724-74.833c-17.115-15.055-41.443-20.706-69.613-27.249c-11.82-2.746-24.044-5.584-36.539-9.322
		c-52.467-15.69-101.976-1.955-134.269,12.328c-0.152,0.068-0.3,0.14-0.448,0.215l-6.095,3.158
		c-3.958,2.052-5.504,6.925-3.453,10.883c2.051,3.958,6.924,5.504,10.883,3.453l5.87-3.042
		c29.81-13.149,75.25-25.768,122.887-11.526c12.977,3.88,25.45,6.778,37.511,9.58c52.013,12.083,84.294,19.585,79.117,82.621
		c-8.331-1.636-16.763-2.787-25.272-3.436c-0.126-0.01-0.252-0.016-0.379-0.026c-1.257-0.094-2.516-0.183-3.776-0.255
		c-1.441-0.084-2.882-0.153-4.321-0.207c-1.854-0.069-3.703-0.112-5.551-0.136c-0.102-0.001-0.206,0-0.308-0.001
		c-25.916-0.288-51.245,3.959-75.474,12.667c-0.121-0.205-0.252-0.403-0.374-0.606c-0.352-0.587-0.715-1.165-1.075-1.744
		c-0.428-0.689-0.856-1.379-1.297-2.058c-0.282-0.435-0.574-0.86-0.861-1.291c-0.539-0.808-1.078-1.618-1.635-2.413
		c-0.109-0.156-0.223-0.307-0.333-0.462c-4.984-7.048-10.674-13.585-17.036-19.529c3.03-1.67,6.92-3.56,11.7-5.406
		c0.252-0.077,0.493-0.177,0.736-0.278c13.359-5.052,33.379-9.648,60.506-8.197c4.439,0.238,8.256-3.176,8.494-7.63
		c0.239-4.453-3.178-8.255-7.63-8.494c-21.277-1.142-38.756,1.151-52.576,4.678l5.474-19.143c1.226-4.286-1.256-8.756-5.542-9.981
		c-4.283-1.225-8.756,1.255-9.98,5.542l-8.508,29.759c-7.123,2.989-12.43,6.019-15.978,8.325
		c-9.572-6.763-20.021-12.125-31.021-15.993c-0.16-0.057-0.321-0.113-0.481-0.169c-1.193-0.414-2.39-0.816-3.595-1.195
		c-0.197-0.062-0.395-0.118-0.592-0.18c-2.026-0.625-4.069-1.198-6.127-1.721c-0.546-0.14-1.089-0.286-1.637-0.419
		c-0.828-0.199-1.66-0.38-2.492-0.562c-0.816-0.18-1.633-0.352-2.453-0.516c-0.738-0.146-1.478-0.29-2.22-0.423
		c-1.07-0.193-2.146-0.366-3.224-0.532c-0.52-0.08-1.038-0.17-1.559-0.243c-1.593-0.224-3.194-0.415-4.8-0.579
		c-0.466-0.047-0.934-0.082-1.402-0.124c-1.223-0.111-2.45-0.207-3.68-0.281c-0.272-0.017-0.543-0.047-0.815-0.062
		c-0.584-0.356-1.167-0.698-1.751-1.047c-0.475-0.284-0.949-0.572-1.423-0.85c-0.901-0.531-1.801-1.048-2.7-1.564
		c-1.606-0.921-3.209-1.819-4.807-2.688c-0.07-0.038-0.14-0.077-0.21-0.115c-1.178-0.639-2.352-1.257-3.525-1.868
		c-0.034-0.018-0.069-0.036-0.102-0.054c-42.192-21.931-81.671-25.637-117.555-10.959C73.037,87.47,50.05,114.704,36.705,135.121
		c-2.439,3.732-1.391,8.735,2.341,11.175c3.731,2.438,8.734,1.391,11.175-2.341c23.717-36.287,74.408-87.485,157.965-49.233
		c0.059,0.027,0.119,0.056,0.179,0.084c-17.23,3.236-33.599,10.058-48.315,20.232c-0.341,0.236-0.672,0.487-1.01,0.726
		c-0.251,0.177-0.498,0.358-0.748,0.537c-0.947,0.679-1.886,1.368-2.814,2.073c-0.495,0.376-0.984,0.759-1.474,1.141
		c-0.625,0.491-1.248,0.983-1.863,1.484c-0.762,0.619-1.516,1.25-2.264,1.887c-0.286,0.244-0.572,0.489-0.856,0.736
		c-13.171,11.414-24.04,25.58-31.656,41.823c-0.127,0.269-0.252,0.538-0.377,0.807c-0.449,0.976-0.888,1.958-1.313,2.948
		c-0.105,0.245-0.222,0.485-0.326,0.732c-20.079-5.807-41.516-10.05-64.014-12.689c-0.182-0.022-0.366-0.042-0.549-0.064
		c-1.972-0.229-3.953-0.445-5.941-0.649c-0.603-0.062-1.205-0.125-1.811-0.185c-1.794-0.178-3.596-0.343-5.405-0.501
		c-1.403-0.123-2.82-0.235-4.241-0.346c-0.842-0.066-1.681-0.137-2.525-0.197c-0.037-0.003-0.073,0-0.11-0.002
		c-5.936-0.431-12.006-0.772-18.246-0.989c-4.039-0.142-7.518,2.691-8.228,6.644c-2.253,12.554-3.634,25.341-4.108,38.001
		c-0.125,3.341-0.181,6.954-0.171,11.045c0.001,0.224,0.011,0.447,0.029,0.67c2.933,34.276,11.428,85.043,35.243,132.253
		c0.062,0.123,0.127,0.244,0.196,0.364C78.76,419.199,156.328,469.9,242.963,478.913c0.278,0.028,0.557,0.043,0.835,0.043
		c0.107,0,0.212-0.002,0.319-0.006c0.292-0.012,0.586-0.019,0.878-0.025c0.321-0.009,0.638-0.024,0.958-0.036
		c6.176,0.718,12.266,1.217,18.174,1.438c3.08,0.114,6.15,0.172,9.214,0.172c49.561-0.001,96.937-15.036,137.537-43.745
		c3.64-2.575,4.506-7.612,1.931-11.253c-2.576-3.642-7.61-4.507-11.253-1.931c-40.192,28.421-87.501,42.461-136.826,40.621
		c-5.599-0.209-11.216-0.647-16.978-1.321c-0.174-0.032-0.349-0.067-0.527-0.088c-1.992-0.236-3.846-0.471-5.594-0.716
		c-4.982-8.317-9.327-16.933-13.022-25.788c-0.006-0.014-0.012-0.028-0.018-0.043c-0.447-1.071-0.883-2.145-1.31-3.223
		c-0.015-0.039-0.032-0.077-0.047-0.116c-0.273-0.69-0.535-1.383-0.801-2.076c-0.165-0.429-0.335-0.858-0.496-1.288
		c-0.213-0.568-0.415-1.139-0.623-1.709c-0.203-0.556-0.411-1.112-0.609-1.671c-0.137-0.385-0.265-0.773-0.399-1.159
		c-3.805-10.943-6.655-22.195-8.508-33.655c-0.06-0.377-0.114-0.755-0.172-1.131c-0.126-0.809-0.254-1.62-0.37-2.432
		c-0.1-0.7-0.189-1.4-0.282-2.101c-0.066-0.493-0.137-0.985-0.198-1.479c-0.09-0.728-0.17-1.457-0.253-2.186
		c-0.053-0.468-0.112-0.934-0.163-1.403c-0.123-1.145-0.234-2.293-0.336-3.441c-0.004-0.053-0.011-0.105-0.015-0.159
		c-0.194-2.187-0.347-4.38-0.468-6.578c-0.012-0.219-0.029-0.437-0.04-0.656c-0.247-4.728-0.326-9.478-0.241-14.244
		c0.024-1.326,0.058-2.653,0.108-3.982c0.074-1.975,0.183-3.947,0.315-5.916c0.032-0.477,0.073-0.952,0.108-1.428
		c0.116-1.569,0.247-3.137,0.4-4.701c0.041-0.417,0.083-0.833,0.126-1.249c0.189-1.817,0.398-3.631,0.636-5.439
		c0.014-0.107,0.027-0.214,0.041-0.322c1.668-12.501,4.507-24.81,8.458-36.739c0.023-0.068,0.046-0.135,0.068-0.202
		c0.565-1.7,1.16-3.389,1.771-5.071c0.182-0.502,0.365-1.002,0.551-1.502c0.439-1.182,0.898-2.357,1.358-3.531
		c0.297-0.754,0.588-1.51,0.893-2.259c0.167-0.409,0.346-0.814,0.515-1.222c31.336-75.169,106.931-126.855,192.969-123.617
		c1.564,0.058,3.13,0.139,4.696,0.236c0.266,0.016,0.53,0.037,0.795,0.054c1.441,0.095,2.883,0.2,4.325,0.326
		c0.06,0.005,0.121,0.011,0.181,0.016c9.892,0.876,19.792,2.498,29.545,4.848c0.235,0.057,0.471,0.097,0.709,0.132
		c7.617,1.864,15.131,4.174,22.513,6.933c8.545,25.5,12.363,52.053,11.353,78.992c-2.308,61.686-29.107,118.127-75.462,158.928
		c-3.347,2.945-3.672,8.047-0.727,11.394c2.946,3.347,8.047,3.672,11.394,0.727c24.096-21.208,43.378-46.548,57.311-75.317
		c14.425-29.785,22.372-61.792,23.62-95.127C512.962,220.281,508.431,190.515,498.361,162.022z M130.824,174.791
		c16.913-38.55,54.612-64.348,96.911-65.933c0.177-0.006,0.355-0.005,0.532-0.011c1.187-0.039,2.377-0.067,3.57-0.067
		c1.408,0.001,2.821,0.025,4.239,0.079c1.464,0.055,2.921,0.15,4.377,0.262c0.417,0.032,0.833,0.069,1.249,0.105
		c1.169,0.103,2.336,0.227,3.498,0.367c0.321,0.039,0.643,0.07,0.963,0.112c1.348,0.175,2.69,0.381,4.027,0.606
		c0.548,0.093,1.093,0.194,1.637,0.294c0.848,0.155,1.693,0.323,2.536,0.498c0.616,0.128,1.233,0.251,1.845,0.39
		c1.151,0.259,2.296,0.539,3.436,0.835c0.826,0.215,1.646,0.448,2.466,0.681c0.431,0.123,0.86,0.246,1.29,0.375
		c16.969,5.067,32.482,14.148,45.198,26.406c0.077,0.074,0.153,0.15,0.23,0.224c2.149,2.084,4.212,4.263,6.193,6.524
		c0.336,0.384,0.672,0.769,1.002,1.157c0.508,0.595,1.011,1.196,1.507,1.803c0.45,0.552,0.889,1.112,1.328,1.672
		c0.601,0.766,1.192,1.54,1.774,2.323c0.534,0.72,1.065,1.442,1.58,2.175c0.33,0.468,0.653,0.942,0.977,1.417
		c0.527,0.774,1.044,1.553,1.551,2.341c0.243,0.377,0.492,0.751,0.731,1.132c0.063,0.101,0.123,0.207,0.186,0.308
		c-36.916,16.525-68.883,43.405-91.558,76.951C220.762,223.283,188.855,194.607,130.824,174.791L130.824,174.791z M49.597,335.468
		c-22.506-44.702-30.615-93.031-33.451-125.839c-0.005-3.736,0.047-7.032,0.161-10.068c0.357-9.584,1.27-19.248,2.715-28.816
		c3.964,0.197,7.843,0.453,11.673,0.74c1.452,0.108,2.902,0.222,4.345,0.342c0.933,0.079,1.858,0.164,2.783,0.248
		c1.116,0.101,2.235,0.2,3.346,0.309c52.477,5.175,91.674,18.574,119.276,32.137c37.291,18.459,57.501,39.2,64.745,47.657
		c-3.631,6.409-6.904,13.01-9.855,19.75c-0.065,0.146-0.128,0.295-0.192,0.442c-0.618,1.42-1.228,2.843-1.815,4.276
		c-0.313,0.759-0.61,1.526-0.915,2.29c-0.368,0.929-0.747,1.854-1.102,2.787c-0.728,1.902-1.424,3.818-2.099,5.746
		c-0.001,0.004-0.003,0.01-0.004,0.014c-0.707,2.019-1.378,4.056-2.027,6.102c-0.006,0.022-0.013,0.043-0.02,0.063
		c-3.818,12.062-6.609,24.59-8.273,37.485c-0.036,0.275-0.07,0.548-0.104,0.822c-0.215,1.723-0.411,3.454-0.586,5.19
		c-0.045,0.445-0.093,0.889-0.135,1.335c-0.153,1.614-0.284,3.232-0.402,4.857c-0.036,0.481-0.078,0.962-0.11,1.443
		c-0.135,2.047-0.247,4.1-0.324,6.162c-0.052,1.395-0.09,2.789-0.115,4.182c-6.541-2.993-12.726-6.16-18.553-9.425l-13.057-62.676
		c-0.908-4.366-5.184-7.162-9.55-6.257c-4.366,0.91-7.167,5.185-6.257,9.55l9.933,47.679c-33.37-22.669-50.592-45.711-50.959-46.209
		c-2.628-3.602-7.676-4.394-11.278-1.767c-3.604,2.625-4.396,7.676-1.771,11.28c1.433,1.966,35.111,47.427,101.893,75.642
		c0.129,2.058,0.281,4.113,0.468,6.161c0.004,0.051,0.008,0.101,0.013,0.152c0.195,2.116,0.429,4.227,0.687,6.333
		c0.04,0.33,0.078,0.66,0.119,0.99c0.255,2.015,0.54,4.024,0.853,6.028c0.059,0.382,0.121,0.763,0.181,1.144
		c0.324,2.012,0.671,4.019,1.051,6.019c0.055,0.287,0.114,0.575,0.17,0.862c0.393,2.021,0.809,4.038,1.259,6.046
		c0.023,0.101,0.043,0.203,0.066,0.305c0.461,2.041,0.958,4.071,1.478,6.097c0.087,0.339,0.171,0.679,0.26,1.018
		c0.509,1.946,1.047,3.884,1.611,5.815c0.111,0.378,0.223,0.756,0.335,1.133c0.579,1.945,1.182,3.884,1.816,5.813
		c0.089,0.27,0.182,0.538,0.272,0.808c0.64,1.922,1.306,3.837,2.001,5.742c0.052,0.141,0.1,0.282,0.152,0.423
		c0.716,1.947,1.467,3.882,2.239,5.808c0.137,0.342,0.272,0.685,0.411,1.027c0.757,1.861,1.541,3.714,2.352,5.555
		c0.158,0.361,0.319,0.719,0.479,1.079c0.833,1.867,1.687,3.723,2.574,5.568c0.115,0.239,0.235,0.477,0.351,0.716
		c0.885,1.823,1.794,3.638,2.733,5.44c0.061,0.117,0.117,0.238,0.179,0.355C149.637,445.101,86.457,399.977,49.597,335.468z"/>
	<path style="fill:#231F20;" d="M248.276,449.269c1.457,2.712,4.24,4.251,7.117,4.251c1.29,0,2.6-0.31,3.816-0.964
		c25.029-13.456,46.642-28.486,65.205-43.853c0.116-0.077,0.24-0.137,0.353-0.221c0.38-0.283,0.721-0.598,1.036-0.931
		c24.248-20.261,43.195-41.049,57.588-59.557c0.149-0.018,0.298-0.032,0.448-0.058l42.684-7.507c4.392-0.773,7.326-4.958,6.553-9.35
		c-0.772-4.391-4.95-7.323-9.35-6.553l-26.65,4.687c25.895-38.023,35.343-66.939,35.734-68.158
		c1.364-4.245-0.973-8.792-5.218-10.155c-4.248-1.367-8.792,0.972-10.155,5.218c-0.284,0.885-23.381,70.419-95.635,133.628
		c-7.862-14.049-22.372-46.847-15.691-88.592c0.705-4.403-2.293-8.544-6.695-9.247c-4.404-0.707-8.544,2.294-9.247,6.695
		c-7.928,49.525,10.297,87.117,19.027,101.695c-16.775,13.418-35.893,26.347-57.634,38.036
		C247.637,440.446,246.164,445.341,248.276,449.269z"/>
	<path style="fill:#231F20;" d="M241.616,145.84c-0.374-4.443-4.287-7.73-8.722-7.368c-31.877,2.681-51.149,18.662-61.702,31.595
		c-2.819,3.455-2.305,8.541,1.15,11.359c1.499,1.224,3.305,1.818,5.099,1.818c2.342,0,4.664-1.013,6.259-2.969
		c12.478-15.29,29.484-23.942,50.547-25.714C238.691,154.188,241.991,150.284,241.616,145.84z"/>
</g>
<g>
</g>
<g>
</g>
<g>
</g>
<g>
</g>
<g>
</g>
<g>
</g>
<g>
</g>
<g>
</g>
<g>
</g>
<g>
</g>
<g>
</g>
<g>
</g>
<g>
</g>
<g>
</g>
<g>
</g>
</svg>
