<svg viewBox="0 0 442.906 442.906" xmlns="http://www.w3.org/2000/svg"><path d="M442.485 250.247a7.5 7.5 0 0 0-7.08-5.025h-71.493V19.741a7.5 7.5 0 0 0-7.5-7.5H86.495a7.5 7.5 0 0 0-7.5 7.5v225.481H7.5a7.5 7.5 0 0 0-4.674 13.366L216.78 429.03c1.367 1.089 3.02 1.634 4.673 1.634s3.306-.544 4.673-1.634l213.952-170.442a7.499 7.499 0 0 0 2.407-8.341zM221.453 413.575L28.951 260.222h57.544a7.5 7.5 0 0 0 7.5-7.5V27.241h254.917v225.481a7.5 7.5 0 0 0 7.5 7.5h57.542z"/><path d="M155.968 171.393h27.329a7.5 7.5 0 0 0 0-15h-19.829v-47.157a7.5 7.5 0 0 0-15 0v54.657a7.5 7.5 0 0 0 7.5 7.5zm133.136-.32a7.501 7.501 0 0 0 5.334-7.181v-54.657c0-4.142-3.357-7.5-7.5-7.5s-7.5 3.358-7.5 7.5v29.791l-4.397-6.626a7.5 7.5 0 0 0-12.498 0l-4.397 6.626v-29.791c0-4.142-3.357-7.5-7.5-7.5s-7.5 3.358-7.5 7.5v54.657a7.501 7.501 0 0 0 13.749 4.147l11.897-17.929 11.897 17.929a7.5 7.5 0 0 0 8.415 3.034zm-75.2-69.337c-11.67 0-21.165 9.494-21.165 21.164v27.329c0 11.67 9.494 21.165 21.165 21.165s21.165-9.495 21.165-21.165V122.9c-.001-11.67-9.495-21.164-21.165-21.164zm6.164 48.492c0 3.399-2.766 6.165-6.165 6.165s-6.165-2.766-6.165-6.165V122.9c0-3.399 2.766-6.164 6.165-6.164s6.165 2.765 6.165 6.164zm101.342 69.655c4.143 0 7.5-3.358 7.5-7.5s-3.357-7.5-7.5-7.5h-27.329a7.5 7.5 0 0 0-7.5 7.5v54.657a7.5 7.5 0 0 0 7.5 7.5h27.329c4.143 0 7.5-3.358 7.5-7.5s-3.357-7.5-7.5-7.5h-19.829v-12.329h7.916c4.143 0 7.5-3.358 7.5-7.5s-3.357-7.5-7.5-7.5h-7.916v-12.329h19.829zm-97.919-15a7.5 7.5 0 0 0-7.5 7.5v54.657c0 4.142 3.357 7.5 7.5 7.5s7.5-3.358 7.5-7.5v-54.657a7.5 7.5 0 0 0-7.5-7.5zm48.692 15c4.143 0 7.5-3.358 7.5-7.5s-3.357-7.5-7.5-7.5c-19.204 0-34.828 15.624-34.828 34.829s15.624 34.829 34.828 34.829c4.143 0 7.5-3.358 7.5-7.5s-3.357-7.5-7.5-7.5c-10.934 0-19.828-8.895-19.828-19.829s8.895-19.829 19.828-19.829zm-137.023-15h-13.664a7.5 7.5 0 0 0-7.5 7.5v54.657a7.5 7.5 0 0 0 15 0v-19.829h6.164c11.67 0 21.165-9.494 21.165-21.164s-9.495-21.164-21.165-21.164zm0 27.329h-6.164v-12.329h6.164c3.399 0 6.165 2.766 6.165 6.165s-2.766 6.164-6.165 6.164zm52.328 14.554c9.6-2.004 16.834-10.533 16.834-20.719 0-11.67-9.494-21.165-21.165-21.165h-13.664a7.5 7.5 0 0 0-7.5 7.5v54.658a7.5 7.5 0 0 0 15 0v-9.556l15.331 14.929a7.498 7.498 0 0 0 10.605-.141 7.499 7.499 0 0 0-.141-10.605zm-10.495-14.554v-12.329h6.164c3.399 0 6.165 2.766 6.165 6.165s-2.766 6.164-6.165 6.164z"/></svg>