<?xml version="1.0" encoding="iso-8859-1"?>
<!-- Generator: Adobe Illustrator 18.0.0, SVG Export Plug-In . SVG Version: 6.00 Build 0)  -->
<!DOCTYPE svg PUBLIC "-//W3C//DTD SVG 1.1//EN" "http://www.w3.org/Graphics/SVG/1.1/DTD/svg11.dtd">
<svg version="1.1" id="Capa_1" xmlns="http://www.w3.org/2000/svg" xmlns:xlink="http://www.w3.org/1999/xlink" x="0px" y="0px"
	 viewBox="0 0 442.906 442.906" style="enable-background:new 0 0 442.906 442.906;" xml:space="preserve">
<g>
	<path d="M442.485,250.247c-1.053-3.01-3.892-5.025-7.08-5.025h-71.493V19.741c0-4.142-3.357-7.5-7.5-7.5H86.495
		c-4.142,0-7.5,3.358-7.5,7.5v225.481H7.5c-3.188,0-6.027,2.015-7.08,5.025c-1.052,3.009-0.087,6.355,2.406,8.341L216.78,429.03
		c1.367,1.089,3.02,1.634,4.673,1.634s3.306-0.544,4.673-1.634l213.952-170.442C442.572,256.602,443.537,253.257,442.485,250.247z
		 M221.453,413.575L28.951,260.222h57.544c4.142,0,7.5-3.358,7.5-7.5V27.241h254.917v225.481c0,4.142,3.357,7.5,7.5,7.5h57.542
		L221.453,413.575z"/>
	<path d="M155.968,171.393h27.329c4.142,0,7.5-3.358,7.5-7.5s-3.358-7.5-7.5-7.5h-19.829v-47.157c0-4.142-3.358-7.5-7.5-7.5
		s-7.5,3.358-7.5,7.5v54.657C148.468,168.035,151.826,171.393,155.968,171.393z"/>
	<path d="M289.104,171.073c3.167-0.956,5.334-3.873,5.334-7.181v-54.657c0-4.142-3.357-7.5-7.5-7.5s-7.5,3.358-7.5,7.5v29.791
		l-4.397-6.626c-1.39-2.094-3.735-3.353-6.249-3.353s-4.859,1.259-6.249,3.353l-4.397,6.626v-29.791c0-4.142-3.357-7.5-7.5-7.5
		s-7.5,3.358-7.5,7.5v54.657c0,3.308,2.167,6.225,5.334,7.181c3.17,0.956,6.588-0.278,8.415-3.034l11.897-17.929l11.897,17.929
		c1.415,2.133,3.783,3.354,6.25,3.354C287.659,171.393,288.388,171.289,289.104,171.073z"/>
	<path d="M213.904,101.736c-11.67,0-21.165,9.494-21.165,21.164v27.329c0,11.67,9.494,21.165,21.165,21.165
		s21.165-9.495,21.165-21.165V122.9C235.068,111.23,225.574,101.736,213.904,101.736z M220.068,150.228
		c0,3.399-2.766,6.165-6.165,6.165s-6.165-2.766-6.165-6.165V122.9c0-3.399,2.766-6.164,6.165-6.164s6.165,2.765,6.165,6.164
		V150.228z"/>
	<path d="M321.41,219.883c4.143,0,7.5-3.358,7.5-7.5s-3.357-7.5-7.5-7.5h-27.329c-4.143,0-7.5,3.358-7.5,7.5v54.657
		c0,4.142,3.357,7.5,7.5,7.5h27.329c4.143,0,7.5-3.358,7.5-7.5s-3.357-7.5-7.5-7.5h-19.829v-12.329h7.916c4.143,0,7.5-3.358,7.5-7.5
		s-3.357-7.5-7.5-7.5h-7.916v-12.329H321.41z"/>
	<path d="M223.491,204.883c-4.143,0-7.5,3.358-7.5,7.5v54.657c0,4.142,3.357,7.5,7.5,7.5s7.5-3.358,7.5-7.5v-54.657
		C230.991,208.241,227.634,204.883,223.491,204.883z"/>
	<path d="M272.183,219.883c4.143,0,7.5-3.358,7.5-7.5s-3.357-7.5-7.5-7.5c-19.204,0-34.828,15.624-34.828,34.829
		s15.624,34.829,34.828,34.829c4.143,0,7.5-3.358,7.5-7.5s-3.357-7.5-7.5-7.5c-10.934,0-19.828-8.895-19.828-19.829
		S261.25,219.883,272.183,219.883z"/>
	<path d="M135.16,204.883h-13.664c-4.142,0-7.5,3.358-7.5,7.5v54.657c0,4.142,3.358,7.5,7.5,7.5s7.5-3.358,7.5-7.5v-19.829h6.164
		c11.67,0,21.165-9.494,21.165-21.164S146.83,204.883,135.16,204.883z M135.16,232.212h-6.164v-12.329h6.164
		c3.399,0,6.165,2.766,6.165,6.165S138.559,232.212,135.16,232.212z"/>
	<path d="M187.488,246.766c9.6-2.004,16.834-10.533,16.834-20.719c0-11.67-9.494-21.165-21.165-21.165h-13.664
		c-4.142,0-7.5,3.358-7.5,7.5v27.269c0,0.039,0,0.078,0,0.117v27.272c0,4.142,3.358,7.5,7.5,7.5s7.5-3.358,7.5-7.5v-9.556
		l15.331,14.929c2.967,2.89,7.717,2.828,10.605-0.141c2.89-2.967,2.827-7.716-0.141-10.605L187.488,246.766z M176.993,232.212
		v-12.329h6.164c3.399,0,6.165,2.766,6.165,6.165s-2.766,6.164-6.165,6.164H176.993z"/>
</g>
<g>
</g>
<g>
</g>
<g>
</g>
<g>
</g>
<g>
</g>
<g>
</g>
<g>
</g>
<g>
</g>
<g>
</g>
<g>
</g>
<g>
</g>
<g>
</g>
<g>
</g>
<g>
</g>
<g>
</g>
</svg>
