<?xml version="1.0" encoding="iso-8859-1"?>
<!-- Generator: Adobe Illustrator 19.0.0, SVG Export Plug-In . SVG Version: 6.00 Build 0)  -->
<svg version="1.1" id="Capa_1" xmlns="http://www.w3.org/2000/svg" xmlns:xlink="http://www.w3.org/1999/xlink" x="0px" y="0px"
	 viewBox="0 0 512.007 512.007" style="enable-background:new 0 0 512.007 512.007;" xml:space="preserve">
<circle style="fill:#69C4D2;" cx="256.003" cy="256.003" r="256.003"/>
<path style="fill:#38979E;" d="M510.83,231.537l-117.469-117.47H256H118.692v139.455H78.526l248.489,248.489
	C433.85,471.226,511.999,372.743,512,255.999C512,247.747,511.594,239.59,510.83,231.537z"/>
<polygon style="fill:#DF3A5C;" points="393.361,253.522 393.361,114.067 118.692,114.067 118.692,253.522 78.526,253.522 
	256.026,431.022 433.525,253.522 "/>
<polygon style="fill:#B52241;" points="393.361,253.522 393.361,114.067 256,114.067 256,430.996 256.026,431.022 433.525,253.522 
	"/>
<g>
	<path style="fill:#FDF7D0;" d="M236.735,327.651c-9.431,0-16.492-7.001-16.492-15.193c0-8.402,7.333-15.093,16.492-15.093
		c8.861,0,16.492,6.444,16.492,15.093C253.227,320.768,245.999,327.651,236.735,327.651z M225.84,364.635l54.176-67.069l6.098,5.398
		l-54.176,67.069L225.84,364.635z M236.735,320.955c3.482,0,7.097-3.501,7.097-8.496c0-4.379-2.955-8.397-7.097-8.397
		c-3.475,0-7.097,3.527-7.097,8.397C229.638,316.923,232.655,320.955,236.735,320.955z M275.318,370.333
		c-9.038,0-16.492-6.559-16.492-15.093c0-8.139,7.018-15.194,16.492-15.194c8.707,0,16.492,6.215,16.492,15.194
		C291.81,364.438,283.736,370.333,275.318,370.333z M275.318,363.635c3.462,0,7.097-3.497,7.097-8.396
		c0-4.219-2.917-8.496-7.097-8.496c-3.471,0-7.097,3.491-7.097,8.496C268.221,359.62,271.173,363.635,275.318,363.635z"/>
	<path style="fill:#FDF7D0;" d="M168.648,218.877V161.83h11.088v47.324h29.086v9.722h-40.174V218.877z"/>
	<path style="fill:#FDF7D0;" d="M236.301,219.279c-16.2,0-27.8-13.862-27.8-28.925c0-14.9,11.673-28.925,28.041-28.925
		c16.454,0,27.64,14.681,27.64,29.085C264.181,205.793,252.316,219.279,236.301,219.279z M219.75,190.354
		c0,10.189,6.39,19.123,16.632,19.123s16.633-9.156,16.633-19.123c0-9.611-6.061-19.043-16.633-19.043
		C225.944,171.312,219.75,180.421,219.75,190.354z"/>
	<path style="fill:#FDF7D0;" d="M290.294,161.991h10.205l6.428,18.882l6.427-18.882h10.285l-9.722,25.953l7.232,18.239l16.15-44.351
		h12.052l-23.221,57.047h-9.32l-9.882-23.944l-9.883,23.944h-9.32l-23.06-57.047h11.892l16.229,44.351l7.071-18.239L290.294,161.991
		z"/>
	<path style="fill:#FDF7D0;" d="M169.406,283.227v-45.339h19.221c8.453,0,14.432,7.784,14.432,15.07
		c0,7.859-5.877,15.071-14.112,15.071h-10.728v15.198H169.406z M178.219,260.303h10.217c3.698,0,5.683-3.449,5.683-7.344
		c0-3.852-2.247-7.344-6.066-7.344h-9.835L178.219,260.303L178.219,260.303z"/>
	<path style="fill:#FDF7D0;" d="M209.188,283.227v-45.339h20.051c8.227,0,14.432,7.534,14.432,15.07
		c0,5.723-2.991,11.024-8.174,13.218l10.344,17.049h-9.897l-9.26-15.198h-8.684v15.198h-8.813V283.227z M218,260.303h11.047
		c3.347,0,5.747-3.403,5.747-7.344c0-4.366-3.072-7.344-6.129-7.344h-10.664v14.687H218z"/>
	<path style="fill:#FDF7D0;" d="M251.652,283.227v-45.339h8.812v45.339H251.652z"/>
	<path style="fill:#FDF7D0;" d="M267.169,260.238c0-11.675,8.74-22.605,22.35-22.605c8.616,0,14.759,4.251,17.624,9.898
		l-6.768,4.661c-2.147-4.591-6.34-6.768-11.112-6.768c-8.325,0-13.154,7.266-13.154,15.07c0,8.405,5.714,15.325,13.283,15.325
		c5.209,0,9.496-2.841,11.175-6.896l7.216,4.151c-2.874,6.752-11.314,10.536-18.647,10.536
		C276.639,283.611,267.169,272.104,267.169,260.238z"/>
	<path style="fill:#FDF7D0;" d="M345.201,275.5v7.727h-31.482v-45.339h30.907v7.727h-22.094v10.919h19.093v7.152h-19.093V275.5
		H345.201z"/>
</g>
<g>
</g>
<g>
</g>
<g>
</g>
<g>
</g>
<g>
</g>
<g>
</g>
<g>
</g>
<g>
</g>
<g>
</g>
<g>
</g>
<g>
</g>
<g>
</g>
<g>
</g>
<g>
</g>
<g>
</g>
</svg>
