<svg xmlns="http://www.w3.org/2000/svg" viewBox="0 0 512 512"><path fill="#296b94" d="M102.128 83.978l207.959-10.003c6.422 20.294 25.152 34.168 46.755 34.168 28.357 0 53.858-8.569 68.213-22.924 7.733-7.733 11.82-16.777 11.822-26.147 0-13.62-8.46-26.175-23.819-35.357C398.263 14.872 378.298 10 356.843 10c-13.099 0-25.416 5.103-34.68 14.367-5.573 5.573-9.703 12.361-12.071 19.802L102.128 34.165c-.699-.058-1.361-.084-2.016-.086-6.676.002-12.95 2.6-17.67 7.32s-7.32 10.996-7.32 17.67c0 13.78 11.21 24.99 24.99 24.99.655.003 1.315-.025 2.016-.081z"/><path d="M356.843 118.144c-23.222 0-43.821-13.317-53.435-33.835L102.753 93.96c-.932.07-1.804.096-2.671.101-19.264 0-34.96-15.696-34.96-34.99 0-9.345 3.64-18.132 10.249-24.741 6.605-6.607 15.391-10.247 24.738-10.25.922.003 1.785.037 2.659.105l200.672 9.652c2.897-6.113 6.849-11.738 11.651-16.541C326.245 6.142 341.072 0 356.843 0c23.233 0 45.02 5.374 61.346 15.13 18.501 11.06 28.689 26.666 28.689 43.941-.003 12.084-5.103 23.57-14.751 33.218-16.189 16.19-44.333 25.855-75.284 25.855zm-46.752-54.169c4.34 0 8.209 2.81 9.53 6.982 5.147 16.261 20.104 27.186 37.222 27.186 25.764 0 48.621-7.475 61.142-19.996 5.816-5.817 8.893-12.414 8.893-19.078 0-9.958-6.73-19.467-18.95-26.772C394.658 24.368 376.516 20 356.843 20c-10.428 0-20.233 4.062-27.609 11.438-4.411 4.411-7.735 9.862-9.613 15.763-1.375 4.319-5.492 7.17-10.01 6.956L101.647 44.154c-.116-.005-.233-.013-.349-.023-.402-.033-.8-.05-1.216-.051-3.973.001-7.739 1.561-10.569 4.392-2.832 2.832-4.392 6.596-4.392 10.599 0 8.266 6.724 14.99 14.99 14.99.404.002.782-.016 1.224-.051.104-.008.208-.015.312-.02l207.959-10.003c.163-.008.324-.012.485-.012z"/><path fill="#fd7555" d="M145.735 107.584v98.105c12.778-.218 24.761-5.285 33.822-14.346 5.574-5.574 9.703-12.361 12.071-19.802l207.963 10.003c.698.058 1.361.084 2.016.086 6.676-.002 12.95-2.6 17.67-7.32s7.32-10.996 7.32-17.67c0-13.78-11.21-24.99-24.99-24.99-.655-.002-1.315.026-2.016.082l-207.959 10.003c-6.336-20.024-24.658-33.788-45.897-34.151z"/><path d="M401.639 121.65c-.859.007-1.738.03-2.672.101l-200.661 9.652c-9.463-20.131-29.649-33.429-52.4-33.817-.029-.001-.058.003-.087.003-.028 0-.056-.004-.084-.004H85.402c-5.523 0-10 4.477-10 10s4.477 10 10 10h50.333v29.053H85.402c-5.523 0-10 4.477-10 10s4.477 10 10 10h50.333v29.052H85.402c-5.523 0-10 4.477-10 10s4.477 10 10 10h60.333c.057 0 .114 0 .171-.002 15.384-.263 29.846-6.397 40.723-17.273 4.802-4.803 8.753-10.427 11.65-16.542l200.674 9.653c.884.068 1.748.103 2.656.105 9.347-.003 18.132-3.643 24.737-10.249 6.609-6.608 10.25-15.395 10.25-24.741.002-19.294-15.695-34.991-34.957-34.991zm10.567 45.589c-3.122 3.121-7.373 4.706-11.793 4.34-.113-.009-.228-.017-.341-.022l-207.963-10.003c-4.525-.221-8.635 2.636-10.009 6.956-1.879 5.902-5.203 11.354-9.613 15.763-4.727 4.726-10.477 8.098-16.752 9.902V119.1c12.337 3.545 22.366 13.019 26.363 25.653 1.369 4.327 5.489 7.192 10.015 6.971l207.959-10.003c.104-.005.207-.011.311-.02.444-.035.841-.05 1.226-.051 8.265 0 14.989 6.725 14.989 14.99 0 4.004-1.56 7.767-4.392 10.599z"/><g fill="#98e1e2"><path d="M468 373.718H44l21.421-91.603c5.025-21.488 24.187-36.686 46.254-36.686h288.649c22.068 0 41.229 15.198 46.254 36.686L468 373.718zM44.006 373.718h424l-21.427 91.596C441.554 486.802 422.392 502 400.325 502h-288.65c-22.068 0-41.229-15.198-46.254-36.686l-21.415-91.596z"/></g><path fill="#296b94" d="M289.184 421.826h-66.369c-15.086 0-27.315-12.23-27.315-27.315l.001-20.793h121l-.001 20.793c0 15.086-12.23 27.315-27.316 27.315z"/><path d="M400.97 347.62c-.66 0-1.31-.06-1.96-.19-.64-.13-1.26-.32-1.87-.57-.6-.25-1.18-.56-1.72-.92-.55-.36-1.06-.78-1.52-1.24s-.88-.98-1.25-1.52c-.359-.55-.67-1.13-.92-1.73s-.439-1.23-.569-1.87c-.13-.65-.19-1.3-.19-1.96 0-.65.061-1.3.19-1.95.13-.64.319-1.27.569-1.87s.561-1.18.92-1.73c.37-.54.79-1.06 1.25-1.52s.971-.88 1.52-1.24c.54-.36 1.12-.671 1.72-.921.61-.25 1.23-.44 1.87-.57 1.29-.26 2.62-.26 3.91 0 .64.13 1.27.32 1.87.57s1.189.56 1.729.921c.54.36 1.061.78 1.521 1.24s.88.98 1.24 1.52c.359.55.67 1.13.92 1.73s.439 1.23.569 1.87c.13.65.2 1.3.2 1.95 0 .66-.07 1.31-.2 1.96-.13.64-.319 1.27-.569 1.87s-.561 1.18-.92 1.73c-.36.54-.78 1.06-1.24 1.52s-.98.88-1.521 1.24c-.54.36-1.13.67-1.729.92-.6.25-1.23.44-1.87.57-.64.13-1.3.19-1.95.19z"/><path d="M483 363.719h-7.068l-19.615-83.881c-6.115-26.147-29.14-44.408-55.992-44.408h-288.65c-26.852 0-49.877 18.261-55.992 44.409l-19.615 83.88H29c-5.523 0-10 4.477-10 10s4.477 10 10 10h7.075l19.609 83.873C61.799 493.739 84.823 512 111.675 512h288.649c26.853 0 49.877-18.261 55.992-44.408l19.62-83.874H483c5.522 0 10-4.477 10-10 0-5.522-4.478-9.999-10-9.999zM60.372 347.625h303.086c5.522 0 10-4.477 10-10s-4.478-10-10-10H65.048l10.11-43.232c3.988-17.053 19.004-28.963 36.517-28.963h288.649c17.513 0 32.529 11.91 36.518 28.962l18.55 79.326H56.608l3.764-16.093zm145.129 36.094h101l-.001 10.792c0 9.548-7.768 17.315-17.315 17.315h-66.369c-9.548 0-17.315-7.768-17.315-17.315v-10.792zm231.341 79.318C432.853 480.09 417.837 492 400.324 492H111.675c-17.513 0-32.529-11.91-36.517-28.962l-18.544-79.319h128.887l-.001 10.792c0 20.576 16.74 37.315 37.315 37.315h66.369c20.576 0 37.315-16.74 37.315-37.315v-10.793h128.896l-18.553 79.319z"/></svg>