<svg viewBox="0 0 557.506 557.506" xmlns="http://www.w3.org/2000/svg"><path d="M196.261 310.341v73.893c0 5.948 4.822 10.771 10.774 10.771s10.774-4.823 10.774-10.771v-67.14l-34.128-36.022a31.813 31.813 0 0 1-7.864-29.403l8.213-34.223h-9.599l7.2-10.921a22.063 22.063 0 0 0 4.792 1.582 31.864 31.864 0 0 1 8.449-13.103c4.954-4.615 11.353-7.595 18.36-8.333a32.194 32.194 0 0 1 3.186-.187V151.23c0-5.949-4.823-10.771-10.771-10.771s-10.771 4.826-10.771 10.771v12.999a22.328 22.328 0 0 0-3.966-.374 22.32 22.32 0 0 0-3.99.376v-30.673c0-5.949-4.822-10.771-10.774-10.771-5.948 0-10.771 4.822-10.771 10.771v58.489l-5.217 7.916-5.217-7.916v-58.489c0-5.949-4.823-10.771-10.771-10.771s-10.771 4.822-10.771 10.771v30.673a22.599 22.599 0 0 0-3.99-.376 22.24 22.24 0 0 0-7.812 1.432v-50.089c0-5.949-4.823-10.771-10.774-10.771s-10.771 4.823-10.771 10.771v58.489l-6.613 10.034v-50.163c0-5.949-4.823-10.771-10.771-10.771s-10.771 4.822-10.771 10.771v13.369a22.273 22.273 0 0 0-7.812-1.432c-12.344 0-22.351 10.006-22.351 22.35s10.006 22.351 22.351 22.351a22.24 22.24 0 0 0 7.812-1.432v6.512c0 1.31.266 2.595.725 3.807h-27.77l-16.741-25.398V115.2c0-5.949-4.823-10.771-10.771-10.771S6.568 109.25 6.568 115.198v61.72c0 2.108.618 4.167 1.778 5.927l29.051 44.076v47.09a10.89 10.89 0 0 0-.214 2.136v89.728c0 5.949 4.822 10.771 10.771 10.771s10.774-4.822 10.774-10.771V291.98h10.71v73.893c0 5.949 4.823 10.771 10.774 10.771s10.774-4.822 10.774-10.771v-89.728c0-.731-.076-1.444-.214-2.136v-46.867l11.955 18.137v47.09a10.89 10.89 0 0 0-.214 2.136v89.729c0 5.948 4.822 10.771 10.774 10.771 5.949 0 10.771-4.823 10.771-10.771v-73.893h10.71v73.893c0 5.948 4.822 10.771 10.771 10.771s10.771-4.823 10.771-10.771v-89.729c0-.731-.077-1.444-.214-2.136v-47.09l4.067-6.172 4.066 6.172v47.09a10.89 10.89 0 0 0-.214 2.136v89.729c0 5.948 4.822 10.771 10.771 10.771s10.774-4.823 10.774-10.771v-73.893zM129.4 217.445h-19.23l-6.582-9.988 6.555-9.945c3.886 6.6 11.043 11.043 19.256 11.043 3.314 0 6.445-.741 9.275-2.032l7.2 10.921H129.4zm111.577-19.606a53.422 53.422 0 0 1 3.595-5.107 53.963 53.963 0 0 1 3.847-4.342 54.063 54.063 0 0 1 7.831-6.505 53.656 53.656 0 0 1 9.869-5.306v-17.274c0-5.948-4.823-10.771-10.771-10.771-2.653 0-5.052.998-6.928 2.585v-17.561c0-5.949-4.823-10.771-10.774-10.771s-10.771 4.822-10.771 10.771v54.633a31.521 31.521 0 0 1 6.897 3.326 31.75 31.75 0 0 1 7.205 6.322zm-7.075 136.247l-8.418-8.886v64.327l8.418-10.288zm303.233-221.587c-5.947 0-10.771 4.823-10.771 10.771v58.489l-16.74 25.398h-27.766c.459-1.215.725-2.497.725-3.807v-6.512a22.273 22.273 0 0 0 7.809 1.432c12.344 0 22.35-10.006 22.35-22.35s-10.006-22.351-22.35-22.351c-2.75 0-5.377.521-7.809 1.432v-13.369c0-5.949-4.822-10.771-10.775-10.771-5.947 0-10.77 4.822-10.77 10.771v50.166l-6.617-10.034v-58.495c0-5.949-4.822-10.771-10.77-10.771-5.949 0-10.775 4.823-10.775 10.771v50.089a22.277 22.277 0 0 0-7.812-1.432c-1.363 0-2.691.141-3.99.376V141.63c0-5.949-4.822-10.771-10.771-10.771-5.947 0-10.77 4.822-10.77 10.771v58.489l-5.219 7.916-.82-1.242v41.632l.82-1.242 4.066 6.172v47.09a10.966 10.966 0 0 0-.213 2.136v89.729c0 5.948 4.822 10.771 10.773 10.771 5.949 0 10.771-4.823 10.771-10.771v-73.893h10.71v73.893c0 5.948 4.822 10.771 10.77 10.771 5.949 0 10.775-4.823 10.775-10.771v-89.73c0-.731-.076-1.444-.215-2.136v-47.09l11.955-18.137v46.868a10.966 10.966 0 0 0-.213 2.136v89.728c0 5.949 4.822 10.771 10.773 10.771s10.771-4.822 10.771-10.771v-73.893h10.709v73.893c0 5.949 4.824 10.771 10.775 10.771s10.771-4.822 10.771-10.771v-89.728c0-.731-.076-1.444-.215-2.136v-47.091l29.051-44.076a10.767 10.767 0 0 0 1.779-5.927v-61.72c.003-5.946-4.819-10.772-10.772-10.772zM444.301 225.52H408.6l7.201-10.921a22.211 22.211 0 0 0 9.275 2.032c8.213 0 15.373-4.443 19.256-11.043l6.555 9.945zm-54.049 37.785c-.602 1.236-1.254 2.448-2.02 3.608l-42.299 64.177v66.772c.221 1.524.334 3.061.334 4.581v.517c.389.043.771.12 1.172.12 5.949 0 10.771-4.823 10.771-10.771v-73.893h10.71v73.893c0 5.948 4.822 10.771 10.773 10.771s10.771-4.823 10.771-10.771V302.58c0-.731-.076-1.444-.215-2.136v-37.139zM327.596 141.63c0-5.949-4.822-10.771-10.771-10.771-5.947 0-10.773 4.822-10.773 10.771v1.411c-1.879-1.591-4.275-2.586-6.928-2.586-5.949 0-10.771 4.826-10.771 10.771v21.432c6.227.223 12.186 1.497 17.699 3.678a54.003 54.003 0 0 1 3.844 1.713c6.832 3.348 12.873 8.057 17.699 13.844V141.63zM95.18 94.372c6.426-8.433 6.714-20.294 1.401-29.572-5.747-10.034-30.863-29.146-16.992-40.264 7.699-6.172-3.201-16.925-10.82-10.82-9.033 7.24-9.893 18.354-6.75 28.88C66.208 56.62 93.727 71.213 81.97 86.648c-5.986 7.852 7.313 15.459 13.21 7.724zm398.843-65.387c9.816-.994 6.514-15.945-3.197-14.963-11.52 1.166-18.281 10.024-21.365 20.569-4.109 14.048 11.055 41.258-7.203 47.818-9.291 3.338-2.266 16.952 6.887 13.663 9.979-3.586 16.668-13.385 17.254-24.058.628-11.544-10.063-41.238 7.624-43.029zM194.348 92.688c1.643 10.563 9.275 19.651 19.56 22.225 9.437 2.362 15.074-11.882 5.499-14.281-18.822-4.715-6.438-33.296-11.921-46.867-4.116-10.187-11.726-18.33-23.305-18.345-9.761-.012-11.563 15.193-1.695 15.205 17.771.028 10.087 30.641 11.862 42.063zm186.984-54.837c4.498-10.025 5.105-21.154-2.904-29.517-6.75-7.053-18.969 2.179-12.145 9.306 12.293 12.84-15.113 28.495-22.127 37.687-6.484 8.5-7.754 20.297-2.488 29.501 4.83 8.442 19.01 2.647 14.111-5.924-9.633-16.84 19.563-27.696 25.553-41.053zM243.213 53.885c4.097 9.875 13.666 16.895 24.266 16.958 9.728.061 11.83-15.113 1.958-15.177-19.403-.123-14.14-30.824-22.684-42.708-6.414-8.923-15.735-15.031-26.986-12.301-9.489 2.301-7.638 17.5 1.952 15.174 17.281-4.186 17.063 27.375 21.494 38.054zM135.128 95.73c13.813 0 13.813-21.42 0-21.42s-13.813 21.42 0 21.42zm-102.51-30.6c13.812 0 13.812-21.42 0-21.42-13.813 0-13.813 21.42 0 21.42zm287.64-48.96c-13.812 0-13.812 21.42 0 21.42s13.812-21.42 0-21.42zm-19.891 76.5c13.814 0 13.814-21.42 0-21.42-13.812 0-13.812 21.42 0 21.42zm117.811-32.129c13.812 0 13.812-21.42 0-21.42s-13.813 21.42 0 21.42zm122.4 1.529c-13.812 0-13.812 21.42 0 21.42s13.813-21.42 0-21.42z"/><path d="M336.666 317.348l38.791-58.853a16.599 16.599 0 0 0 2.742-9.143V132.087c0-.407-.031-.808-.061-1.208-.621-8.611-7.789-15.41-16.562-15.41-9.18 0-16.617 7.442-16.617 16.619v112.278l-8.08 12.255-17.746 26.931h-66.235l-27.775-29.321 5.508-22.947 2.161-9c.006-.031.009-.064.018-.095.101-.438.181-.875.245-1.31.021-.217.058-.428.083-.646a16.43 16.43 0 0 0-.331-5.584 16.583 16.583 0 0 0-12.298-12.408c-.107-.024-.211-.034-.318-.058a16.614 16.614 0 0 0-3.586-.41c-.064 0-.125.016-.189.016-7.427.085-14.134 5.18-15.946 12.729l-.701 2.922-1.083 4.516-7.986 33.278a16.627 16.627 0 0 0 4.094 15.312l23.014 24.297 7.895 8.335 23.5 24.811v56.71l-2.172 2.653-18.238 22.289-34.798 42.537c-5.566 6.809-4.872 16.771 1.591 22.741l42.344 39.089a16.555 16.555 0 0 0 11.267 4.406c4.477 0 8.941-1.799 12.215-5.346 6.227-6.747 5.805-17.258-.939-23.488l-30.839-28.468 28.015-34.234h40.079v114.009c0 9.177 7.443 16.619 16.619 16.619 9.178 0 16.619-7.442 16.619-16.619v-138.44a16.68 16.68 0 0 0-.334-3.299v-72.641z"/><path d="M249.171 235.116a38.376 38.376 0 0 0 18.844 24.701 38.024 38.024 0 0 0 11.056 3.984c2.381.462 4.832.722 7.344.722 15.055 0 28.045-8.703 34.314-21.331 1.463-2.947 2.59-6.089 3.256-9.407.494-2.454.76-4.994.76-7.595 0-2.996-.379-5.896-1.029-8.693-2.02-8.7-6.99-16.249-13.818-21.555a38.47 38.47 0 0 0-3.844-2.623 38.12 38.12 0 0 0-7.402-3.427 38.195 38.195 0 0 0-10.296-1.934c-.646-.034-1.285-.098-1.94-.098a38.144 38.144 0 0 0-20.297 5.857c-9.706 6.08-16.505 16.355-17.8 28.308-.024.217-.027.434-.058.651a38.936 38.936 0 0 0-.159 3.127c0 .128-.019.254-.019.386 0 1.239.071 2.46.187 3.669.17 1.797.491 3.545.901 5.258z"/></svg>