<svg xmlns="http://www.w3.org/2000/svg" viewBox="0 0 496 496"><path fill="#333" d="M455.048 480c-5.68-27.048-38.744-56-79.048-56-17.696 0-36.672 2.96-52.672 6.368C343.632 405.464 352 370.12 352 336c0-33.272-5.704-58.768-10.472-74.32l33.712 4.272-8.368-14.056C366.64 251.512 344 212.768 344 152c0-53.128 0-152-88-152-1.704 0-39.712.28-59.288 23.128-2.936-.424-6.728-.64-10.84-.048-10.856 1.552-19.216 8.04-23.904 18.416C152.088 44.904 128 55.712 128 80c0 15.952 6.648 25.968 15.016 32H0v16h71.568C38.408 144.608 0 177.336 0 240h16c0-93.448 96.12-110.672 104.632-112h31.24c.832 4.344 2.44 8.872 5.592 12.912 3.152 4.04 7.36 6.872 12.392 8.712-8.96 16.584-3.128 32.816 4.072 42.784-.52 1.32-1 2.672-1.464 4.072C164.32 186.68 151.824 176 136 176c-17.608 0-24 14.352-24 24v4l3.2 2.4c41.592 31.192 35.336 58.48 27.416 93.016C139.368 313.6 136 328.272 136 344c0 36.816 9.104 65.656 26.32 85.888-15.496-3.2-33.472-5.888-50.32-5.888-40.296 0-73.368 28.952-79.048 56H0v16h496v-16h-40.952zM328 152c0 43.936 10.864 76.832 18.32 94.224l-10.96-1.368c-.048-.104-.128-.272-.144-.32l-.496.24-36.536-4.568C295.616 238.6 280 226.576 280 176c0-8.68 2.824-21.296 6.088-35.896C290.736 119.32 296 95.776 296 72h-16c0 22.008-5.064 44.64-9.528 64.608C267 152.144 264 165.552 264 176c0 3.232.112 6.208.224 9.184l-32.832 5.472c.648-12.16 4.736-26.408 15.288-42.224 23.816-35.72 29.192-73.552 14.4-101.208-6.864-12.824-17.408-22.04-30.216-27.008C243.632 16.144 255.8 16 256 16c59.76 0 72 54.368 72 136zM169.936 55.76l4.264-1.064 1.384-4.168c5-15 18.056-12.144 21.88-10.944l5.8 1.936 3.392-5.088c1.04-1.56 2.256-2.968 3.544-4.304 11.728.512 22.024 4.968 29.6 12.792-2.096 35.864-26.696 59.728-50.584 82.792-2.8 2.712-5.536 5.392-8.264 8.08-5.008-.456-8.704-1.984-10.84-4.696-2.4-3.04-3.016-7.424-2.984-11.136.28.016.592.04.872.04h16v-16h-15.952c-4.016-.048-24.048-1.416-24.048-24 0-17.408 25.704-24.176 25.936-24.24zm19.72 93.896c3.472-3.472 7.056-6.936 10.672-10.432 20.168-19.48 42.352-41.008 51.416-70.736 4.52 20.696-1.768 46.16-18.376 71.072-29.304 43.952-16.184 79.32-6.392 95.832l-38.168 10.904c-15.712-45.376 14.84-70.96 16.208-72.08l-10.024-12.48c-.16.128-5.992 4.976-12.152 13.888-2.568-6.88-2.864-16.288 6.816-25.968zm-61.048 46.888c.904-2.48 2.984-4.544 7.392-4.544 15.064 0 28.144 18.712 32.456 26.84-.376 11.832 1.768 25.312 8.2 40.304l2.776 6.48 29.736-8.512c9.08 4.2 31.832 17.584 37.528 48.192C230.768 309 200 322.976 200 376v8h8c.56 0 56-.736 56-64 0-36.432-18.816-57.576-34.128-68.808l24.864-7.112-8.904-9.56c-.72-.768-9.84-10.968-13.232-27.84l32.872-5.48c5.536 45.328 25.408 53.528 28 54.384l30.472 3.864C328.392 272 336 298.832 336 336c0 26.272-6.344 112-88 112-63.704 0-96-34.992-96-104 0-13.92 3.16-27.688 6.208-41.008 7.912-34.448 16.064-70.04-29.6-106.448zm119.384 124.664c-.464 33.32-19.888 42.92-31.624 45.68 2.792-32.984 20.72-42.776 31.624-45.68zM112 440c38.192 0 85 15.44 85.472 15.592l.168-.504C212.08 460.92 228.864 464 248 464c16.392 0 30.4-3.168 42.496-8.52l.04.112C291 455.44 337.808 440 376 440c31.656 0 56.488 21.872 62.552 40H49.448c6.064-18.128 30.896-40 62.552-40z"/><g fill="#f9ba48"><path d="M296 272h16v16h-16zM312 296h16v16h-16zM296 320h16v16h-16zM280 352h16v16h-16zM312 352h16v16h-16zM296 384h16v16h-16zM264 400h16v16h-16zM232 416h16v16h-16z"/></g></svg>