<svg viewBox="0 -25 512 512" xmlns="http://www.w3.org/2000/svg"><path d="M413.383 138.992c14.293-3.676 24.851-16.652 24.851-32.09 0-18.3-14.832-33.136-33.132-33.136-2.872 0-5.653.367-8.309 1.05.012-.347.027-.699.027-1.05 0-18.297-14.836-33.133-33.136-33.133a32.97 32.97 0 0 0-18.43 5.597c-4.527-12.906-16.813-22.164-31.27-22.164-10.097 0-19.136 4.524-25.214 11.649C286.395 19.75 272.629 7.5 256.004 7.5c-16.629 0-30.395 12.25-32.77 28.215-6.078-7.125-15.117-11.649-25.214-11.649-14.454 0-26.739 9.258-31.266 22.164a32.992 32.992 0 0 0-18.434-5.597c-18.3 0-33.132 14.836-33.132 33.133 0 .351.015.703.027 1.05a33.314 33.314 0 0 0-8.313-1.05c-18.297 0-33.132 14.836-33.132 33.132 0 15.442 10.558 28.415 24.847 32.094l1.961 39.168H411.43zm0 0" fill="#ffdd5f"/><path d="M405.102 73.766a33.26 33.26 0 0 0-8.309 1.05c.012-.347.027-.699.027-1.05 0-18.301-14.836-33.133-33.136-33.133-3.485 0-6.836.543-9.993 1.543 13.41 4.242 23.13 16.777 23.13 31.59 0 .351-.016.703-.028 1.05a33.306 33.306 0 0 1 8.309-1.05c18.3 0 33.132 14.836 33.132 33.136 0 15.438-10.558 28.414-24.851 32.09l-1.957 39.168h20l1.957-39.168c14.293-3.676 24.851-16.652 24.851-32.09 0-18.3-14.832-33.136-33.132-33.136zm0 0" fill="#ffbc47"/><path d="M341 321.527v-16.87l19.926-149.098 52.457-16.567-8.281 165.664v16.469zM151.078 155.56l52.461-16.567 3.316 66.309 3.313 66.222 1.656 33.137v16.465h-60.746zm0 0" fill="#d4545d"/><path d="M151.078 155.559l7.477 149.101v16.465h-51.653V304.66l-8.285-165.668zM353.45 304.66l7.477-149.101-52.461-16.567-19.13 182.133h64.114zm0 0" fill="#ff6366"/><path d="M256.004 155.559l52.457-16.567-6.625 132.531-1.656 33.137v16.465h-53.844V155.559zm0 0" fill="#d4545d"/><path d="M256 271.523v49.602h-52.46V138.992l52.464 16.567zm0 0" fill="#ff6366"/><path d="M316.27 271.523H195.734c-3.312 0-6-2.683-6-6v-54.265c0-3.313 2.688-6 6-6H316.27c3.312 0 6 2.687 6 6v54.265c0 3.317-2.688 6-6 6zm0 0" fill="#ffdd5f"/><path d="M316.27 205.258h-20c3.312 0 6 2.687 6 6v54.265c0 3.317-2.688 6-6 6h20c3.312 0 6-2.683 6-6v-54.265c0-3.313-2.688-6-6-6zm0 0" fill="#ffbc47"/><path d="M498.5 304.66h-485c-3.313 0-6 2.688-6 6v37.7c0 3.312 2.688 6 6 6h12.848c3.316 0 6 2.687 6 6v76.831c0 9.153 7.418 16.567 16.57 16.567h173.95c9.148 0 16.566-7.414 16.566-16.567V360.36c0-3.312 2.687-6 6-6h21.136c3.313 0 6 2.688 6 6l-.004 76.832c0 9.153 7.418 16.567 16.57 16.567h173.95c9.148 0 16.566-7.414 16.566-16.567V360.36c0-3.312 2.688-6 6-6H498.5c3.313 0 6-2.687 6-6V310.66c0-3.312-2.687-6-6-6zm0 0" fill="#d2dcf1"/><path d="M200.3 337.79H71.485c-3.312 0-6 2.687-6 6v70.839c0 3.316 2.688 6 6 6h128.817c3.312 0 6-2.684 6-6v-70.84c0-3.312-2.688-6-6-6zm0 0" fill="#ff6366"/><path d="M440.516 337.79H311.699c-3.312 0-6 2.687-6 6v70.839c0 3.316 2.688 6 6 6h128.817c3.312 0 6-2.684 6-6v-70.84c0-3.312-2.688-6-6-6zm0 0" fill="#6ba9de"/><path d="M219.434 360.36v76.831c0 9.149-7.418 16.567-16.567 16.567h20c9.149 0 16.567-7.418 16.567-16.567V360.36c0-3.312 2.687-6 6-6h-20c-3.313 0-6 2.688-6 6zm279.066-55.7h-20c3.313 0 6 2.688 6 6v37.7c0 3.312-2.688 6-6 6h-12.848c-3.316 0-6 2.687-6 6v76.831c0 9.149-7.418 16.567-16.57 16.567h20c9.152 0 16.57-7.418 16.57-16.567V360.36c0-3.312 2.684-6 6-6H498.5c3.313 0 6-2.687 6-6V310.66c0-3.312-2.688-6-6-6zm0 0" fill="#b5c3eb"/><path d="M200.3 337.79h-20c3.313 0 6 2.687 6 6v70.839c0 3.316-2.687 6-6 6h20c3.313 0 6-2.684 6-6v-70.84c0-3.312-2.687-6-6-6zm0 0" fill="#d4545d"/><path d="M440.516 337.79h-20c3.312 0 6 2.687 6 6v70.839c0 3.316-2.688 6-6 6h20c3.312 0 6-2.684 6-6v-70.84c0-3.312-2.688-6-6-6zm0 0" fill="#5e92d1"/><path d="M504.5 297.16h-42.984c-4.141 0-7.5 3.36-7.5 7.5s3.359 7.5 7.5 7.5H497v34.7h-9.848v-1.856a7.5 7.5 0 1 0-15 0v9.297c0 .02-.004.039-.004.058s.004.036.004.055v82.777c0 5-4.066 9.067-9.066 9.067H289.133c-5 0-9.067-4.067-9.067-9.067l.004-82.832c0-1.988-.793-3.898-2.199-5.304s-3.312-2.196-5.3-2.196h-33.137c-4.141 0-7.5 3.36-7.5 7.5v82.832c0 5-4.067 9.067-9.067 9.067H48.918c-5 0-9.066-4.067-9.066-9.067v-82.777-.055-9.355a7.5 7.5 0 1 0-15 0v1.855H15V312.16h416.516a7.5 7.5 0 1 0 0-15h-18.532l7.637-152.7c15.027-6.19 25.113-20.92 25.113-37.558 0-22.406-18.226-40.636-40.632-40.636-.493 0-.98.011-1.473.027-3.52-18.852-20.09-33.16-39.945-33.16-5.196 0-10.282.98-15.032 2.87-7.273-11.886-20.343-19.437-34.668-19.437a40.538 40.538 0 0 0-21.523 6.172C285.754 9.207 271.715 0 256.004 0c-15.715 0-29.754 9.207-36.461 22.738a40.538 40.538 0 0 0-21.523-6.172c-14.325 0-27.391 7.551-34.668 19.438a40.588 40.588 0 0 0-15.032-2.871c-19.855 0-36.43 14.312-39.945 33.16-.488-.02-.98-.027-1.473-.027-22.406 0-40.632 18.23-40.632 40.636 0 16.637 10.085 31.368 25.113 37.559l7.637 152.7H7.5a7.5 7.5 0 0 0-7.5 7.5v49.698a7.5 7.5 0 0 0 7.5 7.5h17.352v75.332c0 13.27 10.796 24.067 24.066 24.067h173.95c13.269 0 24.066-10.797 24.066-24.067V361.86h18.132v75.332c0 13.27 10.797 24.067 24.067 24.067h173.949c13.27 0 24.066-10.797 24.066-24.067V361.86H504.5a7.5 7.5 0 0 0 7.5-7.5V304.66a7.5 7.5 0 0 0-7.5-7.5zM158.86 160.97l37.675-11.899 2.438 48.692h-9.239a7.497 7.497 0 0 0-7.5 7.5v66.265a7.5 7.5 0 0 0 7.5 7.5h13.301l.906 18.133h-38.254zM346.315 297.16h-38.253l.906-18.137h13.3a7.5 7.5 0 0 0 7.5-7.5v-66.265c0-4.14-3.359-7.5-7.5-7.5h-9.238l2.434-48.692 37.68 11.899zm-140.234-84.402a7.144 7.144 0 0 0 1.148.031c.106-.004.208-.02.31-.031h107.23v51.265H197.234v-51.265zm42.418 66.265v18.137h-29.543l-.906-18.137zm15 0h30.45l-.903 18.137H263.5zm34.512-81.265h-34.508v-36.703l36.93-11.66zm-49.508 0h-34.516l-2.418-48.367 36.934 11.664zm112.832 99.402l6.816-136.02 37.203-11.745-7.39 147.765zM81.266 106.902c0-14.136 11.5-25.636 25.636-25.636 2.18 0 4.344.273 6.434.812a7.495 7.495 0 0 0 6.559-1.402 7.487 7.487 0 0 0 2.812-6.086l-.008-.278c-.008-.18-.015-.363-.015-.542 0-14.137 11.5-25.637 25.636-25.637a25.501 25.501 0 0 1 14.254 4.328 7.51 7.51 0 0 0 6.547.887 7.506 7.506 0 0 0 4.707-4.633c3.598-10.258 13.32-17.149 24.192-17.149a25.612 25.612 0 0 1 19.507 9.016 7.5 7.5 0 0 0 13.125-3.762C232.504 24.383 243.402 15 256.004 15c12.598 0 23.496 9.383 25.348 21.82a7.51 7.51 0 0 0 5.351 6.106 7.502 7.502 0 0 0 7.774-2.344c4.886-5.73 12-9.016 19.507-9.016 10.871 0 20.594 6.891 24.192 17.149a7.502 7.502 0 0 0 11.254 3.746 25.492 25.492 0 0 1 14.254-4.328c14.136 0 25.636 11.5 25.636 25.633 0 .183-.008.363-.015.546l-.008.274a7.494 7.494 0 0 0 2.812 6.09 7.512 7.512 0 0 0 6.563 1.402c2.086-.539 4.25-.812 6.433-.812 14.133 0 25.633 11.5 25.633 25.632 0 11.707-7.902 21.918-19.222 24.829-.082.02-.16.05-.239.074-.05.015-.101.023-.148.039l-50.203 15.851-50.2-15.851a3.573 3.573 0 0 0-.273-.078c-.098-.028-.2-.047-.297-.07-.008-.005-.011-.005-.02-.005-.062-.015-.12-.035-.183-.046-.082-.016-.164-.028-.246-.043l-.254-.036a.435.435 0 0 0-.066-.007c-.059-.008-.114-.02-.168-.028-.09-.007-.18-.007-.274-.015-.035 0-.07-.008-.105-.012-.05 0-.094.004-.14 0h-.009c-.074 0-.144-.008-.214-.008-.086 0-.168.004-.254.008a8.376 8.376 0 0 0-.493.027c-.062.004-.125.02-.187.028-.148.015-.29.035-.434.062-.039.008-.078.016-.113.02-.043.008-.082.02-.121.027a7.43 7.43 0 0 0-.527.133l-.02.008c-.035.007-.066.02-.101.03-.008 0-.016 0-.024.005l-.156.05c-.059.02-.121.036-.18.055l-49.863 15.746L205.8 131.84a.288.288 0 0 1-.055-.016c-.055-.015-.105-.031-.16-.047a7.114 7.114 0 0 0-.414-.101 7.986 7.986 0 0 1-.145-.035l-.195-.036a4.965 4.965 0 0 0-.348-.046c-.007-.004-.011-.004-.02-.004-.058-.008-.116-.02-.175-.028-.074-.007-.152-.007-.23-.011-.094-.008-.188-.012-.278-.016h-.015c-.07-.004-.145-.012-.215-.012-.09 0-.176.008-.266.012-.039 0-.078-.004-.12 0-.044.004-.087.012-.13.012-.074.008-.152.008-.226.015-.086.008-.172.024-.258.035-.09.012-.184.024-.278.04l-.203.035a4.62 4.62 0 0 0-.222.054c-.106.024-.211.047-.317.079-.062.015-.125.03-.183.05-.024.008-.047.012-.07.02l-50.2 15.851-50.203-15.851c-.05-.016-.102-.024-.152-.04-.082-.023-.157-.054-.239-.073-11.312-2.91-19.218-13.122-19.218-24.825zm25.382 42.493l37.2 11.746 6.82 136.02h-36.633zm0 0"/><path d="M206.3 330.29H65.485a7.5 7.5 0 0 0-7.5 7.5v82.839c0 4.144 3.356 7.5 7.5 7.5h140.817a7.5 7.5 0 0 0 7.5-7.5v-82.84c0-4.14-3.36-7.5-7.5-7.5zm-7.5 82.839H72.985v-67.84h125.817zm99.4-75.34v82.84a7.5 7.5 0 0 0 7.5 7.5h140.816a7.5 7.5 0 0 0 7.5-7.5v-82.84c0-4.14-3.36-7.5-7.5-7.5H305.699c-4.14 0-7.5 3.36-7.5 7.5zm15 7.5h125.816v67.84H313.199zM155.32 124.926c4.086.605 7.914-2.215 8.524-6.313 1.851-12.441 12.75-21.82 25.347-21.82 12.602 0 23.5 9.383 25.352 21.82a7.503 7.503 0 0 0 8.523 6.313 7.5 7.5 0 0 0 6.313-8.524c-2.402-16.144-14.41-29.035-29.637-33.191 4.172-8.688 13.102-14.633 23.125-14.633 12.602 0 23.5 9.379 25.352 21.817a7.503 7.503 0 0 0 8.52 6.316 7.502 7.502 0 0 0 6.316-8.524c-2.938-19.73-20.215-34.609-40.188-34.609-17.867 0-33.57 11.91-38.785 28.55-17.742 2.282-32.394 16.25-35.078 34.274a7.502 7.502 0 0 0 6.316 8.524zm166.207-14.106c4.086.606 7.914-2.218 8.524-6.316 1.851-12.438 12.75-21.817 25.351-21.817 12.602 0 23.496 9.38 25.352 21.817a7.5 7.5 0 0 0 8.52 6.316 7.496 7.496 0 0 0 6.312-8.523c-2.934-19.73-20.211-34.61-40.188-34.61-19.972 0-37.25 14.88-40.183 34.61a7.496 7.496 0 0 0 6.312 8.523zm0 0"/></svg>