<svg viewBox="0 -25 512 512" xmlns="http://www.w3.org/2000/svg"><path d="m413.382812 138.992188c14.292969-3.675782 24.851563-16.652344 24.851563-32.089844 0-18.300782-14.832031-33.136719-33.132813-33.136719-2.871093 0-5.652343.367187-8.308593 1.050781.011719-.347656.027343-.699218.027343-1.050781 0-18.296875-14.835937-33.132813-33.136718-33.132813-6.820313 0-13.160156 2.0625-18.429688 5.597657-4.527344-12.90625-16.8125-22.164063-31.269531-22.164063-10.097656 0-19.136719 4.523438-25.214844 11.648438-2.375-15.964844-16.140625-28.214844-32.765625-28.214844-16.628906 0-30.394531 12.25-32.769531 28.214844-6.078125-7.125-15.117187-11.648438-25.214844-11.648438-14.453125 0-26.738281 9.257813-31.265625 22.164063-5.273437-3.535157-11.613281-5.597657-18.433594-5.597657-18.300781 0-33.132812 14.835938-33.132812 33.132813 0 .351563.015625.703125.027344 1.050781-2.65625-.683594-5.441406-1.050781-8.3125-1.050781-18.296875 0-33.132813 14.835937-33.132813 33.132813 0 15.441406 10.558594 28.414062 24.847657 32.09375l1.960937 39.167968h310.851563zm0 0" fill="#ffdd5f"/><path d="m405.101562 73.765625c-2.871093 0-5.65625.367187-8.308593 1.050781.011719-.347656.027343-.699218.027343-1.050781 0-18.300781-14.835937-33.132813-33.136718-33.132813-3.484375 0-6.835938.542969-9.992188 1.542969 13.410156 4.242188 23.128906 16.777344 23.128906 31.589844 0 .351563-.015624.703125-.027343 1.050781 2.65625-.683594 5.441406-1.050781 8.308593-1.050781 18.300782 0 33.132813 14.835937 33.132813 33.136719 0 15.4375-10.558594 28.414062-24.851563 32.089844l-1.957031 39.167968h20l1.957031-39.167968c14.292969-3.675782 24.851563-16.652344 24.851563-32.089844 0-18.300782-14.832031-33.136719-33.132813-33.136719zm0 0" fill="#ffbc47"/><path d="m341 321.527344v-16.871094l19.925781-149.097656 52.457031-16.566406-8.28125 165.664062v16.46875zm0 0" fill="#d4545d"/><path d="m151.078125 155.558594 52.460937-16.566406 3.316407 66.308593 3.3125 66.222657 1.65625 33.136718v16.464844h-60.746094zm0 0" fill="#d4545d"/><path d="m151.078125 155.558594 7.476563 149.101562v16.464844h-51.652344v-16.464844l-8.285156-165.667968zm0 0" fill="#ff6366"/><path d="m353.449219 304.660156 7.476562-149.101562-52.460937-16.566406-19.128906 182.132812h64.113281zm0 0" fill="#ff6366"/><path d="m256.003906 155.558594 52.457032-16.566406-6.625 132.53125-1.65625 33.136718v16.464844h-53.84375v-165.566406zm0 0" fill="#d4545d"/><path d="m256 271.523438v49.601562h-52.460938v-182.132812l52.464844 16.566406zm0 0" fill="#ff6366"/><path d="m316.269531 271.523438h-120.535156c-3.3125 0-6-2.683594-6-6v-54.265626c0-3.3125 2.6875-6 6-6h120.535156c3.3125 0 6 2.6875 6 6v54.265626c0 3.316406-2.6875 6-6 6zm0 0" fill="#ffdd5f"/><path d="m316.269531 205.257812h-20c3.3125 0 6 2.6875 6 6v54.265626c0 3.316406-2.6875 6-6 6h20c3.3125 0 6-2.683594 6-6v-54.265626c0-3.3125-2.6875-6-6-6zm0 0" fill="#ffbc47"/><path d="m498.5 304.660156h-485c-3.3125 0-6 2.6875-6 6v37.699219c0 3.3125 2.6875 6 6 6h12.847656c3.316406 0 6 2.6875 6 6v76.832031c0 9.152344 7.417969 16.566406 16.570313 16.566406h173.949219c9.148437 0 16.566406-7.414062 16.566406-16.566406v-76.832031c0-3.3125 2.6875-6 6-6h21.136718c3.3125 0 6 2.6875 6 6l-.003906 76.832031c0 9.152344 7.417969 16.566406 16.570313 16.566406h173.949219c9.148437 0 16.566406-7.414062 16.566406-16.566406v-76.832031c0-3.3125 2.6875-6 6-6h12.847656c3.3125 0 6-2.6875 6-6v-37.699219c0-3.3125-2.6875-6-6-6zm0 0" fill="#d2dcf1"/><path d="m200.300781 337.789062h-128.816406c-3.3125 0-6 2.6875-6 6v70.839844c0 3.316406 2.6875 6 6 6h128.816406c3.3125 0 6-2.683594 6-6v-70.839844c0-3.3125-2.6875-6-6-6zm0 0" fill="#ff6366"/><path d="m440.515625 337.789062h-128.816406c-3.3125 0-6 2.6875-6 6v70.839844c0 3.316406 2.6875 6 6 6h128.816406c3.3125 0 6-2.683594 6-6v-70.839844c0-3.3125-2.6875-6-6-6zm0 0" fill="#6ba9de"/><path d="m219.433594 360.359375v76.832031c0 9.148438-7.417969 16.566406-16.566406 16.566406h20c9.148437 0 16.566406-7.417968 16.566406-16.566406v-76.832031c0-3.3125 2.6875-6 6-6h-20c-3.3125 0-6 2.6875-6 6zm0 0" fill="#b5c3eb"/><path d="m498.5 304.660156h-20c3.3125 0 6 2.6875 6 6v37.699219c0 3.3125-2.6875 6-6 6h-12.847656c-3.316406 0-6 2.6875-6 6v76.832031c0 9.148438-7.417969 16.566406-16.570313 16.566406h20c9.152344 0 16.570313-7.417968 16.570313-16.566406v-76.832031c0-3.3125 2.683594-6 6-6h12.847656c3.3125 0 6-2.6875 6-6v-37.699219c0-3.3125-2.6875-6-6-6zm0 0" fill="#b5c3eb"/><path d="m200.300781 337.789062h-20c3.3125 0 6 2.6875 6 6v70.839844c0 3.316406-2.6875 6-6 6h20c3.3125 0 6-2.683594 6-6v-70.839844c0-3.3125-2.6875-6-6-6zm0 0" fill="#d4545d"/><path d="m440.515625 337.789062h-20c3.3125 0 6 2.6875 6 6v70.839844c0 3.316406-2.6875 6-6 6h20c3.3125 0 6-2.683594 6-6v-70.839844c0-3.3125-2.6875-6-6-6zm0 0" fill="#5e92d1"/><path d="m504.5 297.160156h-42.984375c-4.140625 0-7.5 3.359375-7.5 7.5s3.359375 7.5 7.5 7.5h35.484375v34.699219h-9.847656v-1.855469c0-4.140625-3.359375-7.5-7.5-7.5-4.144532 0-7.5 3.359375-7.5 7.5v9.296875c0 .019531-.003906.039063-.003906.058594s.003906.035156.003906.054687v82.777344c0 5-4.066406 9.066406-9.066406 9.066406h-173.953126c-5 0-9.066406-4.066406-9.066406-9.066406l.003906-82.832031c0-1.988281-.792968-3.898437-2.199218-5.304687s-3.3125-2.195313-5.300782-2.195313h-33.136718c-4.140625 0-7.5 3.359375-7.5 7.5v82.832031c0 5-4.066406 9.066406-9.066406 9.066406h-173.949219c-5 0-9.066407-4.066406-9.066407-9.066406v-82.777344c0-.019531 0-.035156 0-.054687s0-.039063 0-.058594v-9.296875c0-4.140625-3.359374-7.5-7.5-7.5-4.144531 0-7.5 3.359375-7.5 7.5v1.855469h-9.851562v-34.699219h416.515625c4.144531 0 7.5-3.359375 7.5-7.5s-3.355469-7.5-7.5-7.5h-18.53125l7.636719-152.699218c15.027344-6.191407 25.113281-20.921876 25.113281-37.558594 0-22.40625-18.226563-40.636719-40.632813-40.636719-.492187 0-.980468.011719-1.472656.027344-3.519531-18.851563-20.089844-33.160157-39.945312-33.160157-5.195313 0-10.28125.980469-15.03125 2.871094-7.273438-11.886718-20.34375-19.4375-34.667969-19.4375-7.703125 0-15.136719 2.175782-21.523437 6.171875-6.707032-13.53125-20.746094-22.738281-36.457032-22.738281-15.714844 0-29.753906 9.207031-36.460937 22.738281-6.386719-3.996093-13.820313-6.171875-21.523438-6.171875-14.324219 0-27.390625 7.550782-34.667969 19.4375-4.75-1.890625-9.835937-2.871094-15.03125-2.871094-19.855468 0-36.429687 14.3125-39.945312 33.160157-.488281-.019531-.980469-.027344-1.472656-.027344-22.40625 0-40.632813 18.230469-40.632813 40.636719 0 16.636718 10.085938 31.367187 25.113281 37.558594l7.636719 152.699218h-91.519531c-4.144531 0-7.5 3.359375-7.5 7.5v49.699219c0 4.140625 3.355469 7.5 7.5 7.5h17.351562v75.332031c0 13.269532 10.796876 24.066406 24.066407 24.066406h173.949219c13.269531 0 24.066406-10.796874 24.066406-24.066406v-75.332031h18.132812v75.332031c0 13.269532 10.796875 24.066406 24.066406 24.066406h173.949219c13.269531 0 24.066407-10.796874 24.066407-24.066406v-75.332031h17.351562c4.144531 0 7.5-3.359375 7.5-7.5v-49.699219c0-4.140625-3.355469-7.5-7.5-7.5zm-345.640625-136.191406 37.675781-11.898438 2.4375 48.691407h-9.238281c-4.144531 0-7.5 3.355469-7.5 7.5v66.265625c0 4.140625 3.355469 7.5 7.5 7.5h13.300781l.90625 18.132812h-38.253906zm187.457031 136.191406h-38.253906l.90625-18.136718h13.300781c4.140625 0 7.5-3.355469 7.5-7.5v-66.265626c0-4.140624-3.359375-7.5-7.5-7.5h-9.238281l2.433594-48.691406 37.679687 11.898438zm-140.234375-84.402344c.253907.027344.507813.042969.769531.042969.125 0 .25-.003906.378907-.011719.105469-.003906.207031-.019531.308593-.03125h107.230469v51.265626h-117.535156v-51.265626zm42.417969 66.265626v18.136718h-29.542969l-.90625-18.136718zm15 0h30.449219l-.902344 18.136718h-29.546875zm34.511719-81.265626h-34.507813v-36.703124l36.929688-11.660157zm-49.507813 0h-34.515625l-2.417969-48.367187 36.933594 11.664063zm112.832032 99.402344 6.816406-136.019531 37.203125-11.746094-7.390625 147.765625zm-280.070313-190.257812c0-14.136719 11.5-25.636719 25.636719-25.636719 2.179687 0 4.34375.273437 6.433594.8125 2.28125.589844 4.714843.074219 6.558593-1.402344 1.84375-1.472656 2.886719-3.726562 2.8125-6.085937l-.007812-.277344c-.007813-.179688-.015625-.363281-.015625-.542969 0-14.136719 11.5-25.636719 25.636718-25.636719 5.101563 0 10.03125 1.496094 14.253907 4.328126 1.929687 1.292968 4.347656 1.617187 6.546875.886718 2.199218-.734375 3.941406-2.445312 4.707031-4.632812 3.597656-10.257813 13.320313-17.148438 24.191406-17.148438 7.507813 0 14.621094 3.285156 19.507813 9.015625 1.90625 2.238281 4.945312 3.152344 7.773437 2.34375 2.824219-.8125 4.917969-3.199219 5.351563-6.105469 1.851562-12.4375 12.75-21.820312 25.351562-21.820312 12.597656 0 23.496094 9.382812 25.347656 21.820312.433594 2.90625 2.527344 5.292969 5.351563 6.105469 2.824219.808594 5.867187-.105469 7.773437-2.34375 4.886719-5.730469 12-9.015625 19.507813-9.015625 10.871094 0 20.59375 6.890625 24.191406 17.148438.769531 2.1875 2.507813 3.898437 4.710938 4.632812 2.195312.730469 4.617187.40625 6.542969-.886718 4.222656-2.832032 9.148437-4.328126 14.253906-4.328126 14.136718 0 25.636718 11.5 25.636718 25.632813 0 .183594-.007812.363281-.015624.546875l-.007813.273438c-.074219 2.359374.96875 4.617187 2.8125 6.089843 1.84375 1.472657 4.277344 1.992188 6.5625 1.402344 2.085937-.539063 4.25-.8125 6.433594-.8125 14.132812 0 25.632812 11.5 25.632812 25.632813 0 11.707031-7.902343 21.917968-19.222656 24.828124-.082031.019532-.160156.050782-.238281.074219-.050782.015625-.101563.023438-.148438.039063l-50.203125 15.851562-50.199219-15.851562c-.019531-.003906-.035156-.007813-.054687-.015625-.070313-.023438-.144531-.042969-.21875-.0625-.097656-.027344-.199219-.046875-.296875-.070313-.007812-.003906-.011719-.003906-.019531-.003906-.0625-.015625-.121094-.035156-.183594-.046875-.082031-.015625-.164063-.027344-.246094-.042969-.085937-.011718-.167969-.023437-.253906-.035156-.023437-.003906-.046875-.007812-.066406-.007812-.058594-.007813-.113281-.019532-.167969-.027344-.089844-.007813-.179688-.007813-.273438-.015625-.035156 0-.070312-.007813-.105468-.011719-.050782 0-.09375.003906-.140625 0-.003907 0-.003907 0-.007813 0-.074218 0-.144531-.007812-.214844-.007812-.085937 0-.167968.003906-.253906.007812-.109375.003906-.214844.007812-.320312.015625-.054688.003906-.113282.007813-.171875.011719-.0625.003906-.125.019531-.1875.027344-.148438.015624-.289063.035156-.433594.0625-.039063.007812-.078125.015624-.113281.019531-.042969.007812-.082032.019531-.121094.027343-.179688.039063-.355469.082032-.527344.132813-.007812.003906-.011718.003906-.019531.007813-.035156.007812-.066406.019531-.101563.03125-.007812 0-.015624 0-.023437.003906l-.15625.050781c-.058594.019531-.121094.035156-.179687.054687l-49.863282 15.746094-50.203125-15.851562c-.019531-.003906-.035156-.007813-.054687-.015625-.054688-.015625-.105469-.03125-.160156-.046875-.136719-.039063-.273438-.070313-.414063-.101563-.050781-.011719-.097656-.023437-.144531-.035156-.066406-.011719-.128906-.023437-.195313-.035156-.113281-.019531-.230469-.035157-.347656-.046875-.007813-.003906-.011719-.003906-.019531-.003906-.058594-.007813-.117188-.019532-.175782-.027344-.074218-.007813-.152343-.007813-.230468-.011719-.09375-.007813-.1875-.011719-.277344-.015625-.007812 0-.011719 0-.015625 0-.070313-.003906-.144531-.011719-.214844-.011719-.089843 0-.175781.007813-.265625.011719-.039062 0-.078125-.003906-.121094 0-.042968.003906-.085937.011719-.128906.011719-.074218.007812-.152344.007812-.226562.015625-.085938.007812-.171875.023437-.257813.035156-.089843.011719-.183593.023438-.277343.039062-.066407.011719-.136719.023438-.203126.035157-.074218.015625-.148437.035156-.222656.054687-.105468.023438-.210937.046875-.316406.078125-.0625.015625-.125.03125-.183594.050781-.023437.007813-.046875.011719-.070312.019532l-50.199219 15.851562-50.203125-15.851562c-.050781-.015625-.101562-.023438-.152344-.039063-.082031-.023437-.15625-.054687-.238281-.074219-11.3125-2.910156-19.21875-13.121093-19.21875-24.824218zm25.382813 42.492187 37.199218 11.746094 6.820313 136.019531h-36.632813zm0 0"/><path d="m206.300781 330.289062h-140.816406c-4.144531 0-7.5 3.359376-7.5 7.5v82.839844c0 4.144532 3.355469 7.5 7.5 7.5h140.816406c4.140625 0 7.5-3.355468 7.5-7.5v-82.839844c0-4.140624-3.359375-7.5-7.5-7.5zm-7.5 82.839844h-125.816406v-67.839844h125.816406zm0 0"/><path d="m298.199219 337.789062v82.839844c0 4.144532 3.359375 7.5 7.5 7.5h140.816406c4.140625 0 7.5-3.355468 7.5-7.5v-82.839844c0-4.140624-3.359375-7.5-7.5-7.5h-140.816406c-4.140625 0-7.5 3.359376-7.5 7.5zm15 7.5h125.816406v67.839844h-125.816406zm0 0"/><path d="m155.320312 124.925781c4.085938.605469 7.914063-2.214843 8.523438-6.3125 1.851562-12.441406 12.75-21.820312 25.347656-21.820312 12.601563 0 23.5 9.382812 25.351563 21.820312.554687 3.722657 3.757812 6.394531 7.410156 6.394531.367187 0 .738281-.027343 1.113281-.082031 4.097656-.609375 6.921875-4.425781 6.3125-8.523437-2.402344-16.144532-14.410156-29.035156-29.636718-33.191406 4.171874-8.6875 13.101562-14.632813 23.125-14.632813 12.601562 0 23.5 9.378906 25.351562 21.816406.609375 4.097657 4.425781 6.921875 8.519531 6.316407 4.097657-.609376 6.925781-4.425782 6.316407-8.523438-2.9375-19.730469-20.214844-34.609375-40.1875-34.609375-17.867188 0-33.570313 11.910156-38.785157 28.550781-17.742187 2.28125-32.394531 16.25-35.078125 34.273438-.609375 4.097656 2.21875 7.914062 6.316406 8.523437zm0 0"/><path d="m321.527344 110.820312c4.085937.605469 7.914062-2.21875 8.523437-6.316406 1.851563-12.4375 12.75-21.816406 25.351563-21.816406 12.601562 0 23.496094 9.378906 25.351562 21.816406.550782 3.722656 3.753906 6.398438 7.40625 6.398438.367188 0 .738282-.027344 1.113282-.082032 4.097656-.609374 6.925781-4.425781 6.3125-8.523437-2.933594-19.730469-20.210938-34.609375-40.1875-34.609375-19.972657 0-37.25 14.878906-40.183594 34.609375-.613282 4.097656 2.214844 7.914063 6.3125 8.523437zm0 0"/></svg>