<svg xmlns="http://www.w3.org/2000/svg" viewBox="0 0 512 512"><path fill="#9bf" d="M251.67 388H300v66h-48.33z"/><path fill="#6a80ff" d="M326.176 454h-67.079c-23.099 0-41.824 18.725-41.824 41.824V502H368v-6.176C368 472.725 349.275 454 326.176 454z"/><path fill="#fff" d="M462 10H50c-22.091 0-40 17.909-40 40v298c0 22.091 17.909 40 40 40h412c22.091 0 40-17.909 40-40V50c0-22.091-17.909-40-40-40z"/><path fill="#fe8f8d" d="M119.182 72.919C98.909 80.017 84.364 99.304 84.364 122s14.545 41.983 34.818 49.081C139.455 163.983 154 144.696 154 122s-14.545-41.983-34.818-49.081z"/><path fill="#6a80ff" d="M139.031 154.926c0-7.788-5.551-14.469-13.206-15.897l-9.419-1.757-28.85.007-9.384 1.75c-7.656 1.428-13.206 8.109-13.206 15.897v3.566C74.397 168.062 87.503 174 102 174c14.496 0 27.6-5.937 37.031-15.504v-3.57z"/><path fill="#ffdfe0" d="M101.998 97.406c-9.739 0-17.634 7.895-17.634 17.634v11.475c0 9.739 7.895 17.634 17.634 17.634s17.634-7.895 17.634-17.634V115.04c.001-9.739-7.894-17.634-17.634-17.634z"/><path fill="#d8fb93" d="M257.018 175.773c-22.585 8.611-38.636 30.46-38.636 56.07s16.051 47.459 38.636 56.07c22.585-8.611 38.636-30.46 38.636-56.07s-16.05-47.459-38.636-56.07z"/><path fill="#6a80ff" d="M278.382 269.834c0-8.986-6.405-16.695-15.238-18.343l-10.868-2.027-33.289.008-10.827 2.019c-8.833 1.647-15.238 9.357-15.238 18.343v4.115c10.881 11.042 26.004 17.893 42.731 17.893 16.725 0 31.846-6.85 42.728-17.889v-4.119h.001z"/><path fill="#ffdfe0" d="M235.653 203.465c-11.238 0-20.347 9.11-20.347 20.347v13.241c0 11.238 9.11 20.347 20.347 20.347 11.238 0 20.347-9.11 20.347-20.347v-13.241c0-11.237-9.11-20.347-20.347-20.347z"/><path fill="#ffb954" d="M413.791 54.042c-28.07 9.827-48.209 36.533-48.209 67.958s20.139 58.131 48.209 67.958C441.86 180.131 462 153.425 462 122s-20.14-58.131-48.209-67.958z"/><path fill="#6a80ff" d="M441.273 172.533v-4.943c0-10.783-7.685-20.034-18.285-22.011l-13.004-2.425-8.89.002-12.993 2.423c-10.6 1.977-18.285 11.228-18.285 22.011v4.938c9.583 9.725 21.915 16.725 35.731 19.77 13.813-3.045 26.143-10.043 35.726-19.765z"/><path fill="#fff" d="M387.581 128.252v-15.889c0-9.526 5.459-17.773 13.417-21.797-3.307-1.672-7.042-2.62-11-2.62-13.485 0-24.417 10.932-24.417 24.417v15.889c0 13.485 10.932 24.417 24.417 24.417 3.958 0 7.693-.948 11-2.62-7.958-4.024-13.417-12.27-13.417-21.797z"/><path fill="#ffdfe0" d="M414.415 128.252v-15.889c0-9.526-5.459-17.773-13.417-21.797-7.958 4.024-13.417 12.271-13.417 21.797v15.889c0 9.527 5.459 17.773 13.417 21.797 7.957-4.024 13.417-12.27 13.417-21.797z"/><path fill="#6a80ff" d="M502 348v-20H119.581v20c0 22.091 17.909 40 40 40H462c22.091 0 40-17.909 40-40z"/><path d="M462 0H50C22.43 0 0 22.43 0 50v298c0 27.57 22.43 50 50 50h152v46h-16.176C157.248 444 134 467.248 134 495.824V502c0 5.522 4.478 10 10 10h224c5.522 0 10-4.478 10-10v-6.176C378 467.248 354.752 444 326.176 444H310v-46h152c27.57 0 50-22.43 50-50V50c0-27.57-22.43-50-50-50zM50 20h412c16.542 0 30 13.458 30 30v268H20V50c0-16.542 13.458-30 30-30zm307.771 472H154.229c1.895-15.752 15.342-28 31.596-28h140.351c16.254 0 29.701 12.248 31.595 28zM290 444h-68v-46h68v46zm202-96c0 16.542-13.458 30-30 30H50c-16.542 0-30-13.458-30-30v-10h472v10z"/><path d="M91.998 183.182v55.368c0 5.522 4.478 10 10 10s10-4.478 10-10v-55.367c11.721-1.909 22.342-7.117 30.89-14.635l32.905 27.043c-6.432 10.581-10.139 22.992-10.139 36.253 0 38.598 31.402 70 70 70s70-31.402 70-70c0-11.53-2.82-22.407-7.778-32.007l31.648-22.523c12.878 14.069 30.591 23.626 50.476 26.056v35.181c0 5.522 4.478 10 10 10s10-4.478 10-10V203.37c40.512-4.951 72-39.541 72-81.368 0-18.824-6.392-36.173-17.097-50.029l14.534-14.533c3.905-3.905 3.905-10.237 0-14.143-3.904-3.902-10.234-3.904-14.143 0l-14.447 14.446C426.86 46.649 409.197 40 390 40c-41.828 0-76.417 31.488-81.368 72h-30.25c-5.522 0-10 4.478-10 10s4.478 10 10 10h30.25c1.271 10.398 4.472 20.208 9.271 29.036l-31.643 22.519c-12.756-13.362-30.718-21.712-50.605-21.712-18.145 0-34.698 6.943-47.148 18.308l-32.908-27.045C160.929 143.954 164 133.332 164 122c0-13.491-4.345-25.979-11.69-36.167l27.305-27.305c3.905-3.905 3.905-10.237 0-14.143-3.906-3.904-10.236-3.904-14.143 0L138.167 71.69C127.979 64.345 115.491 60 102 60c-34.187 0-62 27.813-62 62 0 30.781 22.552 56.384 51.998 61.182zm312.417-54.929c0 7.949-6.468 14.416-14.417 14.416s-14.417-6.467-14.417-14.416v-15.889c0-7.949 6.468-14.417 14.417-14.417s14.417 6.468 14.417 14.417v15.889zm-37.362 25.624c6.094 5.462 14.136 8.792 22.945 8.792 8.808 0 16.851-3.33 22.945-8.792l8.212 1.532c5.863 1.094 10.118 6.216 10.118 12.181v.624C420.303 178.022 405.839 184 390 184c-15.841 0-30.306-5.979-41.277-15.79v-.621c0-5.965 4.255-11.087 10.119-12.181l8.211-1.531zM390 60c34.187 0 62 27.813 62 62 0 9.807-2.298 19.084-6.37 27.335-4.724-6.917-12.083-11.96-20.808-13.586l-1.188-.222c.507-2.346.781-4.779.781-7.274v-15.889c0-18.978-15.439-34.417-34.417-34.417s-34.417 15.439-34.417 34.417v15.889c0 2.496.274 4.928.781 7.275l-1.187.221c-8.724 1.626-16.082 6.668-20.807 13.583C330.297 141.081 328 131.806 328 122c0-34.187 27.813-62 62-62zm-280.367 66.516c0 4.21-3.425 7.635-7.635 7.635-4.209 0-7.634-3.425-7.634-7.635v-11.475c0-4.21 3.425-7.635 7.634-7.635 4.21 0 7.635 3.425 7.635 7.635v11.475zm-29.628 22.343l4.633-.864c4.748 3.845 10.788 6.155 17.36 6.155s12.612-2.31 17.361-6.155l4.632.864c2.667.498 4.646 2.674 4.972 5.311-7.301 6.129-16.706 9.83-26.963 9.83-10.259 0-19.665-3.702-26.967-9.833.327-2.635 2.306-4.81 4.972-5.308zm122.928 120.742c.109-4.067 3.041-7.53 7.061-8.279l6.056-1.129c5.292 4.49 12.134 7.207 19.602 7.207s14.311-2.717 19.603-7.208l6.055 1.128c4.022.75 6.954 4.215 7.061 8.283-8.776 7.614-20.213 12.238-32.717 12.238-12.505.002-23.944-4.624-32.721-12.24zM246 237.053c0 5.706-4.642 10.348-10.348 10.348-5.705 0-10.347-4.642-10.347-10.348v-13.24c0-5.706 4.642-10.348 10.347-10.348 5.706 0 10.348 4.642 10.348 10.348v13.24zm-10.346-55.21c27.57 0 50 22.43 50 50 0 6.939-1.424 13.552-3.99 19.564-4.015-4.781-9.587-8.253-16.038-9.61.244-1.546.373-3.13.373-4.744v-13.24c0-16.733-13.614-30.348-30.348-30.348s-30.347 13.614-30.347 30.348v13.24c0 1.614.13 3.198.374 4.744-6.45 1.356-12.022 4.827-16.037 9.606-2.565-6.011-3.988-12.623-3.988-19.561.001-27.57 22.431-49.999 50.001-49.999zM102 80c23.159 0 42 18.841 42 42 0 5.089-.911 9.969-2.577 14.487-3.229-3.253-7.328-5.663-11.969-6.87.115-1.019.179-2.053.179-3.102V115.04c0-15.238-12.396-27.635-27.635-27.635-15.237 0-27.634 12.396-27.634 27.635v11.475c0 1.049.064 2.083.179 3.102-4.64 1.207-8.739 3.615-11.967 6.867C60.911 131.968 60 127.088 60 122c0-23.159 18.841-42 42-42zM111.229 275.72c-.25-.6-.56-1.18-.92-1.72-.359-.55-.779-1.061-1.24-1.521-2.319-2.319-5.77-3.39-9.029-2.729-.63.12-1.26.319-1.87.56-.601.25-1.18.561-1.72.92-.551.37-1.061.79-1.521 1.25s-.88.971-1.25 1.521c-.36.54-.67 1.12-.92 1.72-.25.61-.44 1.24-.57 1.88-.13.641-.189 1.3-.189 1.95s.06 1.31.189 1.95c.13.64.32 1.27.57 1.87.25.609.56 1.189.92 1.729.37.55.79 1.061 1.25 1.521s.97.88 1.521 1.239c.54.36 1.119.671 1.72.921.61.25 1.24.449 1.87.569.649.13 1.31.2 1.96.2 2.63 0 5.21-1.07 7.069-2.93.461-.46.881-.971 1.24-1.521.36-.54.67-1.12.92-1.729.25-.601.44-1.23.57-1.87.13-.641.2-1.3.2-1.95s-.07-1.31-.2-1.95c-.129-.64-.32-1.27-.57-1.88zM246 358c0 2.63 1.069 5.21 2.93 7.069.46.461.97.881 1.521 1.24.54.36 1.119.67 1.729.92.601.25 1.23.44 1.87.57s1.3.2 1.95.2c.649 0 1.31-.07 1.95-.2.64-.13 1.27-.32 1.869-.57.61-.25 1.19-.56 1.73-.92.55-.359 1.06-.779 1.52-1.24C264.93 363.21 266 360.63 266 358c0-.018-.003-.037-.003-.055.126-.633.194-1.287.194-1.957 0-5.522-4.478-10-10-10h-.383c-5.522 0-10 4.478-10 10 0 .669.069 1.323.194 1.956 0 .018-.002.037-.002.056z"/></svg>