<svg viewBox="0 0 411.556 411.556" xmlns="http://www.w3.org/2000/svg"><path d="M359.381 221.993l-14.2 103.49H66.371l-14.2-103.49h294.62z" fill="#f95428"/><path d="M64.771 221.993h-12.6l14.2 103.49h78l-14.2-103.49z" fill="#e54728"/><path d="M335.851 325.483l-8.31 78.57H84.021l-8.31-78.57zm18.71-176.99l-7.77 73.5H64.771l-7.77-73.5h270.15z" fill="#e6e6e6"/><path d="M138.021 404.053h-54l-8.31-78.57h54zm-19.25-182.06h-54l-7.77-73.5h54z" fill="#ccc"/><path d="M327.151 148.493H86.081c22.28-43.94 67.89-74.07 120.54-74.07 52.64 0 98.25 30.13 120.53 74.07z" fill="#f7b239"/><path d="M238.618 78.255a135.297 135.297 0 0 0-31.997-3.832c-52.65 0-98.26 30.13-120.54 74.07h64c17.613-34.736 49.812-60.825 88.537-70.238z" fill="#e09b2d"/><path d="M305.55 391.554a7.5 7.5 0 0 1-7.467-8.29l3.933-37.191a7.5 7.5 0 0 1 14.916 1.578l-3.933 37.191a7.5 7.5 0 0 1-7.449 6.712zm17.678-79a7.5 7.5 0 0 1-7.467-8.29l4.261-40.297a7.493 7.493 0 0 1 8.247-6.669 7.5 7.5 0 0 1 6.669 8.247l-4.261 40.297a7.5 7.5 0 0 1-7.449 6.712zm1.708-104.355a7.5 7.5 0 0 1-7.467-8.289l2.295-21.706c.436-4.12 4.132-7.109 8.246-6.67a7.5 7.5 0 0 1 6.67 8.246l-2.295 21.706a7.5 7.5 0 0 1-7.449 6.713z" fill="#fff"/><circle cx="329.795" cy="242.861" fill="#fff" r="7.5"/><path d="M405.62 89.857a7.5 7.5 0 0 0-12.209-8.715l-42.719 59.854h-19.026c-10.303-18.813-24.391-34.656-41.047-46.808l55.316-63.12a7.501 7.501 0 0 0-11.281-9.887l-56.735 64.74a141.353 141.353 0 0 0-11.999-6.167l21.684-70.031A7.5 7.5 0 0 0 282.659.34a7.497 7.497 0 0 0-9.383 4.945L251.921 74.25a143.285 143.285 0 0 0-45.303-7.323c-52.475 0-99.965 28.263-125.049 74.068H60.864L18.145 81.142a7.5 7.5 0 0 0-12.209 8.715l43.81 61.382 6.687 63.253h-4.259a7.502 7.502 0 0 0-7.43 8.519l14.199 103.494a7.5 7.5 0 0 0 7.43 6.48h2.587l7.6 71.858a7.5 7.5 0 0 0 7.458 6.711h243.52a7.5 7.5 0 0 0 7.458-6.711l7.6-71.858h2.588a7.502 7.502 0 0 0 7.431-6.48l14.199-103.494a7.5 7.5 0 0 0-7.43-8.519h-4.26l6.686-63.251zm-91.372 51.138h-36.504c7.871-6.685 14.728-14.306 18.67-22.195a127.891 127.891 0 0 1 17.834 22.195zm-172.788 0c-1.352-8.349-5.664-19.103-17.475-28.782a126.553 126.553 0 0 1 10.666-8.149c7.588 5.615 20.27 17.748 22.011 36.931zm30.269 0c-1.454-21.762-13.593-36.58-23.352-45.092a126.668 126.668 0 0 1 17.369-7.311c6.872 6.753 23.743 26.027 23.698 52.402h-17.715zm86.648-48.19c-12.052 20.643-41.719 29.382-55.504 32.419a82.177 82.177 0 0 0-3.985-13.447c20.901-3.529 40.23-17.464 47.764-23.468a126.356 126.356 0 0 1 11.725 4.496zm-53.925 48.19c.001-.248-.004-.493-.006-.739 15.317-3.15 51.879-13.32 67.272-40.563a126.475 126.475 0 0 1 12.769 8.646c-2.634 9.516-15.682 22.619-32.521 32.657h-47.514zm23.016-57.364c-9.376 6.119-22.742 13.126-35.651 13.901a102.52 102.52 0 0 0-9.608-13.266 129.013 129.013 0 0 1 24.408-2.339c7.071 0 14.036.589 20.851 1.704zm-114.436 39.077c5.246 4.04 11 10.116 13.122 18.287H98.985a128.171 128.171 0 0 1 14.047-18.287zm207.757 273.848H90.766l-6.723-63.569h243.47zm17.853-78.569H72.914l-12.141-88.494h290.01zM71.516 214.492l-6.184-58.497h280.89l-6.183 58.497z" fill="#333"/></svg>