<svg height="512" viewBox="0 0 512 512" xmlns="http://www.w3.org/2000/svg"><g ><path d="m457.846 24.615h-403.692c-29.861 0-54.154 24.294-54.154 54.154v256c0 29.86 24.293 54.154 54.154 54.154h130.759l-15.754 78.769h-51.005c-5.438 0-9.846 4.408-9.846 9.846s4.408 9.846 9.846 9.846h275.692c5.438 0 9.846-4.408 9.846-9.846s-4.408-9.846-9.846-9.846h-51.005l-15.754-78.769h130.759c29.86 0 54.154-24.293 54.154-54.154v-256c0-29.86-24.293-54.154-54.154-54.154zm-268.605 443.077 15.754-78.769h102.01l15.754 78.769zm303.067-132.923c0 19.002-15.459 34.462-34.462 34.462h-403.692c-19.002 0-34.462-15.459-34.462-34.462v-24.615h472.615v24.615zm0-44.307h-472.616v-19.692h59.077c5.438 0 9.846-4.408 9.846-9.846s-4.408-9.846-9.846-9.846h-59.077v-172.309c0-19.002 15.459-34.462 34.462-34.462h403.692c19.002 0 34.462 15.459 34.462 34.462z"/><path d="m256 320c-10.858 0-19.692 8.834-19.692 19.692s8.834 19.692 19.692 19.692 19.692-8.834 19.692-19.692-8.834-19.692-19.692-19.692zm80.612-106.815-20.887-20.887 17.406-17.405a9.846 9.846 0 0 0 -4.749-16.557l-90.51-20.887a9.85 9.85 0 0 0 -11.809 11.809l20.889 90.509a9.848 9.848 0 0 0 16.557 4.749l17.405-17.406 20.887 20.887c1.923 1.923 4.443 2.884 6.962 2.884s5.04-.961 6.962-2.884l20.887-20.887c3.844-3.845 3.844-10.079 0-13.925zm-27.849 13.925-20.887-20.887c-1.923-1.923-4.443-2.884-6.962-2.884s-5.04.961-6.962 2.884l-11.806 11.807-13.35-57.849 57.849 13.349-11.807 11.806c-3.845 3.845-3.845 10.08 0 13.925l20.887 20.887zm-93.292-114.179-9.846-9.846c-3.845-3.845-10.08-3.845-13.925 0s-3.845 10.079 0 13.925l9.847 9.846c1.923 1.923 4.443 2.884 6.962 2.884s5.04-.961 6.962-2.884c3.845-3.844 3.845-10.079 0-13.925zm-19.197 26.656h-13.924c-5.438 0-9.846 4.408-9.846 9.846s4.408 9.846 9.846 9.846h13.924c5.438 0 9.846-4.408 9.846-9.846s-4.408-9.846-9.846-9.846zm19.197 32.421c-3.844-3.845-10.078-3.845-13.924 0l-9.846 9.846c-3.845 3.845-3.845 10.08 0 13.925 1.923 1.923 4.443 2.884 6.962 2.884s5.04-.961 6.962-2.884l9.846-9.846c3.845-3.844 3.845-10.079 0-13.925zm68.924-68.923c-3.845-3.845-10.079-3.845-13.925 0l-9.846 9.846c-3.845 3.845-3.845 10.08 0 13.925a9.816 9.816 0 0 0 6.963 2.884c2.52 0 5.04-.961 6.962-2.884l9.846-9.846c3.845-3.844 3.845-10.079 0-13.925zm-46.346-19.197c-5.438 0-9.846 4.408-9.846 9.846v13.924c0 5.438 4.408 9.846 9.846 9.846s9.846-4.408 9.846-9.846v-13.924c0-5.438-4.408-9.846-9.846-9.846zm-120.092 175.115a9.55 9.55 0 0 0 -.561-1.851 9.949 9.949 0 0 0 -.906-1.694 9.38 9.38 0 0 0 -1.221-1.497 9.435 9.435 0 0 0 -1.497-1.221 9.768 9.768 0 0 0 -1.703-.906 9.252 9.252 0 0 0 -1.841-.561 9.696 9.696 0 0 0 -3.84 0c-.63.118-1.25.315-1.841.561a9.631 9.631 0 0 0 -1.703.906 9.38 9.38 0 0 0 -1.497 1.221 10.02 10.02 0 0 0 -2.127 3.191 9.55 9.55 0 0 0 -.561 1.851 9.698 9.698 0 0 0 -.197 1.92c0 .64.069 1.29.197 1.92.118.63.315 1.25.561 1.841.246.601.551 1.172.906 1.703a9.38 9.38 0 0 0 1.221 1.497c.453.453.955.866 1.497 1.221.532.354 1.103.66 1.703.906a9.99 9.99 0 0 0 1.841.571c.63.128 1.28.187 1.92.187s1.29-.059 1.92-.187a9.99 9.99 0 0 0 1.841-.571 9.631 9.631 0 0 0 1.703-.906 9.38 9.38 0 0 0 1.497-1.221 9.435 9.435 0 0 0 1.221-1.497c.354-.532.66-1.103.906-1.703a9.252 9.252 0 0 0 .561-1.841c.128-.63.197-1.28.197-1.92s-.069-1.29-.197-1.92z"/></g></svg>