<svg xmlns="http://www.w3.org/2000/svg" width="512" height="512"><path d="M502 289.984h-8V50c0-27.57-22.43-50-50-50H68.002c-27.57 0-50 22.43-50 50v239.985h-8c-5.523 0-10 4.477-10 10v17c0 27.019 21.981 49 49 49h11.56a68.815 68.815 0 0 0-1.844 54.216l33.231 85.424a10.003 10.003 0 0 0 9.322 6.377c1.206 0 2.432-.22 3.623-.683 5.147-2.002 7.696-7.798 5.694-12.945L77.357 412.95a48.83 48.83 0 0 1 5.172-45.24l16.481-24.16v19.385c0 5.523 4.477 10 10 10s10-4.477 10-10v-164.89c0-7.745 6.301-14.045 14.045-14.045s14.045 6.3 14.045 14.045v131.709c0 5.523 4.477 10 10 10s10-4.477 10-10v-47.067c0-7.745 6.3-14.045 14.045-14.045s14.045 6.3 14.045 14.045v47.067c0 5.523 4.477 10 10 10s10-4.477 10-10v-47.067c0-7.745 6.301-14.045 14.045-14.045s14.045 6.3 14.045 14.045v47.067c0 5.523 4.477 10 10 10s10-4.477 10-10v-47.21c0-7.745 6.3-14.045 14.045-14.045s14.045 6.3 14.045 14.045v89.299c0 29.935-5.95 59.076-17.686 86.614l-16.884 39.62c-2.165 5.081.199 10.955 5.279 13.12a9.968 9.968 0 0 0 3.916.803c3.887 0 7.584-2.281 9.204-6.082l16.884-39.62c12.797-30.032 19.287-61.811 19.287-94.454v-5.859h151.629c27.019 0 49-21.981 49-49v-17c0-5.524-4.477-10.001-9.999-10.001zm-428.86 56H49.002c-15.99 0-29-13.009-29-29v-7h77.696l-24.558 36zm25.872-147.94v21.955h-7.013c-9.925 0-18-8.075-18-18s8.075-18 18-18h10.058a33.82 33.82 0 0 0-3.045 14.045zm65.045-14.045h35.588c9.925 0 18 8.075 18 18s-8.075 18-18 18h-32.543v-21.955c0-5.007-1.096-9.76-3.045-14.045zm113.269 64.5c-9.415 0-17.948 3.843-24.117 10.04-6.158-6.114-14.631-9.898-23.973-9.898-9.378 0-17.882 3.812-24.045 9.966-6.163-6.155-14.667-9.966-24.045-9.966-5.007 0-9.76 1.095-14.045 3.044v-11.686h32.543c20.953 0 38-17.047 38-38s-17.047-38-38-38H91.999c-20.953 0-38 17.047-38 38s17.047 38 38 38h7.013v49.986h-61.01V50c0-16.542 13.458-30 30-30H444c16.542 0 30 13.458 30 30v196.013h-86.011c-5.523 0-10 4.477-10 10s4.477 10 10 10H474v23.972H311.371v-7.441c.001-18.774-15.272-34.045-34.045-34.045zM492 316.984c0 15.991-13.009 29-29 29H311.371v-36H492v7z"/><path d="M355.22 248.939a10.092 10.092 0 0 0-7.07-2.93c-2.64 0-5.21 1.07-7.07 2.93a10.033 10.033 0 0 0-2.93 7.07c0 2.64 1.06 5.21 2.93 7.07 1.86 1.87 4.43 2.93 7.07 2.93 2.63 0 5.21-1.06 7.07-2.93 1.86-1.86 2.93-4.43 2.93-7.07 0-2.631-1.07-5.21-2.93-7.07zm-175.989-136.01a10.074 10.074 0 0 0-7.07-2.93c-2.64 0-5.21 1.07-7.07 2.93-1.87 1.86-2.93 4.44-2.93 7.07s1.06 5.21 2.93 7.07c1.86 1.86 4.44 2.93 7.07 2.93s5.2-1.07 7.07-2.93c1.86-1.86 2.93-4.44 2.93-7.07s-1.07-5.21-2.93-7.07zm-43.273-2.93H63.999c-5.523 0-10 4.477-10 10s4.477 10 10 10h71.959c5.523 0 10-4.477 10-10s-4.477-10-10-10zM227.644 54H64.052c-5.523 0-10 4.477-10 10s4.477 10 10 10h163.592c5.523 0 10-4.477 10-10s-4.477-10-10-10zM428 125.571v-15.072c0-11.028-8.972-20-20-20h-35.167c-3.645 0-7.054.996-10 2.706a19.853 19.853 0 0 0-10-2.706h-35.167c-11.028 0-20 8.972-20 20v14.694c-18.012 4.423-31.417 20.7-31.417 40.056v32.75c0 5.523 4.477 10 10 10h171.749c5.524 0 10.001-4.477 10.001-10v-32.75c.001-18.845-12.707-34.767-29.999-39.678zm-55.167-15.072H408v13.5h-35.167v-13.5zm-55.165 0h35.167v13.5h-35.167v-13.5zm120.333 77.5h-151.75v-22.75c0-11.717 9.533-21.25 21.25-21.25h109.251c11.717 0 21.25 9.533 21.25 21.25v22.75z"/></svg>