<svg viewBox="-8 0 480 480" xmlns="http://www.w3.org/2000/svg"><path d="M8 200v48h176v-48c0-30.398-8-37.602-24-64-16-29.602-24-62.398-24-96H64c0 30.398-16 69.602-32 96S8 169.602 8 200zm0 0" fill="#ffdfab"/><path d="M8 376h176V248H8zm0 0" fill="#f9a419"/><path d="M8 456c0 8.8 7.2 16 16 16h144c8.8 0 16-7.2 16-16v-80H8zm0 0" fill="#ffdfab"/><g fill="#fede11"><path d="M432 166.398c-23.2-18.398-56.8-18.398-80 0L392 216zm0 0"/><path d="M432 216h24c0-19.2-8.8-37.602-24-49.602L392 216zm-80-49.602c-15.2 12-24 30.403-24 49.602h64zm0 0"/></g><path d="M152 40V24c0-8.8-7.2-16-16-16H64c-8.8 0-16 7.2-16 16v16zm0 0" fill="#57524e"/><path d="M392 216H240l22.398 241.602c.801 8 8 14.398 16 14.398h115.204c8 0 15.199-6.398 16-14.398L432 216zm0 0" fill="#f9a419"/><path d="M312 328l24-32-48-24-3.2 7.2 4 34.402zm24 24l32 16 24-24-40-24zm-32 64l32-16-24-32-16 12 4 32zm0 0" fill="#9dc2e3"/><path d="M136 294.398c-23.2-18.398-56.8-18.398-80 0L96 344zm0 0" fill="#fede11"/><path d="M56 294.398c-15.2 12-24 30.403-24 49.602h64zM160 344c0-19.2-8.8-37.602-24-49.602L96 344zm0 0" fill="#fede11"/><path d="M18.398 143.2C7.2 161.601 0 172 0 200v256c0 13.602 10.398 24 24 24h144c13.602 0 24-10.398 24-24V200c0-28-7.2-38.398-18.398-56.8-2.403-3.2-4.801-7.2-7.204-11.2-13.597-25.602-20.796-54.398-22.398-84h8c4.8 0 8-3.2 8-8V24c0-13.602-10.398-24-24-24H64C50.398 0 40 10.398 40 24v16c0 4.8 3.2 8 8 8h7.2c-4 29.602-14.4 58.398-30.4 84-2.402 4-4.8 8-6.402 11.2zM16 256h160v112H16zm152 208H24c-4.8 0-8-3.2-8-8v-72h160v72c0 4.8-3.2 8-8 8zM56 24c0-4.8 3.2-8 8-8h72c4.8 0 8 3.2 8 8v8H56zM39.2 140C53.601 116.8 69.601 79.2 72 48h56c.8 32 9.602 64 24.8 92 2.4 4 4.802 8 7.2 11.2 10.398 16.8 16 24.8 16 48v40H16v-40c0-23.2 4.8-31.2 16-48 1.602-3.2 4-6.4 7.2-11.2zM368 376c2.398 0 4-.8 5.602-2.398l24-24c3.199-3.204 3.199-8 0-11.204-.801-.796-.801-.796-1.602-.796l-40-24C354.398 312 352 312 349.602 312c-2.403.8-4 2.398-4.801 4l-16 32c-1.602 4 0 8.8 3.199 10.398l32 16c1.602 1.602 2.398 1.602 4 1.602zm-12.8-44.8l24 14.402-12.802 12.796-20-9.597zm0 0"/><path d="M234.398 210.398c-1.597 1.602-2.398 4-2.398 6.403l22.398 241.597c.801 12 11.204 21.602 24 21.602h115.204c12.796 0 22.398-9.602 24-21.602L439.199 224H456c4.8 0 8-3.2 8-8 0-40-32.8-72-72-72-36.8 0-67.2 27.2-71.2 64h-36L264 31.2c-.8-4-4-7.2-8-7.2h-72v16h64.8L268 208h-28c-2.398 0-4 .8-5.602 2.398zM447.2 208h-38.398l24-30.398c8 8.796 12.8 19.199 14.398 30.398zM420 168l-28 35.2-28-35.2c16.8-10.398 39.2-10.398 56 0zm-68.8 9.602l24 30.398h-38.4c1.598-11.2 6.4-21.602 14.4-30.398zM270.397 224l6.403 53.602-11.2 23.199c-1.601 4-.8 8 3.2 10.398l12.8 8L288 376l-12.8 9.602c-3.2 2.398-4 8-1.598 11.199l.796.8L292 415.2l4 33.602 16-1.602-3.2-24.8 30.4-15.2c4-1.597 5.6-6.398 4-10.398 0-.801-.802-.801-.802-1.602l-24-32c-2.398-3.199-8-4-11.199-1.597l-4.8 3.199-4-36 9.601 5.597c3.2 2.403 8 1.602 10.398-2.398l24-32c2.403-3.2 1.602-8.8-1.597-11.2-.801 0-.801-.8-1.602-.8l-48-24h-.8l-4-40h136.8L420 256h-84v16h82.398l-17.597 184.8c0 4-4 7.2-8 7.2H278.398c-4 0-7.199-3.2-8-7.2L248.801 224zm22.403 59.2l30.398 15.198-13.597 18.403-13.602-8zm12 100l5.597-4L324 396.8l-16.8 8zM96 272c-40 0-72 32-72 72 0 4.8 3.2 8 8 8h128c4.8 0 8-3.2 8-8 0-40-32-72-72-72zm28 24l-28 35.2L68 296c16.8-10.398 39.2-10.398 56 0zm-68.8 9.602L79.2 336H40.8c1.598-11.2 6.4-21.602 14.4-30.398zM112.8 336l24-30.398c8 8 12.802 19.199 14.4 30.398zm0 0"/></svg>