<svg xmlns="http://www.w3.org/2000/svg" viewBox="0 0 503.607 503.607"><path fill="#fd9808" d="M352.525 151.082h142.688V8.393H352.525z"/><g fill="#ffdd09"><path d="M352.525 151.082h117.508V8.393H352.525zM369.311 495.213h100.722v-33.574H369.311zM394.492 461.639h50.36v-33.573h-50.36z"/></g><g fill="#db4d6c"><path d="M67.148 495.213H50.361c-9.233 0-16.787-7.554-16.787-16.787v-50.361h50.361v50.361c-.001 9.233-7.555 16.787-16.787 16.787M318.951 495.213h-16.787c-9.233 0-16.787-7.554-16.787-16.787v-50.361h50.361v50.361c0 9.233-7.554 16.787-16.787 16.787"/></g><path fill="#fd9808" d="M344.131 302.164h-4.197c-7.554 0-14.269-5.036-15.948-11.751l-29.377-102.4c-5.875-12.59-17.626-20.144-31.056-20.144H105.757c-13.43 0-25.18 7.554-31.056 20.144l-29.377 102.4c-1.679 7.554-8.393 11.751-15.948 11.751H25.18c-9.233 0-16.787 7.554-16.787 16.787v92.328c0 9.233 7.554 16.787 16.787 16.787h318.951c9.233 0 16.787-7.554 16.787-16.787v-92.328c0-9.233-7.554-16.787-16.787-16.787"/><path fill="#ffdd09" d="M320.629 302.164h-4.197c-6.715 0-12.59-5.036-14.269-11.751l-26.859-102.4c-5.036-12.59-15.948-20.144-27.698-20.144H104.918c-11.751 0-22.662 7.554-27.698 20.144l-26.859 102.4c-1.679 6.715-7.554 11.751-14.269 11.751h-4.197c-8.393 0-15.108 7.554-15.108 16.787v92.328c0 9.233 6.715 16.787 15.108 16.787h288.734c8.393 0 15.108-7.554 15.108-16.787v-92.328c.001-9.233-6.714-16.787-15.108-16.787"/><path fill="#fff" d="M25.18 302.164h4.197c7.554 0 14.269-5.036 15.948-11.751l30.216-102.4c5.036-12.59 16.787-20.144 30.216-20.144h15.948c-11.751 0-22.662 7.554-27.698 20.144l-26.859 102.4c-1.679 6.715-7.554 11.751-14.269 11.751h-4.197c-8.393 0-15.108 7.554-15.108 16.787v92.328c0 9.233 6.715 16.787 15.108 16.787H25.18c-9.233 0-16.787-7.554-16.787-16.787v-92.328c0-9.233 7.555-16.787 16.787-16.787"/><g fill="#db4d6c"><path d="M100.721 360.918c0 14.269-10.911 25.18-25.18 25.18s-25.18-10.911-25.18-25.18 10.911-25.18 25.18-25.18 25.18 10.911 25.18 25.18M318.951 360.918c0 14.269-10.911 25.18-25.18 25.18s-25.18-10.911-25.18-25.18 10.911-25.18 25.18-25.18 25.18 10.911 25.18 25.18"/></g><path d="M344.131 436.459H25.18c-14.269 0-25.18-10.911-25.18-25.18v-92.328c0-14.269 10.911-25.18 25.18-25.18h4.197c3.357 0 6.715-2.518 8.393-5.875l29.377-102.4v-.839c6.715-15.108 21.823-25.18 38.61-25.18h157.797c16.787 0 31.895 10.072 38.61 25.18v.839l29.377 102.4c.839 3.357 4.197 5.875 8.393 5.875h4.197c14.269 0 25.18 10.911 25.18 25.18v92.328c0 14.269-10.911 25.18-25.18 25.18zM25.18 310.557c-5.036 0-8.393 3.357-8.393 8.393v92.328c0 5.036 3.357 8.393 8.393 8.393h318.951c5.036 0 8.393-3.357 8.393-8.393V318.95c0-5.036-3.357-8.393-8.393-8.393h-4.197c-10.911 0-20.984-7.554-24.341-18.466L286.216 190.53c-4.197-9.233-13.43-14.269-22.662-14.269H105.757c-10.072 0-18.466 5.875-22.662 14.269L53.718 292.092c-3.357 10.911-13.43 18.466-24.341 18.466H25.18z"/><path d="M67.148 503.607H50.361c-14.269 0-25.18-10.911-25.18-25.18v-50.361c0-5.036 3.357-8.393 8.393-8.393h50.361c5.036 0 8.393 3.357 8.393 8.393v50.361c0 14.268-10.912 25.18-25.18 25.18zm-25.181-67.148v41.967c0 5.036 3.357 8.393 8.393 8.393h16.787c5.036 0 8.393-3.357 8.393-8.393v-41.967H41.967zM318.951 503.607h-16.787c-14.269 0-25.18-10.911-25.18-25.18v-50.361c0-5.036 3.357-8.393 8.393-8.393h50.361c5.036 0 8.393 3.357 8.393 8.393v50.361c0 14.268-10.911 25.18-25.18 25.18zm-25.181-67.148v41.967c0 5.036 3.357 8.393 8.393 8.393h16.787c5.036 0 8.393-3.357 8.393-8.393v-41.967H293.77zM75.541 394.492c-18.466 0-33.574-15.108-33.574-33.574 0-18.466 15.108-33.574 33.574-33.574s33.574 15.108 33.574 33.574c0 18.466-15.108 33.574-33.574 33.574zm0-50.361c-9.233 0-16.787 7.554-16.787 16.787 0 9.233 7.554 16.787 16.787 16.787s16.787-7.554 16.787-16.787c0-9.233-7.554-16.787-16.787-16.787zM293.77 394.492c-18.466 0-33.574-15.108-33.574-33.574 0-18.466 15.108-33.574 33.574-33.574s33.574 15.108 33.574 33.574c0 18.466-15.108 33.574-33.574 33.574zm0-50.361c-9.233 0-16.787 7.554-16.787 16.787 0 9.233 7.554 16.787 16.787 16.787 9.233 0 16.787-7.554 16.787-16.787 0-9.233-7.554-16.787-16.787-16.787zM201.443 386.098h-33.574c-5.036 0-8.393-3.357-8.393-8.393s3.357-8.393 8.393-8.393h33.574c5.036 0 8.393 3.357 8.393 8.393s-3.357 8.393-8.393 8.393zM218.229 352.525h-67.148c-5.036 0-8.393-3.357-8.393-8.393 0-5.036 3.357-8.393 8.393-8.393h67.148c5.036 0 8.393 3.357 8.393 8.393.001 5.035-3.356 8.393-8.393 8.393zM266.072 293.77H104.079c-5.036 0-10.072-2.518-13.43-6.715-3.357-4.197-4.197-10.072-2.518-15.108l20.144-67.148c2.518-7.554 8.393-11.751 15.948-11.751h121.705c7.554 0 14.269 5.036 15.948 11.751l20.144 67.148c1.679 5.036.839 10.911-2.518 15.108s-8.394 6.715-13.43 6.715zm-141.849-83.934l-20.144 67.148h161.993l-20.144-67.148H124.223zM470.033 503.607H369.311c-5.036 0-8.393-3.357-8.393-8.393V461.64c0-5.036 3.357-8.393 8.393-8.393h100.721c5.036 0 8.393 3.357 8.393 8.393v33.574c.001 5.035-3.356 8.393-8.392 8.393zm-92.328-16.787h83.934v-16.787h-83.934v16.787z"/><path d="M444.852 470.033h-50.361c-5.036 0-8.393-3.357-8.393-8.393v-33.574c0-5.036 3.357-8.393 8.393-8.393h50.361c5.036 0 8.393 3.357 8.393 8.393v33.574c.001 5.035-3.357 8.393-8.393 8.393zm-41.967-16.787h33.574v-16.787h-33.574v16.787z"/><path d="M419.672 436.459c-5.036 0-8.393-3.357-8.393-8.393V151.082c0-5.036 3.357-8.393 8.393-8.393 5.036 0 8.393 3.357 8.393 8.393v276.984c.001 5.036-3.357 8.393-8.393 8.393z"/><path d="M495.213 159.475H352.525c-5.036 0-8.393-3.357-8.393-8.393V8.393c0-5.036 3.357-8.393 8.393-8.393h142.689c5.036 0 8.393 3.357 8.393 8.393v142.689c0 5.036-3.358 8.393-8.394 8.393zm-134.295-16.786H486.82V16.787H360.918v125.902z"/><path d="M411.279 125.902c-5.036 0-8.393-3.357-8.393-8.393V41.967c0-5.036 3.357-8.393 8.393-8.393 5.036 0 8.393 3.357 8.393 8.393v75.541c0 5.036-3.357 8.394-8.393 8.394z"/><path d="M428.066 100.721h-16.787c-5.036 0-8.393-3.357-8.393-8.393V41.967c0-5.036 3.357-8.393 8.393-8.393h16.787c18.466 0 33.574 15.108 33.574 33.574s-15.109 33.573-33.574 33.573zm-8.394-16.787h8.393c9.233 0 16.787-7.554 16.787-16.787s-7.554-16.787-16.787-16.787h-8.393v33.574z"/><path fill="#db4d6c" d="M266.072 285.377H104.079c-5.875 0-9.233-5.036-8.393-10.911l20.144-67.148c.839-3.357 4.197-5.875 8.393-5.875h121.705c3.357 0 6.715 2.518 8.393 5.875l20.144 67.148c.84 5.875-3.357 10.911-8.393 10.911"/><path d="M266.072 293.77H104.079c-5.036 0-10.072-2.518-13.43-6.715-3.357-4.197-4.197-10.072-2.518-15.108l20.144-67.148c2.518-7.554 8.393-11.751 15.948-11.751h121.705c7.554 0 14.269 5.036 15.948 11.751l20.144 67.148c1.679 5.036.839 10.911-2.518 15.108s-8.394 6.715-13.43 6.715zm-141.849-83.934l-20.144 67.148h161.993l-20.144-67.148H124.223z"/></svg>