<svg xmlns="http://www.w3.org/2000/svg" viewBox="0 0 503.607 503.607"><g fill="#666"><path d="M369.311 411.279v-92.328c0-14.269-10.911-25.18-25.18-25.18h-4.197c-4.197 0-7.554-2.518-8.393-5.875l-29.377-102.4v-.839c-6.715-15.108-21.823-25.18-38.61-25.18H105.757c-16.787 0-31.895 10.072-38.61 25.18v.839l-29.377 102.4c-1.679 3.357-5.036 5.875-8.393 5.875H25.18c-14.269 0-25.18 10.911-25.18 25.18v92.328c0 14.269 10.911 25.18 25.18 25.18v41.967c0 14.269 10.911 25.18 25.18 25.18h16.787c14.269 0 25.18-10.911 25.18-25.18v-41.967h184.656v41.967c0 14.269 10.911 25.18 25.18 25.18h16.787c14.269 0 25.18-10.911 25.18-25.18v-41.967c14.27 0 25.181-10.911 25.181-25.18zm-293.77 67.147c0 5.036-3.357 8.393-8.393 8.393H50.361c-5.036 0-8.393-3.357-8.393-8.393v-41.967h33.574v41.967zm251.803 0c0 5.036-3.357 8.393-8.393 8.393h-16.787c-5.036 0-8.393-3.357-8.393-8.393v-41.967h33.574v41.967zm25.181-67.147c0 5.036-3.357 8.393-8.393 8.393H25.18c-5.036 0-8.393-3.357-8.393-8.393v-92.328c0-5.036 3.357-8.393 8.393-8.393h4.197c10.911 0 20.984-7.554 24.341-18.466l29.377-101.561c4.197-8.393 12.59-14.269 22.662-14.269h157.797c9.233 0 18.466 5.036 22.662 14.269l29.377 101.561c3.357 10.911 13.43 18.466 24.341 18.466h4.197c5.036 0 8.393 3.357 8.393 8.393v92.328z"/><path d="M75.541 327.344c-18.466 0-33.574 15.108-33.574 33.574s15.108 33.574 33.574 33.574 33.574-15.108 33.574-33.574-15.108-33.574-33.574-33.574zm0 50.361c-9.233 0-16.787-7.554-16.787-16.787s7.554-16.787 16.787-16.787 16.787 7.554 16.787 16.787-7.554 16.787-16.787 16.787zM293.771 327.344c-18.466 0-33.574 15.108-33.574 33.574s15.108 33.574 33.574 33.574 33.574-15.108 33.574-33.574-15.109-33.574-33.574-33.574zm0 50.361c-9.233 0-16.787-7.554-16.787-16.787s7.554-16.787 16.787-16.787c9.233 0 16.787 7.554 16.787 16.787s-7.555 16.787-16.787 16.787zM201.443 369.311h-33.574c-5.036 0-8.393 3.357-8.393 8.393 0 5.036 3.357 8.393 8.393 8.393h33.574c5.036 0 8.393-3.357 8.393-8.393 0-5.035-3.357-8.393-8.393-8.393zM218.229 335.738h-67.148c-5.036 0-8.393 3.357-8.393 8.393 0 5.036 3.357 8.393 8.393 8.393h67.148c5.036 0 8.393-3.357 8.393-8.393.001-5.036-3.356-8.393-8.393-8.393zM104.079 293.771h161.993c5.036 0 10.072-2.518 13.43-6.715s4.197-10.072 2.518-15.108L261.875 204.8c-1.679-6.715-8.394-11.751-15.948-11.751H124.223c-7.554 0-13.43 4.197-15.948 11.751l-20.144 67.148c-1.679 5.036-.839 10.911 2.518 15.108 3.358 4.196 8.394 6.715 13.43 6.715zm20.144-83.935h121.705l20.144 67.148H104.079l20.144-67.148zM495.213 0H352.525c-5.036 0-8.393 3.357-8.393 8.393v142.689c0 5.036 3.357 8.393 8.393 8.393h58.754v260.197h-16.787c-5.036 0-8.393 3.357-8.393 8.393v25.18h-16.787c-5.036 0-8.393 3.357-8.393 8.393v33.574c0 5.036 3.357 8.393 8.393 8.393h100.721c5.036 0 8.393-3.357 8.393-8.393v-33.574c0-5.036-3.357-8.393-8.393-8.393h-16.787v-25.18c0-5.036-3.357-8.393-8.393-8.393h-16.787V159.475h67.148c5.036 0 8.393-3.357 8.393-8.393V8.393c0-5.036-3.358-8.393-8.394-8.393zm-33.574 486.82h-83.934v-16.787h83.935v16.787zm-25.18-33.574h-33.574v-16.787h33.574v16.787zm50.361-310.557H360.918V16.787H486.82v125.902z"/><path d="M411.279 125.902c5.036 0 8.393-3.357 8.393-8.393v-16.788h8.393c18.466 0 33.574-15.108 33.574-33.574 0-18.466-15.108-33.574-33.574-33.574h-16.787c-5.036 0-8.393 3.357-8.393 8.393v75.541c0 5.037 3.358 8.395 8.394 8.395zm33.573-58.754c0 9.233-7.554 16.787-16.787 16.787h-8.393V50.361h8.393c9.233 0 16.787 7.554 16.787 16.787z"/></g></svg>