<svg xmlns="http://www.w3.org/2000/svg" viewBox="0 0 384.981 384.981"><g fill="#666"><path d="M192.491 197.204c24.125 0 80.846-29.034 80.846-98.604 0-9.705-.236-19.079-1.036-27.938-1.313-17.429-4.883-32.876-13.771-44.714C247.129 9.837 227.18 0 192.491 0c-34.682 0-54.63 9.834-66.032 25.939-8.893 11.841-12.465 27.292-13.778 44.727-.8 8.857-1.036 18.231-1.036 27.934 0 69.57 56.721 98.604 80.846 98.604zM218.88 36.123c-2.354 5.951-3.534 8.927-5.89 14.877-15.209-4.297-25.791-4.297-41 0-2.356-5.95-3.534-8.926-5.891-14.877 19.021-5.758 33.763-5.757 52.781 0zm-95.207 47.394c.931 2.038 4.888 9.87 11.013 10.604 7.041.845 18.728-24.935 57.805-24.998 39.076.063 50.764 25.843 57.805 24.998 6.125-.735 10.082-8.567 11.013-10.604.19 4.992.259 10.045.259 15.084 0 34.006-15.016 55.076-27.612 66.763-15.872 14.727-33.494 20.072-41.465 20.072-7.972 0-25.593-5.345-41.465-20.072-12.596-11.687-27.612-32.757-27.612-66.763 0-5.039.069-10.092.259-15.084z"/><path d="M342.583 298.327c-4.127-25.664-12.624-58.724-29.668-70.474-11.639-8.024-52.247-29.72-69.588-38.984l-.293-.156c-1.983-1.059-4.402-.847-6.17.541-9.083 7.131-19.034 11.937-29.574 14.284-1.862.415-3.39 1.738-4.067 3.521l-5.775 15.223h-9.915l-5.775-15.223c-.677-1.783-2.205-3.106-4.067-3.521-10.54-2.347-20.49-7.153-29.574-14.284-1.768-1.388-4.188-1.601-6.17-.541-17.134 9.156-58.238 31.294-69.831 39.106-19.62 13.218-28.198 61.053-29.718 70.508-.151.938-.064 1.897.253 2.793.475 1.341 8.879 23.076 54.839 37.005v4.627c0 2.826 2.293 5.118 5.119 5.118l63.313.052c-1.218 6.975-3.82 18.461-9.032 29.811-.729 1.582-.602 3.427.343 4.895.941 1.47 2.565 2.355 4.308 2.355h61.895c1.743 0 3.368-.886 4.309-2.355.94-1.468 1.069-3.313.345-4.895-5.21-11.349-7.818-22.836-9.038-29.811l63.319-.052c2.825 0 5.119-2.292 5.119-5.118v-4.627c45.96-13.929 54.364-35.664 54.839-37.005.318-.896.405-1.856.254-2.793zm-71.694 35.361h-8.946v-1.766c0-2.613-2.119-4.733-4.733-4.733-2.615 0-4.732 2.119-4.732 4.733v1.766h-5.971v-1.766c0-2.613-2.117-4.733-4.732-4.733-2.611 0-4.732 2.119-4.732 4.733v1.766H114.088v-97.226h156.801v97.226z"/><path d="M172.417 291.109c-3.612 0-7.004 1.409-9.553 3.966-3.48 3.491-4.778 8.6-3.388 13.334.081.275.301.488.58.559.278.069.573-.011.776-.214l8.494-8.52c.51.206 1.795.912 4.171 3.282 2.425 2.417 3.116 3.703 3.31 4.148l-8.509 8.535c-.203.203-.283.499-.211.776.072.278.285.498.561.578 1.225.356 2.494.536 3.773.536 3.611 0 7.003-1.408 9.551-3.965 3.999-4.012 4.936-9.929 2.833-14.844l7.945-7.945 3.361 3.361-2.292 2.292c-.498.499-.773 1.161-.773 1.866s.275 1.368.773 1.866l16.189 16.189c.498.498 1.161.773 1.866.773.705 0 1.368-.275 1.867-.773l8.77-8.77c.499-.499.773-1.162.773-1.867 0-.705-.275-1.368-.773-1.867l-16.188-16.189c-.5-.498-1.163-.773-1.868-.773-.705 0-1.367.275-1.866.773l-2.292 2.292-3.361-3.361 10.304-10.304c1.661.714 3.463 1.096 5.325 1.096 3.612 0 7.004-1.408 9.553-3.965 3.479-3.491 4.778-8.6 3.39-13.335-.081-.276-.301-.488-.579-.559-.278-.071-.573.011-.776.214l-8.496 8.522c-.51-.207-1.794-.912-4.171-3.282-2.425-2.418-3.116-3.704-3.31-4.149l8.509-8.535c.203-.203.283-.499.211-.776-.072-.278-.285-.498-.561-.578-1.225-.355-2.494-.536-3.771-.536-3.612 0-7.004 1.409-9.552 3.966-3.999 4.012-4.936 9.929-2.833 14.844l-10.31 10.31-10.555-10.556c-.008-.014-.009-.031-.017-.045l-4.821-8.266c-.083-.143-.197-.265-.332-.359l-8.134-5.643c-.451-.313-1.058-.257-1.444.129l-3.623 3.623c-.387.387-.441.995-.129 1.445l5.645 8.133c.094.135.217.249.359.332l8.264 4.82c.016.009.033.012.049.021l10.552 10.553-7.939 7.939c-1.663-.715-3.465-1.097-5.327-1.097zm27.16 7.565c.577-.576 1.513-.576 2.088.001l10.388 10.387c.576.577.577 1.512 0 2.089-.577.576-1.513.576-2.089 0l-10.387-10.387c-.578-.578-.578-1.513 0-2.09zm4.699-4.698c.577-.578 1.512-.578 2.09 0l10.386 10.386c.577.576.577 1.512 0 2.089-.575.576-1.512.576-2.089-.001l-10.387-10.385c-.576-.579-.576-1.513 0-2.089z"/></g></svg>