<svg xmlns="http://www.w3.org/2000/svg" viewBox="0 0 392.747 392.747"><path d="M379.498 90.453l-40.104-16.18c-2.449-12.946-12.287-23.311-24.947-26.528l-2.169-24.992a9 9 0 0 0-15.634-5.266l-10.492 11.572-6.437-22.531a9.001 9.001 0 0 0-8.341-6.522c-3.898-.121-7.443 2.258-8.774 5.928l-55.536 153.21c-39.95 10.374-74.835 35.938-96.262 70.724-19.626 31.862-25.722 68.366-17.165 102.786 5.001 20.117 14.496 33.373 24.209 42.065h-7.639l-.216.003c-36.135.881-69.622-19.663-85.259-52.307-2.147-4.483-7.522-6.375-12.005-4.229a9 9 0 0 0-4.228 12.005c18.31 38.226 57.078 62.557 99.286 62.557h171.829a9 9 0 0 0 9-9c0-24.226-19.323-35.268-36.377-39.321 7.974-15.546 8.663-29.218 7.759-38.162l2.352-.314 53.943 82.713a9.002 9.002 0 0 0 7.539 4.083h32.755a9 9 0 0 0 7.614-13.797c-.348-.552-34.166-54.247-52.346-84.309V143.416c2.676.308 5.681.463 8.335.463 26.109 0 50.664-14.73 63.885-40.848.011-.021.35-.729.404-.865a8.999 8.999 0 0 0-4.979-11.713z"/></svg>