<svg viewBox="0 0 480.052 480.052" xmlns="http://www.w3.org/2000/svg"><path d="M184.011 224.037v-96l-8-8h-24l-24 16-16-16 40-56h32l16 32h96l16-32h24l32 48-16 24-24-16h-16l-16 16v112h16l24-24 24 40v40c-1.04 3.456-4.272 12.808-12.032 21.704-3.184 3.656-7.056 7.232-11.968 10.296-9.44 5.88-18.6 7.496-24 8l16 16h21.92l44.888-48c64.848-70.024 90.888-146.416 70.264-203.76-13.72-38.152-58.216-96.064-123.952-99.92-51.304-3.008-89.888 45.888-101.12 55.88l-.816-.2c-11.232-10-49-58.888-100.304-55.88-65.736 3.856-110.232 61.768-123.952 99.92-18.304 50.904.168 116.816 49.896 179.968l18.168 25.088c28.608-65.192 92.472-86.44 101.008-89.096z" fill="#a9cb73"/><path d="M232.011 472.037h32v-128c-5.4-.504-14.56-2.12-24-8-3.312-2.064-6.072-4.392-8.576-6.784-10.248-9.824-14.248-21.296-15.424-25.216v-40l24-40 24 24h32v-112l16-16h16l24 16 16-24-32-48h-24l-16 32h-96l-16-32h-32l-40 56 16 16 24-16h24l8 8v96c-8.536 2.656-72.4 23.904-101.008 89.088-1 2.296-2.08 4.504-2.992 6.912-20.048 52.672-4.68 99.264 0 112l-40-24v-32c0-13.184-15.056-20.712-25.6-12.8a15.989 15.989 0 0 0-6.4 12.8v56l64 40z" fill="#f4cd57"/><path d="M312.011 344.037c5.4-.504 14.56-2.12 24-8 4.912-3.064 8.784-6.64 11.968-10.296 7.76-8.896 10.992-18.248 12.032-21.704v-40l-24-40-24 24h-48l-24-24-24 40v40c1.176 3.92 5.176 15.392 15.424 25.216 2.504 2.392 5.264 4.72 8.576 6.784 9.44 5.88 18.6 7.496 24 8v128h168l32-16c.944-1.704 17.648-33.072 0-64-15.472-27.12-44.592-31.544-48-32h-88z" fill="#eaeaea"/><g fill="#2d2d2d"><path d="M34.747 354.573c-8.192-4.096-17.824-3.216-25.144 2.272-6.008 4.512-9.592 11.688-9.592 19.192v56c0 2.76 1.424 5.32 3.76 6.784l64 40a8.013 8.013 0 0 0 4.24 1.216h360c1.24 0 2.472-.288 3.576-.84l32-16a7.98 7.98 0 0 0 3.416-3.272c.832-1.488 19.968-36.784-.048-71.848-16.888-29.616-47.84-35.16-53.88-35.968a7.837 7.837 0 0 0-1.064-.072h-84.688l-3.352-3.352a61.485 61.485 0 0 0 12.264-5.856c3.928-2.448 7.264-5.2 10.216-8.056l31.36 8.96 4.392-15.384-25.088-7.168c3.312-5.656 5.392-10.976 6.552-14.832a8.091 8.091 0 0 0 .344-2.312v-16.44l19.152-8.208-6.296-14.704-12.856 5.512v-6.16a7.978 7.978 0 0 0-1.144-4.12l-24-40a8.008 8.008 0 0 0-5.88-3.824c-2.408-.264-4.88.536-6.632 2.288l-21.656 21.656h-4.688V139.349l11.312-11.312h10.264l21.984 14.656c3.68 2.456 8.64 1.456 11.096-2.216l16-24a7.993 7.993 0 0 0 0-8.872l-32-48a7.998 7.998 0 0 0-6.656-3.568h-24a8.009 8.009 0 0 0-7.16 4.424l-13.784 27.576h-86.112l-13.792-27.576a7.988 7.988 0 0 0-7.152-4.424h-32a7.978 7.978 0 0 0-6.504 3.352l-40 56a8.004 8.004 0 0 0 .848 10.304l16 16c2.696 2.704 6.92 3.104 10.096 1l21.984-14.656h18.264l3.312 3.312v86.96c-21.12 7.672-78.784 33.992-103.48 98.888-14.568 38.288-11.336 74.032-5.968 97.448l-18.552-11.136v-27.472c0-9.152-5.088-17.376-13.264-21.464zm277.264-98.536c2.128 0 4.16-.84 5.656-2.344l16.76-16.752 17.584 29.312v10.8l-27.152 11.632 6.296 14.704 20.856-8.936v8.36c-1.2 3.688-3.352 8.712-6.928 13.784l-14.872-4.248-4.392 15.384 5.744 1.64c-6.104 3.752-12.92 6.016-20.288 6.704a8 8 0 0 0-6.784 5.248 7.984 7.984 0 0 0 1.864 8.368l16 16a7.965 7.965 0 0 0 5.656 2.344h87.432c4.576.696 28.76 5.408 41.624 27.968 13.168 23.08 4.168 47.024.96 54.08l-27.904 13.952h-72.352l-5.76-17.296v-20.28l10.24-15.36a6.844 6.844 0 0 1 5.712-3.064c3.456 0 5.232 2.28 5.832 3.256.608.984 1.848 3.592.304 6.672l-5.248 10.496a7.995 7.995 0 0 0 1.504 9.232l8 8a7.965 7.965 0 0 0 5.656 2.344h40v-16h-36.688l-1.576-1.576 2.672-5.336c3.568-7.136 3.184-15.456-1.008-22.24s-11.472-10.848-19.448-10.848a22.847 22.847 0 0 0-19.024 10.176l-11.584 17.384a8.064 8.064 0 0 0-1.344 4.44v24c0 .856.144 1.712.416 2.528l4.488 13.472h-28.904v-56h-16v56h-24v-120a8.004 8.004 0 0 0-7.256-7.968c-5.856-.544-11.352-2.112-16.432-4.608l10.504-3.936-5.624-14.984-19.68 7.384c-5.192-6.128-8.048-12.608-9.512-17.112v-8.368l20.848 8.936 6.296-14.704-27.144-11.624v-10.8l17.584-29.312 16.76 16.752a7.965 7.965 0 0 0 5.656 2.344zM75.891 438.893a7.994 7.994 0 0 0 9.216-.696 8.01 8.01 0 0 0 2.408-8.92c-5.984-16.288-17.968-59.264-.032-106.4 1.176-3.096 2.512-6.008 3.848-8.912l.016.008c26.936-58.536 83.888-78.832 95.04-82.304a7.974 7.974 0 0 0 5.624-7.632v-96c0-2.12-.84-4.16-2.344-5.656l-8-8a7.965 7.965 0 0 0-5.656-2.344h-24a8.044 8.044 0 0 0-4.44 1.344l-18.544 12.36-6.568-6.568 33.672-47.136h22.936l13.792 27.576a7.988 7.988 0 0 0 7.152 4.424h96c3.032 0 5.8-1.712 7.16-4.424l13.784-27.576h14.776l26.664 40-8.6 12.904-17.344-11.56a8.044 8.044 0 0 0-4.44-1.344h-16c-2.128 0-4.16.84-5.656 2.344l-16 16a7.979 7.979 0 0 0-2.344 5.656v104h-20.688l-21.656-21.656a8.024 8.024 0 0 0-6.632-2.288 7.993 7.993 0 0 0-5.88 3.824l-24 40a7.978 7.978 0 0 0-1.144 4.12v6.16l-12.848-5.504-6.296 14.704 19.144 8.2v16.44c0 .784.12 1.56.344 2.312 1.472 4.896 4.376 12.112 9.536 19.44l-28.688 10.76 5.624 14.984 34.832-13.064a62.424 62.424 0 0 0 6.136 4.36c6.136 3.824 13.016 6.56 20.224 8.08v49.08l-47.376-.152-.048 16 47.416.152v48.048h-16c0-17.648-14.352-32-32-32h-16c0-39.696-32.296-72-72-72h-8v16h8c30.872 0 56 25.12 56 56v8c0 4.416 3.576 8 8 8h24c8.824 0 16 7.176 16 16H74.307l-58.296-36.432v-51.568a8.044 8.044 0 0 1 3.192-6.4c2.48-1.856 5.608-2.144 8.384-.752 2.768 1.384 4.424 4.056 4.424 7.152v32a8.006 8.006 0 0 0 3.88 6.856z"/><path d="M71.123 283.093c-48.256-61.28-65.992-124.088-48.648-172.312 12.96-36.048 54.792-91 116.888-94.64 40.08-2.248 72.072 30.856 87.44 46.816 2.936 3.04 5.312 5.496 7.072 7.056a8.025 8.025 0 0 0 3.4 1.792l.824.2a7.993 7.993 0 0 0 7.24-1.792c1.704-1.512 4-3.864 6.84-6.784 15.624-16.048 48.24-49.368 88.488-47.096 62.104 3.648 103.928 58.6 116.888 94.648 19.72 54.816-5.928 127.944-68.6 195.616l11.736 10.872c66.816-72.144 93.704-151.36 71.928-211.904C458.211 65.525 411.443 4.461 341.603.365c-47.472-2.856-83.608 34.152-100.896 51.912l-.992 1.016c-.448-.456-.904-.936-1.392-1.44-17.024-17.68-52.72-54.544-99.896-51.68-69.84 4.096-116.608 65.152-131.016 105.2-19.24 53.52-.608 121.904 51.128 187.616z"/><path d="M208.011 136.037h16v16h-16zm48 0h16v16h-16zm-32 32h32v16h-32zm32 104h16v16h-16zm48 0h16v16h-16zm-24 24h16v16h-16z"/></g></svg>