<svg viewBox="0 -87 512 512" xmlns="http://www.w3.org/2000/svg"><path d="M86 213.66h340v59.84H86zM86 67.5h340v59.84H86zm0 0" fill="#ffcd6b"/><path d="M86 127.336h340v86.324H86zm0 0" fill="#f0e9dc"/><path d="M396 213.66h30v59.84h-30zm0-146.16h30v59.84h-30zm0 0" fill="#f2ac4b"/><path d="M396 127.336h30v86.324h-30zm0 0" fill="#ded7cb"/><g fill="#d63e45"><path d="M186.5 137.367c0 14.32-11.64 25.93-26 25.93s-26-11.61-26-25.93c0-3.558.719-6.949 2.02-10.031h47.96a25.74 25.74 0 0 1 2.02 10.031zm74.34 71.387a21.65 21.65 0 0 1-.559 4.91H217.25a21.431 21.431 0 0 1-.559-4.91c0-12.156 9.88-22.02 22.07-22.02 12.2 0 22.079 9.864 22.079 22.02zM356.168 168c0-12.164-9.887-22.02-22.078-22.02-12.195 0-22.082 9.856-22.082 22.02 0 12.16 9.887 22.02 22.082 22.02 12.191 0 22.078-9.86 22.078-22.02zm0 0"/></g><path d="M478.5 303.5h-445c-14.36 0-26-11.64-26-26a4 4 0 0 1 4-4h489a4 4 0 0 1 4 4c0 14.36-11.64 26-26 26zm0 0" fill="#f0e9dc"/><path d="M500.5 273.5h-30a4 4 0 0 1 4 4c0 14.36-11.64 26-26 26h30c14.36 0 26-11.64 26-26a4 4 0 0 0-4-4zm-104.5 56H116c-11.047 0-20-8.953-20-20v-6h320v6c0 11.047-8.953 20-20 20zm0 0" fill="#ded7cb"/><path d="M298 46.508c0 1.726-.242 3.46-.746 5.176-2.711 9.304-12.32 15.816-23.34 15.816h-35.828c-11.02 0-20.629-6.512-23.34-15.816-.5-1.715-.746-3.45-.746-5.176 0-6.016 2.98-11.852 8.344-15.899l28.32-21.32a8.842 8.842 0 0 1 10.66 0l28.332 21.32C295.02 34.656 298 40.492 298 46.508zm0 0" fill="#d63e45"/><path d="M289.656 30.61L261.324 9.284a8.848 8.848 0 0 0-10.66.004l-9.668 7.277 18.66 14.043C265.02 34.656 268 40.492 268 46.508c0 1.726-.242 3.46-.746 5.176-2.711 9.304-12.32 15.816-23.34 15.816h30c11.02 0 20.633-6.512 23.344-15.816.5-1.715.742-3.45.742-5.176 0-6.016-2.98-11.852-8.344-15.899zm0 0" fill="#ba363c"/><path d="M198 46.508c0 1.726-.242 3.46-.746 5.176-2.711 9.304-12.32 15.816-23.34 15.816h-35.828c-11.02 0-20.629-6.512-23.34-15.816-.5-1.715-.746-3.45-.746-5.176 0-6.016 2.98-11.852 8.344-15.899l28.32-21.32a8.842 8.842 0 0 1 10.66 0l28.332 21.32C195.02 34.656 198 40.492 198 46.508zm0 0" fill="#d63e45"/><path d="M189.656 30.61L161.324 9.284a8.848 8.848 0 0 0-10.66.004l-9.668 7.277 18.66 14.043C165.02 34.656 168 40.492 168 46.508c0 1.726-.242 3.46-.746 5.176-2.711 9.304-12.32 15.816-23.34 15.816h30c11.02 0 20.633-6.512 23.344-15.816.5-1.715.742-3.45.742-5.176 0-6.016-2.98-11.852-8.344-15.899zm0 0" fill="#ba363c"/><path d="M398 46.508c0 1.726-.242 3.46-.746 5.176-2.711 9.304-12.32 15.816-23.34 15.816h-35.828c-11.02 0-20.629-6.512-23.34-15.816-.5-1.715-.746-3.45-.746-5.176 0-6.016 2.98-11.852 8.344-15.899l28.32-21.32a8.842 8.842 0 0 1 10.66 0l28.332 21.32C395.02 34.656 398 40.492 398 46.508zm0 0" fill="#d63e45"/><path d="M389.656 30.61L361.324 9.284a8.848 8.848 0 0 0-10.66.004l-9.668 7.277 18.66 14.043C365.02 34.656 368 40.492 368 46.508c0 1.726-.242 3.46-.746 5.176-2.711 9.304-12.32 15.816-23.34 15.816h30c11.02 0 20.633-6.512 23.344-15.816.5-1.715.742-3.45.742-5.176 0-6.016-2.98-11.852-8.344-15.899zm0 0" fill="#ba363c"/><path d="M500.5 265.996h-67V67.484a7.503 7.503 0 0 0-7.5-7.504h-24.273a26.7 26.7 0 0 0 2.726-6.214 25.896 25.896 0 0 0 1.047-7.278c0-8.476-4.129-16.453-11.332-21.89L365.836 3.273c-5.797-4.363-13.89-4.363-19.684 0l-28.328 21.329c-7.195 5.43-11.324 13.41-11.324 21.886 0 2.453.352 4.903 1.043 7.274a26.906 26.906 0 0 0 2.73 6.218h-8.546a26.7 26.7 0 0 0 2.726-6.214 25.896 25.896 0 0 0 1.047-7.278c0-8.476-4.129-16.453-11.332-21.89L265.836 3.273c-5.797-4.363-13.89-4.363-19.684 0l-28.328 21.329c-7.195 5.43-11.324 13.41-11.324 21.886 0 2.453.352 4.903 1.043 7.274a26.906 26.906 0 0 0 2.73 6.218h-8.546a26.7 26.7 0 0 0 2.726-6.214 25.896 25.896 0 0 0 1.047-7.278c0-8.476-4.129-16.453-11.332-21.89L165.836 3.273c-5.797-4.363-13.89-4.363-19.684 0l-28.328 21.329c-7.195 5.43-11.324 13.41-11.324 21.886 0 2.453.352 4.903 1.043 7.274a26.906 26.906 0 0 0 2.73 6.218H86c-4.14 0-7.5 3.36-7.5 7.504v18.38c0 4.144 3.36 7.503 7.5 7.503s7.5-3.36 7.5-7.504V74.984h325v44.836h-325v-1.914a7.5 7.5 0 1 0-15 0v148.09h-67c-6.34 0-11.5 5.16-11.5 11.5C0 295.97 15.027 311 33.5 311h55.043c.781 14.469 12.797 26 27.457 26h280c14.66 0 26.676-11.531 27.457-26H478.5c18.473 0 33.5-15.031 33.5-33.504 0-6.34-5.16-11.5-11.5-11.5zM138.086 59.98c-7.594 0-14.383-4.378-16.145-10.421a10.989 10.989 0 0 1-.441-3.07c0-3.731 1.953-7.344 5.352-9.91l28.324-21.325c.242-.184.531-.274.816-.274.29 0 .578.09.824.274l28.32 21.32c3.41 2.57 5.364 6.184 5.364 9.914a10.92 10.92 0 0 1-.445 3.075c-1.758 6.039-8.547 10.417-16.14 10.417zm100 0c-7.594 0-14.383-4.378-16.145-10.421a10.989 10.989 0 0 1-.441-3.07c0-3.731 1.953-7.344 5.352-9.91l28.324-21.325c.242-.184.531-.274.816-.274.29 0 .578.09.824.274l28.32 21.32c3.41 2.57 5.364 6.184 5.364 9.914a10.92 10.92 0 0 1-.445 3.075c-1.758 6.039-8.547 10.417-16.14 10.417zm100 0c-7.594 0-14.383-4.378-16.145-10.421a10.989 10.989 0 0 1-.441-3.07c0-3.731 1.953-7.344 5.352-9.91l28.324-21.325c.242-.184.531-.274.816-.274.29 0 .578.09.824.274l28.32 21.32c3.41 2.57 5.364 6.184 5.364 9.914a10.92 10.92 0 0 1-.445 3.075c-1.758 6.039-8.547 10.417-16.14 10.417zm-159.258 74.84a18.8 18.8 0 0 1 .172 2.535c0 10.165-8.3 18.43-18.5 18.43s-18.5-8.265-18.5-18.43c0-.855.059-1.703.172-2.535zM396 322H116c-6.387 0-11.668-4.813-12.41-11h304.82c-.742 6.188-6.023 11-12.41 11zm82.5-26.004h-445c-9.004 0-16.527-6.465-18.168-15H128a7.5 7.5 0 1 0 0-15H93.5v-44.844h258.375a7.5 7.5 0 1 0 0-15h-83.656c-1.32-15.066-14.024-26.93-29.457-26.93-15.43 0-28.13 11.864-29.45 26.93H93.5V134.82h33.605c-.062.84-.105 1.684-.105 2.535 0 18.434 15.027 33.43 33.5 33.43s33.5-14.996 33.5-33.43c0-.851-.043-1.695-.105-2.535H418.5v71.332H384a7.5 7.5 0 1 0 0 15h34.5v44.844H160a7.5 7.5 0 1 0 0 15h336.668c-1.64 8.535-9.164 15-18.168 15zm-254.078-89.844c1.23-6.773 7.191-11.925 14.34-11.925 7.148 0 13.113 5.152 14.343 11.925zm0 0"/><path d="M334.09 138.465c-16.313 0-29.582 13.242-29.582 29.523 0 16.278 13.27 29.52 29.582 29.52 16.308 0 29.578-13.242 29.578-29.52 0-16.281-13.27-29.523-29.578-29.523zm0 44.043c-8.04 0-14.582-6.516-14.582-14.52 0-8.008 6.543-14.523 14.582-14.523 8.039 0 14.578 6.515 14.578 14.523 0 8.004-6.54 14.52-14.578 14.52zm0 0"/></svg>