<svg viewBox="0 -87 512 512" xmlns="http://www.w3.org/2000/svg"><path d="m86 213.660156h340v59.839844h-340zm0 0" fill="#ffcd6b"/><path d="m86 67.5h340v59.839844h-340zm0 0" fill="#ffcd6b"/><path d="m86 127.335938h340v86.324218h-340zm0 0" fill="#f0e9dc"/><path d="m396 213.660156h30v59.839844h-30zm0 0" fill="#f2ac4b"/><path d="m396 67.5h30v59.839844h-30zm0 0" fill="#f2ac4b"/><path d="m396 127.335938h30v86.324218h-30zm0 0" fill="#ded7cb"/><g fill="#d63e45"><path d="m186.5 137.367188c0 14.320312-11.640625 25.929687-26 25.929687s-26-11.609375-26-25.929687c0-3.558594.71875-6.949219 2.019531-10.03125h47.960938c1.300781 3.082031 2.019531 6.472656 2.019531 10.03125zm0 0"/><path d="m260.839844 208.753906c0 1.6875-.191406 3.332032-.558594 4.910156h-43.03125c-.371094-1.578124-.558594-3.222656-.558594-4.910156 0-12.15625 9.878906-22.019531 22.070313-22.019531 12.199219 0 22.078125 9.863281 22.078125 22.019531zm0 0"/><path d="m356.167969 168c0-12.164062-9.886719-22.019531-22.078125-22.019531-12.195313 0-22.082032 9.855469-22.082032 22.019531 0 12.160156 9.886719 22.019531 22.082032 22.019531 12.191406 0 22.078125-9.859375 22.078125-22.019531zm0 0"/></g><path d="m478.5 303.5h-445c-14.359375 0-26-11.640625-26-26 0-2.207031 1.789062-4 4-4h489c2.210938 0 4 1.792969 4 4 0 14.359375-11.640625 26-26 26zm0 0" fill="#f0e9dc"/><path d="m500.5 273.5h-30c2.210938 0 4 1.792969 4 4 0 14.359375-11.640625 26-26 26h30c14.359375 0 26-11.640625 26-26 0-2.207031-1.789062-4-4-4zm0 0" fill="#ded7cb"/><path d="m396 329.5h-280c-11.046875 0-20-8.953125-20-20v-6h320v6c0 11.046875-8.953125 20-20 20zm0 0" fill="#ded7cb"/><path d="m298 46.507812c0 1.726563-.242188 3.460938-.746094 5.175782-2.710937 9.304687-12.320312 15.816406-23.339844 15.816406h-35.828124c-11.019532 0-20.628907-6.511719-23.339844-15.816406-.5-1.714844-.746094-3.449219-.746094-5.175782 0-6.015624 2.980469-11.851562 8.34375-15.898437l28.320312-21.320313c3.164063-2.382812 7.496094-2.382812 10.660157 0l28.332031 21.320313c5.363281 4.046875 8.34375 9.882813 8.34375 15.898437zm0 0" fill="#d63e45"/><path d="m289.65625 30.609375-28.332031-21.324219c-3.164063-2.378906-7.496094-2.378906-10.660157.003906l-9.667968 7.277344 18.660156 14.042969c5.363281 4.046875 8.34375 9.882813 8.34375 15.898437 0 1.726563-.242188 3.460938-.746094 5.175782-2.710937 9.304687-12.320312 15.816406-23.339844 15.816406h30c11.019532 0 20.632813-6.511719 23.34375-15.816406.5-1.714844.742188-3.449219.742188-5.175782 0-6.015624-2.980469-11.851562-8.34375-15.898437zm0 0" fill="#ba363c"/><path d="m198 46.507812c0 1.726563-.242188 3.460938-.746094 5.175782-2.710937 9.304687-12.320312 15.816406-23.339844 15.816406h-35.828124c-11.019532 0-20.628907-6.511719-23.339844-15.816406-.5-1.714844-.746094-3.449219-.746094-5.175782 0-6.015624 2.980469-11.851562 8.34375-15.898437l28.320312-21.320313c3.164063-2.382812 7.496094-2.382812 10.660157 0l28.332031 21.320313c5.363281 4.046875 8.34375 9.882813 8.34375 15.898437zm0 0" fill="#d63e45"/><path d="m189.65625 30.609375-28.332031-21.324219c-3.164063-2.378906-7.496094-2.378906-10.660157.003906l-9.667968 7.277344 18.660156 14.042969c5.363281 4.046875 8.34375 9.882813 8.34375 15.898437 0 1.726563-.242188 3.460938-.746094 5.175782-2.710937 9.304687-12.320312 15.816406-23.339844 15.816406h30c11.019532 0 20.632813-6.511719 23.34375-15.816406.5-1.714844.742188-3.449219.742188-5.175782 0-6.015624-2.980469-11.851562-8.34375-15.898437zm0 0" fill="#ba363c"/><path d="m398 46.507812c0 1.726563-.242188 3.460938-.746094 5.175782-2.710937 9.304687-12.320312 15.816406-23.339844 15.816406h-35.828124c-11.019532 0-20.628907-6.511719-23.339844-15.816406-.5-1.714844-.746094-3.449219-.746094-5.175782 0-6.015624 2.980469-11.851562 8.34375-15.898437l28.320312-21.320313c3.164063-2.382812 7.496094-2.382812 10.660157 0l28.332031 21.320313c5.363281 4.046875 8.34375 9.882813 8.34375 15.898437zm0 0" fill="#d63e45"/><path d="m389.65625 30.609375-28.332031-21.324219c-3.164063-2.378906-7.496094-2.378906-10.660157.003906l-9.667968 7.277344 18.660156 14.042969c5.363281 4.046875 8.34375 9.882813 8.34375 15.898437 0 1.726563-.242188 3.460938-.746094 5.175782-2.710937 9.304687-12.320312 15.816406-23.339844 15.816406h30c11.019532 0 20.632813-6.511719 23.34375-15.816406.5-1.714844.742188-3.449219.742188-5.175782 0-6.015624-2.980469-11.851562-8.34375-15.898437zm0 0" fill="#ba363c"/><path d="m500.5 265.996094h-67v-198.511719c0-4.144531-3.359375-7.503906-7.5-7.503906h-24.273438c1.15625-1.9375 2.085938-4.015625 2.726563-6.214844.695313-2.375 1.046875-4.824219 1.046875-7.277344 0-8.476562-4.128906-16.453125-11.332031-21.890625l-28.332031-21.324218c-5.796876-4.363282-13.890626-4.363282-19.683594 0l-28.328125 21.328124c-7.195313 5.429688-11.324219 13.410157-11.324219 21.886719 0 2.453125.351562 4.902344 1.042969 7.273438.644531 2.203125 1.574219 4.277343 2.730469 6.21875h-8.546876c1.15625-1.9375 2.085938-4.015625 2.726563-6.214844.695313-2.375 1.046875-4.824219 1.046875-7.277344 0-8.476562-4.128906-16.453125-11.332031-21.890625l-28.332031-21.324218c-5.796876-4.363282-13.890626-4.363282-19.683594 0l-28.328125 21.328124c-7.195313 5.429688-11.324219 13.410157-11.324219 21.886719 0 2.453125.351562 4.902344 1.042969 7.273438.644531 2.203125 1.574219 4.277343 2.730469 6.21875h-8.546876c1.15625-1.9375 2.085938-4.015625 2.726563-6.214844.695313-2.375 1.046875-4.824219 1.046875-7.277344 0-8.476562-4.128906-16.453125-11.332031-21.890625l-28.332031-21.324218c-5.796876-4.363282-13.890626-4.363282-19.683594 0l-28.328125 21.328124c-7.195313 5.429688-11.324219 13.410157-11.324219 21.886719 0 2.453125.351562 4.902344 1.042969 7.273438.644531 2.203125 1.574219 4.277343 2.730469 6.21875h-24.273438c-4.140625 0-7.5 3.359375-7.5 7.503906v18.378906c0 4.144531 3.359375 7.503907 7.5 7.503907s7.5-3.359376 7.5-7.503907v-10.878906h325v44.835937h-325v-1.914062c0-4.144531-3.359375-7.5-7.5-7.5s-7.5 3.355469-7.5 7.5v148.089844h-67c-6.339844 0-11.5 5.160156-11.5 11.5 0 18.472656 15.027344 33.503906 33.5 33.503906h55.042969c.78125 14.46875 12.796875 26 27.457031 26h280c14.660156 0 26.675781-11.53125 27.457031-26h55.042969c18.472656 0 33.5-15.03125 33.5-33.503906 0-6.339844-5.160156-11.5-11.5-11.5zm-362.414062-206.015625c-7.59375 0-14.382813-4.378907-16.144532-10.421875-.292968-1.007813-.441406-2.039063-.441406-3.070313 0-3.730469 1.953125-7.34375 5.351562-9.910156l28.324219-21.324219c.242188-.183594.53125-.273437.816407-.273437.289062 0 .578124.089843.824218.273437l28.320313 21.320313c3.410156 2.570312 5.363281 6.183593 5.363281 9.914062 0 1.027344-.148438 2.0625-.445312 3.074219-1.757813 6.039062-8.546876 10.417969-16.140626 10.417969zm100 0c-7.59375 0-14.382813-4.378907-16.144532-10.421875-.292968-1.007813-.441406-2.039063-.441406-3.070313 0-3.730469 1.953125-7.34375 5.351562-9.910156l28.324219-21.324219c.242188-.183594.53125-.273437.816407-.273437.289062 0 .578124.089843.824218.273437l28.320313 21.320313c3.410156 2.570312 5.363281 6.183593 5.363281 9.914062 0 1.027344-.148438 2.0625-.445312 3.074219-1.757813 6.039062-8.546876 10.417969-16.140626 10.417969zm100 0c-7.59375 0-14.382813-4.378907-16.144532-10.421875-.292968-1.007813-.441406-2.039063-.441406-3.070313 0-3.730469 1.953125-7.34375 5.351562-9.910156l28.324219-21.324219c.242188-.183594.53125-.273437.816407-.273437.289062 0 .578124.089843.824218.273437l28.320313 21.320313c3.410156 2.570312 5.363281 6.183593 5.363281 9.914062 0 1.027344-.148438 2.0625-.445312 3.074219-1.757813 6.039062-8.546876 10.417969-16.140626 10.417969zm-159.257813 74.839843c.113281.832032.171875 1.679688.171875 2.535157 0 10.164062-8.300781 18.429687-18.5 18.429687s-18.5-8.265625-18.5-18.429687c0-.855469.058594-1.703125.171875-2.535157zm217.171875 187.179688h-280c-6.386719 0-11.667969-4.8125-12.410156-11h304.820312c-.742187 6.1875-6.023437 11-12.410156 11zm82.5-26.003906h-445c-9.003906 0-16.527344-6.464844-18.167969-15h112.667969c4.140625 0 7.5-3.355469 7.5-7.5 0-4.140625-3.359375-7.5-7.5-7.5h-34.5v-44.84375h258.375c4.140625 0 7.5-3.355469 7.5-7.5 0-4.140625-3.359375-7.5-7.5-7.5h-83.65625c-1.320312-15.066406-14.023438-26.929688-29.457031-26.929688-15.429688 0-28.128907 11.863282-29.449219 26.929688h-115.8125v-71.332032h33.605469c-.0625.839844-.105469 1.683594-.105469 2.535157 0 18.433593 15.027344 33.429687 33.5 33.429687s33.5-14.996094 33.5-33.429687c0-.851563-.042969-1.695313-.105469-2.535157h224.605469v71.332032h-34.5c-4.140625 0-7.5 3.359375-7.5 7.5 0 4.144531 3.359375 7.5 7.5 7.5h34.5v44.84375h-258.5c-4.140625 0-7.5 3.359375-7.5 7.5 0 4.144531 3.359375 7.5 7.5 7.5h336.667969c-1.640625 8.535156-9.164063 15-18.167969 15zm-254.078125-89.84375c1.230469-6.773438 7.191406-11.925782 14.339844-11.925782 7.148437 0 13.113281 5.152344 14.34375 11.925782zm0 0"/><path d="m334.089844 138.464844c-16.3125 0-29.582032 13.242187-29.582032 29.523437 0 16.277344 13.269532 29.519531 29.582032 29.519531 16.308594 0 29.578125-13.242187 29.578125-29.519531 0-16.28125-13.269531-29.523437-29.578125-29.523437zm0 44.042968c-8.039063 0-14.582032-6.515624-14.582032-14.519531 0-8.007812 6.542969-14.523437 14.582032-14.523437 8.039062 0 14.578125 6.515625 14.578125 14.523437 0 8.003907-6.539063 14.519531-14.578125 14.519531zm0 0"/></svg>