<svg xmlns="http://www.w3.org/2000/svg" viewBox="0 0 512 512"><path d="M282.2 145.5L227 90.4l9.9-9.9c4.8-4.8 4.8-12.5 0-17.3-4.8-4.8-12.5-4.8-17.3 0l-40.5 40.5-67-67c-4.8-4.8-12.5-4.8-17.3 0-4.8 4.8-4.8 12.5 0 17.3l67 67-62.6 62.6-67-67c-4.8-4.8-12.5-4.8-17.3 0-4.8 4.8-4.8 12.5 0 17.3l67 67-40.5 40.5c-4.8 4.8-4.8 12.5 0 17.3 2.4 2.4 5.5 3.6 8.7 3.6s6.3-1.2 8.7-3.6l9.9-9.9 55.1 55.1c21.8 21.8 50.5 32.7 79.2 32.7 11.8 0 23.7-2 35-5.7l31.5 31.5c5.8 5.7 13.3 8.6 20.9 8.6 7.6 0 15.1-2.9 20.9-8.6l6.1-6.1 3.7 3.7c20.7 20.7 54.3 20.7 75 0l31.4-31.4c11.1-11.1 29.2-11.1 40.4 0 11.1 11.1 11.1 29.2 0 40.4l-31.4 31.5c-10 10-15.5 23.3-15.5 37.5s5.5 27.5 15.5 37.5c2.4 2.4 5.5 3.6 8.7 3.6s6.3-1.2 8.7-3.6c4.8-4.8 4.8-12.5 0-17.3-5.4-5.4-8.4-12.6-8.4-20.2s3-14.8 8.4-20.2l31.4-31.5c20.7-20.7 20.7-54.3 0-75-20.7-20.7-54.3-20.7-75 0l-31.4 31.4c-11.1 11.1-29.2 11.1-40.4 0l-3.7-3.7 6.1-6.1c5.6-5.6 8.6-13 8.6-20.9 0-7.9-3.1-15.3-8.6-20.9l-31.5-31.5c12.6-38.8 3.6-83.2-27.2-114.1zm-141 141.1L86 231.4l123.7-123.7 55.1 55.1c34.1 34.1 34.1 89.6 0 123.7-34 34.2-89.5 34.2-123.6.1zm182.2 21.9c1.3 1.3 1.5 2.8 1.5 3.5 0 .8-.2 2.3-1.5 3.5L293.9 345c-2 2-5.1 2-7.1 0l-25.1-25c7.3-4.5 14.2-9.8 20.5-16.1s11.6-13.2 16.1-20.5l25.1 25.1z"/></svg>