<svg xmlns="http://www.w3.org/2000/svg" viewBox="0 0 512 512"><path d="M442.182 108.606h-85.333V23.273C356.849 10.42 346.429 0 333.576 0s-23.273 10.42-23.273 23.273v85.333H201.697V23.273C201.697 10.42 191.277 0 178.424 0s-23.273 10.42-23.273 23.273v85.333H69.818c-12.853 0-23.273 10.42-23.273 23.273s10.42 23.273 23.273 23.273h7.758V256c0 90.497 67.724 165.468 155.152 176.907v55.82C232.727 501.58 243.147 512 256 512c12.853 0 23.273-10.42 23.273-23.273v-55.82c87.428-11.441 155.152-86.41 155.152-176.907V155.152h7.758c12.853 0 23.273-10.42 23.273-23.273-.001-12.853-10.421-23.273-23.274-23.273zM387.879 256c0 72.718-59.161 131.879-131.879 131.879S124.121 328.718 124.121 256V155.152h263.758V256z"/></svg>