<svg xmlns="http://www.w3.org/2000/svg" viewBox="0 0 480.022 480.022"><path fill="#ffd884" d="M472 128.635c-.038-12.879-10.234-23.431-23.104-23.912-.8-1.672-1.6-3.392-2.456-5.024 10.667-7.778 13.009-22.731 5.23-33.398-7.778-10.667-22.731-13.009-33.398-5.23-.506.369-.997.757-1.472 1.165-1.112-1.008-2.184-2.056-3.328-3.024 1.65-3.282 2.515-6.903 2.528-10.576.03-13.228-10.67-23.976-23.898-24.006-7.758-.017-15.043 3.723-19.55 10.038-4.176-1.637-8.443-3.085-12.8-4.344-1.193-13.121-12.798-22.79-25.919-21.597-9.45.86-17.493 7.238-20.481 16.245-3.528.16-7.04.368-10.496.8-3.811-12.658-17.161-19.831-29.82-16.02-10.101 3.039-17.02 12.334-17.036 22.883.032 2.252.385 4.488 1.048 6.64l-.344.168c-9.518-9.225-24.712-8.989-33.937.529-4.33 4.467-6.756 10.442-6.767 16.663 0 .52.12 1.008.152 1.52-2.607-.981-5.367-1.495-8.152-1.52-13.211-.045-23.956 10.628-24.001 23.839-.011 3.115.588 6.203 1.761 9.089-12.729 3.365-20.32 16.413-16.954 29.142 1.679 6.349 5.902 11.725 11.674 14.858-2.929 11.462-4.434 23.242-4.48 35.072h288c-.056-6.981-.617-13.948-1.68-20.848 6.077-4.492 9.668-11.596 9.68-19.152z"/><path fill="#e3472c" d="M436.92 472.635H203.08l-35.08-304h304l-35.08 304z"/><path fill="#f6f6e7" d="M296 472.635l-8-304h-64l24 304h48z"/><g fill="#dd1c4b"><path d="M294.24 405.859l1.76 66.776h48l.872-33.048c-17.894-9.637-34.845-20.929-50.632-33.728zM182.808 229.723L168 168.635l35.08 304H248l-9.904-125.464c-26.141-35.033-44.945-74.979-55.288-117.448zM392.936 460.755l-.936 11.88h44.92c-14.92-2.932-29.617-6.902-43.984-11.88z"/></g><path fill="#ffd884" d="M238.096 347.171L248 472.635h48l-1.76-66.776c-21.088-17.146-39.949-36.862-56.144-58.688z"/><path fill="#f6f6e7" d="M416 168.635h-64l-7.128 270.952c15.424 8.341 31.498 15.42 48.064 21.168L416 168.635z"/><path fill="#ffd884" d="M344.872 439.587L344 472.635h48l.936-11.88c-16.566-5.749-32.64-12.828-48.064-21.168z"/><path fill="#e3472c" d="M176 232.635l-18.464 240H34.464L16 232.635"/><path fill="#dd1c4b" d="M16 232.635l18.464 240H64v-240H16z"/><path fill="#f6f6e7" d="M8 200.635h176v32H8v-32z"/><path fill="#ffd884" d="M8 200.635h32v32H8v-32z"/><path fill="#f6f6e7" d="M138.024 318.643c-11.261-3.752-23.653-1.63-33.024 5.656l-23.4 18.184c-14.231 11.067-34.497 9.711-47.128-3.152l-11.2-11.28 4.392 57.024 40.656 4.76c12.209 1.771 24.461-2.924 32.36-12.4 9.508-11.412 25.116-15.699 39.12-10.744l25.208 8.912 3.752-48.8-30.736-8.16z"/><path fill="#2bb3ce" d="M112 200.635l-24-104H8v32h56l16 72h32z"/><path fill="#ffd884" d="M64 349.699c-10.913 1.295-21.809-2.547-29.496-10.4l-11.2-11.28 4.392 57.024L64 389.323v-39.624z"/><path d="M472 160.019h-.272c-.192-3.072-.488-6.264-.912-9.664 12.36-12.527 12.225-32.701-.302-45.061-3.391-3.346-7.49-5.89-11.994-7.443 3.581-5.256 5.491-11.472 5.48-17.832 0-17.673-14.327-32-32-32-2.7-.004-5.389.343-8 1.032v-1.032c.028-17.642-14.252-31.966-31.894-31.994-8.118-.013-15.936 3.066-21.866 8.61-1.168-.408-2.328-.8-3.496-1.176-4.63-16.96-22.133-26.954-39.092-22.324-8.365 2.284-15.437 7.882-19.58 15.5H308C302.447 6.354 291.684-.033 280 .019c-15.051.02-28.062 10.505-31.28 25.208-17.004-4.818-34.694 5.061-39.511 22.065-.07.247-.137.494-.201.743-17.541-.676-32.309 12.995-32.985 30.535-.019.488-.026.976-.023 1.465-.004 1.413.092 2.825.288 4.224-15.318 8.564-20.793 27.924-12.228 43.242 1.906 3.409 4.424 6.438 7.428 8.934-1.619 7.776-2.627 15.667-3.016 23.6H168c-4.418-.003-8.002 3.577-8.005 7.995 0 .309.018.618.053.925l2.672 23.08h-42.848c.052-.649.019-1.303-.096-1.944l-24-96c-.887-3.572-4.096-6.077-7.776-6.072H8c-4.418 0-8 3.582-8 8v32c0 4.418 3.582 8 8 8h49.768l14.008 56H8c-4.418 0-8 3.582-8 8v32c0 4.418 3.582 8 8 8h.592l17.912 232.616c.322 4.176 3.812 7.396 8 7.384H157.6c4.188.012 7.678-3.208 8-7.384l11.832-153.824 17.784 154.128c.467 4.034 3.883 7.078 7.944 7.08h233.784c4.061-.001 7.477-3.046 7.944-7.08l35.08-304c.508-4.389-2.638-8.359-7.027-8.867-.312-.036-.627-.054-.941-.053zm-287.624-34.072c-7.719-4.117-10.639-13.712-6.523-21.431 2.087-3.912 5.718-6.771 10.011-7.881 4.265-1.155 6.786-5.548 5.631-9.813-.081-.3-.18-.595-.295-.883-3.375-8.071.432-17.35 8.503-20.725 3.749-1.568 7.956-1.635 11.753-.187 4.155 1.502 8.741-.649 10.243-4.804.385-1.066.54-2.202.453-3.332 0-.168-.104-.736-.128-.904.027-8.837 7.211-15.978 16.048-15.952 4.133.012 8.1 1.624 11.072 4.496 2.547 2.283 6.215 2.813 9.304 1.344 3.565-1.665 5.39-5.674 4.304-9.456-.452-1.425-.705-2.906-.752-4.4-.003-8.801 7.13-15.938 15.931-15.941 7.039-.002 13.247 4.614 15.269 11.357 1.118 3.718 4.745 6.096 8.6 5.64 3.256-.384 6.576-.576 9.912-.728 3.287-.155 6.144-2.307 7.2-5.424 2.737-8.318 11.699-12.843 20.018-10.106 6.019 1.98 10.281 7.354 10.838 13.666.315 3.302 2.635 6.068 5.832 6.952 4 1.152 8.064 2.528 12.064 4.104 3.405 1.341 7.285.201 9.424-2.768 2.95-4.216 7.766-6.735 12.912-6.752 8.748-.101 15.921 6.908 16.022 15.656.03 2.556-.56 5.081-1.718 7.36-1.612 3.273-.806 7.221 1.96 9.6.688.584 1.352 1.2 2.016 1.824l1.128 1.04c2.946 2.683 7.418 2.789 10.488.248 2.829-2.385 6.404-3.704 10.104-3.728 8.797-.037 15.958 7.064 15.995 15.861.021 5.047-2.351 9.806-6.395 12.827-3.156 2.391-4.088 6.732-2.192 10.208.496.896.928 1.824 1.36 2.76l.952 1.984c1.301 2.631 3.939 4.338 6.872 4.448 8.762.253 15.66 7.562 15.406 16.324-.142 4.892-2.532 9.445-6.478 12.34-2.347 1.758-3.544 4.659-3.12 7.56.616 4.232 1.048 8.072 1.304 11.688H184.28c.567-8.477 1.906-16.886 4-25.12.882-3.525-.721-7.201-3.904-8.952zm95.848 50.072l7.584 288h-32.392l-22.736-288h47.544zm16 0h47.568l-7.584 288h-32.392l-7.592-288zm63.576 0h47.56l-22.736 288H352.24l7.56-288zm-272 14.056l-16-64c-.895-3.574-4.116-6.074-7.8-6.056H16v-16h65.744l22.008 88h-15.88c.052-.649.019-1.303-.096-1.944h.024zM16 224.019v-16h160v16h-16v16h7.36l-5.952 77.368-20.856-6.952c-13.801-4.612-28.995-2.009-40.472 6.936l-23.36 18.176c-11.011 8.589-26.712 7.556-36.504-2.4l-9.112-9.312-6.4-83.792H48v-16l-32-.024zm16.944 123.736c15.58 12.628 37.822 12.804 53.6.424l23.368-18.176c7.258-5.663 16.872-7.309 25.6-4.384l24.656 8.216-2.32 30.096-15.352-5.432c-17.166-6.012-36.261-.765-47.944 13.176-6.096 7.341-15.574 10.978-25.016 9.6l-34.4-4.912-2.192-28.608zm8.944 116.264l-5.48-71.296 30.872 4.416c2.07.296 4.157.445 6.248.448 12.888.008 25.107-5.739 33.32-15.672 7.374-8.828 19.455-12.148 30.304-8.328l19.432 6.872-6.4 83.56H41.888zm142.48-224.072c4.246-.195 7.598-3.677 7.632-7.928v-32c0-4.418-3.582-8-8-8h-5.176l-1.848-16H216.6l22.736 288h-29.104l-25.864-224.072zm245.44 224.072H400.68l22.736-288h39.632l-33.24 288z"/><path d="M64.024 224.019h32v16h-32v-16zM112.024 224.019h32v16h-32v-16z"/></svg>