<?xml version="1.0" encoding="iso-8859-1"?>
<!-- Generator: Adobe Illustrator 19.0.0, SVG Export Plug-In . SVG Version: 6.00 Build 0)  -->
<svg version="1.1" id="Capa_1" xmlns="http://www.w3.org/2000/svg" xmlns:xlink="http://www.w3.org/1999/xlink" x="0px" y="0px"
	 viewBox="0 0 480 480" style="enable-background:new 0 0 480 480;" xml:space="preserve">
<path style="fill:#EFE5D3;" d="M440,224h-32h-22.232h-35.544H320v48c0,8.84-7.16,16-16,16s-16-7.16-16-16v16c0,8.84-7.16,16-16,16
	s-16-7.16-16-16v-32c0,8.84-7.16,16-16,16s-16-7.16-16-16v-32h-49.472h-45.064H72H40c-17.672,0-32,14.328-32,32s14.328,32,32,32h32
	v72c0,17.672,14.328,32,32,32h272c17.672,0,32-14.328,32-32v-72h32c17.672,0,32-14.328,32-32S457.672,224,440,224z"/>
<path style="fill:#68C9BA;" d="M288,88h-96h-88c-17.672,0-32,14.328-32,32v24h336v-24c0-17.672-14.328-32-32-32H288z"/>
<g>
	<circle style="fill:#F7BA21;" cx="24" cy="168" r="16"/>
	<circle style="fill:#F7BA21;" cx="24" cy="80" r="16"/>
	<path style="fill:#F7BA21;" d="M176,216c0-13.256-10.744-24-24-24s-24,10.744-24,24c0,2.824,0.576,5.488,1.472,8h45.064
		C175.424,221.488,176,218.824,176,216z"/>
	<path style="fill:#F7BA21;" d="M240,272c8.84,0,16-7.16,16-16v32c0,8.84,7.16,16,16,16s16-7.16,16-16v-16c0,8.84,7.16,16,16,16
		s16-7.16,16-16v-48h-32h-32h-32v32C224,264.84,231.16,272,240,272z"/>
	<path style="fill:#F7BA21;" d="M112,456c0-13.256-16-32-16-32s-16,18.744-16,32s7.16,16,16,16S112,469.256,112,456z"/>
	<path style="fill:#F7BA21;" d="M256,456c0-13.256-16-32-16-32s-16,18.744-16,32s7.16,16,16,16S256,469.256,256,456z"/>
	<path style="fill:#F7BA21;" d="M400,456c0-13.256-16-32-16-32s-16,18.744-16,32s7.16,16,16,16S400,469.256,400,456z"/>
	<path style="fill:#F7BA21;" d="M328,456c0-13.256-16-32-16-32s-16,18.744-16,32s7.16,16,16,16S328,469.256,328,456z"/>
	<path style="fill:#F7BA21;" d="M184,456c0-13.256-16-32-16-32s-16,18.744-16,32s7.16,16,16,16S184,469.256,184,456z"/>
	<path style="fill:#F7BA21;" d="M392,208c0-13.256-10.744-24-24-24s-24,10.744-24,24c0,6.176,2.4,11.744,6.232,16h35.544
		C389.6,219.744,392,214.176,392,208z"/>
	<circle style="fill:#F7BA21;" cx="456" cy="120" r="16"/>
	<circle style="fill:#F7BA21;" cx="456" cy="24" r="16"/>
</g>
<g>
	<path style="fill:#353535;" d="M440,216h-32h-9.168c0.688-2.608,1.168-5.272,1.168-8c0-17.648-14.352-32-32-32s-32,14.352-32,32
		c0,2.728,0.48,5.392,1.168,8H320h-96h-40c0-17.648-14.352-32-32-32s-32,14.352-32,32H72H40c-22.056,0-40,17.944-40,40
		s17.944,40,40,40h24v64c0,22.056,17.944,40,40,40h272c22.056,0,40-17.944,40-40v-64h24c22.056,0,40-17.944,40-40
		S462.056,216,440,216z M352,208c0-8.824,7.176-16,16-16s16,7.176,16,16c0,3.288-0.992,5.96-2.208,8h-27.576
		C352.992,213.96,352,211.288,352,208z M312,232v40c0,4.408-3.584,8-8,8s-8-3.592-8-8c0-4.416-3.576-8-8-8s-8,3.584-8,8v16
		c0,4.408-3.584,8-8,8s-8-3.592-8-8v-32c0-4.416-3.576-8-8-8s-8,3.584-8,8c0,4.408-3.584,8-8,8s-8-3.592-8-8v-24H312z M152,200
		c8.824,0,16,7.176,16,16h-32C136,207.176,143.176,200,152,200z M40,280c-13.232,0-24-10.768-24-24s10.768-24,24-24h24v48H40z
		 M400,360c0,13.232-10.768,24-24,24H104c-13.232,0-24-10.768-24-24v-72v-56h49.472h45.064H216v24c0,13.232,10.768,24,24,24
		c2.808,0,5.504-0.488,8-1.368V288c0,13.232,10.768,24,24,24c11.048,0,20.384-7.504,23.16-17.688C297.896,295.4,300.88,296,304,296
		c13.232,0,24-10.768,24-24v-40h22.224h35.544H400v56V360z M440,280h-24v-48h24c13.232,0,24,10.768,24,24S453.232,280,440,280z"/>
	<path style="fill:#353535;" d="M64,120v24c0,4.416,3.576,8,8,8h336c4.424,0,8-3.584,8-8v-24c0-22.056-17.944-40-40-40h-80v-8
		c0-22.056-17.944-40-40-40h-32c-22.056,0-40,17.944-40,40v8h-80C81.944,80,64,97.944,64,120z M200,72c0-13.232,10.768-24,24-24h32
		c13.232,0,24,10.768,24,24v8h-80V72z M80,120c0-13.232,10.768-24,24-24h88h96h88c13.232,0,24,10.768,24,24v16H80V120z"/>
	<path style="fill:#353535;" d="M24,192c13.232,0,24-10.768,24-24s-10.768-24-24-24S0,154.768,0,168S10.768,192,24,192z M24,160
		c4.416,0,8,3.592,8,8s-3.584,8-8,8s-8-3.592-8-8S19.584,160,24,160z"/>
	<path style="fill:#353535;" d="M24,104c13.232,0,24-10.768,24-24S37.232,56,24,56S0,66.768,0,80S10.768,104,24,104z M24,72
		c4.416,0,8,3.592,8,8s-3.584,8-8,8s-8-3.592-8-8S19.584,72,24,72z"/>
	<path style="fill:#353535;" d="M48,480h384v-16h-24.96c0.712-2.832,0.96-5.624,0.96-8c0-15.752-16.08-35.048-17.912-37.192
		c-3.048-3.552-9.128-3.552-12.168,0C376.08,420.952,360,440.248,360,456c0,2.376,0.256,5.168,0.96,8h-25.92
		c0.712-2.832,0.96-5.624,0.96-8c0-15.752-16.08-35.048-17.912-37.192c-3.048-3.552-9.128-3.552-12.168,0
		C304.08,420.952,288,440.248,288,456c0,2.376,0.256,5.168,0.96,8h-25.92c0.712-2.832,0.96-5.624,0.96-8
		c0-15.752-16.08-35.048-17.912-37.192c-3.048-3.552-9.128-3.552-12.168,0C232.08,420.952,216,440.248,216,456
		c0,2.376,0.256,5.168,0.96,8h-25.92c0.712-2.832,0.96-5.624,0.96-8c0-15.752-16.08-35.048-17.912-37.192
		c-3.048-3.552-9.128-3.552-12.168,0C160.08,420.952,144,440.248,144,456c0,2.376,0.256,5.168,0.96,8h-25.92
		c0.712-2.832,0.96-5.624,0.96-8c0-15.752-16.08-35.048-17.912-37.192c-3.048-3.552-9.128-3.552-12.168,0
		C88.08,420.952,72,440.248,72,456c0,2.376,0.256,5.168,0.96,8H48V480z M376,456c0-4.968,3.824-12.352,7.984-18.632
		c4.048,6.12,8.016,13.6,8.016,18.632c0,7.056-1.608,8-8,8S376,463.056,376,456z M304,456c0-4.968,3.824-12.352,7.984-18.632
		c4.048,6.12,8.016,13.6,8.016,18.632c0,7.056-1.608,8-8,8S304,463.056,304,456z M232,456c0-4.968,3.824-12.352,7.984-18.632
		c4.048,6.12,8.016,13.6,8.016,18.632c0,7.056-1.608,8-8,8S232,463.056,232,456z M160,456c0-4.968,3.824-12.352,7.984-18.632
		c4.048,6.12,8.016,13.6,8.016,18.632c0,7.056-1.608,8-8,8S160,463.056,160,456z M88,456c0-4.968,3.824-12.352,7.984-18.632
		c4.048,6.12,8.016,13.6,8.016,18.632c0,7.056-1.608,8-8,8S88,463.056,88,456z"/>
	<path style="fill:#353535;" d="M456,96c-13.232,0-24,10.768-24,24s10.768,24,24,24s24-10.768,24-24S469.232,96,456,96z M456,128
		c-4.416,0-8-3.592-8-8s3.584-8,8-8s8,3.592,8,8S460.416,128,456,128z"/>
	<path style="fill:#353535;" d="M456,0c-13.232,0-24,10.768-24,24s10.768,24,24,24s24-10.768,24-24S469.232,0,456,0z M456,32
		c-4.416,0-8-3.592-8-8s3.584-8,8-8s8,3.592,8,8S460.416,32,456,32z"/>
	<rect x="384" style="fill:#353535;" width="16" height="32"/>
	<rect x="328" y="16" style="fill:#353535;" width="16" height="32"/>
	<rect x="80" style="fill:#353535;" width="16" height="32"/>
	<rect x="136" y="16" style="fill:#353535;" width="16" height="32"/>
	<rect x="96" y="248" style="fill:#353535;" width="16" height="80"/>
	<rect x="96" y="344" style="fill:#353535;" width="16" height="16"/>
</g>
<g>
</g>
<g>
</g>
<g>
</g>
<g>
</g>
<g>
</g>
<g>
</g>
<g>
</g>
<g>
</g>
<g>
</g>
<g>
</g>
<g>
</g>
<g>
</g>
<g>
</g>
<g>
</g>
<g>
</g>
</svg>
