<svg viewBox="0 0 480 480" xmlns="http://www.w3.org/2000/svg"><path d="M440 224H320v48c0 8.84-7.16 16-16 16s-16-7.16-16-16v16c0 8.84-7.16 16-16 16s-16-7.16-16-16v-32c0 8.84-7.16 16-16 16s-16-7.16-16-16v-32H40c-17.672 0-32 14.328-32 32s14.328 32 32 32h32v72c0 17.672 14.328 32 32 32h272c17.672 0 32-14.328 32-32v-72h32c17.672 0 32-14.328 32-32s-14.328-32-32-32z" fill="#efe5d3"/><path d="M288 88H104c-17.672 0-32 14.328-32 32v24h336v-24c0-17.672-14.328-32-32-32z" fill="#68c9ba"/><g fill="#f7ba21"><circle cx="24" cy="168" r="16"/><circle cx="24" cy="80" r="16"/><path d="M176 216c0-13.256-10.744-24-24-24s-24 10.744-24 24c0 2.824.576 5.488 1.472 8h45.064c.888-2.512 1.464-5.176 1.464-8zm64 56c8.84 0 16-7.16 16-16v32c0 8.84 7.16 16 16 16s16-7.16 16-16v-16c0 8.84 7.16 16 16 16s16-7.16 16-16v-48h-96v32c0 8.84 7.16 16 16 16zM112 456c0-13.256-16-32-16-32s-16 18.744-16 32 7.16 16 16 16 16-2.744 16-16zm144 0c0-13.256-16-32-16-32s-16 18.744-16 32 7.16 16 16 16 16-2.744 16-16zm144 0c0-13.256-16-32-16-32s-16 18.744-16 32 7.16 16 16 16 16-2.744 16-16zm-72 0c0-13.256-16-32-16-32s-16 18.744-16 32 7.16 16 16 16 16-2.744 16-16zm-144 0c0-13.256-16-32-16-32s-16 18.744-16 32 7.16 16 16 16 16-2.744 16-16zm208-248c0-13.256-10.744-24-24-24s-24 10.744-24 24c0 6.176 2.4 11.744 6.232 16h35.544c3.824-4.256 6.224-9.824 6.224-16z"/><circle cx="456" cy="120" r="16"/><circle cx="456" cy="24" r="16"/></g><g fill="#353535"><path d="M440 216h-41.168c.688-2.608 1.168-5.272 1.168-8 0-17.648-14.352-32-32-32s-32 14.352-32 32c0 2.728.48 5.392 1.168 8H184c0-17.648-14.352-32-32-32s-32 14.352-32 32H40c-22.056 0-40 17.944-40 40s17.944 40 40 40h24v64c0 22.056 17.944 40 40 40h272c22.056 0 40-17.944 40-40v-64h24c22.056 0 40-17.944 40-40s-17.944-40-40-40zm-88-8c0-8.824 7.176-16 16-16s16 7.176 16 16c0 3.288-.992 5.96-2.208 8h-27.576a15.377 15.377 0 0 1-2.216-8zm-40 24v40c0 4.408-3.584 8-8 8s-8-3.592-8-8c0-4.416-3.576-8-8-8s-8 3.584-8 8v16c0 4.408-3.584 8-8 8s-8-3.592-8-8v-32c0-4.416-3.576-8-8-8s-8 3.584-8 8c0 4.408-3.584 8-8 8s-8-3.592-8-8v-24zm-160-32c8.824 0 16 7.176 16 16h-32c0-8.824 7.176-16 16-16zM40 280c-13.232 0-24-10.768-24-24s10.768-24 24-24h24v48zm360 80c0 13.232-10.768 24-24 24H104c-13.232 0-24-10.768-24-24V232h136v24c0 13.232 10.768 24 24 24 2.808 0 5.504-.488 8-1.368V288c0 13.232 10.768 24 24 24 11.048 0 20.384-7.504 23.16-17.688A23.877 23.877 0 0 0 304 296c13.232 0 24-10.768 24-24v-40h72zm40-80h-24v-48h24c13.232 0 24 10.768 24 24s-10.768 24-24 24zM64 120v24c0 4.416 3.576 8 8 8h336c4.424 0 8-3.584 8-8v-24c0-22.056-17.944-40-40-40h-80v-8c0-22.056-17.944-40-40-40h-32c-22.056 0-40 17.944-40 40v8h-80c-22.056 0-40 17.944-40 40zm136-48c0-13.232 10.768-24 24-24h32c13.232 0 24 10.768 24 24v8h-80zM80 120c0-13.232 10.768-24 24-24h272c13.232 0 24 10.768 24 24v16H80zm-56 72c13.232 0 24-10.768 24-24s-10.768-24-24-24-24 10.768-24 24 10.768 24 24 24zm0-32c4.416 0 8 3.592 8 8s-3.584 8-8 8-8-3.592-8-8 3.584-8 8-8zm0-56c13.232 0 24-10.768 24-24S37.232 56 24 56 0 66.768 0 80s10.768 24 24 24zm0-32c4.416 0 8 3.592 8 8s-3.584 8-8 8-8-3.592-8-8 3.584-8 8-8zm24 408h384v-16h-24.96c.712-2.832.96-5.624.96-8 0-15.752-16.08-35.048-17.912-37.192-3.048-3.552-9.128-3.552-12.168 0C376.08 420.952 360 440.248 360 456c0 2.376.256 5.168.96 8h-25.92c.712-2.832.96-5.624.96-8 0-15.752-16.08-35.048-17.912-37.192-3.048-3.552-9.128-3.552-12.168 0C304.08 420.952 288 440.248 288 456c0 2.376.256 5.168.96 8h-25.92c.712-2.832.96-5.624.96-8 0-15.752-16.08-35.048-17.912-37.192-3.048-3.552-9.128-3.552-12.168 0C232.08 420.952 216 440.248 216 456c0 2.376.256 5.168.96 8h-25.92c.712-2.832.96-5.624.96-8 0-15.752-16.08-35.048-17.912-37.192-3.048-3.552-9.128-3.552-12.168 0C160.08 420.952 144 440.248 144 456c0 2.376.256 5.168.96 8h-25.92c.712-2.832.96-5.624.96-8 0-15.752-16.08-35.048-17.912-37.192-3.048-3.552-9.128-3.552-12.168 0C88.08 420.952 72 440.248 72 456c0 2.376.256 5.168.96 8H48zm328-24c0-4.968 3.824-12.352 7.984-18.632 4.048 6.12 8.016 13.6 8.016 18.632 0 7.056-1.608 8-8 8s-8-.944-8-8zm-72 0c0-4.968 3.824-12.352 7.984-18.632 4.048 6.12 8.016 13.6 8.016 18.632 0 7.056-1.608 8-8 8s-8-.944-8-8zm-72 0c0-4.968 3.824-12.352 7.984-18.632 4.048 6.12 8.016 13.6 8.016 18.632 0 7.056-1.608 8-8 8s-8-.944-8-8zm-72 0c0-4.968 3.824-12.352 7.984-18.632 4.048 6.12 8.016 13.6 8.016 18.632 0 7.056-1.608 8-8 8s-8-.944-8-8zm-72 0c0-4.968 3.824-12.352 7.984-18.632 4.048 6.12 8.016 13.6 8.016 18.632 0 7.056-1.608 8-8 8s-8-.944-8-8zM456 96c-13.232 0-24 10.768-24 24s10.768 24 24 24 24-10.768 24-24-10.768-24-24-24zm0 32c-4.416 0-8-3.592-8-8s3.584-8 8-8 8 3.592 8 8-3.584 8-8 8zm0-128c-13.232 0-24 10.768-24 24s10.768 24 24 24 24-10.768 24-24-10.768-24-24-24zm0 32c-4.416 0-8-3.592-8-8s3.584-8 8-8 8 3.592 8 8-3.584 8-8 8zM384 0h16v32h-16zm-56 16h16v32h-16zM80 0h16v32H80zm56 16h16v32h-16z"/><path d="M96 248h16v80H96zm0 96h16v16H96z"/></g></svg>