<svg viewBox="0 0 512 512" xmlns="http://www.w3.org/2000/svg"><path d="M256 377.988l15.48 47.645h50.098l-40.53 29.447 15.481 47.646L256 473.279l-40.53 29.447 15.481-47.646-40.53-29.447h50.098zm182.906 0l15.481 47.645h50.098l-40.53 29.447 15.481 47.646-40.53-29.447-40.529 29.447 15.48-47.646-40.529-29.447h50.097zm-365.813 0l-15.481 47.645H7.515l40.529 29.447-15.481 47.646 40.53-29.447 40.53 29.447-15.481-47.646 40.529-29.447H88.574z" fill="#fba761"/><path d="M456.391 162.56c0-14.657-11.881-26.539-26.538-26.539H296.078s11.357-13.879 16.031-46.596c8.016-56.109-12.107-77.66-32.063-80.094-4.966-.606-9.332 3.297-9.332 8.3 0 0-5.039 52.442-14.715 71.794-24.047 48.094-86.222 72.141-86.222 72.141v170.941s14.081 15.821 42.461 15.821h196.383c14.657 0 26.538-11.881 26.538-26.538s-11.881-26.539-26.538-26.539h10.616c14.657 0 26.538-11.881 26.538-26.539 0-14.657-11.881-26.538-26.538-26.538h10.616c14.657 0 26.538-11.881 26.538-26.539 0-14.657-11.881-26.539-26.538-26.539 14.656.002 26.538-11.88 26.538-26.536z" fill="#fce780"/><path d="M456.391 162.56c0-14.657-11.881-26.539-26.538-26.539H296.078s11.357-13.879 16.031-46.596c8.016-56.109-12.107-77.66-32.063-80.094-4.966-.606-9.332 3.297-9.332 8.3 0 0-5.039 52.442-14.715 71.794-24.047 48.094-86.222 72.141-86.222 72.141v170.941s14.081 15.821 42.461 15.821h196.383c14.657 0 26.538-11.881 26.538-26.538s-11.881-26.539-26.538-26.539h10.616c14.657 0 26.538-11.881 26.538-26.539 0-14.657-11.881-26.538-26.538-26.538h10.616c14.657 0 26.538-11.881 26.538-26.539 0-14.657-11.881-26.539-26.538-26.539 14.656.002 26.538-11.88 26.538-26.536z" fill="#fee2ca"/><path d="M408.622 332.296H212.239c-28.379 0-42.461-15.821-42.461-15.821v16.031s14.081 15.821 42.461 15.821h196.383c14.657 0 26.538-11.881 26.538-26.538 0-2.794-.435-5.487-1.235-8.016-3.398 10.738-13.441 18.523-25.303 18.523zm21.23-164.429h-31.548v21.23h31.548c14.657 0 26.539-11.881 26.539-26.538 0-3.777-.801-7.362-2.223-10.616-4.097 9.371-13.437 15.924-24.316 15.924zm0 53.077h-31.548v21.23h31.548c14.657 0 26.539-11.881 26.539-26.538 0-3.777-.801-7.362-2.223-10.616-4.097 9.37-13.437 15.924-24.316 15.924zm-10.615 53.077h-26.945v21.23h26.945c14.657 0 26.538-11.881 26.538-26.539 0-3.777-.801-7.362-2.223-10.616-4.096 9.371-13.435 15.925-24.315 15.925z" fill="#fdd0ab"/><path d="M153.096 347.009H92.004c-11.247 0-20.364-9.118-20.364-20.364V173.914c0-11.247 9.118-20.364 20.364-20.364h61.092c11.247 0 20.364 9.118 20.364 20.364v152.73c0 11.247-9.117 20.365-20.364 20.365z" fill="#7fdecf"/><path d="M103.703 322.528a8.016 8.016 0 0 1-8.016-8.016V153.551h-3.683c-11.247 0-20.364 9.118-20.364 20.364v152.73c0 11.247 9.117 20.364 20.364 20.364h61.092c11.247 0 20.364-9.117 20.364-20.364v-4.116h-69.757z" fill="#24bfb2"/><circle cx="122.549" cy="301.187" fill="#f2edec" r="15.273"/><path d="M122.551 278.402c-12.566 0-22.788 10.222-22.788 22.787 0 12.566 10.223 22.787 22.788 22.787s22.787-10.222 22.787-22.787-10.223-22.787-22.787-22.787zm0 30.547c-4.278 0-7.759-3.481-7.759-7.758s3.481-7.758 7.759-7.758 7.758 3.481 7.758 7.758-3.481 7.758-7.758 7.758zM321.578 418.12H276.94l-13.794-42.453c-.994-3.061-3.929-5.193-7.147-5.193s-6.152 2.131-7.147 5.193l-13.794 42.453h-44.637a7.515 7.515 0 0 0-4.417 13.594l36.112 26.238-13.794 42.453c-.963 2.961.049 6.296 2.495 8.223 2.613 2.059 6.377 2.134 9.069.178l36.112-26.238 36.112 26.238c2.824 2.052 6.794 1.855 9.404-.46 2.213-1.963 3.074-5.127 2.159-7.94l-13.794-42.453 36.112-26.238a7.513 7.513 0 0 0 2.73-8.401 7.504 7.504 0 0 0-7.143-5.194zm-44.947 30.881a7.513 7.513 0 0 0-2.73 8.401l8.334 25.65-21.82-15.852c-2.604-1.893-6.23-1.893-8.833 0l-21.82 15.852 8.334-25.65a7.513 7.513 0 0 0-2.73-8.401l-21.819-15.852h26.97a7.515 7.515 0 0 0 7.147-5.193l8.334-25.65 8.334 25.65a7.515 7.515 0 0 0 7.147 5.193h26.97zm235-25.689a7.515 7.515 0 0 0-7.147-5.193h-44.637l-13.794-42.453c-.994-3.061-3.929-5.193-7.147-5.193s-6.152 2.131-7.147 5.193l-13.794 42.453h-44.637a7.515 7.515 0 0 0-4.417 13.594l36.112 26.238-13.794 42.453c-.963 2.961.049 6.296 2.495 8.223 2.613 2.059 6.377 2.134 9.069.178l36.112-26.238 36.112 26.238c2.824 2.052 6.794 1.855 9.405-.46 2.213-1.963 3.074-5.127 2.159-7.94l-13.794-42.453 36.112-26.238a7.51 7.51 0 0 0 2.732-8.402zm-52.093 25.689a7.513 7.513 0 0 0-2.73 8.401l8.333 25.65-21.818-15.852a7.512 7.512 0 0 0-8.834 0l-21.82 15.852 8.334-25.65a7.513 7.513 0 0 0-2.73-8.401l-21.819-15.852h26.971a7.515 7.515 0 0 0 7.147-5.193l8.334-25.65 8.334 25.65a7.515 7.515 0 0 0 7.147 5.193h26.97zM138.671 418.12H94.034L80.24 375.667a7.515 7.515 0 0 0-14.294 0L52.152 418.12H7.515a7.515 7.515 0 0 0-4.417 13.594l36.112 26.238-13.794 42.453a7.513 7.513 0 0 0 11.564 8.401l36.112-26.238 36.112 26.238c2.825 2.052 6.794 1.855 9.404-.46 2.213-1.963 3.074-5.127 2.159-7.94l-13.794-42.453 36.112-26.238a7.513 7.513 0 0 0 2.73-8.401 7.507 7.507 0 0 0-7.144-5.194zm-44.946 30.881a7.513 7.513 0 0 0-2.73 8.401l8.334 25.65L77.51 467.2c-2.604-1.893-6.23-1.893-8.834 0l-21.818 15.851 8.333-25.65a7.513 7.513 0 0 0-2.73-8.401l-21.819-15.852h26.97a7.515 7.515 0 0 0 7.147-5.193l8.334-25.65 8.334 25.65a7.515 7.515 0 0 0 7.147 5.193h26.97z"/><path d="M212.239 355.842h196.383c18.777 0 34.052-15.276 34.052-34.052 0-8.607-3.21-16.479-8.496-22.481 11.308-5.545 19.11-17.178 19.11-30.597 0-8.607-3.21-16.478-8.496-22.481 11.308-5.544 19.11-17.177 19.11-30.596 0-10.715-4.976-20.292-12.737-26.538 7.762-6.246 12.737-15.823 12.737-26.538 0-18.777-15.276-34.053-34.052-34.053H308.976c3.757-8.192 8.094-20.671 10.573-38.018 5.758-40.309-2.943-61.705-11.256-72.556-7.036-9.184-16.489-14.738-27.335-16.06-9.152-1.124-17.509 6.145-17.753 15.339-1.407 14.454-6.554 54.107-13.926 68.853-18.939 37.878-64.093 60.461-78.039 66.709-4.881-4.194-11.218-6.737-18.142-6.737H92.004c-15.372 0-27.878 12.505-27.878 27.878v152.731c0 15.373 12.506 27.878 27.878 27.878h61.092c8.225 0 15.627-3.583 20.734-9.267 7.932 5.008 20.732 10.586 38.409 10.586zm50.482-263.056c10.185-20.369 15.263-72.239 15.474-74.437.022-.238.034-.479.034-.718 0-.257.098-.474.291-.644a.747.747 0 0 1 .617-.196c4.704.574 11.511 2.824 17.226 10.282 6.561 8.564 13.328 26.149 8.308 61.291-4.255 29.787-14.344 42.818-14.407 42.899-3.939 4.814-.392 12.274 5.815 12.274h133.775c10.489 0 19.023 8.535 19.023 19.024s-8.534 19.023-19.023 19.023h-31.576a7.515 7.515 0 1 0 0 15.03h31.576c10.489 0 19.023 8.535 19.023 19.023s-8.534 19.023-19.023 19.023h-31.576a7.515 7.515 0 1 0 0 15.03h20.96c10.489 0 19.023 8.535 19.023 19.023s-8.534 19.023-19.023 19.023h-26.721a7.515 7.515 0 1 0 0 15.03h16.105c10.489 0 19.023 8.535 19.023 19.024s-8.534 19.023-19.023 19.023H212.24c-15.51 0-26.025-5.196-31.734-9.097.304-1.646.471-3.339.471-5.071V173.914c0-2.938-.46-5.769-1.306-8.429 17.608-8.081 62.687-31.975 83.05-72.699zM153.096 339.494H92.004c-7.085 0-12.849-5.764-12.849-12.849V173.914c0-7.085 5.764-12.849 12.849-12.849h61.092c3.588 0 6.833 1.482 9.166 3.862v167.58c0 .899.163 1.78.471 2.609-2.357 2.677-5.798 4.378-9.637 4.378z"/></svg>