<svg viewBox="0 0 512.001 512.001" xmlns="http://www.w3.org/2000/svg"><path d="M42.999 207.682c-.412-9.846-1.653-19.882 1.863-28.362 5.372-12.954 20.759-20.565 28.468-32.078 7.767-11.602 8.955-28.715 18.792-38.551s26.95-11.025 38.551-18.792c11.514-7.708 19.125-23.096 32.078-28.468 12.732-5.279 28.972.165 42.809-2.572 13.429-2.656 26.343-13.954 40.551-13.954s27.123 11.298 40.551 13.954c13.838 2.737 30.079-2.707 42.809 2.572 12.954 5.372 20.565 20.759 32.079 28.468 11.602 7.767 28.715 8.955 38.551 18.792s11.025 26.95 18.792 38.551c7.708 11.514 23.096 19.125 28.468 32.078 3.515 8.478 2.276 18.512 1.863 28.356z" fill="#fff"/><path d="M97.202 179.32c5.372-12.954 20.76-20.565 28.468-32.078 7.767-11.602 8.955-28.715 18.792-38.551s26.95-11.025 38.551-18.792c11.514-7.708 19.125-23.096 32.078-28.468 12.732-5.279 28.972.165 42.809-2.572 4.833-.956 9.598-3.032 14.382-5.297-8.509-4.029-17.074-8.657-26.17-8.657-14.209 0-27.122 11.298-40.551 13.954-13.838 2.737-30.078-2.708-42.809 2.572-12.954 5.371-20.565 20.759-32.079 28.468-11.602 7.767-28.715 8.955-38.551 18.792s-11.025 26.95-18.792 38.551c-7.708 11.514-23.096 19.125-28.468 32.078-3.516 8.48-2.275 18.516-1.863 28.362l52.339-.001c-.412-9.845-1.653-19.882 1.864-28.361z" fill="#e0e0e2"/><path d="M489.413 32.381l-5.125-2.522c-4.667-2.296-10.309-.318-12.521 4.389l-53 112.785c.045.068.083.141.129.208 3.69 5.512 9.14 10.13 14.409 14.868l60.272-117.13c2.379-4.624.503-10.301-4.164-12.598zm-89.31 76.31c1.372 1.372 2.563 2.897 3.64 4.518l42.298-90.115c2.21-4.708.129-10.313-4.618-12.438l-5.213-2.334c-4.747-2.125-10.314.057-12.354 4.841l-37.213 87.308c5.06 2.059 9.772 4.531 13.46 8.22z" fill="#c3fb3a"/><path d="M399.976 100.47l37.213-87.308a9.245 9.245 0 0 1 2.411-3.323l-3.391-1.518c-4.747-2.125-10.314.057-12.354 4.841l-37.213 87.308c5.06 2.059 9.772 4.532 13.46 8.22 1.372 1.372 2.563 2.897 3.64 4.518l4.142-8.824c-2.458-1.515-5.126-2.782-7.908-3.914zm32.253 46.772c-.045-.067-.084-.14-.129-.208l53-112.785a9.261 9.261 0 0 1 2.163-2.925l-2.975-1.464c-4.667-2.296-10.309-.318-12.521 4.389l-53 112.785c.045.068.083.141.129.208 3.69 5.512 9.14 10.13 14.409 14.868l4.314-8.384c-2.007-2.057-3.856-4.191-5.39-6.484z" fill="#65c27c"/><path d="M17.385 207.682v73.603c0 86.049 57.84 155.824 136.762 178.097V504.5h183.93v-45.118c78.922-22.274 136.762-92.049 136.762-178.097v-73.603z" fill="#ff5023"/><path d="M60.051 281.284v-73.603H17.385v73.603c0 86.049 57.84 155.824 136.762 178.097V504.5h42.666v-45.118c-78.922-22.274-136.762-92.049-136.762-178.098z" fill="#d80029"/><path d="M246.104 394.194l-69.096-69.098L246.106 256l69.096 69.098z" fill="#feda44"/><path d="M215.439 325.105l49.887-49.888-19.215-19.213-69.099 69.101 69.099 69.101 19.215-19.215z" fill="#f91"/><path d="M441.863 231.826h15v22.705h-15zm-89.759 187.391l6.336 13.597c60.711-28.291 98.425-87.004 98.425-153.228v-11.249h-15v11.249c0 60.327-34.394 113.831-89.761 139.631zm-57.668 55.235h22.321v15h-22.321zm-118.968 0h109.068v15H175.468z" fill="#fff"/><path d="M377.868 163.585l12.465-8.345c-2.152-3.214-3.649-7.463-5.234-11.962-2.36-6.698-5.034-14.289-10.703-19.957l-10.606 10.606c3.259 3.259 5.155 8.639 7.162 14.335 1.824 5.179 3.711 10.535 6.916 15.323zm-83.905-66.879c5.998-.327 11.663-.633 15.851 1.104 4.321 1.792 8.143 6.068 12.189 10.595 3.634 4.067 7.393 8.272 12.131 11.444 4.788 3.205 10.143 5.092 15.321 6.917 1.083.381 2.165.763 3.237 1.156l5.162-14.084a274.779 274.779 0 0 0-3.414-1.219c-4.499-1.585-8.748-3.082-11.961-5.234-3.163-2.117-6.14-5.448-9.291-8.975-4.757-5.322-10.147-11.354-17.628-14.456-7.338-3.043-15.001-2.628-22.409-2.225-4.8.26-9.333.506-13.198-.258l-2.911 14.715c5.711 1.128 11.409.819 16.921.52z"/><path d="M501.257 35.455a16.68 16.68 0 0 0-8.534-9.803l-5.125-2.522c-4.078-2.006-8.685-2.283-12.973-.78s-7.714 4.596-9.647 8.708l-46.094 98.089-.524-1.481c-1.77-5.023-3.581-10.143-6.131-14.89l40.6-86.497a16.672 16.672 0 0 0 .541-12.985 16.676 16.676 0 0 0-8.884-9.485l-5.213-2.334a16.673 16.673 0 0 0-12.993-.308 16.677 16.677 0 0 0-9.325 9.054l-34.402 80.714-1.429-.504c-5.749-2.025-11.179-3.938-15.402-6.766-4.158-2.784-7.963-7.042-11.991-11.549-6.105-6.832-12.419-13.896-21.388-17.615-8.792-3.645-18.166-3.136-27.232-2.645-6.131.333-11.922.648-16.996-.356-4.802-.95-9.889-3.395-15.275-5.983-8.3-3.989-16.884-8.114-26.731-8.114-9.848 0-18.432 4.125-26.732 8.114-5.386 2.588-10.473 5.033-15.275 5.983-5.072 1.003-10.864.688-16.995.356-9.065-.492-18.44-1.001-27.232 2.645-8.968 3.719-15.281 10.782-21.386 17.614-4.028 4.507-7.833 8.765-11.992 11.549-4.223 2.828-9.653 4.741-15.403 6.767-8.597 3.029-17.486 6.161-24.28 12.955-6.794 6.793-9.926 15.683-12.955 24.28-2.026 5.75-3.939 11.18-6.767 15.403-2.784 4.159-7.042 7.963-11.549 11.992-6.832 6.105-13.896 12.418-17.614 21.387-3.179 7.666-3.199 15.774-2.826 23.735H9.885v81.103c0 84.963 54.716 158.091 136.762 183.692v47.023h198.93v-47.023c82.046-25.603 136.762-98.729 136.762-183.692v-81.103h-25.223c.373-7.961.353-16.069-2.826-23.735-2.642-6.372-6.976-11.401-11.712-15.971l57.666-112.066a16.671 16.671 0 0 0 1.013-12.956zM396.378 96.758l34.377-80.655c.245-.574.678-.844.999-.97a1.76 1.76 0 0 1 1.391.033l5.213 2.334c.569.255.832.693.951 1.016.12.323.207.826-.058 1.391l-37.641 80.192c-.059-.044-.122-.087-.181-.131-.081-.06-.163-.117-.244-.176a41.508 41.508 0 0 0-1.061-.75c-.175-.119-.351-.234-.527-.35a40.48 40.48 0 0 0-2.045-1.267 46.978 46.978 0 0 0-1.091-.619zM51.79 182.193c2.409-5.809 7.919-10.734 13.754-15.948 5.004-4.473 10.179-9.097 14.018-14.832 3.881-5.797 6.203-12.388 8.449-18.763 2.586-7.34 5.029-14.273 9.414-18.658s11.318-6.828 18.658-9.414c6.375-2.246 12.966-4.568 18.763-8.449 5.734-3.839 10.359-9.014 14.832-14.018 5.214-5.834 10.139-11.345 15.947-13.753 3.47-1.439 7.568-1.843 12.009-1.843 2.778 0 5.69.158 8.666.32 6.785.368 13.801.749 20.719-.62 6.671-1.32 12.868-4.298 18.861-7.178 7.099-3.412 13.804-6.634 20.235-6.634s13.136 3.222 20.234 6.634c5.994 2.88 12.191 5.858 18.862 7.178 6.917 1.368 13.933.987 20.719.62 7.731-.419 15.033-.816 20.674 1.523 5.809 2.409 10.734 7.919 15.949 13.754 4.472 5.004 9.097 10.179 14.831 14.018 5.797 3.88 12.388 6.203 18.762 8.449 2.672.941 5.287 1.865 7.748 2.869.591.241 1.158.481 1.704.722l.201.09c.483.215.947.43 1.396.645.088.042.177.084.264.127.98.478 1.878.959 2.707 1.45.159.094.314.192.47.288a26.359 26.359 0 0 1 1.223.797c.191.132.375.266.557.4.172.126.345.252.512.382.196.153.383.309.569.464.135.112.273.222.404.337.314.276.617.557.905.844.243.243.478.497.71.755.67.755 1.326 1.616 1.987 2.61l.45.677c2.556 4.096 4.375 9.245 6.267 14.615 1.746 4.955 3.548 10.035 6.081 14.777l-.098.208 2.231 3.408c.072.118.143.23.212.333l.023.037c.536.8 1.102 1.574 1.686 2.333 3.601 4.687 8.031 8.655 12.34 12.506l2.51 2.255c4.854 4.404 9.178 8.723 11.236 13.685 2.065 4.981 1.998 11.259 1.665 17.983l-351.062.006c-.188-4.644-.109-8.935 1.277-12.277 1.792-4.322 6.068-8.144 10.596-12.19 4.066-3.634 8.271-7.392 11.444-12.13l-12.465-8.345c-2.117 3.162-5.448 6.139-8.975 9.291-5.322 4.756-11.354 10.147-14.457 17.629-2.446 5.899-2.656 12.006-2.436 18.023H50.124c-.332-6.728-.401-13.007 1.666-17.99zm415.549 99.091c0 80.044-52.765 148.715-131.299 170.879l-5.463 1.542V497h-168.93v-30.119h128.097v-15H155.222c-47.482-13.668-85.456-44.37-107.899-84.291h57.908v-15h-65.41c-9.67-21.899-14.936-46.035-14.936-71.308v-34.594h48.186v-15H24.885V215.18h350.871v33.822h15V215.18h76.583zm19.568-239.736l-55.785 108.409-.284-.276a70.802 70.802 0 0 1-1.254-1.26c-.168-.173-.338-.345-.503-.519a47.332 47.332 0 0 1-1.605-1.769l51.079-108.696a1.766 1.766 0 0 1 1.033-.933 1.764 1.764 0 0 1 1.389.083l5.125 2.522c.56.275.806.723.914 1.05a1.77 1.77 0 0 1-.109 1.389z"/><path d="M166.406 325.105l79.707 79.707 79.707-79.707-79.707-79.707zm79.706 58.494l-58.495-58.494 58.494-58.494 58.494 58.494z"/></svg>