<?xml version="1.0" encoding="iso-8859-1"?>
<!-- Generator: Adobe Illustrator 19.0.0, SVG Export Plug-In . SVG Version: 6.00 Build 0)  -->
<svg version="1.1" id="Layer_1" xmlns="http://www.w3.org/2000/svg" xmlns:xlink="http://www.w3.org/1999/xlink" x="0px" y="0px"
	 viewBox="0 0 511.998 511.998" style="enable-background:new 0 0 511.998 511.998;" xml:space="preserve">
<path style="fill:#F9EBCF;" d="M144.626,258.753c-23.492-23.371-23.492-61.402,0-84.774c5.347-5.322,14.017-5.322,19.365,0
	l65.845,65.505c5.348,5.323,5.347,13.949,0,19.268C206.344,282.125,168.118,282.127,144.626,258.753z"/>
<path style="fill:#FFCC60;" d="M174.644,189.391c-10.965,10.91-10.963,28.592,0,39.499c10.961,10.907,28.737,10.907,39.699,0
	c0.821-0.817,1.56-1.682,2.259-2.571l-39.376-39.173C176.334,187.841,175.463,188.576,174.644,189.391z"/>
<path style="fill:#78B591;" d="M157.171,258.693c-7.379-7.418-19.576-8.478-32.969-4.174c4.285-13.462,3.229-25.722-4.152-33.144
	c-8.299-8.34-22.692-8.644-38.026-2.311c-14.12-9.86-33.657-8.473-46.243,4.178c-12.587,12.652-13.965,32.292-4.158,46.488
	c-6.3,15.414-6,29.883,2.3,38.227c7.38,7.419,19.578,8.479,32.971,4.173c-4.282,13.464-3.228,25.726,4.152,33.144
	c7.38,7.42,19.577,8.479,32.971,4.174c-4.284,13.464-3.228,25.724,4.155,33.145c13.736,13.808,44.151,5.623,67.933-18.288
	c23.784-23.908,31.929-54.484,18.192-68.289c-7.38-7.421-19.577-8.483-32.971-4.176
	C165.609,278.374,164.552,266.114,157.171,258.693z"/>
<g>
	<path style="fill:#EF645E;" d="M190.06,295.415c-13.489,26.238-45.751,36.504-71.92,22.879c-5.956-3.102-8.296-10.458-5.226-16.431
		l37.801-73.546c3.071-5.975,10.389-8.301,16.346-5.2C193.23,236.741,203.548,269.175,190.06,295.415z"/>
	<ellipse style="fill:#EF645E;" cx="370.812" cy="240.076" rx="36.451" ry="36.264"/>
</g>
<path style="fill:#78B591;" d="M449.934,363.249c7.261-7.223,8.3-19.162,4.087-32.273c13.176,4.195,25.176,3.16,32.437-4.064
	c8.166-8.123,8.462-22.21,2.264-37.22c9.648-13.821,8.292-32.945-4.09-45.264c-12.382-12.317-31.604-13.667-45.496-4.069
	c-15.088-6.166-29.247-5.871-37.412,2.251c-7.262,7.224-8.301,19.163-4.086,32.274c-13.178-4.193-25.178-3.16-32.439,4.064
	c-7.261,7.224-8.3,19.163-4.086,32.273c-13.176-4.193-25.176-3.159-32.438,4.066c-13.515,13.446-5.502,43.216,17.897,66.495
	c23.398,23.277,53.323,31.252,66.837,17.806c7.262-7.224,8.3-19.162,4.085-32.273C430.672,371.507,442.672,370.473,449.934,363.249z
	"/>
<ellipse style="fill:#FFAB5F;" cx="114.781" cy="328.62" rx="36.451" ry="36.264"/>
<path style="fill:#A5BC79;" d="M352.119,227.873c-7.804-7.766-20.705-8.875-34.868-4.37c4.532-14.091,3.416-26.925-4.392-34.689
	c-8.776-8.731-23.995-9.049-40.213-2.42c-14.933-10.319-35.593-8.868-48.903,4.375c-13.31,13.24-14.766,33.797-4.396,48.654
	c-6.662,16.134-6.345,31.276,2.433,40.008c7.805,7.765,20.704,8.874,34.867,4.368c-4.53,14.091-3.414,26.926,4.391,34.69
	c7.805,7.765,20.705,8.875,34.869,4.369c-4.531,14.093-3.415,26.927,4.392,34.69c14.525,14.453,46.691,5.884,71.841-19.136
	c25.151-25.025,33.765-57.026,19.239-71.476c-7.805-7.767-20.704-8.876-34.868-4.37C361.041,248.47,359.923,235.638,352.119,227.873
	z"/>
<path style="fill:#EF645E;" d="M229.171,124.982c-20.917,20.808-54.948,20.808-75.864-0.001c-4.761-4.737-4.761-12.417,0-17.151
	l58.621-58.322c4.763-4.738,12.481-4.737,17.242,0C250.085,70.316,250.087,104.173,229.171,124.982z"/>
<ellipse style="fill:#FFAB5F;" cx="315.944" cy="125.806" rx="25.73" ry="25.598"/>
<path style="fill:#C14616;" d="M374.108,25.898c3.562,3.545,3.562,9.291,0,12.838l-15.483,15.404c-3.563,3.544-9.339,3.543-12.903,0
	l-15.482-15.404c-3.563-3.546-3.563-9.292,0-12.838l15.482-15.403c3.564-3.544,9.34-3.544,12.903,0L374.108,25.898z"/>
<path style="fill:#A5BC79;" d="M105.186,142.2c2.88,2.865,2.88,7.512,0,10.376l-12.514,12.45c-2.879,2.865-7.547,2.863-10.427,0
	l-12.513-12.45c-2.88-2.864-2.88-7.511,0-10.376l12.514-12.447c2.88-2.865,7.548-2.864,10.427,0L105.186,142.2z"/>
<g>
	<path style="fill:#C14616;" d="M430.925,165.683c2.88,2.865,2.88,7.511,0,10.375l-12.513,12.45c-2.879,2.865-7.547,2.863-10.427,0
		l-12.513-12.45c-2.88-2.864-2.88-7.51,0-10.375l12.513-12.448c2.881-2.865,7.549-2.864,10.427,0L430.925,165.683z"/>
	<path style="fill:#C14616;" d="M216.984,339.322c-20.916,20.808-54.947,20.808-75.864-0.001c-4.761-4.736-4.761-12.415,0-17.151
		l58.621-58.322c4.763-4.737,12.482-4.735,17.242,0C237.898,284.656,237.901,318.515,216.984,339.322z"/>
</g>
<path style="fill:#EF645E;" d="M85.265,328.545c4.47,4.447,4.47,11.656,0,16.104l-19.423,19.322c-4.47,4.447-11.716,4.445-16.185,0
	l-19.424-19.322c-4.469-4.448-4.469-11.657,0-16.104l19.423-19.323c4.471-4.449,11.715-4.445,16.185,0L85.265,328.545z"/>
<g>
	<ellipse style="fill:#FFAB5F;" cx="314.21" cy="299.123" rx="31.298" ry="31.137"/>
	<ellipse style="fill:#FFAB5F;" cx="421.991" cy="328.955" rx="25.73" ry="25.597"/>
</g>
<path style="fill:#EF645E;" d="M382.521,321.06c5.35,5.323,5.35,13.953,0,19.276l-23.25,23.13c-5.35,5.325-14.024,5.323-19.375,0
	l-23.249-23.13c-5.35-5.324-5.35-13.955,0-19.276l23.249-23.132c5.352-5.323,14.025-5.321,19.375,0L382.521,321.06z"/>
<path style="fill:#FFFFFF;" d="M237.482,353.644c-23.492-23.372-23.492-61.401,0-84.775c5.347-5.321,14.018-5.321,19.365,0
	l65.845,65.506c5.348,5.323,5.347,13.949,0,19.268C299.2,377.015,260.973,377.017,237.482,353.644z"/>
<path style="fill:#FFCC60;" d="M267.5,284.281c-10.964,10.909-10.963,28.592,0,39.499c10.961,10.907,28.737,10.907,39.7,0
	c0.82-0.817,1.56-1.682,2.259-2.573l-39.376-39.172C269.189,282.732,268.32,283.466,267.5,284.281z"/>
<path style="fill:#F9EBCF;" d="M155.641,475.257c-33.667,0-66.216-12.029-91.65-33.869c-25.266-21.696-41.936-51.663-46.941-84.386
	c-0.536-3.494,0.49-7.048,2.806-9.73c2.317-2.682,5.693-4.225,9.246-4.225h448.144c3.554,0,6.93,1.542,9.246,4.225
	c2.316,2.681,3.341,6.236,2.806,9.73c-5.005,32.722-21.675,62.69-46.941,84.386c-25.434,21.84-57.985,33.869-91.651,33.869H155.641z
	"/>
<path style="opacity:0.1;enable-background:new    ;" d="M60.802,357.002c-0.536-3.494,0.49-7.048,2.806-9.73
	c2.317-2.682,5.693-4.225,9.246-4.225H29.103c-3.554,0-6.93,1.542-9.246,4.225c-2.317,2.681-3.342,6.236-2.806,9.73
	c5.005,32.722,21.675,62.69,46.941,84.386c25.434,21.84,57.983,33.869,91.65,33.869h43.752c-33.667,0-66.216-12.029-91.65-33.869
	C82.478,419.692,65.807,389.724,60.802,357.002z"/>
<g>
	<path style="fill:#DDB690;" d="M136.22,369.189H22.671c-1.075,0-2.098,0.217-3.03,0.61c1.285,5.107,2.862,10.125,4.712,15.032
		H136.22c4.32,0,7.821-3.502,7.821-7.82C144.041,372.691,140.54,369.189,136.22,369.189z"/>
	<path style="fill:#DDB690;" d="M109.439,405.576H39.696c-1.721,0-3.308,0.563-4.6,1.506c2.927,4.895,6.149,9.619,9.666,14.135
		h64.675c4.319,0,7.82-3.5,7.82-7.82C117.259,409.079,113.758,405.576,109.439,405.576z"/>
</g>
<path style="fill:#A5BC79;" d="M386.148,493.812c0,5.717-4.633,10.351-10.348,10.351H130.548c-5.715,0-10.348-4.634-10.348-10.351
	v-9.315c0-5.717,4.633-10.351,10.348-10.351H375.8c5.715,0,10.348,4.635,10.348,10.351V493.812z"/>
<path style="opacity:0.1;enable-background:new    ;" d="M163.797,493.812v-9.315c0-5.717,4.633-10.351,10.348-10.351h-43.596
	c-5.715,0-10.348,4.635-10.348,10.351v9.315c0,5.717,4.633,10.351,10.348,10.351h43.596
	C168.43,504.163,163.797,499.529,163.797,493.812z"/>
<path d="M315.949,159.241c18.508,0,33.567-14.998,33.567-33.435c0-18.437-15.058-33.436-33.567-33.436
	c-18.508,0-33.566,14.998-33.566,33.436C282.383,144.243,297.44,159.241,315.949,159.241z M315.949,108.045
	c9.866,0,17.894,7.968,17.894,17.762s-8.027,17.761-17.894,17.761c-9.866,0-17.893-7.967-17.893-17.761
	C298.057,116.013,306.083,108.045,315.949,108.045z"/>
<path d="M340.197,59.698c3.203,3.183,7.455,4.936,11.978,4.936c4.522,0,8.776-1.753,11.978-4.938l15.484-15.405
	c3.211-3.197,4.98-7.449,4.98-11.972c0-4.524-1.769-8.776-4.981-11.976L364.151,4.939C360.949,1.754,356.695,0,352.173,0
	c-4.522,0-8.776,1.754-11.979,4.939l-15.483,15.404c-3.212,3.196-4.981,7.449-4.981,11.975c0,4.524,1.769,8.776,4.982,11.973
	L340.197,59.698z M335.766,31.454l15.481-15.402c0.313-0.312,0.676-0.377,0.925-0.377s0.611,0.066,0.925,0.377l15.481,15.401
	c0.301,0.299,0.364,0.635,0.364,0.865c0,0.229-0.064,0.565-0.363,0.863l-15.482,15.403c-0.313,0.311-0.675,0.376-0.924,0.376
	c-0.25,0-0.612-0.066-0.925-0.375l-15.481-15.404c-0.301-0.299-0.364-0.634-0.364-0.863
	C335.404,32.088,335.467,31.752,335.766,31.454z"/>
<path d="M76.721,170.583c2.871,2.855,6.685,4.427,10.741,4.427s7.87-1.574,10.739-4.429l12.512-12.448
	c2.883-2.867,4.47-6.683,4.471-10.743c0-4.062-1.587-7.877-4.47-10.746l-12.513-12.446c-2.871-2.857-6.685-4.43-10.741-4.43
	s-7.87,1.574-10.741,4.429l-12.514,12.447c-2.883,2.868-4.47,6.684-4.47,10.746c0,4.06,1.588,7.875,4.469,10.741L76.721,170.583z
	 M87.46,135.62l11.829,11.768l-11.83,11.771l-11.829-11.771L87.46,135.62z"/>
<path d="M402.46,194.066c2.872,2.856,6.686,4.426,10.739,4.426c4.056,0,7.87-1.574,10.74-4.429l12.512-12.448
	c2.883-2.867,4.47-6.682,4.471-10.743c0-4.062-1.587-7.876-4.47-10.745l-12.513-12.447c-2.87-2.857-6.685-4.43-10.742-4.43
	c-4.054,0-7.869,1.574-10.74,4.429l-12.513,12.448c-2.883,2.868-4.47,6.683-4.47,10.745c0.001,4.06,1.588,7.875,4.469,10.741
	L402.46,194.066z M413.198,159.103l11.829,11.769l-11.829,11.77l-11.829-11.77L413.198,159.103z"/>
<path d="M164.474,275.848l1.078,0.56c1.155,0.6,2.391,0.885,3.607,0.885c2.832,0,5.565-1.54,6.961-4.226
	c1.996-3.84,0.501-8.571-3.341-10.567l-1.078-0.56c-3.843-1.996-8.572-0.499-10.568,3.341
	C159.139,269.121,160.634,273.852,164.474,275.848z"/>
<path d="M191.24,148.418c15.737-0.002,31.479-5.961,43.458-17.88c11.605-11.545,17.996-26.92,17.995-43.292
	c0-16.373-6.392-31.747-17.996-43.293c-7.8-7.763-20.494-7.763-28.297,0l-29.825,29.674c-3.068,3.052-3.08,8.014-0.028,11.082
	c3.052,3.068,8.014,3.079,11.083,0.027l29.823-29.673c1.706-1.698,4.482-1.698,6.188,0c1.407,1.4,2.7,2.883,3.897,4.424
	c-4.813,1.284-8.082,6.945-5.991,11.623c1.156,2.587,3.696,4.383,6.52,4.611c2.644,0.213,4.836-0.936,6.66-2.752
	c1.499,4.545,2.291,9.347,2.291,14.275c0,12.169-4.75,23.598-13.376,32.18c-12.461,12.398-30.369,16.137-46.128,11.243
	c3.106-3.911,1.534-8.989-2.116-11.849c-4.389-3.439-11.097-1.259-12.476,4.203c-1.415-1.108-2.785-2.299-4.09-3.597
	c-0.813-0.809-1.261-1.883-1.261-3.022c0.001-1.139,0.448-2.21,1.261-3.019l6.853-6.818c3.068-3.053,3.081-8.015,0.028-11.084
	c-3.053-3.068-8.014-3.079-11.083-0.028l-6.853,6.818c-3.791,3.771-5.88,8.789-5.881,14.128c-0.001,5.34,2.088,10.36,5.881,14.133
	C159.763,142.459,175.499,148.419,191.24,148.418C206.976,148.416,175.499,148.419,191.24,148.418
	C206.976,148.416,175.499,148.419,191.24,148.418z"/>
<path d="M195.513,121.633c2.014,0,4.027-0.771,5.558-2.312c3.051-3.07,3.036-8.031-0.032-11.082l-0.862-0.857
	c-3.07-3.05-8.032-3.035-11.082,0.033c-3.051,3.07-3.036,8.031,0.032,11.083l0.862,0.857
	C191.517,120.875,193.515,121.633,195.513,121.633z"/>
<path d="M217.065,101.908c2.01,0,4.021-0.768,5.552-2.305c3.055-3.066,3.046-8.028-0.02-11.082l-0.862-0.859
	c-3.066-3.056-8.029-3.047-11.082,0.02c-3.055,3.067-3.046,8.028,0.02,11.082l0.862,0.859
	C213.063,101.147,215.064,101.908,217.065,101.908z"/>
<path d="M490.158,238.872c-8.207-8.164-19.114-12.659-30.715-12.659c-7.475,0-14.708,1.875-21.148,5.453
	c-6.522-2.271-12.8-3.418-18.712-3.418c-2.083,0-4.092,0.155-6.029,0.444c-2.613-9.708-8.501-18.399-16.853-24.402
	c-3.516-2.526-8.412-1.724-10.937,1.791c-2.527,3.515-1.724,8.411,1.79,10.938c5.947,4.274,9.968,10.648,11.34,17.685
	c-0.945,0.727-1.849,1.506-2.698,2.351c-4.724,4.7-7.573,10.905-8.501,18.077c-4.572-2.014-9.8-3.054-15.52-3.054
	c-1.788,0-3.614,0.101-5.475,0.301c1.305-12.254-1.797-22.839-9.055-30.061c-1.556-1.548-3.271-2.908-5.127-4.078
	c4.963-4.112,11.336-6.595,18.288-6.595c4.328,0,7.837-3.508,7.837-7.837c0-4.329-3.509-7.837-7.837-7.837
	c-14.235,0-26.921,6.723-35.028,17.147c-0.941-0.061-1.893-0.099-2.863-0.099c-1.788,0-3.613,0.101-5.473,0.301
	c1.306-12.256-1.796-22.84-9.056-30.061c-6.114-6.082-14.663-9.298-24.725-9.298c-6.363,0-13.132,1.253-20.169,3.728
	c-6.893-3.882-14.652-5.916-22.675-5.916c-12.313,0-23.892,4.773-32.601,13.438c-5.742,5.712-9.684,12.605-11.779,19.938
	l-36.917-36.726c-4.065-4.045-9.467-6.273-15.211-6.273c-5.745,0-11.146,2.228-15.21,6.271
	c-11.601,11.542-18.477,26.544-19.709,42.69c-4.964-2.814-10.889-4.278-17.495-4.278c-6.011,0-12.395,1.181-19.024,3.515
	c-6.541-3.679-13.89-5.606-21.489-5.606c-11.772,0-22.836,4.606-31.156,12.969c-14.059,14.131-16.849,35.753-7.297,52.86
	c-6.062,17.461-4.119,33.299,5.439,42.908c0.985,0.99,2.042,1.895,3.155,2.726l-6.816,6.78c-3.651,3.632-5.661,8.465-5.661,13.607
	c0,0.437,0.017,0.869,0.046,1.301c-1.926,1.11-3.68,2.533-5.165,4.253c-3.822,4.424-5.506,10.27-4.622,16.037
	c5.288,34.572,22.897,66.232,49.582,89.147c16.106,13.829,34.917,23.911,55.058,29.782c-1.008,2.258-1.581,4.752-1.581,7.381v9.315
	c0,10.029,8.158,18.188,18.184,18.188H375.8c10.027,0,18.184-8.16,18.184-18.188v-9.315c0-2.629-0.573-5.122-1.58-7.381
	c9.466-2.754,18.659-6.437,27.394-11.016c3.834-2.009,5.312-6.746,3.303-10.58c-2.009-3.833-6.747-5.313-10.58-3.302
	c-13.939,7.306-29.175,12.072-44.79,14.091H138.499c-32.17-4.169-64.352-20.623-84.562-46.38
	c-12.247-15.609-20.144-31.995-26.361-50.74c-1.154-4.393-2.088-8.854-2.779-13.375c-0.397-2.589,1.716-4.93,4.306-4.93h448.144
	c2.593,0,4.702,2.342,4.306,4.933c-4.438,29.008-18.794,56.057-40.425,76.163c-3.17,2.946-3.351,7.905-0.405,11.076
	c2.946,3.167,7.905,3.351,11.076,0.404c24.209-22.501,40.279-52.785,45.247-85.271c0.883-5.769-0.801-11.613-4.621-16.037
	c-1.856-2.149-4.125-3.842-6.635-5.023c2.277-1.273,4.352-2.827,6.193-4.659c9.449-9.4,11.394-24.869,5.444-41.925
	C506.815,273.802,504.04,252.685,490.158,238.872C481.952,230.709,504.04,252.685,490.158,238.872z M128.037,484.497
	c0-1.387,1.126-2.514,2.511-2.514H375.8c1.384,0,2.511,1.127,2.511,2.514v9.315c0,1.387-1.126,2.514-2.511,2.514H130.548
	c-1.384,0-2.511-1.127-2.511-2.514V484.497z M210.307,241.252c-1.297,3.845-2.214,7.607-2.754,11.244
	c-2.151,0.09-4.242,0.508-6.213,1.242c-0.891-3.081-2.028-6.091-3.383-9.003C202.293,244.323,206.461,243.136,210.307,241.252z
	 M177.399,198.374l27.904,27.76c-3.204,2.019-6.923,3.099-10.812,3.099c-10.447,0-20.235-9.621-20.235-20.092
	C174.257,205.268,175.353,201.562,177.399,198.374z M150.155,179.534c1.108-1.102,2.583-1.709,4.155-1.709
	c1.572,0,3.046,0.607,4.156,1.71l7.688,7.649c-4.902,6.252-7.569,13.897-7.569,21.956c0,1.666,0.116,3.313,0.342,4.935
	c-6.467,0.824-12.141,4.747-15.179,10.659l-5.38,10.469c-2.306-5.925-3.522-12.284-3.522-18.836
	C134.844,202.436,140.28,189.357,150.155,179.534z M35.006,335.212c0.157-0.367,0.392-0.75,0.755-1.111l19.423-19.323
	c0.922-0.916,2.001-1.053,2.564-1.053c0.563,0,1.645,0.137,2.567,1.054l19.423,19.323c0.363,0.361,0.599,0.744,0.755,1.111H35.006
	V335.212z M75.677,307.952l-4.31-4.287c-3.641-3.621-8.478-5.614-13.62-5.614s-9.979,1.994-13.618,5.616l-1.226,1.219
	c-1.288-0.657-2.44-1.467-3.424-2.458c-5.66-5.691-5.885-16.807-0.602-29.735c1.001-2.451,0.699-5.242-0.807-7.42
	c-7.849-11.361-6.476-26.715,3.265-36.508c5.356-5.383,12.475-8.349,20.045-8.349c5.819,0,11.406,1.753,16.155,5.071
	c2.19,1.53,5.009,1.838,7.478,0.817c6.015-2.484,11.852-3.797,16.88-3.797c5.46,0,9.699,1.477,12.597,4.392
	c4.947,4.974,5.764,14.173,2.241,25.241c-0.89,2.796-0.143,5.855,1.934,7.926c1.543,1.538,3.629,2.336,5.745,2.281l-11.411,22.203
	c-1.599,0.064-3.167,0.235-4.719,0.463l-39.059-39.265c-3.052-3.068-8.013-3.08-11.083-0.029c-3.069,3.053-3.081,8.014-0.029,11.082
	l33.871,34.049C85.121,294.978,79.457,300.887,75.677,307.952z M135.594,316.615c-3.792,3.772-5.881,8.791-5.881,14.131
	c0,1.523,0.186,3.017,0.519,4.465H96.386c-0.328-4.619-2.274-8.918-5.594-12.222l-3.206-3.19
	c3.744-11.372,14.518-19.611,27.198-19.611c10.12,0,19.007,5.26,24.093,13.159L135.594,316.615z M129.367,286.996l28.318-55.096
	c1.068-2.076,3.682-2.911,5.756-1.832c1.806,0.939,3.517,1.991,5.142,3.129c-4.126,2.614-5.585,8.876-2.368,12.722
	c3.801,4.543,10.807,3.162,13.245-1.964c4.422,6.163,7.243,13.333,8.254,20.802l-26.236,26.102
	c-1.934-3.268-6.535-5.193-10.177-4.042c-4.808,1.52-6.953,7.383-4.255,11.658C142.214,293.345,136.17,289.369,129.367,286.996z
	 M186.683,335.212c8.044-3.812,3.911-15.778-4.237-15.757c-9.267,0.023-9.881,12.248-2.476,15.757h-14.715
	c-0.428-0.527-0.91-1.015-1.402-1.482c-3.07-3.05-8.032-3.035-11.082,0.033c-1.049,1.056-0.787,1.181-2.008,1.448
	c-0.563,0.123-1.951,0.188-2.505,0c-2.945-0.999-3.669-5.436-1.608-7.486l58.62-58.321c1.683-1.675,4.505-1.676,6.188,0
	c1.407,1.4,2.701,2.882,3.897,4.423c-3.229,0.861-6.172,4.088-6.606,7.406c-0.55,4.211,2.471,8.189,6.687,8.772
	c-1.675,5.077-2.745,10.371-3.174,15.798c-2.723-7.722-15.118-8.205-16.032,0.971c-0.855,8.565,11.976,13.43,15.803,4.821
	c0.04,8.2,1.53,16.169,4.347,23.617h-29.696V335.212z M233.546,335.212c-3.812-7.308-5.846-15.47-5.846-23.954
	c0-13.928,5.437-27.01,15.31-36.833c1.108-1.102,2.583-1.708,4.156-1.708c1.572,0,3.047,0.606,4.156,1.709l7.689,7.65
	c-4.903,6.251-7.569,13.897-7.569,21.956c0,9.56,3.741,18.547,10.532,25.304c2.346,2.333,4.963,4.295,7.775,5.875H233.546z
	 M287.349,324.123c-5.414,0-10.499-2.095-14.322-5.898c-3.813-3.794-5.913-8.835-5.913-14.194c0-3.872,1.096-7.579,3.142-10.769
	l27.904,27.761C294.957,323.043,291.238,324.123,287.349,324.123z M304.951,335.212c1.557-0.875,3.052-1.869,4.475-2.979
	l2.995,2.979H304.951z M291.719,292.507c2.879-9.635,11.87-16.685,22.492-16.685c9.99,0,18.536,6.238,21.914,14.995
	c-0.607,0.486-1.196,1-1.755,1.556l-21.391,21.282L291.719,292.507z M376.994,334.78l-0.434,0.432h-43.92
	c-1.054-2.351-2.535-4.516-4.42-6.392l-4.132-4.11l21.334-21.226c2.263-2.252,6.057-2.253,8.322-0.002l23.25,23.133
	C379.231,328.84,379.231,332.554,376.994,334.78z M383.313,310.793l-18.516-18.422c-3.704-3.684-8.523-5.84-13.693-6.198
	c-5.372-15.142-19.873-26.025-36.893-26.025c-2.972,0-5.865,0.339-8.648,0.967l-46.801-46.562c-3.069-3.053-8.03-3.04-11.082,0.027
	c-3.052,3.069-3.04,8.031,0.028,11.082l42.737,42.519c-4.376,3.344-8.018,7.591-10.659,12.453l-4.177-4.156
	c-0.002-0.002-0.004-0.004-0.006-0.006l-13.228-13.158c-4.065-4.045-9.467-6.271-15.21-6.271c-5.744,0-11.146,2.227-15.21,6.271
	c-0.947,0.941-1.852,1.913-2.736,2.9c-1.964-2.755-4.163-5.373-6.605-7.814c0.28-4.803,1.595-10.223,3.975-15.988
	c1.02-2.468,0.712-5.287-0.817-7.476c-8.387-12.014-6.916-28.253,3.497-38.612c5.753-5.725,13.405-8.876,21.547-8.876
	c6.26,0,12.267,1.865,17.375,5.394c2.179,1.505,4.97,1.81,7.42,0.807c6.424-2.626,12.665-4.013,18.051-4.013
	c5.913,0,10.513,1.592,13.671,4.735c5.323,5.294,6.219,15.038,2.458,26.734c-0.899,2.793-0.161,5.854,1.91,7.932
	c2.071,2.077,5.129,2.825,7.926,1.936c4.753-1.513,9.224-2.28,13.289-2.28c5.916,0,10.518,1.593,13.676,4.735
	c5.322,5.296,6.218,15.04,2.458,26.736c-0.898,2.794-0.161,5.855,1.911,7.932c2.07,2.077,5.13,2.827,7.926,1.935
	c4.754-1.512,9.225-2.28,13.29-2.28c5.915,0,10.516,1.593,13.676,4.738c3.15,3.134,4.748,7.694,4.748,13.554
	C390.6,293.573,387.981,302.174,383.313,310.793z M438.727,335.212h-33.473c-0.745-1.946-1.156-4.054-1.156-6.257
	c0-9.794,8.027-17.762,17.893-17.762s17.893,7.968,17.893,17.762C439.883,331.157,439.471,333.265,438.727,335.212z
	 M482.294,285.207c-1.529,2.19-1.837,5.007-0.818,7.475c5.155,12.487,4.95,23.206-0.549,28.675
	c-2.833,2.817-6.982,4.246-12.335,4.246c-3.725,0-7.828-0.705-12.196-2.096c-0.443-0.142-0.893-0.228-1.345-0.287
	c-1.679-9.638-7.508-17.874-15.588-22.803l23.255-23.137c3.068-3.052,3.081-8.014,0.028-11.082
	c-3.054-3.068-8.015-3.081-11.082-0.027l-29.502,29.351c-0.059,0-0.116-0.004-0.174-0.004c-6.51,0-12.588,1.861-17.739,5.07
	c1.324-4.978,2.023-9.865,2.022-14.546c0-3.27-0.722-12.15-1.174-13.557c-3.435-10.679-2.65-19.542,2.151-24.318
	c2.832-2.817,6.981-4.246,12.333-4.246c4.939,0,10.675,1.278,16.587,3.693c2.45,1.003,5.241,0.698,7.42-0.807
	c4.658-3.218,10.141-4.92,15.853-4.92c7.429,0,14.411,2.876,19.66,8.097C488.602,259.435,489.945,274.248,482.294,285.207z"/>
<g>
</g>
<g>
</g>
<g>
</g>
<g>
</g>
<g>
</g>
<g>
</g>
<g>
</g>
<g>
</g>
<g>
</g>
<g>
</g>
<g>
</g>
<g>
</g>
<g>
</g>
<g>
</g>
<g>
</g>
</svg>
