<svg viewBox="0 0 511.998 511.998" xmlns="http://www.w3.org/2000/svg"><path d="M144.626 258.753c-23.492-23.371-23.492-61.402 0-84.774 5.347-5.322 14.017-5.322 19.365 0l65.845 65.505c5.348 5.323 5.347 13.949 0 19.268-23.492 23.373-61.718 23.375-85.21.001z" fill="#f9ebcf"/><path d="M174.644 189.391c-10.965 10.91-10.963 28.592 0 39.499 10.961 10.907 28.737 10.907 39.699 0a28.08 28.08 0 0 0 2.259-2.571l-39.376-39.173a28.21 28.21 0 0 0-2.582 2.245z" fill="#ffcc60"/><path d="M157.171 258.693c-7.379-7.418-19.576-8.478-32.969-4.174 4.285-13.462 3.229-25.722-4.152-33.144-8.299-8.34-22.692-8.644-38.026-2.311-14.12-9.86-33.657-8.473-46.243 4.178-12.587 12.652-13.965 32.292-4.158 46.488-6.3 15.414-6 29.883 2.3 38.227 7.38 7.419 19.578 8.479 32.971 4.173-4.282 13.464-3.228 25.726 4.152 33.144 7.38 7.42 19.577 8.479 32.971 4.174-4.284 13.464-3.228 25.724 4.155 33.145 13.736 13.808 44.151 5.623 67.933-18.288 23.784-23.908 31.929-54.484 18.192-68.289-7.38-7.421-19.577-8.483-32.971-4.176 4.283-13.466 3.226-25.726-4.155-33.147z" fill="#78b591"/><path d="M190.06 295.415c-13.489 26.238-45.751 36.504-71.92 22.879-5.956-3.102-8.296-10.458-5.226-16.431l37.801-73.546a12.084 12.084 0 0 1 16.346-5.2c26.169 13.624 36.487 46.058 22.999 72.298z" fill="#ef645e"/><ellipse cx="370.812" cy="240.076" fill="#ef645e" rx="36.451" ry="36.264"/><path d="M449.934 363.249c7.261-7.223 8.3-19.162 4.087-32.273 13.176 4.195 25.176 3.16 32.437-4.064 8.166-8.123 8.462-22.21 2.264-37.22 9.648-13.821 8.292-32.945-4.09-45.264-12.382-12.317-31.604-13.667-45.496-4.069-15.088-6.166-29.247-5.871-37.412 2.251-7.262 7.224-8.301 19.163-4.086 32.274-13.178-4.193-25.178-3.16-32.439 4.064s-8.3 19.163-4.086 32.273c-13.176-4.193-25.176-3.159-32.438 4.066-13.515 13.446-5.502 43.216 17.897 66.495 23.398 23.277 53.323 31.252 66.837 17.806 7.262-7.224 8.3-19.162 4.085-32.273 13.178 4.192 25.178 3.158 32.44-4.066z" fill="#78b591"/><ellipse cx="114.781" cy="328.62" fill="#ffab5f" rx="36.451" ry="36.264"/><path d="M352.119 227.873c-7.804-7.766-20.705-8.875-34.868-4.37 4.532-14.091 3.416-26.925-4.392-34.689-8.776-8.731-23.995-9.049-40.213-2.42-14.933-10.319-35.593-8.868-48.903 4.375-13.31 13.24-14.766 33.797-4.396 48.654-6.662 16.134-6.345 31.276 2.433 40.008 7.805 7.765 20.704 8.874 34.867 4.368-4.53 14.091-3.414 26.926 4.391 34.69 7.805 7.765 20.705 8.875 34.869 4.369-4.531 14.093-3.415 26.927 4.392 34.69 14.525 14.453 46.691 5.884 71.841-19.136 25.151-25.025 33.765-57.026 19.239-71.476-7.805-7.767-20.704-8.876-34.868-4.37 4.53-14.096 3.412-26.928-4.392-34.693z" fill="#a5bc79"/><path d="M229.171 124.982c-20.917 20.808-54.948 20.808-75.864-.001-4.761-4.737-4.761-12.417 0-17.151l58.621-58.322c4.763-4.738 12.481-4.737 17.242 0 20.915 20.808 20.917 54.665.001 75.474z" fill="#ef645e"/><ellipse cx="315.944" cy="125.806" fill="#ffab5f" rx="25.73" ry="25.598"/><path d="M374.108 25.898a9.047 9.047 0 0 1 0 12.838L358.625 54.14c-3.563 3.544-9.339 3.543-12.903 0L330.24 38.736a9.046 9.046 0 0 1 0-12.838l15.482-15.403c3.564-3.544 9.34-3.544 12.903 0z" fill="#c14616"/><path d="M105.186 142.2a7.31 7.31 0 0 1 0 10.376l-12.514 12.45c-2.879 2.865-7.547 2.863-10.427 0l-12.513-12.45a7.31 7.31 0 0 1 0-10.376l12.514-12.447c2.88-2.865 7.548-2.864 10.427 0z" fill="#a5bc79"/><path d="M430.925 165.683a7.31 7.31 0 0 1 0 10.375l-12.513 12.45c-2.879 2.865-7.547 2.863-10.427 0l-12.513-12.45a7.31 7.31 0 0 1 0-10.375l12.513-12.448c2.881-2.865 7.549-2.864 10.427 0zM216.984 339.322c-20.916 20.808-54.947 20.808-75.864-.001a12.083 12.083 0 0 1 0-17.151l58.621-58.322c4.763-4.737 12.482-4.735 17.242 0 20.915 20.808 20.918 54.667.001 75.474z" fill="#c14616"/><path d="M85.265 328.545a11.346 11.346 0 0 1 0 16.104l-19.423 19.322c-4.47 4.447-11.716 4.445-16.185 0l-19.424-19.322a11.348 11.348 0 0 1 0-16.104l19.423-19.323c4.471-4.449 11.715-4.445 16.185 0z" fill="#ef645e"/><ellipse cx="314.21" cy="299.123" fill="#ffab5f" rx="31.298" ry="31.137"/><ellipse cx="421.991" cy="328.955" fill="#ffab5f" rx="25.73" ry="25.597"/><path d="M382.521 321.06a13.581 13.581 0 0 1 0 19.276l-23.25 23.13c-5.35 5.325-14.024 5.323-19.375 0l-23.249-23.13c-5.35-5.324-5.35-13.955 0-19.276l23.249-23.132c5.352-5.323 14.025-5.321 19.375 0z" fill="#ef645e"/><path d="M237.482 353.644c-23.492-23.372-23.492-61.401 0-84.775 5.347-5.321 14.018-5.321 19.365 0l65.845 65.506c5.348 5.323 5.347 13.949 0 19.268-23.492 23.372-61.719 23.374-85.21.001z" fill="#fff"/><path d="M267.5 284.281c-10.964 10.909-10.963 28.592 0 39.499 10.961 10.907 28.737 10.907 39.7 0 .82-.817 1.56-1.682 2.259-2.573l-39.376-39.172a28.408 28.408 0 0 0-2.583 2.246z" fill="#ffcc60"/><path d="M155.641 475.257c-33.667 0-66.216-12.029-91.65-33.869-25.266-21.696-41.936-51.663-46.941-84.386a12.083 12.083 0 0 1 2.806-9.73 12.218 12.218 0 0 1 9.246-4.225h448.144c3.554 0 6.93 1.542 9.246 4.225a12.086 12.086 0 0 1 2.806 9.73c-5.005 32.722-21.675 62.69-46.941 84.386-25.434 21.84-57.985 33.869-91.651 33.869z" fill="#f9ebcf"/><path d="M60.802 357.002a12.083 12.083 0 0 1 2.806-9.73 12.218 12.218 0 0 1 9.246-4.225H29.103c-3.554 0-6.93 1.542-9.246 4.225a12.079 12.079 0 0 0-2.806 9.73c5.005 32.722 21.675 62.69 46.941 84.386 25.434 21.84 57.983 33.869 91.65 33.869h43.752c-33.667 0-66.216-12.029-91.65-33.869-25.266-21.696-41.937-51.664-46.942-84.386z" opacity=".1"/><path d="M136.22 369.189H22.671a7.777 7.777 0 0 0-3.03.61 138.221 138.221 0 0 0 4.712 15.032H136.22a7.821 7.821 0 0 0 0-15.642zm-26.781 36.387H39.696a7.775 7.775 0 0 0-4.6 1.506 139.575 139.575 0 0 0 9.666 14.135h64.675a7.82 7.82 0 0 0 7.82-7.82 7.818 7.818 0 0 0-7.818-7.821z" fill="#ddb690"/><path d="M386.148 493.812c0 5.717-4.633 10.351-10.348 10.351H130.548c-5.715 0-10.348-4.634-10.348-10.351v-9.315c0-5.717 4.633-10.351 10.348-10.351H375.8c5.715 0 10.348 4.635 10.348 10.351z" fill="#a5bc79"/><path d="M163.797 493.812v-9.315c0-5.717 4.633-10.351 10.348-10.351h-43.596c-5.715 0-10.348 4.635-10.348 10.351v9.315c0 5.717 4.633 10.351 10.348 10.351h43.596c-5.715 0-10.348-4.634-10.348-10.351z" opacity=".1"/><path d="M315.949 159.241c18.508 0 33.567-14.998 33.567-33.435S334.458 92.37 315.949 92.37c-18.508 0-33.566 14.998-33.566 33.436 0 18.437 15.057 33.435 33.566 33.435zm0-51.196c9.866 0 17.894 7.968 17.894 17.762s-8.027 17.761-17.894 17.761c-9.866 0-17.893-7.967-17.893-17.761.001-9.794 8.027-17.762 17.893-17.762zm24.248-48.347a16.882 16.882 0 0 0 11.978 4.936c4.522 0 8.776-1.753 11.978-4.938l15.484-15.405a16.783 16.783 0 0 0 4.98-11.972c0-4.524-1.769-8.776-4.981-11.976L364.151 4.939A16.876 16.876 0 0 0 352.173 0a16.88 16.88 0 0 0-11.979 4.939l-15.483 15.404a16.78 16.78 0 0 0-4.981 11.975c0 4.524 1.769 8.776 4.982 11.973zm-4.431-28.244l15.481-15.402c.313-.312.676-.377.925-.377s.611.066.925.377l15.481 15.401c.301.299.364.635.364.865 0 .229-.064.565-.363.863l-15.482 15.403a1.286 1.286 0 0 1-.924.376c-.25 0-.612-.066-.925-.375l-15.481-15.404a1.193 1.193 0 0 1-.364-.863c.001-.23.064-.566.363-.864zM76.721 170.583c2.871 2.855 6.685 4.427 10.741 4.427s7.87-1.574 10.739-4.429l12.512-12.448a15.055 15.055 0 0 0 4.471-10.743c0-4.062-1.587-7.877-4.47-10.746l-12.513-12.446c-2.871-2.857-6.685-4.43-10.741-4.43s-7.87 1.574-10.741 4.429l-12.514 12.447a15.055 15.055 0 0 0-4.47 10.746 15.05 15.05 0 0 0 4.469 10.741zM87.46 135.62l11.829 11.768-11.83 11.771-11.829-11.771zm315 58.446a15.13 15.13 0 0 0 10.739 4.426c4.056 0 7.87-1.574 10.74-4.429l12.512-12.448a15.053 15.053 0 0 0 4.471-10.743c0-4.062-1.587-7.876-4.47-10.745l-12.513-12.447a15.127 15.127 0 0 0-10.742-4.43 15.137 15.137 0 0 0-10.74 4.429l-12.513 12.448a15.053 15.053 0 0 0-4.47 10.745 15.055 15.055 0 0 0 4.469 10.741zm10.738-34.963l11.829 11.769-11.829 11.77-11.829-11.77zM164.474 275.848l1.078.56c1.155.6 2.391.885 3.607.885a7.837 7.837 0 0 0 6.961-4.226 7.835 7.835 0 0 0-3.341-10.567l-1.078-.56a7.837 7.837 0 0 0-7.227 13.908zm26.766-127.43c15.737-.002 31.479-5.961 43.458-17.88 11.605-11.545 17.996-26.92 17.995-43.292 0-16.373-6.392-31.747-17.996-43.293-7.8-7.763-20.494-7.763-28.297 0l-29.825 29.674a7.837 7.837 0 1 0 11.055 11.109l29.823-29.673a4.395 4.395 0 0 1 6.188 0c1.407 1.4 2.7 2.883 3.897 4.424-4.813 1.284-8.082 6.945-5.991 11.623a7.9 7.9 0 0 0 6.52 4.611c2.644.213 4.836-.936 6.66-2.752a45.508 45.508 0 0 1 2.291 14.275c0 12.169-4.75 23.598-13.376 32.18-12.461 12.398-30.369 16.137-46.128 11.243 3.106-3.911 1.534-8.989-2.116-11.849-4.389-3.439-11.097-1.259-12.476 4.203a45.966 45.966 0 0 1-4.09-3.597 4.238 4.238 0 0 1-1.261-3.022 4.235 4.235 0 0 1 1.261-3.019l6.853-6.818a7.838 7.838 0 0 0-11.055-11.112l-6.853 6.818c-3.791 3.771-5.88 8.789-5.881 14.128-.001 5.34 2.088 10.36 5.881 14.133 11.986 11.927 27.722 17.887 43.463 17.886 15.736-.002-15.741.001 0 0z"/><path d="M195.513 121.633a7.837 7.837 0 0 0 5.526-13.394l-.862-.857a7.838 7.838 0 0 0-11.082.033 7.839 7.839 0 0 0 .032 11.083l.862.857a7.806 7.806 0 0 0 5.524 2.278zm21.552-19.725a7.836 7.836 0 0 0 5.532-13.387l-.862-.859a7.834 7.834 0 0 0-11.082.02 7.836 7.836 0 0 0 .02 11.082l.862.859a7.805 7.805 0 0 0 5.53 2.285zm273.093 136.964c-8.207-8.164-19.114-12.659-30.715-12.659-7.475 0-14.708 1.875-21.148 5.453-6.522-2.271-12.8-3.418-18.712-3.418-2.083 0-4.092.155-6.029.444-2.613-9.708-8.501-18.399-16.853-24.402a7.836 7.836 0 0 0-10.937 1.791 7.837 7.837 0 0 0 1.79 10.938 28.538 28.538 0 0 1 11.34 17.685 28.107 28.107 0 0 0-2.698 2.351c-4.724 4.7-7.573 10.905-8.501 18.077-4.572-2.014-9.8-3.054-15.52-3.054-1.788 0-3.614.101-5.475.301 1.305-12.254-1.797-22.839-9.055-30.061a29.734 29.734 0 0 0-5.127-4.078 28.575 28.575 0 0 1 18.288-6.595 7.837 7.837 0 0 0 7.837-7.837 7.837 7.837 0 0 0-7.837-7.837c-14.235 0-26.921 6.723-35.028 17.147a44.155 44.155 0 0 0-2.863-.099c-1.788 0-3.613.101-5.473.301 1.306-12.256-1.796-22.84-9.056-30.061-6.114-6.082-14.663-9.298-24.725-9.298-6.363 0-13.132 1.253-20.169 3.728-6.893-3.882-14.652-5.916-22.675-5.916-12.313 0-23.892 4.773-32.601 13.438a45.823 45.823 0 0 0-11.779 19.938l-36.917-36.726c-4.065-4.045-9.467-6.273-15.211-6.273-5.745 0-11.146 2.228-15.21 6.271-11.601 11.542-18.477 26.544-19.709 42.69-4.964-2.814-10.889-4.278-17.495-4.278-6.011 0-12.395 1.181-19.024 3.515-6.541-3.679-13.89-5.606-21.489-5.606-11.772 0-22.836 4.606-31.156 12.969-14.059 14.131-16.849 35.753-7.297 52.86-6.062 17.461-4.119 33.299 5.439 42.908.985.99 2.042 1.895 3.155 2.726l-6.816 6.78a19.065 19.065 0 0 0-5.615 14.908 20.003 20.003 0 0 0-5.165 4.253 19.89 19.89 0 0 0-4.622 16.037c5.288 34.572 22.897 66.232 49.582 89.147 16.106 13.829 34.917 23.911 55.058 29.782a18.057 18.057 0 0 0-1.581 7.381v9.315c0 10.029 8.158 18.188 18.184 18.188H375.8c10.027 0 18.184-8.16 18.184-18.188v-9.315c0-2.629-.573-5.122-1.58-7.381a148.182 148.182 0 0 0 27.394-11.016 7.837 7.837 0 1 0-7.277-13.882c-13.939 7.306-29.175 12.072-44.79 14.091H138.499c-32.17-4.169-64.352-20.623-84.562-46.38-12.247-15.609-20.144-31.995-26.361-50.74a129.856 129.856 0 0 1-2.779-13.375c-.397-2.589 1.716-4.93 4.306-4.93h448.144c2.593 0 4.702 2.342 4.306 4.933-4.438 29.008-18.794 56.057-40.425 76.163a7.838 7.838 0 0 0-.405 11.076 7.84 7.84 0 0 0 11.076.404c24.209-22.501 40.279-52.785 45.247-85.271a19.898 19.898 0 0 0-4.621-16.037 20.007 20.007 0 0 0-6.635-5.023 28.377 28.377 0 0 0 6.193-4.659c9.449-9.4 11.394-24.869 5.444-41.925 9.388-16.739 6.613-37.856-7.269-51.669-8.206-8.163 13.882 13.813 0 0zM128.037 484.497a2.515 2.515 0 0 1 2.511-2.514H375.8a2.515 2.515 0 0 1 2.511 2.514v9.315a2.515 2.515 0 0 1-2.511 2.514H130.548a2.515 2.515 0 0 1-2.511-2.514zm82.27-243.245c-1.297 3.845-2.214 7.607-2.754 11.244-2.151.09-4.242.508-6.213 1.242a62.533 62.533 0 0 0-3.383-9.003 35.705 35.705 0 0 0 12.35-3.483zm-32.908-42.878l27.904 27.76c-3.204 2.019-6.923 3.099-10.812 3.099-10.447 0-20.235-9.621-20.235-20.092a19.863 19.863 0 0 1 3.143-10.767zm-27.244-18.84a5.851 5.851 0 0 1 4.155-1.709c1.572 0 3.046.607 4.156 1.71l7.688 7.649c-4.902 6.252-7.569 13.897-7.569 21.956 0 1.666.116 3.313.342 4.935a19.843 19.843 0 0 0-15.179 10.659l-5.38 10.469a51.83 51.83 0 0 1-3.522-18.836c-.002-13.931 5.434-27.01 15.309-36.833zM35.006 335.212c.157-.367.392-.75.755-1.111l19.423-19.323a3.623 3.623 0 0 1 2.564-1.053c.563 0 1.645.137 2.567 1.054l19.423 19.323c.363.361.599.744.755 1.111H35.006zm40.671-27.26l-4.31-4.287c-3.641-3.621-8.478-5.614-13.62-5.614s-9.979 1.994-13.618 5.616l-1.226 1.219c-1.288-.657-2.44-1.467-3.424-2.458-5.66-5.691-5.885-16.807-.602-29.735a7.836 7.836 0 0 0-.807-7.42c-7.849-11.361-6.476-26.715 3.265-36.508 5.356-5.383 12.475-8.349 20.045-8.349a28.067 28.067 0 0 1 16.155 5.071 7.832 7.832 0 0 0 7.478.817c6.015-2.484 11.852-3.797 16.88-3.797 5.46 0 9.699 1.477 12.597 4.392 4.947 4.974 5.764 14.173 2.241 25.241a7.837 7.837 0 0 0 1.934 7.926 7.844 7.844 0 0 0 5.745 2.281l-11.411 22.203a44.692 44.692 0 0 0-4.719.463l-39.059-39.265a7.839 7.839 0 0 0-11.083-.029 7.836 7.836 0 0 0-.029 11.082L91.98 290.85c-6.859 4.128-12.523 10.037-16.303 17.102zm59.917 8.663c-3.792 3.772-5.881 8.791-5.881 14.131 0 1.523.186 3.017.519 4.465H96.386a19.042 19.042 0 0 0-5.594-12.222l-3.206-3.19c3.744-11.372 14.518-19.611 27.198-19.611 10.12 0 19.007 5.26 24.093 13.159zm-6.227-29.619l28.318-55.096c1.068-2.076 3.682-2.911 5.756-1.832a45.778 45.778 0 0 1 5.142 3.129c-4.126 2.614-5.585 8.876-2.368 12.722 3.801 4.543 10.807 3.162 13.245-1.964a46.397 46.397 0 0 1 8.254 20.802l-26.236 26.102c-1.934-3.268-6.535-5.193-10.177-4.042-4.808 1.52-6.953 7.383-4.255 11.658a44.378 44.378 0 0 0-17.679-11.479zm57.316 48.216c8.044-3.812 3.911-15.778-4.237-15.757-9.267.023-9.881 12.248-2.476 15.757h-14.715a15.83 15.83 0 0 0-1.402-1.482 7.838 7.838 0 0 0-11.082.033c-1.049 1.056-.787 1.181-2.008 1.448-.563.123-1.951.188-2.505 0-2.945-.999-3.669-5.436-1.608-7.486l58.62-58.321c1.683-1.675 4.505-1.676 6.188 0a46.097 46.097 0 0 1 3.897 4.423c-3.229.861-6.172 4.088-6.606 7.406-.55 4.211 2.471 8.189 6.687 8.772a67.306 67.306 0 0 0-3.174 15.798c-2.723-7.722-15.118-8.205-16.032.971-.855 8.565 11.976 13.43 15.803 4.821.04 8.2 1.53 16.169 4.347 23.617h-29.696zm46.863 0c-3.812-7.308-5.846-15.47-5.846-23.954 0-13.928 5.437-27.01 15.31-36.833a5.851 5.851 0 0 1 4.156-1.708c1.572 0 3.047.606 4.156 1.709l7.689 7.65c-4.903 6.251-7.569 13.897-7.569 21.956 0 9.56 3.741 18.547 10.532 25.304a36.066 36.066 0 0 0 7.775 5.875h-36.203zm53.803-11.089c-5.414 0-10.499-2.095-14.322-5.898-3.813-3.794-5.913-8.835-5.913-14.194 0-3.872 1.096-7.579 3.142-10.769l27.904 27.761c-3.203 2.02-6.922 3.1-10.811 3.1zm17.602 11.089a35.746 35.746 0 0 0 4.475-2.979l2.995 2.979zm-13.232-42.705c2.879-9.635 11.87-16.685 22.492-16.685 9.99 0 18.536 6.238 21.914 14.995-.607.486-1.196 1-1.755 1.556l-21.391 21.282zm85.275 42.273l-.434.432h-43.92a21.287 21.287 0 0 0-4.42-6.392l-4.132-4.11 21.334-21.226c2.263-2.252 6.057-2.253 8.322-.002l23.25 23.133c2.237 2.225 2.237 5.939 0 8.165zm6.319-23.987l-18.516-18.422c-3.704-3.684-8.523-5.84-13.693-6.198-5.372-15.142-19.873-26.025-36.893-26.025-2.972 0-5.865.339-8.648.967l-46.801-46.562a7.837 7.837 0 0 0-11.054 11.109l42.737 42.519a39.285 39.285 0 0 0-10.659 12.453l-4.177-4.156-.006-.006-13.228-13.158c-4.065-4.045-9.467-6.271-15.21-6.271-5.744 0-11.146 2.227-15.21 6.271a68.479 68.479 0 0 0-2.736 2.9 61.566 61.566 0 0 0-6.605-7.814c.28-4.803 1.595-10.223 3.975-15.988a7.833 7.833 0 0 0-.817-7.476c-8.387-12.014-6.916-28.253 3.497-38.612 5.753-5.725 13.405-8.876 21.547-8.876 6.26 0 12.267 1.865 17.375 5.394a7.834 7.834 0 0 0 7.42.807c6.424-2.626 12.665-4.013 18.051-4.013 5.913 0 10.513 1.592 13.671 4.735 5.323 5.294 6.219 15.038 2.458 26.734a7.836 7.836 0 0 0 9.836 9.868c4.753-1.513 9.224-2.28 13.289-2.28 5.916 0 10.518 1.593 13.676 4.735 5.322 5.296 6.218 15.04 2.458 26.736a7.835 7.835 0 0 0 9.837 9.867c4.754-1.512 9.225-2.28 13.29-2.28 5.915 0 10.516 1.593 13.676 4.738 3.15 3.134 4.748 7.694 4.748 13.554-.001 7.53-2.62 16.131-7.288 24.75zm55.414 24.419h-33.473a17.46 17.46 0 0 1-1.156-6.257c0-9.794 8.027-17.762 17.893-17.762s17.893 7.968 17.893 17.762a17.513 17.513 0 0 1-1.157 6.257zm43.567-50.005a7.834 7.834 0 0 0-.818 7.475c5.155 12.487 4.95 23.206-.549 28.675-2.833 2.817-6.982 4.246-12.335 4.246-3.725 0-7.828-.705-12.196-2.096a7.607 7.607 0 0 0-1.345-.287c-1.679-9.638-7.508-17.874-15.588-22.803l23.255-23.137a7.836 7.836 0 0 0 .028-11.082 7.835 7.835 0 0 0-11.082-.027l-29.502 29.351c-.059 0-.116-.004-.174-.004a33.441 33.441 0 0 0-17.739 5.07c1.324-4.978 2.023-9.865 2.022-14.546 0-3.27-.722-12.15-1.174-13.557-3.435-10.679-2.65-19.542 2.151-24.318 2.832-2.817 6.981-4.246 12.333-4.246 4.939 0 10.675 1.278 16.587 3.693a7.834 7.834 0 0 0 7.42-.807c4.658-3.218 10.141-4.92 15.853-4.92 7.429 0 14.411 2.876 19.66 8.097 9.501 9.451 10.844 24.264 3.193 35.223z"/></svg>