<svg viewBox="0 0 512 512" xmlns="http://www.w3.org/2000/svg"><path d="M338.623 482.282c-6.235 3.49-14.522 6.698-25.494 9.262L30.287 483.75c-.07-.935-.121-288.987-.151-289.892a34.23 34.23 0 0 1 .664-8.357c5.28-25.424 39.293-35.219 57.375-13.195 2.937 3.58 6.497 6.99 10.821 9.876 10.66 7.11 32.383 1.046 45.166 9.524 11.767 7.814 14.542 30.131 26.319 37.925 12.803 8.468 34.516 2.353 45.186 9.403 21.029 13.899 11.364 18.756 24.257 35.883 12.621 16.775 24.428 9.132 34.556 27.526 10.137 18.384-4.817 26.621 5.31 45.015 10.137 18.384 25.092 10.147 35.219 28.542 10.137 18.384-4.817 26.631 5.31 45.015 10.137 18.394 25.092 10.158 35.23 28.552 0-.001 8.196 18.645-16.926 32.715z" fill="#5ca33b"/><path d="M338.623 482.282c-6.235 3.49-14.522 6.698-25.494 9.262L30.287 483.75c-.07-.935-.121-288.987-.151-289.892a34.23 34.23 0 0 1 .664-8.357c12.581-5.803 28.753-3.872 39.403 9.102 2.937 3.58 6.497 7 10.821 9.886 10.66 7.11 32.383 1.046 45.156 9.524 11.777 7.804 14.552 30.131 26.329 37.915 12.803 8.478 34.505 2.353 45.186 9.413 21.029 13.889 11.354 18.756 24.247 35.873 12.632 16.775 24.438 9.142 34.566 27.526 10.137 18.394-4.827 26.631 5.31 45.015 10.127 18.394 25.082 10.158 35.219 28.542 10.137 18.394-4.827 26.631 5.31 45.025s25.092 10.147 35.219 28.542c.001-.001 1.912 4.343 1.057 10.418z" fill="#6dc54a"/><path d="M287.172 495.446l-22.829-20.335-167.61-149.296 34.505-32.253 14.985-13.999 106.845 62.424a14.039 14.039 0 0 1 6.718 9.494z" fill="#e3d000"/><path d="M264.342 475.111L96.733 325.815l34.505-32.253 105.377 61.549a14.076 14.076 0 0 1 6.708 9.504z" fill="#fff36c"/><path d="M180.065 308.89c0 47.067-38.156 85.223-85.223 85.223-24.79 0-47.107-10.58-62.675-27.476-13.989-15.176-22.548-35.471-22.548-57.747 0-47.067 38.156-85.223 85.223-85.223 39.645 0 72.963 27.073 82.487 63.731a85.071 85.071 0 0 1 2.736 21.492z" fill="#d63030"/><path d="M180.065 308.89c0 47.067-38.156 85.223-85.223 85.223-24.79 0-47.107-10.58-62.675-27.476a85.116 85.116 0 0 1-2.735-21.492c0-47.067 38.156-85.223 85.223-85.223 24.79 0 47.097 10.58 62.675 27.476a85.116 85.116 0 0 1 2.735 21.492z" fill="#fb5858"/><path d="M316.246 483.75c-2.585 11.234-12.27 20.707-25.877 20.707H35.124c-14.643 0-26.51-11.877-26.51-26.51V222.701c0-18.364 17.258-29.608 32.786-25.846 4.445 1.076 8.76 3.389 12.471 7.1l255.246 255.246c7.079 7.08 9.03 16.292 7.129 24.549z" fill="#f77026"/><path d="M316.246 483.75H67.427c-14.643 0-26.51-11.867-26.51-26.51V201.994c0-1.78.161-3.5.483-5.139 4.445 1.076 8.76 3.389 12.471 7.1l255.246 255.246c7.079 7.08 9.03 16.292 7.129 24.549z" fill="#ff883e"/><path d="M173.449 29.647c6.235-3.49 14.522-6.698 25.494-9.262l282.842 7.794c.07.935.121 288.987.151 289.892a34.23 34.23 0 0 1-.664 8.357c-5.28 25.424-39.293 35.219-57.375 13.195-2.937-3.58-6.497-6.99-10.821-9.876-10.66-7.11-32.383-1.046-45.166-9.524-11.767-7.814-14.542-30.131-26.319-37.925-12.803-8.468-34.516-2.353-45.186-9.403-21.029-13.899-11.364-18.756-24.257-35.883-12.621-16.775-24.428-9.132-34.556-27.526-10.137-18.384 4.817-26.621-5.31-45.015-10.137-18.384-25.092-10.147-35.219-28.542-10.137-18.384 4.817-26.631-5.31-45.015-10.137-18.394-25.092-10.158-35.23-28.552.001 0-8.196-18.645 16.926-32.715z" fill="#5ca33b"/><path d="M173.449 29.647c6.235-3.49 14.522-6.698 25.494-9.262l282.842 7.794c.07.935.121 288.987.151 289.892a34.23 34.23 0 0 1-.664 8.357c-12.581 5.803-28.753 3.872-39.403-9.102-2.937-3.58-6.497-7-10.821-9.886-10.66-7.11-32.383-1.046-45.156-9.524-11.777-7.804-14.552-30.131-26.329-37.915-12.803-8.478-34.505-2.353-45.186-9.413-21.029-13.889-11.354-18.756-24.247-35.873-12.632-16.775-24.438-9.142-34.566-27.526-10.137-18.394 4.827-26.631-5.31-45.015-10.127-18.394-25.082-10.158-35.219-28.542-10.137-18.394 4.827-26.631-5.31-45.025s-25.092-10.147-35.219-28.542c-.001.001-1.911-4.344-1.057-10.418z" fill="#6dc54a"/><path d="M224.901 16.482l22.829 20.335 167.609 149.296-34.505 32.253-14.985 13.999-106.845-62.424a14.039 14.039 0 0 1-6.718-9.494z" fill="#e3d000"/><path d="M247.73 36.818l167.609 149.296-34.505 32.253-105.377-61.549a14.076 14.076 0 0 1-6.708-9.504z" fill="#fff36c"/><path d="M332.007 203.039c0-47.067 38.156-85.223 85.223-85.223 24.79 0 47.107 10.58 62.675 27.476 13.989 15.176 22.548 35.471 22.548 57.747 0 47.067-38.156 85.223-85.223 85.223-39.645 0-72.963-27.073-82.487-63.731a85.117 85.117 0 0 1-2.736-21.492z" fill="#d63030"/><path d="M332.007 203.039c0-47.067 38.156-85.223 85.223-85.223 24.79 0 47.107 10.58 62.675 27.476a85.117 85.117 0 0 1 2.736 21.492c0 47.067-38.156 85.223-85.223 85.223-24.79 0-47.097-10.58-62.675-27.476a85.117 85.117 0 0 1-2.736-21.492z" fill="#fb5858"/><path d="M195.826 28.179c2.585-11.234 12.27-20.707 25.877-20.707h255.246c14.643 0 26.51 11.877 26.51 26.51v255.246c0 18.364-17.258 29.608-32.786 25.846-4.445-1.076-8.76-3.389-12.471-7.1L202.957 52.728c-7.081-7.08-9.032-16.293-7.131-24.549z" fill="#f77026"/><path d="M195.826 28.179h248.819c14.643 0 26.51 11.867 26.51 26.51v255.246c0 1.78-.161 3.5-.483 5.139-4.445-1.076-8.76-3.389-12.471-7.1L202.957 52.728c-7.081-7.08-9.032-16.293-7.131-24.549z" fill="#ff883e"/><path d="M476.876 0H221.64c-11.224 0-21.16 5.159-27.445 13.848-22.427 5.722-36.99 14.965-43.275 27.536-4.435 8.88-3.932 19.47-1.066 24.69 11.284 20.476 27.274 14.11 35.219 28.542 8.156 14.784-6.165 24.197 5.31 45.025 11.284 20.476 27.274 14.11 35.219 28.532 8.146 14.784-6.165 24.197 5.31 45.025 11.555 20.969 24.368 14.1 35.149 28.411 11.374 15.116 2.957 22.337 26.118 37.643 12.963 8.569 34.727 2.484 45.186 9.403 9.142 6.054 12.511 28.763 26.309 37.915 14.703 9.755 37.201 4.214 45.146 9.514 3.359 2.243 6.447 5.059 9.182 8.387 23.865 29.075 70.167 13.014 71.414-23.523 13.607-5.411 21.512-17.811 21.512-31.659V34.053C510.929 15.277 495.662 0 476.876 0zm-47.217 334.897c-3.681-4.475-7.875-8.297-12.461-11.364-12.963-8.649-34.747-2.605-45.186-9.534-9.283-6.155-12.39-28.703-26.329-37.925-14.643-9.695-37.291-4.194-45.186-9.413-18.163-11.988-8.548-15.739-22.387-34.123-13.848-18.394-25.685-11.566-33.982-26.621-8.146-14.784 6.165-24.197-5.31-45.025-11.284-20.476-27.274-14.11-35.219-28.532-8.146-14.794 6.165-24.197-5.31-45.025-11.344-20.597-26.902-13.959-34.998-28.139-.322-.986-1.589-5.622 1.126-11.063 2.444-4.888 8.518-11.284 23.211-16.564-.784 9.705 2.655 19.289 9.926 26.56l33.972 33.972 13.285 69.825a21.576 21.576 0 0 0 10.318 14.593l75.508 44.11c9.192 47.921 54.72 81.26 103.788 74.371l18.374 18.374c5.954 5.954 13.446 9.343 21.301 9.946-2.846 20.367-29.949 29.227-44.441 11.577zm-85.585-130.248l15.307 15.307 13.818 13.818 46.996 46.996c-32.102-.624-59.487-20.818-70.7-49.118a76.709 76.709 0 0 1-5.421-27.003zm151.769 84.64c0 16.886-20.416 25.374-32.373 13.416L346.105 185.34l-12.169-12.169-21.462-21.462c-3.108-3.108-8.196-2.917-11.053.412a7.512 7.512 0 0 0-1.83 4.928c0 1.931.744 3.862 2.213 5.33l28.039 28.039a89.148 89.148 0 0 0-.865 11.777l-66.245-38.699a6.45 6.45 0 0 1-3.098-4.395l-9.142-48.032 30 30c3.108 3.108 8.196 2.917 11.053-.412a7.512 7.512 0 0 0 1.83-4.928 7.522 7.522 0 0 0-2.213-5.33L245.485 84.72l-37.261-37.261c-6.607-6.607-6.457-15.005-4.113-20.667 1.961-4.737 6.376-9.745 13.245-11.244 3.681-.835-12.29-.292 259.52-.463 10.459 0 18.967 8.508 18.967 18.967z"/><path d="M459.186 207.165L429.14 237.21c-4.765 4.764-1.328 12.877 5.333 12.877 5.557 0 4.976-2.937 35.379-32.254a7.54 7.54 0 0 0 .001-10.666 7.543 7.543 0 0 0-10.667-.002zm10.93-78.616l-74.82 74.82c-4.767 4.768-1.326 12.877 5.334 12.877 5.95 0 2.261-.326 80.153-77.028a7.542 7.542 0 0 0 0-10.667 7.542 7.542 0 0 0-10.667-.002zm2.746-49.096a7.544 7.544 0 0 0-10.667-10.667l-100.741 100.74c-4.767 4.768-1.326 12.877 5.334 12.877 5.958-.001 1.184.737 106.074-102.95zm-33.841-33.842a7.544 7.544 0 0 0-10.667-10.667L327.613 135.685a7.542 7.542 0 0 0 5.334 12.875c5.957 0 1.182.738 106.074-102.949zm-59.764-7.921a7.544 7.544 0 0 0-10.667-10.667l-74.82 74.82c-4.767 4.768-1.326 12.877 5.334 12.877 5.949-.001 2.261-.328 80.153-77.03zm-78.616.265a7.544 7.544 0 0 0-10.667 0L259.928 68c-4.767 4.768-1.326 12.877 5.334 12.877 5.561 0 4.985-2.946 35.379-32.254a7.545 7.545 0 0 0 0-10.668zM82.864 274.783a7.544 7.544 0 0 0-10.667-10.667l-30.045 30.045c-4.767 4.768-1.326 12.877 5.334 12.877 5.559-.001 4.984-2.947 35.378-32.255zm90.859 90.859L72.982 466.383c-4.767 4.768-1.326 12.877 5.334 12.877 5.958 0 1.184.737 106.075-102.949a7.542 7.542 0 0 0 0-10.667 7.543 7.543 0 0 0-10.668-.002zm33.842 33.842l-74.82 74.82c-4.767 4.768-1.326 12.877 5.334 12.877 5.949 0 2.261-.326 80.153-77.028a7.542 7.542 0 0 0 0-10.667 7.542 7.542 0 0 0-10.667-.002zm9.13 76.763c5.561 0 4.985-2.946 35.379-32.254a7.544 7.544 0 0 0-10.667-10.667l-30.045 30.045c-4.767 4.768-1.325 12.876 5.333 12.876z"/><path d="M96.426 496.922c-18.607-.007-38.981-.007-61.293-.007-10.475 0-18.976-8.492-18.976-18.967v-189.64a7.536 7.536 0 0 0-7.537-7.537h-.012a7.536 7.536 0 0 0-7.537 7.537v189.64C1.071 496.754 16.317 512 35.124 512h61.292a7.536 7.536 0 0 0 7.537-7.537v-.004a7.53 7.53 0 0 0-7.527-7.537z"/><path d="M326.927 417.384c-8.146-14.794 6.165-24.207-5.31-45.025-11.284-20.486-27.274-14.12-35.219-28.542-8.146-14.784 6.165-24.197-5.31-45.015-11.555-20.979-24.358-14.11-35.139-28.421-11.374-15.116-2.967-22.337-26.128-37.633-12.963-8.569-34.727-2.494-45.176-9.413-9.152-6.044-12.521-28.763-26.319-37.915-14.703-9.755-37.191-4.204-45.146-9.514-3.349-2.233-6.436-5.059-9.172-8.387-23.755-28.934-70.177-13.175-71.414 23.523-11.797 4.184-21.522 16.423-21.522 31.659v35.567a7.536 7.536 0 0 0 7.537 7.537h.011a7.536 7.536 0 0 0 7.537-7.537v-35.567c0-16.926 20.456-25.333 32.373-13.416l255.246 255.246c10.922 10.922 4.737 28.884-9.132 31.931-2.727.595 9.482.496-168.181.464a7.536 7.536 0 1 0-.008 15.074h163.914c18.776 0 27.355-13.768 27.466-13.859 22.407-5.722 36.969-14.975 43.245-27.536 4.425-8.85 3.952-19.42 1.066-24.68-11.284-20.485-27.264-14.119-35.219-28.541zM153.635 293.06l-.07-.07a13.384 13.384 0 0 0-.533-.533l-.171-.171c-.332-.342-.654-.654-.965-.965l-.352-.352c-.03-.03-.05-.06-.07-.07l-.302-.302c-.141-.141-.272-.282-.402-.402l-.382-.382c-.02-.03-.04-.05-.05-.05l-.453-.453c-.03-.03-.05-.06-.07-.07l-.412-.412c-.07-.07-.131-.141-.191-.191l-.332-.332a13.9 13.9 0 0 0-.543-.543l-.342-.342c-.08-.08-.151-.161-.231-.231l-.382-.382c-.08-.08-.151-.161-.221-.221l-.392-.392-.194-.194-.05-.05-.332-.332c-.111-.121-.231-.231-.342-.342l-.302-.302-.392-.392c-.06-.07-.131-.131-.191-.191l-.463-.463-.09-.091-.483-.483-.06-.06-.211-.211-.493-.493-.282-.282-.161-.161-.563-.563c-.05-.05-.091-.101-.141-.141l-.181-.181-.131-.131-.131-.131-.392-.392-.03-.03-49.35-49.35c20.848.412 39.695 9.071 53.413 22.819 13.728 13.748 22.326 32.564 22.709 53.292-5.853-5.851-10.55-10.548-14.291-14.279zm28.532 28.521a91.17 91.17 0 0 0 .855-11.787c68.498 40.952 68.347 37.854 69.353 43.094l9.142 48.042zm165.417 142.276c-2.444 4.888-8.508 11.284-23.191 16.564.784-9.705-2.675-19.289-9.946-26.56l-33.972-33.972-13.285-69.815a21.56 21.56 0 0 0-10.308-14.603l-75.518-44.11c-9.182-47.911-54.72-81.25-103.788-74.361L59.2 198.625c-5.944-5.944-13.446-9.353-21.291-9.966 1.79-12.782 13.134-21.029 24.921-21.029 6.99 0 14.13 2.896 19.521 9.464 12.611 15.367 21.864 16.051 36.949 16.815 21.069 1.076 22.859 2.725 31.227 20.044 10.469 21.693 16.463 27.164 44.13 28.501 6.628.322 13.486.654 16.855 2.876 18.153 11.998 8.548 15.739 22.387 34.123 13.838 18.394 25.685 11.576 33.972 26.631 8.146 14.784-6.165 24.187 5.31 45.015 11.284 20.476 27.275 14.11 35.219 28.542 8.146 14.784-6.155 24.197 5.31 45.015 11.354 20.597 26.902 13.959 34.998 28.139.334.995 1.591 5.632-1.124 11.062z"/><path d="M29.029 378.504c.206 4.609 4.561 7.925 9.001 7 3.651-.699 4.414-3.081 11.998-10.198l66.678-66.678a7.544 7.544 0 0 0 0-10.67 7.544 7.544 0 0 0-10.67 0L37.84 366.164c-4.655 5.362-9.091 7.109-8.811 12.34zm110.848-46.705L39.136 432.54a7.544 7.544 0 0 0 0 10.67c2.97 2.95 7.747 2.924 10.67 0l100.741-100.741a7.546 7.546 0 0 0-10.67-10.67z"/></svg>