<?xml version="1.0" encoding="iso-8859-1"?>
<!-- Generator: Adobe Illustrator 21.0.0, SVG Export Plug-In . SVG Version: 6.00 Build 0)  -->
<svg version="1.1" id="Capa_1" xmlns="http://www.w3.org/2000/svg" xmlns:xlink="http://www.w3.org/1999/xlink" x="0px" y="0px"
	 viewBox="0 0 512 512" style="enable-background:new 0 0 512 512;" xml:space="preserve">
<path style="fill:#5CA33B;" d="M338.623,482.282c-6.235,3.49-14.522,6.698-25.494,9.262L30.287,483.75
	c-0.07-0.935-0.121-288.987-0.151-289.892c-0.121-2.937,0.121-5.732,0.664-8.357c5.28-25.424,39.293-35.219,57.375-13.195
	c2.937,3.58,6.497,6.99,10.821,9.876c10.66,7.11,32.383,1.046,45.166,9.524c11.767,7.814,14.542,30.131,26.319,37.925
	c12.803,8.468,34.516,2.353,45.186,9.403c21.029,13.899,11.364,18.756,24.257,35.883c12.621,16.775,24.428,9.132,34.556,27.526
	c10.137,18.384-4.817,26.621,5.31,45.015c10.137,18.384,25.092,10.147,35.219,28.542c10.137,18.384-4.817,26.631,5.31,45.015
	c10.137,18.394,25.092,10.158,35.23,28.552C355.549,449.566,363.745,468.212,338.623,482.282z"/>
<path style="fill:#6DC54A;" d="M338.623,482.282c-6.235,3.49-14.522,6.698-25.494,9.262L30.287,483.75
	c-0.07-0.935-0.121-288.987-0.151-289.892c-0.121-2.937,0.121-5.732,0.664-8.357c12.581-5.803,28.753-3.872,39.403,9.102
	c2.937,3.58,6.497,7,10.821,9.886c10.66,7.11,32.383,1.046,45.156,9.524c11.777,7.804,14.552,30.131,26.329,37.915
	c12.803,8.478,34.505,2.353,45.186,9.413c21.029,13.889,11.354,18.756,24.247,35.873c12.632,16.775,24.438,9.142,34.566,27.526
	c10.137,18.394-4.827,26.631,5.31,45.015c10.127,18.394,25.082,10.158,35.219,28.542c10.137,18.394-4.827,26.631,5.31,45.025
	c10.137,18.394,25.092,10.147,35.219,28.542C337.567,471.863,339.478,476.207,338.623,482.282z"/>
<path style="fill:#E3D000;" d="M287.172,495.446l-22.829-20.335L96.733,325.815l34.505-32.253l14.985-13.999l106.845,62.424
	c3.51,2.042,5.954,5.511,6.718,9.494L287.172,495.446z"/>
<path style="fill:#FFF36C;" d="M264.342,475.111L96.733,325.815l34.505-32.253l105.377,61.549c3.5,2.052,5.944,5.511,6.708,9.504
	L264.342,475.111z"/>
<path style="fill:#D63030;" d="M180.065,308.89c0,47.067-38.156,85.223-85.223,85.223c-24.79,0-47.107-10.58-62.675-27.476
	C18.178,351.461,9.619,331.166,9.619,308.89c0-47.067,38.156-85.223,85.223-85.223c39.645,0,72.963,27.073,82.487,63.731
	C179.12,294.267,180.065,301.468,180.065,308.89z"/>
<path style="fill:#FB5858;" d="M180.065,308.89c0,47.067-38.156,85.223-85.223,85.223c-24.79,0-47.107-10.58-62.675-27.476
	c-1.79-6.869-2.735-14.07-2.735-21.492c0-47.067,38.156-85.223,85.223-85.223c24.79,0,47.097,10.58,62.675,27.476
	C179.12,294.267,180.065,301.468,180.065,308.89z"/>
<path style="fill:#F77026;" d="M316.246,483.75c-2.585,11.234-12.27,20.707-25.877,20.707H35.124
	c-14.643,0-26.51-11.877-26.51-26.51V222.701c0-18.364,17.258-29.608,32.786-25.846c4.445,1.076,8.76,3.389,12.471,7.1
	l255.246,255.246C316.196,466.281,318.147,475.493,316.246,483.75z"/>
<path style="fill:#FF883E;" d="M316.246,483.75H67.427c-14.643,0-26.51-11.867-26.51-26.51V201.994c0-1.78,0.161-3.5,0.483-5.139
	c4.445,1.076,8.76,3.389,12.471,7.1l255.246,255.246C316.196,466.281,318.147,475.493,316.246,483.75z"/>
<path style="fill:#5CA33B;" d="M173.449,29.647c6.235-3.49,14.522-6.698,25.494-9.262l282.842,7.794
	c0.07,0.935,0.121,288.987,0.151,289.892c0.121,2.937-0.121,5.732-0.664,8.357c-5.28,25.424-39.293,35.219-57.375,13.195
	c-2.937-3.58-6.497-6.99-10.821-9.876c-10.66-7.11-32.383-1.046-45.166-9.524c-11.767-7.814-14.542-30.131-26.319-37.925
	c-12.803-8.468-34.516-2.353-45.186-9.403c-21.029-13.899-11.364-18.756-24.257-35.883c-12.621-16.775-24.428-9.132-34.556-27.526
	c-10.137-18.384,4.817-26.621-5.31-45.015c-10.137-18.384-25.092-10.147-35.219-28.542c-10.137-18.384,4.817-26.631-5.31-45.015
	c-10.137-18.394-25.092-10.158-35.23-28.552C156.524,62.362,148.327,43.717,173.449,29.647z"/>
<path style="fill:#6DC54A;" d="M173.449,29.647c6.235-3.49,14.522-6.698,25.494-9.262l282.842,7.794
	c0.07,0.935,0.121,288.987,0.151,289.892c0.121,2.937-0.121,5.732-0.664,8.357c-12.581,5.803-28.753,3.872-39.403-9.102
	c-2.937-3.58-6.497-7-10.821-9.886c-10.66-7.11-32.383-1.046-45.156-9.524c-11.777-7.804-14.552-30.131-26.329-37.915
	c-12.803-8.478-34.505-2.353-45.186-9.413c-21.029-13.889-11.354-18.756-24.247-35.873c-12.632-16.775-24.438-9.142-34.566-27.526
	c-10.137-18.394,4.827-26.631-5.31-45.015c-10.127-18.394-25.082-10.158-35.219-28.542c-10.137-18.394,4.827-26.631-5.31-45.025
	s-25.092-10.147-35.219-28.542C174.505,40.066,172.595,35.721,173.449,29.647z"/>
<path style="fill:#E3D000;" d="M224.901,16.482l22.829,20.335l167.609,149.296l-34.505,32.253l-14.985,13.999l-106.845-62.424
	c-3.51-2.042-5.954-5.511-6.718-9.494L224.901,16.482z"/>
<path style="fill:#FFF36C;" d="M247.73,36.818l167.609,149.296l-34.505,32.253l-105.377-61.549c-3.5-2.052-5.944-5.511-6.708-9.504
	L247.73,36.818z"/>
<path style="fill:#D63030;" d="M332.007,203.039c0-47.067,38.156-85.223,85.223-85.223c24.79,0,47.107,10.58,62.675,27.476
	c13.989,15.176,22.548,35.471,22.548,57.747c0,47.067-38.156,85.223-85.223,85.223c-39.645,0-72.963-27.073-82.487-63.731
	C332.953,217.662,332.007,210.461,332.007,203.039z"/>
<path style="fill:#FB5858;" d="M332.007,203.039c0-47.067,38.156-85.223,85.223-85.223c24.79,0,47.107,10.58,62.675,27.476
	c1.79,6.869,2.736,14.07,2.736,21.492c0,47.067-38.156,85.223-85.223,85.223c-24.79,0-47.097-10.58-62.675-27.476
	C332.953,217.662,332.007,210.461,332.007,203.039z"/>
<path style="fill:#F77026;" d="M195.826,28.179c2.585-11.234,12.27-20.707,25.877-20.707h255.246c14.643,0,26.51,11.877,26.51,26.51
	v255.246c0,18.364-17.258,29.608-32.786,25.846c-4.445-1.076-8.76-3.389-12.471-7.1L202.957,52.728
	C195.876,45.648,193.925,36.435,195.826,28.179z"/>
<path style="fill:#FF883E;" d="M195.826,28.179h248.819c14.643,0,26.51,11.867,26.51,26.51v255.246c0,1.78-0.161,3.5-0.483,5.139
	c-4.445-1.076-8.76-3.389-12.471-7.1L202.957,52.728C195.876,45.648,193.925,36.435,195.826,28.179z"/>
<path d="M476.876,0H221.64c-11.224,0-21.16,5.159-27.445,13.848c-22.427,5.722-36.99,14.965-43.275,27.536
	c-4.435,8.88-3.932,19.47-1.066,24.69c11.284,20.476,27.274,14.11,35.219,28.542c8.156,14.784-6.165,24.197,5.31,45.025
	c11.284,20.476,27.274,14.11,35.219,28.532c8.146,14.784-6.165,24.197,5.31,45.025c11.555,20.969,24.368,14.1,35.149,28.411
	c11.374,15.116,2.957,22.337,26.118,37.643c12.963,8.569,34.727,2.484,45.186,9.403c9.142,6.054,12.511,28.763,26.309,37.915
	c14.703,9.755,37.201,4.214,45.146,9.514c3.359,2.243,6.447,5.059,9.182,8.387c23.865,29.075,70.167,13.014,71.414-23.523
	c13.607-5.411,21.512-17.811,21.512-31.659V34.053C510.929,15.277,495.662,0,476.876,0z M429.659,334.897
	c-3.681-4.475-7.875-8.297-12.461-11.364c-12.963-8.649-34.747-2.605-45.186-9.534c-9.283-6.155-12.39-28.703-26.329-37.925
	c-14.643-9.695-37.291-4.194-45.186-9.413c-18.163-11.988-8.548-15.739-22.387-34.123c-13.848-18.394-25.685-11.566-33.982-26.621
	c-8.146-14.784,6.165-24.197-5.31-45.025c-11.284-20.476-27.274-14.11-35.219-28.532c-8.146-14.794,6.165-24.197-5.31-45.025
	c-11.344-20.597-26.902-13.959-34.998-28.139c-0.322-0.986-1.589-5.622,1.126-11.063c2.444-4.888,8.518-11.284,23.211-16.564
	c-0.784,9.705,2.655,19.289,9.926,26.56l33.972,33.972l13.285,69.825c1.167,6.125,4.928,11.445,10.318,14.593l75.508,44.11
	c9.192,47.921,54.72,81.26,103.788,74.371l18.374,18.374c5.954,5.954,13.446,9.343,21.301,9.946
	C471.254,343.687,444.151,352.547,429.659,334.897z M344.074,204.649l15.307,15.307l13.818,13.818l46.996,46.996
	c-32.102-0.624-59.487-20.818-70.7-49.118c-2.554-6.426-4.274-13.265-5.018-20.396C344.255,209.084,344.114,206.872,344.074,204.649
	z M495.843,289.289c0,16.886-20.416,25.374-32.373,13.416L346.105,185.34l-12.169-12.169l-21.462-21.462
	c-3.108-3.108-8.196-2.917-11.053,0.412c-1.227,1.418-1.83,3.178-1.83,4.928c0,1.931,0.744,3.862,2.213,5.33l28.039,28.039
	c-0.543,3.852-0.835,7.784-0.865,11.777l-66.245-38.699c-1.619-0.945-2.756-2.544-3.098-4.395l-9.142-48.032l30,30
	c3.108,3.108,8.196,2.917,11.053-0.412c1.227-1.418,1.83-3.178,1.83-4.928c0-1.931-0.744-3.862-2.213-5.33L245.485,84.72
	c-12.4-12.4-24.881-24.881-37.261-37.261c-6.607-6.607-6.457-15.005-4.113-20.667c1.961-4.737,6.376-9.745,13.245-11.244
	c3.681-0.835-12.29-0.292,259.52-0.463c10.459,0,18.967,8.508,18.967,18.967L495.843,289.289L495.843,289.289z"/>
<path d="M459.186,207.165l-30.046,30.045c-4.765,4.764-1.328,12.877,5.333,12.877c5.557,0,4.976-2.937,35.379-32.254
	c2.947-2.947,2.947-7.722,0.001-10.666C466.907,204.22,462.13,204.221,459.186,207.165z"/>
<path d="M470.116,128.549l-74.82,74.82c-4.767,4.768-1.326,12.877,5.334,12.877c5.95,0,2.261-0.326,80.153-77.028
	c2.946-2.947,2.946-7.722,0-10.667C477.836,125.604,473.061,125.604,470.116,128.549z"/>
<path d="M472.862,79.453c2.946-2.947,2.946-7.722,0-10.667c-2.947-2.945-7.722-2.945-10.667,0L361.454,169.526
	c-4.767,4.768-1.326,12.877,5.334,12.877C372.746,182.402,367.972,183.14,472.862,79.453z"/>
<path d="M439.021,45.611c2.946-2.947,2.946-7.722,0-10.667c-2.947-2.945-7.722-2.945-10.667,0L327.613,135.685
	c-2.946,2.947-2.946,7.722,0,10.667c1.473,1.472,3.404,2.208,5.334,2.208C338.904,148.56,334.129,149.298,439.021,45.611z"/>
<path d="M379.257,37.69c2.946-2.947,2.946-7.722,0-10.667c-2.947-2.945-7.722-2.945-10.667,0l-74.82,74.82
	c-4.767,4.768-1.326,12.877,5.334,12.877C305.053,114.719,301.365,114.392,379.257,37.69z"/>
<path d="M300.641,37.955c-2.947-2.945-7.722-2.945-10.667,0L259.928,68c-4.767,4.768-1.326,12.877,5.334,12.877
	c5.561,0,4.985-2.946,35.379-32.254C303.586,45.676,303.586,40.901,300.641,37.955z"/>
<path d="M82.864,274.783c2.946-2.947,2.946-7.722,0-10.667c-2.947-2.945-7.722-2.945-10.667,0l-30.045,30.045
	c-4.767,4.768-1.326,12.877,5.334,12.877C53.045,307.037,52.47,304.091,82.864,274.783z"/>
<path d="M173.723,365.642L72.982,466.383c-4.767,4.768-1.326,12.877,5.334,12.877c5.958,0,1.184,0.737,106.075-102.949
	c2.946-2.947,2.946-7.722,0-10.667C181.445,362.697,176.67,362.697,173.723,365.642z"/>
<path d="M207.565,399.484l-74.82,74.82c-4.767,4.768-1.326,12.877,5.334,12.877c5.949,0,2.261-0.326,80.153-77.028
	c2.946-2.947,2.946-7.722,0-10.667C215.286,396.539,210.511,396.539,207.565,399.484z"/>
<path d="M216.695,476.247c5.561,0,4.985-2.946,35.379-32.254c2.946-2.947,2.946-7.722,0-10.667c-2.947-2.945-7.722-2.945-10.667,0
	l-30.045,30.045C206.595,468.139,210.037,476.247,216.695,476.247z"/>
<path d="M96.426,496.922c-18.607-0.007-38.981-0.007-61.293-0.007c-10.475,0-18.976-8.492-18.976-18.967v-189.64
	c0-4.163-3.374-7.537-7.537-7.537H8.608c-4.163,0-7.537,3.374-7.537,7.537v189.64C1.071,496.754,16.317,512,35.124,512h61.292
	c4.163,0,7.537-3.374,7.537-7.537v-0.004C103.954,500.297,100.587,496.923,96.426,496.922z"/>
<path d="M326.927,417.384c-8.146-14.794,6.165-24.207-5.31-45.025c-11.284-20.486-27.274-14.12-35.219-28.542
	c-8.146-14.784,6.165-24.197-5.31-45.015c-11.555-20.979-24.358-14.11-35.139-28.421c-11.374-15.116-2.967-22.337-26.128-37.633
	c-12.963-8.569-34.727-2.494-45.176-9.413c-9.152-6.044-12.521-28.763-26.319-37.915c-14.703-9.755-37.191-4.204-45.146-9.514
	c-3.349-2.233-6.436-5.059-9.172-8.387c-23.755-28.934-70.177-13.175-71.414,23.523c-11.797,4.184-21.522,16.423-21.522,31.659
	v35.567c0,4.163,3.374,7.537,7.537,7.537h0.011c4.163,0,7.537-3.374,7.537-7.537v-35.567c0-16.926,20.456-25.333,32.373-13.416
	l255.246,255.246c10.922,10.922,4.737,28.884-9.132,31.931c-2.727,0.595,9.482,0.496-168.181,0.464
	c-4.164-0.001-7.545,3.374-7.545,7.537s3.374,7.537,7.537,7.537h163.914c18.776,0,27.355-13.768,27.466-13.859
	c22.407-5.722,36.969-14.975,43.245-27.536c4.425-8.85,3.952-19.42,1.066-24.68C350.862,425.44,334.882,431.806,326.927,417.384z
	 M153.635,293.06c-0.02-0.02-0.04-0.04-0.07-0.07c-0.181-0.191-0.362-0.372-0.533-0.533l-0.171-0.171
	c-0.332-0.342-0.654-0.654-0.965-0.965c-0.111-0.111-0.231-0.231-0.352-0.352c-0.03-0.03-0.05-0.06-0.07-0.07
	c-0.101-0.101-0.201-0.201-0.302-0.302c-0.141-0.141-0.272-0.282-0.402-0.402c-0.121-0.121-0.251-0.251-0.382-0.382
	c-0.02-0.03-0.04-0.05-0.05-0.05c-0.151-0.151-0.302-0.302-0.453-0.453c-0.03-0.03-0.05-0.06-0.07-0.07
	c-0.141-0.141-0.272-0.272-0.412-0.412c-0.07-0.07-0.131-0.141-0.191-0.191c-0.101-0.101-0.221-0.221-0.332-0.332
	c-0.181-0.191-0.362-0.372-0.543-0.543c-0.111-0.111-0.221-0.221-0.342-0.342c-0.08-0.08-0.151-0.161-0.231-0.231l-0.382-0.382
	c-0.08-0.08-0.151-0.161-0.221-0.221c-0.131-0.131-0.261-0.262-0.392-0.392L146.575,286c-0.02-0.02-0.04-0.04-0.05-0.05
	c-0.111-0.111-0.221-0.221-0.332-0.332c-0.111-0.121-0.231-0.231-0.342-0.342c-0.101-0.101-0.201-0.201-0.302-0.302l-0.392-0.392
	c-0.06-0.07-0.131-0.131-0.191-0.191c-0.151-0.151-0.312-0.312-0.463-0.463c-0.03-0.03-0.06-0.06-0.09-0.091
	c-0.161-0.161-0.322-0.322-0.483-0.483c-0.02-0.02-0.04-0.04-0.06-0.06c-0.07-0.07-0.141-0.141-0.211-0.211
	c-0.161-0.161-0.322-0.322-0.493-0.493c-0.091-0.091-0.181-0.181-0.282-0.282c-0.06-0.06-0.111-0.111-0.161-0.161l-0.563-0.563
	c-0.05-0.05-0.091-0.101-0.141-0.141l-0.181-0.181c-0.04-0.04-0.08-0.08-0.131-0.131c-0.04-0.04-0.091-0.091-0.131-0.131
	l-0.392-0.392c-0.01-0.01-0.02-0.02-0.03-0.03c-9.454-9.454-24.941-24.941-49.35-49.35c20.848,0.412,39.695,9.071,53.413,22.819
	c13.728,13.748,22.326,32.564,22.709,53.292C162.073,301.488,157.376,296.791,153.635,293.06z M182.167,321.581
	c0.533-3.862,0.825-7.794,0.855-11.787c68.498,40.952,68.347,37.854,69.353,43.094l9.142,48.042
	C253.129,392.543,190.484,329.899,182.167,321.581z M347.584,463.857c-2.444,4.888-8.508,11.284-23.191,16.564
	c0.784-9.705-2.675-19.289-9.946-26.56l-33.972-33.972l-13.285-69.815c-1.167-6.135-4.918-11.455-10.308-14.603l-75.518-44.11
	c-9.182-47.911-54.72-81.25-103.788-74.361L59.2,198.625c-5.944-5.944-13.446-9.353-21.291-9.966
	c1.79-12.782,13.134-21.029,24.921-21.029c6.99,0,14.13,2.896,19.521,9.464c12.611,15.367,21.864,16.051,36.949,16.815
	c21.069,1.076,22.859,2.725,31.227,20.044c10.469,21.693,16.463,27.164,44.13,28.501c6.628,0.322,13.486,0.654,16.855,2.876
	c18.153,11.998,8.548,15.739,22.387,34.123c13.838,18.394,25.685,11.576,33.972,26.631c8.146,14.784-6.165,24.187,5.31,45.015
	c11.284,20.476,27.275,14.11,35.219,28.542c8.146,14.784-6.155,24.197,5.31,45.015c11.354,20.597,26.902,13.959,34.998,28.139
	C349.042,453.79,350.299,458.427,347.584,463.857z"/>
<path d="M29.029,378.504c0.206,4.609,4.561,7.925,9.001,7c3.651-0.699,4.414-3.081,11.998-10.198l0,0l66.678-66.678
	c2.947-2.947,2.947-7.724,0-10.67c-2.947-2.947-7.724-2.947-10.67,0l-68.196,68.206C33.185,371.526,28.749,373.273,29.029,378.504z"
	/>
<path d="M139.877,331.799c-9.431,9.431-88.486,88.486-100.741,100.741c-2.947,2.947-2.947,7.724,0,10.67
	c2.97,2.95,7.747,2.924,10.67,0c20.135-20.135,77.737-77.738,100.741-100.741c2.947-2.947,2.947-7.724,0-10.67
	S142.824,328.853,139.877,331.799z"/>
<g>
</g>
<g>
</g>
<g>
</g>
<g>
</g>
<g>
</g>
<g>
</g>
<g>
</g>
<g>
</g>
<g>
</g>
<g>
</g>
<g>
</g>
<g>
</g>
<g>
</g>
<g>
</g>
<g>
</g>
</svg>
