<svg viewBox="0 0 512 512" xmlns="http://www.w3.org/2000/svg"><path d="M255.944 390.768c-27.242 0-49.404-22.163-49.404-49.405s22.163-49.404 49.404-49.404c27.242 0 49.405 22.163 49.405 49.404 0 27.243-22.163 49.405-49.405 49.405z" fill="#e7e4cd"/><path d="M255.944 397.965c-31.209 0-56.601-25.391-56.601-56.602 0-31.209 25.391-56.601 56.601-56.601s56.602 25.391 56.602 56.602-25.391 56.601-56.602 56.601zm0-97.781c-22.706 0-41.179 18.473-41.179 41.179s18.473 41.18 41.179 41.18c22.707 0 41.18-18.473 41.18-41.18s-18.473-41.179-41.18-41.179z" fill="#a6c1ad"/><path d="M298.032 376.247a49.176 49.176 0 0 1-16.331-2.786c-7.059 5.676-16.015 9.083-25.756 9.083-22.706 0-41.179-18.473-41.179-41.18s18.473-41.179 41.179-41.179c.174 0 .344.011.517.013a49.79 49.79 0 0 1 13.179-13.75 56.498 56.498 0 0 0-13.697-1.685c-31.209 0-56.601 25.391-56.601 56.601s25.391 56.602 56.601 56.602c18.086 0 34.205-8.536 44.575-21.782-.824.04-1.653.063-2.487.063z" fill="#81b776"/><path d="M255.944 368.618c-15.028 0-27.254-12.226-27.254-27.254s12.226-27.254 27.254-27.254 27.254 12.226 27.254 27.254-12.225 27.254-27.254 27.254z" fill="#96401e"/><path d="M255.946 332.083a27.12 27.12 0 0 1 6.178-17.258 27.178 27.178 0 0 0-6.178-.715c-15.028 0-27.254 12.226-27.254 27.254s12.226 27.254 27.254 27.254c8.484 0 16.074-3.898 21.076-9.995-12.061-2.808-21.076-13.637-21.076-26.54z" fill="#5e2208"/><path d="M170.049 368.581V495.99c0 7.943-6.439 14.382-14.382 14.382h-40.252c-7.943 0-14.382-6.439-14.382-14.382V368.581c0-7.943 6.439-14.382 14.382-14.382h40.252c7.943 0 14.382 6.439 14.382 14.382z" fill="#961e15"/><path d="M149.922 480.683c-7.943 0-14.382-6.439-14.382-14.382V354.199h-20.125c-7.943 0-14.382 6.439-14.382 14.382V495.99c0 7.943 6.439 14.382 14.382 14.382h40.252c7.943 0 14.382-6.439 14.382-14.382v-15.307h-20.126z" fill="#87100e"/><path d="M498.419 469.91c0 .788-.068 1.581-.204 2.361a13.684 13.684 0 0 1-5.678 8.947 13.69 13.69 0 0 1-10.347 2.277L31.709 402.621a10.693 10.693 0 0 1-8.658-12.334c1.001-5.795 6.517-9.713 12.298-8.755l451.531 74.786a13.693 13.693 0 0 1 8.987 5.617 13.7 13.7 0 0 1 2.552 7.975z" fill="#68594e"/><path d="M492.537 481.217a13.667 13.667 0 0 0 5.122-6.826L23.16 389.805c-.036.16-.08.318-.109.481a10.693 10.693 0 0 0 8.658 12.334l450.481 80.873a13.688 13.688 0 0 0 10.347-2.276z" fill="#5b4a3f"/><path d="M497.34 388.791c.265.741.47 1.511.606 2.291a13.688 13.688 0 0 1-2.326 10.339 13.684 13.684 0 0 1-8.971 5.636l-451.34 75.928a10.695 10.695 0 0 1-12.314-8.688c-1.014-5.793 2.856-11.342 8.622-12.393l450.273-82.013a13.691 13.691 0 0 1 10.355 2.254 13.695 13.695 0 0 1 5.095 6.646z" fill="#68594e"/><path d="M23.396 269.965C10.495 269.965 0 259.47 0 246.569V25.024C0 12.123 10.495 1.627 23.396 1.627h465.209c12.9 0 23.395 10.496 23.395 23.397v221.545c0 12.901-10.495 23.396-23.396 23.396z" fill="#c69c6d"/><path d="M175.418 225.52c-40.169 0-72.734-32.563-72.734-72.734V1.627H23.396C10.474 1.627 0 12.103 0 25.024v221.545c0 12.921 10.474 23.396 23.396 23.396h465.209c12.921 0 23.396-10.474 23.396-23.396v-21.05z" fill="#b78555"/><path d="M258.944 245.454a40.88 40.88 0 0 1-5.626-.385c-13.531-1.887-24.61-10.706-31.522-17.772-2.719-2.779-3.97-6.591-3.43-10.458.539-3.866 2.784-7.191 6.159-9.12 7.066-4.039 17.929-8.855 29.559-8.855 1.904 0 3.795.129 5.623.385 13.533 1.887 24.611 10.707 31.522 17.773 2.718 2.779 3.969 6.59 3.431 10.456-.539 3.867-2.784 7.191-6.159 9.12-7.065 4.04-17.928 8.856-29.555 8.856z" fill="#b2d84a"/><path d="M69.657 227.812c-15.59 0-28.273-12.683-28.273-28.273s12.683-28.273 28.273-28.273 28.273 12.683 28.273 28.273-12.683 28.273-28.273 28.273z" fill="#e8bf4b"/><path d="M116.691 227.812c-15.59 0-28.273-12.683-28.273-28.273s12.683-28.273 28.273-28.273 28.273 12.683 28.273 28.273-12.683 28.273-28.273 28.273z" fill="#f7d772"/><path d="M412.038 241.566c-11.661 0-22.977-4.782-31.049-13.119l-3.427-3.54a4.289 4.289 0 0 1 .852-6.647l66.903-40.712a4.006 4.006 0 0 1 5.88 2.146l1.682 5.006c6.359 18.929-1.41 40.203-18.472 50.586a43.032 43.032 0 0 1-22.369 6.28z" fill="#b2d84a"/><path d="M31.725 132.41c6.667-19.142 6.533-40.157-.379-59.172l-3.147-8.657c-1.637-4.502 3.337-8.535 7.404-6.003l55.443 34.518-.932 5.448c-.261 1.526-.388 2.95-.388 4.352s.127 2.827.388 4.354l.932 5.447-54.859 34.164c-4.038 2.515-8.993-1.447-7.428-5.939z" fill="#d3c3a5"/><path d="M149.79 154.386c-39.395-13.531-61.09-31.817-61.09-51.49s21.696-37.959 61.09-51.49l7.305-2.509a2.71 2.71 0 0 1 3.592 2.564V154.33a2.71 2.71 0 0 1-3.592 2.564zm136.423 19.648c-10.29 0-20.67-.291-30.851-.865l-7.762-.438V33.063l7.762-.438a550.52 550.52 0 0 1 30.851-.865c9.883 0 19.884.273 29.723.813 4.421.237 7.891 3.901 7.891 8.341v123.965a8.35 8.35 0 0 1-7.901 8.341 544.2 544.2 0 0 1-29.713.814z" fill="#e2d9c5"/><path d="M247.6 102.72v70.01l7.762.438a550.52 550.52 0 0 0 30.851.865c9.883 0 19.884-.273 29.712-.813a8.35 8.35 0 0 0 7.901-8.341V102.72z" fill="#d6c6a5"/><path d="M239.693 172.05c-11.124-.964-22.07-2.285-32.536-3.927l-3.588-.563a3.977 3.977 0 0 1-3.361-3.929V42.164a3.976 3.976 0 0 1 3.361-3.929l3.588-.563c10.465-1.642 21.411-2.963 32.536-3.927l8.934-.774v139.854z" fill="#cc4637"/><path d="M200.208 102.72v60.909a3.976 3.976 0 0 0 3.362 3.929l3.588.563c10.465 1.642 21.411 2.963 32.536 3.927l8.934.774V102.72z" fill="#c13127"/><path d="M402.785 45.214l10.61 3.215c44.697 13.546 70.332 33.398 70.332 54.467s-25.636 40.921-70.332 54.467l-10.61 3.215z" fill="#e2d9c5"/><path d="M483.72 102.72h-80.936v57.859l10.61-3.215c44.697-13.546 70.332-33.398 70.332-54.467.001-.059-.005-.118-.006-.177z" fill="#d6c6a5"/><path d="M355.393 39.721a3.07 3.07 0 0 1 3.544-3.034l5.949.928c11.397 1.779 22.386 3.96 32.664 6.485l6.263 1.538v114.515l-6.263 1.538c-10.277 2.525-21.268 4.707-32.664 6.485l-5.949.928a3.07 3.07 0 0 1-3.544-3.034z" fill="#cc4637"/><path d="M355.393 102.72v63.352a3.07 3.07 0 0 0 3.544 3.034l5.949-.928c11.397-1.779 22.386-3.96 32.664-6.485l6.263-1.538V102.72z" fill="#c13127"/><path d="M403.813 62.266l-46.773-6.953a7.609 7.609 0 0 0-1.648-.05v15.396l46.772 6.952a7.66 7.66 0 0 0 1.143.085c.17 0 .336-.017.504-.029V62.266zm-155.185-9.294l-46.772-6.952a7.69 7.69 0 0 0-1.648-.065v15.411l46.772 6.952a7.66 7.66 0 0 0 1.143.085c.171 0 .336-.028.505-.039zm0 29.737l-46.772-6.952a7.69 7.69 0 0 0-1.648-.065v15.41l46.772 6.952a7.66 7.66 0 0 0 1.143.085c.171 0 .336-.028.505-.039z" fill="#b5241a"/><path d="M248.628 112.445l-46.772-6.952a7.69 7.69 0 0 0-1.648-.065v15.41l46.772 6.952a7.66 7.66 0 0 0 1.143.085c.171 0 .336-.028.505-.039zm0 29.735l-46.772-6.952a7.625 7.625 0 0 0-1.648-.064v15.41l46.772 6.952a7.66 7.66 0 0 0 1.143.085c.171 0 .336-.028.505-.039z" fill="#b2201d"/><path d="M403.813 88.284l-46.772-6.952a7.608 7.608 0 0 0-1.648-.049v15.395l46.772 6.952a7.66 7.66 0 0 0 1.143.085c.17 0 .336-.017.504-.029V88.284z" fill="#b5241a"/><path d="M403.813 114.302l-46.772-6.952a7.608 7.608 0 0 0-1.648-.049v15.396l46.772 6.952a7.66 7.66 0 0 0 1.143.085c.17 0 .336-.017.504-.029v-15.403zm0 26.019l-46.772-6.952a7.609 7.609 0 0 0-1.648-.05v15.396l46.772 6.952a7.66 7.66 0 0 0 1.143.085c.17 0 .336-.017.504-.029v-15.402z" fill="#b2201d"/><circle cx="433.966" cy="79.668" fill="#ada189" r="8.827"/><path d="M420.591 192.595l-17.439 10.611-8.45 34.715a43.498 43.498 0 0 0 15.001 3.576l5.681-23.342 12.407 20.39a43.225 43.225 0 0 0 6.615-3.258 42.352 42.352 0 0 0 6.49-4.871l-12.147-19.962 22.558 5.49a43.843 43.843 0 0 0 3.688-14.973z" fill="#89ad07"/><path d="M427.378 448.422l-4.13 24.491 15.18 2.726 4.158-24.652a7.647 7.647 0 0 0 .067-1.993l-14.702-2.436a7.68 7.68 0 0 0-.573 1.864z" fill="#5b4a3f"/><path d="M36.627 102.72a88.408 88.408 0 0 1-4.901 29.69l-2.965 8.514c-1.565 4.492 3.39 8.454 7.428 5.939l54.859-34.164-.932-5.447a25.623 25.623 0 0 1-.388-4.354c0-.059.007-.118.008-.177H36.627z" fill="#ceb895"/><path d="M88.705 102.72c0 .059-.006.118-.006.177 0 19.673 21.696 37.959 61.09 51.49l7.305 2.509a2.71 2.71 0 0 0 3.592-2.564V102.72z" fill="#d6c6a5"/><g fill="#5b4a3f"><path d="M23.46 476.044c1.75 4.88 6.732 7.8 11.849 6.941l451.34-75.928a13.69 13.69 0 0 0 8.971-5.636 13.69 13.69 0 0 0 2.325-10.339 13.78 13.78 0 0 0-.606-2.291v-.001c-.079-.222-.173-.437-.263-.653l-473.71 87.604c.033.099.059.203.094.303z"/><path d="M438.287 391.454a7.675 7.675 0 0 0-1.449-3.357l-13.546 2.467a7.675 7.675 0 0 0-.213 3.453l3.892 23.078 15.208-2.559z"/></g></svg>