<svg xmlns="http://www.w3.org/2000/svg" viewBox="0 0 512 512"><path fill="#4f4f4f" d="M324.5 382.001h-90l60 60h30z"/><path fill="#696969" d="M37.5 382h257v60h-257z"/><path fill="#ff6337" d="M339.5 225.001c0-8.284-6.716-15-15-15-4.765 0-9.002 2.229-11.75 5.693l-15 39.307h41.75v-30z"/><path fill="#ff8646" d="M301 210.001c-8.284 0-15 6.716-15 15v30h26.75v-39.307c-2.748-3.464-6.985-5.693-11.75-5.693z"/><path fill="#869e47" d="M76 225.001c0-8.284-6.716-15-15-15-4.765 0-9.002 2.229-11.75 5.693l-15 39.307H76v-30z"/><path fill="#9db55f" d="M37.5 210.001c-8.284 0-15 6.716-15 15v30h26.75v-39.307c-2.748-3.464-6.985-5.693-11.75-5.693z"/><path fill="#696969" d="M181 290.001h60v-50l-60-30z"/><path fill="gray" d="M121 240.001v50h90v-80z"/><path fill="#ccc" d="M181 180.001l30 60h30c0-33.137-26.863-60-60-60z"/><path fill="#ebebeb" d="M181 180.001c-33.137 0-60 26.863-60 60h90c0-33.137-13.432-60-30-60z"/><g fill="#fff0d3"><path d="M7.5 240.001c0 19.33 15.67 35 35 35l6.75 20 6.75-20c19.33 0 35-15.67 35-35H7.5zM271 240.001c0 19.33 15.67 35 35 35l6.75 20 6.75-20c19.33 0 35-15.67 35-35H271z"/></g><path fill="#2dade3" d="M323.438 275.001l-38.938 79.5 70-49.5v-30z"/><path fill="#49c9ff" d="M7.5 275.001v30l317 49.5v-79.5z"/><path fill="#a8e5ff" d="M324.5 305.001l-31.063 43.5 31.063 48.5h30v-92z"/><path fill="#dbf4ff" d="M7.5 305h317v92H7.5z"/><path fill="#ff6337" d="M339.5 90.001c0-8.284-6.716-15-15-15-4.765 0-9.002 2.229-11.75 5.693l-15 39.307h41.75v-30z"/><path fill="#ff8646" d="M301 75.001c-8.284 0-15 6.716-15 15v30h26.75V80.694c-2.748-3.464-6.985-5.693-11.75-5.693z"/><path fill="#85453d" d="M500.135 104.427l-32.181-52.808H429.5v128.382l25-30h20c16.569 0 30-13.432 30-30 0-5.706-1.598-11.034-4.365-15.574z"/><path fill="#a45e43" d="M474.5 120.001c0-5.706-1.598-11.034-4.365-15.574L442.33 58.798 384.5 75.001v55c0 11 9 20 20 20l25 30 15-30c16.569 0 30-13.432 30-30z"/><path fill="#ffb4a9" d="M443.592 59.548L429.5 120.001c24.853 0 45-20.147 45-45l-30.908-15.453z"/><path fill="#ffd9d4" d="M444.5 75.001c0-5.429-.321-10.634-.908-15.453l-41.095-20.546C391.57 47.213 384.5 60.281 384.5 75.001c0 24.853 20.147 45 45 45 8.284 0 15-20.147 15-45z"/><path fill="#85453d" d="M429.5 30.001l14.899 39.832c9.413 3.341 19.543 5.168 30.101 5.168 0-24.853-20.147-45-45-45z"/><path fill="#a45e43" d="M429.5 30.001c-10.132 0-19.481 3.35-27.003 9.002 10.532 14.02 25.066 24.856 41.901 30.831-.854-22.418-7.197-39.833-14.898-39.833z"/><path fill="#fff0d3" d="M271 105.001c0 19.33 15.67 35 35 35h13.5c19.33 0 35-15.67 35-35H271z"/><path fill="#ffa754" d="M454.5 150.001h-30l-20 120 70-30v-70c0-11.046-8.954-20-20-20z"/><path fill="#ffcb63" d="M424.5 150.001h-20c-11.046 0-20 8.954-20 20v70l60 30v-100c0-11.046-8.954-20-20-20z"/><path fill="#ff4128" d="M474.5 240.001h-30l15 90h30v-50.335c0-15.211-5.671-29.09-15-39.665z"/><path fill="#ff6337" d="M444.5 240.001h-60v90h75v-50.335c0-15.211-5.671-29.09-15-39.665z"/><path d="M362 274.999c0-4.142-3.358-7.5-7.5-7.5h-2.634c6.313-7.418 10.134-17.019 10.134-27.5 0-4.142-3.358-7.5-7.5-7.5H347v-7.5c0-12.407-10.093-22.5-22.5-22.5-4.22 0-8.263 1.164-11.75 3.307-3.487-2.144-7.53-3.307-11.75-3.307-12.407 0-22.5 10.093-22.5 22.5v7.5H271c-4.142 0-7.5 3.358-7.5 7.5 0 10.481 3.822 20.082 10.134 27.5H248.5v-27.5c0-34.684-26.298-63.329-60-67.073v-7.927c0-4.142-3.358-7.5-7.5-7.5s-7.5 3.358-7.5 7.5v7.927c-33.702 3.744-60 32.39-60 67.073v27.5H88.366c6.313-7.418 10.134-17.019 10.134-27.5 0-4.142-3.358-7.5-7.5-7.5h-7.5v-7.5c0-12.407-10.093-22.5-22.5-22.5-4.22 0-8.263 1.164-11.75 3.307-3.487-2.144-7.53-3.307-11.75-3.307-12.407 0-22.5 10.093-22.5 22.5v7.5H7.5c-4.142 0-7.5 3.358-7.5 7.5 0 10.481 3.822 20.082 10.134 27.5H7.5c-4.142 0-7.5 3.358-7.5 7.5v122c0 4.142 3.358 7.5 7.5 7.5H30v67.5c0 4.142 3.358 7.5 7.5 7.5s7.5-3.358 7.5-7.5v-22.5h272v22.5c0 4.142 3.358 7.5 7.5 7.5s7.5-3.358 7.5-7.5v-67.5h22.5c4.142 0 7.5-3.358 7.5-7.5v-122zm-68.5-50c0-4.136 3.364-7.5 7.5-7.5 2.294 0 4.436 1.04 5.874 2.854 1.423 1.794 3.587 2.839 5.876 2.839s4.453-1.045 5.876-2.839c1.438-1.813 3.58-2.854 5.874-2.854 4.136 0 7.5 3.364 7.5 7.5v7.5h-38.5v-7.5zm-13.96 22.5h66.421c-3.272 11.53-13.896 20-26.46 20H306c-12.565 0-23.188-8.47-26.46-20zm-98.54-60c26.402 0 48.304 19.593 51.956 45H129.044c3.652-25.407 25.554-45 51.956-45zm-52.5 60h105v20h-105v-20zm-98.5-22.5c0-4.136 3.364-7.5 7.5-7.5 2.294 0 4.436 1.04 5.874 2.854 1.423 1.794 3.587 2.839 5.876 2.839s4.453-1.045 5.876-2.839c1.438-1.813 3.58-2.854 5.874-2.854 4.136 0 7.5 3.364 7.5 7.5v7.5H30v-7.5zm-13.96 22.5h66.42c-3.272 11.53-13.896 20-26.46 20H42.5c-12.565 0-23.188-8.47-26.46-20zm300.96 187H45v-30h272v30zm-302-45v-77h279.5c4.142 0 7.5-3.358 7.5-7.5s-3.358-7.5-7.5-7.5H15v-15h332v15h-22.5c-4.142 0-7.5 3.358-7.5 7.5s3.358 7.5 7.5 7.5H347v77H15z"/><path d="M512 119.999c0-6.88-1.888-13.615-5.46-19.477l-32.181-52.808c-.124-.204-.258-.398-.398-.585-9.298-14.78-25.746-24.63-44.461-24.63-28.949 0-52.5 23.551-52.5 52.5v55c0 7.875 3.332 14.982 8.655 20-3.565 3.361-6.232 7.66-7.607 12.5H306c-4.136 0-7.5-3.364-7.5-7.5s3.364-7.5 7.5-7.5h13.5c23.435 0 42.5-19.065 42.5-42.5 0-4.142-3.358-7.5-7.5-7.5H347v-7.5c0-12.407-10.093-22.5-22.5-22.5-4.22 0-8.263 1.164-11.75 3.307-3.487-2.144-7.53-3.307-11.75-3.307-12.407 0-22.5 10.093-22.5 22.5v7.5H271c-4.142 0-7.5 3.358-7.5 7.5 0 16.602 9.574 31.001 23.486 37.992-2.204 3.478-3.486 7.594-3.486 12.008 0 12.407 10.093 22.5 22.5 22.5h71v152.5c0 4.142 3.358 7.5 7.5 7.5h7.5v129.094l-24.872 8.291c-3.93 1.31-6.053 5.557-4.744 9.487 1.048 3.143 3.974 5.13 7.114 5.13.786 0 1.586-.125 2.373-.387l30-10c3.062-1.021 5.128-3.887 5.128-7.115v-134.5h46.088v129.094l-24.872 8.291c-3.93 1.31-6.053 5.557-4.744 9.487 1.048 3.143 3.974 5.13 7.114 5.13.786 0 1.586-.125 2.373-.387l30-10c3.062-1.021 5.128-3.887 5.128-7.115v-134.5H489.5c4.142 0 7.5-3.358 7.5-7.5v-50.335c0-15.471-5.307-30.417-15-42.406v-67.259c0-4.604-1.143-8.944-3.151-12.76 18.635-2.163 33.151-18.034 33.151-37.24zm-218.5-30c0-4.136 3.364-7.5 7.5-7.5 2.294 0 4.436 1.04 5.874 2.854 1.423 1.794 3.587 2.839 5.876 2.839s4.453-1.045 5.876-2.839c1.438-1.813 3.58-2.854 5.874-2.854 4.136 0 7.5 3.364 7.5 7.5v7.5h-38.5v-7.5zm-13.96 22.5h66.421c-3.272 11.53-13.896 20-26.46 20H306c-12.565 0-23.188-8.47-26.46-20zm186.611-45.42c-20.154-2-38.58-11.212-52.297-26.147 4.766-2.198 10.063-3.433 15.646-3.433 17.96 0 33.005 12.694 36.651 29.58zM401.699 49.86c16.692 18.803 39.576 30.244 64.607 32.299-3.352 17.264-18.577 30.34-36.806 30.34-20.678 0-37.5-16.822-37.5-37.5 0-9.663 3.675-18.483 9.699-25.139zM454.5 157.499c6.893 0 12.5 5.607 12.5 12.5v62.5h-75v-62.5c0-6.893 5.607-12.5 12.5-12.5h50zm27.5 165h-90v-75h78.961c7.133 9.184 11.039 20.479 11.039 32.165v42.835zm-7.5-180h-70c-6.893 0-12.5-5.607-12.5-12.5v-18.308c9.537 9.745 22.821 15.808 37.5 15.808 24.876 0 45.751-17.396 51.137-40.658l13.094 21.488c2.139 3.509 3.269 7.544 3.269 11.67 0 12.407-10.093 22.5-22.5 22.5z"/></svg>