<svg viewBox="0 0 512 512" xmlns="http://www.w3.org/2000/svg"><path d="M417.795 39.537c-5.078 4.986-7.446 12.513-5.224 19.867 6.24 20.61 16.72 39.419 30.42 55.409l16.93 16.93c.53.454 1.072.896 1.608 1.343a152.349 152.349 0 0 0 14.803 5.337c11.631 3.526 23.741-4.454 25.46-16.52a19.814 19.814 0 0 0-1.06-9.736 114.556 114.556 0 0 1-18.258-13.825c-28.517-10.219-51.861-31.603-64.679-58.805z" fill="#fec652"/><path d="M454.883 170.251c7.81-7.81 7.81-20.48 0-28.29l-54.404-54.403c-7.81-7.83-20.493-7.797-28.29 0-7.81 7.81-7.81 20.47 0 28.28l15.501 15.502 3.614 3.614 4.663 4.663.322.322 14.177 14.177 1.41 1.41 2.692 2.692 1.823 1.823 1.857 1.857 4.133 4.133 2.434 2.434 1.788 1.788c7.82 7.818 20.472 7.806 28.28-.002z" fill="#48ba7b"/><path d="M329.771 158.267c-18.063 18.063-22.186 44.774-12.398 66.801 22.027 9.788 48.738 5.665 66.801-12.398s22.186-44.774 12.398-66.801c-22.028-9.787-48.739-5.665-66.801 12.398z" fill="#ff4a70"/><path d="M341.744 283.379c7.81-7.81 7.81-20.47 0-28.28l-54.404-54.403c-7.8-7.82-20.492-7.807-28.28 0-7.81 7.81-7.81 20.47 0 28.28l6.707 6.707 2.424 2.424 2.855 2.855 11.77 11.77 1.28 1.28 3.722 3.722 4.205 4.205 2.561 2.562 3.565 3.565 4.239 4.239 2.385 2.385 1.504 1.504 2.587 2.587.918.918 2.182 2.182 1.5 1.5c7.837 7.814 20.45 7.809 28.28-.002z" fill="#fec652"/><path d="M216.631 271.405c-18.063 18.063-22.185 44.774-12.398 66.801 22.028 9.788 48.738 5.665 66.801-12.398s22.185-44.774 12.398-66.801c-22.026-9.787-48.738-5.664-66.801 12.398z" fill="#ff4a70"/><path d="M145.922 313.825c-7.774 7.774-7.804 20.359-.102 28.177l14.346 14.348c11.191 11.188 26.642 26.641 40.243 40.244 7.816 7.73 20.423 7.708 28.206-.076 7.81-7.81 7.81-20.47 0-28.28L209.5 349.123l-4.663-4.663-20.425-20.425-10.212-10.212c-7.814-7.814-20.468-7.808-28.278.002z" fill="#48ba7b"/><path d="M178.769 391.449c-16.96-15.77-37.449-27.76-60.109-34.609-6.753-2.048-13.653-.216-18.597 4.03a114.421 114.421 0 0 1 29.666 21.4c12.237 12.237 21.708 27.23 27.368 43.937a114.77 114.77 0 0 1 12.731 16.258 19.666 19.666 0 0 0 10.191 1.215c12.05-1.72 20.04-13.81 16.51-25.46a151.942 151.942 0 0 0-4.522-12.834 155.205 155.205 0 0 0-5.206-5.905z" fill="#fec652"/><path d="M490.873 90.596c-13.235-3.981-25.446-10.664-35.966-19.366l54.156-54.156c3.905-3.905 3.905-10.237 0-14.143-3.906-3.905-10.236-3.905-14.143 0l-54.156 54.157c-8.701-10.519-15.383-22.728-19.363-35.959C417.668 8.69 405.957.003 392.923.003c-1.484 0-2.888.101-4.243.3a30.243 30.243 0 0 0-21.232 13.708c-4.685 7.344-5.94 16.29-3.445 24.549.427 1.412.875 2.815 1.339 4.211a30.059 30.059 0 0 0-9.447-1.519c-8.017 0-15.553 3.121-21.222 8.789-11.695 11.696-11.695 30.726 0 42.421l7.804 7.804c-.243-.002-.484-.018-.728-.018-18.697 0-36.274 7.281-49.495 20.501-13.842 13.842-20.649 32.086-20.451 50.266l-7.828-7.828c-5.659-5.673-13.195-8.798-21.221-8.798s-15.562 3.125-21.211 8.789c-5.666 5.667-8.786 13.199-8.786 21.211s3.121 15.545 8.786 21.21l7.805 7.805c-.247-.003-.491-.018-.738-.018-18.698 0-36.275 7.281-49.496 20.501-13.22 13.221-20.501 30.799-20.501 49.496 0 .243.015.484.018.727l-7.804-7.804c-5.668-5.667-13.201-8.789-21.211-8.789-8.011 0-15.543 3.121-21.211 8.789-8.386 8.387-10.759 20.543-7.121 31.064a159.837 159.837 0 0 0-4.604-1.472 29.418 29.418 0 0 0-8.543-1.271c-14.835 0-27.612 11.151-29.72 25.938-2.099 14.71 6.654 28.475 20.811 32.728 13.096 3.938 25.381 10.549 36.013 19.316L2.929 494.925c-3.905 3.905-3.905 10.237 0 14.143 1.953 1.952 4.512 2.929 7.071 2.929s5.119-.977 7.071-2.929l112.314-112.314c8.767 10.632 15.378 22.917 19.315 36.009 3.791 12.629 15.239 21.115 28.488 21.115 1.461 0 2.903-.103 4.243-.3 8.736-1.247 16.476-6.246 21.236-13.715 4.681-7.346 5.932-16.292 3.433-24.538-.465-1.54-.957-3.072-1.47-4.599a30.054 30.054 0 0 0 9.843 1.65c8.015 0 15.55-3.12 21.216-8.786s8.786-13.199 8.786-21.211-3.12-15.545-8.786-21.211l-7.804-7.804c.243.002.484.018.728.018 18.697 0 36.274-7.281 49.495-20.502 13.841-13.842 20.649-32.086 20.45-50.266l7.838 7.838.009.009c5.677 5.662 13.206 8.78 21.202 8.78 7.995 0 15.524-3.118 21.211-8.79 11.695-11.696 11.695-30.726 0-42.42l-7.805-7.805c.247.003.491.018.738.018 18.697 0 36.274-7.281 49.495-20.501 13.221-13.221 20.502-30.798 20.502-49.495 0-.244-.015-.485-.018-.728l7.803 7.803c5.667 5.668 13.2 8.79 21.212 8.79s15.545-3.122 21.211-8.789c5.666-5.666 8.787-13.201 8.787-21.216a30.08 30.08 0 0 0-1.521-9.454c1.396.464 2.798.911 4.21 1.338a29.377 29.377 0 0 0 8.533 1.271c14.843 0 27.624-11.156 29.729-25.947 2.096-14.703-6.661-28.464-20.821-32.72zM185.8 429.113a10.28 10.28 0 0 1-7.237 4.671 9.533 9.533 0 0 1-1.376.093c-4.35 0-8.1-2.759-9.333-6.869-5.839-19.418-16.578-37.333-31.055-51.811-14.478-14.477-32.393-25.216-51.812-31.055-4.613-1.387-7.46-5.908-6.769-10.752.701-4.913 5.058-8.762 9.92-8.762.92 0 1.84.138 2.746.413 20.692 6.255 40.084 17.413 56.092 32.268l7.709 7.709c14.857 16.008 26.015 35.4 32.27 56.099 1.106 3.645-.249 6.574-1.155 7.996zm35.745-53.803a9.93 9.93 0 0 1 2.928 7.068 9.93 9.93 0 0 1-2.929 7.069c-3.9 3.901-10.247 3.901-14.147 0l-38.322-38.322a166.105 166.105 0 0 0-4.027-4.177 164.416 164.416 0 0 0-4.177-4.027l-38.322-38.322c-3.901-3.9-3.901-10.247 0-14.147a9.932 9.932 0 0 1 7.069-2.931 9.93 9.93 0 0 1 7.068 2.931l42.424 42.424.005.005.005.005zm42.42-56.571c-9.442 9.443-21.998 14.644-35.353 14.644-13.356 0-25.911-5.201-35.353-14.644-19.495-19.494-19.495-51.212 0-70.707 9.443-9.443 21.999-14.644 35.353-14.644 13.355 0 25.911 5.201 35.353 14.644 19.493 19.493 19.493 51.212 0 70.707zm70.718-42.44a9.967 9.967 0 0 1-7.078 2.941 9.966 9.966 0 0 1-7.07-2.932l-84.848-84.849a9.93 9.93 0 0 1-2.928-7.068c0-2.67 1.04-5.181 2.938-7.079a9.899 9.899 0 0 1 7.059-2.921 9.908 9.908 0 0 1 7.069 2.931l84.849 84.849c3.896 3.897 3.896 10.239.009 14.128zm42.419-70.7c-9.442 9.443-21.998 14.644-35.353 14.644s-25.911-5.201-35.353-14.644c-19.494-19.494-19.494-51.212 0-70.707 9.442-9.443 21.998-14.644 35.353-14.644s25.911 5.2 35.353 14.644c9.443 9.443 14.645 21.999 14.645 35.353s-5.201 25.912-14.645 35.354zm70.708-42.418a9.925 9.925 0 0 1-7.067 2.93 9.928 9.928 0 0 1-7.068-2.931l-42.43-42.429-42.429-42.428c-3.897-3.898-3.897-10.241-.001-14.138a9.95 9.95 0 0 1 7.08-2.931 9.907 9.907 0 0 1 7.068 2.931l33.729 33.729c2.744 3.182 5.56 6.22 8.358 9.008a164.405 164.405 0 0 0 9.029 8.38l33.731 33.731a9.938 9.938 0 0 1 2.93 7.074 9.936 9.936 0 0 1-2.93 7.074zm44.081-42.688c-.7 4.917-5.062 8.77-9.93 8.77a9.403 9.403 0 0 1-2.732-.411c-18.984-5.748-36.323-15.247-51.543-28.228l-16.311-16.311c-12.983-15.221-22.483-32.559-28.23-51.542-1.103-3.649.256-6.581 1.163-8.003a10.286 10.286 0 0 1 7.243-4.671 9.294 9.294 0 0 1 1.371-.093c4.274 0 8.107 2.827 9.324 6.88 5.842 19.422 16.58 37.337 31.054 51.811 14.474 14.473 32.39 25.211 51.813 31.054 4.618 1.388 7.469 5.905 6.778 10.744z"/><path d="M235.689 290.453c-3.904 3.899-10.254 3.898-14.157 0-3.907-3.902-10.238-3.899-14.142.009-3.903 3.907-3.898 10.239.009 14.142 5.848 5.84 13.529 8.761 21.211 8.761s15.363-2.92 21.211-8.761c3.908-3.903 3.912-10.235.009-14.142-3.902-3.907-10.233-3.911-14.141-.009zm113.139-113.137c-3.904 3.898-10.255 3.897-14.157 0-3.907-3.902-10.24-3.899-14.142.009-3.903 3.907-3.899 10.239.009 14.142 5.849 5.841 13.528 8.761 21.211 8.761 7.681 0 15.364-2.921 21.212-8.76 3.908-3.903 3.912-10.234.01-14.143-3.903-3.907-10.235-3.913-14.143-.009z"/></svg>