<svg xmlns="http://www.w3.org/2000/svg" viewBox="0 0 480 480"><path fill="#FFBE00" d="M136 48H344V400H136z"/><path d="M120 176H24c-8.837 0-16-7.163-16-16V64c0-8.837 7.163-16 16-16h96c8.837 0 16 7.163 16 16v96c0 8.837-7.163 16-16 16z" fill="#DEDFE3"/><path d="M288 224h-96c-8.837 0-16-7.163-16-16v-96c0-8.837 7.163-16 16-16h96c8.837 0 16 7.163 16 16v96c0 8.837-7.163 16-16 16z" fill="#3F708D"/><path d="M40 91.2l2.791 1.881a54.45 54.45 0 0 0 30.44 9.319V94c0-7.732 6.199-14 13.846-14s13.846 6.268 13.846 14L112 102.4l-11.077 11.2c0 12.371-9.919 22.4-22.154 22.4H40l11.077-11.2C43.984 117.629 40 107.902 40 97.761V91.2z" fill="#2F9BD7"/><path d="M264 136v-16h-24c-4.422 0-8 3.582-8 8v24h-16v16h16v32h16v-32h16v-16h-16v-16h16zm144-32c-17.673 0-32-14.327-32-32h-32v48c0 8.836 7.164 16 16 16h96c8.836 0 16-7.164 16-16V72h-32c0 17.673-14.327 32-32 32z" fill="#DEDFE3"/><path d="M456 8h-96c-8.836 0-16 7.163-16 16v48h32c0-17.673 14.327-32 32-32s32 14.327 32 32h32V24c0-8.837-7.164-16-16-16z" fill="#E7343A"/><circle cx="408" cy="72" r="32" fill="#E7F6FE"/><path fill="#E7F6FE" d="M232 328H248V344H232z"/><path d="M168 440c22.091 0 40-17.909 40-40v-8c0-35.346-28.654-64-64-64h24c22.091 0 40-17.909 40-40h-80c-8.836 0-16 7.163-16 16v176h128v-40h-72z" fill="#FFB398"/><path d="M208 400c0 22.091-17.909 40-40 40h72v40h48v-40h16v-40h-96z" fill="#FE946F"/><path d="M368 320h-52c-11.046 0-20-8.954-20-20s8.954-20 20-20h52c11.046 0 20 8.954 20 20s-8.954 20-20 20zm0 40h-52c-11.046 0-20-8.954-20-20s8.954-20 20-20h52c11.046 0 20 8.954 20 20s-8.954 20-20 20zm-12 40h-52c-11.046 0-20-8.954-20-20s8.954-20 20-20h52c11.046 0 20 8.954 20 20s-8.954 20-20 20zm-24 40h-52c-11.046 0-20-8.954-20-20s8.954-20 20-20h52c11.046 0 20 8.954 20 20s-8.954 20-20 20z" fill="#FFB398"/><path d="M160 40H320V56H160z"/><path d="M396 300c0-15.438-12.563-28-28-28h-16V160h-16v112h-20c-15.438 0-28 12.563-28 28 0 7.838 3.258 14.912 8.466 20-5.208 5.088-8.466 12.162-8.466 20 0 5.393 1.605 10.39 4.259 14.668C282.689 359.125 276 368.768 276 380c0 4.311 1.061 8.349 2.809 12H216c0-24.461-12.258-46.109-30.953-59.125C203.125 325.984 216 308.469 216 288c0-4.418-3.578-8-8-8h-64v-80h-16v80c-13.234 0-24 10.766-24 24v176h16V304c0-4.41 3.586-8 8-8h70.984c-3.555 13.785-16.102 24-30.984 24h-24c-4.422 0-8 3.582-8 8s3.578 8 8 8c30.875 0 56 25.121 56 56v8c0 4.418 3.578 8 8 8h46.809c-1.748 3.651-2.809 7.689-2.809 12 0 15.438 12.563 28 28 28v32h16v-32h36c15.438 0 28-12.563 28-28 0-4.357-1.087-8.433-2.871-12.114C372.034 407.278 384 395.051 384 380c0-5.393-1.605-10.39-4.259-14.668C389.311 360.875 396 351.232 396 340c0-7.838-3.258-14.912-8.466-20 5.208-5.088 8.466-12.162 8.466-20zm-64 132h-52c-6.617 0-12-5.383-12-12s5.383-12 12-12h52c6.617 0 12 5.383 12 12s-5.383 12-12 12zm24-40h-52c-6.617 0-12-5.383-12-12s5.383-12 12-12h52c6.617 0 12 5.383 12 12s-5.383 12-12 12zm24-52c0 6.617-5.383 12-12 12h-52c-6.617 0-12-5.383-12-12s5.383-12 12-12h52c6.617 0 12 5.383 12 12zm-64-28c-6.617 0-12-5.383-12-12s5.383-12 12-12h52c6.617 0 12 5.383 12 12s-5.383 12-12 12h-52zM108.508 89.711C106.516 79.625 97.664 72 87.078 72c-11.945 0-21.688 9.711-21.844 21.707a46.435 46.435 0 0 1-17.969-7.254l-2.789-1.883a7.991 7.991 0 0 0-8.234-.434A8.002 8.002 0 0 0 32 91.199v6.563c0 9.641 2.906 18.836 8.297 26.559l-5.984 6.055A8 8 0 0 0 40 144h38.766c15.461 0 28.242-11.785 29.961-26.91l8.961-9.066a8.007 8.007 0 0 0-.852-12l-8.328-6.313zm-13.274 18.266a7.987 7.987 0 0 0-2.313 5.625c0 7.938-6.352 14.398-14.156 14.398H58.414a8.012 8.012 0 0 0-1.648-8.824c-3.734-3.781-6.406-8.539-7.758-13.668a62.223 62.223 0 0 0 24.227 4.891c4.422 0 8-3.582 8-8V94c0-3.309 2.625-6 5.844-6s5.844 2.691 5.844 6a8.004 8.004 0 0 0 3.164 6.375l3.813 2.887-4.666 4.715z"/><path d="M232 128v24h-16v16h16v32h16v-32h16v-16h-16v-16h16v-16h-24c-4.422 0-8 3.582-8 8z"/><path d="M312 208v-96c0-13.234-10.766-24-24-24h-96c-13.234 0-24 10.766-24 24v96c0 13.234 10.766 24 24 24h96c13.234 0 24-10.766 24-24zm-128 0v-96c0-4.41 3.586-8 8-8h96c4.414 0 8 3.59 8 8v96c0 4.41-3.586 8-8 8h-96c-4.414 0-8-3.59-8-8zm-40-48V64c0-13.234-10.766-24-24-24H24C10.766 40 0 50.766 0 64v96c0 13.234 10.766 24 24 24h96c13.234 0 24-10.766 24-24zm-128 0V64c0-4.41 3.586-8 8-8h96c4.414 0 8 3.59 8 8v96c0 4.41-3.586 8-8 8H24c-4.414 0-8-3.59-8-8zM456 0h-96c-13.234 0-24 10.766-24 24v96c0 13.234 10.766 24 24 24h96c13.234 0 24-10.766 24-24V24c0-13.234-10.766-24-24-24zm-96 16h96c4.414 0 8 3.59 8 8v40h-16.809C443.474 45.766 427.315 32 408 32s-35.474 13.766-39.191 32H352V24c0-4.41 3.586-8 8-8zm72 56c0 13.234-10.766 24-24 24s-24-10.766-24-24 10.766-24 24-24 24 10.766 24 24zm24 56h-96c-4.414 0-8-3.59-8-8V80h16.809c3.717 18.234 19.876 32 39.191 32s35.474-13.766 39.191-32H464v40c0 4.41-3.586 8-8 8z"/><path d="M232 328H248V344H232z"/></svg>