<svg viewBox="0 0 511.999 511.999" xmlns="http://www.w3.org/2000/svg"><path d="M132.325 395.407v-49.572c0-17.923 14.533-32.456 32.456-32.456h183.631c17.937 0 32.47 14.533 32.47 32.456v49.572" fill="#ffc843"/><path d="M421.896 216.409v-67.381c0-65.921-53.439-119.36-119.36-119.36h-91.864c-65.921 0-119.36 53.439-119.36 119.36v246.378h325.955" fill="#fff"/><g fill="#ffc843"><path d="M197.547 313.382c-17.923 0-32.46 14.526-32.46 32.449v49.572h-32.762v-49.572c0-17.923 14.526-32.449 32.449-32.449zm183.335 32.449v49.572h-32.773v-49.572c0-17.923-14.538-32.449-32.472-32.449h32.773c17.935 0 32.472 14.526 32.472 32.449z"/><path d="M127.366 149.029c0-65.921 53.439-119.36 119.36-119.36h-36.053c-65.921 0-119.36 53.439-119.36 119.36v246.378h36.053V216.409z"/><path d="M132.325 395.407v-120.99c0-26.782-17.116-49.572-41.014-58.007-6.614-2.341-13.752-3.576-21.188-3.496-33.256.359-60.506 27.648-60.823 60.905-.19 20.031 9.191 37.873 23.847 49.235 18.897 14.648 29.454 37.615 29.454 61.524v10.831m318.281-.002v-120.99c0-26.782 17.116-49.572 41.014-58.007a61.254 61.254 0 0 1 20.493-3.5c33.987 0 61.52 27.533 61.52 61.507 0 19.498-9.068 36.871-23.218 48.137-18.717 14.902-30.099 37.135-30.099 61.059v11.794"/></g><path d="M98.34 433.112H62.603v-37.705h387.988v37.705h-35.737z" fill="#76ffd9"/><path d="M66.6 433.112h-3.997v-37.705h43.408v37.705h-3.998z" fill="#5de0bf"/><path d="M128.955 433.112v49.216H95.68l-8.954-49.216zm255.31 0v49.216h33.276l8.941-49.216z" fill="#e1eaf8"/><g fill="#fff"><circle cx="443.535" cy="276.584" r="17.388"/><circle cx="69.674" cy="276.584" r="17.388"/></g><path d="M90.708 195.177a8.695 8.695 0 0 0 8.695-8.695v-37.453c0-61.021 49.645-110.664 110.665-110.664h91.864c9.649 0 19.22 1.24 28.448 3.689a8.695 8.695 0 0 0 10.633-6.176 8.694 8.694 0 0 0-6.174-10.633 128.471 128.471 0 0 0-32.907-4.27h-91.864c-70.609 0-128.055 57.444-128.055 128.054v37.453a8.695 8.695 0 0 0 8.695 8.695z" fill="#434c54"/><path d="M337.323 196.854l-9.167 22.971a8.696 8.696 0 0 0 16.151 6.446l9.167-22.971a8.696 8.696 0 0 0-16.151-6.446zM211.662 318.335a8.696 8.696 0 0 1-8.08-5.48l-42.64-107.043a8.695 8.695 0 0 1 4.86-11.295c4.46-1.778 9.518.399 11.295 4.86l42.64 107.042a8.695 8.695 0 0 1-4.86 11.295 8.663 8.663 0 0 1-3.215.621zm44.338-.003a8.695 8.695 0 0 1-8.695-8.695v-140.66a8.695 8.695 0 0 1 17.39 0v140.662c0 4.8-3.893 8.693-8.695 8.693zm46.979.003a8.642 8.642 0 0 1-3.092-.572 8.696 8.696 0 0 1-5.034-11.219l22.8-59.897a8.696 8.696 0 0 1 16.254 6.186l-22.8 59.897a8.702 8.702 0 0 1-8.128 5.605z" fill="#ffc843"/><path d="M198.982 304.685h-34.804c-8.847 0-17.044 2.816-23.761 7.585v-37.855c0-29.716-18.813-56.322-46.807-66.203-7.741-2.739-15.856-4.08-24.183-3.994-37.919.409-69.063 31.593-69.423 69.516-.211 22.138 9.708 42.618 27.213 56.189 16.334 12.663 26.087 33.093 26.087 54.652v48.536a8.695 8.695 0 0 0 8.695 8.695h16.868l7.656 42.078a8.695 8.695 0 0 0 8.554 7.138h33.275a8.695 8.695 0 0 0 8.695-8.695v-40.521H331.46a8.695 8.695 0 0 0 8.695-8.695 8.695 8.695 0 0 0-8.695-8.695H70.693V404.1h370.599v20.316H360.44a8.695 8.695 0 0 0-8.695 8.695 8.695 8.695 0 0 0 8.695 8.695h14.526v40.522a8.695 8.695 0 0 0 8.695 8.695h33.275a8.694 8.694 0 0 0 8.554-7.141l7.643-42.076h16.853a8.695 8.695 0 0 0 8.695-8.695v-49.5c0-20.91 9.776-40.687 26.82-54.256 16.839-13.407 26.497-33.432 26.497-54.94 0-38.709-31.499-70.201-70.215-70.201-3.981 0-7.922.333-11.798.989v-56.176c0-45.756-24.678-88.342-64.406-111.138a8.695 8.695 0 0 0-8.654 15.083c34.338 19.706 55.671 56.512 55.671 96.056v61.538c-24.764 11.321-41.014 36.238-41.014 63.851v37.858a40.93 40.93 0 0 0-23.775-7.589h-34.791zm-79.325 137.122v31.827h-17.326l-5.791-31.827zm290.022 31.827h-17.322v-31.827h23.105zM164.177 322.075h183.631c13.109 0 23.775 10.659 23.775 23.761v40.877H140.416v-40.877c0-13.103 10.659-23.761 23.761-23.761zm-126.306-5.894c-13.173-10.212-20.638-25.623-20.48-42.28.271-28.527 23.698-51.985 52.223-52.292a52.555 52.555 0 0 1 18.2 3c21.061 7.435 35.212 27.45 35.212 49.808v112.295H70.693v-2.135c0-26.896-12.27-52.464-32.822-68.396zm436.799-.429c-21.212 16.889-33.377 41.622-33.377 67.861v3.099h-52.32V274.416c0-22.357 14.15-42.373 35.221-49.81a52.566 52.566 0 0 1 17.591-3.001c29.129 0 52.826 23.691 52.826 52.812-.001 16.179-7.269 31.247-19.941 41.335z" fill="#434c54"/></svg>