<?xml version="1.0" encoding="iso-8859-1"?>
<!-- Generator: Adobe Illustrator 19.0.0, SVG Export Plug-In . SVG Version: 6.00 Build 0)  -->
<svg version="1.1" id="Capa_1" xmlns="http://www.w3.org/2000/svg" xmlns:xlink="http://www.w3.org/1999/xlink" x="0px" y="0px"
	 viewBox="0 0 512 512" style="enable-background:new 0 0 512 512;" xml:space="preserve">
<path style="fill:#EA9D2D;" d="M400.632,375.467h-186.88c-4.429,0.017-8.132-3.354-8.533-7.757c-0.239-3.072-0.418-6.17-0.418-9.31
	c0-56.55,45.85-102.4,102.4-102.4s102.4,45.85,102.4,102.4c0,3.14-0.179,6.246-0.469,9.31
	C408.73,372.105,405.043,375.467,400.632,375.467z"/>
<path style="fill:#DA922A;" d="M357.632,375.467H256.768c-4.164,0-7.723-3.012-8.414-7.117
	c-5.666-32.503,16.085-63.437,48.589-69.103c32.503-5.666,63.437,16.085,69.103,48.589c1.186,6.784,1.186,13.73,0,20.514
	C365.355,372.454,361.796,375.467,357.632,375.467z M264.533,358.4h85.333c0-23.561-19.106-42.667-42.667-42.667
	S264.533,334.839,264.533,358.4z"/>
<path style="fill:#F3AF3E;" d="M503.031,443.733h-186.88c-4.429,0.017-8.132-3.354-8.533-7.757c-0.239-3.072-0.418-6.17-0.418-9.31
	c0-56.55,45.85-102.4,102.4-102.4s102.4,45.85,102.4,102.4c0,3.14-0.179,6.238-0.469,9.31
	C511.13,440.371,507.443,443.733,503.031,443.733z"/>
<path style="fill:#DA922A;" d="M460.032,443.733H359.168c-4.164,0-7.723-3.012-8.414-7.117
	c-5.666-32.503,16.085-63.437,48.589-69.103c32.503-5.666,63.437,16.085,69.103,48.589c1.186,6.784,1.186,13.73,0,20.514
	C467.755,440.721,464.196,443.733,460.032,443.733z M366.933,426.667h85.333c0-23.561-19.106-42.667-42.667-42.667
	C386.039,384,366.933,403.106,366.933,426.667z"/>
<path style="fill:#CDCDCD;" d="M221.867,68.267H110.933c-4.71,0-8.533-3.823-8.533-8.533s3.823-8.533,8.533-8.533h110.933
	c4.71,0,8.533,3.823,8.533,8.533S226.577,68.267,221.867,68.267z"/>
<path style="fill:#EA9D2D;" d="M162.133,358.4c0-58.325,34.133-58.325,34.133-116.651s-34.133-58.283-34.133-116.651
	s34.133-58.283,34.133-116.565h-85.333c0,58.283-34.133,58.283-34.133,116.565s34.133,58.325,34.133,116.651
	S76.8,300.075,76.8,358.4H162.133z"/>
<path style="fill:#DA922A;" d="M119.467,366.933c-4.71,0-8.533-3.823-8.533-8.533c-0.512-22.255,5.862-44.126,18.236-62.635
	c10.778-15.923,16.333-34.799,15.898-54.016c0.435-19.217-5.12-38.093-15.898-54.016c-12.373-18.5-18.748-40.371-18.236-62.626
	c-0.503-22.246,5.862-44.109,18.236-62.601c10.778-15.906,16.333-34.765,15.898-53.973c0-4.71,3.823-8.533,8.533-8.533
	s8.533,3.823,8.533,8.533c0.512,22.246-5.862,44.1-18.236,62.592C133.12,87.031,127.565,105.899,128,125.107
	c-0.435,19.217,5.12,38.093,15.898,54.007c12.373,18.509,18.748,40.38,18.236,62.635c0.512,22.255-5.862,44.126-18.236,62.635
	C133.12,320.307,127.565,339.183,128,358.4C128,363.11,124.177,366.933,119.467,366.933z"/>
<g>
	<path style="fill:#D9D9D9;" d="M221.867,17.067H110.933c-4.71,0-8.533-3.823-8.533-8.533S106.223,0,110.933,0h110.933
		c4.71,0,8.533,3.823,8.533,8.533S226.577,17.067,221.867,17.067z"/>
	<path style="fill:#D9D9D9;" d="M221.867,119.467H110.933c-4.71,0-8.533-3.823-8.533-8.533c0-4.71,3.823-8.533,8.533-8.533h110.933
		c4.71,0,8.533,3.823,8.533,8.533C230.4,115.644,226.577,119.467,221.867,119.467z"/>
</g>
<path style="fill:#F3AF3E;" d="M349.431,443.733h-186.88c-4.429,0.017-8.132-3.354-8.533-7.757c-0.239-3.072-0.418-6.17-0.418-9.31
	c0-56.55,45.85-102.4,102.4-102.4s102.4,45.85,102.4,102.4c0,3.14-0.179,6.238-0.469,9.31
	C357.53,440.371,353.843,443.733,349.431,443.733z"/>
<path style="fill:#A66444;" d="M469.333,290.133c-4.71,0-8.533-3.823-8.533-8.533c0-1.152,0.239-2.295,0.691-3.362l25.6-59.733
	c1.792-4.361,6.784-6.434,11.145-4.642c4.361,1.792,6.434,6.784,4.642,11.145c-0.034,0.077-0.06,0.145-0.094,0.222l-25.6,59.733
	C475.827,288.102,472.747,290.133,469.333,290.133z"/>
<path style="fill:#DA922A;" d="M306.432,443.733H205.568c-4.164,0-7.723-3.012-8.414-7.117
	c-5.666-32.503,16.085-63.437,48.589-69.103c32.503-5.666,63.437,16.085,69.103,48.589c1.186,6.784,1.186,13.73,0,20.514
	C314.155,440.721,310.596,443.733,306.432,443.733z M213.333,426.667h85.333C298.667,403.106,279.561,384,256,384
	S213.333,403.106,213.333,426.667z"/>
<path style="fill:#5E8569;" d="M460.8,341.333c-23.561,0-42.667-19.106-42.667-42.667S437.239,256,460.8,256
	s42.667,19.106,42.667,42.667C503.441,322.219,484.352,341.308,460.8,341.333z"/>
<rect x="281.6" y="42.667" style="fill:#CDCDCD;" width="221.867" height="34.133"/>
<path style="fill:#F3AF3E;" d="M195.831,443.733H8.969c-4.429,0.017-8.132-3.354-8.533-7.757C0.179,432.905,0,429.807,0,426.667
	c0-56.55,45.85-102.4,102.4-102.4s102.4,45.85,102.4,102.4c0,3.14-0.179,6.238-0.469,9.31
	C203.93,440.371,200.243,443.733,195.831,443.733z"/>
<path style="fill:#DA922A;" d="M152.832,443.733H51.968c-4.164,0-7.723-3.012-8.414-7.117
	c-5.666-32.503,16.085-63.437,48.589-69.103c32.503-5.666,63.437,16.085,69.103,48.589c1.186,6.784,1.186,13.73,0,20.514
	C160.555,440.721,156.996,443.733,152.832,443.733z M59.733,426.667h85.333c0-23.561-19.106-42.667-42.667-42.667
	S59.733,403.106,59.733,426.667z"/>
<path style="fill:#B9B9B9;" d="M42.667,469.333h426.667l0,0l0,0c0,18.85-15.283,34.133-34.133,34.133H76.8
	C57.95,503.467,42.667,488.184,42.667,469.333L42.667,469.333L42.667,469.333z"/>
<g>
	<path style="fill:#D9D9D9;" d="M477.867,477.867H34.133C15.283,477.867,0,462.583,0,443.733V435.2c0-4.71,3.823-8.533,8.533-8.533
		h494.933c4.71,0,8.533,3.823,8.533,8.533v8.533C512,462.583,496.717,477.867,477.867,477.867z"/>
	<path style="fill:#D9D9D9;" d="M247.467,119.467h-25.6c-4.71,0-8.533-3.823-8.533-8.533V8.533c0-4.71,3.823-8.533,8.533-8.533h25.6
		c23.552,0.026,42.641,19.115,42.667,42.667V76.8C290.108,100.352,271.019,119.441,247.467,119.467z"/>
</g>
<path d="M503.467,34.133H289.28C285.201,14.285,267.733,0.026,247.467,0H110.933c-4.71,0-8.533,3.823-8.533,8.533
	c0.435,19.209-5.12,38.067-15.898,53.973c-12.373,18.492-18.739,40.354-18.236,62.601c-0.512,22.255,5.862,44.126,18.236,62.626
	c10.778,15.923,16.333,34.799,15.898,54.016c0.435,19.217-5.12,38.101-15.898,54.025c-6.537,10.266-11.511,21.453-14.754,33.186
	C29.09,342.409,0.06,381.943,0,426.667c0,2.304,0.179,4.565,0.341,6.827C0.162,434.048,0.051,434.62,0,435.2v8.533
	c0,18.85,15.283,34.133,34.133,34.133h0.853C39.066,497.715,56.533,511.974,76.8,512h358.4
	c20.267-0.026,37.734-14.285,41.813-34.133h0.853c18.85,0,34.133-15.283,34.133-34.133V435.2c-0.051-0.58-0.162-1.152-0.341-1.707
	c0.162-2.27,0.341-4.531,0.341-6.827c-0.026-34.654-17.587-66.944-46.669-85.794c23.287-2.347,40.269-23.134,37.914-46.421
	c-1.212-12.015-7.492-22.946-17.263-30.046l16.794-39.177c1.92-4.301-0.017-9.353-4.318-11.264
	c-4.301-1.92-9.353,0.017-11.264,4.318c-0.034,0.077-0.068,0.145-0.094,0.222l-16.589,38.707
	c-22.767-5.495-45.679,8.508-51.183,31.275c-3.2,13.252,0.171,27.238,9.054,37.581c-6.195-1.178-12.484-1.775-18.782-1.801
	c-1.946,0-3.857,0.239-5.786,0.35c-18.611-53.359-76.945-81.527-130.304-62.916c-33.69,11.75-58.829,40.201-66.33,75.085
	c-10.581,5.734-20.07,13.295-28.032,22.323c-2.611-2.961-5.385-5.769-8.32-8.405c0-0.102,0.077-0.188,0.077-0.299
	c1.024-16.461,6.434-32.35,15.659-46.02c12.373-18.509,18.748-40.38,18.236-62.635c0.512-22.255-5.862-44.126-18.236-62.635
	c-10.778-15.915-16.333-34.79-15.898-54.007c0-2.005,0.128-3.789,0.205-5.641h76.595c20.267-0.026,37.734-14.285,41.813-34.133
	h214.187c4.71,0,8.533-3.823,8.533-8.533V42.667C512,37.956,508.177,34.133,503.467,34.133z M460.8,273.067
	c0.939,0.043,1.869,0.137,2.79,0.282l-2.099,4.89c-1.92,4.301,0.017,9.353,4.318,11.264c4.301,1.911,9.353-0.017,11.264-4.318
	c0.034-0.077,0.068-0.145,0.094-0.222l1.826-4.267c9.924,10.069,9.805,26.274-0.265,36.207c-10.069,9.933-26.274,9.805-36.207-0.265
	c-9.933-10.069-9.805-26.274,0.265-36.207C447.599,275.703,454.067,273.058,460.8,273.067z M204.484,17.067h8.849V51.2h-16.393
	C201.412,40.346,203.964,28.8,204.484,17.067z M171.836,62.507c-7.902,12.143-13.431,25.685-16.273,39.893h-25.207
	c2.748-11.102,7.322-21.675,13.542-31.275c10.692-16.094,16.879-34.765,17.92-54.059h25.6
	C186.308,33.323,180.932,48.99,171.836,62.507z M101.231,304.393c12.373-18.509,18.739-40.388,18.236-62.643
	c0.512-22.255-5.862-44.126-18.236-62.635c-10.778-15.915-16.333-34.79-15.898-54.007c-0.435-19.209,5.12-38.076,15.898-53.982
	c10.743-16.077,16.956-34.748,17.997-54.059h25.523c-1.118,16.256-6.485,31.923-15.582,45.44
	c-7.902,12.143-13.431,25.685-16.273,39.893h-1.963c-4.71,0-8.533,3.823-8.533,8.533c0,4.71,3.823,8.533,8.533,8.533h0.213
	c-0.077,1.877-0.213,3.635-0.213,5.641c-0.512,22.255,5.862,44.126,18.236,62.626c10.778,15.923,16.333,34.799,15.898,54.016
	c0.435,19.217-5.12,38.101-15.898,54.025c-5.76,9.207-10.342,19.089-13.653,29.431c-4.343-0.597-8.73-0.905-13.116-0.939
	c-3.866,0.017-7.731,0.247-11.571,0.7C93.696,317.815,97.169,310.938,101.231,304.393z M102.4,341.333
	c47.104,0.051,85.282,38.229,85.333,85.333h-25.6c0-32.99-26.743-59.733-59.733-59.733s-59.733,26.743-59.733,59.733h-25.6
	C17.118,379.563,55.296,341.385,102.4,341.333z M145.067,426.667H59.733C59.733,403.106,78.839,384,102.4,384
	S145.067,403.106,145.067,426.667z M435.2,494.933H76.8c-10.846-0.017-20.514-6.844-24.141-17.067h406.682
	C455.714,488.09,446.046,494.916,435.2,494.933z M477.867,460.8H34.133c-9.429,0-17.067-7.637-17.067-17.067h477.867
	C494.933,453.163,487.296,460.8,477.867,460.8z M213.333,426.667C213.333,403.106,232.439,384,256,384
	c23.561,0,42.667,19.106,42.667,42.667H213.333z M366.933,426.667c0-23.561,19.106-42.667,42.667-42.667
	c23.561,0,42.667,19.106,42.667,42.667H366.933z M494.933,426.667h-25.6c-0.077-32.99-26.889-59.665-59.878-59.588
	c-23.33,0.06-44.493,13.687-54.187,34.91c-2.517-10.129-6.588-19.814-12.049-28.706c29.414-36.736,83.038-42.667,119.765-13.252
	C483.217,376.226,494.967,400.751,494.933,426.667z M332.749,359.1c-14.208-16.179-33.152-27.477-54.144-32.273
	c17.357-15.846,44.262-14.618,60.109,2.731c3.857,4.224,6.827,9.182,8.721,14.583c0.154,0.333,0.333,0.657,0.521,0.964
	C342.426,349.244,337.331,353.937,332.749,359.1z M307.2,273.067c34.978,0.085,66.398,21.427,79.36,53.922
	c-8.397,1.92-16.512,4.898-24.158,8.858c-12.314-30.455-46.985-45.158-77.431-32.845c-10.795,4.361-20.062,11.793-26.675,21.376
	c-0.759,0-1.493-0.111-2.253-0.111c-9.754,0.06-19.447,1.51-28.783,4.318C239.71,295.211,271.573,273.075,307.2,273.067z
	 M256,341.333c47.104,0.051,85.282,38.229,85.333,85.333h-25.6c-0.077-32.99-26.889-59.665-59.878-59.588
	c-23.33,0.06-44.493,13.687-54.187,34.91c-2.517-10.129-6.579-19.806-12.049-28.698C205.781,353.152,230.178,341.402,256,341.333z
	 M171.836,187.733c10.778,15.923,16.333,34.799,15.898,54.016c0.435,19.217-5.12,38.093-15.898,54.016
	c-8.576,13.065-14.31,27.785-16.828,43.213c-7.134-4.335-14.78-7.774-22.758-10.24c2.944-8.525,6.852-16.691,11.648-24.337
	c12.373-18.509,18.739-40.388,18.236-62.652c0.512-22.255-5.862-44.126-18.236-62.635C133.12,163.2,127.565,144.324,128,125.107
	c0-2.005,0.128-3.789,0.205-5.641h25.6c-0.077,1.877-0.213,3.635-0.213,5.641C153.088,147.362,159.454,169.233,171.836,187.733z
	 M186.564,71.125c0.555-0.939,1.109-1.903,1.707-2.859h25.062V102.4h-40.311C175.77,91.298,180.343,80.725,186.564,71.125z
	 M247.467,102.4H230.4V17.067h17.067c14.14,0,25.6,11.46,25.6,25.6V76.8C273.067,90.94,261.606,102.4,247.467,102.4z
	 M494.933,68.267h-204.8V51.2h204.8V68.267z"/>
<g>
</g>
<g>
</g>
<g>
</g>
<g>
</g>
<g>
</g>
<g>
</g>
<g>
</g>
<g>
</g>
<g>
</g>
<g>
</g>
<g>
</g>
<g>
</g>
<g>
</g>
<g>
</g>
<g>
</g>
</svg>
