<svg xmlns="http://www.w3.org/2000/svg" viewBox="0 0 512 512"><path d="M400.632 375.467h-186.88a8.534 8.534 0 0 1-8.533-7.757c-.239-3.072-.418-6.17-.418-9.31 0-56.55 45.85-102.4 102.4-102.4s102.4 45.85 102.4 102.4c0 3.14-.179 6.246-.469 9.31a8.535 8.535 0 0 1-8.5 7.757z" fill="#EA9D2D"/><path d="M357.632 375.467H256.768a8.537 8.537 0 0 1-8.414-7.117c-5.666-32.503 16.085-63.437 48.589-69.103 32.503-5.666 63.437 16.085 69.103 48.589a59.582 59.582 0 0 1 0 20.514 8.538 8.538 0 0 1-8.414 7.117zM264.533 358.4h85.333c0-23.561-19.106-42.667-42.667-42.667s-42.666 19.106-42.666 42.667z" fill="#DA922A"/><path d="M503.031 443.733h-186.88a8.534 8.534 0 0 1-8.533-7.757c-.239-3.072-.418-6.17-.418-9.31 0-56.55 45.85-102.4 102.4-102.4s102.4 45.85 102.4 102.4c0 3.14-.179 6.238-.469 9.31a8.534 8.534 0 0 1-8.5 7.757z" fill="#F3AF3E"/><path d="M460.032 443.733H359.168a8.537 8.537 0 0 1-8.414-7.117c-5.666-32.503 16.085-63.437 48.589-69.103 32.503-5.666 63.437 16.085 69.103 48.589a59.582 59.582 0 0 1 0 20.514 8.537 8.537 0 0 1-8.414 7.117zm-93.099-17.066h85.333c0-23.561-19.106-42.667-42.667-42.667-23.56 0-42.666 19.106-42.666 42.667z" fill="#DA922A"/><path d="M221.867 68.267H110.933c-4.71 0-8.533-3.823-8.533-8.533s3.823-8.533 8.533-8.533h110.933c4.71 0 8.533 3.823 8.533 8.533s-3.822 8.533-8.532 8.533z" fill="#CDCDCD"/><path d="M162.133 358.4c0-58.325 34.133-58.325 34.133-116.651s-34.133-58.283-34.133-116.651 34.133-58.283 34.133-116.565h-85.333c0 58.283-34.133 58.283-34.133 116.565s34.133 58.325 34.133 116.651S76.8 300.075 76.8 358.4h85.333z" fill="#EA9D2D"/><path d="M119.467 366.933a8.536 8.536 0 0 1-8.533-8.533 108.226 108.226 0 0 1 18.236-62.635 92.62 92.62 0 0 0 15.898-54.016 92.62 92.62 0 0 0-15.898-54.016 108.186 108.186 0 0 1-18.236-62.626 108.17 108.17 0 0 1 18.236-62.601 92.47 92.47 0 0 0 15.898-53.973c0-4.71 3.823-8.533 8.533-8.533s8.533 3.823 8.533 8.533a108.075 108.075 0 0 1-18.236 62.592A92.498 92.498 0 0 0 128 125.107a92.573 92.573 0 0 0 15.898 54.007 108.233 108.233 0 0 1 18.236 62.635 108.226 108.226 0 0 1-18.236 62.635A92.62 92.62 0 0 0 128 358.4a8.536 8.536 0 0 1-8.533 8.533z" fill="#DA922A"/><path d="M221.867 17.067H110.933c-4.71 0-8.533-3.823-8.533-8.533S106.223 0 110.933 0h110.933c4.71 0 8.533 3.823 8.533 8.533s-3.822 8.534-8.532 8.534zm0 102.4H110.933a8.536 8.536 0 0 1-8.533-8.533 8.536 8.536 0 0 1 8.533-8.533h110.933a8.536 8.536 0 0 1 8.533 8.533c.001 4.71-3.822 8.533-8.532 8.533z" fill="#D9D9D9"/><path d="M349.431 443.733h-186.88a8.534 8.534 0 0 1-8.533-7.757c-.239-3.072-.418-6.17-.418-9.31 0-56.55 45.85-102.4 102.4-102.4s102.4 45.85 102.4 102.4c0 3.14-.179 6.238-.469 9.31a8.534 8.534 0 0 1-8.5 7.757z" fill="#F3AF3E"/><path d="M469.333 290.133a8.536 8.536 0 0 1-8.533-8.533c0-1.152.239-2.295.691-3.362l25.6-59.733c1.792-4.361 6.784-6.434 11.145-4.642 4.361 1.792 6.434 6.784 4.642 11.145-.034.077-.06.145-.094.222l-25.6 59.733a8.552 8.552 0 0 1-7.851 5.17z" fill="#A66444"/><path d="M306.432 443.733H205.568a8.537 8.537 0 0 1-8.414-7.117c-5.666-32.503 16.085-63.437 48.589-69.103 32.503-5.666 63.437 16.085 69.103 48.589a59.582 59.582 0 0 1 0 20.514 8.537 8.537 0 0 1-8.414 7.117zm-93.099-17.066h85.333C298.667 403.106 279.561 384 256 384s-42.667 19.106-42.667 42.667z" fill="#DA922A"/><path d="M460.8 341.333c-23.561 0-42.667-19.106-42.667-42.667S437.239 256 460.8 256s42.667 19.106 42.667 42.667c-.026 23.552-19.115 42.641-42.667 42.666z" fill="#5E8569"/><path fill="#CDCDCD" d="M281.6 42.667H503.467V76.80000000000001H281.6z"/><path d="M195.831 443.733H8.969a8.534 8.534 0 0 1-8.533-7.757C.179 432.905 0 429.807 0 426.667c0-56.55 45.85-102.4 102.4-102.4s102.4 45.85 102.4 102.4c0 3.14-.179 6.238-.469 9.31a8.534 8.534 0 0 1-8.5 7.756z" fill="#F3AF3E"/><path d="M152.832 443.733H51.968a8.537 8.537 0 0 1-8.414-7.117c-5.666-32.503 16.085-63.437 48.589-69.103 32.503-5.666 63.437 16.085 69.103 48.589a59.582 59.582 0 0 1 0 20.514 8.537 8.537 0 0 1-8.414 7.117zm-93.099-17.066h85.333c0-23.561-19.106-42.667-42.667-42.667s-42.666 19.106-42.666 42.667z" fill="#DA922A"/><path d="M42.667 469.333h426.667c0 18.85-15.283 34.133-34.133 34.133H76.8c-18.85.001-34.133-15.282-34.133-34.133z" fill="#B9B9B9"/><path d="M477.867 477.867H34.133C15.283 477.867 0 462.583 0 443.733V435.2a8.536 8.536 0 0 1 8.533-8.533h494.933a8.536 8.536 0 0 1 8.533 8.533v8.533c.001 18.85-15.282 34.134-34.132 34.134zm-230.4-358.4h-25.6a8.536 8.536 0 0 1-8.533-8.533V8.533A8.536 8.536 0 0 1 221.867 0h25.6c23.552.026 42.641 19.115 42.667 42.667V76.8c-.026 23.552-19.115 42.641-42.667 42.667z" fill="#D9D9D9"/><path d="M503.467 34.133H289.28C285.201 14.285 267.733.026 247.467 0H110.933a8.536 8.536 0 0 0-8.533 8.533 92.468 92.468 0 0 1-15.898 53.973 108.174 108.174 0 0 0-18.236 62.601 108.178 108.178 0 0 0 18.236 62.626 92.62 92.62 0 0 1 15.898 54.016 92.65 92.65 0 0 1-15.898 54.025 122.605 122.605 0 0 0-14.754 33.186C29.09 342.409.06 381.943 0 426.667c0 2.304.179 4.565.341 6.827A7.749 7.749 0 0 0 0 435.2v8.533c0 18.85 15.283 34.133 34.133 34.133h.853C39.066 497.715 56.533 511.974 76.8 512h358.4c20.267-.026 37.734-14.285 41.813-34.133h.853c18.85 0 34.133-15.283 34.133-34.133V435.2a7.77 7.77 0 0 0-.341-1.707c.162-2.27.341-4.531.341-6.827a102.33 102.33 0 0 0-46.669-85.794c23.287-2.347 40.269-23.134 37.914-46.421a42.404 42.404 0 0 0-17.263-30.046l16.794-39.177c1.92-4.301-.017-9.353-4.318-11.264-4.301-1.92-9.353.017-11.264 4.318-.034.077-.068.145-.094.222l-16.589 38.707c-22.767-5.495-45.679 8.508-51.183 31.275a42.409 42.409 0 0 0 9.054 37.581 102.821 102.821 0 0 0-18.782-1.801c-1.946 0-3.857.239-5.786.35-18.611-53.359-76.945-81.527-130.304-62.916-33.69 11.75-58.829 40.201-66.33 75.085a102.502 102.502 0 0 0-28.032 22.323 101.68 101.68 0 0 0-8.32-8.405c0-.102.077-.188.077-.299a92.55 92.55 0 0 1 15.659-46.02 108.233 108.233 0 0 0 18.236-62.635 108.226 108.226 0 0 0-18.236-62.635 92.575 92.575 0 0 1-15.898-54.007c0-2.005.128-3.789.205-5.641h76.595c20.267-.026 37.734-14.285 41.813-34.133h214.187a8.536 8.536 0 0 0 8.533-8.533V42.667c.002-4.711-3.821-8.534-8.531-8.534zM460.8 273.067c.939.043 1.869.137 2.79.282l-2.099 4.89c-1.92 4.301.017 9.353 4.318 11.264 4.301 1.911 9.353-.017 11.264-4.318.034-.077.068-.145.094-.222l1.826-4.267c9.924 10.069 9.805 26.274-.265 36.207-10.069 9.933-26.274 9.805-36.207-.265-9.933-10.069-9.805-26.274.265-36.207a25.657 25.657 0 0 1 18.014-7.364zm-256.316-256h8.849V51.2H196.94a101.369 101.369 0 0 0 7.544-34.133zm-32.648 45.44a114.243 114.243 0 0 0-16.273 39.893h-25.207a103.055 103.055 0 0 1 13.542-31.275 108.24 108.24 0 0 0 17.92-54.059h25.6a92.692 92.692 0 0 1-15.582 45.441zm-70.605 241.886a108.325 108.325 0 0 0 18.236-62.643 108.226 108.226 0 0 0-18.236-62.635 92.575 92.575 0 0 1-15.898-54.007 92.496 92.496 0 0 1 15.898-53.982 107.727 107.727 0 0 0 17.997-54.059h25.523a92.762 92.762 0 0 1-15.582 45.44 114.243 114.243 0 0 0-16.273 39.893h-1.963a8.536 8.536 0 0 0-8.533 8.533 8.536 8.536 0 0 0 8.533 8.533h.213c-.077 1.877-.213 3.635-.213 5.641a108.178 108.178 0 0 0 18.236 62.626 92.62 92.62 0 0 1 15.898 54.016 92.65 92.65 0 0 1-15.898 54.025 130.492 130.492 0 0 0-13.653 29.431c-4.343-.597-8.73-.905-13.116-.939-3.866.017-7.731.247-11.571.7a132.465 132.465 0 0 1 10.402-20.573zm1.169 36.94c47.104.051 85.282 38.229 85.333 85.333h-25.6c0-32.99-26.743-59.733-59.733-59.733s-59.733 26.743-59.733 59.733h-25.6c.051-47.103 38.229-85.281 85.333-85.333zm42.667 85.334H59.733C59.733 403.106 78.839 384 102.4 384s42.667 19.106 42.667 42.667zM435.2 494.933H76.8c-10.846-.017-20.514-6.844-24.141-17.067h406.682c-3.627 10.224-13.295 17.05-24.141 17.067zm42.667-34.133H34.133c-9.429 0-17.067-7.637-17.067-17.067h477.867c0 9.43-7.637 17.067-17.066 17.067zm-264.534-34.133C213.333 403.106 232.439 384 256 384s42.667 19.106 42.667 42.667h-85.334zm153.6 0c0-23.561 19.106-42.667 42.667-42.667s42.667 19.106 42.667 42.667h-85.334zm128 0h-25.6c-.077-32.99-26.889-59.665-59.878-59.588-23.33.06-44.493 13.687-54.187 34.91a101.77 101.77 0 0 0-12.049-28.706c29.414-36.736 83.038-42.667 119.765-13.252a85.2 85.2 0 0 1 31.949 66.636zM332.749 359.1a102.428 102.428 0 0 0-54.144-32.273c17.357-15.846 44.262-14.618 60.109 2.731a42.477 42.477 0 0 1 8.721 14.583c.154.333.333.657.521.964a102.287 102.287 0 0 0-15.207 13.995zM307.2 273.067c34.978.085 66.398 21.427 79.36 53.922a101.929 101.929 0 0 0-24.158 8.858c-12.314-30.455-46.985-45.158-77.431-32.845a59.474 59.474 0 0 0-26.675 21.376c-.759 0-1.493-.111-2.253-.111-9.754.06-19.447 1.51-28.783 4.318 12.45-33.374 44.313-55.51 79.94-55.518zM256 341.333c47.104.051 85.282 38.229 85.333 85.333h-25.6c-.077-32.99-26.889-59.665-59.878-59.588-23.33.06-44.493 13.687-54.187 34.91a101.461 101.461 0 0 0-12.049-28.698A85.406 85.406 0 0 1 256 341.333zm-84.164-153.6a92.62 92.62 0 0 1 15.898 54.016 92.62 92.62 0 0 1-15.898 54.016 111.46 111.46 0 0 0-16.828 43.213 101.614 101.614 0 0 0-22.758-10.24 118.753 118.753 0 0 1 11.648-24.337 108.333 108.333 0 0 0 18.236-62.652 108.226 108.226 0 0 0-18.236-62.635A92.573 92.573 0 0 1 128 125.107c0-2.005.128-3.789.205-5.641h25.6c-.077 1.877-.213 3.635-.213 5.641a108.186 108.186 0 0 0 18.244 62.626zm14.728-116.608c.555-.939 1.109-1.903 1.707-2.859h25.062V102.4h-40.311a103.03 103.03 0 0 1 13.542-31.275zm60.903 31.275H230.4V17.067h17.067c14.14 0 25.6 11.46 25.6 25.6V76.8c0 14.14-11.461 25.6-25.6 25.6zm247.466-34.133h-204.8V51.2h204.8v17.067z"/></svg>