<svg enable-background="new 0 0 511.966 511.966" viewBox="0 0 511.966 511.966" xmlns="http://www.w3.org/2000/svg"><path d="m468.627 102-59.325-44.669-43.998-13.999-62.668 11.999-41.997 40.67-10.672-2-11.999-13.999-55.325-31.998-63.324 2.671-42.669 13.999-47.325 63.997-15.343 66.651 20.671 89.339 52.668 83.323 109.321 74.667 49.997 19.327 26.671-7.327 79.323-35.342 79.996-64.652 58.667-85.339 5.329-94.65z" fill="#ec5564"/><path d="m334.712 176.027-52.527 15.952-45.967 39.388v49.716l18.765 42.201 48.763 13.139 54.402-19.702 29.077-60.965v-93.291z" fill="#9ed36a"/><path d="m236.218 283.426 3.282-60.027-15.937-7.031-70.824-14.546 3.75 57.684 16.421 41.279 22.983 21.093 31.42 8.436 19.686-11.249z" fill="#8ac054"/><path d="m422.972 48.566c-20.967-10.156-42.497-15.202-63.527-15.202-38.388 0-75.073 16.795-103.462 49.981-28.389-33.17-65.074-49.981-103.463-49.981-21.029 0-42.56 5.046-63.527 15.202-75.386 40.873-111.29 134.085-74.339 231.72 46.809 129.711 216.611 190.41 241.329 198.316 24.718-7.906 194.52-68.605 241.329-198.316 36.951-97.635 1.047-190.847-74.34-231.72zm-93.416 193.816-.016-.016c3.266-2.281 5.109-6.296 4.406-10.483-.984-5.797-6.469-9.718-12.28-8.75-1.625.281-3.078.906-4.344 1.781-1.297.906-32.029 22.655-56.652 63.574-2.734 4.563-5.266 9.188-7.641 13.843-6.5-8.655-10.702-18.89-12.124-29.904-2.188-16.858 2.313-33.561 12.671-47.028 20.405-26.545 58.013-41.732 85.964-49.81 14.89-4.297 28.732-7.078 39.295-8.828 1 10.437 1.843 24.202 1.562 39.451-.546 29.342-5.515 69.948-26.076 96.666-12.14 15.812-30.561 24.874-50.544 24.874-12.358 0-24.186-3.516-34.482-10.188 2.75-5.859 5.828-11.64 9.234-17.358 22.232-37.293 50.746-57.621 51.027-57.824zm-110.509 20.515c-4.125-4.766-6.891-7.875-7.155-8.156-1.828-2.047-4.422-3.391-7.359-3.547-5.891-.344-10.921 4.156-11.249 10.047-.172 2.938.875 5.671 2.703 7.718.218.234 11.202 12.546 22.545 26.343 6.578 7.983 11.358 14.123 14.827 18.826-5.094 1.969-10.546 3.016-16.155 3.016-12.155 0-23.529-4.781-32.029-13.483-13.655-13.983-23.201-37.778-27.576-68.809-1.328-9.468-2-18.327-2.297-25.701 9.905.641 22.608 2.015 35.873 4.828 14.108 3.016 26.482 7.187 36.764 12.358-5.782 11.577-8.704 24.091-8.892 36.56zm271.515-54.856c-.594 21.374-5.047 43.138-13.202 64.699l-.047.156-.063.141c-9.749 26.998-26.357 52.95-49.372 77.151-19.279 20.264-43.138 39.404-70.887 56.887-39.888 25.14-77.854 40.561-96.321 47.326-12.047-40.967-11.859-80.074.531-116.79 13.249 7.702 27.967 11.468 42.575 11.468 25.498 0 50.716-11.421 67.465-33.201 46.638-60.652 25.982-173.052 25.982-173.052s-108.946 8.531-157.381 65.637c-36.889-19.515-85.214-21.202-100.791-21.202-3.25 0-5.063.078-5.063.078s-5.64 88.666 35.92 131.227c12.952 13.265 30.123 19.92 47.294 19.92 7.688 0 15.374-1.343 22.687-4.03-3.172 10.077-5.578 20.343-7.141 30.764-4.047 27.077-2.578 55.169 4.359 83.714-20.452-8.266-50.7-22.046-82.136-41.857-27.748-17.482-51.606-36.623-70.887-56.887-23.014-24.201-39.638-50.153-49.371-77.151l-.063-.141-.047-.156c-8.156-21.562-12.609-43.326-13.203-64.699-.578-20.218 2.281-39.748 8.5-58.043 6.031-17.78 15.062-33.936 26.842-48.028 11.718-14.015 25.843-25.608 41.982-34.42 17.764-8.531 35.856-12.858 53.793-12.858 16.14 0 31.717 3.531 46.31 10.484 15.155 7.218 28.937 17.999 40.936 32.045l16.22 18.948 16.202-18.952c12.015-14.046 25.795-24.827 40.951-32.045 14.592-6.953 30.17-10.484 46.309-10.484 17.938 0 36.029 4.328 53.794 12.858 16.14 8.812 30.265 20.405 41.981 34.42 11.781 14.093 20.812 30.248 26.843 48.028 6.218 18.297 9.077 37.827 8.499 58.045z"/></svg>