<?xml version="1.0" encoding="iso-8859-1"?>
<!-- Generator: Adobe Illustrator 19.0.0, SVG Export Plug-In . SVG Version: 6.00 Build 0)  -->
<svg version="1.1" id="Layer_1" xmlns="http://www.w3.org/2000/svg" xmlns:xlink="http://www.w3.org/1999/xlink" x="0px" y="0px"
	 viewBox="0 0 511.966 511.966" style="enable-background:new 0 0 511.966 511.966;" xml:space="preserve">
<polygon style="fill:#EC5564;" points="468.627,102 409.302,57.331 365.304,43.332 302.636,55.331 260.639,96.001 249.967,94.001 
	237.968,80.002 182.643,48.004 119.319,50.675 76.65,64.674 29.325,128.671 13.982,195.322 34.653,284.661 87.321,367.984 
	196.642,442.651 246.639,461.978 273.31,454.651 352.633,419.309 432.629,354.657 491.296,269.318 496.625,174.668 "/>
<polygon style="fill:#9ED36A;" points="334.712,176.027 282.185,191.979 236.218,231.367 236.218,281.083 254.983,323.284 
	303.746,336.423 358.148,316.721 387.225,255.756 387.225,162.465 "/>
<polygon style="fill:#8AC054;" points="236.218,283.426 239.5,223.399 223.563,216.368 152.739,201.822 156.489,259.506 
	172.91,300.785 195.893,321.878 227.313,330.314 246.999,319.065 "/>
<path d="M422.972,48.566c-20.967-10.156-42.497-15.202-63.527-15.202c-38.388,0-75.073,16.795-103.462,49.981
	c-28.389-33.17-65.074-49.981-103.463-49.981c-21.029,0-42.56,5.046-63.527,15.202c-75.386,40.873-111.29,134.085-74.339,231.72
	c46.809,129.711,216.611,190.41,241.329,198.316c24.718-7.906,194.52-68.605,241.329-198.316
	C534.263,182.651,498.359,89.439,422.972,48.566z M329.556,242.382l-0.016-0.016c3.266-2.281,5.109-6.296,4.406-10.483
	c-0.984-5.797-6.469-9.718-12.28-8.75c-1.625,0.281-3.078,0.906-4.344,1.781l0,0c-1.297,0.906-32.029,22.655-56.652,63.574
	c-2.734,4.563-5.266,9.188-7.641,13.843c-6.5-8.655-10.702-18.89-12.124-29.904c-2.188-16.858,2.313-33.561,12.671-47.028
	c20.405-26.545,58.013-41.732,85.964-49.81c14.89-4.297,28.732-7.078,39.295-8.828c1,10.437,1.843,24.202,1.562,39.451
	c-0.546,29.342-5.515,69.948-26.076,96.666c-12.14,15.812-30.561,24.874-50.544,24.874c-12.358,0-24.186-3.516-34.482-10.188
	c2.75-5.859,5.828-11.64,9.234-17.358C300.761,262.913,329.275,242.585,329.556,242.382z M219.047,262.897
	c-4.125-4.766-6.891-7.875-7.155-8.156c-1.828-2.047-4.422-3.391-7.359-3.547c-5.891-0.344-10.921,4.156-11.249,10.047
	c-0.172,2.938,0.875,5.671,2.703,7.718c0.218,0.234,11.202,12.546,22.545,26.343c6.578,7.983,11.358,14.123,14.827,18.826
	c-5.094,1.969-10.546,3.016-16.155,3.016c-12.155,0-23.529-4.781-32.029-13.483c-13.655-13.983-23.201-37.778-27.576-68.809
	c-1.328-9.468-2-18.327-2.297-25.701c9.905,0.641,22.608,2.015,35.873,4.828c14.108,3.016,26.482,7.187,36.764,12.358
	C222.157,237.914,219.235,250.428,219.047,262.897z M490.562,208.041c-0.594,21.374-5.047,43.138-13.202,64.699l-0.047,0.156
	l-0.063,0.141c-9.749,26.998-26.357,52.95-49.372,77.151c-19.279,20.264-43.138,39.404-70.887,56.887
	c-39.888,25.14-77.854,40.561-96.321,47.326c-12.047-40.967-11.859-80.074,0.531-116.79c13.249,7.702,27.967,11.468,42.575,11.468
	c25.498,0,50.716-11.421,67.465-33.201c46.638-60.652,25.982-173.052,25.982-173.052s-108.946,8.531-157.381,65.637
	c-36.889-19.515-85.214-21.202-100.791-21.202c-3.25,0-5.063,0.078-5.063,0.078s-5.64,88.666,35.92,131.227
	c12.952,13.265,30.123,19.92,47.294,19.92c7.688,0,15.374-1.343,22.687-4.03c-3.172,10.077-5.578,20.343-7.141,30.764
	c-4.047,27.077-2.578,55.169,4.359,83.714c-20.452-8.266-50.7-22.046-82.136-41.857c-27.748-17.482-51.606-36.623-70.887-56.887
	c-23.014-24.201-39.638-50.153-49.371-77.151l-0.063-0.141l-0.047-0.156c-8.156-21.562-12.609-43.326-13.203-64.699
	c-0.578-20.218,2.281-39.748,8.5-58.043c6.031-17.78,15.062-33.936,26.842-48.028c11.718-14.015,25.843-25.608,41.982-34.42
	c17.764-8.531,35.856-12.858,53.793-12.858c16.14,0,31.717,3.531,46.31,10.484c15.155,7.218,28.937,17.999,40.936,32.045
	l16.22,18.948l16.202-18.952c12.015-14.046,25.795-24.827,40.951-32.045c14.592-6.953,30.17-10.484,46.309-10.484
	c17.938,0,36.029,4.328,53.794,12.858c16.14,8.812,30.265,20.405,41.981,34.42c11.781,14.093,20.812,30.248,26.843,48.028
	C488.281,168.293,491.14,187.823,490.562,208.041z"/>
<g>
</g>
<g>
</g>
<g>
</g>
<g>
</g>
<g>
</g>
<g>
</g>
<g>
</g>
<g>
</g>
<g>
</g>
<g>
</g>
<g>
</g>
<g>
</g>
<g>
</g>
<g>
</g>
<g>
</g>
</svg>
