<?xml version="1.0" encoding="iso-8859-1"?>
<!-- Generator: Adobe Illustrator 18.0.0, SVG Export Plug-In . SVG Version: 6.00 Build 0)  -->
<!DOCTYPE svg PUBLIC "-//W3C//DTD SVG 1.1//EN" "http://www.w3.org/Graphics/SVG/1.1/DTD/svg11.dtd">
<svg version="1.1" id="Capa_1" xmlns="http://www.w3.org/2000/svg" xmlns:xlink="http://www.w3.org/1999/xlink" x="0px" y="0px"
	 viewBox="0 0 353.51 353.51" style="enable-background:new 0 0 353.51 353.51;" xml:space="preserve">
<g>
	<path style="fill:#3F2D20;" d="M353.48,153.547c-0.644-13.086-6.342-25.785-17.068-37.874
		c-15.543-17.519-42.01-33.839-78.665-48.507c-32.252-12.908-66.812-19.73-99.94-19.73c-36.384,0-70.078,8.219-97.455,23.769
		c-2.079,1.068-17.439,9.289-32.158,26.101c-13.326,15.221-28.47,40.462-28.14,76.272c-0.043,0.325-0.064,52.759-0.049,52.947
		c2.471,32.792,18.863,57.871,46.157,70.617c12.881,6.015,27.777,8.933,42.946,8.933c23.251-0.001,47.142-6.858,65.388-19.934
		c47.977-34.382,83.53-44.732,118.884-34.612c23.203,6.645,42.251,5.405,56.614-3.686c12.467-7.891,20.579-21.305,23.46-38.792
		C353.521,208.645,353.525,153.876,353.48,153.547z M338.52,207.195c-1.588,9.095-5.761,21.105-16.567,27.945
		c-10.582,6.698-25.532,7.348-44.435,1.936c-21.145-6.056-42.34-5.67-64.8,1.17c-20.129,6.132-42.038,17.801-66.98,35.675
		c-26.007,18.639-65.211,22.677-93.215,9.598c-15.54-7.256-34.573-23.083-37.45-57.252c4.328,6.327,9.536,11.944,15.626,16.726
		c15.337,12.042,36.132,18.674,58.554,18.674c23.738,0,47.514-7.304,65.233-20.039c36.841-26.479,65.448-38.288,92.758-38.288
		c8.699,0,17.121,1.204,25.744,3.68c9.672,2.777,18.746,4.185,26.966,4.186c0.002,0,0,0,0,0c16.124,0,29.27-5.352,38.566-15.281
		V207.195z M67.265,84.555c0.126-0.063,23.298-14.207,51.461-18.49L15.445,181.412c-0.014-0.177-2.392-44.329,23.681-73.769
		C52.842,92.155,67.136,84.62,67.265,84.555z M322.814,123.126c12.2,12.662,17.387,25.752,15.214,38.974
		c-2.553,15.543-11.231,34.071-38.075,34.071c-6.816,0-14.492-1.213-22.816-3.603c-4.566-1.311-9.177-2.309-13.803-3.016
		L322.814,123.126z M244.233,188.347c-27.028,0.733-54.759,11.372-88.363,34.001L273.728,90.525
		c15.287,7.284,27.923,14.841,37.866,22.596L244.233,188.347z M117.505,242.701c-9.048,2.555-18.637,3.93-28.252,3.93
		c-10.148,0-20.625-1.614-30.396-5.212l155.683-172.17c12.732,3.002,25.351,6.964,37.621,11.874c2.445,0.978,4.82,1.964,7.165,2.955
		L117.505,242.701z M44.869,234.474c-11.513-7.445-20.914-18.642-25.893-34.467l122.6-136.922
		c5.334-0.394,10.743-0.615,16.232-0.615c13.036,0,26.314,1.139,39.578,3.335L44.869,234.474z"/>
	<g>
		<path style="fill:#CE593F;" d="M328.076,129.194c-0.354-0.455-0.699-0.91-1.071-1.363
			C327.377,128.284,327.723,128.739,328.076,129.194z"/>
		<path style="fill:#CE593F;" d="M325.883,126.517c-0.298-0.347-0.583-0.695-0.891-1.041
			C325.301,125.822,325.585,126.17,325.883,126.517z"/>
		<path style="fill:#CE593F;" d="M329.986,131.772c-0.371-0.529-0.739-1.058-1.134-1.586
			C329.247,130.713,329.615,131.242,329.986,131.772z"/>
		<path style="fill:#CE593F;" d="M337.789,149.148c-0.157-0.786-0.338-1.572-0.547-2.357
			C337.451,147.576,337.632,148.362,337.789,149.148z"/>
		<path style="fill:#CE593F;" d="M269.391,190.674c-2.015-0.425-4.033-0.812-6.056-1.122
			C265.358,189.862,267.377,190.251,269.391,190.674z"/>
		<path style="fill:#CE593F;" d="M331.665,134.296c-0.366-0.584-0.734-1.168-1.129-1.75
			C330.931,133.128,331.299,133.712,331.665,134.296z"/>
		<path style="fill:#CE593F;" d="M337.796,149.183c0.793,4.005,0.91,8.032,0.342,12.071c-1.34-9.518-6.479-18.924-15.324-28.104
			l-51.81,57.86c-0.097-0.022-0.195-0.039-0.293-0.061c2.149,0.478,4.293,1.008,6.426,1.62c8.324,2.39,15.999,3.603,22.816,3.603
			c26.844,0,35.522-18.528,38.075-34.071C338.74,157.777,338.648,153.468,337.796,149.183z"/>
		<path style="fill:#CE593F;" d="M337.215,146.699c-0.206-0.765-0.433-1.529-0.689-2.293
			C336.781,145.169,337.01,145.934,337.215,146.699z"/>
		<path style="fill:#CE593F;" d="M333.138,136.788c-0.348-0.627-0.701-1.253-1.082-1.878
			C332.438,135.535,332.791,136.162,333.138,136.788z"/>
		<path style="fill:#CE593F;" d="M336.467,144.241c-0.251-0.739-0.52-1.478-0.817-2.215
			C335.947,142.763,336.217,143.501,336.467,144.241z"/>
		<path style="fill:#CE593F;" d="M334.435,139.291c-0.323-0.671-0.657-1.342-1.018-2.011
			C333.778,137.949,334.112,138.62,334.435,139.291z"/>
		<path style="fill:#CE593F;" d="M335.541,141.769c-0.29-0.708-0.594-1.414-0.927-2.12
			C334.945,140.355,335.251,141.062,335.541,141.769z"/>
	</g>
	<path style="fill:#CE593F;" d="M118.726,66.065L104.16,82.332c-15.896,5.56-26.787,12.203-26.873,12.246
		c-0.129,0.065-14.422,7.6-28.139,23.088c-13.923,15.721-19.732,35.635-22.121,50.811L118.726,66.065z"/>
	<g>
		<path style="fill:#CE593F;" d="M85.865,291.065c0.733,0.025,1.463,0.062,2.198,0.071
			C87.328,291.127,86.598,291.089,85.865,291.065z"/>
		<path style="fill:#CE593F;" d="M58.892,286.099c-0.391-0.14-0.793-0.261-1.18-0.407C58.1,285.838,58.501,285.959,58.892,286.099z"
			/>
		<path style="fill:#CE593F;" d="M21.584,234.465c-0.795-0.875-1.565-1.772-2.317-2.684C20.02,232.692,20.788,233.59,21.584,234.465
			z"/>
		<path style="fill:#CE593F;" d="M23.047,236.023c0.718,0.745,1.455,1.472,2.205,2.189
			C24.502,237.496,23.763,236.769,23.047,236.023z"/>
		<path style="fill:#CE593F;" d="M15.534,226.274c1,1.457,2.055,2.866,3.146,4.245c-1.092-1.382-2.146-2.794-3.146-4.253
			C15.534,226.268,15.534,226.271,15.534,226.274z"/>
		<path style="fill:#CE593F;" d="M70.561,289.314c-0.684-0.137-1.369-0.273-2.047-0.425
			C69.192,289.042,69.876,289.177,70.561,289.314z"/>
		<path style="fill:#CE593F;" d="M300.077,210.329c0,0-0.06,0-0.061,0c-8.22,0-17.324-0.971-26.996-3.748
			c-8.623-2.476-17.06-3.461-25.76-3.461c-27.31,0-55.924,11.918-92.765,38.397c-17.718,12.735-41.498,20.094-65.236,20.094
			c-22.422,0-43.219-6.605-58.556-18.647c-1.317-1.034-2.574-2.111-3.809-3.222c0.161,0.145,0.31,0.308,0.473,0.452
			c6.149,24.709,21.93,37.141,35.181,43.328c9.556,4.463,20.416,6.93,31.611,7.507c18.477-0.878,37.08-6.717,51.581-17.109
			c24.942-17.874,46.852-29.542,66.98-35.675c22.46-6.84,43.655-7.225,64.8-1.17c18.903,5.412,34.36,4.762,44.942-1.936
			c10.806-6.84,13.074-18.849,17.074-27.944v-11.27C328.534,205.854,316.201,210.329,300.077,210.329z"/>
		<path style="fill:#CE593F;" d="M93.953,291.045c-0.615,0.028-1.228,0.023-1.843,0.04
			C92.724,291.068,93.337,291.073,93.953,291.045z"/>
		<path style="fill:#CE593F;" d="M64.796,287.951c-0.59-0.161-1.187-0.311-1.771-0.484C63.61,287.641,64.206,287.79,64.796,287.951z
			"/>
		<path style="fill:#CE593F;" d="M76.351,290.282c-0.735-0.098-1.467-0.206-2.197-0.321
			C74.884,290.076,75.615,290.184,76.351,290.282z"/>
		<path style="fill:#CE593F;" d="M82.188,290.884c-0.755-0.054-1.504-0.128-2.254-0.199
			C80.685,290.757,81.434,290.83,82.188,290.884z"/>
	</g>
	<g>
		<polygon style="fill:#CE593F;" points="141.575,63.084 18.975,200.006 18.976,200.007 		"/>
		<path style="fill:#CE593F;" d="M157.807,72.493c-5.489,0-10.898,0.22-16.232,0.615L21.655,207.038
			c5.319,12.156,13.497,21.152,23.214,27.436L189.392,74.645C178.796,73.232,168.223,72.493,157.807,72.493z"/>
		<path style="fill:#CE593F;" d="M21.375,206.435c-0.222-0.519-0.433-1.049-0.644-1.579
			C20.942,205.387,21.153,205.916,21.375,206.435z"/>
	</g>
	<path style="fill:#CE593F;" d="M252.781,91.398c-0.209-0.084-0.41-0.168-0.62-0.252c-12.27-4.91-24.889-8.872-37.621-11.874
		L65.913,243.64c-1.189-0.317-2.371-0.658-3.545-1.027c8.746,2.76,17.943,4.018,26.886,4.018c9.615,0,19.204-1.375,28.252-3.93
		L259.326,84.078L252.781,91.398z"/>
	<g>
		<path style="fill:#CE593F;" d="M161.585,218.587c-1.888,1.217-3.789,2.465-5.715,3.762
			C157.796,221.052,159.697,219.805,161.585,218.587z"/>
		<path style="fill:#CE593F;" d="M273.728,100.548l-97.7,109.278c-0.257,0.145-0.519,0.303-0.776,0.45
			c25.215-14.376,47.328-21.341,68.982-21.928l61.965-69.201C297.204,112.788,286.376,106.575,273.728,100.548z"/>
		<path style="fill:#CE593F;" d="M172.585,211.821c-0.97,0.568-1.944,1.146-2.923,1.735
			C170.642,212.966,171.615,212.389,172.585,211.821z"/>
		<path style="fill:#CE593F;" d="M167.136,215.091c-1.152,0.709-2.315,1.442-3.48,2.181
			C164.822,216.532,165.984,215.801,167.136,215.091z"/>
	</g>
</g>
<g>
</g>
<g>
</g>
<g>
</g>
<g>
</g>
<g>
</g>
<g>
</g>
<g>
</g>
<g>
</g>
<g>
</g>
<g>
</g>
<g>
</g>
<g>
</g>
<g>
</g>
<g>
</g>
<g>
</g>
</svg>
