<svg viewBox="0 0 353.51 353.51" xmlns="http://www.w3.org/2000/svg"><path d="m353.48 153.547c-.644-13.086-6.342-25.785-17.068-37.874-15.543-17.519-42.01-33.839-78.665-48.507-32.252-12.908-66.812-19.73-99.94-19.73-36.384 0-70.078 8.219-97.455 23.769-2.079 1.068-17.439 9.289-32.158 26.101-13.326 15.221-28.47 40.462-28.14 76.272-.043.325-.064 52.759-.049 52.947 2.471 32.792 18.863 57.871 46.157 70.617 12.881 6.015 27.777 8.933 42.946 8.933 23.251-.001 47.142-6.858 65.388-19.934 47.977-34.382 83.53-44.732 118.884-34.612 23.203 6.645 42.251 5.405 56.614-3.686 12.467-7.891 20.579-21.305 23.46-38.792.067-.406.071-55.175.026-55.504zm-14.96 53.648c-1.588 9.095-5.761 21.105-16.567 27.945-10.582 6.698-25.532 7.348-44.435 1.936-21.145-6.056-42.34-5.67-64.8 1.17-20.129 6.132-42.038 17.801-66.98 35.675-26.007 18.639-65.211 22.677-93.215 9.598-15.54-7.256-34.573-23.083-37.45-57.252 4.328 6.327 9.536 11.944 15.626 16.726 15.337 12.042 36.132 18.674 58.554 18.674 23.738 0 47.514-7.304 65.233-20.039 36.841-26.479 65.448-38.288 92.758-38.288 8.699 0 17.121 1.204 25.744 3.68 9.672 2.777 18.746 4.185 26.966 4.186 16.124 0 29.27-5.352 38.566-15.281zm-271.255-122.64c.126-.063 23.298-14.207 51.461-18.49l-103.281 115.347c-.014-.177-2.392-44.329 23.681-73.769 13.716-15.488 28.01-23.023 28.139-23.088zm255.549 38.571c12.2 12.662 17.387 25.752 15.214 38.974-2.553 15.543-11.231 34.071-38.075 34.071-6.816 0-14.492-1.213-22.816-3.603a110.48 110.48 0 0 0 -13.803-3.016zm-78.581 65.221c-27.028.733-54.759 11.372-88.363 34.001l117.858-131.823c15.287 7.284 27.923 14.841 37.866 22.596zm-126.728 54.354c-9.048 2.555-18.637 3.93-28.252 3.93-10.148 0-20.625-1.614-30.396-5.212l155.683-172.17a265.24 265.24 0 0 1 37.621 11.874c2.445.978 4.82 1.964 7.165 2.955zm-72.636-8.227c-11.513-7.445-20.914-18.642-25.893-34.467l122.6-136.922a220.174 220.174 0 0 1 16.232-.615c13.036 0 26.314 1.139 39.578 3.335z" fill="#3f2d20"/><g fill="#ce593f"><path d="m328.076 129.194c-.354-.455-.699-.91-1.071-1.363.372.453.718.908 1.071 1.363zm-2.193-2.677c-.298-.347-.583-.695-.891-1.041.309.346.593.694.891 1.041zm4.103 5.255c-.371-.529-.739-1.058-1.134-1.586.395.527.763 1.056 1.134 1.586zm7.81 17.411a35.96 35.96 0 0 1 .342 12.071c-1.34-9.518-6.479-18.924-15.324-28.104l-51.81 57.86c-.097-.022-.195-.039-.293-.061 2.149.478 4.293 1.008 6.426 1.62 8.324 2.39 15.999 3.603 22.816 3.603 26.844 0 35.522-18.528 38.075-34.071.712-4.324.62-8.633-.232-12.918zm-219.07-83.118-14.566 16.267c-15.896 5.56-26.787 12.203-26.873 12.246-.129.065-14.422 7.6-28.139 23.088-13.923 15.721-19.732 35.635-22.121 50.811zm-32.861 225c.733.025 1.463.062 2.198.071-.735-.009-1.465-.047-2.198-.071zm-26.973-4.966c-.391-.14-.793-.261-1.18-.407.388.146.789.267 1.18.407zm-43.358-59.825a77.86 77.86 0 0 0 3.146 4.245 77.918 77.918 0 0 1 -3.146-4.253zm55.027 63.04c-.684-.137-1.369-.273-2.047-.425.678.153 1.362.288 2.047.425zm229.516-78.985h-.061c-8.22 0-17.324-.971-26.996-3.748-8.623-2.476-17.06-3.461-25.76-3.461-27.31 0-55.924 11.918-92.765 38.397-17.718 12.735-41.498 20.094-65.236 20.094-22.422 0-43.219-6.605-58.556-18.647a74.266 74.266 0 0 1 -3.809-3.222c.161.145.31.308.473.452 6.149 24.709 21.93 37.141 35.181 43.328 9.556 4.463 20.416 6.93 31.611 7.507 18.477-.878 37.08-6.717 51.581-17.109 24.942-17.874 46.852-29.542 66.98-35.675 22.46-6.84 43.655-7.225 64.8-1.17 18.903 5.412 34.36 4.762 44.942-1.936 10.806-6.84 13.074-18.849 17.074-27.944v-11.27c-11.002 9.929-23.335 14.404-39.459 14.404zm-206.124 80.716c-.615.028-1.228.023-1.843.04.614-.017 1.227-.012 1.843-.04zm-29.157-3.094c-.59-.161-1.187-.311-1.771-.484.585.174 1.181.323 1.771.484zm17.392 2.933c-.755-.054-1.504-.128-2.254-.199.751.072 1.5.145 2.254.199zm59.387-227.8-122.6 136.922.001.001zm16.232 9.409c-5.489 0-10.898.22-16.232.615l-119.92 133.93c5.319 12.156 13.497 21.152 23.214 27.436l144.523-159.829c-10.596-1.413-21.169-2.152-31.585-2.152zm-136.432 133.942c-.222-.519-.433-1.049-.644-1.579.211.531.422 1.06.644 1.579z"/><path d="m252.781 91.398c-.209-.084-.41-.168-.62-.252a265.24 265.24 0 0 0 -37.621-11.874l-148.627 164.368a83.908 83.908 0 0 1 -3.545-1.027c8.746 2.76 17.943 4.018 26.886 4.018 9.615 0 19.204-1.375 28.252-3.93l141.82-158.623zm20.947 9.15-97.7 109.278c-.257.145-.519.303-.776.45 25.215-14.376 47.328-21.341 68.982-21.928l61.965-69.201c-8.995-6.359-19.823-12.572-32.471-18.599z"/></g></svg>