<svg viewBox="0 0 512 512" xmlns="http://www.w3.org/2000/svg"><path d="M372.016 104.096S326.224 73.48 256 73.48s-116.016 30.616-116.016 30.616L63.656 0v512h384.688V0z"/><path d="M139.224 356.384h233.6v96.4h-233.6z" fill="#fff"/><path d="M111.464 211.248l125.176 41.328s-29 48.984-71.744 39.8-53.432-81.128-53.432-81.128zm289.072 0L275.36 252.584s29 48.984 71.744 39.8 53.432-81.136 53.432-81.136z" fill="#e21b1b"/><path d="M189.088 420.68H326.48s-61.064-67.36-137.392 0z"/><path d="M139.224 356.384v41.664s110.04-48.112 233.56 0v-41.664z" opacity=".15"/><path d="M256 73.48c-70.224 0-116.016 30.616-116.016 30.616L63.656 0v512H256" fill="#fff" opacity=".15"/></svg>