<svg viewBox="0 0 324.557 324.557" xmlns="http://www.w3.org/2000/svg"><path d="M242.129 213.689v12.594h9.561z" fill="#ef8829"/><path d="M215.546 195.733h13v98h-13z" fill="#84bd93"/><path d="M130.152 232.143c-.459-.123-.836-.261-1.217-.399.38.139.758.277 1.217.399zm.673.149c.473.111.939.224 1.484.321-.544-.097-1.011-.209-1.484-.321zm-1.342-19.383l6.19 8.155c-1.927 5.273-2.883 8.961-3.304 11.558 3.12.552 7.39.877 12.814.969l-15.7-20.682c-2.899 7.927-3.625 12.311-3.599 14.725-.026-2.414.701-6.798 3.599-14.725zm-1.917 18.211c.269.158.534.318.881.461-.348-.143-.612-.303-.881-.461zm63.896-35.562l-19.3.541 22.155 28.476.878-24.721zm-35.634 2.108c-3.508 1.355-8.454 4.196-12.587 9.09l16.279 21.066c3.65-.836 7.916-1.089 12.942-1.089h4.661zM260 187.733h-17.87H260l6.166 8H247.72s-1.73-2.05-3.265-4.053l26.444 34.941c8.263.975 13.93 3.571 17.732 6.94 2.114-.017 4.068-.185 5.861-.266zm34.419 6.912c.363.316.725.683 1.088 1.03-.363-.347-.725-.714-1.088-1.03zm-15.046-6.611c-.298-.012-.5-.012-.5-.012l.001.001c.001 0 .191-.002.499.011zm19.143 10.907c.344.427.682.894 1.021 1.355-.34-.462-.677-.928-1.021-1.355zm-.984-1.146c-.351-.4-.7-.813-1.054-1.18.353.367.703.781 1.054 1.18zm-8.201-6.705c.376.207.748.404 1.133.64-.385-.235-.756-.433-1.133-.64zm-9.057-2.986c.167.017.363.045.557.071-.198-.027-.387-.053-.557-.071zm1.034.14c.214.034.449.079.686.125-.24-.046-.469-.09-.686-.125zm-1.814-.205c.123.007.289.022.446.035-.164-.014-.32-.028-.446-.035zm25.227 21.406c-.866-2.019-1.806-3.789-2.773-5.446-8.305-8.105-16.875-7.852-16.875-7.852l-6.046-7.922 30.562 40.263c.257-2.435.707-6.04-4.868-19.043zm-17.27-19.302c.35.159.7.315 1.062.498-.363-.183-.71-.339-1.062-.498z" fill="#ef8829"/><path d="M156.907 284.175c2.999 5.514 8.847 9.265 15.554 9.265-6.707 0-12.554-3.751-15.554-9.265zm26.064-44.442c-17.693 0-19.424 7.555-19.424 11.506v5.766c0 .086-.905.213-1.289.363.868-.339 1.741-.532 2.683-.532 1.976 0 3.883.802 5.286 2.196a7.557 7.557 0 0 1 2.191 5.322 7.574 7.574 0 0 1-2.211 5.312 7.569 7.569 0 0 1-5.316 2.205c-.944 0-1.767-.193-2.637-.535.386.151 1.293.28 1.293.366v4.046c0 9.755 8.244 18.369 18 18.369l14 .432v-54.818h-12.576zm1.04 43.745a7.548 7.548 0 0 1-5.313 2.205 7.571 7.571 0 0 1-5.321-2.205 7.594 7.594 0 0 1-2.197-5.312c0-1.985.803-3.919 2.197-5.323a7.6 7.6 0 0 1 5.321-2.194 7.58 7.58 0 0 1 5.313 2.194 7.57 7.57 0 0 1 2.204 5.323 7.564 7.564 0 0 1-2.204 5.312zm5.06-18.863a7.592 7.592 0 0 1-5.321 2.195 7.581 7.581 0 0 1-5.313-2.195 7.568 7.568 0 0 1-2.204-5.322 7.56 7.56 0 0 1 2.204-5.312 7.562 7.562 0 0 1 5.313-2.205 7.58 7.58 0 0 1 5.321 2.205 7.592 7.592 0 0 1 2.196 5.312 7.6 7.6 0 0 1-2.196 5.322zm91.68 11.134v-24.51c0-3.624-1.783-9.922-17.691-9.922h-20.931v52.123h20.931c9.755 0 17.691-7.936 17.691-17.691zm-15.436-16.716a7.601 7.601 0 0 1 5.323-2.196 7.56 7.56 0 0 1 5.313 2.196 7.575 7.575 0 0 1 2.204 5.322 7.571 7.571 0 0 1-2.204 5.312 7.566 7.566 0 0 1-5.313 2.205 7.59 7.59 0 0 1-5.323-2.205 7.601 7.601 0 0 1-2.195-5.312c0-1.986.803-3.92 2.195-5.322zm-21.058.26c0-1.975.793-3.909 2.195-5.312a7.566 7.566 0 0 1 5.323-2.205c1.975 0 3.909.801 5.313 2.205a7.597 7.597 0 0 1 2.195 5.312 7.607 7.607 0 0 1-2.195 5.322 7.593 7.593 0 0 1-5.313 2.195 7.587 7.587 0 0 1-5.323-2.195 7.564 7.564 0 0 1-2.195-5.322zm12.57 26.39a7.53 7.53 0 0 1-5.313-2.205 7.563 7.563 0 0 1-2.204-5.312 7.57 7.57 0 0 1 2.204-5.323 7.563 7.563 0 0 1 5.313-2.194c1.973 0 3.919.801 5.311 2.194a7.568 7.568 0 0 1 2.206 5.323 7.562 7.562 0 0 1-2.206 5.312 7.548 7.548 0 0 1-5.311 2.205z" fill="#fdd44b"/><path d="M170.2 259.033a7.594 7.594 0 0 0-5.313-2.196 7.6 7.6 0 0 0-5.322 2.196 7.6 7.6 0 0 0-2.195 5.322c0 1.974.802 3.909 2.195 5.312a7.57 7.57 0 0 0 5.322 2.205 7.566 7.566 0 0 0 5.313-2.205 7.567 7.567 0 0 0 2.204-5.312c0-1.986-.802-3.92-2.204-5.322zm3.177 24.445a7.567 7.567 0 0 0 5.321 2.205 7.548 7.548 0 0 0 5.313-2.205 7.563 7.563 0 0 0 2.204-5.312 7.57 7.57 0 0 0-2.204-5.323 7.58 7.58 0 0 0-5.313-2.194 7.6 7.6 0 0 0-5.321 2.194 7.602 7.602 0 0 0-2.197 5.323 7.6 7.6 0 0 0 2.197 5.312zm10.373-16.668a7.597 7.597 0 0 0 5.321-2.195 7.6 7.6 0 0 0 2.196-5.322 7.592 7.592 0 0 0-2.196-5.312 7.579 7.579 0 0 0-5.321-2.205 7.562 7.562 0 0 0-5.313 2.205 7.56 7.56 0 0 0-2.204 5.312c0 1.984.801 3.919 2.204 5.322a7.581 7.581 0 0 0 5.313 2.195zm86.888 5.061a7.566 7.566 0 0 0 5.313-2.205 7.571 7.571 0 0 0 2.204-5.312 7.575 7.575 0 0 0-2.204-5.322 7.56 7.56 0 0 0-5.313-2.196 7.601 7.601 0 0 0-5.323 2.196 7.605 7.605 0 0 0-2.195 5.322c0 1.974.803 3.909 2.195 5.312a7.583 7.583 0 0 0 5.323 2.205zm-8.5.972a7.576 7.576 0 0 0-5.311-2.194 7.563 7.563 0 0 0-5.313 2.194 7.57 7.57 0 0 0-2.204 5.323c0 1.974.801 3.908 2.204 5.312a7.53 7.53 0 0 0 5.313 2.205 7.544 7.544 0 0 0 5.311-2.205 7.56 7.56 0 0 0 2.206-5.312 7.573 7.573 0 0 0-2.206-5.323zm-5.051-8.228a7.607 7.607 0 0 0 2.195-5.322 7.6 7.6 0 0 0-2.195-5.312 7.56 7.56 0 0 0-5.313-2.205 7.567 7.567 0 0 0-5.323 2.205 7.555 7.555 0 0 0-2.195 5.312c0 1.984.793 3.919 2.195 5.322a7.583 7.583 0 0 0 5.323 2.195c1.976 0 3.91-.802 5.313-2.195z" fill="#3f2d20"/><path d="M318.708 203.93c-11.589-29.383-36.803-30.884-37.871-30.934a7.998 7.998 0 0 0-.347-.008H155.031a8.08 8.08 0 0 0-.348.008c-1.068.05-26.283 1.55-37.87 30.935-5.82 14.76-8.525 26.313-2.804 34.718 4.693 6.895 13.064 9.217 25.726 9.823-.08.932 0 27.278 0 27.278 0 18.045 14.681 32.725 32.726 32.725h90.599c18.045 0 32.725-14.68 32.725-32.725 0 0 .08-26.346 0-27.278 12.174 0 21.578-3.287 25.726-9.823 5.45-8.585 3.017-19.958-2.803-34.719zm-76.579 9.759l9.561 12.594h-9.561zm0 27.628h20.931c15.907 0 17.691 6.297 17.691 9.922v24.51c0 9.755-7.936 17.691-17.691 17.691h-20.931zm46.503-7.704c-3.802-3.369-9.469-5.913-17.732-6.889l-28.483-37.523c-.092-.12-.192-.229-.288-.341v-.839H260l34.492 45.443c-1.792.083-3.746.132-5.86.149zm-9.759-45.591s16.446-.509 25.848 21.423c5.575 13.003 5.125 16.608 4.868 19.043zM193.39 293.44h-20.928c-9.756 0-17.692-7.936-17.692-17.691v-24.51c0-3.951 0-9.922 17.692-9.922h20.928zm-66.953-63.25c-.669-.984-1.591-4.598 3.046-17.282l15.7 20.684c-11.022-.188-17.334-1.328-18.746-3.402zm23.147-40.726l27.538 36.819h-4.661c-5.025 0-9.309.47-12.959 1.306l-22.205-29.253c4.169-4.937 8.767-7.526 12.287-8.872zm43.806 9.221v24.247l-26.11-34.91h18.016zm33.705 94.755h-18.671V188.022h18.671z" fill="#3f2d20"/><path d="M211.4 80.009c.093.045.169.094.258.14-.088-.046-.164-.095-.258-.14zm2.725 2.004c.082.095.165.189.238.286-.074-.097-.156-.191-.238-.286zm1.031 1.653c.021.05.049.099.068.149-.019-.05-.047-.099-.068-.149zm.309.912c.026.101.043.202.065.303-.021-.101-.039-.202-.065-.303zm-.77-1.797c.055.089.118.177.167.268-.05-.09-.112-.178-.167-.268zm-5.03-3.451c.132.044.28.083.407.128-.127-.045-.275-.084-.407-.128zm2.835 1.295c.123.079.231.161.344.242-.113-.082-.221-.164-.344-.242zm3.083 5.955c-2.081-.311-4.478.153-7.51.153h-22.69c1.975 0 3.919.159 5.313 1.562 1.404 1.392 2.204 3.016 2.204 4.99 0 1.984-.801 3.758-2.204 5.151-1.394 1.404-3.328 2.125-5.313 2.125-1.983 0-3.919-.842-5.311-2.245a7.572 7.572 0 0 1-2.206-5.332c0-1.974.803-3.276 2.206-4.679 1.404-1.404 3.338-1.572 5.311-1.572H152.77c1.974 0 3.909.159 5.312 1.562s2.205 3.016 2.205 4.99-.802 3.758-2.205 5.151c-1.393 1.404-3.338 2.125-5.312 2.125-1.985 0-3.919-.842-5.322-2.245a7.608 7.608 0 0 1-2.195-5.332c0-1.974.802-3.286 2.195-4.679 1.403-1.404 3.348-1.572 5.322-1.572h-32.614c1.974 0 3.909.159 5.312 1.562s2.205 3.016 2.205 4.99-.802 3.758-2.205 5.151c-1.393 1.404-3.338 2.125-5.312 2.125-1.984 0-3.919-.842-5.312-2.245a7.575 7.575 0 0 1-2.205-5.332c0-1.974.802-3.286 2.205-4.679 1.393-1.404 3.328-1.572 5.312-1.572h-2.68c-17.692 0-18.929 4.685-18.929 8.635v24.51c0 3.474 1.638 6.705 3.376 9.438-3.659-1.064-6.522-2.936-8.79-5.878 3.236 4.218 8.621 7.295 14.337 7.295h90.599c9.755 0 17.478-8.619 17.478-18.374v-24.51c-.001-.6.098-.605.036-1.269zm-101.141 33.746a7.608 7.608 0 0 1-5.322 2.205 7.602 7.602 0 0 1-5.312-2.205 7.577 7.577 0 0 1-2.195-5.312 7.6 7.6 0 0 1 2.195-5.322 7.59 7.59 0 0 1 5.312-2.195c1.985 0 3.919.801 5.322 2.195a7.568 7.568 0 0 1 2.205 5.322 7.54 7.54 0 0 1-2.205 5.312zm29.607 0a7.6 7.6 0 0 1-5.311 2.205 7.606 7.606 0 0 1-5.322-2.205 7.597 7.597 0 0 1-2.195-5.312 7.6 7.6 0 0 1 2.195-5.322 7.598 7.598 0 0 1 5.322-2.195c1.974 0 3.909.801 5.311 2.195a7.568 7.568 0 0 1 2.206 5.322 7.56 7.56 0 0 1-2.206 5.312zm28.076 0a7.61 7.61 0 0 1-5.323 2.205 7.583 7.583 0 0 1-5.312-2.205 7.564 7.564 0 0 1-2.205-5.312c0-1.985.802-3.919 2.205-5.322a7.573 7.573 0 0 1 5.312-2.195c1.973 0 3.919.801 5.323 2.195 1.392 1.403 2.194 3.348 2.194 5.322s-.803 3.909-2.194 5.312zm29.596 0a7.569 7.569 0 0 1-5.313 2.205 7.582 7.582 0 0 1-5.311-2.205 7.56 7.56 0 0 1-2.206-5.312c0-1.985.802-3.919 2.206-5.322a7.594 7.594 0 0 1 5.311-2.195 7.56 7.56 0 0 1 5.313 2.195 7.562 7.562 0 0 1 2.204 5.322c0 1.974-.8 3.92-2.204 5.312zm-.743-42.335c.296.013.564.035.848.051-.285-.016-.553-.038-.848-.051zm2.574.175c.305.028.593.062.883.096-.289-.033-.578-.067-.883-.096zm4.287.662c.217.05.441.098.647.151-.205-.053-.43-.101-.647-.151z" fill="#fdd44b"/><path d="M42.614 78.125c-9.856 9.856-11.564 13.763-11.86 14.833.21.268 2.035 1.981 3.664 3.496 2.144-1.011 6.155-3.66 13.099-10.604 5.041-5.041 8.124-11.409 10.023-17.022-5.048 1.934-10.489 4.86-14.926 9.297zM31.479 54.182c5.073-1.444 10.6-1.449 15.3-1.449h.006c-4.701 0-10.231.003-15.306 1.448-13.407 3.814-15.933 6.578-17.933 7.368v-.046c2-.792 4.528-3.508 17.933-7.321zm4.971 2.074c-13.407 3.815-16.8 6.397-17.579 7.186.073.465 1.255 4.627 2.011 6.841.65-.028 1.361-.075 2.219-.175a173.062 173.062 0 0 1 4.266-4.409c4.692-4.693 10.059-8.106 15.313-10.609-2.068.209-4.157.575-6.23 1.166zM19.916 70.312c.103 0 .222-.005.331-.007-.109.003-.229.008-.331.007zm-1.789-.11c-.069-.009-.124-.021-.186-.031.063.011.117.022.186.031zm165.365-27.469h-21.741l11.114 24h21.742zm-48.397-10.69l5.321 10.689h-2.698c-.198 0-7.932.014-17.286 1.504l9.827 19.496h20.782zm96.74 18.854c.333.547.641 1.092.927 1.633-8.152-5.405-19.142-8.277-28.32-9.665l11.442 22.804c-.023-.009-.049-.016-.072-.024 4.472 1.696 7.7 4.065 9.976 6.806 3.195 2.185 5.186.944 6.431-.232 3.485-3.289 5.43-11.888-.384-21.322zM213.753 64.95c-.148-.046-.284-.099-.435-.143.151.044.286.097.435.143zM78.929 58.762c.411.39.908.734 1.442 1.059-.534-.325-1.031-.669-1.442-1.059zm22.083-11.634l-5.423-10.806-.001.001zm.633 1.263c-6.995 3.022-12.61 7.412-14.024 13.785 6.612 1.111 15.048.847 21.217.547z" fill="#ce593f"/><path d="M158.082 87.652a7.564 7.564 0 0 0-5.312-2.205 7.585 7.585 0 0 0-5.322 2.205 7.579 7.579 0 0 0-2.195 5.312c0 1.984.802 3.919 2.195 5.312a7.565 7.565 0 0 0 5.322 2.205 7.542 7.542 0 0 0 5.312-2.205 7.546 7.546 0 0 0 2.205-5.312 7.564 7.564 0 0 0-2.205-5.312zm-37.927-2.205a7.528 7.528 0 0 0-7.517 7.517 7.524 7.524 0 0 0 7.517 7.517 7.542 7.542 0 0 0 5.312-2.205 7.546 7.546 0 0 0 2.205-5.312 7.564 7.564 0 0 0-2.205-5.312 7.564 7.564 0 0 0-5.312-2.205zm72.745 7.517a7.545 7.545 0 0 0-2.204-5.312 7.548 7.548 0 0 0-5.313-2.205 7.565 7.565 0 0 0-5.311 2.205 7.56 7.56 0 0 0-2.206 5.312c0 1.984.802 3.919 2.206 5.312a7.522 7.522 0 0 0 5.311 2.205 7.526 7.526 0 0 0 7.517-7.517zm-54.162 14.533a7.598 7.598 0 0 0-5.322 2.195 7.6 7.6 0 0 0-2.195 5.322c0 1.974.802 3.909 2.195 5.312a7.608 7.608 0 0 0 5.322 2.205 7.602 7.602 0 0 0 5.312-2.205 7.564 7.564 0 0 0 2.205-5.312 7.568 7.568 0 0 0-2.205-5.322 7.597 7.597 0 0 0-5.312-2.195zm28.064 0a7.573 7.573 0 0 0-5.312 2.195 7.568 7.568 0 0 0-2.205 5.322c0 1.974.802 3.909 2.205 5.312a7.584 7.584 0 0 0 5.312 2.205 7.61 7.61 0 0 0 5.323-2.205 7.6 7.6 0 0 0 2.194-5.312 7.624 7.624 0 0 0-2.194-5.322 7.626 7.626 0 0 0-5.323-2.195zm-57.682 0a7.592 7.592 0 0 0-5.312 2.195 7.6 7.6 0 0 0-2.195 5.322c0 1.974.802 3.919 2.195 5.312a7.602 7.602 0 0 0 5.312 2.205 7.608 7.608 0 0 0 5.322-2.205 7.546 7.546 0 0 0 2.205-5.312 7.568 7.568 0 0 0-2.205-5.322 7.602 7.602 0 0 0-5.322-2.195zm94.805 7.517a7.567 7.567 0 0 0-2.204-5.322 7.56 7.56 0 0 0-5.313-2.195 7.594 7.594 0 0 0-5.311 2.195 7.568 7.568 0 0 0-2.206 5.322 7.56 7.56 0 0 0 2.206 5.312 7.582 7.582 0 0 0 5.311 2.205 7.569 7.569 0 0 0 5.313-2.205 7.545 7.545 0 0 0 2.204-5.312z" fill="#3f2d20"/><path d="M230.793 112.359v-23.72c4.213-.381 8.277-2.21 11.749-5.489 9.14-8.631 12.225-26.051.44-42.644-17.307-24.373-60.383-24.44-62.179-24.422h-52.98c-4.325 0-39.596.531-56.489 17.402-2.61 2.608-4.653 5.456-6.124 8.527-7.958-2.717-22.661-6.236-37.494-2.016C11.685 44.558 4.166 48.652.899 54.598-2.03 59.926 2.25 80.584 12.677 84.354c-1.126 2.535-1.649 4.87-1.636 7.149.035 6.081 14.675 20.607 21.37 20.607 7.082 0 14.779-4.675 25.734-15.629 7.368-7.368 11.62-16.404 14.066-24.043 1.74 1.077 3.64 1.961 5.659 2.677-2.349 4.012-3.131 8.522-3.131 12.734v24.51c0 18.045 14.681 32.726 32.726 32.726h90.599c18.049 0 32.729-14.681 32.729-32.726zm-141.016 0v-24.51c0-3.95 0-9.921 17.692-9.921h90.599c17.691 0 17.691 5.971 17.691 9.921v24.51c0 9.756-7.936 17.692-17.691 17.692h-90.599c-9.755-.001-17.692-7.937-17.692-17.692zm5.812-76.037l13.249 26.401c-9.635.469-24.824.867-29.908-3.961-.739-.702-1.496-1.725-1.496-3.984 0-9.374 8.293-15.036 18.155-18.456zm135.138 12.889c7.159 10.082 5.184 19.524 1.493 23.008-1.245 1.176-3.236 2.417-6.431.232-3.083-3.712-7.893-6.75-15.203-8.343l-15.98-31.846c12.657 1.915 28.787 6.624 36.121 16.949zm-62.865 13.683l-15.946-31.776h25.296l15.944 31.776zm-42.118 0l-15.148-30.185c9.355-1.49 17.089-1.59 17.287-1.59h7.211l15.945 31.776h-25.295zM26.137 91.162c.295-1.07 2.004-4.977 11.86-14.833 6.2-6.2 14.366-9.466 20.672-11.165-1.707 6.322-4.976 14.509-11.152 20.685-10.685 10.686-14.455 11.227-15.103 11.227 0 0-5.89-5.42-6.277-5.914zM16.82 69.841c-.398-.374-2.47-7.577-2.568-8.197.779-.79 4.172-3.372 17.58-7.186 5.075-1.445 10.252-1.611 14.953-1.171-6.489 2.576-13.494 6.487-19.419 12.412a176.472 176.472 0 0 0-4.266 4.41c-5.031.585-6.269-.259-6.28-.268z" fill="#3f2d20"/></svg>