<?xml version="1.0" encoding="iso-8859-1"?>
<!-- Generator: Adobe Illustrator 18.0.0, SVG Export Plug-In . SVG Version: 6.00 Build 0)  -->
<!DOCTYPE svg PUBLIC "-//W3C//DTD SVG 1.1//EN" "http://www.w3.org/Graphics/SVG/1.1/DTD/svg11.dtd">
<svg version="1.1" id="Capa_1" xmlns="http://www.w3.org/2000/svg" xmlns:xlink="http://www.w3.org/1999/xlink" x="0px" y="0px"
	 viewBox="0 0 324.557 324.557" style="enable-background:new 0 0 324.557 324.557;" xml:space="preserve">
<g>
	<polygon style="fill:#EF8829;" points="242.129,213.689 242.129,226.283 251.69,226.283 	"/>
	<rect x="215.546" y="195.733" style="fill:#84BD93;" width="13" height="98"/>
	<g>
		<path style="fill:#EF8829;" d="M130.152,232.143c-0.459-0.123-0.836-0.261-1.217-0.399
			C129.315,231.883,129.693,232.021,130.152,232.143z"/>
		<path style="fill:#EF8829;" d="M130.825,232.292c0.473,0.111,0.939,0.224,1.484,0.321
			C131.765,232.516,131.298,232.404,130.825,232.292z"/>
		<path style="fill:#EF8829;" d="M129.483,212.909l6.19,8.155c-1.927,5.273-2.883,8.961-3.304,11.558
			c3.12,0.552,7.39,0.877,12.814,0.969L129.483,212.909c-2.899,7.927-3.625,12.311-3.599,14.725
			C125.858,225.22,126.585,220.836,129.483,212.909z"/>
		<path style="fill:#EF8829;" d="M126.547,230.296c0.172,0.22,0.374,0.435,0.66,0.634
			C126.921,230.731,126.718,230.516,126.547,230.296z"/>
		<path style="fill:#EF8829;" d="M127.566,231.12c0.269,0.158,0.534,0.318,0.881,0.461
			C128.099,231.438,127.835,231.278,127.566,231.12z"/>
	</g>
	<polygon style="fill:#EF8829;" points="191.462,195.558 172.162,196.099 194.317,224.575 195.195,199.854 	"/>
	<path style="fill:#EF8829;" d="M155.828,197.666c-3.508,1.355-8.454,4.196-12.587,9.09l16.279,21.066
		c3.65-0.836,7.916-1.089,12.942-1.089h4.661L155.828,197.666z"/>
	<path style="fill:#EF8829;" d="M260,187.733H242.13l0,0H260l6.166,8h-18.446c0,0-1.73-2.05-3.265-4.053l26.444,34.941
		c8.263,0.975,13.93,3.571,17.732,6.94c2.114-0.017,4.068-0.185,5.861-0.266L260,187.733z"/>
	<g>
		<path style="fill:#EF8829;" d="M294.419,194.645c0.363,0.316,0.725,0.683,1.088,1.03
			C295.144,195.328,294.782,194.961,294.419,194.645z"/>
		<path style="fill:#EF8829;" d="M291.225,192.238c0.801,0.527,1.612,1.124,2.431,1.792
			C292.836,193.362,292.027,192.765,291.225,192.238z"/>
		<path style="fill:#EF8829;" d="M279.373,188.034c-0.298-0.012-0.5-0.012-0.5-0.012l0.001,0.001
			C278.875,188.023,279.065,188.021,279.373,188.034z"/>
		<path style="fill:#EF8829;" d="M298.516,198.941c0.344,0.427,0.682,0.894,1.021,1.355
			C299.197,199.834,298.86,199.368,298.516,198.941z"/>
		<path style="fill:#EF8829;" d="M297.532,197.795c-0.351-0.4-0.7-0.813-1.054-1.18
			C296.831,196.982,297.181,197.396,297.532,197.795z"/>
		<path style="fill:#EF8829;" d="M300.504,201.656c0.329,0.489,0.651,1.011,0.972,1.536
			C301.154,202.666,300.833,202.146,300.504,201.656z"/>
		<path style="fill:#EF8829;" d="M289.331,191.09c0.376,0.207,0.748,0.404,1.133,0.64
			C290.079,191.495,289.708,191.297,289.331,191.09z"/>
		<path style="fill:#EF8829;" d="M280.274,188.104c0.167,0.017,0.363,0.045,0.557,0.071
			C280.633,188.148,280.444,188.122,280.274,188.104z"/>
		<path style="fill:#EF8829;" d="M281.308,188.244c0.214,0.034,0.449,0.079,0.686,0.125
			C281.754,188.323,281.525,188.279,281.308,188.244z"/>
		<path style="fill:#EF8829;" d="M279.494,188.039c0.123,0.007,0.289,0.022,0.446,0.035
			C279.776,188.06,279.62,188.046,279.494,188.039z"/>
		<path style="fill:#EF8829;" d="M304.721,209.445c-0.866-2.019-1.806-3.789-2.773-5.446c-8.305-8.105-16.875-7.852-16.875-7.852
			l-6.046-7.922l30.562,40.263C309.846,226.053,310.296,222.448,304.721,209.445z"/>
		<path style="fill:#EF8829;" d="M284.041,188.87c0.29,0.084,0.588,0.176,0.895,0.278
			C284.626,189.045,284.333,188.954,284.041,188.87z"/>
		<path style="fill:#EF8829;" d="M285.677,189.412c0.323,0.118,0.647,0.24,0.984,0.379
			C286.323,189.651,286.001,189.531,285.677,189.412z"/>
		<path style="fill:#EF8829;" d="M282.571,188.489c0.256,0.056,0.524,0.123,0.8,0.194
			C283.092,188.612,282.828,188.546,282.571,188.489z"/>
		<path style="fill:#EF8829;" d="M287.451,190.143c0.35,0.159,0.7,0.315,1.062,0.498
			C288.15,190.458,287.803,190.302,287.451,190.143z"/>
	</g>
	<g>
		<path style="fill:#FDD44B;" d="M156.907,284.175c-0.546-1.002-0.997-2.064-1.342-3.171
			C155.911,282.111,156.362,283.172,156.907,284.175z"/>
		<path style="fill:#FDD44B;" d="M156.907,284.175c2.999,5.514,8.847,9.265,15.554,9.265
			C165.754,293.44,159.907,289.689,156.907,284.175z"/>
		<path style="fill:#FDD44B;" d="M160.585,258.203c-0.361,0.249-0.707,0.519-1.02,0.83
			C159.877,258.722,160.225,258.452,160.585,258.203z"/>
		<path style="fill:#FDD44B;" d="M159.565,269.666c0.314,0.314,0.662,0.587,1.024,0.838
			C160.227,270.252,159.879,269.98,159.565,269.666z"/>
		<path style="fill:#FDD44B;" d="M161.759,257.544c-0.285,0.129-0.559,0.275-0.826,0.439
			C161.199,257.819,161.475,257.674,161.759,257.544z"/>
		<path style="fill:#FDD44B;" d="M161.77,271.168c-0.29-0.132-0.572-0.281-0.843-0.45
			C161.198,270.886,161.479,271.035,161.77,271.168z"/>
		<path style="fill:#FDD44B;" d="M182.971,239.733c-17.693,0-19.424,7.555-19.424,11.506v5.766c0,0.086-0.905,0.213-1.289,0.363
			c0.868-0.339,1.741-0.532,2.683-0.532c1.976,0,3.883,0.802,5.286,2.196c1.402,1.403,2.191,3.336,2.191,5.322
			c0,1.974-0.809,3.909-2.211,5.312c-1.404,1.404-3.341,2.205-5.316,2.205c-0.944,0-1.767-0.193-2.637-0.535
			c0.386,0.151,1.293,0.28,1.293,0.366v4.046c0,9.755,8.244,18.369,18,18.369l14,0.432v-54.818H182.971z M184.011,283.478
			c-1.394,1.403-3.338,2.205-5.313,2.205c-1.983,0-3.919-0.803-5.321-2.205c-1.394-1.403-2.197-3.338-2.197-5.312
			c0-1.985,0.803-3.919,2.197-5.323c1.402-1.393,3.338-2.194,5.321-2.194c1.975,0,3.919,0.801,5.313,2.194
			c1.403,1.404,2.204,3.338,2.204,5.323C186.215,280.14,185.414,282.074,184.011,283.478z M189.071,264.615
			c-1.402,1.394-3.336,2.195-5.321,2.195c-1.975,0-3.919-0.802-5.313-2.195c-1.403-1.403-2.204-3.338-2.204-5.322
			c0-1.975,0.801-3.91,2.204-5.312c1.404-1.404,3.338-2.205,5.313-2.205c1.973,0,3.919,0.801,5.321,2.205
			c1.394,1.403,2.196,3.337,2.196,5.312C191.267,261.277,190.465,263.212,189.071,264.615z"/>
	</g>
	<path style="fill:#FDD44B;" d="M280.751,275.749v-24.51c0-3.624-1.783-9.922-17.691-9.922h-20.931v52.123h20.931
		C272.815,293.44,280.751,285.504,280.751,275.749z M265.315,259.033c1.404-1.394,3.338-2.196,5.323-2.196
		c1.985,0,3.919,0.802,5.313,2.196c1.401,1.403,2.204,3.337,2.204,5.322c0,1.974-0.803,3.909-2.204,5.312
		c-1.404,1.403-3.338,2.205-5.313,2.205c-1.975,0-3.919-0.802-5.323-2.205c-1.392-1.403-2.195-3.338-2.195-5.312
		C263.12,262.369,263.923,260.435,265.315,259.033z M244.257,259.293c0-1.975,0.793-3.909,2.195-5.312
		c1.403-1.404,3.338-2.205,5.323-2.205c1.975,0,3.909,0.801,5.313,2.205c1.392,1.402,2.195,3.337,2.195,5.312
		c0,1.984-0.803,3.919-2.195,5.322c-1.403,1.394-3.338,2.195-5.313,2.195c-1.985,0-3.929-0.802-5.323-2.195
		C245.05,263.212,244.257,261.277,244.257,259.293z M256.827,285.683c-1.985,0-3.919-0.802-5.313-2.205
		c-1.403-1.403-2.204-3.338-2.204-5.312c0-1.985,0.801-3.919,2.204-5.323c1.394-1.393,3.328-2.194,5.313-2.194
		c1.973,0,3.919,0.801,5.311,2.194c1.404,1.404,2.206,3.338,2.206,5.323c0,1.974-0.802,3.908-2.206,5.312
		C260.746,284.88,258.8,285.683,256.827,285.683z"/>
	<path style="fill:#3F2D20;" d="M170.2,259.033c-1.403-1.394-3.338-2.196-5.313-2.196c-1.984,0-3.919,0.802-5.322,2.196
		c-1.393,1.403-2.195,3.337-2.195,5.322c0,1.974,0.802,3.909,2.195,5.312c1.403,1.403,3.338,2.205,5.322,2.205
		c1.975,0,3.909-0.802,5.313-2.205c1.402-1.403,2.204-3.338,2.204-5.312C172.404,262.369,171.602,260.435,170.2,259.033z"/>
	<path style="fill:#3F2D20;" d="M173.377,283.478c1.402,1.403,3.338,2.205,5.321,2.205c1.975,0,3.919-0.802,5.313-2.205
		c1.403-1.403,2.204-3.338,2.204-5.312c0-1.985-0.801-3.919-2.204-5.323c-1.394-1.393-3.338-2.194-5.313-2.194
		c-1.983,0-3.919,0.801-5.321,2.194c-1.394,1.404-2.197,3.338-2.197,5.323C171.181,280.14,171.983,282.074,173.377,283.478z"/>
	<path style="fill:#3F2D20;" d="M183.75,266.81c1.985,0,3.919-0.802,5.321-2.195c1.394-1.403,2.196-3.338,2.196-5.322
		c0-1.975-0.802-3.909-2.196-5.312c-1.402-1.404-3.347-2.205-5.321-2.205c-1.975,0-3.909,0.801-5.313,2.205
		c-1.403,1.402-2.204,3.337-2.204,5.312c0,1.984,0.801,3.919,2.204,5.322C179.831,266.008,181.775,266.81,183.75,266.81z"/>
	<path style="fill:#3F2D20;" d="M270.638,271.871c1.975,0,3.909-0.802,5.313-2.205c1.401-1.403,2.204-3.338,2.204-5.312
		c0-1.985-0.803-3.919-2.204-5.322c-1.394-1.394-3.328-2.196-5.313-2.196c-1.985,0-3.919,0.802-5.323,2.196
		c-1.392,1.403-2.195,3.337-2.195,5.322c0,1.974,0.803,3.909,2.195,5.312C266.719,271.07,268.662,271.871,270.638,271.871z"/>
	<path style="fill:#3F2D20;" d="M262.138,272.843c-1.392-1.393-3.338-2.194-5.311-2.194c-1.985,0-3.919,0.801-5.313,2.194
		c-1.403,1.404-2.204,3.338-2.204,5.323c0,1.974,0.801,3.908,2.204,5.312c1.394,1.403,3.328,2.205,5.313,2.205
		c1.973,0,3.919-0.802,5.311-2.205c1.404-1.403,2.206-3.338,2.206-5.312C264.344,276.181,263.541,274.247,262.138,272.843z"/>
	<path style="fill:#3F2D20;" d="M257.087,264.615c1.392-1.403,2.195-3.338,2.195-5.322c0-1.975-0.803-3.909-2.195-5.312
		c-1.403-1.404-3.338-2.205-5.313-2.205c-1.985,0-3.919,0.801-5.323,2.205c-1.402,1.402-2.195,3.337-2.195,5.312
		c0,1.984,0.793,3.919,2.195,5.322c1.394,1.394,3.338,2.195,5.323,2.195C253.75,266.81,255.684,266.008,257.087,264.615z"/>
	<path style="fill:#3F2D20;" d="M318.708,203.93c-11.589-29.383-36.803-30.884-37.871-30.934c-0.115-0.005-0.231-0.008-0.347-0.008
		H155.031c-0.116,0-0.232,0.003-0.348,0.008c-1.068,0.05-26.283,1.55-37.87,30.935c-5.82,14.76-8.525,26.313-2.804,34.718
		c4.693,6.895,13.064,9.217,25.726,9.823c-0.08,0.932,0,27.278,0,27.278c0,18.045,14.681,32.725,32.726,32.725h90.599
		c18.045,0,32.725-14.68,32.725-32.725c0,0,0.08-26.346,0-27.278c12.174,0,21.578-3.287,25.726-9.823
		C326.961,230.064,324.528,218.691,318.708,203.93z M242.129,213.689l9.561,12.594h-9.561V213.689z M242.129,241.317h20.931
		c15.907,0,17.691,6.297,17.691,9.922v24.51c0,9.755-7.936,17.691-17.691,17.691h-20.931V241.317z M288.632,233.613
		c-3.802-3.369-9.469-5.913-17.732-6.889l-28.483-37.523c-0.092-0.12-0.192-0.229-0.288-0.341v-0.839H260l34.492,45.443
		C292.7,233.547,290.746,233.596,288.632,233.613z M278.873,188.022c0,0,16.446-0.509,25.848,21.423
		c5.575,13.003,5.125,16.608,4.868,19.043L278.873,188.022z M193.39,293.44h-20.928c-9.756,0-17.692-7.936-17.692-17.691v-24.51
		c0-3.951,0-9.922,17.692-9.922h20.928V293.44z M126.437,230.19c-0.669-0.984-1.591-4.598,3.046-17.282l15.7,20.684
		C134.161,233.404,127.849,232.264,126.437,230.19z M149.584,189.464l27.538,36.819h-4.661c-5.025,0-9.309,0.47-12.959,1.306
		l-22.205-29.253C141.466,193.399,146.064,190.81,149.584,189.464z M193.39,198.685v24.247l-26.11-34.91h18.016L193.39,198.685z
		 M227.095,293.44h-18.671V188.022h18.671V293.44z"/>
	<g>
		<path style="fill:#FDD44B;" d="M213.704,81.571c-0.097-0.093-0.196-0.186-0.302-0.276
			C213.507,81.385,213.607,81.478,213.704,81.571z"/>
		<path style="fill:#FDD44B;" d="M211.4,80.009c0.093,0.045,0.169,0.094,0.258,0.14C211.57,80.103,211.494,80.054,211.4,80.009z"/>
		<path style="fill:#FDD44B;" d="M214.125,82.013c0.082,0.095,0.165,0.189,0.238,0.286
			C214.289,82.202,214.207,82.108,214.125,82.013z"/>
		<path style="fill:#FDD44B;" d="M215.156,83.666c0.021,0.05,0.049,0.099,0.068,0.149C215.205,83.765,215.177,83.716,215.156,83.666
			z"/>
		<path style="fill:#FDD44B;" d="M215.465,84.578c0.026,0.101,0.043,0.202,0.065,0.303C215.509,84.78,215.491,84.679,215.465,84.578
			z"/>
		<path style="fill:#FDD44B;" d="M215.622,85.36c0.017,0.114,0.031,0.228,0.044,0.341C215.653,85.587,215.639,85.475,215.622,85.36z
			"/>
		<path style="fill:#FDD44B;" d="M214.695,82.781c0.055,0.089,0.118,0.177,0.167,0.268C214.812,82.959,214.75,82.871,214.695,82.781
			z"/>
		<path style="fill:#FDD44B;" d="M209.665,79.33c0.132,0.044,0.28,0.083,0.407,0.128C209.945,79.413,209.797,79.374,209.665,79.33z"
			/>
		<path style="fill:#FDD44B;" d="M212.5,80.625c0.123,0.079,0.231,0.161,0.344,0.242C212.731,80.785,212.623,80.703,212.5,80.625z"
			/>
		<path style="fill:#FDD44B;" d="M90.83,118.312c0.607,1.691,1.461,3.26,2.525,4.669C92.288,121.575,91.438,120.001,90.83,118.312z"
			/>
		<path style="fill:#FDD44B;" d="M90.074,115.504c0.152,0.842,0.361,1.661,0.628,2.457
			C90.434,117.166,90.226,116.345,90.074,115.504z"/>
		<path style="fill:#FDD44B;" d="M89.777,112.359c0,0.907,0.091,1.791,0.223,2.661C89.867,114.15,89.777,113.266,89.777,112.359z"/>
		<path style="fill:#FDD44B;" d="M215.583,86.58c-2.081-0.311-4.478,0.153-7.51,0.153h-22.69c1.975,0,3.919,0.159,5.313,1.562
			c1.404,1.392,2.204,3.016,2.204,4.99c0,1.984-0.801,3.758-2.204,5.151c-1.394,1.404-3.328,2.125-5.313,2.125
			c-1.983,0-3.919-0.842-5.311-2.245c-1.404-1.393-2.206-3.348-2.206-5.332c0-1.974,0.803-3.276,2.206-4.679
			c1.404-1.404,3.338-1.572,5.311-1.572H152.77c1.974,0,3.909,0.159,5.312,1.562c1.403,1.403,2.205,3.016,2.205,4.99
			c0,1.974-0.802,3.758-2.205,5.151c-1.393,1.404-3.338,2.125-5.312,2.125c-1.985,0-3.919-0.842-5.322-2.245
			c-1.393-1.393-2.195-3.348-2.195-5.332c0-1.974,0.802-3.286,2.195-4.679c1.403-1.404,3.348-1.572,5.322-1.572h-32.614
			c1.974,0,3.909,0.159,5.312,1.562c1.403,1.403,2.205,3.016,2.205,4.99c0,1.974-0.802,3.758-2.205,5.151
			c-1.393,1.404-3.338,2.125-5.312,2.125c-1.984,0-3.919-0.842-5.312-2.245c-1.403-1.393-2.205-3.348-2.205-5.332
			c0-1.974,0.802-3.286,2.205-4.679c1.393-1.404,3.328-1.572,5.312-1.572h-2.68c-17.692,0-18.929,4.685-18.929,8.635v24.51
			c0,3.474,1.638,6.705,3.376,9.438c-3.659-1.064-6.522-2.936-8.79-5.878c3.236,4.218,8.621,7.295,14.337,7.295h90.599
			c9.755,0,17.478-8.619,17.478-18.374v-24.51C215.546,87.249,215.645,87.244,215.583,86.58z M114.442,120.326
			c-1.403,1.394-3.338,2.205-5.322,2.205c-1.974,0-3.909-0.811-5.312-2.205c-1.393-1.392-2.195-3.338-2.195-5.312
			c0-1.985,0.802-3.919,2.195-5.322c1.403-1.394,3.337-2.195,5.312-2.195c1.985,0,3.919,0.801,5.322,2.195
			c1.403,1.403,2.205,3.337,2.205,5.322C116.648,116.988,115.845,118.934,114.442,120.326z M144.049,120.326
			c-1.403,1.394-3.337,2.205-5.311,2.205c-1.985,0-3.919-0.811-5.322-2.205c-1.393-1.403-2.195-3.338-2.195-5.312
			c0-1.985,0.802-3.919,2.195-5.322c1.403-1.394,3.338-2.195,5.322-2.195c1.974,0,3.909,0.801,5.311,2.195
			c1.403,1.403,2.206,3.337,2.206,5.322C146.255,116.988,145.453,118.923,144.049,120.326z M172.125,120.326
			c-1.404,1.394-3.338,2.205-5.323,2.205c-1.975,0-3.919-0.811-5.312-2.205c-1.403-1.403-2.205-3.338-2.205-5.312
			c0-1.985,0.802-3.919,2.205-5.322c1.393-1.394,3.337-2.195,5.312-2.195c1.973,0,3.919,0.801,5.323,2.195
			c1.392,1.403,2.194,3.348,2.194,5.322S173.516,118.923,172.125,120.326z M201.721,120.326c-1.394,1.394-3.328,2.205-5.313,2.205
			c-1.973,0-3.919-0.811-5.311-2.205c-1.404-1.403-2.206-3.338-2.206-5.312c0-1.985,0.802-3.919,2.206-5.322
			c1.404-1.394,3.338-2.195,5.311-2.195c1.985,0,3.919,0.801,5.313,2.195c1.404,1.403,2.204,3.337,2.204,5.322
			C203.925,116.988,203.125,118.934,201.721,120.326z"/>
		<path style="fill:#FDD44B;" d="M200.978,77.991c0.296,0.013,0.564,0.035,0.848,0.051
			C201.541,78.026,201.273,78.004,200.978,77.991z"/>
		<path style="fill:#FDD44B;" d="M205.832,78.447c0.269,0.041,0.534,0.084,0.788,0.13C206.366,78.531,206.101,78.488,205.832,78.447
			z"/>
		<path style="fill:#FDD44B;" d="M203.552,78.166c0.305,0.028,0.593,0.062,0.883,0.096
			C204.146,78.229,203.857,78.195,203.552,78.166z"/>
		<path style="fill:#FDD44B;" d="M207.839,78.828c0.217,0.05,0.441,0.098,0.647,0.151C208.281,78.926,208.056,78.878,207.839,78.828
			z"/>
	</g>
	<g>
		<path style="fill:#CE593F;" d="M33.014,96.983c-0.12,0.03-0.225,0.051-0.312,0.065C32.789,97.035,32.893,97.013,33.014,96.983z"/>
		<path style="fill:#CE593F;" d="M33.614,96.797c-0.201,0.074-0.378,0.13-0.529,0.17C33.237,96.926,33.412,96.871,33.614,96.797z"/>
		<path style="fill:#CE593F;" d="M32.627,97.059c-0.087,0.01-0.163,0.017-0.212,0.017C32.464,97.076,32.539,97.07,32.627,97.059z"/>
		<path style="fill:#CE593F;" d="M57.686,68.398c0.367-1.112,0.705-2.204,0.983-3.234C58.391,66.194,58.054,67.288,57.686,68.398z"
			/>
		<path style="fill:#CE593F;" d="M42.614,78.125c-9.856,9.856-11.564,13.763-11.86,14.833c0.21,0.268,2.035,1.981,3.664,3.496
			c2.144-1.011,6.155-3.66,13.099-10.604c5.041-5.041,8.124-11.409,10.023-17.022C52.492,70.762,47.051,73.688,42.614,78.125z"/>
		<path style="fill:#CE593F;" d="M34.319,96.5c-0.216,0.1-0.415,0.185-0.592,0.252C33.904,96.685,34.102,96.6,34.319,96.5z"/>
	</g>
	<g>
		<path style="fill:#CE593F;" d="M17.137,69.98c-0.021-0.007-0.044-0.015-0.062-0.022C17.094,69.966,17.115,69.973,17.137,69.98z"/>
		<path style="fill:#CE593F;" d="M31.479,54.182c5.073-1.444,10.6-1.449,15.3-1.449c0.002,0,0.004,0,0.006,0
			c-4.701,0-10.231,0.003-15.306,1.448c-13.407,3.814-15.933,6.578-17.933,7.368c0,0,0-0.046,0-0.046
			C15.546,60.711,18.074,57.995,31.479,54.182z"/>
		<path style="fill:#CE593F;" d="M17.547,70.095c-0.049-0.011-0.094-0.023-0.138-0.035C17.454,70.073,17.496,70.084,17.547,70.095z"
			/>
		<path style="fill:#CE593F;" d="M36.45,56.256c-13.407,3.815-16.8,6.397-17.579,7.186c0.073,0.465,1.255,4.627,2.011,6.841
			c0.65-0.028,1.361-0.075,2.219-0.175c1.304-1.399,2.719-2.863,4.266-4.409c4.692-4.693,10.059-8.106,15.313-10.609
			C40.612,55.299,38.523,55.665,36.45,56.256z"/>
		<path style="fill:#CE593F;" d="M19.916,70.312c0.103,0,0.222-0.005,0.331-0.007C20.138,70.308,20.018,70.313,19.916,70.312z"/>
		<path style="fill:#CE593F;" d="M18.127,70.202c-0.069-0.009-0.124-0.021-0.186-0.031C18.004,70.182,18.058,70.193,18.127,70.202z"
			/>
	</g>
	<polygon style="fill:#CE593F;" points="183.492,42.733 161.751,42.733 172.865,66.733 194.607,66.733 	"/>
	<path style="fill:#CE593F;" d="M135.095,32.043l5.321,10.689h-2.698c-0.198,0-7.932,0.014-17.286,1.504l9.827,19.496h20.782
		L135.095,32.043z"/>
	<g>
		<path style="fill:#CE593F;" d="M231.835,50.897c0.333,0.547,0.641,1.092,0.927,1.633c-8.152-5.405-19.142-8.277-28.32-9.665
			l11.442,22.804c-0.023-0.009-0.049-0.016-0.072-0.024c4.472,1.696,7.7,4.065,9.976,6.806c3.195,2.185,5.186,0.944,6.431-0.232
			C235.704,68.93,237.649,60.331,231.835,50.897z"/>
		<path style="fill:#CE593F;" d="M213.753,64.95c-0.148-0.046-0.284-0.099-0.435-0.143C213.469,64.851,213.604,64.904,213.753,64.95
			z"/>
	</g>
	<g>
		<path style="fill:#CE593F;" d="M78.929,58.762c0.411,0.39,0.908,0.734,1.442,1.059C79.837,59.496,79.34,59.152,78.929,58.762z"/>
		<polygon style="fill:#CE593F;" points="101.012,47.128 95.589,36.322 95.588,36.323 		"/>
		<path style="fill:#CE593F;" d="M80.8,60.065c0.494,0.27,1.023,0.521,1.596,0.746C81.823,60.586,81.294,60.335,80.8,60.065z"/>
		<path style="fill:#CE593F;" d="M84.796,61.581c-0.762-0.198-1.489-0.419-2.163-0.671C83.306,61.163,84.034,61.383,84.796,61.581z"
			/>
		<path style="fill:#CE593F;" d="M101.645,48.391c-6.995,3.022-12.61,7.412-14.024,13.785c6.612,1.111,15.048,0.847,21.217,0.547
			L101.645,48.391z"/>
		<path style="fill:#CE593F;" d="M87.388,62.134c-0.735-0.128-1.444-0.276-2.126-0.44C85.945,61.858,86.653,62.006,87.388,62.134z"
			/>
	</g>
	<path style="fill:#3F2D20;" d="M158.082,87.652c-1.403-1.403-3.338-2.205-5.312-2.205c-1.975,0-3.919,0.802-5.322,2.205
		c-1.393,1.393-2.195,3.338-2.195,5.312c0,1.984,0.802,3.919,2.195,5.312c1.403,1.404,3.338,2.205,5.322,2.205
		c1.974,0,3.919-0.801,5.312-2.205c1.403-1.393,2.205-3.338,2.205-5.312C160.287,90.99,159.485,89.055,158.082,87.652z"/>
	<path style="fill:#3F2D20;" d="M120.155,85.447c-1.984,0-3.919,0.802-5.312,2.205c-1.403,1.393-2.205,3.338-2.205,5.312
		c0,1.984,0.801,3.919,2.205,5.312c1.393,1.404,3.328,2.205,5.312,2.205c1.974,0,3.919-0.801,5.312-2.205
		c1.403-1.393,2.205-3.338,2.205-5.312c0-1.974-0.802-3.909-2.205-5.312C124.064,86.249,122.129,85.447,120.155,85.447z"/>
	<path style="fill:#3F2D20;" d="M192.9,92.964c0-1.974-0.801-3.919-2.204-5.312c-1.394-1.403-3.338-2.205-5.313-2.205
		c-1.973,0-3.907,0.802-5.311,2.205c-1.404,1.403-2.206,3.338-2.206,5.312c0,1.984,0.802,3.919,2.206,5.312
		c1.392,1.404,3.328,2.205,5.311,2.205c1.985,0,3.919-0.801,5.313-2.205C192.099,96.883,192.9,94.948,192.9,92.964z"/>
	<path style="fill:#3F2D20;" d="M138.738,107.497c-1.984,0-3.919,0.801-5.322,2.195c-1.393,1.403-2.195,3.337-2.195,5.322
		c0,1.974,0.802,3.909,2.195,5.312c1.403,1.394,3.338,2.205,5.322,2.205c1.974,0,3.909-0.811,5.312-2.205
		c1.403-1.403,2.205-3.338,2.205-5.312c0-1.985-0.802-3.919-2.205-5.322C142.647,108.299,140.712,107.497,138.738,107.497z"/>
	<path style="fill:#3F2D20;" d="M166.802,107.497c-1.975,0-3.919,0.801-5.312,2.195c-1.403,1.403-2.205,3.337-2.205,5.322
		c0,1.974,0.802,3.909,2.205,5.312c1.393,1.394,3.338,2.205,5.312,2.205c1.985,0,3.919-0.811,5.323-2.205
		c1.392-1.403,2.194-3.338,2.194-5.312c0-1.974-0.802-3.919-2.194-5.322C170.721,108.299,168.775,107.497,166.802,107.497z"/>
	<path style="fill:#3F2D20;" d="M109.12,107.497c-1.974,0-3.909,0.801-5.312,2.195c-1.393,1.403-2.195,3.337-2.195,5.322
		c0,1.974,0.802,3.919,2.195,5.312c1.403,1.394,3.338,2.205,5.312,2.205c1.984,0,3.919-0.811,5.322-2.205
		c1.403-1.393,2.205-3.338,2.205-5.312c0-1.985-0.802-3.919-2.205-5.322C113.039,108.299,111.104,107.497,109.12,107.497z"/>
	<path style="fill:#3F2D20;" d="M203.925,115.014c0-1.985-0.801-3.919-2.204-5.322c-1.394-1.394-3.328-2.195-5.313-2.195
		c-1.973,0-3.907,0.801-5.311,2.195c-1.403,1.403-2.206,3.337-2.206,5.322c0,1.974,0.802,3.909,2.206,5.312
		c1.392,1.394,3.338,2.205,5.311,2.205c1.985,0,3.919-0.811,5.313-2.205C203.124,118.933,203.925,116.988,203.925,115.014z"/>
	<path style="fill:#3F2D20;" d="M230.793,112.359v-23.72c4.213-0.381,8.277-2.21,11.749-5.489c9.14-8.631,12.225-26.051,0.44-42.644
		c-17.307-24.373-60.383-24.44-62.179-24.422h-52.911c-0.023,0-0.045,0-0.069,0c-4.325,0-39.596,0.531-56.489,17.402
		c-2.61,2.608-4.653,5.456-6.124,8.527c-7.958-2.717-22.661-6.236-37.494-2.016c-16.031,4.561-23.55,8.655-26.817,14.601
		c-2.929,5.328,1.351,25.986,11.778,29.756c-1.126,2.535-1.649,4.87-1.636,7.149c0.035,6.081,14.675,20.607,21.37,20.607
		c7.082,0,14.779-4.675,25.734-15.629c7.368-7.368,11.62-16.404,14.066-24.043c1.74,1.077,3.64,1.961,5.659,2.677
		c-2.349,4.012-3.131,8.522-3.131,12.734v24.51c0,18.045,14.681,32.726,32.726,32.726h90.599
		C216.113,145.085,230.793,130.404,230.793,112.359z M89.777,112.359v-24.51c0-3.95,0-9.921,17.692-9.921h90.599
		c17.691,0,17.691,5.971,17.691,9.921v24.51c0,9.756-7.936,17.692-17.691,17.692h-90.599
		C97.714,130.05,89.777,122.114,89.777,112.359z M95.589,36.322l13.249,26.401c-9.635,0.469-24.824,0.867-29.908-3.961
		c-0.739-0.702-1.496-1.725-1.496-3.984C77.434,45.404,85.727,39.742,95.589,36.322z M230.727,49.211
		c7.159,10.082,5.184,19.524,1.493,23.008c-1.245,1.176-3.236,2.417-6.431,0.232c-3.083-3.712-7.893-6.75-15.203-8.343
		l-15.98-31.846C207.263,34.177,223.393,38.886,230.727,49.211z M167.862,62.894l-15.946-31.776h25.296l15.944,31.776H167.862z
		 M125.744,62.894l-15.148-30.185c9.355-1.49,17.089-1.59,17.287-1.59h7.211l15.945,31.776H125.744z M26.137,91.162
		c0.295-1.07,2.004-4.977,11.86-14.833c6.2-6.2,14.366-9.466,20.672-11.165c-1.707,6.322-4.976,14.509-11.152,20.685
		C36.832,96.535,33.062,97.076,32.414,97.076C32.414,97.076,26.524,91.656,26.137,91.162z M16.82,69.841
		c-0.398-0.374-2.47-7.577-2.568-8.197c0.779-0.79,4.172-3.372,17.58-7.186c5.075-1.445,10.252-1.611,14.953-1.171
		c-6.489,2.576-13.494,6.487-19.419,12.412c-1.546,1.547-2.962,3.011-4.266,4.41C18.069,70.694,16.831,69.85,16.82,69.841z"/>
</g>
<g>
</g>
<g>
</g>
<g>
</g>
<g>
</g>
<g>
</g>
<g>
</g>
<g>
</g>
<g>
</g>
<g>
</g>
<g>
</g>
<g>
</g>
<g>
</g>
<g>
</g>
<g>
</g>
<g>
</g>
</svg>
