<svg viewBox="0 0 512 512" xmlns="http://www.w3.org/2000/svg"><path d="M119.462 59.733c-25.071 20.335-43.17 64.734-55.467 128-14.575 74.982-21.333 142.746-21.333 219.136v96.597h273.067v-96.597c0-76.39 6.758-144.154 21.333-219.136 12.297-63.266 30.396-107.665 55.467-128H119.462z" fill="#e7eced"/><path d="M447.995 187.733c-12.297-63.266-30.396-107.665-55.467-128-25.071 20.335-43.17 64.734-55.467 128-14.575 74.982-21.333 142.746-21.333 219.136v96.597h153.6v-96.597c.001-76.39-6.758-144.153-21.333-219.136z" fill="#afb6bb"/><path d="M469.329 503.467h-153.6l76.8-68.267zM401.062 8.533c14.14 0 25.6 11.46 25.6 25.6v25.6h-42.667v-51.2z" fill="#7f95a3"/><path d="M162.129 8.533h-17.067c-14.14 0-25.6 11.46-25.6 25.6v25.6h273.067v-51.2z" fill="#afb6bb"/><path d="M254.186 294.63c-3.251-12.902-10.53-23.799-20.318-31.863l-3.866-2.935c-15.744-11.085-36.779-15.437-57.813-10.103-36.702 9.301-59.503 44.476-50.918 78.566s45.295 54.195 81.997 44.894 59.503-44.468 50.918-78.559z" fill="#dc691d"/><path d="M187.729 247.467c0-28.279 22.921-51.2 51.2-51.2 0 28.279-22.921 51.2-51.2 51.2z" fill="#23a24d"/><path d="M392.529 443.733a8.53 8.53 0 0 0 8.533-8.533V67.908c-2.756-3.038-5.589-5.786-8.533-8.175-2.944 2.389-5.777 5.137-8.533 8.175V435.2a8.53 8.53 0 0 0 8.533 8.533z" fill="#7f95a3"/><g fill="#4d007e"><path d="M469.329 512h-153.6a8.546 8.546 0 0 1-7.979-5.504 8.537 8.537 0 0 1 2.313-9.412l76.8-68.267a8.514 8.514 0 0 1 11.341 0l76.8 68.267a8.55 8.55 0 0 1 2.313 9.412 8.568 8.568 0 0 1-7.988 5.504zm-131.158-17.067h108.715l-54.357-48.316z"/><path d="M315.729 512H42.662a8.53 8.53 0 0 1-8.533-8.533V406.87c0-76.237 6.63-144.324 21.487-220.757 13.295-68.378 32.418-111.881 58.47-133.001a8.521 8.521 0 0 1 5.376-1.911h273.067a8.54 8.54 0 0 1 8.047 5.683 8.526 8.526 0 0 1-2.671 9.472c-22.485 18.244-40.141 59.622-52.463 122.999-14.652 75.332-21.18 142.413-21.18 217.515v96.597a8.53 8.53 0 0 1-8.533 8.533zM51.195 494.933h256v-88.064c0-76.237 6.63-144.324 21.487-220.757 10.667-54.869 25.088-93.713 43.827-117.845H122.602c-21.427 19.123-38.315 59.836-50.227 121.088-14.652 75.332-21.18 142.413-21.18 217.515z"/><path d="M469.329 512h-153.6a8.53 8.53 0 0 1-8.533-8.533V406.87c0-76.237 6.63-144.324 21.487-220.757 13.295-68.378 32.418-111.872 58.47-133.001a8.51 8.51 0 0 1 10.752 0c26.052 21.129 45.175 64.623 58.47 133.001 14.857 76.433 21.487 144.521 21.487 220.757v96.597a8.53 8.53 0 0 1-8.533 8.533zm-145.067-17.067h136.533v-88.064c0-75.102-6.528-142.182-21.18-217.506-11.324-58.249-27.145-97.903-47.087-118.11-19.942 20.207-35.763 59.87-47.087 118.11-14.652 75.324-21.18 142.404-21.18 217.506z"/><path d="M426.662 68.267h-34.133a8.53 8.53 0 0 1-8.533-8.533v-51.2a8.53 8.53 0 0 1 8.533-8.533h8.533c18.825 0 34.133 15.309 34.133 34.133v25.6a8.531 8.531 0 0 1-8.533 8.533zm-25.6-17.067h17.067V34.133c0-9.412-7.654-17.067-17.067-17.067z"/><path d="M392.529 68.267H119.462a8.53 8.53 0 0 1-8.533-8.533v-25.6C110.929 15.309 126.237 0 145.062 0h247.467a8.53 8.53 0 0 1 8.533 8.533v51.2a8.531 8.531 0 0 1-8.533 8.534zM127.995 51.2h256V17.067H145.062c-9.412 0-17.067 7.654-17.067 17.067z"/><path d="M392.529 443.733a8.53 8.53 0 0 1-8.533-8.533V59.733c0-4.719 3.823-8.533 8.533-8.533s8.533 3.814 8.533 8.533V435.2a8.53 8.53 0 0 1-8.533 8.533zM187.729 384c-4.71 0-8.533-3.814-8.533-8.533s3.823-8.533 8.533-8.533c8.243 0 17.604-9.25 23.313-23.006 6.417-15.488 7.748-36.267-3.746-47.761a8.523 8.523 0 0 1 0-12.066 8.523 8.523 0 0 1 12.066 0c18.227 18.236 15.403 47.138 7.441 66.355C218.235 371.149 203.259 384 187.729 384z"/><path d="M185.322 383.966c-14.182 0-28.143-3.695-40.115-10.846-16.282-9.728-27.725-24.9-32.213-42.743-9.719-38.588 15.898-78.481 57.097-88.926 22.733-5.734 46.362-1.604 64.828 11.401l4.122 3.123c11.819 9.737 19.831 22.298 23.424 36.565 9.711 38.588-15.906 78.481-57.105 88.926a81.725 81.725 0 0 1-20.038 2.5zm5.026-127.975c-5.325 0-10.718.657-16.068 2.014-32.085 8.124-52.164 38.724-44.74 68.207 3.379 13.414 12.049 24.875 24.414 32.247 13.773 8.226 30.967 10.59 47.215 6.46 32.085-8.124 52.164-38.724 44.74-68.207-2.697-10.701-8.738-20.164-17.468-27.358l-3.61-2.731c-9.907-6.971-21.981-10.632-34.483-10.632z"/><path d="M187.729 256a8.53 8.53 0 0 1-8.533-8.533c0-32.93 26.795-59.733 59.733-59.733a8.53 8.53 0 0 1 8.533 8.533c0 32.93-26.795 59.733-59.733 59.733zm41.574-50.108c-15.812 3.669-28.279 16.137-31.94 31.949 15.803-3.669 28.279-16.136 31.94-31.949z"/></g></svg>