<svg viewBox="0 0 511 511.99963" xmlns="http://www.w3.org/2000/svg"><path d="M451.64 190H402.5l-.262-.012c.172-6.5.262-13.16.262-19.988h-352c0 14.02.379 27.34 1.078 40 9.39 167.82 76.383 218.05 78.922 226h192c1.148-3.59 14.43-15.059 29.86-40.648l.968.59c85.242 2.226 140.59-66.801 148.91-150.024 3-29.938-20.508-55.918-50.597-55.918zm10.79 51.93c-5.61 56.172-32.973 105.75-88.672 113.011l-1.278-.511c12.047-30.27 22.797-70.77 27.508-124.47l.422.04h51.219c6.531 0 11.441 5.594 10.8 11.93zm0 0" fill="#e9eef0"/><path d="M442.5 436c-10.371 0-19.488 6.86-22.39 16.809C412.851 477.758 389.8 502 362.5 502h-272c-27.3 0-50.352-24.242-57.61-49.191C29.989 442.859 20.872 436 10.5 436zm0 0" fill="#2bbdc4"/><path d="M322.5 316v60h-80v-60l40-50zm0 0" fill="#ffd86e"/><path d="M110.5 276c0-5.52-4.48-10-10-10s-10 4.48-10 10 4.48 10 10 10 10-4.48 10-10zm29.14 108.453c4.669-2.95 6.063-9.125 3.114-13.793-10.293-16.289-18.852-35.851-25.434-58.14-1.566-5.297-7.125-8.325-12.425-6.758-5.297 1.562-8.32 7.125-6.758 12.422 7.11 24.062 16.43 45.312 27.707 63.16 2.949 4.66 9.12 6.066 13.797 3.11zm89.051-268.207c3.461 4.328 9.754 5.004 14.055 1.563 4.313-3.45 5.012-9.743 1.563-14.055-8.121-10.152-8.125-27.352 0-37.508 14.02-17.52 14.02-44.973 0-62.492-3.454-4.313-9.746-5.012-14.055-1.563-4.313 3.45-5.012 9.743-1.563 14.055 8.133 10.168 8.133 27.34 0 37.508-13.976 17.473-13.988 45.008 0 62.492zm60 0c3.461 4.328 9.754 5.004 14.055 1.563 4.313-3.45 5.012-9.743 1.563-14.055-8.122-10.152-8.125-27.352 0-37.508 14.02-17.52 14.02-44.973 0-62.492-3.45-4.313-9.743-5.012-14.055-1.563-4.313 3.45-5.012 9.743-1.563 14.055 8.133 10.168 8.133 27.34 0 37.508-13.976 17.473-13.988 45.008 0 62.492zm-120 0c3.461 4.328 9.754 5.004 14.055 1.563 4.313-3.45 5.012-9.743 1.563-14.055-8.121-10.152-8.125-27.352 0-37.508 14.02-17.52 14.02-44.973 0-62.492-3.454-4.313-9.743-5.012-14.055-1.563-4.313 3.45-5.012 9.743-1.563 14.055 8.133 10.168 8.133 27.34 0 37.508-13.976 17.473-13.988 45.008 0 62.492zm0 0"/><path d="M.5 436c0 5.523 4.477 10 10 10 5.883 0 11.14 3.95 12.79 9.605C31.89 485.172 58.87 512 90.5 512h272c31.75 0 58.645-26.957 67.21-56.395 1.65-5.656 6.907-9.605 12.79-9.605 5.523 0 10-4.477 10-10s-4.477-10-10-10h-99.234a238.419 238.419 0 0 0 14.254-20.008c41.5-.043 78.222-15.957 106.421-46.199 26.7-28.629 43.832-68.719 48.25-112.875 3.586-35.805-24.578-66.918-60.55-66.918h-39.207c.043-3.332.066-6.672.066-10 0-5.523-4.48-10-10-10h-352c-5.523 0-10 4.477-10 10 0 13.766.367 27.41 1.094 40.559C48.699 337.512 88.41 399.207 109.664 426H10.5c-5.523 0-10 4.477-10 10zm410.895-225.43c.195-3.433.363-6.941.511-10.57h39.735c23.96 0 43.082 20.613 40.648 44.926-6.508 65.09-47.601 133.93-122.96 140.543 3.523-6.801 6.839-13.903 9.944-21.254 26.856-4.578 49.524-18.899 65.747-41.63 14.761-20.683 24.222-48.23 27.359-79.648 1.23-12.132-8.211-22.937-20.75-22.937h-40.832c.223-3.164.426-6.313.598-9.43zm-2.32 29.43h42.554c.312 0 .418.027.613.242.278.309.266.418.238.696-2.605 26.07-14.109 84.468-64.648 100.68 10.254-30.169 17.387-64.223 21.242-101.618zM292.5 179.988h99.934a787.373 787.373 0 0 1-.188 9.723c-.101 3.57-.219 6.984-.355 10.289H292.5zM60.566 180H272.5v20H61.117c-.27-6.582-.46-13.258-.55-20zM282.5 282.008l30 37.5V366h-60v-46.492zM62.25 220H272.5v42.492l-37.809 47.262A9.98 9.98 0 0 0 232.5 316v60c0 5.523 4.477 10 10 10h80c5.52 0 10-4.477 10-10v-60c0-2.27-.773-4.473-2.191-6.246L292.5 262.492v-42.504h98.242a638.922 638.922 0 0 1-.715 9.098c-4.797 54.664-17.668 113.738-46.23 161.102-11.438 18.964-21.645 29.82-26.547 35.812H135.715a276.458 276.458 0 0 0-2.778-3.281C117.614 404.832 71.793 351.329 62.25 220zm349.719 226a32.313 32.313 0 0 0-1.461 4.016C404.504 470.652 384.902 492 362.5 492h-272c-22.402 0-42.004-21.348-48.012-41.988A32.47 32.47 0 0 0 41.031 446zm0 0"/></svg>