<svg viewBox="0 0 511 511.99963" xmlns="http://www.w3.org/2000/svg"><path d="m451.640625 190h-49.140625l-.261719-.011719c.171875-6.5.261719-13.160156.261719-19.988281-14.007812 0-331.832031 0-352 0 0 14.019531.378906 27.339844 1.078125 40 9.390625 167.820312 76.382813 218.050781 78.921875 226h192c1.148438-3.589844 14.429688-15.058594 29.859375-40.648438l.96875.589844c85.242187 2.226563 140.589844-66.800781 148.910156-150.023437 3-29.9375-20.507812-55.917969-50.597656-55.917969zm10.789063 51.929688c-5.609376 56.171874-32.972657 105.75-88.671876 113.011718l-1.277343-.511718c12.046875-30.269532 22.796875-70.769532 27.507812-124.46875l.421875.039062h51.21875c6.53125 0 11.441406 5.59375 10.800782 11.929688zm0 0" fill="#e9eef0"/><path d="m442.5 436c-10.371094 0-19.488281 6.859375-22.390625 16.808594-7.257813 24.949218-30.308594 49.191406-57.609375 49.191406h-272c-27.300781 0-50.351562-24.242188-57.609375-49.191406-2.902344-9.949219-12.019531-16.808594-22.390625-16.808594zm0 0" fill="#2bbdc4"/><path d="m322.5 316v60h-80v-60l40-50zm0 0" fill="#ffd86e"/><path d="m110.5 276c0-5.519531-4.480469-10-10-10s-10 4.480469-10 10 4.480469 10 10 10 10-4.480469 10-10zm0 0"/><path d="m139.640625 384.453125c4.667969-2.949219 6.0625-9.125 3.113281-13.792969-10.292968-16.289062-18.851562-35.851562-25.433594-58.140625-1.566406-5.296875-7.125-8.324219-12.425781-6.757812-5.296875 1.5625-8.320312 7.125-6.757812 12.421875 7.109375 24.0625 16.429687 45.3125 27.707031 63.160156 2.949219 4.660156 9.121094 6.066406 13.796875 3.109375zm0 0"/><path d="m228.691406 116.246094c3.460938 4.328125 9.753906 5.003906 14.054688 1.5625 4.3125-3.449219 5.011718-9.742188 1.5625-14.054688-8.121094-10.152344-8.125-27.351562 0-37.507812 14.019531-17.519532 14.019531-44.972656 0-62.492188-3.453125-4.3125-9.746094-5.011718-14.054688-1.5625-4.3125 3.449219-5.011718 9.742188-1.5625 14.054688 8.132813 10.167968 8.132813 27.339844 0 37.507812-13.976562 17.472656-13.988281 45.007813 0 62.492188zm0 0"/><path d="m288.691406 116.246094c3.460938 4.328125 9.753906 5.003906 14.054688 1.5625 4.3125-3.449219 5.011718-9.742188 1.5625-14.054688-8.121094-10.152344-8.125-27.351562 0-37.507812 14.019531-17.519532 14.019531-44.972656 0-62.492188-3.449219-4.3125-9.742188-5.011718-14.054688-1.5625-4.3125 3.449219-5.011718 9.742188-1.5625 14.054688 8.132813 10.167968 8.132813 27.339844 0 37.507812-13.976562 17.472656-13.988281 45.007813 0 62.492188zm0 0"/><path d="m168.691406 116.246094c3.460938 4.328125 9.753906 5.003906 14.054688 1.5625 4.3125-3.449219 5.011718-9.742188 1.5625-14.054688-8.121094-10.152344-8.125-27.351562 0-37.507812 14.019531-17.519532 14.019531-44.972656 0-62.492188-3.453125-4.3125-9.742188-5.011718-14.054688-1.5625-4.3125 3.449219-5.011718 9.742188-1.5625 14.054688 8.132813 10.167968 8.132813 27.339844 0 37.507812-13.976562 17.472656-13.988281 45.007813 0 62.492188zm0 0"/><path d="m.5 436c0 5.523438 4.476562 10 10 10 5.882812 0 11.140625 3.949219 12.789062 9.605469 8.601563 29.566406 35.582032 56.394531 67.210938 56.394531h272c31.75 0 58.644531-26.957031 67.210938-56.394531 1.648437-5.65625 6.90625-9.605469 12.789062-9.605469 5.523438 0 10-4.476562 10-10s-4.476562-10-10-10h-99.234375c4.160156-5.246094 9.042969-11.84375 14.253906-20.007812 41.5-.042969 78.222657-15.957032 106.421875-46.199219 26.699219-28.628907 43.832032-68.71875 48.25-112.875 3.585938-35.804688-24.578125-66.917969-60.550781-66.917969h-39.207031c.042968-3.332031.066406-6.671875.066406-10 0-5.523438-4.480469-10-10-10h-352c-5.523438 0-10 4.476562-10 10 0 13.765625.367188 27.410156 1.09375 40.558594 7.105469 126.953125 46.816406 188.648437 68.070312 215.441406h-99.164062c-5.523438 0-10 4.476562-10 10zm410.894531-225.429688c.195313-3.433593.363281-6.941406.511719-10.570312h39.734375c23.960937 0 43.082031 20.613281 40.648437 44.925781-6.507812 65.089844-47.601562 133.929688-122.960937 140.542969 3.523437-6.800781 6.839844-13.902344 9.945313-21.253906 26.855468-4.578125 49.523437-18.898438 65.746093-41.628906 14.761719-20.683594 24.222657-48.230469 27.359375-79.648438 1.230469-12.132812-8.210937-22.9375-20.75-22.9375h-40.832031c.222656-3.164062.425781-6.3125.597656-9.429688zm-2.320312 29.429688h42.554687c.3125 0 .417969.027344.613282.242188.277343.308593.265624.417968.238281.695312-2.605469 26.070312-14.109375 84.46875-64.648438 100.679688 10.253907-30.167969 17.386719-64.222657 21.242188-101.617188zm-116.574219-60.011719h99.933594c-.042969 3.257813-.105469 6.515625-.1875 9.722657-.101563 3.570312-.21875 6.984374-.355469 10.289062h-99.390625zm-231.933594.011719h211.933594v20h-211.382812c-.269532-6.582031-.460938-13.257812-.550782-20zm221.933594 102.007812 30 37.5v46.492188h-60v-46.492188zm-220.25-62.007812h210.25v42.492188l-37.808594 47.261718c-1.421875 1.773438-2.191406 3.976563-2.191406 6.246094v60c0 5.523438 4.476562 10 10 10h80c5.519531 0 10-4.476562 10-10v-60c0-2.269531-.773438-4.472656-2.191406-6.246094l-37.808594-47.261718v-42.503907h98.242188c-.21875 3.03125-.453126 6.074219-.714844 9.097657-4.796875 54.664062-17.667969 113.738281-46.230469 161.101562-11.4375 18.964844-21.644531 29.820312-26.546875 35.8125h-181.535156c-.804688-.972656-1.71875-2.042969-2.777344-3.28125-15.324219-17.886719-61.144531-71.390625-70.6875-202.71875zm349.71875 226c-.570312 1.292969-1.058594 2.632812-1.460938 4.015625-6.003906 20.636719-25.605468 41.984375-48.007812 41.984375h-272c-22.402344 0-42.003906-21.347656-48.011719-41.988281-.402343-1.378907-.886719-2.71875-1.457031-4.011719zm0 0"/></svg>