<svg xmlns="http://www.w3.org/2000/svg" viewBox="0 0 512 512"><circle cx="256" cy="256" r="248.471" fill="#B0BEC5"/><path d="M476.863 256c0-58.994-22.974-114.458-64.69-156.173-41.715-41.716-97.179-64.69-156.173-64.69S141.542 58.111 99.827 99.827C58.111 141.542 35.137 197.006 35.137 256s22.974 114.458 64.69 156.173c41.715 41.716 97.179 64.69 156.173 64.69 21.429 0 42.388-3.046 62.395-8.906 5.891 5.742 13.656 8.906 21.921 8.906h.001c8.471 0 16.447-3.309 22.453-9.316l61.244-61.243c20.409-20.409 33.249-45.523 38.535-71.78 9.397-24.751 14.314-51.258 14.314-78.524z" fill="#90A4AE"/><circle cx="256" cy="256" r="200.784" fill="#FF9017"/><path d="M224.394 280.32a64.926 64.926 0 0 0-10.189-23.358 65.4 65.4 0 0 0 .634-8.993c0-35.982-29.273-65.255-65.255-65.255s-65.255 29.273-65.255 65.255c0 13.813 4.326 26.628 11.678 37.187a65.389 65.389 0 0 0-.634 8.993c0 26.892 16.355 50.032 39.638 60.009 6.362 29.36 32.53 51.426 63.766 51.426 35.982 0 65.255-29.273 65.255-65.255-.001-26.892-16.356-50.032-39.638-60.009z" fill="#FF7043"/><path d="M456.75 258.671c-6.624-17.887-17.085-34.623-31.393-48.931L282.545 66.928l-27.698 27.698-1.375 2.499c-14.746 26.79-20.371 56.841-16.269 86.907 4.113 30.147 17.602 57.397 39.01 78.806l24.221 24.221 42.897 27.877c9.937 6.458 16.352 16.977 17.599 28.861 1.118 10.656-1.983 21.192-8.583 29.597l-52.479 13.036a29.515 29.515 0 0 0-21.291 20.715c-2.817 10.142.04 21.048 7.455 28.463l15.893 15.893c87.924-20.575 153.599-98.926 154.825-192.83z" fill="#FF7043"/><path d="M271.062 106.806c-25.784 46.843-17.907 104.578 19.349 141.835l22.731 22.731 41.13 26.728c31.942 20.757 36.253 65.941 8.9 93.293l-58.464 14.522c-7.004 1.74-9.522 10.45-4.477 15.495l32.069 32.068c4.458 4.458 11.744 4.4 16.275-.131l61.243-61.243c46.81-46.809 47.411-122.1 1.344-168.167l-25.293-25.292L282.546 95.323l-11.484 11.483z" fill="#FF5352"/><path d="M354.271 298.1c28.934 18.802 35.194 57.647 15.788 85.126l15.62-3.88c27.352-27.352 23.042-72.535-8.901-93.293l-41.13-26.728-22.731-22.731c-35.237-35.237-44.173-88.79-23.226-134.123l-7.147-7.148-11.483 11.483c-25.783 46.842-17.907 104.579 19.349 141.835l22.731 22.731 41.13 26.728zm.535 143.331l-32.068-32.068c-2.059-2.059-2.839-4.726-2.588-7.283l-15.441 3.836c-7.004 1.74-9.522 10.45-4.477 15.495l32.067 32.068c4.458 4.458 11.744 4.4 16.274-.129l9.609-9.609a11.191 11.191 0 0 1-3.376-2.31z" fill="#F23030"/><circle cx="149.584" cy="247.969" r="45.176" fill="#9CCC65"/><path d="M105.749 258.909c4.892 19.663 22.659 34.236 43.835 34.236 24.95 0 45.176-20.226 45.176-45.176 0-3.47-.405-6.843-1.144-10.087a64.84 64.84 0 0 0-32.989-8.987c-23.006-.001-43.255 11.978-54.878 30.014z" fill="#7CB342"/><circle cx="160.627" cy="294.149" r="45.176" fill="#9CCC65"/><path d="M134.225 330.796a44.954 44.954 0 0 0 26.402 8.529c24.95 0 45.176-20.226 45.176-45.176a44.99 44.99 0 0 0-4.191-19.002 66.715 66.715 0 0 0-2.836-.072c-32.742 0-59.923 24.243-64.551 55.721z" fill="#7CB342"/><circle cx="198.776" cy="340.329" r="45.176" fill="#9CCC65"/><path transform="rotate(134.999 295.62 164.53)" d="M288.089 157H303.148V172.059H288.089z"/><path d="M437.02 74.981C388.667 26.629 324.38 0 256 0S123.333 26.629 74.981 74.981 0 187.62 0 256s26.628 132.667 74.981 181.019S187.62 512 256 512s132.667-26.629 181.02-74.981S512 324.38 512 256s-26.628-132.667-74.98-181.019zM256 496.941C123.145 496.941 15.059 388.855 15.059 256S123.145 15.059 256 15.059 496.941 123.145 496.941 256 388.855 496.941 256 496.941z"/><path d="M464.314 256c0-50.914-18.564-99.927-52.272-138.012-33.414-37.751-79.215-62.1-128.97-68.559l-1.94 14.933C376.979 76.805 449.255 159.191 449.255 256c0 6.002-.272 11.968-.813 17.886-5.472-20.304-16.115-39.429-31.958-55.272L287.889 90.019l.019-.019-62.243-62.243-10.649 10.648 56.9 56.9-6.934 6.934-.148.268-10.773-7.642a98.83 98.83 0 0 0-127.391 10.751l10.649 10.648c20.748-20.75 49.838-28.631 76.984-22.796-21.552 2.617-41.647 14.384-54.442 33.628l-7.226 10.875 12.543 8.335 7.225-10.874a61.29 61.29 0 0 1 76.112-22.133l9.199 4.088c-8.311 20.599-11.104 42.772-8.08 64.949 3.74 27.407 15.997 52.176 35.451 71.629l23.29 23.29 41.792 27.159c13.126 8.53 21.598 22.408 23.242 38.074 1.621 15.446-3.524 30.683-14.154 42.121l-56.364 14.001a16.95 16.95 0 0 0-12.225 11.895c-1.632 5.877-.048 11.945 4.238 16.23l14.921 14.921c-17.415 5.044-35.469 7.6-53.827 7.6-106.561 0-193.255-86.694-193.255-193.255 0-49.895 18.955-97.252 53.371-133.345l-10.898-10.393C68.119 151.171 47.686 202.217 47.686 256c0 114.865 93.449 208.314 208.314 208.314 22.548 0 44.678-3.577 65.853-10.633l5.122 5.122c3.669 3.669 8.498 5.501 13.342 5.501 4.905 0 9.827-1.879 13.58-5.632l61.243-61.243c18.954-18.955 30.755-42.358 35.392-66.774 9.144-23.808 13.782-48.922 13.782-74.655zm-78.147 73.446a66.636 66.636 0 0 0-6.63-15.504l55.101-33.269a111.782 111.782 0 0 1 2.619 36.403l-51.09 12.37zm14.23-105.622l-57.746 57.746-17.613-11.446 60.829-60.829 14.53 14.529zM277.155 111.362l5.39-5.39 92.674 92.675-62.076 62.077-17.407-17.406c-34.396-34.396-41.967-88.513-18.581-131.956zm81.22 180.425l-2.814-1.829 55.304-55.304a108.132 108.132 0 0 1 19.096 31.254l-59.516 35.934a66.906 66.906 0 0 0-12.07-10.055zm22.744 87.649l19.747 10.97-14.017 14.017-13.319-13.318a69.123 69.123 0 0 0 7.589-11.669zm-75.941 35.098c.108-.392.429-1.083 1.344-1.311l54.334-13.497 2.583 2.584-47.446 24.215-10.44-10.44c-.418-.418-.545-.94-.375-1.551zm38.07 33.49c-1.587 1.587-4.111 1.645-5.626.13l-10.436-10.436 47.446-24.215 1.568 1.567-32.952 32.954zm68.258-68.933l-24.949-13.86a68.187 68.187 0 0 0 2.093-20.892l45.936-11.121a112.853 112.853 0 0 1-23.08 45.873z"/><path d="M149.584 195.263c-29.062 0-52.706 23.643-52.706 52.706 0 12.61 4.405 24.529 12.472 34.033a52.598 52.598 0 0 0-1.429 12.147c0 24.015 15.796 44.429 38.358 50.722 2.312 26.942 24.967 48.164 52.497 48.164 29.062 0 52.706-23.643 52.706-52.706 0-24.088-16.248-44.438-38.356-50.704-.956-11.176-5.407-21.364-12.263-29.466a52.65 52.65 0 0 0 1.427-12.191c0-29.062-23.644-52.705-52.706-52.705zm86.84 145.066a37.42 37.42 0 0 1-4.733 18.249l-20.508-20.508 18.791-18.791a37.434 37.434 0 0 1 6.45 21.05zm-35.891-12.907l-20.006-20.006a37.396 37.396 0 0 1 18.249-4.733 37.414 37.414 0 0 1 20.44 6.057l-18.683 18.682zm-25.892-33.924l-1.608-1.608 18.791-18.791a37.44 37.44 0 0 1 5.877 14.552 52.333 52.333 0 0 0-23.06 5.847zm6.14-66.58a37.432 37.432 0 0 1 6.45 21.05c0 .235-.01.468-.014.702a52.307 52.307 0 0 0-21.232-6.956l14.796-14.796zm-20.154 29.584a37.414 37.414 0 0 1 20.44 6.057l-18.683 18.683-20.006-20.006a37.413 37.413 0 0 1 18.249-4.734zm9.397-40.124l-18.683 18.683-20.006-20.006a37.396 37.396 0 0 1 18.249-4.733 37.41 37.41 0 0 1 20.44 6.056zm-58.087 31.591c0-8.692 2.97-16.699 7.936-23.079l20.576 20.576c-9.941 4.136-18.344 11.233-24.121 20.181-2.868-5.377-4.391-11.409-4.391-17.678zm11.043 46.18c0-8.692 2.97-16.699 7.936-23.079l20.82 20.82-22.662 22.661c-3.859-5.935-6.094-12.973-6.094-20.402zm35.277 12.517a52.542 52.542 0 0 0-11.021 22.655 37.296 37.296 0 0 1-7.633-4l18.654-18.655zm2.872 33.663c0-8.692 2.97-16.699 7.936-23.079l20.82 20.82-22.699 22.699a37.412 37.412 0 0 1-6.057-20.44zm16.597 31.197l22.807-22.807 21.322 21.322c-6.379 4.966-14.386 7.936-23.079 7.936a37.427 37.427 0 0 1-21.05-6.451z"/><g fill="#FFFFFF"><path d="M119.467 164.141H142.557V179.2H119.467z"/><path transform="rotate(-134.999 282.603 316.737)" d="M267.695 309.206H297.509V324.26500000000004H267.695z"/><path transform="rotate(-134.999 220.113 188.985)" d="M209.819 181.454H230.40499999999997V196.513H209.819z"/><path d="M209.82 402.071H233.914V417.13000000000005H209.82z"/><path d="M305.192 350.871H333.302V365.93H305.192z"/><path transform="rotate(-134.999 365.923 121.975)" d="M352.434 114.444H379.40900000000005V129.50300000000001H352.434z"/><path transform="rotate(-134.999 238.182 265.291)" d="M220.79 257.76H255.57399999999998V272.819H220.79z"/><path d="M123.984 355.89H139.043V370.949H123.984z"/><path d="M400.565 166.149H415.624V181.208H400.565z"/></g></svg>