<?xml version="1.0" encoding="iso-8859-1"?>
<!-- Generator: Adobe Illustrator 19.0.0, SVG Export Plug-In . SVG Version: 6.00 Build 0)  -->
<svg version="1.1" id="Capa_1" xmlns="http://www.w3.org/2000/svg" xmlns:xlink="http://www.w3.org/1999/xlink" x="0px" y="0px"
	 viewBox="0 0 512 512" style="enable-background:new 0 0 512 512;" xml:space="preserve">
<circle style="fill:#B0BEC5;" cx="256" cy="256" r="248.471"/>
<path style="fill:#90A4AE;" d="M476.863,256c0-58.994-22.974-114.458-64.69-156.173C370.458,58.111,314.994,35.137,256,35.137
	S141.542,58.111,99.827,99.827C58.111,141.542,35.137,197.006,35.137,256s22.974,114.458,64.69,156.173
	c41.715,41.716,97.179,64.69,156.173,64.69c21.429,0,42.388-3.046,62.395-8.906c5.891,5.742,13.656,8.906,21.921,8.906
	c0.001,0,0,0,0.001,0c8.471,0,16.447-3.309,22.453-9.316l61.244-61.243c20.409-20.409,33.249-45.523,38.535-71.78
	C471.946,309.773,476.863,283.266,476.863,256z"/>
<circle style="fill:#FF9017;" cx="256" cy="256" r="200.784"/>
<g>
	<path style="fill:#FF7043;" d="M224.394,280.32c-1.847-8.523-5.363-16.426-10.189-23.358c0.408-2.942,0.634-5.941,0.634-8.993
		c0-35.982-29.273-65.255-65.255-65.255s-65.255,29.273-65.255,65.255c0,13.813,4.326,26.628,11.678,37.187
		c-0.408,2.941-0.634,5.941-0.634,8.993c0,26.892,16.355,50.032,39.638,60.009c6.362,29.36,32.53,51.426,63.766,51.426
		c35.982,0,65.255-29.273,65.255-65.255C264.031,313.437,247.676,290.297,224.394,280.32z"/>
	<path style="fill:#FF7043;" d="M456.75,258.671c-6.624-17.887-17.085-34.623-31.393-48.931L282.545,66.928l-27.698,27.698
		l-1.375,2.499c-14.746,26.79-20.371,56.841-16.269,86.907c4.113,30.147,17.602,57.397,39.01,78.806l24.221,24.221l42.897,27.877
		c9.937,6.458,16.352,16.977,17.599,28.861c1.118,10.656-1.983,21.192-8.583,29.597l-52.479,13.036
		c-10.293,2.556-18.452,10.494-21.291,20.715c-2.817,10.142,0.04,21.048,7.455,28.463l15.893,15.893
		C389.849,430.926,455.524,352.575,456.75,258.671z"/>
</g>
<path style="fill:#FF5352;" d="M271.062,106.806L271.062,106.806c-25.784,46.843-17.907,104.578,19.349,141.835l22.731,22.731
	l41.13,26.728c31.942,20.757,36.253,65.941,8.9,93.293l-58.464,14.522c-7.004,1.74-9.522,10.45-4.477,15.495l32.069,32.068
	c4.458,4.458,11.744,4.4,16.275-0.131l61.243-61.243c46.81-46.809,47.411-122.1,1.344-168.167l-25.293-25.292L282.546,95.323
	L271.062,106.806z"/>
<g>
	<path style="fill:#F23030;" d="M354.271,298.1c28.934,18.802,35.194,57.647,15.788,85.126l15.62-3.88
		c27.352-27.352,23.042-72.535-8.901-93.293l-41.13-26.728l-22.731-22.731c-35.237-35.237-44.173-88.79-23.226-134.123l-7.147-7.148
		l-11.483,11.483l0,0c-25.783,46.842-17.907,104.579,19.349,141.835l22.731,22.731L354.271,298.1z"/>
	<path style="fill:#F23030;" d="M354.806,441.431l-32.068-32.068c-2.059-2.059-2.839-4.726-2.588-7.283l-15.441,3.836
		c-7.004,1.74-9.522,10.45-4.477,15.495l32.067,32.068c4.458,4.458,11.744,4.4,16.274-0.129l9.609-9.609
		C356.956,443.194,355.807,442.433,354.806,441.431z"/>
</g>
<circle style="fill:#9CCC65;" cx="149.584" cy="247.969" r="45.176"/>
<path style="fill:#7CB342;" d="M105.749,258.909c4.892,19.663,22.659,34.236,43.835,34.236c24.95,0,45.176-20.226,45.176-45.176
	c0-3.47-0.405-6.843-1.144-10.087c-9.687-5.701-20.959-8.987-32.989-8.987C137.621,228.894,117.372,240.873,105.749,258.909z"/>
<circle style="fill:#9CCC65;" cx="160.627" cy="294.149" r="45.176"/>
<path style="fill:#7CB342;" d="M134.225,330.796c7.427,5.361,16.543,8.529,26.402,8.529c24.95,0,45.176-20.226,45.176-45.176
	c0-6.79-1.508-13.225-4.191-19.002c-0.942-0.04-1.885-0.072-2.836-0.072C166.034,275.075,138.853,299.318,134.225,330.796z"/>
<circle style="fill:#9CCC65;" cx="198.776" cy="340.329" r="45.176"/>
<rect x="288.089" y="157" transform="matrix(-0.7071 0.7071 -0.7071 -0.7071 620.9917 71.836)" width="15.059" height="15.059"/>
<path d="M437.02,74.981C388.667,26.629,324.38,0,256,0S123.333,26.629,74.981,74.981S0,187.62,0,256s26.628,132.667,74.981,181.019
	S187.62,512,256,512s132.667-26.629,181.02-74.981S512,324.38,512,256S485.372,123.333,437.02,74.981z M256,496.941
	C123.145,496.941,15.059,388.855,15.059,256S123.145,15.059,256,15.059S496.941,123.145,496.941,256S388.855,496.941,256,496.941z"
	/>
<path d="M464.314,256c0-50.914-18.564-99.927-52.272-138.012c-33.414-37.751-79.215-62.1-128.97-68.559l-1.94,14.933
	C376.979,76.805,449.255,159.191,449.255,256c0,6.002-0.272,11.968-0.813,17.886c-5.472-20.304-16.115-39.429-31.958-55.272
	L287.889,90.019L287.908,90l-62.243-62.243l-10.649,10.648l56.9,56.9l-6.934,6.934l-0.148,0.268l-10.773-7.642
	c-39.539-28.048-93.112-23.526-127.391,10.751l10.649,10.648c20.748-20.75,49.838-28.631,76.984-22.796
	c-21.552,2.617-41.647,14.384-54.442,33.628l-7.226,10.875l12.543,8.335l7.225-10.874c16.635-25.025,48.646-34.333,76.112-22.133
	l9.199,4.088c-8.311,20.599-11.104,42.772-8.08,64.949c3.74,27.407,15.997,52.176,35.451,71.629l23.29,23.29l41.792,27.159
	c13.126,8.53,21.598,22.408,23.242,38.074c1.621,15.446-3.524,30.683-14.154,42.121l-56.364,14.001
	c-5.91,1.468-10.594,6.026-12.225,11.895c-1.632,5.877-0.048,11.945,4.238,16.23l14.921,14.921c-17.415,5.044-35.469,7.6-53.827,7.6
	c-106.561,0-193.255-86.694-193.255-193.255c0-49.895,18.955-97.252,53.371-133.345l-10.898-10.393
	C68.119,151.171,47.686,202.217,47.686,256c0,114.865,93.449,208.314,208.314,208.314c22.548,0,44.678-3.577,65.853-10.633
	l5.122,5.122c3.669,3.669,8.498,5.501,13.342,5.501c4.905,0,9.827-1.879,13.58-5.632l61.243-61.243
	c18.954-18.955,30.755-42.358,35.392-66.774C459.676,306.847,464.314,281.733,464.314,256z M386.167,329.446
	c-1.553-5.466-3.792-10.665-6.63-15.504l55.101-33.269c2.868,11.897,3.739,24.21,2.619,36.403L386.167,329.446z M400.397,223.824
	l-57.746,57.746l-17.613-11.446l60.829-60.829L400.397,223.824z M277.155,111.362l5.39-5.39l92.674,92.675l-62.076,62.077
	l-17.407-17.406C261.34,208.922,253.769,154.805,277.155,111.362z M358.375,291.787l-2.814-1.829l55.304-55.304
	c8.276,9.472,14.645,20.054,19.096,31.254l-59.516,35.934C366.867,298.072,362.835,294.686,358.375,291.787z M381.119,379.436
	l19.747,10.97l-14.017,14.017l-13.319-13.318C376.477,387.451,379,383.535,381.119,379.436z M305.178,414.534
	c0.108-0.392,0.429-1.083,1.344-1.311l54.334-13.497l2.583,2.584l-47.446,24.215l-10.44-10.44
	C305.135,415.667,305.008,415.145,305.178,414.534z M343.248,448.024c-1.587,1.587-4.111,1.645-5.626,0.13l-10.436-10.436
	l47.446-24.215l1.568,1.567L343.248,448.024z M411.506,379.091l-24.949-13.86c1.752-6.751,2.484-13.783,2.093-20.892l45.936-11.121
	C430.627,349.64,422.93,365.389,411.506,379.091z"/>
<path d="M149.584,195.263c-29.062,0-52.706,23.643-52.706,52.706c0,12.61,4.405,24.529,12.472,34.033
	c-0.925,3.903-1.429,7.966-1.429,12.147c0,24.015,15.796,44.429,38.358,50.722c2.312,26.942,24.967,48.164,52.497,48.164
	c29.062,0,52.706-23.643,52.706-52.706c0-24.088-16.248-44.438-38.356-50.704c-0.956-11.176-5.407-21.364-12.263-29.466
	c0.945-3.975,1.427-8.057,1.427-12.191C202.29,218.906,178.646,195.263,149.584,195.263z M236.424,340.329
	c0,6.619-1.723,12.839-4.733,18.249l-20.508-20.508l18.791-18.791C234.044,325.292,236.424,332.538,236.424,340.329z
	 M200.533,327.422l-20.006-20.006c5.409-3.012,11.63-4.733,18.249-4.733c7.532,0,14.549,2.232,20.44,6.057L200.533,327.422z
	 M174.641,293.498l-1.608-1.608l18.791-18.791c2.912,4.302,4.948,9.239,5.877,14.552
	C189.406,287.818,181.578,289.908,174.641,293.498z M180.781,226.918c4.07,6.012,6.45,13.259,6.45,21.05
	c0,0.235-0.01,0.468-0.014,0.702c-6.355-3.73-13.549-6.177-21.232-6.956L180.781,226.918z M160.627,256.502
	c7.532,0,14.549,2.232,20.44,6.057l-18.683,18.683l-20.006-20.006C147.788,258.225,154.009,256.502,160.627,256.502z
	 M170.024,216.378l-18.683,18.683l-20.006-20.006c5.409-3.012,11.63-4.733,18.249-4.733
	C157.117,210.322,164.133,212.553,170.024,216.378z M111.937,247.969c0-8.692,2.97-16.699,7.936-23.079l20.576,20.576
	c-9.941,4.136-18.344,11.233-24.121,20.181C113.46,260.27,111.937,254.238,111.937,247.969z M122.98,294.149
	c0-8.692,2.97-16.699,7.936-23.079l20.82,20.82l-22.662,22.661C125.215,308.616,122.98,301.578,122.98,294.149z M158.257,306.666
	c-5.36,6.44-9.211,14.172-11.021,22.655c-2.711-1.042-5.269-2.388-7.633-4L158.257,306.666z M161.129,340.329
	c0-8.692,2.97-16.699,7.936-23.079l20.82,20.82l-22.699,22.699C163.361,354.878,161.129,347.862,161.129,340.329z M177.726,371.526
	l22.807-22.807l21.322,21.322c-6.379,4.966-14.386,7.936-23.079,7.936C190.985,377.977,183.739,375.597,177.726,371.526z"/>
<g>
	<rect x="119.467" y="164.141" style="fill:#FFFFFF;" width="23.09" height="15.059"/>
	
		<rect x="267.695" y="309.206" transform="matrix(-0.7071 -0.7071 0.7071 -0.7071 258.4659 740.5305)" style="fill:#FFFFFF;" width="29.814" height="15.059"/>
	
		<rect x="209.819" y="181.454" transform="matrix(-0.7071 -0.7071 0.7071 -0.7071 242.1232 478.2579)" style="fill:#FFFFFF;" width="20.586" height="15.059"/>
	<rect x="209.82" y="402.071" style="fill:#FFFFFF;" width="24.094" height="15.059"/>
	<rect x="305.192" y="350.871" style="fill:#FFFFFF;" width="28.11" height="15.059"/>
	
		<rect x="352.434" y="114.444" transform="matrix(-0.7071 -0.7071 0.7071 -0.7071 538.4182 466.9672)" style="fill:#FFFFFF;" width="26.975" height="15.059"/>
	
		<rect x="220.79" y="257.76" transform="matrix(-0.7071 -0.7071 0.7071 -0.7071 219.0131 621.2977)" style="fill:#FFFFFF;" width="34.784" height="15.059"/>
	<rect x="123.984" y="355.89" style="fill:#FFFFFF;" width="15.059" height="15.059"/>
	<rect x="400.565" y="166.149" style="fill:#FFFFFF;" width="15.059" height="15.059"/>
</g>
<g>
</g>
<g>
</g>
<g>
</g>
<g>
</g>
<g>
</g>
<g>
</g>
<g>
</g>
<g>
</g>
<g>
</g>
<g>
</g>
<g>
</g>
<g>
</g>
<g>
</g>
<g>
</g>
<g>
</g>
</svg>
