<svg xmlns="http://www.w3.org/2000/svg" viewBox="0 0 512 512"><path d="M316.25 56h-123l103 400h126c22.09 0 40-17.91 40-40V235.15c25.02-18.9 40-42.95 40-69.15 0-60.75-86.59-110-186-110z" fill="#FEA832"/><path d="M336.25 416V235.15c25.02-18.9 40-42.95 40-69.15 0-52.92-63.434-97.107-145.498-107.62C148.689 68.893 85.255 113.08 85.255 166c0 26.2 14.98 50.25 40 69.15V416c0 22.09 17.91 40 40 40H296.25c22.09 0 40-17.91 40-40z" fill="#FFC478"/><path d="M200.07 198.22c3.91-3.91 3.91-10.24 0-14.14-3.9-3.91-10.24-3.91-14.14 0-3.91 3.9-3.91 10.23 0 14.14 3.9 3.9 10.24 3.9 14.14 0zm-14.14 155.56c-3.91 3.91-3.91 10.24 0 14.14 3.9 3.91 10.24 3.91 14.14 0 3.91-3.9 3.91-10.23 0-14.14-3.9-3.9-10.24-3.9-14.14 0zM442 156c-5.522 0-10 4.478-10 10 0 32.157-12.895 62.883-37.289 88.854a10.004 10.004 0 0 0-2.711 6.847V416c0 5.522 4.478 10 10 10s10-4.478 10-10V265.597c26.186-29.13 40-63.484 40-99.597 0-5.522-4.478-10-10-10zm-270.209 70.501c3.905-3.905 3.905-10.237 0-14.143-3.906-3.904-10.236-3.904-14.143 0l-42.43 42.431c-3.905 3.905-3.905 10.237 0 14.143 3.907 3.905 10.236 3.904 14.143 0l42.43-42.431zm84.848 56.567l-42.43 42.431c-3.905 3.905-3.905 10.237 0 14.143 3.907 3.905 10.236 3.904 14.143 0l42.43-42.431c3.905-3.905 3.905-10.237 0-14.143-3.907-3.904-10.237-3.904-14.143 0zm.003-70.71c-3.906-3.904-10.236-3.904-14.143 0L129.358 325.499c-3.905 3.905-3.905 10.237 0 14.143 3.907 3.905 10.236 3.904 14.143 0l113.141-113.141c3.905-3.905 3.905-10.237 0-14.143z"/><path d="M451.323 79.584C414.253 57.927 366.193 46 316 46H183c-.75 0-1.479.089-2.182.246C80.052 50.168 0 102.376 0 166c0 26.966 14.162 53.092 40 74.022V416c0 27.57 22.43 50 50 50h332c27.57 0 50-22.43 50-50V240.022c25.838-20.931 40-47.057 40-74.022 0-32.867-21.549-63.557-60.677-86.416zM326 235.15V416c0 16.542-13.458 30-30 30H90c-16.542 0-30-13.458-30-30V235.15a9.999 9.999 0 0 0-3.973-7.979C39.592 214.755 20 194.064 20 166c0-54.206 79.225-100 173-100s173 45.794 173 100c0 28.064-19.592 48.755-36.027 61.171A10.002 10.002 0 0 0 326 235.15zm129.973-7.979A10.002 10.002 0 0 0 452 235.15V416c0 16.542-13.458 30-30 30h-86.027c6.292-8.363 10.027-18.752 10.027-30V240.022c25.838-20.931 40-47.057 40-74.022 0-41.694-34.384-78.484-86.441-100H316c46.025 0 91.672 11.245 125.234 30.854C473.971 115.979 492 140.535 492 166c0 28.064-19.592 48.755-36.027 61.171z"/></svg>