<svg enable-background="new 0 0 512.001 512.001" viewBox="0 0 512.001 512.001" xmlns="http://www.w3.org/2000/svg"><circle cx="299.296" cy="33.872" fill="#fddd85" r="25.807"/><circle cx="299.296" cy="33.872" fill="#f2c127" r="8.602"/><circle cx="213.273" cy="33.872" fill="#fddd85" r="25.807"/><circle cx="213.273" cy="33.872" fill="#f2c127" r="8.602"/><path d="m428.326 409.147h-344.092c-9.502 0-17.205-7.702-17.205-17.205v-262.761c0-7.758 5.193-14.557 12.678-16.598l172.046-46.921c2.963-.809 6.089-.809 9.054 0l172.046 46.921c7.485 2.041 12.678 8.84 12.678 16.598v262.761c0 9.502-7.704 17.205-17.205 17.205z" fill="#e5563c"/><path d="m101.439 383.34c-4.751 0-8.602-3.852-8.602-8.602v-265.736l-13.129 3.581c-7.485 2.041-12.678 8.84-12.678 16.598v262.761c0 9.501 7.702 17.205 17.205 17.205h344.092c9.501 0 17.205-7.703 17.205-17.205v-8.602z" fill="#cf442b"/><circle cx="393.921" cy="323.124" fill="#fddd85" r="17.205"/><circle cx="118.648" cy="323.124" fill="#fddd85" r="17.205"/><path d="m411.121 142.322-137.636-37.537v158.123h137.636z" fill="#ebebec"/><g fill="#9b9da1"><path d="m377.025 133.023-103.54 103.54v26.345h67.743l69.893-69.894v-50.692z"/><path d="m273.485 104.785v64.035l50.313-50.314z"/><path d="m362.734 262.908h48.387v-48.388z"/></g><path d="m101.439 142.322v120.586h137.637v-158.123z" fill="#ebebec"/><path d="m101.439 142.322v51.23l70.441-70.441z" fill="#9b9da1"/><path d="m102.514 262.908h63.442l73.12-73.12v-63.442z" fill="#9b9da1"/><path d="m189.075 262.908h50.001v-50.001z" fill="#9b9da1"/><path d="m419.186 323.124c0-13.934-11.336-25.269-25.269-25.269-13.934 0-25.269 11.336-25.269 25.269 0 13.934 11.336 25.269 25.269 25.269s25.269-11.336 25.269-25.269zm-25.269 9.14c-5.04 0-9.14-4.1-9.14-9.14s4.1-9.14 9.14-9.14 9.14 4.1 9.14 9.14-4.101 9.14-9.14 9.14z"/><path d="m143.913 323.124c0-13.934-11.336-25.269-25.269-25.269s-25.269 11.336-25.269 25.269c0 13.934 11.336 25.269 25.269 25.269s25.269-11.336 25.269-25.269zm-25.27 9.14c-5.04 0-9.14-4.1-9.14-9.14s4.1-9.14 9.14-9.14 9.14 4.1 9.14 9.14-4.101 9.14-9.14 9.14z"/><path d="m444.993 193.552c4.455 0 8.065-3.61 8.065-8.065v-56.305c0-11.364-7.388-21.39-18.351-24.379l-135.769-37.065c.073 0 .213.005.287.005 18.677 0 33.905-15.195 33.905-33.872s-15.179-33.871-33.856-33.871-33.863 15.195-33.863 33.872c0 12.499 6.814 23.431 16.914 29.3l-19.401-5.291c-4.347-1.185-8.943-1.186-13.295.001l-19.401 5.291c10.1-5.869 16.912-16.801 16.912-29.3 0-18.677-15.195-33.872-33.872-33.872s-33.872 15.195-33.872 33.872 15.195 33.872 33.872 33.872c.074 0 .147-.005.222-.005l-136.174 37.063c-10.963 2.989-18.888 13.015-18.888 24.379v262.76c0 13.934 11.873 25.807 25.807 25.807h20.824l-45.109 82.429c-1.969 3.61-.833 8.121 2.576 10.417 3.889 2.619 9.341 1.483 11.583-2.625l7.092-12.8h350.158l7.091 12.734c2.245 4.115 7.688 5.302 11.583 2.693 3.414-2.288 4.542-6.745 2.576-10.35l-45.107-82.498h20.824c13.934 0 24.732-11.873 24.732-25.807v-172.046c0-4.455-3.61-8.065-8.065-8.065s-8.065 3.61-8.065 8.065v172.046c0 5.04-3.562 9.678-8.602 9.678h-344.092c-5.04 0-9.678-4.638-9.678-9.678v-262.76c0-4.11 3.038-7.737 7.004-8.818l172.178-46.921c1.575-.43 3.308-.429 4.879-.001l171.81 46.922c3.966 1.082 6.5 4.709 6.5 8.818v56.305c.001 4.455 3.611 8.065 8.066 8.065zm-145.701-177.423c9.783 0 17.742 7.959 17.742 17.742s-7.959 17.742-17.742 17.742-17.742-7.959-17.742-17.742 7.959-17.742 17.742-17.742zm-103.766 17.743c0-9.783 7.959-17.742 17.742-17.742s17.742 7.959 17.742 17.742-7.959 17.742-17.742 17.742c-9.782 0-17.742-7.96-17.742-17.742zm212.372 418.286 14.663 26.882h-332.562l14.663-26.882zm-284.467-34.409h265.699l9.971 18.28h-285.642z"/><path d="m263.807 340.328v-34.409c0-4.455-3.61-8.065-8.065-8.065s-8.065 3.61-8.065 8.065v34.409c0 4.455 3.61 8.065 8.065 8.065s8.065-3.61 8.065-8.065z"/><path d="m298.216 340.328v-34.409c0-4.455-3.61-8.065-8.065-8.065s-8.065 3.61-8.065 8.065v34.409c0 4.455 3.61 8.065 8.065 8.065s8.065-3.61 8.065-8.065z"/><path d="m332.626 340.328v-34.409c0-4.455-3.61-8.065-8.065-8.065s-8.065 3.61-8.065 8.065v34.409c0 4.455 3.61 8.065 8.065 8.065s8.065-3.61 8.065-8.065z"/><path d="m213.269 305.919v34.409c0 4.455 3.61 8.065 8.065 8.065s8.065-3.61 8.065-8.065v-34.409c0-4.455-3.61-8.065-8.065-8.065-4.456 0-8.065 3.61-8.065 8.065z"/><path d="m178.859 305.919v34.409c0 4.455 3.61 8.065 8.065 8.065s8.065-3.61 8.065-8.065v-34.409c0-4.455-3.61-8.065-8.065-8.065s-8.065 3.61-8.065 8.065z"/><path d="m418.648 142.322c0-3.637-2.166-6.824-5.673-7.78l-137.772-37.537c-5.048-1.381-10.322 2.553-10.322 7.78v158.123c0 4.455 4.147 8.602 8.602 8.602h137.637c4.455 0 7.527-4.147 7.527-8.602v-120.586zm-16.129 113.059h-121.507v-140.037l121.507 33.138z"/><path d="m246.603 262.908v-158.123c0-5.226-4.869-9.164-9.918-7.78l-137.772 37.537c-3.509.957-6.076 4.144-6.076 7.78v120.586c0 4.455 4.147 8.602 8.602 8.602h137.637c4.453 0 7.527-4.147 7.527-8.602zm-16.13-7.527h-121.507v-106.899l121.507-33.138z"/><path d="m153.053 383.34h206.455c4.455 0 8.065-3.61 8.065-8.065s-3.61-8.065-8.065-8.065h-206.455c-4.455 0-8.065 3.61-8.065 8.065s3.61 8.065 8.065 8.065z"/><path d="m400.627 370.264c-1.826-2.672-5.096-4.07-8.29-3.43-3.309.662-5.89 3.382-6.394 6.718-.503 3.33 1.209 6.711 4.174 8.296 3.046 1.628 6.897 1.086 9.386-1.301 2.768-2.657 3.274-7.088 1.124-10.283z"/><path d="m125.341 370.264c-3.979-6.054-13.602-3.799-14.672 3.288-.495 3.275 1.143 6.562 4.003 8.198 3.01 1.722 6.902 1.249 9.444-1.094 2.834-2.611 3.463-7.196 1.225-10.392z"/></svg>