<svg xmlns="http://www.w3.org/2000/svg" viewBox="0 0 512.01 512.01"><path d="M281.254 105.953h-50.5c-10.117 0-18.318 8.201-18.318 18.318 0 17.608 18.318 18.318 18.318 18.318 5.992 0 10.849 4.857 10.849 10.849v24.368h28.801v-24.368c0-5.992 4.857-10.849 10.849-10.849 0 0 18.318-.71 18.318-18.318.002-10.117-8.2-18.318-18.317-18.318z" fill="#F9E491"/><path d="M270.405 177.807v-24.368c0-5.992 4.857-10.849 10.849-10.849 0 0 7.592-.302 13.001-5.213a245.333 245.333 0 0 0-38.251-3.003 245.342 245.342 0 0 0-38.251 3.003c5.409 4.911 13.001 5.213 13.001 5.213 5.992 0 10.849 4.857 10.849 10.849v24.368h28.802z" fill="#F2DA77"/><path d="M256.005 164.374c-117.149 0-212.118 94.968-212.118 212.118h424.235c0-117.15-94.968-212.118-212.117-212.118z" fill="#EAEAEA"/><path d="M220.342 256.005c-10.047-65.334 39.089-84.132 65.703-89.504a213.803 213.803 0 0 0-30.04-2.127c-117.149 0-212.118 94.968-212.118 212.117H330.38c-51.543-33.584-103.404-77.346-110.038-120.486z" fill="#D8D7DA"/><path d="M483.747 344.737H28.262c-38.063 0-12.133 28.553-12.133 28.553a107.117 107.117 0 0 0 77.11 32.766H418.77a107.117 107.117 0 0 0 77.11-32.766s25.93-28.553-12.133-28.553z" fill="#F9E491"/><path d="M214.692 373.29s-25.93-28.553 12.133-28.553H28.262c-38.063 0-12.133 28.553-12.133 28.553a107.118 107.118 0 0 0 77.11 32.767h198.563a107.116 107.116 0 0 1-77.11-32.767z" fill="#F2DA77"/><path d="M510.62 348.993c-3.453-7.8-12.495-11.755-26.873-11.755h-11.625c-4.403-24.425-12.868-47.737-25.199-69.365a7.5 7.5 0 0 0-10.23-2.801 7.5 7.5 0 0 0-2.801 10.23 202.595 202.595 0 0 1 22.96 61.936H101.346a7.5 7.5 0 0 0 0 15h382.401c9.711 0 12.829 2.093 13.156 2.826.862 1.937-2.423 8.539-6.512 13.114-18.667 19.309-44.764 30.379-71.621 30.379H93.239c-26.863 0-52.964-11.074-71.631-30.389-4.022-4.466-7.356-11.173-6.502-13.103.324-.733 3.438-2.827 13.156-2.827h40.356a7.5 7.5 0 0 0 0-15H55.152c8.676-44.582 32.161-85.26 66.754-115.301 37.175-32.283 84.798-50.063 134.098-50.063 32.304 0 63.206 7.308 91.849 21.722 27.322 13.749 51.658 33.865 70.376 58.172a7.501 7.501 0 0 0 11.885-9.151c-20.083-26.081-46.196-47.666-75.518-62.42-24.214-12.185-49.931-19.618-76.691-22.238v-4.52c0-3.2 3.64-3.355 3.64-3.355 10.262-.397 25.528-7.6 25.528-25.813 0-14.236-11.582-25.818-25.818-25.818h-50.5c-14.236 0-25.818 11.582-25.818 25.818 0 18.213 15.267 25.415 25.528 25.812 0 0 3.639-.011 3.639 3.355v4.542c-44.984 4.504-87.668 22.787-122.033 52.63-37.863 32.881-63.319 77.646-72.172 126.627H28.262c-14.378 0-23.419 3.955-26.872 11.755-5.445 12.301 6.698 26.599 9.187 29.34l.153.164c21.483 22.282 51.557 35.061 82.509 35.061H418.77c30.951 0 61.024-12.779 82.51-35.06l.153-.164c2.49-2.742 14.632-17.04 9.187-29.34zM230.989 135.091c-.43-.035-11.114-.717-11.053-10.82.036-5.965 4.853-10.818 10.818-10.818h50.5c5.965 0 10.818 4.853 10.818 10.818 0 9.368-8.395 10.654-11.036 10.819-10.018.117-18.132 8.303-18.132 18.348v3.545c-2.294-.07-11.504-.06-13.801.012v-3.557c.001-10.039-8.104-18.221-18.114-18.347z"/></svg>