<svg xmlns="http://www.w3.org/2000/svg" viewBox="0 -46 511.99945 511"><path d="M210.125 310c-25.234375 25.226562-25.238281 66.132812-.011719 91.367188 25.226563 25.234374 66.132813 25.242187 91.363281.015624 25.234376-25.226562 25.242188-66.132812.015626-91.367187-.003907-.003906-.007813-.007813-.015626-.015625-25.550781-24.421875-65.796874-24.421875-91.351562 0zm68.515625 68.515625c-12.777344 12.207031-32.898437 12.207031-45.675781 0-12.617188-12.613281-12.621094-33.066406-.007813-45.683594 12.613281-12.617187 33.066407-12.621093 45.683594-.007812s12.621094 33.066406.007813 45.683593c-.003907.003907-.007813.003907-.007813.007813zm0 0M141.59375 241.472656c-6.414062 6.195313-6.589844 16.421875-.394531 22.835938 6.195312 6.417968 16.421875 6.59375 22.835937.398437.136719-.128906.269532-.261719.398438-.398437 50.496094-50.375 132.238281-50.375 182.738281 0 6.414063 6.199218 16.640625 6.019531 22.835937-.394532 6.046876-6.261718 6.046876-16.183593 0-22.441406-63.113281-62.976562-165.296874-62.976562-228.414062 0zm0 0"/><path d="M255.800781 97.253906c-68.574219-.1875-134.371093 27.070313-182.71875 75.703125-6.042969 6.5625-5.617187 16.78125.945313 22.820313 6.183594 5.691406 15.695312 5.691406 21.875 0 88.300781-88.308594 231.472656-88.316406 319.78125-.015625.007812.007812.011718.011719.015625.015625 6.199219 6.417968 16.421875 6.597656 22.839843.398437 6.417969-6.195312 6.59375-16.421875.398438-22.835937-.132812-.136719-.261719-.269532-.398438-.398438-48.355468-48.628906-114.160156-75.886718-182.738281-75.6875zm0 0"/><path d="M507.070312 104.410156c-138.863281-138.546875-363.671874-138.546875-502.535156 0-6.199218 6.417969-6.019531 16.640625.394532 22.839844 6.261718 6.042969 16.183593 6.042969 22.441406 0 126.257812-125.921875 330.601562-125.921875 456.859375 0 6.195312 6.414062 16.421875 6.59375 22.839843.394531 6.414063-6.195312 6.59375-16.421875.394532-22.835937-.128906-.136719-.261719-.269532-.394532-.398438zm0 0"/></svg>