<svg xmlns="http://www.w3.org/2000/svg" viewBox="0 0 937.5 937.5"><path d="M236.813 174.344a327.652 327.652 0 0 1 463.875 0c6.14 5.922 15.89 5.82 21.898-.219 6.023-6.035 6.101-15.785.164-21.902a358.882 358.882 0 0 0-508 0 15.6 15.6 0 0 0-4.277 15.183 15.615 15.615 0 0 0 26.34 6.938zm0 0"/><path d="M645.469 245.156c6.328 0 12.027-3.82 14.437-9.656a15.614 15.614 0 0 0-3.406-17.031c-49.773-49.836-117.316-77.844-187.75-77.844S330.773 168.633 281 218.469c-6.121 6.11-6.125 16.023-.02 22.136 6.122 6.122 16.02 6.13 22.145.02a234.11 234.11 0 0 1 165.684-68.719 234.106 234.106 0 0 1 165.687 68.719 15.625 15.625 0 0 0 10.973 4.531zm0 0"/><path d="M590.266 306.832c6.101-6.105 6.101-16.004 0-22.098-67.098-67.152-175.934-67.152-243.032 0-5.921 6.13-5.832 15.875.188 21.907 6.035 6.03 15.773 6.109 21.91.191 54.91-54.902 143.926-54.902 198.836 0 6.105 6.098 16.004 6.098 22.098 0zm-43.391 99.418c0-43.145-34.98-78.125-78.125-78.125s-78.125 34.98-78.125 78.125 34.98 78.125 78.125 78.125c43.125-.055 78.07-35 78.125-78.125zm-78.125 46.875c-25.883 0-46.875-20.992-46.875-46.875s20.992-46.875 46.875-46.875 46.875 20.992 46.875 46.875-20.992 46.875-46.875 46.875zM328.125 625c0-8.633-6.992-15.625-15.625-15.625h-46.875v-31.25H312.5c8.633 0 15.625-6.992 15.625-15.625s-6.992-15.625-15.625-15.625H250c-8.633 0-15.625 6.992-15.625 15.625v125c0 8.633 6.992 15.625 15.625 15.625s15.625-6.992 15.625-15.625v-46.875H312.5c8.633 0 15.625-6.992 15.625-15.625zm93.75 62.5c0 8.633 6.992 15.625 15.625 15.625s15.625-6.992 15.625-15.625a77.671 77.671 0 0 0-22.031-54.148c17.726-11.067 25.969-32.532 20.195-52.614-5.773-20.074-24.148-33.902-45.039-33.863H375c-8.633 0-15.625 6.992-15.625 15.625v125c0 8.633 6.992 15.625 15.625 15.625s15.625-6.992 15.625-15.625v-44.2c18.71 6.641 31.227 24.337 31.25 44.2zm-31.25-109.375h15.625c8.633 0 15.625 6.992 15.625 15.625s-6.992 15.625-15.625 15.625h-15.625zm171.875 0c8.633 0 15.625-6.992 15.625-15.625s-6.992-15.625-15.625-15.625H500c-8.633 0-15.625 6.992-15.625 15.625v125c0 8.633 6.992 15.625 15.625 15.625h62.5c8.633 0 15.625-6.992 15.625-15.625s-6.992-15.625-15.625-15.625h-46.875v-31.25H562.5c8.633 0 15.625-6.992 15.625-15.625s-6.992-15.625-15.625-15.625h-46.875v-31.25zm125 0c8.633 0 15.625-6.992 15.625-15.625s-6.992-15.625-15.625-15.625H625c-8.633 0-15.625 6.992-15.625 15.625v125c0 8.633 6.992 15.625 15.625 15.625h62.5c8.633 0 15.625-6.992 15.625-15.625s-6.992-15.625-15.625-15.625h-46.875v-31.25H687.5c8.633 0 15.625-6.992 15.625-15.625s-6.992-15.625-15.625-15.625h-46.875v-31.25zM250 734.375c-8.633 0-15.625 6.992-15.625 15.625v58.813l-1.64-3.297a16.28 16.28 0 0 0-27.97 0l-1.64 3.297V750c0-8.633-6.992-15.625-15.625-15.625s-15.625 6.992-15.625 15.625v125a15.637 15.637 0 0 0 12.035 15.227 15.64 15.64 0 0 0 17.574-8.243l17.266-34.547 17.266 34.547A15.638 15.638 0 0 0 250 890.625a16.83 16.83 0 0 0 3.594-.398A15.644 15.644 0 0 0 265.625 875V750c0-8.633-6.992-15.625-15.625-15.625zm109.375 31.25c8.633 0 15.625-6.992 15.625-15.625s-6.992-15.625-15.625-15.625h-62.5c-8.633 0-15.625 6.992-15.625 15.625s6.992 15.625 15.625 15.625H312.5v93.75h-15.625c-8.633 0-15.625 6.992-15.625 15.625s6.992 15.625 15.625 15.625h62.5c8.633 0 15.625-6.992 15.625-15.625s-6.992-15.625-15.625-15.625H343.75v-93.75zm281.25 0c8.633 0 15.625-6.992 15.625-15.625s-6.992-15.625-15.625-15.625h-62.5c-8.633 0-15.625 6.992-15.625 15.625v125c0 8.633 6.992 15.625 15.625 15.625S593.75 883.633 593.75 875v-46.875h46.875c8.633 0 15.625-6.992 15.625-15.625s-6.992-15.625-15.625-15.625H593.75v-31.25zm109.375 0c8.633 0 15.625-6.992 15.625-15.625s-6.992-15.625-15.625-15.625h-62.5c-8.633 0-15.625 6.992-15.625 15.625s6.992 15.625 15.625 15.625h15.625v93.75H687.5c-8.633 0-15.625 6.992-15.625 15.625s6.992 15.625 15.625 15.625H750c8.633 0 15.625-6.992 15.625-15.625s-6.992-15.625-15.625-15.625h-15.625v-93.75zm-234.375 31.25h-93.75c-8.633 0-15.625 6.992-15.625 15.625s6.992 15.625 15.625 15.625h93.75c8.633 0 15.625-6.992 15.625-15.625s-6.992-15.625-15.625-15.625zm0 0"/><path d="M890.625 0H46.875C20.992 0 0 20.992 0 46.875v843.75C0 916.508 20.992 937.5 46.875 937.5h843.75c25.883 0 46.875-20.992 46.875-46.875V46.875C937.5 20.992 916.508 0 890.625 0zm15.625 890.625c0 8.633-6.992 15.625-15.625 15.625H46.875c-8.633 0-15.625-6.992-15.625-15.625V46.875c0-8.633 6.992-15.625 15.625-15.625h843.75c8.633 0 15.625 6.992 15.625 15.625zm0 0"/></svg>