<svg xmlns="http://www.w3.org/2000/svg" width="512" height="512"><path d="M351.994 480h-80V318.469c34.938-3.562 67.656-17.906 93.219-42.594 60.313-58.297 64.375-207.5 7.375-270.594L367.807 0H144.15l-4.766 5.281c-56.984 63.094-52.89 212.312 7.423 270.594 25.531 24.688 58.25 39.031 93.188 42.594V480h-80c-8.844 0-16 7.156-16 16s7.156 16 16 16h192c8.844 0 16-7.156 16-16s-7.157-16-16.001-16zM158.76 32h194.453c41.063 53.766 36.406 175.797-10.25 220.859-46.844 45.266-127.047 45.329-173.906.016C122.4 207.797 117.697 85.766 158.76 32zm21.422 209.375c-23.313-22.531-34.594-68.828-33.313-113.375h218.25c1.312 44.563-9.969 90.844-33.281 113.359-38.719 37.453-112.922 37.453-151.656.016z"/></svg>