<svg xmlns="http://www.w3.org/2000/svg" viewBox="0 0 512.001 512.001"><path d="M354.598 237.626l-34.32-34.32a9.707 9.707 0 0 1 0-13.728l34.32-34.32a9.707 9.707 0 0 1 13.728 0l34.32 34.32a9.707 9.707 0 0 1 0 13.728l-34.32 34.32c-3.791 3.79-9.937 3.79-13.728 0z" fill="#FFCF65"/><path d="M211.348 46.328c-10.722 0-19.414-8.692-19.414-19.414S200.626 7.5 211.348 7.5s19.414 8.692 19.414 19.414-8.692 19.414-19.414 19.414z" fill="#8CE16E"/><path d="M465.672 285.121c0 8.041-6.519 14.561-14.561 14.561h-9.604l-78.955 95.459a138.276 138.276 0 0 1-213.104 0l-78.955-95.459h-9.604c-8.042 0-14.561-6.519-14.561-14.561 0-8.041 6.519-14.561 14.561-14.561h390.223c8.041.001 14.56 6.52 14.56 14.561z" fill="#B2B1B0"/><path d="M441.507 299.682l-78.955 95.459a138.276 138.276 0 0 1-213.104 0l-78.955-95.459h371.014z" fill="#736F7B"/><path d="M441.507 299.682l-78.955 95.459A138.276 138.276 0 0 1 256 445.287c-5.697 0-11.35-.364-16.936-1.053a138.27 138.27 0 0 0 89.616-49.093l78.955-95.459h33.872z" fill="#625D6B"/><path d="M181.075 209.619c1.508 1.508 1.549 3.969.042 5.478l-.028.028c-20.85 20.85-54.653 20.85-75.503 0s-20.85-54.653 0-75.503l.028-.028c1.509-1.506 3.97-1.466 5.478.042l69.983 69.983z" fill="#7DB764"/><path d="M162.899 191.443a24.441 24.441 0 0 1-3.088 3.776c-9.477 9.477-24.842 9.477-34.32 0-9.477-9.477-9.477-24.842 0-34.32a24.394 24.394 0 0 1 3.776-3.088l33.632 33.632z" fill="#8CE16E"/><path d="M316.396 18.359c1.508-1.508 3.969-1.549 5.478-.042l.028.028c20.85 20.85 20.85 54.653 0 75.503s-54.653 20.85-75.503 0l-.028-.028c-1.506-1.509-1.466-3.97.042-5.478l69.983-69.983z" fill="#FF4B4B"/><path d="M298.221 36.534c1.334.884 2.6 1.913 3.776 3.088 9.477 9.477 9.477 24.842 0 34.32s-24.842 9.477-34.32 0a24.394 24.394 0 0 1-3.088-3.776l33.632-33.632z" fill="#C83741"/><path d="M156.988 460.818v38.828a4.854 4.854 0 0 1-4.854 4.854H71.566a4.854 4.854 0 0 1-4.854-4.854v-38.828a4.854 4.854 0 0 1 4.854-4.854h80.568a4.855 4.855 0 0 1 4.854 4.854zm283.446-4.853h-80.568a4.854 4.854 0 0 0-4.854 4.854v38.828a4.854 4.854 0 0 0 4.854 4.854h80.568a4.854 4.854 0 0 0 4.854-4.854v-38.828a4.855 4.855 0 0 0-4.854-4.854z" fill="#D5945E"/><path d="M7.5 222.025c0-10.722 8.692-19.414 19.414-19.414s19.414 8.692 19.414 19.414-8.692 19.414-19.414 19.414S7.5 232.747 7.5 222.025zm477.586 19.414c10.722 0 19.414-8.692 19.414-19.414s-8.692-19.414-19.414-19.414-19.414 8.692-19.414 19.414 8.692 19.414 19.414 19.414zm14.56 185.405H12.354a4.854 4.854 0 0 0-4.854 4.854v38.828a4.854 4.854 0 0 0 4.854 4.854h487.293a4.854 4.854 0 0 0 4.854-4.854v-38.828a4.855 4.855 0 0 0-4.855-4.854z" fill="#E6AF78"/><path d="M504.5 431.697v38.828a4.854 4.854 0 0 1-4.854 4.854h-29.121a4.854 4.854 0 0 0 4.854-4.854v-38.828a4.854 4.854 0 0 0-4.854-4.854h29.121a4.855 4.855 0 0 1 4.854 4.854z" fill="#D5945E"/><path d="M309.935 196.442c0 4.597 1.791 8.918 5.04 12.166l34.32 34.321c3.354 3.354 7.761 5.031 12.167 5.031s8.813-1.678 12.167-5.031l34.32-34.32c6.708-6.709 6.708-17.624 0-24.335l-34.32-34.318c-3.249-3.25-7.57-5.041-12.167-5.041s-8.917 1.79-12.168 5.04l-34.319 34.319a17.098 17.098 0 0 0-5.04 12.168zm15.647-1.56l34.319-34.319c.534-.535 1.144-.647 1.561-.647s1.025.112 1.56.647l34.32 34.318c.86.86.86 2.261 0 3.121l-34.32 34.32a2.208 2.208 0 0 1-3.12.001l-34.32-34.321c-.534-.534-.646-1.143-.646-1.56s.111-1.026.646-1.56zM211.348 53.828c14.84 0 26.914-12.073 26.914-26.914S226.188 0 211.348 0s-26.914 12.073-26.914 26.914 12.073 26.914 26.914 26.914zm0-38.828c6.569 0 11.914 5.345 11.914 11.914s-5.345 11.914-11.914 11.914-11.914-5.345-11.914-11.914S204.778 15 211.348 15zm288.298 404.344H445.61c-4.143 0-7.5 3.357-7.5 7.5s3.357 7.5 7.5 7.5H497v33.535H15v-33.535h399.872c4.143 0 7.5-3.357 7.5-7.5s-3.357-7.5-7.5-7.5h-65.458c6.596-5.686 12.922-12.174 18.917-19.423l76.705-92.739h6.075c12.164 0 22.061-9.896 22.061-22.061 0-7.945-4.223-14.921-10.541-18.805l12.786-19.18a26.772 26.772 0 0 0 9.669 1.803c14.841 0 26.914-12.073 26.914-26.914s-12.073-26.914-26.914-26.914-26.914 12.073-26.914 26.914c0 5.99 1.968 11.527 5.29 16.003l-16.688 25.032H285.772V157.688c0-4.542 2.523-8.625 6.586-10.656a11.966 11.966 0 0 1 10.655 0 7.5 7.5 0 0 0 6.709-13.417c-7.535-3.769-16.535-3.771-24.072 0-9.177 4.587-14.878 13.812-14.878 24.072v105.372H256.65V126.276c0-4.143-3.358-7.5-7.5-7.5s-7.5 3.357-7.5 7.5V263.06h-14.12v-78.542c0-10.26-5.701-19.484-14.878-24.073-7.537-3.77-16.536-3.769-24.072 0a7.5 7.5 0 0 0-3.355 10.062 7.495 7.495 0 0 0 10.062 3.354 11.971 11.971 0 0 1 10.656 0 11.849 11.849 0 0 1 6.586 10.657v78.542H63.285l-15.802-23.703c3.955-4.686 6.346-10.734 6.346-17.332 0-14.841-12.074-26.914-26.914-26.914S0 207.185 0 222.025s12.074 26.914 26.914 26.914c2.821 0 5.541-.438 8.098-1.247l13.015 19.522c-5.565 4.009-9.199 10.539-9.199 17.906 0 12.164 9.896 22.061 22.061 22.061h6.074l76.706 92.739c5.99 7.242 12.32 13.728 18.929 19.423H12.354C5.542 419.344 0 424.886 0 431.697v38.828c0 6.812 5.542 12.354 12.354 12.354h46.859v16.768c0 6.812 5.542 12.354 12.354 12.354h80.568c6.812 0 12.354-5.542 12.354-12.354v-16.768h183.023v16.768c0 6.812 5.542 12.354 12.354 12.354h80.568c6.812 0 12.354-5.542 12.354-12.354v-16.768h46.859c6.812 0 12.354-5.542 12.354-12.354v-38.828c-.001-6.811-5.543-12.353-12.355-12.353zm-14.56-209.233c6.569 0 11.914 5.345 11.914 11.914s-5.345 11.914-11.914 11.914-11.914-5.345-11.914-11.914 5.345-11.914 11.914-11.914zM15 222.025c0-6.569 5.345-11.914 11.914-11.914s11.914 5.345 11.914 11.914-5.345 11.914-11.914 11.914S15 228.595 15 222.025zm38.828 63.096a7.068 7.068 0 0 1 7.061-7.061h390.223c3.894 0 7.061 3.167 7.061 7.061s-3.167 7.061-7.061 7.061H60.889a7.069 7.069 0 0 1-7.061-7.061zm133.924 134.133c-11.426-6.99-22.672-16.98-32.525-28.894l-68.798-83.179H425.57l-68.797 83.179c-9.713 11.744-20.756 21.609-31.934 28.529a7.41 7.41 0 0 0-.652.454H187.883c-.045-.028-.085-.061-.131-.089zM149.488 497H74.213v-14.121h75.275V497zm288.299 0h-75.275v-14.121h75.275V497zM143.338 238.232c15.592 0 31.185-5.935 43.055-17.804l.05-.051.013-.013c4.386-4.427 4.355-11.617-.077-16.05l-18.146-18.146-.031-.031-33.623-33.624-.039-.039-18.143-18.143h-.001c-4.435-4.435-11.631-4.461-16.057-.067l-.054.053c-23.741 23.741-23.741 62.37 0 86.111 11.868 11.87 27.461 17.804 43.053 17.804zm-14.255-69.998l23.393 23.394a16.63 16.63 0 0 1-9.825 3.2 16.653 16.653 0 0 1-11.856-4.912 16.654 16.654 0 0 1-4.911-11.855c0-3.584 1.133-6.985 3.199-9.827zm-20.651-20.652l9.968 9.968c-4.86 5.728-7.516 12.913-7.516 20.51 0 8.485 3.305 16.463 9.305 22.462 6 6.001 13.978 9.306 22.463 9.306 7.597 0 14.782-2.656 20.51-7.515l9.968 9.968c-18.008 15.394-45.207 14.575-62.239-2.458-17.033-17.033-17.852-44.231-2.459-62.241zm132.607-48.488l.057.058c11.87 11.869 27.462 17.805 43.055 17.805s31.185-5.936 43.056-17.806c23.739-23.74 23.739-62.369 0-86.109l-.089-.088c-4.426-4.359-11.598-4.322-16.024.102l-18.149 18.149-.027.027-33.626 33.626-.039.039-18.143 18.141c-4.434 4.435-4.463 11.63-.071 16.056zm60.565-42.312c0 4.479-1.744 8.688-4.912 11.856a16.656 16.656 0 0 1-11.855 4.911 16.622 16.622 0 0 1-9.825-3.2l23.393-23.393a16.635 16.635 0 0 1 3.199 9.826zm-37.277 24.252c5.729 4.86 12.913 7.515 20.51 7.515 8.485 0 16.463-3.305 22.462-9.305 6.001-6 9.306-13.978 9.306-22.463 0-7.596-2.656-14.781-7.516-20.51l9.968-9.968c15.393 18.01 14.573 45.208-2.457 62.239-17.03 17.032-44.229 17.853-62.24 2.458l9.967-9.966zm-138.136 4.122a7.5 7.5 0 0 1 7.5-7.5h11.014l-6.61-6.61a7.5 7.5 0 0 1-2.197-5.304V46.328c0-4.143 3.358-7.5 7.5-7.5s7.5 3.357 7.5 7.5v16.308l17.216 17.216.003.003 6.609 6.609V75.449c0-4.143 3.358-7.5 7.5-7.5s7.5 3.357 7.5 7.5v26.014l17.217 17.217a7.5 7.5 0 0 1-10.606 10.607l-36.632-36.632h-26.014a7.498 7.498 0 0 1-7.5-7.499zm235.165 44.132a7.5 7.5 0 0 1 0-10.607l19.414-19.414 17.217-17.217V65.742c0-4.143 3.357-7.5 7.5-7.5s7.5 3.357 7.5 7.5v19.414c0 1.989-.79 3.896-2.196 5.304l-6.61 6.61h11.014c4.143 0 7.5 3.357 7.5 7.5s-3.357 7.5-7.5 7.5h-26.014l-17.218 17.218c-1.465 1.464-3.385 2.196-5.304 2.196s-3.838-.732-5.303-2.196z"/></svg>