<svg height="700pt" preserveAspectRatio="xMidYMid meet" viewBox="0 0 700 700" width="700pt" xmlns="http://www.w3.org/2000/svg"><g transform="matrix(.1 0 0 -.1 0 700)"><path d="m81 6982c-19-9-44-30-55-45-21-28-21-34-21-935 0-983-1-963 56-1107 33-85 59-132 115-205 77-101 210-211 303-250l31-12v-2042c0-2185-2-2074 48-2172 28-56 112-136 174-167 254-127 552 35 589 321 4 37 8 965 9 2063v1995l47 23c206 100 371 310 433 552 22 83 22 90 21 989-2 1005 2 948-70 988-63 36-117 25-171-33l-25-27-3-764-2-764h-125-125v753c0 709-1 754-18 786-21 40-73 71-117 71-40 0-90-32-115-72-19-32-20-52-20-785v-753h-125-125v753c0 709-1 754-18 786-21 40-73 71-117 71-40 0-90-32-115-72-19-32-20-52-20-785v-753h-125-125v756c0 741 0 757-20 789-22 35-73 65-112 65-12 0-38-8-57-18zm1463-1909c-3-21-23-75-44-119-55-119-147-210-266-264-134-61-136-63-158-100-21-35-21-40-26-2138l-5-2104-37-33c-47-44-95-53-144-29-21 11-47 32-58 47l-21 28-5 2104-5 2104-21 28c-21 28-29 33-164 97-89 42-164 105-215 181-39 60-78 149-88 203l-6 32h635 635z"/><path d="m6800 6978c-102-52-313-231-447-379-354-392-568-869-624-1394-8-76-12-426-13-1125l-1-1015 23-75c47-148 82-200 270-391l172-176v-1015c0-638 4-1035 10-1069 40-216 252-367 461-330 175 30 307 159 339 330 7 35 10 1167 10 3300 0 3071-1 3248-18 3280-37 74-109 97-182 59zm-72-3505c-3-2986-4-3109-21-3135-28-41-67-62-117-62s-89 21-117 62c-17 26-18 84-23 1113-5 1062-5 1087-25 1110-10 13-97 103-191 199s-181 193-192 215c-55 110-53 65-49 1197 3 1018 4 1046 25 1153 45 233 105 411 202 605 66 132 172 296 255 396 68 81 236 254 247 254 5 0 7-1398 6-3107z"/><path d="m3295 6104c-16-2-73-9-125-15-263-30-616-137-834-252-46-25-63-40-77-72-10-22-19-48-19-57 0-38 33-98 65-118 52-32 96-26 218 31 209 97 480 172 717 199 121 14 397 14 520 0 274-30 535-107 785-232 213-107 394-236 597-427 97-90 109-97 173-92s115 66 115 137c0 55-33 98-164 217-403 364-863 582-1401 663-95 14-503 27-570 18z"/><path d="m3200 5420c-328-56-616-178-874-372-104-79-295-270-374-374-260-346-392-740-392-1174s132-828 392-1174c79-104 270-295 374-374 346-260 740-392 1174-392s828 132 1174 392c104 79 295 270 374 374 260 346 392 740 392 1174 0 302-53 544-178 815-98 213-215 380-391 556-304 304-649 479-1081 550-153 25-439 24-590-1zm545-271c662-100 1208-593 1370-1239 37-151 49-244 49-410 0-324-81-608-247-875-262-422-683-698-1182-776-103-16-367-16-470 0-359 56-660 204-919 451-266 254-438 587-497 965-16 103-16 367 0 470 79 502 355 921 783 1187 220 136 456 212 753 242 60 6 281-3 360-15z"/><path d="m3456 4750c-109-33-128-182-32-245 33-22 103-22 143-1 84 43 87 188 5 230-39 20-83 26-116 16z"/><path d="m2990 4647c-309-128-574-423-685-763-54-165-75-390-42-451 46-86 189-87 233-1 10 18 20 74 25 134 17 218 86 392 219 557 90 111 176 179 325 259 93 50 101 56 119 101 20 47 20 47 0 95-15 38-28 51-64 70-54 27-61 27-130-1z"/><path d="m5405 2099c-40-12-45-17-161-149-373-423-880-691-1449-765-139-18-421-21-551-5-355 42-649 142-951 322-72 43-96 53-133 52-81-1-130-53-130-137 0-70 28-100 172-182 326-186 669-294 1067-336 138-14 452-6 599 15 619 92 1183 395 1582 850 127 145 148 192 114 258-18 35-61 78-78 78-6 0-20 2-31 4-11 3-33 0-50-5z"/><path d="m1683 1870c-99-60-83-218 27-251 53-16 103-4 145 35 32 30 35 38 35 89 0 45-5 61-26 87-52 61-122 77-181 40z"/></g></svg>