<?xml version="1.0" encoding="utf-8"?><svg xmlns="http://www.w3.org/2000/svg" xmlns:xlink="http://www.w3.org/1999/xlink"><symbol viewBox="0 0 297.81 297.81" id="24-hours" xmlns="http://www.w3.org/2000/svg"><path d="M141.592 76.897v91h58v-16h-42v-75z"/><path d="M297.81 149.866c0-76.252-62.121-138.271-138.372-138.271-68.394 0-125.319 50.302-136.331 115.302H.897l38.302 66 39.424-66H55.664c10.506-48 53.096-83.302 103.848-83.302 58.605 0 106.298 47.673 106.298 106.278 0 50.642-36.218 93.111-83.218 103.721v32.621c65-11.013 115.218-67.957 115.218-136.349zM24.388 271.749l10.175-10.817c6.611-7.195 11.147-12.58 13.609-16.229 2.462-3.65 3.693-7.83 3.693-12.582 0-7.059-2.316-12.608-6.947-16.673-4.631-4.061-11.078-6.091-19.342-6.091-7.783 0-14.032 2.424-18.749 7.26-4.718 4.838-6.991 10.874-6.818 17.829l.104.45h17.044c0-4 .749-6.413 2.247-8.634 1.498-2.223 3.555-3.401 6.173-3.401 2.926 0 5.121.826 6.584 2.549 1.464 1.721 2.195 4.01 2.195 6.904 0 2.031-.723 4.415-2.169 7.169-1.446 2.756-3.531 5.884-6.593 9.398L1.592 274.288v11.609h52v-14H24.543l-.155-.148z"/><path d="M101.592 210.897h-17v-.293L54.24 259.185l.844 10.712h29.508v16h17v-16h8v-13h-8v-46zm-17 46H69.65l12.913-21.485 1.531-2.259.498-.029v23.773zm82 29v-32.373c0-2.406.06-4.613-.206-6.66-.674-5.16-2.073-9.203-4.438-12.088-3.307-4.029-7.799-6.043-13.584-6.043-2.927 0-5.388.697-7.816 2.092s-4.956 3.35-5.956 5.863v-26.791h-18v76h18v-40.895c0-.895 1.669-1.592 2.91-2.092 1.238-.498 2.607-.748 4.294-.748 2.652 0 4.596.809 5.887 2.426 1.292 1.619 1.909 4.563 1.909 8.834v32.475h17z"/></symbol><symbol viewBox="0 0 492 492" id="arrow-left" xmlns="http://www.w3.org/2000/svg"><path d="M198.608 246.104L382.664 62.04c5.068-5.056 7.856-11.816 7.856-19.024 0-7.212-2.788-13.968-7.856-19.032l-16.128-16.12C361.476 2.792 354.712 0 347.504 0s-13.964 2.792-19.028 7.864L109.328 227.008c-5.084 5.08-7.868 11.868-7.848 19.084-.02 7.248 2.76 14.028 7.848 19.112l218.944 218.932c5.064 5.072 11.82 7.864 19.032 7.864 7.208 0 13.964-2.792 19.032-7.864l16.124-16.12c10.492-10.492 10.492-27.572 0-38.06L198.608 246.104z" fill="#FFF"/></symbol><symbol viewBox="0 0 451.846 451.847" id="arrow-right" xmlns="http://www.w3.org/2000/svg"><path d="M345.441 248.292L151.154 442.573c-12.359 12.365-32.397 12.365-44.75 0-12.354-12.354-12.354-32.391 0-44.744L278.318 225.92 106.409 54.017c-12.354-12.359-12.354-32.394 0-44.748 12.354-12.359 32.391-12.359 44.75 0l194.287 194.284c6.177 6.18 9.262 14.271 9.262 22.366 0 8.099-3.091 16.196-9.267 22.373z" fill="#FFF"/></symbol><symbol viewBox="0 0 387.039 387.039" id="baby" xmlns="http://www.w3.org/2000/svg"><circle cx="112.809" cy="233.169" r="15.368"/><circle cx="274.229" cy="233.169" r="15.368"/><path d="M387.039 226.647c0-22.261-16.136-40.811-37.324-44.602v-6.717c0-86.127-70.069-156.196-156.195-156.196-86.127 0-156.196 70.069-156.196 156.196v6.717C16.136 185.837 0 204.387 0 226.647c0 22.453 16.414 41.134 37.871 44.7 3.02 34.414 18.765 59.834 46.942 75.653 25.058 14.068 60.615 20.906 108.707 20.906 48.091 0 83.649-6.839 108.707-20.906 28.176-15.819 43.921-41.238 46.941-75.653 21.457-3.565 37.871-22.247 37.871-44.7zm-371.039 0c0-13.395 9.032-24.713 21.323-28.205v56.41C25.032 251.361 16 240.043 16 226.647zm317.715 32.11c0 35.135-12.862 59.436-39.321 74.291-22.603 12.69-55.599 18.858-100.874 18.858s-78.272-6.168-100.874-18.858c-26.46-14.855-39.322-39.156-39.322-74.291v-83.429c0-63.309 42.185-116.941 99.918-134.29 43.983.556 67.407 32.306 67.407 55.296 0 17.608-14.325 31.934-31.934 31.934-13.204 0-23.947-10.743-23.947-23.947 0-9.681 7.876-17.558 17.558-17.558a8 8 0 0 0 0-16c-18.504 0-33.558 15.054-33.558 33.558 0 22.027 17.92 39.947 39.947 39.947 26.431 0 47.934-21.503 47.934-47.934 0-16.605-8.343-34.47-22.317-47.79-5.59-5.328-11.95-9.807-18.89-13.387 76.42 1.034 138.273 63.51 138.273 140.171v83.429zm16-3.904v-56.41c12.292 3.492 21.324 14.81 21.324 28.205s-9.033 24.713-21.324 28.205z"/><path d="M224.459 255.203c-17.059 17.061-44.82 17.061-61.879 0a8 8 0 0 0-11.314 11.314c11.649 11.649 26.952 17.474 42.254 17.474s30.604-5.825 42.254-17.474a8 8 0 0 0-11.315-11.314z"/></symbol><symbol viewBox="0 0 511.626 511.626" id="chat" xmlns="http://www.w3.org/2000/svg"><path d="M477.371 127.44c-22.843-28.074-53.871-50.249-93.076-66.523-39.204-16.272-82.035-24.41-128.478-24.41-34.643 0-67.762 4.805-99.357 14.417-31.595 9.611-58.812 22.602-81.653 38.97-22.845 16.37-41.018 35.832-54.534 58.385C6.757 170.833 0 194.484 0 219.228c0 28.549 8.61 55.3 25.837 80.234 17.227 24.931 40.778 45.871 70.664 62.811-2.096 7.611-4.57 14.846-7.426 21.693-2.855 6.852-5.424 12.474-7.708 16.851-2.286 4.377-5.376 9.233-9.281 14.562-3.899 5.328-6.849 9.089-8.848 11.275-1.997 2.19-5.28 5.812-9.851 10.849-4.565 5.048-7.517 8.329-8.848 9.855-.193.089-.953.952-2.285 2.567-1.331 1.615-1.999 2.423-1.999 2.423l-1.713 2.566c-.953 1.431-1.381 2.334-1.287 2.707.096.373-.094 1.331-.57 2.851-.477 1.526-.428 2.669.142 3.433v.284c.765 3.429 2.43 6.187 4.998 8.277 2.568 2.092 5.474 2.95 8.708 2.563 12.375-1.522 23.223-3.606 32.548-6.276 49.87-12.758 93.649-35.782 131.334-69.097 14.272 1.522 28.072 2.286 41.396 2.286 46.442 0 89.271-8.138 128.479-24.417 39.208-16.272 70.233-38.448 93.072-66.517 22.843-28.062 34.263-58.663 34.263-91.781.001-33.119-11.418-63.718-34.254-91.787z"/></symbol><symbol viewBox="0 0 97.16 97.16" id="clock-circular-outline" xmlns="http://www.w3.org/2000/svg"><path d="M48.58 0C21.793 0 0 21.793 0 48.58s21.793 48.58 48.58 48.58 48.58-21.793 48.58-48.58S75.367 0 48.58 0zm0 86.823c-21.087 0-38.244-17.155-38.244-38.243S27.493 10.337 48.58 10.337 86.824 27.492 86.824 48.58 69.667 86.823 48.58 86.823z"/><path d="M73.898 47.08H52.066V20.83a4 4 0 0 0-8 0v30.25a4 4 0 0 0 4 4h25.832a4 4 0 0 0 0-8z"/></symbol><symbol viewBox="0 0 484.184 484.184" id="dollar" xmlns="http://www.w3.org/2000/svg"><path d="M309.43 219.944c-19-10.5-39.2-18.5-59.2-26.8-11.6-4.8-22.7-10.4-32.5-18.2-19.3-15.4-15.6-40.4 7-50.3 6.4-2.8 13.1-3.7 19.9-4.1 26.2-1.4 51.1 3.4 74.8 14.8 11.8 5.7 15.7 3.9 19.7-8.4 4.2-13 7.7-26.2 11.6-39.3 2.6-8.8-.6-14.6-8.9-18.3-15.2-6.7-30.8-11.5-47.2-14.1-21.4-3.3-21.4-3.4-21.5-24.9-.1-30.3-.1-30.3-30.5-30.3-4.4 0-8.8-.1-13.2 0-14.2.4-16.6 2.9-17 17.2-.2 6.4 0 12.8-.1 19.3-.1 19-.2 18.7-18.4 25.3-44 16-71.2 46-74.1 94-2.6 42.5 19.6 71.2 54.5 92.1 21.5 12.9 45.3 20.5 68.1 30.6 8.9 3.9 17.4 8.4 24.8 14.6 21.9 18.1 17.9 48.2-8.1 59.6-13.9 6.1-28.6 7.6-43.7 5.7-23.3-2.9-45.6-9-66.6-19.9-12.3-6.4-15.9-4.7-20.1 8.6-3.6 11.5-6.8 23.1-10 34.7-4.3 15.6-2.7 19.3 12.2 26.6 19 9.2 39.3 13.9 60 17.2 16.2 2.6 16.7 3.3 16.9 20.1.1 7.6.1 15.3.2 22.9.1 9.6 4.7 15.2 14.6 15.4 11.2.2 22.5.2 33.7-.1 9.2-.2 13.9-5.2 13.9-14.5 0-10.4.5-20.9.1-31.3-.5-10.6 4.1-16 14.3-18.8 23.5-6.4 43.5-19 58.9-37.8 42.8-52 26.5-128.1-34.1-161.6z"/></symbol><symbol viewBox="0 0 90 90" id="facebook" xmlns="http://www.w3.org/2000/svg"><path d="M90 15.001C90 7.119 82.884 0 75 0H15C7.116 0 0 7.119 0 15.001v59.998C0 82.881 7.116 90 15.001 90H45V56H34V41h11v-5.844C45 25.077 52.568 16 61.875 16H74v15H61.875C60.548 31 59 32.611 59 35.024V41h15v15H59v34h16c7.884 0 15-7.119 15-15.001V15.001z"/></symbol><symbol viewBox="0 0 512 512" id="gift" xmlns="http://www.w3.org/2000/svg"><path d="M32 271.692v192c0 17.664 14.368 32 32 32h160v-224H32zm448-128H378.752c7.264-4.96 13.504-9.888 17.856-14.304 25.824-25.952 25.824-68.192 0-94.144-25.088-25.28-68.8-25.216-93.856 0-13.888 13.92-50.688 70.592-45.6 108.448h-2.304c5.056-37.856-31.744-94.528-45.6-108.448-25.088-25.216-68.8-25.216-93.856 0-25.792 25.952-25.792 68.192-.032 94.144 4.384 4.416 10.624 9.344 17.888 14.304H32c-17.632 0-32 14.368-32 32v48c0 8.832 7.168 16 16 16h208v-64h64v64h208c8.832 0 16-7.168 16-16v-48c0-17.632-14.336-32-32-32zm-257.888-1.056s-1.344 1.056-5.92 1.056c-22.112 0-64.32-22.976-78.112-36.864-13.408-13.504-13.408-35.52 0-49.024 6.496-6.528 15.104-10.112 24.256-10.112 9.12 0 17.728 3.584 24.224 10.112 21.568 21.696 43.008 77.12 35.552 84.832zm73.664 1.056c-4.544 0-5.888-1.024-5.888-1.056-7.456-7.712 13.984-63.136 35.552-84.832 12.896-13.024 35.456-13.088 48.48 0 13.44 13.504 13.44 35.52 0 49.024-13.792 13.888-56 36.864-78.144 36.864zm-7.776 128v224h160c17.664 0 32-14.336 32-32v-192H288z"/></symbol><symbol viewBox="0 0 60 60" id="global" xmlns="http://www.w3.org/2000/svg"><path d="M47.007 5.305l.049-.032-1.323-.816c-.078-.048-.16-.088-.238-.136a30.705 30.705 0 0 0-1.323-.754c-.227-.122-.457-.237-.687-.353a29.078 29.078 0 0 0-1.022-.492c-.203-.093-.405-.188-.609-.276a29.737 29.737 0 0 0-1.626-.648c-.113-.041-.228-.076-.342-.116A30.211 30.211 0 0 0 36.305.674c-.053-.011-.104-.025-.157-.036a29.393 29.393 0 0 0-1.865-.325c-.138-.02-.278-.035-.416-.053a30.133 30.133 0 0 0-1.483-.154c-.168-.013-.335-.028-.503-.038A27.927 27.927 0 0 0 30 0a30.32 30.32 0 0 0-2.557.116c-.631.053-1.258.121-1.878.214l-.186.026a29.606 29.606 0 0 0-2.454.494c-.562.136-1.118.285-1.667.452-.174.053-.346.111-.518.167-.492.16-.979.333-1.459.518a29.434 29.434 0 0 0-2.291.984c-.176.085-.349.18-.524.269-.418.212-.83.433-1.236.664-.203.115-.405.229-.606.349-.508.305-1.007.623-1.495.956-.067.046-.138.084-.204.131l-.545.378.005.022C4.887 11.197 0 20.036 0 30c0 16.542 13.458 30 30 30s30-13.458 30-30c0-10.231-5.152-19.278-12.993-24.695zM30 58C14.561 58 2 45.439 2 30c0-9.077 4.345-17.156 11.061-22.275.177.397.358.807.546 1.235 1.967 4.485 4.415 10.066 8.508 11.636 1.077.413 2.082.56 3.053.7 1.026.149 1.995.29 2.937.752.076.037.233.159.273.209.357.524.454 1.248.547 1.948.129.966.275 2.061 1.253 2.578.318.169.596.509.453.86-1.553 3.812-.242 8.191 3.341 11.157.918.76 1.356 2.842-1.772 8.442a2.484 2.484 0 0 0 .023 2.49A2.551 2.551 0 0 0 34.41 51c.29 0 .58-.051.86-.15 2.165-.77 4.006-1.888 6.157-3.739 1.485-1.276 2.392-2.575 3.27-3.832.886-1.269 1.724-2.468 3.097-3.479.2-.146.348-.345.427-.575.108-.316.25-.688.406-1.098 1.028-2.696 2.582-6.771-.174-8.204-.991-.515-1.688-1.702-2.497-3.077-.63-1.073-1.345-2.289-2.316-3.311-.376-.395-.906-.646-1.53-.727-.86-.11-1.547-.443-2.213-.765-.721-.349-1.402-.678-2.199-.678-.636 0-1.226.211-1.802.644-.692.522-1.402.223-1.658-.661-.194-.671-.599-1.495-2.012-1.931a.238.238 0 0 1-.143-.131.404.404 0 0 1-.003-.325c.175-.478.124-.951-.144-1.336-.459-.658-1.333-.751-1.974-.756a1.047 1.047 0 0 0-.102-.258l-.295-.527-.917.02-.235.139c-.255.148-.566.043-.818-.221a1.104 1.104 0 0 1-.317-.79c.01-.229.025-.359.038-.434.245-.072.83-.138 1.398-.201l.607-.069.147-.068c1.618-.751 1.854-.419 1.991-.277.132.136.434.603.395 2.01l-.025.888.878.13c.257.038.493.056.708.056 1.057 0 1.613-.445 1.894-.82.474-.632.541-1.5.204-2.653a.637.637 0 0 1 .115-.547c2.766-3.599 5.087-5.255 9.507-6.783C52.866 11.449 58 20.134 58 30c0 15.439-12.561 28-28 28z"/></symbol><symbol viewBox="0 0 510 510" id="heart" xmlns="http://www.w3.org/2000/svg"><path d="M255 489.6l-35.7-35.7C86.7 336.6 0 257.55 0 160.65 0 81.6 61.2 20.4 140.25 20.4c43.35 0 86.7 20.4 114.75 53.55C283.05 40.8 326.4 20.4 369.75 20.4 448.8 20.4 510 81.6 510 160.65c0 96.9-86.7 175.95-219.3 293.25L255 489.6z"/></symbol><symbol viewBox="0 0 438.536 438.536" id="instagram" xmlns="http://www.w3.org/2000/svg"><path d="M421.981 16.562C410.941 5.519 397.711 0 382.298 0H56.248C40.83 0 27.604 5.521 16.561 16.562 5.52 27.6.001 40.828.001 56.243V382.29c0 15.413 5.518 28.644 16.56 39.683 11.043 11.04 24.272 16.563 39.687 16.563h326.046c15.41 0 28.644-5.523 39.684-16.563 11.043-11.039 16.557-24.27 16.557-39.683V56.243c-.001-15.418-5.514-28.639-16.554-39.681zM157.462 158.025c17.224-16.652 37.924-24.982 62.097-24.982 24.36 0 45.153 8.33 62.381 24.982 17.228 16.655 25.837 36.785 25.837 60.386 0 23.598-8.609 43.729-25.837 60.379-17.228 16.659-38.014 24.988-62.381 24.988-24.172 0-44.87-8.336-62.097-24.988-17.228-16.652-25.841-36.781-25.841-60.379 0-23.601 8.613-43.73 25.841-60.386zm231.403 212.564c0 4.945-1.718 9.083-5.141 12.416-3.433 3.33-7.519 4.996-12.282 4.996h-305.2c-4.948 0-9.091-1.666-12.419-4.996-3.333-3.326-4.998-7.471-4.998-12.416V185.575H89.08c-3.805 11.993-5.708 24.462-5.708 37.402 0 36.553 13.322 67.715 39.969 93.511 26.65 25.786 58.721 38.685 96.217 38.685 24.744 0 47.583-5.903 68.527-17.703 20.937-11.807 37.486-27.839 49.676-48.112 12.183-20.272 18.274-42.4 18.274-66.38 0-12.94-1.91-25.406-5.715-37.402h38.547V370.59h-.002zm0-254.963c0 5.52-1.903 10.184-5.716 13.99-3.805 3.809-8.466 5.711-13.989 5.711h-49.676c-5.517 0-10.185-1.903-13.99-5.711-3.806-3.806-5.708-8.47-5.708-13.99V68.522c0-5.33 1.902-9.945 5.708-13.848 3.806-3.901 8.474-5.854 13.99-5.854h49.676c5.523 0 10.185 1.952 13.989 5.854 3.812 3.903 5.716 8.518 5.716 13.848v47.104z"/></symbol><symbol viewBox="0 0 496 496" id="loading" xmlns="http://www.w3.org/2000/svg"><circle cx="248" cy="24" r="24" fill="#383a39"/><circle cx="248" cy="472" r="24" fill="#eceeee"/><circle cx="136" cy="53.6" r="24" fill="#77807f"/><path fill="#f2f4f4" d="M380.8 430.4c6.4 11.2 2.4 25.6-8.8 32.8-11.2 6.4-25.6 2.4-32.8-8.8-6.4-11.2-2.4-25.6 8.8-32.8 11.2-6.4 26.4-2.4 32.8 8.8z"/><path fill="#9faaa9" d="M65.6 115.2c11.2 6.4 15.2 20.8 8.8 32.8-6.4 11.2-20.8 15.2-32.8 8.8-11.2-6.4-15.2-20.8-8.8-32.8s21.6-15.2 32.8-8.8z"/><path fill="#f2f7f7" d="M454.4 339.2c11.2 6.4 15.2 20.8 8.8 32.8-6.4 11.2-20.8 15.2-32.8 8.8-11.2-6.4-15.2-20.8-8.8-32.8 6.4-11.2 20.8-15.2 32.8-8.8z"/><circle cx="24" cy="248" r="24" fill="#b2bbba"/><circle cx="472" cy="248" r="24" fill="#fff"/><path fill="#c5cccb" d="M41.6 339.2c11.2-6.4 25.6-2.4 32.8 8.8 6.4 11.2 2.4 25.6-8.8 32.8-11.2 6.4-25.6 2.4-32.8-8.8s-2.4-25.6 8.8-32.8z"/><path d="M430.4 115.2c11.2-6.4 25.6-2.4 32.8 8.8 6.4 11.2 2.4 25.6-8.8 32.8-11.2 6.4-25.6 2.4-32.8-8.8-6.4-11.2-2.4-26.4 8.8-32.8z"/><path fill="#d9dddd" d="M115.2 430.4c6.4-11.2 20.8-15.2 32.8-8.8 11.2 6.4 15.2 20.8 8.8 32.8-6.4 11.2-20.8 15.2-32.8 8.8-11.2-7.2-15.2-21.6-8.8-32.8z"/><path fill="#111" d="M339.2 41.6c6.4-11.2 20.8-15.2 32.8-8.8 11.2 6.4 15.2 20.8 8.8 32.8-6.4 11.2-20.8 15.2-32.8 8.8-11.2-6.4-15.2-20.8-8.8-32.8z"/></symbol><symbol viewBox="0 0 210.947 210.947" id="logo" xmlns="http://www.w3.org/2000/svg"><path d="M105.434 34.254c-39.272 0-71.221 31.949-71.221 71.221 0 39.271 31.949 71.22 71.221 71.22 39.273 0 71.223-31.949 71.223-71.22.001-39.272-31.95-71.221-71.223-71.221zm0 135.691c-35.549 0-64.471-28.921-64.471-64.47s28.921-64.471 64.471-64.471 64.473 28.921 64.473 64.471c0 35.549-28.923 64.47-64.473 64.47z"/><path d="M105.434 53.638c-28.581 0-51.834 23.253-51.834 51.837 0 28.584 23.252 51.84 51.834 51.84 28.583 0 51.837-23.255 51.837-51.84.002-28.583-23.253-51.837-51.837-51.837zm0 96.927c-24.859 0-45.084-20.227-45.084-45.09 0-24.861 20.224-45.087 45.084-45.087 24.861 0 45.087 20.225 45.087 45.087.002 24.863-20.224 45.09-45.087 45.09zm101.262-43.552c-.004-1.687-.059-18.491-.555-35.09-.306-10.262-.72-18.452-1.228-24.343-.313-3.634-.657-6.358-1.05-8.329-.342-1.716-1.143-5.735-4.625-5.735-.254 0-.508.026-.756.078-2.155.446-3.623 2.133-6.623 10.944-1.863 5.475-3.91 12.644-5.764 20.19-2.205 8.977-7.201 31.14-5.98 43.043.801 7.811 4.332 9.45 7.154 9.45l.164-.002c1.332-.034 2.391-.052 3.235-.052.976 0 1.583.021 2.286.047l.289.01c-.236 5.541-1.171 13.22-2.081 20.689-1.323 10.867-2.692 22.105-2.224 28.756.559 7.945 5.936 10.764 10.371 10.764 3.125 0 6.317-1.332 8.537-3.562 2.014-2.024 3.114-4.656 3.101-7.41-.039-8.149-3.964-55.94-4.251-59.448zm-3.632 62.096c-.967.972-2.404 1.574-3.754 1.574-2.203 0-3.428-1.51-3.637-4.487-.422-6.004.906-16.914 2.191-27.467 1.186-9.734 2.305-18.93 2.178-24.896a3.375 3.375 0 0 0-3.374-3.303c-1.731 0-8.675.664-9.06-.068-1.062-1.741-2.277-10.688 3.021-35.346 2.425-11.285 5.272-21.403 7.481-27.997 1.129 12.633 1.799 37.294 1.836 60.043 0 .092.004.182.011.272.042.509 4.201 51.041 4.242 59.064.005.969-.377 1.849-1.135 2.611zm-166.341-98.9c0-2.134-.068-5.211-.154-9.106-.132-5.952-.296-15.609-.296-23.355a3.375 3.375 0 1 0-6.75 0c0 7.821.165 17.519.298 23.504.023 1.046.046 2.051.065 3.002l-3.472.051V38.878a3.375 3.375 0 1 0-6.75 0v25.527l-3.153.046V38.878a3.375 3.375 0 1 0-6.75 0V64.55l-3.011.044V36.973a3.375 3.375 0 1 0-6.75 0v32.826c0 8.19 6.004 13.786 15.58 14.887v19.335c-.975.018-1.512.034-1.567.035a3.374 3.374 0 0 0-3.239 2.874c-1.598 10.676-5.008 44.079-4.729 57.748.173 8.444 5.758 12.224 11.216 12.224 5.808 0 12.269-4.297 12.581-11.24.357-7.971-1.746-41.747-2.644-53.863-.163-2.206-.285-3.849-.342-4.694a3.376 3.376 0 0 0-3.367-3.149c-.399 0-.784 0-1.159.002V84.633c8.622-1.38 14.393-8.216 14.393-14.424zm-13.624 95.149c-.129 2.867-3.122 4.792-5.837 4.792-2.848 0-4.393-1.94-4.468-5.612-.236-11.584 2.46-41.023 4.249-53.792.904-.013 2.012-.024 3.308-.032l.117 1.581c.812 10.967 2.97 45.495 2.631 53.063zm-3.946-87.22c-2.702 0-11.078-.523-12.259-6.795l22.997-.338c-.606 3.154-4.658 7.133-10.738 7.133z"/></symbol><symbol viewBox="0 0 512 512" id="online-booking" xmlns="http://www.w3.org/2000/svg"><path d="M502 289.984h-8V50c0-27.57-22.43-50-50-50H68.002c-27.57 0-50 22.43-50 50v239.985h-8c-5.523 0-10 4.477-10 10v17c0 27.019 21.981 49 49 49h11.56a68.815 68.815 0 0 0-1.844 54.216l33.231 85.424a10.003 10.003 0 0 0 9.322 6.377c1.206 0 2.432-.22 3.623-.683 5.147-2.002 7.696-7.798 5.694-12.945L77.357 412.95a48.83 48.83 0 0 1 5.172-45.24l16.481-24.16v19.385c0 5.523 4.477 10 10 10s10-4.477 10-10v-164.89c0-7.745 6.301-14.045 14.045-14.045s14.045 6.3 14.045 14.045v131.709c0 5.523 4.477 10 10 10s10-4.477 10-10v-47.067c0-7.745 6.3-14.045 14.045-14.045s14.045 6.3 14.045 14.045v47.067c0 5.523 4.477 10 10 10s10-4.477 10-10v-47.067c0-7.745 6.301-14.045 14.045-14.045s14.045 6.3 14.045 14.045v47.067c0 5.523 4.477 10 10 10s10-4.477 10-10v-47.21c0-7.745 6.3-14.045 14.045-14.045s14.045 6.3 14.045 14.045v89.299c0 29.935-5.95 59.076-17.686 86.614l-16.884 39.62c-2.165 5.081.199 10.955 5.279 13.12a9.968 9.968 0 0 0 3.916.803c3.887 0 7.584-2.281 9.204-6.082l16.884-39.62c12.797-30.032 19.287-61.811 19.287-94.454v-5.859h151.629c27.019 0 49-21.981 49-49v-17c0-5.524-4.477-10.001-9.999-10.001zm-428.86 56H49.002c-15.99 0-29-13.009-29-29v-7h77.696l-24.558 36zm25.872-147.94v21.955h-7.013c-9.925 0-18-8.075-18-18s8.075-18 18-18h10.058a33.82 33.82 0 0 0-3.045 14.045zm65.045-14.045h35.588c9.925 0 18 8.075 18 18s-8.075 18-18 18h-32.543v-21.955c0-5.007-1.096-9.76-3.045-14.045zm113.269 64.5c-9.415 0-17.948 3.843-24.117 10.04-6.158-6.114-14.631-9.898-23.973-9.898-9.378 0-17.882 3.812-24.045 9.966-6.163-6.155-14.667-9.966-24.045-9.966-5.007 0-9.76 1.095-14.045 3.044v-11.686h32.543c20.953 0 38-17.047 38-38s-17.047-38-38-38H91.999c-20.953 0-38 17.047-38 38s17.047 38 38 38h7.013v49.986h-61.01V50c0-16.542 13.458-30 30-30H444c16.542 0 30 13.458 30 30v196.013h-86.011c-5.523 0-10 4.477-10 10s4.477 10 10 10H474v23.972H311.371v-7.441c.001-18.774-15.272-34.045-34.045-34.045zM492 316.984c0 15.991-13.009 29-29 29H311.371v-36H492v7z"/><path d="M355.22 248.939a10.092 10.092 0 0 0-7.07-2.93c-2.64 0-5.21 1.07-7.07 2.93a10.033 10.033 0 0 0-2.93 7.07c0 2.64 1.06 5.21 2.93 7.07 1.86 1.87 4.43 2.93 7.07 2.93 2.63 0 5.21-1.06 7.07-2.93 1.86-1.86 2.93-4.43 2.93-7.07 0-2.631-1.07-5.21-2.93-7.07zm-175.989-136.01a10.074 10.074 0 0 0-7.07-2.93c-2.64 0-5.21 1.07-7.07 2.93-1.87 1.86-2.93 4.44-2.93 7.07s1.06 5.21 2.93 7.07c1.86 1.86 4.44 2.93 7.07 2.93s5.2-1.07 7.07-2.93c1.86-1.86 2.93-4.44 2.93-7.07s-1.07-5.21-2.93-7.07zm-43.273-2.93H63.999c-5.523 0-10 4.477-10 10s4.477 10 10 10h71.959c5.523 0 10-4.477 10-10s-4.477-10-10-10zM227.644 54H64.052c-5.523 0-10 4.477-10 10s4.477 10 10 10h163.592c5.523 0 10-4.477 10-10s-4.477-10-10-10zM428 125.571v-15.072c0-11.028-8.972-20-20-20h-35.167c-3.645 0-7.054.996-10 2.706a19.853 19.853 0 0 0-10-2.706h-35.167c-11.028 0-20 8.972-20 20v14.694c-18.012 4.423-31.417 20.7-31.417 40.056v32.75c0 5.523 4.477 10 10 10h171.749c5.524 0 10.001-4.477 10.001-10v-32.75c.001-18.845-12.707-34.767-29.999-39.678zm-55.167-15.072H408v13.5h-35.167v-13.5zm-55.165 0h35.167v13.5h-35.167v-13.5zm120.333 77.5h-151.75v-22.75c0-11.717 9.533-21.25 21.25-21.25h109.251c11.717 0 21.25 9.533 21.25 21.25v22.75z"/></symbol><symbol viewBox="0 0 392.747 392.747" id="pet" xmlns="http://www.w3.org/2000/svg"><path d="M379.498 90.453l-40.104-16.18c-2.449-12.946-12.287-23.311-24.947-26.528l-2.169-24.992a9 9 0 0 0-15.634-5.266l-10.492 11.572-6.437-22.531a9.001 9.001 0 0 0-8.341-6.522c-3.898-.121-7.443 2.258-8.774 5.928l-55.536 153.21c-39.95 10.374-74.835 35.938-96.262 70.724-19.626 31.862-25.722 68.366-17.165 102.786 5.001 20.117 14.496 33.373 24.209 42.065h-7.639l-.216.003c-36.135.881-69.622-19.663-85.259-52.307-2.147-4.483-7.522-6.375-12.005-4.229a9 9 0 0 0-4.228 12.005c18.31 38.226 57.078 62.557 99.286 62.557h171.829a9 9 0 0 0 9-9c0-24.226-19.323-35.268-36.377-39.321 7.974-15.546 8.663-29.218 7.759-38.162l2.352-.314 53.943 82.713a9.002 9.002 0 0 0 7.539 4.083h32.755a9 9 0 0 0 7.614-13.797c-.348-.552-34.166-54.247-52.346-84.309V143.416c2.676.308 5.681.463 8.335.463 26.109 0 50.664-14.73 63.885-40.848.011-.021.35-.729.404-.865a8.999 8.999 0 0 0-4.979-11.713z"/></symbol><symbol viewBox="0 0 578.106 578.106" id="phone" xmlns="http://www.w3.org/2000/svg"><path d="M577.83 456.128c1.225 9.385-1.635 17.545-8.568 24.48l-81.396 80.781c-3.672 4.08-8.465 7.551-14.381 10.404-5.916 2.857-11.729 4.693-17.439 5.508-.408 0-1.635.105-3.676.309-2.037.203-4.689.307-7.953.307-7.754 0-20.301-1.326-37.641-3.979s-38.555-9.182-63.645-19.584c-25.096-10.404-53.553-26.012-85.376-46.818-31.823-20.805-65.688-49.367-101.592-85.68-28.56-28.152-52.224-55.08-70.992-80.783-18.768-25.705-33.864-49.471-45.288-71.299-11.425-21.828-19.993-41.616-25.705-59.364S4.59 177.362 2.55 164.51-.306 141.56.102 134.216c.408-7.344.612-11.424.612-12.24.816-5.712 2.652-11.526 5.508-17.442s6.324-10.71 10.404-14.382L98.022 8.756c5.712-5.712 12.24-8.568 19.584-8.568 5.304 0 9.996 1.53 14.076 4.59s7.548 6.834 10.404 11.322l65.484 124.236c3.672 6.528 4.692 13.668 3.06 21.42-1.632 7.752-5.1 14.28-10.404 19.584l-29.988 29.988c-.816.816-1.53 2.142-2.142 3.978s-.918 3.366-.918 4.59c1.632 8.568 5.304 18.36 11.016 29.376 4.896 9.792 12.444 21.726 22.644 35.802s24.684 30.293 43.452 48.653c18.36 18.77 34.68 33.354 48.96 43.76 14.277 10.4 26.215 18.053 35.803 22.949 9.588 4.896 16.932 7.854 22.031 8.871l7.648 1.531c.816 0 2.145-.307 3.979-.918 1.836-.613 3.162-1.326 3.979-2.143l34.883-35.496c7.348-6.527 15.912-9.791 25.705-9.791 6.938 0 12.443 1.223 16.523 3.672h.611l118.115 69.768c8.571 5.308 13.67 12.038 15.303 20.198z"/></symbol><symbol viewBox="0 0 430.114 430.114" id="pin-map" xmlns="http://www.w3.org/2000/svg"><path d="M356.208 107.051c-1.531-5.738-4.64-11.852-6.94-17.205C321.746 23.704 261.611 0 213.055 0 148.054 0 76.463 43.586 66.905 133.427v18.355c0 .766.264 7.647.639 11.089 5.358 42.816 39.143 88.32 64.375 131.136 27.146 45.873 55.314 90.999 83.221 136.106 17.208-29.436 34.354-59.259 51.17-87.933 4.583-8.415 9.903-16.825 14.491-24.857 3.058-5.348 8.9-10.696 11.569-15.672 27.145-49.699 70.838-99.782 70.838-149.104v-20.262c.001-5.347-6.627-24.081-7-25.234zm-141.963 92.142c-19.107 0-40.021-9.554-50.344-35.939-1.538-4.2-1.414-12.617-1.414-13.388v-11.852c0-33.636 28.56-48.932 53.406-48.932 30.588 0 54.245 24.472 54.245 55.06 0 30.587-25.305 55.051-55.893 55.051z"/></symbol><symbol viewBox="0 0 61.168 61.168" id="pin-on-map" xmlns="http://www.w3.org/2000/svg"><path d="M50.216 37.584h-7.161l3.047-4.4c5.755-7.671 4.922-20.28-1.781-26.982A19.049 19.049 0 0 0 30.761.585a19.052 19.052 0 0 0-13.56 5.617c-6.703 6.702-7.536 19.312-1.804 26.952l3.068 4.431h-7.513L0 60.584h61.168l-10.952-23zm-19.278-25c3.859 0 7 3.141 7 7s-3.141 7-7 7-7-3.141-7-7 3.14-7 7-7zm-18.722 27h7.634l10.911 15.757 10.91-15.757h7.281l9.048 19H3.168l9.048-19z"/></symbol><symbol viewBox="0 0 49.94 49.94" id="star" xmlns="http://www.w3.org/2000/svg"><path d="M48.856 22.73a3.56 3.56 0 0 0 .906-3.671 3.56 3.56 0 0 0-2.892-2.438l-12.092-1.757a1.58 1.58 0 0 1-1.19-.865L28.182 3.043a3.56 3.56 0 0 0-3.212-1.996 3.56 3.56 0 0 0-3.211 1.996L16.352 14c-.23.467-.676.79-1.191.865L3.069 16.622A3.56 3.56 0 0 0 .177 19.06a3.56 3.56 0 0 0 .906 3.671l8.749 8.528c.373.364.544.888.456 1.4L8.224 44.701a3.506 3.506 0 0 0 .781 2.904c1.066 1.267 2.927 1.653 4.415.871l10.814-5.686a1.619 1.619 0 0 1 1.472 0l10.815 5.686a3.544 3.544 0 0 0 1.666.417c1.057 0 2.059-.47 2.748-1.288a3.505 3.505 0 0 0 .781-2.904l-2.065-12.042a1.582 1.582 0 0 1 .456-1.4l8.749-8.529z"/></symbol><symbol viewBox="0 0 611.989 611.988" id="wifi" xmlns="http://www.w3.org/2000/svg"><path d="M305.994 417.769c-30.85 0-55.887 25.037-55.887 55.887s25.038 55.887 55.887 55.887 55.887-25.037 55.887-55.887-25.038-55.887-55.887-55.887zm299.442-195.4C530.697 133.434 421.549 82.446 305.994 82.446S81.309 133.434 6.551 222.369c-9.93 11.811-8.402 29.434 3.428 39.363 5.234 4.396 11.587 6.558 17.939 6.558 7.973 0 15.891-3.391 21.423-9.967 64.084-76.248 157.639-119.989 256.652-119.989 99.013 0 192.568 43.741 256.651 119.971 5.533 6.576 13.45 9.967 21.424 9.967 6.353 0 12.724-2.143 17.958-6.558 11.811-9.912 13.34-27.553 3.41-39.345zM305.994 194.22c-82.545 0-160.489 36.419-213.879 99.926-9.929 11.811-8.402 29.434 3.428 39.363a27.833 27.833 0 0 0 17.958 6.558c7.973 0 15.891-3.391 21.405-9.967 42.716-50.838 105.086-79.993 171.089-79.993s128.372 29.155 171.107 79.993c5.533 6.595 13.45 9.967 21.404 9.967 6.353 0 12.724-2.143 17.959-6.558 11.829-9.929 13.356-27.57 3.428-39.363-53.41-63.506-131.354-99.926-213.899-99.926zm0 111.774c-49.553 0-96.331 21.852-128.335 59.948-9.93 11.811-8.402 29.434 3.428 39.363a27.832 27.832 0 0 0 17.958 6.557c7.973 0 15.891-3.39 21.405-9.966 21.368-25.429 52.552-40.016 85.544-40.016s64.177 14.587 85.544 40.016c5.533 6.595 13.45 9.966 21.405 9.966 6.353 0 12.724-2.142 17.958-6.557 11.83-9.93 13.357-27.553 3.428-39.363-32.005-38.096-78.783-59.948-128.335-59.948z"/></symbol><symbol viewBox="0 0 512 512" id="wine" xmlns="http://www.w3.org/2000/svg"><path d="M351.994 480h-80V318.469c34.938-3.562 67.656-17.906 93.219-42.594 60.313-58.297 64.375-207.5 7.375-270.594L367.807 0H144.15l-4.766 5.281c-56.984 63.094-52.89 212.312 7.423 270.594 25.531 24.688 58.25 39.031 93.188 42.594V480h-80c-8.844 0-16 7.156-16 16s7.156 16 16 16h192c8.844 0 16-7.156 16-16s-7.157-16-16.001-16zM158.76 32h194.453c41.063 53.766 36.406 175.797-10.25 220.859-46.844 45.266-127.047 45.329-173.906.016C122.4 207.797 117.697 85.766 158.76 32zm21.422 209.375c-23.313-22.531-34.594-68.828-33.313-113.375h218.25c1.312 44.563-9.969 90.844-33.281 113.359-38.719 37.453-112.922 37.453-151.656.016z"/></symbol></svg>